<svg xmlns="http://www.w3.org/2000/svg" version="1.1" width="600px" height="600px" viewBox="0 0 200 200" style="overflow:hidden!important;"><defs id="SvgjsDefs113233"></defs><g id="svga-group-wrapper"><g id="svga-group-backs-single"></g><g id="svga-group-humanwrap-move" transform="matrix(1,0,0,1,0,0)"><g id="svga-group-humanwrap" transform="matrix(1,0,0,1,0,0)"><g id="svga-group-hair-back-move" transform="matrix(1,0,0,1,0,0)"><g id="svga-group-hair-back" transform="matrix(1,0,0,1,0,0)"></g></g><g id="svga-group-humanbody-back"><path id="SvgjsPath113632" d="M180.8 184.9c-2.3-3.4-38.9-17.8-38.9-17.8l-13.4-5.2-5.6-68.8H76.8L71.3 162l-13.4 5.2S21.4 181.6 19 185c-2.3 3.4-3.3 14.9-3.3 14.9V219h168.5v-19.2c-.1.1-1-11.5-3.4-14.9z" fill="#f6dac5" stroke-width="none" opacity="1" stroke="none"></path></g><g id="svga-group-chinshadow-single"><path id="SvgjsPath113874" d="M74 148c3.9 3.2 9.9 14.7 11.7 14.5 1.9-.2 8.6-2.2 8.6-2.2s6.8 2.1 8.6 2.2c2 .2 7.9-11.4 11.8-14.5 2-1.63 7.19-5.3 11.98-8.92l-3.74-45.98H76.82l-4.28 53.79c.58.42 1.09.8 1.46 1.11z" fill="#d7a681" stroke-width="none" opacity="1" stroke="none"></path></g><g id="svga-group-humanbody-front"><path id="SvgjsPath113633" d="M184.5 219c-.1-6.4-.1-12.8-.1-19.2l-.3-.1s.1-.1.2 0c.1 0 .1.1.1.1v-.4l-.1-.5-.1-.9-.2-1.9c-.2-1.3-.4-2.5-.6-3.8-.2-1.3-.5-2.5-.9-3.8-.4-1.2-.8-2.5-1.5-3.6-.8-.9-1.9-1.5-2.9-2.1-1-.6-2.1-1.1-3.2-1.7-2.1-1.1-4.3-2.1-6.5-3.1-4.4-2-8.7-3.9-13.1-5.7-4.4-1.9-8.8-3.7-13.2-5.5l-13-5.2-1.2-16.9c-.4-5.7-.9-11.5-1.3-17.2l-1.3-17.2-1.5-17.3-.1-.8h-.8c-7.7 0-15.4.1-23.1.1l-23.1.2h-.5v.5L75 110.2l-1.3 17.2c-.8 11.4-1.8 22.8-2.8 34.2-5.6 2.1-11.2 4.2-16.7 6.4-5.6 2.2-11.2 4.5-16.8 6.9-2.8 1.2-5.6 2.4-8.3 3.6-2.8 1.3-5.5 2.5-8.2 4.1-.7.4-1.3.8-2 1.4-.2.1-.4.4-.5.6l-.3.6c-.2.4-.4.7-.5 1.1-.6 1.5-1 3-1.3 4.5-.6 3-1.1 6-1.4 9.1l-.1 19.1v.9h.9l42.1.1H100c14 0 28.1-.1 42.1-.2l42.1-.5h.3v-.3zm-84.5-1-42.1-.1-41.2.1-.1-18.1c.3-3 .6-5.9 1.2-8.9.3-1.4.6-2.9 1.1-4.2.1-.3.3-.7.4-.9l.2-.4.3-.3c.5-.4 1.1-.8 1.8-1.2 2.5-1.5 5.3-2.8 8-4.1 2.7-1.3 5.5-2.5 8.2-3.7 5.5-2.4 11.1-4.8 16.7-7.1s11.2-4.5 16.9-6.7l.2-.1v-.2c.9-11.5 1.7-23 2.7-34.4l1.4-17.2 1.5-16.7 22.6.2c7.4.1 14.8.1 22.3.1l1.3 16.4 1.5 17.2c.5 5.7 1 11.5 1.5 17.2l1.6 17.2v.3l.3.1 13.4 5c4.4 1.7 8.9 3.4 13.3 5.2 4.4 1.8 8.8 3.7 13.2 5.6 2.2 1 4.3 2 6.5 3 1.1.5 2.1 1.1 3.2 1.6 1 .6 2.1 1.2 2.9 2 .7 1.1 1.1 2.3 1.4 3.5.3 1.2.6 2.5.8 3.7.2 1.3.4 2.5.6 3.8l.2 1.9.1.9.1.5v.4c0 6.3 0 12.6-.1 18.9l-41.8-.5c-14 .1-28.1 0-42.1 0z" fill="#c88f64" stroke-width="none" opacity="1" stroke="none"></path><path id="SvgjsPath113634" d="M125.1 142.4s-1.8 23-9.1 32.9c0 0 7.9-25 9.1-32.9zm-34.5 16s5 7.9 11.5 10.1c0 0-9.5 2.2-11.5-10.1zM73.4 140c6.7 25.6 6.7 25.6 8.5 30.7 0 0 .4-12.6-8.5-30.7z" fill="#d7a681" stroke-width="none" opacity="1" stroke="none"></path></g><g id="svga-group-clothes-single"><path id="SvgjsPath114093" d="M10.9 220c0-15.2 1.2-32.2 2.3-34.1 1-1.9 5-3.3 5-3.3s3.5-2.9 7.1-4.8c3.5-1.9 15.7-3.9 15.7-3.9s0-1 .4-1.9 1.9-1.2 5-5.2 2.1-4.8 2.7-6.7c.6-1.9 4.4-1.5 4.4-1.5s.4-6 4.8-10c4.4-3.9 13.6-6.6 13.6-6.6s-.1 6.9-.1 11.3-1.3 4.6 5.1 12.6c6.5 7.9 12.4 15.1 15.4 17 3.1 1.9 7.2 4 9.1 9.5 0 0 1.7-4.4 3.7-5.9s6.2-6 7.9-7.7c1.7-1.7 5.3-8.1 7.5-9.5 2.2-1.5 7.4-6.5 8.3-7.9s-.9-21.7-.9-21.7 6.9 3.7 9.4 5.4c2.5 1.7 4.9 9.5 4.9 9.5s2.4 2.1 5.1 4.1 4.7 2.9 6.2 5.7c1.5 2.8.8 5.3 1.4 6.5.6 1.1 1.2 2 1.6 2.6 0 0 17.1 5.1 20 6.4s5.7 4 5.7 4 3.1 1.9 3.9 9.8 1.8 26.4 1.8 26.4l-177-.1z" fill="#468084" stroke-width="none" opacity="1" stroke="none"></path><path id="SvgjsPath114094" d="m188.6 219.9-1.2-18.6c-.2-3.1-.4-6.2-.9-9.3-.2-1.6-.6-3.2-1.2-4.7-.3-.8-.7-1.5-1.1-2.2-.2-.4-.5-.7-.8-1-.3-.3-.5-.6-.9-.9-1.5-1.4-3.1-2.6-4.9-3.6-.9-.5-1.9-.9-2.8-1.2l-2.8-1.1-15.3-4.3c-.5-.8-1.1-1.6-1.4-2.4-.1-.3-.2-.8-.2-1.3s-.1-1-.1-1.6c-.2-2.2-1.2-4.3-2.7-5.9-1.6-1.6-3.4-2.6-5.1-3.8-1.6-1.1-3.2-2.4-4.7-3.7-.6-1.7-1.2-3.3-1.9-4.9-.4-.8-.8-1.6-1.3-2.4-.5-.8-1-1.6-1.9-2.2-1.5-1-3.1-1.9-4.7-2.8-1.6-.9-3.2-1.7-4.8-2.6l-.7-.4s.7 11.7 1 17.3c0 1.4.4 3 .3 4.3 0 .2 0 .3-.1.5 0 .1 0 .1-.1.2l-.1.2c-.2.3-.4.5-.6.8-.4.5-.9 1-1.4 1.5-2 2-4 3.9-6.2 5.6-1.1.9-2 2.1-2.8 3.2-.8 1.1-1.6 2.3-2.4 3.4-.4.6-.8 1.1-1.2 1.7-.4.6-.8 1.1-1.4 1.5-1.1.8-3.5 4.2-6.3 6.5-.6.4-1.2.7-1.8 1.3-.5.5-.9 1.1-1.3 1.7-.6.9-1.1 1.8-1.5 2.8-.9-2.2-2.5-4.3-4.4-5.8-1.1-.9-2.2-1.6-3.4-2.4-1.2-.7-2.1-1.7-3.2-2.5-4.4-4-4.4-6-8.3-9.7-1.9-1.9-3.6-4.1-5.2-6.2-.8-1.1-1.7-2.1-2.4-3.2-.8-1.1-1.4-2.2-1.8-3.4-.4-1.1-.2-2.4-.1-3.8l.1-4.1.1-8.1v-1.2l-1.2.3c-2.2.6-4.3 1.4-6.3 2.3-2.1.9-4.1 1.9-6 3.2-1.9 1.3-3.6 3.1-4.6 5.2-1 1.8-1.6 3.8-1.9 5.8-.7 0-1.4.1-2.2.2-.5.1-1 .3-1.5.7-.2.2-.5.5-.6.8-.2.3-.2.6-.3.8-.1.5-.2 1-.2 1.4 0 .4-.1.8-.2 1.1-.2.7-.7 1.5-1.1 2.2-1 1.4-2.1 2.8-3.3 4-.6.6-1.2 1.1-2 1.8-.2.2-.4.4-.6.7-.2.3-.2.5-.3.8-.1.3-.2.6-.2 1-1.5.4-7.5.9-9 1.4-1.6.6-3.2 1.1-4.8 1.8-1.6.7-3.1 1.6-4.5 2.6-1.4.9-2.7 1.9-4 3-1.6.7-3.1 1.4-4.4 2.6-.3.3-.6.7-.9 1.2-.2.5-.2.9-.3 1.3-.2.9-.3 1.7-.4 2.5-.4 3.4-.6 6.7-.8 10.1-.2 3.4-.3 6.7-.3 10.1 0 1.7-.1 3.4-.1 5 0 1.7 0 3.3.1 5.1l43.9.4 44.2.3c14.7.1 29.5.1 44.3.2 14.8 0 29.6.1 44.4 0h1.1l-.1-1.1zm-85-30.9c.4-.6.8-1.1 1.2-1.6.4-.5 1-.8 1.6-1.2 2.4-1.4 3.4-4.9 12.8-9.5 3.2-1.6 6-3.6 8.7-5.7 1.4-1.1 2.7-2.2 4-3.3.6-.6 1.3-1.2 1.8-2s.9-1.6 1.3-2.4c.7-1.7 1.1-3.4 1.2-5.2 0-.4 0-.9-.1-1.4-.1-.4-.2-.9-.4-1.3-.3-.8-.7-1.6-1.2-2.3.3.8.5 1.6.7 2.5.1.8.2 1.6 0 2.4-.3 1.6-.9 3.2-1.7 4.6-.4.7-.8 1.4-1.3 2-.5.6-1.1 1.1-1.7 1.7-1.3 1.1-2.6 2.1-3.9 3.2-1.3 1.1-2.7 2.1-4.1 3.1l-2.1 1.5c-.7.5-1.4.9-2.1 1.4-1.5.9-2.9 1.9-4.4 2.9.1-.1.1-.2.2-.2.4-.6.8-1.1 1.2-1.7.8-1.1 1.6-2.3 2.4-3.4.8-1.1 1.7-2.3 2.7-3.1 2.3-1.6 4.3-3.6 6.3-5.6l1.5-1.5c.2-.3.5-.5.7-.8 0 0 2-2.5 2.4-3.6.5-1.3.8-2.7.7-4.2-.2-1.4-.9-5.1-1.6-6.4-.5-1.1-2-4.9-2.2-7.2 1.4.8 2.7 1.5 4.1 2.3 1.6.9 3.1 1.8 4.6 2.8.6.4 1.1 1.2 1.6 1.9.4.8.8 1.5 1.2 2.4.7 1.6 1.3 3.3 1.9 5l.1.1.1.1c.1 0 .1.1.1.1v.1c0 1.1-.1 2.3-.3 3.4-.3 2.2-1 4.4-1.8 6.5-1.5 4.2-3.9 8.1-7.5 10.4-.9.6-1.8 1.1-2.9 1.7l-3 1.8-5.8 3.6c-1 .6-1.9 1.1-2.9 1.6-.5.2-1 .5-1.5.6-.5.2-1.1.3-1.6.4-2.2.6-4.4 1.2-6.6 1.9 2.3-.3 4.6-.6 6.8-.9.6-.1 1.1-.1 1.7-.3.6-.1 1.2-.3 1.7-.6 1.1-.4 2.1-1 3.2-1.5 2.1-1.1 4-2.3 6-3.4 1-.6 2-1.1 3-1.7 1-.5 2.1-1.1 3-1.8 2-1.4 3.7-3.1 5-5.1 1.3-2 2.2-4.2 2.9-6.5.7-2.2 1.1-4.5 1.2-6.9 0-1 0-2.1-.1-3.1 1.3 1.2 2.7 2.3 4.1 3.3 1.7 1.2 3.5 2.2 4.8 3.6 1.3 1.4 2.1 3.2 2.3 5.2.1.5.1 1 .1 1.5s0 1 .3 1.7c-.8.9-1.6 1.9-2.3 2.8-.9 1.2-1.9 2.3-2.8 3.4-1.9 2.1-4.2 4.2-6.1 6.6 1.5-.6 2.8-1.4 4.1-2.2 1.3-.9 2.5-1.9 3.5-3 1.1-1.2 1.9-2.5 2.6-3.9.5-1 1-2 1.3-3.1.4.8.9 1.6 1.4 2.2l.1.2h.1c-1.5 2.2-3 4.4-4.7 6.6-1.8 2.3-3.7 4.6-5.9 6.4-2.3 1.8-4.8 3.2-7.5 4.3-2.7 1.1-5.4 2.1-8.2 2.9-2.8.8-5.7 1.3-8.6 1.8-2.9.5-5.7 1.2-8.6 1.6-3.4.6-4.8.5-5.1.5 0-1.1-.1-2.1-.3-2.8.6-.3 1.4-.9.1-1.4-1.6-.5-3.1.2-3.1.9-.1.6.5.7 1.1.7.2.6.2 1.3.2 2.1-.3-.1-.6-.3-.8-.5-.5-.4-.9-.8-1.3-1.3-.3-.5-.7-1.1-.8-1.6l-.6-2.1c.6-.9 1.1-2 1.8-3zm-61.9-14.6v-.6c0-.3.1-.8.2-1.1 0-.2.1-.4.2-.4 0-.1.1-.2.3-.3.6-.5 1.4-1.1 2-1.8 1.3-1.3 2.5-2.7 3.5-4.2.5-.8 1-1.6 1.3-2.6.3-1 .3-2 .5-2.7 0-1.1 1.6-1.3 3.1-1.3 0 .6.1 1.1.1 1.7.4 3.3 1.5 6.6 3.1 9.6 1.7 2.9 3.9 5.6 6.5 7.6 2.6 2.1 5.6 3.7 8.7 4.7-2.8-1.8-5.4-3.7-7.7-5.9s-4.3-4.7-5.8-7.4c-.8-1.4-1.4-2.8-2-4.3-.6-1.5-1-3-1.3-4.5-.1-.5-.2-1.1-.3-1.6l.1-.6c.2-2 .9-4.1 1.9-5.9 1-1.9 2.4-3.4 4.1-4.6 1.7-1.2 3.7-2.1 5.7-3 1.6-.7 3.3-1.3 5-1.9 0 0-1.7 4.2-2.2 5.1-.7 1.1-1 2.6-.7 3.9.1.7.3 1.3.6 1.8.2.6.5 1.1.8 1.6.4.7 3 5.6 3.8 6.8.8 1.1 1.7 2.2 2.5 3.3 1.7 2.1 3.6 4.9 5.6 6.8 4.1 4 3.8 6.3 8.3 9.4 1.1.8 2.3 1.5 3.5 2.2 1.2.7 2.3 1.4 3.3 2.2 2.1 1.6 3.7 3.8 4.6 6.3l.1.3-.4 1.1c-.2.6-.5 1.3-.9 1.8-.4.6-.8 1-1.2 1.1-.1 0-.2.1-.4.1h-1.3c0-.1.1-.2.1-.3.3-.6.6-1.2.8-1.5.4.1.9 0 1-.3.2-.5-.6-2.1-1.6-2-.9 0-1.3.3-.5 1.4-.6.6-1.3 1.5-1.8 2.8h-.6c-3.1-.1-6.1-.4-9.2-.7-3.1-.4-6.1-.7-9-1.5-2.9-.8-15.6-7.5-21.2-10-2.8-1.2-5.7-2.4-8.3-4.1-1.3-.9-2.5-1.8-3.5-3-.8-.9-1.6-2.1-1.9-3.3l.5-.2zm102 44.6c-14.7 0-29.3.1-44 .2l-44.2.3-44.5.4c.1-1.6.1-3.3.2-5l.2-5c.1-3.4.3-6.7.6-10.1.2-3.3.6-6.7 1-10 .1-.8.2-1.6.4-2.4.1-.4.2-.8.3-1.1.1-.3.4-.6.6-.8 1.1-1 2.7-1.8 4.2-2.4h.1l.1-.1c1.3-1 2.7-2 4.1-2.9 1.4-.9 2.8-1.8 4.3-2.4 3-1.3 10.9-2.2 14.1-3.1.3 1.3 1 2.4 1.8 3.5 1 1.2 2.2 2.3 3.4 3.2 2.5 1.9 5.4 3.2 8.2 4.5 5.6 2.7 18.2 9.9 21.2 10.8 1.5.4 3.1.8 4.6 1s3.1.5 4.6.7c3.1.4 6.2.6 9.3.8h.2v.1c-.3 2.9 1.6 8.7 2 12.1s-1 6.8-.3 7 2.5.9 2.8-.2c.3-1.1.6-10.9-.9-13.9-.9-1.8-1.3-3.6-1.3-5.1H98.5c.2 0 .5-.1.8-.1 1.1-.3 1.8-1.2 2.3-1.9.1-.1.1-.2.2-.3 0 .1.1.1.1.2.5.7 1.1 1.3 1.8 1.8.6.4 1.2.7 1.8.9-.1.5-.1.9-.2 1.3-.4 1.9-2 3.1-1.2 7.2s3.1 6.1 3.4 7.7c.3 1.6.4 2.9 1 2.9s2.4-.7 2.7-1.6-.8-3.5-2.3-5.4c-1.5-1.9-2.8-4.6-2.8-6.1 0-1.3.9-3.7 1.3-5.7 6.7-.6 11.3-1.8 14.2-2.3s5.8-1.2 8.6-2c2.9-.9 5.6-1.9 8.3-3.2 2.7-1.3 5.3-2.8 7.6-4.8 2.2-2 4.1-4.4 5.8-6.8 1.6-2.2 3-4.5 4.3-6.9h.1l15.4 4.5 2.7 1.1c.9.4 1.8.8 2.6 1.2 1.6.9 3.2 2.1 4.6 3.4l.1.1.6.6.6.9c.4.6.7 1.3.9 1.9.5 1.4.9 2.8 1.1 4.3.4 3 .6 6.1.8 9.2.4 5.8.7 11.7 1.1 17.5-14.5.2-28.8.2-43.1.3zM32.8 203.3c-.3-1.8-1-3.3-1.7-4.7-1.5-2.9-3.2-5.6-5.1-8.2-1-1.3-1.9-2.6-3.1-3.7-1.2-1.1-2.5-2.1-4.1-2.6 1.4.8 2.5 2 3.4 3.2.9 1.2 1.7 2.6 2.6 3.9 1.6 2.7 3.2 5.4 4.6 8.2.7 1.4 1.4 2.8 1.6 4.1.3 1.5.4 3.1.6 4.6.3 3.1.6 6.3 1.1 9.5.4-3.2.5-6.4.4-9.6 0-1.4-.1-3-.3-4.7zm142.4-17.5c-.9.2-1.8.7-2.4 1.4-.6.7-1.1 1.5-1.5 2.2-1.8 2.8-3.6 5.7-5.2 8.7-.4.8-.7 1.6-1.1 2.4-.2.4-.3.8-.4 1.3-.1.4-.2.9-.3 1.3-.2 1.7-.4 3.4-.4 5.1-.1 3.4-.1 6.8.1 10.1.6-3.3 1-6.7 1.5-10 .2-1.6.4-3.3.7-4.9.3-1.5 1-3 1.7-4.4 1.5-3 3.2-5.8 4.7-8.9.4-.8.7-1.5 1.1-2.1.4-.6 1-1 1.7-1.3.7-.3 1.6-.4 2.4-.8.8-.3 1.6-.8 2.2-1.3-.8.4-1.6.6-2.4.8-.7.2-1.5.2-2.4.4z" fill="#216165" stroke-width="none" opacity="1" stroke="none"></path><path id="SvgjsPath114095" d="M173.1 180.5c-3.5-1.5-13.8-3-16.4-4.8 0 0 11.8 6.1 15.9 7.4 4.1 1.3 7.2.9 7.2.9s-3.2-2-6.7-3.5zm-32.6-24.6c0-3.2-2.4-7.4-4.1-9.5s-5.4-3.2-6.9-4.3c0 0 .9.9 2.6 2.8 1.7 1.9 5 6.7 5.6 10.6.6 3.9-2.6 11.3-4.8 14.1s-10.8 7.2-14.8 9.5c-3.9 2.4-7.5 5.6-12.1 8.2s-3 6.9-3 6.9.7-2.6 2.2-4.6 7.3-6.1 11.6-7.4c4.3-1.3 14.3-7.4 18.2-11.1 3.9-3.4 5.5-11.9 5.5-15.2zm3.2 2.2s1.9 3 3.2 4.8c1.3 1.7 2.4 5.9-1.5 12.4s-15 13.2-15 13.2 9.5-4.3 12.6-6.5c3-2.2 8.9-9.5 9.3-11.3.4-1.7-.2-4.8-1.5-6.9-1.2-2.2-6.2-4.8-7.1-5.7zm-59.3 22.6c-3.9-3-11.4-13.2-14.4-17.1-3-3.9-3.2-8-3.5-10.8 0 0-2.4 2.6-2.8 4.8s-.4 5.9 3.2 8.9c3.7 3 17.5 18 22.7 20.4 5.2 2.4 9.3 5.9 9.3 5.9s-1.1-2.6-2.4-3.9c-1.3-1.5-8.2-5.2-12.1-8.2zM60 185.4c3.9 1.5 14.5 6.3 17.3 7.4s15.1 3 15.1 3-11.8-3.9-15.8-5.6c-3.8-1.7-16.6-4.8-16.6-4.8z" fill="#5d9093" stroke-width="none" opacity="1" stroke="none"></path></g><g id="svga-group-head" transform="matrix(1,0,0,1,0,0)"><g id="svga-group-ears-left-move" transform="matrix(1,0,0,1,0,0)"><g id="svga-group-ears-left" transform="matrix(1,0,0,1,0,0)"><path id="SvgjsPath113786" d="M70.01 81.26s-3.24-4.86-12.55-8.1c0 0-3.1-.67-10.39 10.66 0 0-1.35 5.94 5.13 15.65 0 0 6.34 3.37 16.73-1.21 0 0 4.72-7.69 1.08-17z" fill="#f6dac5" stroke-width="none" opacity="1" stroke="none"></path><path id="SvgjsPath113787" d="M68.66 90.08s-5.67-8.43-10.93-11.38c0 0-3.51 2.67-6.48 7.73 0 0 2.97 6.89 4.45 8.71 0 0 3.64 1.41 11.2-.56l1.76-4.5z" fill="#e7bfa2" stroke-width="none" opacity="1" stroke="none"></path><path id="SvgjsPath113788" d="M46.91 83.79c-.12.72-.12 1.43-.08 2.13.03.71.12 1.41.22 2.1.23 1.39.63 2.75 1.08 4.08.45 1.34 1.04 2.62 1.65 3.9.32.63.66 1.25 1 1.87l1.1 1.81.05.08.09.04c1.39.67 2.82.98 4.28 1.17 1.46.18 2.94.17 4.4.04 1.46-.13 2.9-.44 4.3-.84.71-.19 1.39-.45 2.08-.68l2.03-.82.13-.05.07-.12c.77-1.34 1.25-2.75 1.64-4.19.39-1.44.58-2.93.62-4.41.04-1.48-.04-2.97-.34-4.41-.21-1.46-.68-2.86-1.19-4.24-.75-1.04-1.67-1.91-2.62-2.75-.96-.83-1.97-1.6-3.03-2.3-1.06-.7-2.17-1.33-3.3-1.9-1.14-.58-2.32-1.04-3.51-1.49l-.03-.01h-.02c-.53-.05-.8.08-1.15.19-.32.12-.62.29-.91.46-.56.36-1.08.76-1.57 1.19-.98.85-1.83 1.83-2.63 2.82-1.61 2-2.97 4.15-4.35 6.28l-.02.03.01.02zm.32.09c.7-1.04 1.4-2.08 2.17-3.07.76-1.01 1.55-1.99 2.39-2.94.84-.93 1.7-1.85 2.64-2.66.47-.4.96-.78 1.48-1.09.26-.16.52-.29.79-.4.24-.1.57-.18.69-.18l1.73.62 1.73.71c1.15.49 2.28 1.03 3.37 1.66 1.08.63 2.15 1.3 3.12 2.09.97.79 1.9 1.66 2.65 2.66.47 1.38.89 2.78 1.07 4.23.2 1.44.19 2.91.05 4.35-.13 1.44-.45 2.86-.87 4.23-.4 1.33-.96 2.63-1.61 3.8l-1.83.73c-.67.21-1.34.46-2.02.64-1.36.38-2.75.65-4.14.82-1.4.15-2.81.18-4.21.04-1.35-.15-2.75-.43-3.95-.95l-1.08-1.65-1.06-1.79c-.66-1.22-1.3-2.46-1.79-3.76-.51-1.29-.92-2.63-1.17-4-.27-1.35-.38-2.76-.15-4.09z" fill="#e7bfa2" stroke-width="none" opacity="1" stroke="none"></path><path id="SvgjsPath113789" d="M52.21 84.06c.46-.6.96-1.16 1.45-1.73 1.01-1.12 2.05-2.19 3.12-3.26l.12-.12.16.12c.9.67 1.74 1.43 2.52 2.24.77.82 1.44 1.71 2.09 2.62 1.27 1.84 2.38 3.77 3.26 5.82l-.08.04c-1.24-1.84-2.49-3.65-3.81-5.4-.66-.87-1.34-1.73-2.03-2.57-.66-.79-1.34-1.57-2.09-2.27-1.1.89-2.11 1.91-3.01 3-.91 1.1-1.7 2.31-2.27 3.59.53 1.19 1.08 2.38 1.66 3.54.53 1.03 1.08 2.07 1.7 3.01.68-.6 1.35-1.23 1.97-1.88.72-.77 1.38-1.61 1.82-2.53-.13-.47-.36-.96-.61-1.42a7.38 7.38 0 0 0-1.01-1.36l.06-.07c.46.35.88.77 1.24 1.23.18.23.35.48.49.74.15.26.28.52.39.83l.02.07-.03.1c-.36 1.14-1.06 2.08-1.76 2.96-.72.89-1.51 1.68-2.37 2.45l-.39.34-.31-.42c-.85-1.16-1.45-2.4-2.02-3.65-.58-1.25-1.09-2.51-1.56-3.8l-.06-.15.07-.12c.38-.72.81-1.35 1.27-1.95z" fill="#c88f64" stroke-width="none" opacity="1" stroke="none"></path></g></g><g id="svga-group-ears-right-move" transform="matrix(1,0,0,1,0,0)"><g id="svga-group-ears-right" transform="matrix(1,0,0,1,0,0)"><path id="SvgjsPath113790" d="M129.99 81.26s3.24-4.86 12.55-8.1c0 0 3.1-.67 10.39 10.66 0 0 1.35 5.94-5.13 15.65 0 0-6.34 3.37-16.73-1.21 0 0-4.72-7.69-1.08-17z" fill="#f6dac5" stroke-width="none" opacity="1" stroke="none"></path><path id="SvgjsPath113791" d="M131.34 90.08s5.67-8.43 10.93-11.38c0 0 3.51 2.67 6.48 7.73 0 0-2.97 6.89-4.45 8.71 0 0-3.64 1.41-11.2-.56l-1.76-4.5z" fill="#e7bfa2" stroke-width="none" opacity="1" stroke="none"></path><path id="SvgjsPath113792" d="m153.08 83.76-.02-.03c-1.38-2.13-2.74-4.29-4.35-6.28-.8-1-1.65-1.97-2.63-2.82-.49-.43-1-.84-1.57-1.19-.28-.18-.58-.34-.91-.46-.35-.11-.63-.24-1.15-.19h-.02l-.03.01c-1.19.45-2.38.92-3.51 1.49-1.14.58-2.24 1.2-3.3 1.9-1.06.7-2.07 1.47-3.03 2.3-.95.84-1.86 1.71-2.62 2.75-.51 1.38-.98 2.78-1.19 4.24-.29 1.45-.38 2.93-.34 4.41.04 1.48.23 2.97.62 4.41.39 1.45.87 2.85 1.64 4.19l.07.12.13.05 2.03.82c.69.22 1.38.49 2.08.68 1.41.4 2.84.7 4.3.84 1.46.13 2.94.14 4.4-.04 1.47-.19 2.9-.49 4.28-1.17l.09-.04.05-.08 1.1-1.81c.33-.62.68-1.24 1-1.87.61-1.27 1.2-2.56 1.65-3.9.45-1.33.85-2.69 1.08-4.08.11-.7.19-1.4.22-2.1.04-.71.04-1.41-.08-2.13l.01-.02zm-.43 4.21c-.25 1.37-.65 2.71-1.17 4-.49 1.3-1.13 2.54-1.79 3.76l-1.06 1.79-1.08 1.65c-1.21.52-2.6.81-3.95.95-1.4.14-2.81.11-4.21-.04-1.4-.17-2.78-.44-4.14-.82-.68-.18-1.35-.43-2.02-.64l-1.83-.73c-.65-1.18-1.21-2.48-1.61-3.8-.42-1.38-.74-2.79-.87-4.23-.14-1.44-.15-2.9.05-4.35.17-1.45.6-2.85 1.07-4.23.74-1 1.67-1.88 2.65-2.66.98-.79 2.04-1.46 3.12-2.09 1.09-.62 2.22-1.16 3.37-1.66l1.73-.71 1.73-.62c.11 0 .45.08.69.18.26.12.53.25.79.4.51.31 1.01.68 1.48 1.09.94.81 1.8 1.73 2.64 2.66.83.94 1.63 1.93 2.39 2.94.77.99 1.47 2.03 2.17 3.07.2 1.33.09 2.74-.15 4.09z" fill="#e7bfa2" stroke-width="none" opacity="1" stroke="none"></path><path id="SvgjsPath113793" d="M147.79 84.06c-.46-.6-.96-1.16-1.45-1.73a87.123 87.123 0 0 0-3.12-3.26l-.12-.12-.16.12c-.9.67-1.74 1.43-2.52 2.24-.77.82-1.44 1.71-2.09 2.62-1.27 1.84-2.38 3.77-3.26 5.82l.08.04c1.24-1.84 2.49-3.65 3.81-5.4.66-.87 1.34-1.73 2.03-2.57.66-.79 1.34-1.57 2.09-2.27 1.1.89 2.11 1.91 3.01 3 .91 1.1 1.7 2.31 2.27 3.59-.53 1.19-1.08 2.38-1.66 3.54-.53 1.03-1.08 2.07-1.7 3.01-.68-.6-1.35-1.23-1.97-1.88-.72-.77-1.38-1.61-1.82-2.53.13-.47.36-.96.61-1.42.28-.49.62-.94 1.01-1.36l-.06-.07c-.46.35-.88.77-1.24 1.23-.18.23-.35.48-.49.74-.15.26-.28.52-.39.83l-.02.07.03.1c.36 1.14 1.06 2.08 1.76 2.96.72.89 1.51 1.68 2.37 2.45l.39.34.31-.42c.85-1.16 1.45-2.4 2.02-3.65.58-1.25 1.09-2.51 1.56-3.8l.06-.15-.07-.12c-.38-.72-.81-1.35-1.27-1.95z" fill="#c88f64" stroke-width="none" opacity="1" stroke="none"></path></g></g><g id="svga-group-faceshape-wrap" transform="matrix(1,0,0,1,0,0)"><g id="svga-group-faceshape-single"><path id="SvgjsPath113864" d="M139.8 97.1c-.4-8.2.6-28.7.6-28.7s.54-9.23-.36-13.33c-2.2-10-6.54-16-15.44-20.8-9.3-5-24.45-4.85-24.45-4.85s-16.01-.31-25.31 4.69c-8.8 4.9-12.9 10.86-15.1 20.86-.9 4 .26 13.51.26 13.51s.91 20.53.51 28.73-3.25 19.06-1.15 22.56c2 3.5 16.29 13.75 20.19 16.85 3.9 3.2 9.92 14.77 11.72 14.57 1.9-.2 8.58-2.12 8.58-2.12s6.75 1.85 8.55 2.05c1.9.2 7.2-10.78 11.1-13.88 3.9-3.2 19.28-13.65 21.28-17.15 2.22-3.59-.68-14.79-.98-22.99z" fill="#f6dac5" stroke-width="none" opacity="1" stroke="none"></path><path id="SvgjsPath113865" d="M140.4 68.4s.54-9.23-.36-13.33c-2.2-10-6.54-16-15.44-20.8-9.3-5-24.45-4.85-24.45-4.85s-16.01-.31-25.31 4.69c-8.8 4.9-12.9 10.86-15.1 20.86-.9 4 .26 13.51.26 13.51s.91 20.53.51 28.73-3.25 19.06-1.15 22.56c2 3.5 16.29 13.75 20.19 16.85 3.9 3.2 9.92 14.77 11.72 14.57 1.9-.2 8.58-2.12 8.58-2.12s6.75 1.85 8.55 2.05c1.9.2 7.2-10.78 11.1-13.88 3.9-3.2 19.28-13.65 21.28-17.15 2.22-3.59-.68-14.79-.98-22.99-.4-8.2.6-28.7.6-28.7zm-49.24 81.46c.02-.01.04-.01.06-.01-.04.01-.1.01-.06.01zm17.31.01c.03 0 .05 0 .04.01l-.04-.01zm31.44-29.26c-1.04 1.16-2.3 2.17-3.53 3.18-2.5 2-5.11 3.88-7.74 5.74l-7.92 5.56c-.66.48-1.31.94-1.98 1.48-.7.57-1.29 1.19-1.84 1.83-1.1 1.27-2.06 2.6-3 3.93l-2.73 4c-.45.66-.91 1.3-1.37 1.92-.46.6-.97 1.23-1.39 1.56-.02.01-.04.03-.06.04l-.09-.01c-.35-.06-.73-.14-1.11-.22-.76-.17-1.54-.36-2.31-.56-1.55-.39-3.1-.81-4.64-1.24l-.34-.09-.36.1c-2.1.58-4.22 1.16-6.32 1.64a24.943 24.943 0 0 1-1.78.36c-.04-.03-.09-.07-.13-.11-.62-.58-1.29-1.48-1.91-2.33-1.26-1.75-2.46-3.59-3.73-5.41-1.28-1.82-2.54-3.65-4.17-5.38-.2-.22-.43-.43-.65-.64-.25-.22-.49-.42-.71-.58l-1.33-1.02-2.65-1.98-5.26-3.96a170.01 170.01 0 0 1-5.14-4.07c-1.66-1.38-3.36-2.81-4.71-4.32-.68-.76-.97-1.37-1.13-2.36-.17-.95-.15-2.02-.14-3.06.08-2.12.33-4.29.59-6.47.53-4.34 1.19-8.78 1.16-13.25.01-4.43-.16-8.83-.33-13.23-.18-4.4-.39-8.8-.64-13.19v-.05c-.42-3.29-.72-6.62-.68-9.92.01-.82.05-1.65.15-2.45.09-.79.3-1.59.49-2.4.4-1.61.85-3.2 1.45-4.74 1.14-3.1 2.88-5.96 5.11-8.37 2.24-2.41 4.99-4.31 7.88-5.9 2.89-1.52 6.12-2.39 9.34-3.03 3.24-.64 6.54-.97 9.84-1.15 6.6-.38 13.24.13 19.68 1.41 3.21.66 6.38 1.52 9.26 2.92 2.89 1.4 5.67 3.19 8.02 5.35 4.77 4.29 7.44 10.64 8.54 17 .73 6.53.15 13.26.13 19.94-.05 3.34-.13 6.68-.15 10.02-.04 3.34-.07 6.68.08 10.03.22 6.45 1.75 12.83 1.62 19.22-.08 1.56-.33 3.14-1.37 4.26z" fill="#c88f64" stroke-width="none" opacity="1" stroke="none"></path></g></g><g id="svga-group-mouth-single-move" transform="matrix(1,0,0,1,0,0)"><g id="svga-group-mouth-single" transform="matrix(1,0,0,1,0,0)"><path id="SvgjsPath113950" d="M81.92 117.96s.27 1.88 3.14 5.11 7.53 10.04 8.79 10.67 14.26.99 14.88.99c.63 0 3.68-6.81 4.3-8.88.63-2.06 2.24-6.37 2.06-6.99 0 0-4.66 1.26-7.53 2.06-2.87.81-8.34 1.52-9.24 1.52-.79 0-9.76-2.06-16.4-4.48z" fill="#000000" stroke-width="none" opacity="1"></path><path id="SvgjsPath113951" d="M107.66 120.83c-2.87.81-8.34 1.52-9.24 1.52s-9.86-1.97-16.5-4.39c0 0 .27 1.88 3.14 5.11.72.81 1.61 1.88 2.51 3.05 2.51.63 6.64 1.61 8.88 1.97 0 0 .45-1.26.63-1.34.18-.09.18 1.43.18 1.43s4.12.9 6.55.72c0 0 .63-.45 1.43-.09 0 0 3.95-.54 7.26-1.17.27-.72.54-1.34.63-1.7.63-2.06 2.24-6.37 2.06-6.99 0-.1-4.66 1.07-7.53 1.88z" fill="#ffffff" stroke-width="none" opacity="1"></path><path id="SvgjsPath113952" d="M116.89 118.41c-.54-.54-1.26-1.17-2.24-1.17-.36 0-.54.18-.36.36.09.09.18.27.27.36-2.42.72-4.84 1.34-7.35 1.88-2.78.63-6.01 1.79-8.97 1.79-2.6 0-5.65-.99-8.16-1.61-2.42-.63-4.84-1.43-7.26-2.24.18-.09.36-.09.54-.18.36-.18.45-.54-.09-.63-.72-.18-1.43.09-1.97.36s-.99.72-.72 1.26c.09.18.36.18.54.18.09 0 .09 0 .18-.09.45 1.88 2.51 3.68 3.77 5.38 1.97 2.51 4.03 5.02 5.83 7.62.63.9 1.17 2.24 2.24 2.87.9.54 2.24.54 3.41.63 4.03.27 8.07.45 12.19.45.54 0 .9-.18 1.08-.45 2.87-5.02 4.75-10.31 6.1-15.69.18.36.36.72.81.99.27.18.72.18.9-.09.43-.73-.29-1.54-.74-1.98zm-8.69 15.6c-2.96 0-5.83-.09-8.79-.27-1.34-.09-3.77 0-4.84-.54-.99-.54-1.97-2.15-2.69-2.87-1.7-1.97-3.32-3.95-4.93-5.92-1.43-1.7-3.86-3.95-4.39-5.92 2.24.99 4.66 1.79 7.17 2.51 2.69.81 6.01 1.88 8.88 2.15 2.6.27 5.92-.9 8.25-1.52 2.69-.72 5.38-1.61 7.89-2.6-1.35 5.2-3.68 10.22-6.55 14.98z" fill="#a06b59" stroke-width="none" opacity="1" stroke="none"></path><path id="SvgjsPath113953" d="M116.36 115.54c-.27-.09-.63.09-.36.27.81.54 1.61 1.08 2.24 1.7s.9 1.26 1.43 1.88c.09.18.54.09.54-.09-.09-1.43-1.97-3.05-3.85-3.76z" fill="#eeccb3" stroke-width="none" opacity="1" stroke="none"></path></g></g><g id="svga-group-eyes-left-move" transform="matrix(1,0,0,1,0,0)"><g id="svga-group-eyes-left" transform="matrix(1,0,0,1,0,0)"><g id="svga-group-eyesback-left"><path id="SvgjsPath113820" d="M80.2 74.2c7.5 0 13.5 5.8 13.5 13s-6 13-13.5 13-13.5-5.8-13.5-13 6-13 13.5-13z" fill="#ffffff" stroke-width="none" opacity="1"></path></g><g id="svga-group-eyesiriswrapper-left" transform="matrix(1,0,0,1,0,0)"><g id="svga-group-eyesiriscontrol-left" transform="matrix(1,0,0,1,0,0)"><g id="svga-group-eyesiris-left" transform="matrix(1,0,0,1,0,0)"><path id="SvgjsPath113878" d="M80.2 81.9c2.9 0 5.3 2.4 5.3 5.3s-2.4 5.3-5.3 5.3-5.3-2.4-5.3-5.3 2.4-5.3 5.3-5.3z" fill="#501514" stroke-width="none" opacity="1" stroke="none"></path><path id="SvgjsPath113879" d="M84.7 84.3c.4.6.7 1.2.8 1.9s.2 1.4.1 2.2-.4 1.4-.8 2.1c-.4.6-1 1.1-1.6 1.5s-1.3.6-2.1.7c-.7.1-1.4.1-2.2-.1-1.4-.3-2.7-1.1-3.5-2.3-.4-.6-.7-1.3-.9-2-.2-.7-.2-1.5 0-2.2.1-.7.4-1.4.8-2.1.4-.6 1-1.2 1.6-1.6s1.3-.7 2.1-.8c.7-.1 1.5-.1 2.2.1 1.6.5 2.7 1.4 3.5 2.6zm0 0-.3-.4c-.1-.1-.2-.3-.3-.4-.1-.1-.3-.2-.4-.3-.1-.1-.3-.2-.4-.3-.6-.4-1.2-.6-1.9-.7-1.3-.2-2.7.1-3.8.8-1.1.7-1.9 1.8-2.2 3.1-.3 1.3-.1 2.7.6 3.8.3.6.8 1.1 1.4 1.5s1.2.7 1.9.8c.7.1 1.4.1 2-.1.7-.2 1.3-.4 1.8-.8s1-.8 1.4-1.4.7-1.1.9-1.8c.2-.6.2-1.3.2-2-.3-.5-.6-1.2-.9-1.8z" fill="#310302" stroke-width="none" opacity="1" stroke="none"></path><path id="SvgjsPath113880" d="M80.2 85.3c1 0 1.9.9 1.9 1.9s-.9 1.9-1.9 1.9-1.9-.9-1.9-1.9.9-1.9 1.9-1.9z" fill="#000000" stroke-width="none" opacity="1"></path><path id="SvgjsPath113881" d="M80.2 89.3c-1.2 0-2.1-.9-2.1-2.1s.9-2.1 2.1-2.1 2.1.9 2.1 2.1-1 2.1-2.1 2.1zm0-3.8c-.9 0-1.7.8-1.7 1.7 0 .9.8 1.7 1.7 1.7.9 0 1.7-.8 1.7-1.7s-.7-1.7-1.7-1.7z" fill="#310302" stroke-width="none" opacity="1" stroke="none"></path><path id="SvgjsPath113882" d="M77.7 83.2c.4-.2 1.2.3 1.7 1.1.5.9.6 1.8.1 2s-1.2-.3-1.7-1.1c-.4-.8-.5-1.7-.1-2zm3.7 5c.4 0 .6.3.6.6s-.3.6-.6.6-.6-.3-.6-.6.3-.6.6-.6z" fill="#ffffff" stroke-width="none" opacity="1"></path></g></g></g><g id="svga-group-eyesfront-left"><path id="SvgjsPath113828" d="M80.2 73.7c-7.8 0-14.1 6.1-14.1 13.6s6.3 13.6 14.1 13.6 14.1-6.1 14.1-13.6S88 73.7 80.2 73.7zM79 90.6c-6.5-.3-11.9-2.5-12.1-2.9s4.4-3.8 14.1-3.4c9.7.5 11.6 5.2 11.6 5.2-1.6 1-7.2 1.4-13.6 1.1z" fill="#f6dac5" stroke-width="none" opacity="1" stroke="none"></path><path id="SvgjsPath113829" d="M86 90.8c1.1-.1 2.3-.2 3.4-.3.6-.1 1.1-.2 1.7-.3.6-.2 1.1-.3 1.6-.6-.2-.6-.6-1-.9-1.4l-.6-.6c-.2-.2-.4-.4-.7-.5-.9-.7-2-1.2-3-1.6-2.2-.8-4.5-1.1-6.7-1.2-2.3-.1-4.6.1-6.8.6-1.1.2-2.2.5-3.3.8-1.1.4-2.2.8-3.1 1.4l-.3.3c-.1.1-.2.2-.3.4v.2s0 .1.1.1l.1.1.2.1c.1.1.3.1.4.2.5.3 1.1.5 1.6.7 1.1.4 2.2.7 3.3 1 2.2.5 4.5.9 6.8 1 1.9-.2 4.2-.3 6.5-.4zm-16.8-2.3c-.5-.2-1.1-.4-1.6-.6-.1-.1-.2-.1-.4-.2l-.2-.1c0-.1.1-.2.2-.2l.3-.3c.9-.6 1.9-1.1 3-1.5 1.1-.4 2.2-.7 3.3-.8 2.2-.4 4.5-.4 6.8-.3 1.1.1 2.2.2 3.4.3.6.1 1.1.2 1.7.3.5.2 1.1.3 1.6.5 1.1.3 2.1.8 3 1.4.9.6 1.8 1.4 2.3 2.4-.5.2-1.1.4-1.6.5-.6.1-1.1.2-1.7.2-1.1.1-2.2.2-3.4.2-2.3.1-4.5 0-6.8-.1-2.2-.1-4.5-.4-6.7-.9-1-.1-2.1-.4-3.2-.8z" fill="#2b1a0a" stroke-width="none" opacity="1" stroke="none"></path><path id="SvgjsPath113830" d="M76.9 94.9C88.7 96.3 93.6 91 93.6 91c-8.1 4.6-16.7 3.9-16.7 3.9zm7.9-13.1c4.3 1.4 5.9 2.8 5.9 2.8s-1.1-1.4-6.1-3.2c-5-1.8-14.6.4-14.6.4s10.2-1.6 14.8 0z" fill="#d7a681" stroke-width="none" opacity="1" stroke="none"></path></g></g></g><g id="svga-group-eyes-right-move" transform="matrix(1,0,0,1,0,0)"><g id="svga-group-eyes-right" transform="matrix(1,0,0,1,0,0)"><g id="svga-group-eyesback-right"><path id="SvgjsPath113821" d="M119.8 74.2c7.5 0 13.5 5.8 13.5 13s-6 13-13.5 13-13.5-5.8-13.5-13 6-13 13.5-13z" fill="#ffffff" stroke-width="none" opacity="1"></path></g><g id="svga-group-eyesiriswrapper-right" transform="matrix(1,0,0,1,0,0)"><g id="svga-group-eyesiriscontrol-right" transform="matrix(1,0,0,1,0,0)"><g id="svga-group-eyesiris-right" transform="matrix(1,0,0,1,0,0)"><path id="SvgjsPath113883" d="M119.8 82.5c2.6 0 4.7 2.1 4.7 4.7s-2.1 4.7-4.7 4.7-4.7-2.1-4.7-4.7 2.1-4.7 4.7-4.7z" fill="#501514" stroke-width="none" opacity="1" stroke="none"></path><path id="SvgjsPath113884" d="M123.8 84.7c.3.5.6 1.1.7 1.7s.2 1.2.1 1.9c-.1.6-.3 1.2-.7 1.8s-.8 1-1.4 1.3-1.2.5-1.8.6-1.3.1-1.9-.1c-1.2-.3-2.3-1-3.1-2-.4-.5-.6-1.1-.8-1.7s-.1-1.3 0-1.9.4-1.2.7-1.8.8-1 1.4-1.4c.6-.3 1.2-.6 1.8-.7.6-.1 1.3-.1 1.9.1 1.4.3 2.4 1.1 3.1 2.2zm-.1 0-.3-.4-.3-.3-.3-.3c-.1-.1-.2-.2-.4-.3-.5-.3-1.1-.5-1.7-.6-1.2-.2-2.3.1-3.3.7-.9.6-1.7 1.6-1.9 2.7-.3 1.1-.1 2.3.5 3.4.3.5.7 1 1.2 1.3s1.1.6 1.6.7c.6.1 1.2.1 1.8-.1.6-.1 1.1-.4 1.6-.7s.9-.7 1.2-1.2.6-1 .8-1.6c.2-.6.2-1.2.1-1.8-.1-.4-.3-1-.6-1.5z" fill="#310302" stroke-width="none" opacity="1" stroke="none"></path><path id="SvgjsPath113885" d="M119.8 85.5c.9 0 1.7.8 1.7 1.7s-.8 1.7-1.7 1.7-1.7-.8-1.7-1.7.8-1.7 1.7-1.7z" fill="#000000" stroke-width="none" opacity="1"></path><path id="SvgjsPath113886" d="M119.8 89.1c-1 0-1.8-.8-1.8-1.8s.8-1.8 1.8-1.8 1.8.8 1.8 1.8-.8 1.8-1.8 1.8zm0-3.4c-.8 0-1.5.7-1.5 1.5s.7 1.5 1.5 1.5 1.5-.7 1.5-1.5-.7-1.5-1.5-1.5z" fill="#310302" stroke-width="none" opacity="1" stroke="none"></path><path id="SvgjsPath113887" d="M117.6 83.7c.4-.2 1 .2 1.5 1 .4.8.5 1.5.1 1.8-.4.2-1-.2-1.5-1-.4-.8-.4-1.6-.1-1.8zm3.3 4.4c.3 0 .6.3.6.6s-.3.6-.6.6-.6-.3-.6-.6.3-.6.6-.6z" fill="#ffffff" stroke-width="none" opacity="1"></path></g></g></g><g id="svga-group-eyesfront-right"><path id="SvgjsPath113831" d="M119.8 73.7c-7.8 0-14.1 6.1-14.1 13.6s6.3 13.6 14.1 13.6 14.1-6.1 14.1-13.6-6.3-13.6-14.1-13.6zm.5 15.6c-6.4.2-11.3.4-13-.4 0 0 1.9-3.6 11.5-3.9 9.6-.4 14.2 2.3 14 2.6-.2.3-6.1 1.5-12.5 1.7z" fill="#f6dac5" stroke-width="none" opacity="1" stroke="none"></path><path id="SvgjsPath113834" d="M132.8 87.3c-.1-.1-.2-.2-.4-.2-2-1-4.2-1.4-6.4-1.8-2.2-.3-4.4-.5-6.6-.5-2.2 0-4.4.3-6.6.8-1.1.3-2.1.7-3.1 1.2-.5.2-1 .6-1.4.9-.4.4-.8.7-1.1 1.3.5.3 1.1.4 1.6.5.6.1 1.1.2 1.7.2 1.1.1 2.2.1 3.3.1 2.2 0 4.4-.1 6.6-.1 2.2-.1 4.4-.3 6.6-.6 1.1-.2 2.2-.3 3.3-.6.5-.1 1.1-.2 1.6-.4.3-.1.5-.2.8-.3 0 0 .1 0 .1-.1l.1-.1s.1-.1.1-.2c-.1-.1-.2-.1-.2-.1zm-1 .4c-.5.1-1.1.2-1.6.3-1.1.2-2.2.3-3.2.5-2.2.3-4.4.4-6.6.5l-6.6.2c-1.1 0-2.2.1-3.3 0-.6 0-1.1 0-1.6-.1s-1.1-.1-1.6-.3c.3-.4.7-.8 1.2-1.1.4-.3.9-.6 1.4-.8 1-.5 2-.8 3.1-1.1 2.1-.5 4.3-.7 6.5-.8 2.2-.1 4.4-.1 6.6.2 1.1.1 2.2.4 3.2.7s2.1.7 3 1.2c.1.1.2.1.3.2-.3.3-.5.4-.8.4z" fill="#2b1a0a" stroke-width="none" opacity="1" stroke="none"></path><path id="SvgjsPath113835" d="M107.1 90.3s4.8 5.2 16.5 3.9c0-.1-8.5.6-16.5-3.9zm6-6.1c4.4-2.2 14.4-2.2 14.4-2.2s-9.7-.7-14.3 1.8c-4.7 2.5-5.5 4-5.5 4s1.4-1.6 5.4-3.6z" fill="#d7a681" stroke-width="none" opacity="1" stroke="none"></path></g></g></g><g id="svga-group-facehighlight-single"></g><g id="svga-group-eyebrows-left-move" transform="matrix(1,0,0,1,0,0)"><g id="svga-group-eyebrows-left-rotate" transform="matrix(1,0,0,1,0,0)"><g id="svga-group-eyebrows-left" transform="matrix(1,0,0,1,0,0)"><path id="SvgjsPath113745" d="M93.28 73.16s-1.89 2.47-4.4 1.16c-2.52-1.31-9.67-5.43-10.37-5.32-.7.12-7.55 3.84-10.72 7.24 0 0 3.31-6.87 10.61-9.67l14.88 6.59z" fill="#553516" stroke-width="none" opacity="1" stroke="none"></path><path id="SvgjsPath113746" d="m89.7 71.44-3.68-1.73-3.73-1.73c-1.26-.57-2.51-1.14-3.77-1.7l-.13-.06-.12.05c-1.15.48-2.28 1-3.31 1.7l-.39.25c-.13.09-.25.18-.38.27l-.75.55c-.47.4-.96.78-1.4 1.22a21.472 21.472 0 0 0-4.41 5.9l-.5 1.01.76-.84c.82-.91 1.75-1.72 2.73-2.47.97-.76 1.99-1.45 3.04-2.11 1.05-.65 2.12-1.25 3.22-1.81.27-.14.55-.27.83-.4.14-.06.28-.13.42-.19.14-.06.28-.12.39-.14.04-.03.2.03.33.08.14.05.27.11.41.18.27.13.55.26.82.4 2.19 1.12 4.35 2.32 6.53 3.47.54.29 1.1.57 1.65.85.53.28 1.15.58 1.8.62.65.06 1.3-.12 1.85-.43.28-.15.53-.34.77-.54.12-.1.23-.21.34-.33.05-.06.11-.11.15-.18l.07-.09c.02-.04.05-.04.08-.12l-3.62-1.68zm3.47 1.79-.08.08c-.05.06-.11.11-.17.16-.11.1-.23.2-.35.29-.24.18-.5.35-.77.47-.54.26-1.15.37-1.72.3-.59-.07-1.1-.35-1.64-.66l-1.61-.92c-1.07-.61-2.15-1.22-3.23-1.81a54.09 54.09 0 0 0-3.3-1.71c-.28-.13-.56-.26-.86-.38-.15-.06-.29-.12-.45-.17-.08-.03-.16-.05-.24-.07-.05-.01-.09-.02-.15-.02-.07 0-.15 0-.18.02-.19.05-.33.13-.47.19l-.42.21c-.28.15-.55.29-.82.45-1.08.61-2.12 1.28-3.16 1.95-1.75 1.16-3.48 2.36-5.05 3.77a22.046 22.046 0 0 1 3.94-4.69c.43-.42.91-.78 1.38-1.16l.73-.53c.12-.09.24-.18.37-.26l.38-.24c.26-.15.51-.32.77-.47l.8-.41c.13-.07.26-.14.4-.2l.41-.18.71-.3c1.18.52 2.36 1.03 3.54 1.54l3.71 1.56 7.6 3.14c-.01-.03-.04.03-.07.05z" fill="#46280b" stroke-width="none" opacity="1" stroke="none"></path></g></g></g><g id="svga-group-eyebrows-right-move" transform="matrix(1,0,0,1,0,0)"><g id="svga-group-eyebrows-right-rotate" transform="matrix(1,0,0,1,0,0)"><g id="svga-group-eyebrows-right" transform="matrix(1,0,0,1,0,0)"><path id="SvgjsPath113747" d="M109.4 76.47s1.76 2.1 3.93.85c2.16-1.25 8.3-5.18 8.93-5.11.63.07 6.81 3.08 9.74 5.95 0 0-3.2-5.92-9.74-8.09l-12.86 6.4z" fill="#553516" stroke-width="none" opacity="1" stroke="none"></path><path id="SvgjsPath113748" d="M132.13 78.1c-.53-.96-1.15-1.85-1.84-2.69a21 21 0 0 0-2.28-2.34c-.41-.37-.84-.69-1.28-1.02l-.68-.45c-.11-.07-.22-.16-.35-.22l-.36-.2c-.93-.57-1.96-.99-2.99-1.36l-.11-.04-.11.06c-1.09.53-2.18 1.1-3.26 1.64l-3.22 1.68-3.17 1.68-3.11 1.65c.03.06.05.07.07.1l.07.08c.04.06.1.1.14.15.1.09.2.19.31.28.22.17.44.33.7.45.49.25 1.08.38 1.65.31.57-.06 1.1-.35 1.56-.62.47-.27.95-.54 1.42-.82 1.87-1.11 3.73-2.25 5.61-3.33.24-.13.47-.27.71-.39.12-.07.24-.12.35-.17.12-.05.25-.1.28-.09.1.02.22.07.35.11.13.05.25.1.38.15.25.1.5.21.75.32.98.45 1.96.94 2.91 1.47.94.54 1.87 1.11 2.76 1.73.89.62 1.75 1.3 2.5 2.06l.7.71-.46-.89zm-5.4-3.8a53.27 53.27 0 0 0-2.86-1.59c-.25-.13-.49-.24-.74-.36-.12-.06-.25-.12-.38-.17-.13-.06-.25-.11-.43-.15-.03-.01-.1-.01-.16-.01-.05 0-.08.02-.12.03-.07.02-.15.04-.21.08-.14.05-.26.11-.39.16-.25.11-.49.24-.74.37-.97.52-1.91 1.07-2.84 1.64-.93.56-1.86 1.15-2.77 1.72l-1.38.87c-.47.3-.9.57-1.43.65-.5.09-1.04.02-1.53-.19-.25-.1-.48-.24-.7-.39-.11-.07-.22-.16-.32-.24-.05-.05-.1-.08-.16-.13l-.07-.07c-.03-.01-.05-.07-.06-.05l6.58-3.07 3.21-1.52c1.03-.5 2.04-.98 3.06-1.5l.64.24.38.14c.13.05.24.11.36.16l.73.33c.24.12.46.26.7.38l.35.19c.11.06.23.14.34.21l.66.43c.42.32.86.62 1.26.97.81.68 1.59 1.42 2.29 2.22.49.55.94 1.15 1.37 1.76-1.47-1.17-3.05-2.15-4.64-3.11z" fill="#46280b" stroke-width="none" opacity="1" stroke="none"></path></g></g></g><g id="svga-group-beardwrap" transform="matrix(1,0,0,1,0,0)"><g id="svga-group-beard-single-move" transform="matrix(1,0,0,1,0,0)"><g id="svga-group-beard-single" transform="matrix(1,0,0,1,0,0)"></g></g></g><g id="svga-group-mustache-single-move" transform="matrix(1,0,0,1,0,0)"><g id="svga-group-mustache-single" transform="matrix(1,0,0,1,0,0)"><path id="SvgjsPath114048" d="M98.2 116.3c.9 0 1 2.9.2 3.4s-19.8-1.6-19.5-2.6c.3-1.1 10.8-1.3 12.3-1.4 1.4-.1 7 .6 7 .6zm3.5.1c-.8.5-.6 3.4 0 3.4.7 0 18.1-1.5 19.5-1.8s-10.4-1.8-12.2-1.8-6.7-.2-7.3.2z" fill="#422405" stroke-width="none" opacity="1"></path><path id="SvgjsPath114049" d="M98.7 116.7c-.1-.2-.3-.4-.5-.4-1.8-.2-3.6-.6-5.4-.9-.4-.1-.9-.1-1.4-.2H90c-.9 0-1.8 0-2.7.1-1.8.1-3.6.2-5.4.5-.9.1-1.8.3-2.7.6-.1.1-.2.1-.4.2-.1 0-.1.1-.2.2s-.2.2-.1.5c.2.3.3.3.4.4.1.1.2.1.3.1.5.1.9.2 1.4.3l5.4.8c1.8.3 3.6.7 5.4.9 1.8.2 3.6.3 5.4.3.5 0 .9 0 1.4-.1.3-.1.5-.3.6-.5.1-.2.2-.5.2-.7.1-.5.1-.9 0-1.4-.1-.3-.2-.5-.3-.7zm.1 2c-.1.4-.3.9-.6.9-.4 0-.9 0-1.3-.1-1-.1-2-.2-3.1-.4l.1-.1c1-.6 2-1.1 3-1.7v1.5l.2-1.7v-.1l-.1.1c-.9.4-1.9.9-2.8 1.4l.6-1.4.2-.4-.4.2-3.2 1.1.3-1 .1-.5-.4.2-2.5.9v-1l-.3.1-2.5.7c0-.1.1-.2.1-.3v-.2s0-.1-.1-.1h-.4c-.4.1-.7.1-1.1.2-.7.1-1.4.2-2.2.4l2.2-.2 1.1-.1h.2c0 .2-.1.3-.2.5l-.1.3.3-.1 2.5-.6v1.1l.3-.1 2.4-.9-.3 1-.1.4.4-.2 3.2-1.2-.5 1.4-.1.3c-.7-.1-1.4-.2-2.1-.2-1.8-.1-3.6-.2-5.4-.4-1.8-.2-3.6-.5-5.3-1-.4-.1-.9-.2-1.3-.4-.1 0-.1 0-.1-.1h.1c.8-.2 1.7-.3 2.6-.4 1.8-.2 3.6-.2 5.4-.3l2.7-.2c.9-.1 1.8-.1 2.7-.1 1.8 0 3.6 0 5.4.2.2 0 .3.2.4.4.1.2.2.4.2.6-.1.7-.1 1.2-.2 1.6zm22.8-.8c0-.1-.1-.1-.1-.2-.2-.2-.2-.1-.3-.2-.2-.1-.5-.2-.7-.2l-2.7-.6c-1.8-.3-3.6-.6-5.4-.8-.9-.1-1.8-.2-2.7-.2-.9-.1-1.8 0-2.7.1l-2.7.2-1.3.1c-.4.1-.9 0-1.3.2-.4.3-.5.8-.6 1.2-.1.4-.1.9 0 1.4 0 .2.1.5.2.7.1.1.1.3.3.3H103.4c1.8 0 3.6-.1 5.4-.3 1.8-.2 3.6-.5 5.4-.7 1.8-.2 3.6-.3 5.4-.4l1.4-.1h.4c.1 0 .1 0 .2-.1h.1c.1 0 .1-.1.1-.1-.2-.1-.1-.2-.2-.3zm-2.2.1c-1.8.3-3.6.5-5.4.6-1.8.1-3.6.1-5.4.2-1.2.1-2.5.2-3.7.3v-.2l.2-1.6 1.5 1.2.3.2.1-.4.1-1c.6.4 1.1.8 1.7 1.1l.3.2.1-.3.2-.9 1.8.9.2.1.1-.2.2-.6 1.5.8.1.1.1-.1.4-.5 1 .3h.1l.1-.1.2-.3 2.3.2-2.3-.4h-.1v.1l-.2.3-1-.4h-.1l-.1.1-.4.5-1.5-.9-.2-.1-.1.2-.2.6-1.8-1-.3-.2-.1.3-.2.9c-.6-.4-1.2-.8-1.7-1.1l-.3-.2-.1.4-.1 1-1.5-1.1-.3-.2v.4l-.1 1.7-2.1-1.5-.1-.1v.1l-.1 1.4.2-1.3 2.1 1.8.1.1c-.5.1-1 .1-1.5.2l-1.3.2h-.3s-.1 0-.1-.1c-.1-.2-.2-.4-.2-.6-.1-.4-.1-.9-.1-1.3s.1-.9.5-1.2c.8-.2 1.8-.2 2.7-.1.9.1 1.8.1 2.7.2.9.1 1.8.1 2.7.2l2.7.3 5.3.7c.6.1 1.2.2 1.9.3l-.5-.2z" fill="#331a00" stroke-width="none" opacity="1"></path></g></g><g id="svga-group-nose-single-move" transform="matrix(1,0,0,1,0,0)"><g id="svga-group-nose-single" transform="matrix(1,0,0,1,0,0)"><path id="SvgjsPath113927" d="M103.78 79.27s-5.31-.41-8.3.62-2.96 2.84-2.86 4.28.2 4.84.82 5.76-.1 2.58-.41 3.2.25 6.61.66 8.26c.41 1.65.99 3.71.37 4.13s-3.1 1.24-3.2 2.17 2.79 7.95 3.41 8.47 11.05.41 11.98.52 4.44-7.12 4.03-8.36-3.72-1.45-4.03-2.37 1.4-13.03 1.19-13.65-.26-2.75.36-4.2.33-6.27.27-6.7c-.27-1.7-3.67-1.92-4.29-2.13z" fill="#eeccb3" stroke-width="none" opacity="1" stroke="none"></path><path id="SvgjsPath113928" d="M103.77 79.32c-2.16-.13-4.39-.07-6.51.36-1.05.22-2.1.54-2.95 1.11-.42.29-.78.64-1 1.07-.22.42-.31.9-.32 1.41-.01.5.07 1.05.1 1.6l.12 1.63c.05.54.11 1.08.18 1.6.08.52.17 1.06.35 1.46l.2.36c.07.17.12.34.15.51.05.34.03.65-.02.96-.1.6-.3 1.15-.55 1.67-.05.12-.15.3-.14.29-.02.08-.04.21-.04.34-.02.26-.02.52-.02.79 0 .54.02 1.08.05 1.62.06 1.09.14 2.18.25 3.26.06.54.12 1.08.21 1.61.09.52.24 1.06.35 1.6.12.54.23 1.08.29 1.64.02.28.04.57-.01.86-.03.15-.07.31-.18.45-.13.16-.27.21-.39.28-.5.25-1 .46-1.48.71-.47.25-.97.52-1.27.9-.07.1-.12.2-.13.3-.01.09.02.23.04.35.06.26.13.52.22.78.16.52.35 1.03.54 1.54.38 1.02.81 2.03 1.26 3.02.23.5.46.99.71 1.47.12.24.25.48.39.71.07.11.14.23.21.31.03.05.07.07.05.06.02.01.08.03.14.04.49.09 1.05.11 1.59.14.54.02 1.09.03 1.63.04 2.18.02 4.37.02 6.56.02.55 0 1.09 0 1.66.02l.22.01c.02 0 .06.01.05 0-.02-.01-.05 0-.06 0l-.03.01c.02-.01.11-.08.18-.16.16-.17.31-.38.46-.59.58-.87 1.08-1.84 1.54-2.81.45-.97.87-1.98 1.18-2.98.07-.25.14-.5.18-.74.04-.23.05-.48.02-.49-.08-.22-.55-.49-1.02-.67-.48-.2-.99-.36-1.53-.56-.27-.11-.54-.21-.84-.39-.15-.09-.3-.2-.45-.39-.07-.1-.15-.22-.19-.35-.02-.06-.03-.13-.04-.19l-.01-.13c-.02-.64.03-1.16.08-1.72l.16-1.65c.23-2.19.52-4.36.81-6.53.14-1.08.31-2.18.39-3.23 0-.07.01-.13.01-.18V92.41l-.02-.06c-.04-.16-.06-.31-.07-.45-.03-.29-.03-.57-.03-.86.01-.56.08-1.12.19-1.68.06-.28.13-.55.22-.82.09-.27.22-.54.3-.76.16-.5.22-1.04.28-1.58.11-1.08.11-2.18.09-3.27-.03-.54-.02-1.1-.11-1.62-.13-.52-.59-.88-1.06-1.12-.97-.51-2.07-.63-3.14-.87zm.02-.1c1.06.23 2.18.35 3.18.85.49.24.98.62 1.13 1.19.1.56.1 1.1.13 1.65.06 1.1.08 2.19.04 3.3-.03.55-.06 1.1-.2 1.66-.08.3-.19.53-.25.78-.07.25-.12.51-.16.78-.08.53-.1 1.06-.08 1.59.01.26.03.53.07.78.02.12.05.25.08.35l.01.04.02.09c.01.07.01.11.02.15.01.08.01.16.01.23-.02 1.13-.12 2.21-.21 3.31-.19 2.19-.42 4.36-.63 6.53l-.14 1.63c-.04.53-.08 1.1-.06 1.56.02.15-.01.04.01.09.02.03.09.09.18.14.17.11.41.21.65.3.49.19 1.02.35 1.56.57.27.11.54.24.82.41.27.18.57.41.76.81.02.05.04.1.06.16.02.07.03.13.04.19.02.11.02.21.01.3-.01.18-.03.33-.06.49-.06.3-.14.58-.22.85-.35 1.09-.8 2.1-1.28 3.1-.49 1-1.01 1.98-1.66 2.92-.17.24-.34.47-.56.7-.12.11-.23.23-.45.35-.06.03-.13.06-.23.07-.04.01-.11.01-.16.01h-.05l-.19-.01-1.63-.05c-2.19-.06-4.38-.09-6.58-.21-.55-.03-1.1-.07-1.65-.11-.55-.05-1.09-.09-1.68-.22-.08-.02-.15-.04-.25-.09-.02-.01-.06-.03-.09-.06-.03-.02-.04-.04-.06-.06a.73.73 0 0 1-.09-.11c-.1-.13-.16-.25-.24-.38-.14-.25-.26-.5-.38-.75a49.4 49.4 0 0 1-.66-1.51c-.42-1.02-.82-2.04-1.2-3.07-.19-.52-.37-1.04-.53-1.57-.08-.27-.16-.53-.21-.81-.02-.14-.06-.28-.04-.46.02-.18.11-.32.2-.45.39-.47.9-.72 1.38-.99.49-.26 1-.48 1.47-.72.12-.06.24-.13.28-.19a.87.87 0 0 0 .11-.31c.03-.24.01-.51-.02-.77-.07-.53-.19-1.06-.33-1.59-.13-.53-.3-1.04-.42-1.6-.12-.55-.21-1.09-.29-1.63-.16-1.09-.3-2.18-.4-3.28-.05-.55-.1-1.1-.12-1.66-.01-.28-.02-.56-.01-.85.01-.15.01-.29.04-.48.07-.28.13-.33.18-.46.21-.47.38-.97.44-1.45.03-.24.04-.47 0-.68-.02-.1-.05-.19-.09-.28l-.2-.36c-.26-.6-.34-1.16-.43-1.72-.08-.56-.13-1.11-.17-1.66l-.09-1.65c-.01-.54-.07-1.08-.04-1.68.02-.58.16-1.21.49-1.74.31-.54.79-.94 1.29-1.24 1.01-.6 2.13-.84 3.23-.98 1.1-.15 2.2-.15 3.3-.17 1.1.03 2.19.05 3.3.13z" fill="#c88f64" stroke-width="none" opacity="1" stroke="none"></path><path id="SvgjsPath113929" d="M97.96 113.62c-.07-.26-.22-.5-.35-.73-.14-.24-.28-.51-.53-.64-.3-.16-.79.03-.75.43.03.29.17.48.3.73.11.21.18.44.29.65.31.56 1.21.18 1.04-.44z" fill="#c88f64" stroke-width="none" opacity="1" stroke="none"></path><path id="SvgjsPath113930" d="M103.46 112.66c-.02-.42-.52-.52-.75-.2-.35.49-.77 1.13-.79 1.74-.02.69.92.89 1.25.34.32-.52.31-1.29.29-1.88z" fill="#c88f64" stroke-width="none" opacity="1" stroke="none"></path></g></g><g id="svga-group-hair-front" transform="matrix(1,0,0,1,0,0)"><path id="SvgjsPath113979" d="M170.2 77.8c1.8-1.6 2.9-4.1 3-6.4 0-1.4-.3-2.8-.9-4 .7-1.7.6-3.8-.1-5.6-.6-1.4-1.7-2.5-3.1-2.9.2-1.3.2-2.6-.4-3.8-.1-.3-.3-.6-.5-.9.7-1.6.9-3.4.4-5.2-.3-1-.9-2-1.7-2.7 0-.2 0-.5-.1-.7a5.3 5.3 0 0 0-2.3-3.3c.5-1.8.4-3.8-.5-5.4-.6-1.1-1.5-1.9-2.5-2.5 1.2-2.2 1.3-5.1-.6-7-1.2-1.2-3.1-1.7-4.7-1.4-.1-1.2-.4-2.4-1.2-3.3-1.4-1.8-3.8-2.4-5.9-1.6 0-.1 0-.2-.1-.3-.6-1.9-2.2-3.2-4-3.4.1-1.9-.6-3.8-2.3-4.8-1.3-.8-3.2-.7-4.4.2-.8-.7-1.9-1-2.9-1.1-.2-.9-.5-1.7-1-2.4-1.2-1.7-3.3-2.9-5.4-2.3-1.1.3-1.9 1.1-2.4 2-.6-.2-1.3-.3-1.9-.1-.1 0-.1 0-.2.1-.2-.9-.6-1.7-1.1-2.4-1.4-1.9-4.3-2.9-6.4-1.4-.6.4-1 1-1.3 1.7-.1-.2-.3-.3-.4-.5-1.4-1.3-3.5-1.9-5.4-1.5-.7.1-1.3.5-1.8.9-.2-.1-.5-.2-.8-.2-.8-.2-1.6-.1-2.3.2-.1-.3-.3-.6-.5-.8-1-1.5-2.5-2.5-4.4-2.4-1.8.1-3.4 1.3-3.9 3-.1-.1-.2-.2-.3-.2-1.3-.9-2.9-1-4.3-.3-.4.2-.8.5-1.2.9-.1-.3-.3-.6-.5-.9-.3-.4-.7-.8-1.1-1-.2-.1-.5-.2-.7-.3.7.3.5.2-.4-.2-2.3-.6-4.4.6-5.6 2.6l-.3.6c-.2-.1-.4-.2-.6-.2-1.1-.2-2.2-.1-3.1.3l-.6-.6c-.8-.7-1.7-1.2-2.7-1.5-1.1-.3-2.4.2-3 1.2-.1.3-.2.5-.3.8-.3.3-.5.6-.7.9-.1-.1-.2-.1-.2-.2l.1.1c-.2-.2-.5-.4-.7-.6-1.6-1.3-4-.7-5.1 1l-.1.1c-.3.3-.5.7-.6 1.2-.1.3-.2.8-.2 1.2-1-.6-2.3-.7-3.5-.4-2 .6-3.5 2.1-4.2 4.1 0-.1-.1-.1-.1-.2-.6-.8-1.7-1.2-2.6-.9-.4.1-.8.3-1.1.5-.2.1-.4.3-.5.4l.2-.2c-.2.2-.4.3-.6.5-.1.1-.2.2-.2.3l-.1.1c0 .1-.1.1-.1.2l-.1.1c0 .1 0 .1 0 0-.3.4-.5.7-.6 1.1-.2.5-.2 1-.1 1.5 0 .2 0 .3.1.5-.7.1-1.3.5-1.8 1.1-.1.1-.2.3-.3.4-.1.2-.1.2 0 0 .3-.3.2-.2-.3.4-.1.2-.5.6.1-.1 0 .1-.1.1-.1.2-.2.2-.4.5-.5.7-.1.3-.2.5-.3.8-.1.5-.2.9-.1 1.4 0 .4.2.7.3 1-.3 0-.5.1-.8.1-.1 0-.2.1-.3.1-.5-.5-1.3-.8-2.2-.6-2.5.5-4.4 2.4-4.3 5.1 0 .6.1 1.1.3 1.6-1.6.6-2.8 2.1-2.8 3.8-.1 0-.3 0-.4.1-1.8.6-3.2 2.2-3.7 4-.2.9-.1 1.9.2 3-.2.3-.4.7-.5 1-.3.9-.3 2-.2 3-.3-.1-.7 0-1.1 0-3.4.5-3.1 4.9-1.9 7.2.2.3.4.7.6 1-1.7.6-3.2 2.8-3.1 4.6 0 1.7.8 3 1.8 4.2-1.4.7-2.4 2.1-2.4 3.8 0 .7.2 1.4.5 2.1-.6.9-.9 2-.9 3 0 1.1.6 2.4 1.5 3.3l-.6.3c-1.9 1.2-1.8 3.8-.6 5.5.8 1.1 2 2.2 3.3 2.9-.7.5-1 1.4-1.1 2.3-.9 1-1.1 2.6-.6 3.9.8 2.3 3.5 3.6 5.9 3.4-.5 1.1-.7 2.2-.3 3.4.7 1.9 2.6 2.8 4.5 2.4v.2c-.5-.1-1-.1-1.5.1-1.7.5-2.5 2.5-2.1 4.2.2.7.6 1.4 1.1 1.9.5 1.7 2.4 2.8 4.1 2.8 1.3 0 2.7-.6 3.6-1.6.9.8 2 1.1 3.1.9v.5c0 1.8 1 3.5 2.5 4.4.9.5 2 .7 3 .7.2.3.3.5.5.8.2.2.5.4.8.6.2.1.3.1.5.2.5.4 1.1.7 1.8.7 1.6-.1 2.7-1.4 2.9-2.8 1.4 0 2.7-.5 3.8-1.6.7-.7 1.2-1.5 1.4-2.5.3-1 .3-2 0-3 0-.2-.1-.4-.1-.6-.1-.4-.2-.7-.4-1.1.7-.7 1.1-1.6 1.1-2.6 0-1.7-1.6-3.4-3.2-3.2-.2-.2-.3-.5-.6-.7 1.1-.7 1.9-1.8 2.2-3.3.4-2.2-.4-4.5-1.8-6.2.4-.3.8-.7 1.1-1.2.4-.6.6-1.2.7-1.9 1.7-1.1 2.3-3.8 2.3-5.7-.1-1.5-.6-2.8-1.5-3.9.2-.1.3-.2.5-.4 2-1.8 2.2-4.9.8-7.1l-.3-.3c.4-.3.8-.7 1.1-1.1.8-1.4.5-3.1-.4-4.3-.1-.3-.3-.6-.4-.9.2-.1.3-.2.5-.4 1.3-1.3 1.6-3 1.3-4.7.5 1 1.4 1.7 2.5 2.1 1.9.6 3.8-.1 5.1-1.5.9-1 1.6-2.2 1.9-3.5 1.2 1.4 3.5 1.9 5.1.8 1.4-1 2.2-2.7 2.2-4.4.4 1.1 1.2 2.1 2.6 2 2.2-.2 4.1-1.6 5.1-3.5.2 0 .5 0 .7-.1.3-.1.7-.2.9-.4.7.5 1.5.7 2.3.8.9 0 1.7-.2 2.3-.9h.1c1-.2 1.7-1.1 2-2 0 0 0-.1.1-.2.1.5.2 1 .2 1.4.5 2.4 3.7 2 4.5.1.5 1.2 2 2.1 3.3 1.2.5-.4 1-.8 1.4-1.4.5.7 1.4 1 2.3.8.3.9 1 1.7 1.8 2.2 1.2.7 2.7.5 3.9-.1.5-.2.8-.6 1.1-1 0 .3 0 .7.1 1 .3.7.6 1.2 1 1.8 1.2 1.4 3.2 1 4.5 0 .4-.3.7-.7 1-1.1 1.2.9 2.8 1.3 4.4.9-.2.2-.3.4-.4.7-.7 1.3-.7 2.7 0 4 .8 1.5 2.4 2.3 4 2.4v.1c-.3 1.9.7 3.7 2.4 4.6.1 0 .1 0 .2.1-.5.6-.9 1.3-1.1 2.1-.6 2.4.8 4.8 2.9 6 .1 0 .1.1.2.1-.2.1-.3.2-.4.3-.7.6-1.3 1.6-1.5 2.5-.6 2.2.2 4.7 2.2 5.9.4.3.9.4 1.3.6.1.6.2 1.3.4 1.8.9 2.3 3 3.8 5.3 4-.2 0-.3-.1-.5-.1-1.7-.1-3.3 1.1-4.1 2.6-.8 1.5-.9 3.5 0 5 .4.7.9 1.2 1.6 1.7-.2.5-.2 1-.2 1.5 0 .2.1.4.1.6-.4.3-.8.6-1.1 1.1-.4.5-.8 1.2-.9 1.8-.1.9.1 1.7.4 2.5-1.3.5-2.2 1.6-2.3 3.1-.1.9.3 1.7.8 2.3-.3.4-.5.8-.5 1.4-.1 1.3.8 2.5 2.1 2.8.9.2 1.8.1 2.6-.3 1.4 1.6 3.6 2.1 5.7 1.2 1-.5 2-1.2 2.8-2.2 1 .7 2.6.7 3.5-.5.6-.7.8-1.7.6-2.6.1 0 .1-.1.1-.1.3-.2.5-.5.7-.8.5.2 1 .3 1.5.3 1.9 0 3.6-1.2 4-3.1.1-.8.1-1.5-.1-2.2.2-.1.5-.2.7-.4 2-1.2 3.2-3.3 3.2-5.7.4-.1.8-.2 1.3-.5 1.8-1 2.7-2.9 2.8-4.9 0-.8-.1-1.7-.4-2.6 1.2-.4 2.3-1.1 3-2.2 1.2-1.8 1.3-4.2.2-6-1.1-.6-1.5-1.1-2-1.5z" fill="#52371c" stroke-width="none" opacity="1" stroke="none"></path><path id="SvgjsPath113980" d="m82.1 45.5-.5-.6-.5.9c-.2.4-.5.9-.7 1.2-.3.3-.5.6-.8.8-.3.2-.7.3-1 .3h-.1l-1.9.3v.1c.1.4 0 1-.3 1.4-.3.5-.8.8-1.3.9-1 .2-2.6-.6-3-2.1-.3.8 0 1.7.6 2.5.6.7 1.5 1.3 2.5 1.2 1.1 0 2-.6 2.7-1.4.2-.3.4-.6.6-1h.4c.8-.1 1.3-.3 1.9-.7.6-.4.9-1 1.2-1.5l.3-.9c1.1.3 2.2-.1 2.7-.9-1.1.4-2.3.1-2.8-.5zm-3.6 2.7zm-10 3.4c.1-1.6-.9-3.1-2.3-3.6 1 .9 1.4 2.3 1.1 3.4-.3 1.1-1.3 1.9-2.2 2l-1.5.2 1 1.2c.5.7.7 1.6.6 2.5-.1.9-.6 1.8-1.3 2.3l-1.2.8 1.2.7c1 .6 1.5 2 1.2 3.2-.3 1.2-1.6 2.4-3.2 2.6 1.6.5 3.6-.3 4.4-2.1.7-1.4.4-3.1-.5-4.4.8-.8 1.2-1.8 1.3-2.9.1-1-.1-2.1-.6-3 1.2-.5 1.9-1.7 2-2.9zm-8.8 19.7c.2-1.3-.1-2.6-.6-3.6-.5-1.1-1.3-1.9-2.3-2.6.6 1 1 1.9 1.3 2.9.2 1 .3 2 0 2.9-.2.8-.9 1.6-1.6 2-.7.5-1.6.7-2.3.4l-.6 1.9c.5.2 1.1.6 1.4 1.1.3.6.5 1.2.4 1.9-.2 1.3-1.6 2.6-3.3 2.6.8.4 1.8.3 2.7 0 .9-.4 1.7-1.1 2-2.1.4-1 .3-2.2-.2-3.1-.1-.1-.1-.2-.2-.3.4-.2.9-.4 1.2-.6 1.1-.9 1.8-2.1 2.1-3.4zM36.5 91.2c-1.1-.2-2.1-.5-3.1-.9-1-.5-1.9-1.1-2.5-1.8-.6-.7-1-1.7-.8-2.3.1-.3.4-.7.6-.9.3-.2.5-.2.8-.2l.6-1.7c-1.2-.6-2.3-1.1-3.3-1.8s-1.8-1.5-2.2-2.5c-.5-1-.6-2-.1-2.9.4-.9 1.4-1.5 2.2-1.4l.4-1.6c-1.4-.4-2.5-1.9-2.5-3.4 0-1.6 1.1-3.2 2.8-3.8-1.8.1-3.5 1.7-3.8 3.8-.2 1.3.3 2.7 1.2 3.8-.1 0-.2.1-.3.1-.7.4-1.3 1-1.7 1.7-.4.7-.6 1.6-.6 2.4 0 .8.2 1.6.5 2.3.6 1.4 1.8 2.5 2.9 3.2.5.4 1.1.7 1.6.9-.4.4-.7 1-.8 1.6-.3 1.6.6 2.8 1.5 3.6.9.8 2 1.3 3.1 1.6 1.2.3 2.4.4 3.5.2zm.8-27c.1.6.3 1.1.7 1.5.3.3.6.6 1 .9-.4.5-.7 1.1-.8 1.7-.3 1.2-.1 2.5.7 3.5.8 1 2 1.5 3.1 1.5s2.2-.4 2.9-1.2c-.9.6-1.9.6-2.8.4-.9-.2-1.7-.8-2.1-1.5-.8-1.4-.1-3.5 1.2-4l4-1.6-4.4-.2c-.5 0-1-.3-1.3-.7-.3-.4-.4-.9-.2-1.4.1-.5.5-.9 1-1.1.1 0 .2-.1.5-.2s.7-.3.9-.7c.2-.4.3-.8.2-1.2 0-.3-.1-.6-.2-.8l-.3-.6c-.1-.2-.2-.3-.2-.5-.1-.3-.3-.7-.3-1-.1-.7-.2-1.4 0-2 .2-.6.7-1.2 1.3-1.5.6-.3 1.5-.4 2.2 0-.5-.6-1.5-.8-2.4-.6-.8.2-1.7.8-2.1 1.7-.5.8-.6 1.8-.5 2.7 0 .5.1.9.3 1.3.1.2.1.4.2.6.1.2.1.3.2.5 0 .1.1.2.1.3-.1 0-.3.1-.6.2-1 .4-1.8 1.3-2.2 2.3-.1.5-.2 1.1-.1 1.7zM107.5 46c-.3.7-.9 1.1-1.5 1.2-.3 0-.7 0-.9-.1-.2-.1-.3-.1-.4-.2-.1 0-.1-.1-.2-.1 0 0-.1 0-.1-.1l-.1-.1c-.3-.3-.8-.4-1.3-.2-.2.1-.3.1-.4.2-.3.1-.6.1-.9 0-.6-.1-1.2-.5-1.5-.9l-.4-.4c-.2-.2-.4-.2-.7-.3-.3 0-.6 0-.8.1-.2-.1-.3-.1-.4 0l-.1.1c-.2.1-.4.2-.7.3s-.5 0-.7-.1c-.2-.1-.5-.2-.7-.5-.2-.2-.4-.4-.7-.8-.4-.4-1-.6-1.5-.5-.3 0-.5.2-.8.4l-.3.3c0 .1-.1.1-.1.2v.1c-.2.5-.6 1-1.2 1.2-.5.2-1 .2-1.4 0s-.8-.8-.9-1.4c-.1-.3-.1-.6 0-.9 0-.1.1-.3.1-.4 0 0 .1-.1.1-.2s.1-.2.1-.3c0-.2 0-.5-.1-.7-.1-.2-.3-.4-.5-.5-.1 0-.1-.1-.1-.1h-.1l-.1-.1c-.2-.1-.3-.2-.5-.2l-.9-.6c-.6-.4-1-1-1.2-1.7-.2-.7-.2-1.4.2-2 .4-.6 1.1-1.1 1.9-1-.8-.3-1.8 0-2.4.6-.7.7-.8 1.7-.7 2.6.2.9.7 1.8 1.3 2.4.3.3.7.6 1 .8l.6.3c-.1.2-.2.4-.3.7-.1.5-.2 1-.1 1.5.2 1 .7 2 1.6 2.7.9.7 2.3.7 3.2.3.8-.3 1.5-.9 1.9-1.7.2.2.3.4.5.5.4.3.8.6 1.4.8.6.2 1.1.2 1.7.1.5-.1 1-.3 1.4-.7.7.7 1.6 1.2 2.5 1.2.5 0 1 0 1.5-.2l.6-.3c.1 0 .1.1.2.1.1.1.2.2.3.2.2.1.5.2.7.3.5.1 1 .1 1.5 0 1-.2 1.7-1.1 1.9-2 .2-.9-.1-1.8-.7-2.4.5.9.5 1.8.2 2.5zm-19.9-3.5c0 .1 0 0 0 0zm11.1 4c-.1-.1-.1-.1 0 0zm4.7.9zm15.7-.6c.9-.1 1.8-.7 1.9-1.5-.6.6-1.3.7-1.9.6-.7-.1-1.2-.5-1.5-.9-.7-1-.8-2.3-.6-3.7l.4-2-1.8 1c-.5.3-1.1.4-1.7.3-.6 0-1.2-.3-1.7-.7-.5-.4-.8-1-1-1.8-.2-.7-.1-1.5.2-2.3-.7.5-1.1 1.4-1.2 2.3-.1.9.2 1.9.8 2.8.6.8 1.6 1.3 2.6 1.6.5.1 1 .1 1.5 0 0 .4.1.7.2 1.1.2.9.6 1.8 1.4 2.4.5.8 1.5 1 2.4.8zm14.2 5.7c.6.1 1.3.1 1.9 0 .6-.2 1.2-.5 1.6-1-1.1.5-2.2.4-3.2 0s-1.7-1.2-1.9-2l-.4-1.5-1.1 1.2c-.8.9-2.1 1.2-3.1 1.1-1.1-.2-2.1-1-2.6-2l-1.3-3-.4 3.2c-.1.5-.4.9-.8 1.3-.4.3-1 .5-1.5.5-1.1 0-2.3-1-2.5-2.5-.4 1.4.5 3.3 2.3 3.8.9.2 1.8 0 2.6-.4.3-.2.5-.4.7-.6.8 1 1.9 1.7 3.2 1.9 1.5.2 2.9-.2 4-1.2.7.5 1.6 1 2.5 1.2zm6.8 25.1c-1.1.6-2.4.6-3.2 0-.9-.6-1.3-1.6-1.2-2.5.1-1 .7-1.9 1.3-3.1.3-.6.5-1.3.5-2.1 0-.7-.1-1.6-.7-2.3l-.2-.3-.4-.1c-.9-.2-1.8-1.1-1.7-2 0-.2.1-.5.1-.7.1-.1.1-.2.2-.3.2-.2.3-.5.3-.8.1-.6 0-1.3-.5-1.8-.1-.1-.2-.2-.4-.3l-.2-.1c-.1-.1-.2-.2-.4-.2-.9-.7-1.6-1.9-1.4-3.1.1-1.2.9-2.5 2.2-3.2-1.5.2-2.8 1.4-3.2 3-.2.8-.2 1.7 0 2.5s.7 1.5 1.4 2.1c.2.2.3.3.5.4.1 0 .2.2.2.2v.2c0 .1 0 .1-.1.2-.1.2-.2.4-.4.6-.2.4-.3.9-.4 1.4-.1 1.8 1.1 3.4 2.8 3.9.3.5.2 1.4-.1 2.3-.4 1-1 2.2-1 3.7s1 2.9 2.3 3.4c1.4.3 2.9-.1 3.7-1zm6.2 7c.1.2.3.4.4.6.6.7 1.4 1.2 2.3 1.6.6.2 1.2.3 1.8.2.3 1.2 1 2.2 2 2.8 1.3.7 2.9.7 3.9-.1-1.3.3-2.5-.1-3.3-.8-.8-.7-1.2-1.8-1-2.8l.2-1.1-1.2.2c-1.1.2-2.4-.4-3.1-1.3-.1-.1-.2-.2-.2-.4 0-.1-.1-.1-.1-.2l-.2-.3c-.2-.4-.7-.7-1.2-.8-.5-.1-.9.1-1.3.3l-.2.2c0 .1-.1.1-.2.1-.1.1-.2.2-.4.2-.2.1-.5.2-.8.3-1.1.2-2.3-.3-2.6-1.5-.4-1.2 0-2.8 1.3-3.7-.8.1-1.5.7-1.9 1.4-.4.7-.7 1.6-.6 2.5.1.9.6 1.8 1.4 2.4.8.6 1.8.8 2.8.7.5-.1.9-.2 1.4-.4.2-.1.4-.2.6-.4l.2-.2c-.1.4 0 .5 0 .5zm.2-.4zm-.5-.1zm15.5 13.7c-.3.6-.8 1-1.4 1.4-1.1.7-2.6 1-4 2-.6.5-1.1 1-1.7 1.3-.5.3-1 .5-1.3.4-.4 0-.9-.4-1.1-.7-.3-.4-.4-.8-.3-1.2l.2-1-1-.2c-1.5-.2-2.9-1.6-3.2-3.2-.3-1.6.5-3.6 2.1-4.7-2 .4-3.6 2.5-3.5 4.8.1 1.2.5 2.3 1.3 3.2.6.7 1.3 1.2 2.1 1.6 0 .7.3 1.4.7 2 .6.8 1.4 1.4 2.5 1.5 1.1.1 2.1-.3 2.7-.9.7-.5 1.1-1.1 1.6-1.5.9-.9 2.3-1.4 3.5-2.5.6-.5 1.1-1.2 1.3-2 .2-.8.2-1.7-.4-2.2.4.6.3 1.3-.1 1.9zM28.6 60.1c.9.7 1.9 1.2 2.9 1.5-.9-.6-1.7-1.3-2.4-2.1s-1.1-1.7-1.2-2.6c-.1-.9.1-1.8.7-2.4.5-.6 1.4-.9 2-.6l3.7 1.4-2.7-3c-.6-.6-1-1.3-1.3-2-.3-.7-.3-1.4-.2-2.1.2-.7.6-1.2 1.1-1.4.5-.2 1.2-.2 1.6.1l2 1.9-.6-2.7c-.2-.8-.4-1.6-.5-2.4 0-.8 0-1.5.3-2.2.3-.7.8-1.3 1.6-1.4.7-.2 1.7 0 2.2.7-.3-.9-1.3-1.4-2.2-1.4-1 0-2 .7-2.5 1.5-.6.8-.8 1.8-.8 2.8v1.1c-.6-.1-1.3 0-1.9.2-1.2.4-2 1.6-2.3 2.7-.3 1.1-.2 2.3.3 3.3.2.4.4.8.6 1.1-.7.3-1.3.7-1.7 1.2-.9 1.1-1 2.6-.7 3.7.3 1.4 1.1 2.4 2 3.1zm19-20.8c.8.8 1.6 1.3 2.5 1.9-.7-.8-1.4-1.5-1.9-2.4-.5-.8-.9-1.7-.9-2.6 0-.9.2-1.7.8-2.1.6-.5 1.4-.5 1.8-.2l4.4 3.5-3-4.8c-.8-1.2-1.2-2.6-.8-3.7.1-.5.6-.9 1-1.1.5-.2 1-.2 1.3 0l1.7 1.3-.2-2c-.1-.5.1-1.1.4-1.6.3-.5.8-.9 1.4-1.1 1.2-.4 2.8.1 3.6 1.4-.2-.8-.7-1.4-1.3-1.9-.7-.5-1.5-.7-2.5-.6-.9.1-1.7.6-2.3 1.3-.3.4-.6.8-.7 1.3-.1 0-.3-.1-.4-.1-.6 0-1.1 0-1.6.2-1 .4-1.8 1.2-2.2 2.2-.3 1-.3 2 0 2.9.1.3.2.5.3.8-.7.2-1.2.5-1.7.9s-.8 1.1-1 1.7c-.2.6-.2 1.2 0 1.8-.1 1.2.5 2.2 1.3 3zm-6.3-4.4c-.4-.8-.5-1.6-.5-2.3 0-.7.2-1.3.5-1.8s.8-.9 1.4-1.2c.6-.3 1.4-.5 2.3-.5-.5-.8-1.6-1.2-2.7-1.1-1 .1-2.1.6-2.7 1.6-.6 1-.8 2.1-.4 3.1.4 1.1 1.2 2 2.1 2.2zm23.5-15.6c-.1-1-.2-2-.1-3 .1-.9.4-1.8.9-2.4.5-.6 1.2-.9 1.8-.7.6.2 1.1.7 1 1.1l1.9.4c.4-1 .9-2 1.5-2.8.7-.8 1.4-1.4 2.4-1.8.9-.3 2-.4 2.9.1.9.5 1.7 1.4 1.8 2.6.4-1.2-.2-2.6-1.2-3.5-.5-.4-1.2-.8-1.9-.9s-1.4-.1-2.1 0c-1.3.3-2.6 1.1-3.4 2.1-.4.5-.8 1-1.1 1.5-.5-.4-1-.6-1.6-.7-.7-.1-1.4 0-2 .4-.6.3-1 .8-1.3 1.3-.6 1-.8 2.2-.6 3.3.3 1.1.7 2.1 1.1 3zM90 18.2c.2-.7.5-1.3 1-1.7.5-.4 1.1-.4 1.3-.2.2.1.3.3.3.5-.1.2-.1.4-.2.6l-1.1 4.5 2.8-3.7c.2-.2.3-.5.3-.8.7-1.8 2.2-3.2 4-3.1 1 0 2 .4 2.6 1.2.6.8 1 2 .5 3.2.9-.9 1-2.5.4-3.7-.6-1.3-2-2.2-3.4-2.3-.7-.1-1.4 0-2.2.2-.7.2-1.3.6-1.9 1.1-.4.4-.8.8-1.1 1.2-.1-.1-.2-.1-.3-.2-.5-.3-1.3-.4-1.8-.2-.6.2-1 .5-1.3.8-.7.7-1 1.7-.9 2.6 0 .9.3 1.7.6 2.5.2-.9.2-1.7.4-2.5zM71 32.8c-.4-.7-.5-1.3-.4-1.9.1-.6.4-1 .8-1.2.3-.1.6-.1 1 0 .3.1.7.3.9.8.2-.5.1-1.1-.3-1.6-.4-.4-1-.7-1.6-.8-.7-.1-1.4.3-1.9.7-.5.5-.8 1.1-.8 1.7-.2 1.2.3 2.5 1.2 3.2.8.7 1.9 1.1 2.9 1-.8-.5-1.4-1.2-1.8-1.9zM59.1 98.3c.5-.2 1-.4 1.4-.7.8-.6 1.4-1.4 1.8-2.3.7-1.8.2-3.9-1.1-5.1.9 1.5.9 3.3.1 4.6-.4.7-.9 1.2-1.6 1.5-.6.4-1.4.5-2 .5h-1.8l1.1 1.4c.8 1 .8 2.5.2 3.5-.6 1-2 1.7-3.2 1.5l-.8-.1-.2.8c-.2.8-.8 1.6-1.7 2.1-.8.5-1.8.7-2.7.5-1.7-.3-3.3-2.1-3.3-4.2.3-.3.6-.7.8-1.1 1.7-.1 3.2-1.2 3.7-2.8.5-1.5 0-3.1-1-4 .5-.4 1-.9 1.3-1.5.4-.6.6-1.4.7-2.1.2 0 .4.1.6.1 1 0 2-.4 2.6-1.2.6-.8.7-1.8.4-2.7-.2-.8-.9-1.5-1.7-1.7.6.5.9 1.2.9 1.9s-.2 1.3-.6 1.6c-.4.3-1 .5-1.5.4-.5-.1-1-.4-1.2-.7l-1.7.9c.3.8.2 1.8-.2 2.6-.5.8-1.2 1.5-2.1 1.6-.9.2-1.9-.2-2.7-.9-.8-.7-1.4-1.7-1.4-3-.5 1.1-.3 2.6.5 3.7s2.1 1.9 3.7 1.9c.8-.1 1.5-.3 2.1-.8.7 1.1.8 2.5.2 3.4-.6 1.2-2 1.8-3.2 1.5l-.6-.1-.3.7c-.3.7-.9 1.2-1.6 1.4-.7.2-1.5.2-2.1-.1-.3-.2-.4-.3-.5-.6s-.2-.6-.2-1.1c0-.8.2-1.7.4-2.8l.4-2.5-1.6 1.7c-.7.6-1.5 1.2-2.2 1.5-.8.4-1.4.4-2-.1-1.2-1-1.3-3.5.3-4.7-1 .3-1.7 1.3-1.9 2.3-.3 1.1-.1 2.3.7 3.2.4.5 1 .8 1.7.9.7.1 1.3 0 1.8-.2.3-.1.6-.2.8-.3 0 .3-.1.6-.1.9 0 .6 0 1.2.3 1.9s.8 1.2 1.4 1.6c1.2.6 2.5.6 3.7.2.5-.2.9-.4 1.3-.8-.2.9-.1 2 .4 2.9.5 1.1 1.5 2.1 2.8 2.5 1.3.4 2.7.3 3.9-.3 1-.5 1.8-1.3 2.4-2.3 1.8 0 3.5-.9 4.4-2.5.6-1.4.7-3 0-4.4zm4.1-24.8c-.6-.3-1.3-.3-1.8 0 .6.1.9.4 1.2.8.3.3.4.8.5 1.1.2.8 0 1.7-.2 2.6-.2 1-.3 2-.6 2.8-.1.4-.3.8-.6 1.1-.3.3-.7.6-1.2.7.5.3 1.2.3 1.8.1.6-.2 1.1-.7 1.5-1.2.4-.5.6-1.1.8-1.6.2-.6.3-1 .4-1.6.2-1.1.3-2.4-.3-3.6-.4-.4-.9-.9-1.5-1.2zm78.4 25.7c1.2 1.6 3.5 2 4.9 1-1.6.1-3.1-.8-3.6-1.8-.2-.6-.4-1.2-.3-1.8.1-.6.3-1.2.7-1.6l1.6-1.7h-2.3c-.5 0-1.1-.2-1.5-.6-.5-.4-.8-.9-1-1.4-.3-1.2.3-2.7 1.7-3.5-.8 0-1.7.4-2.3 1.1-.6.7-1 1.6-1 2.6s.5 2 1.2 2.7c.4.3.8.6 1.2.8-.2.5-.3 1-.3 1.4.1.9.4 2 1 2.8zM167 73c1.8 1.1 2.5 3.2 2.2 4.8-.2.8-.6 1.6-1.3 2.1-.6.6-1.4.9-2.2 1l-1.7.2 1.1 1.4c.5.7.8 1.4.9 2.3.1.8 0 1.7-.2 2.5-.6 1.6-2.1 3-4.1 3.6 2.1.3 4.4-.9 5.5-2.9.6-1 .8-2.2.7-3.4-.1-.7-.2-1.4-.5-2.1.7-.3 1.4-.7 1.9-1.3.8-.9 1.4-2 1.5-3.3.1-1.2-.3-2.4-1-3.3-.8-.8-1.8-1.4-2.8-1.6zm-9.3-8.3-1.5.2.7 1.3c.3.6.5 1.2.4 1.9 0 .7-.2 1.3-.6 1.9-.4.6-1 1.1-1.7 1.4-.7.3-1.5.5-2.4.4.7.5 1.7.7 2.7.5.9-.1 1.9-.6 2.6-1.3.7-.8 1.1-1.8 1.3-2.8.1-.6 0-1.3-.2-1.9.6-.2 1.1-.6 1.5-1 .7-.7 1.2-1.6 1.4-2.6.3-2-.8-3.9-2.4-4.5 1.1 1.3 1.4 2.9.9 4.1-.3 1.3-1.5 2.2-2.7 2.4zM81.5 14.6c.4-.7.9-1.3 1.6-1.6.6-.3 1.4-.4 2.2-.4.8.1 1.7.4 2.5 1.1-.1-1.1-1-2.1-2.1-2.6s-2.4-.5-3.6.1c-1.1.6-1.9 1.8-2.1 2.9s.1 2.5.9 3.2c-.1-1.1.2-1.9.6-2.7zm38.5-4.4c.6 0 1.1.3 1.5.6l.3.3.2.4c.1.2.2.4.5.6.2.2.8.4 1.2.3.5-.1.7-.3.9-.5.2-.2.3-.3.4-.3.2-.1.4-.2.7-.3.5-.1 1-.1 1.4.1.4.2.8.5 1 1 .2.5.2 1 .1 1.4l-1 3.5 2.4-2.4c.3-.3.8-.3 1.3-.2.5.2 1.1.6 1.4 1.1.6 1.1.5 2.7.2 4.2.4-.6.8-1.4 1-2.2.2-.8.2-1.7-.1-2.5-.3-.9-1-1.6-1.9-2-.4-.2-.9-.3-1.4-.3-.1-1.4-.9-2.7-2.2-3.3-.9-.4-1.9-.4-2.8-.1-.4.1-.9.4-1.3.7l-.4.4-.1-.1c-.1-.1-.2-.3-.4-.5s-.3-.3-.5-.4c-.8-.5-1.7-.7-2.5-.6-1.8.2-2.9 2.1-2.6 3.5.3-1.5 1.6-2.4 2.7-2.4zm3.7.6s-.1 0 0 0zm12 18.4c.5-.8 1.2-1.3 2-1.5.8-.2 1.5 0 1.9.5.4.5.5 1.2.2 1.5l-2.9 3.2 4.1-1.6c.7-.3 1.6-.3 2.4-.1.8.2 1.6.7 2.1 1.3.5.6.9 1.5.9 2.5.1.9-.1 1.9-.6 2.9.9-.6 1.4-1.7 1.6-2.8.2-1.1 0-2.4-.7-3.4-.6-1.1-1.7-1.8-2.9-2.2-.6-.2-1.3-.3-2-.2V29c-.1-.7-.4-1.3-.9-1.8s-1.2-.8-1.8-.9c-.7-.1-1.3 0-1.9.2-1.1.4-2 1.4-2.4 2.5-.4 1-.4 2.1-.2 3.1.2-1.2.5-2.2 1.1-2.9zm15.8 11.3c1 0 1.7.3 2.3.6.6.3 1.1.8 1.5 1.3s.6 1.1.7 1.8c.1.7.1 1.5-.2 2.4.9-.3 1.6-1.3 1.8-2.3.2-1 .1-2.2-.6-3.1-.6-.9-1.7-1.5-2.7-1.7-1.1-.1-2.2.2-2.8 1zm-4.7 17.2c-.5.4-1.1.6-1.8.4-.6-.2-1.3-.8-1.4-1.7-.4.8 0 2 .9 2.6.4.3 1 .5 1.6.5.6 0 1.1-.2 1.6-.4 1-.5 1.7-1.5 2-2.5.2-.7.2-1.3.2-2 .5-.1 1-.4 1.4-.7.7-.6 1.2-1.4 1.4-2.3.1-.9-.2-1.8-.6-2.5-.5-.7-1.2-1.1-2-1.2.6.4 1 1 1.2 1.6.2.6.2 1.2 0 1.7s-.6.9-1 1.2c-.4.3-.9.4-1.4.3l-1.4-.2.3 1.4c.1.7.2 1.5 0 2.1-.2.8-.5 1.3-1 1.7zm15.1-9c.5 0 1 .3 1.3.7.3.4.5.9.5 1.5s0 1.2-.1 1.9l-.2 1.3 1.4-.3c1.3-.2 2.9.5 3.6 1.7.4.6.5 1.4.4 2.2-.1.8-.5 1.7-1.1 2.4.9-.3 1.7-1.1 2.1-2 .4-1 .5-2.1.2-3.2-.6-1.8-2.4-3-4.4-3.1 0-.4-.1-.8-.1-1.2-.1-.8-.6-1.7-1.3-2.3-.6-.6-1.7-.9-2.6-.5-.8.3-1.4 1.2-1.1 1.9.1-.7.8-1 1.4-1zm-12.7-26.6c1.1.9 1.4 2.9.6 4l-.9 1.3 1.6.2c1.3.2 2.6 1 3.4 2.1.4.6.7 1.3.8 2.1.1.8.1 1.6-.1 2.4.6-.7.9-1.5 1-2.4.1-.9 0-1.9-.4-2.8-.6-1.4-1.8-2.5-3.2-3.1.2-.8.3-1.6.1-2.4-.3-1.2-1-2.3-2-2.9-1.1-.6-2.3-.7-3.3-.4-1.1.3-2 1-2.4 2 .8-.6 1.7-.9 2.5-.9.9 0 1.7.3 2.3.8zM98.6 9c.7-.3 1.5-.4 2.2-.3.7.1 1.4.4 2 .8.6.5 1.2 1.1 1.7 2 .4-1 .1-2.2-.6-3.1-.7-.9-1.7-1.6-2.9-1.7-1.2-.2-2.4.3-3.2 1-.8.7-1.4 1.8-1.3 2.8.7-.7 1.4-1.2 2.1-1.5zM59.5 23.8c-.5-.6-.6-1.2-.7-1.8s0-1 .1-1.4.4-.7.8-1.1.9-.7 1.7-.8c-.5-.6-1.5-.8-2.3-.6s-1.7.9-2 1.8c-.4.9-.2 2 .3 2.7.4.8 1.3 1.3 2.1 1.2zm104.2 15.4c.2.4.3 1 .2 1.6-.1.6-.2 1.2-.7 2 .9 0 1.7-.6 2.2-1.5.4-.8.6-1.9.1-2.9-.4-1-1.3-1.6-2.2-1.9-.9-.2-2 0-2.6.6.9.1 1.4.4 1.9.8.6.4.9.8 1.1 1.3zm-18.3 67.3c.8.3 1.6.2 2.2-.2.6-.4 1.1-1.1.9-1.8-.6.3-1.1.3-1.5.3-.4 0-.7-.1-.9-.2s-.5-.2-.8-.5-.6-.6-.8-1.2c-.6.4-.8 1.2-.6 1.9.3.7.8 1.3 1.5 1.7zm27-40.5c-.3-.6-.7-1.1-1.3-1.5-.6-.3-1.3-.5-1.9-.3.4.6.6 1 .8 1.4l.6 1.2c.2.4.3.8.5 1.2.2.4.3.9.5 1.6.6-.3.9-1 1.1-1.6.1-.7 0-1.4-.3-2zm-69.1-35.4c-.1-.6-.2-1.4.3-2.2-1 .1-1.7 1.2-1.9 2.2-.2 1 .2 2.3 1.3 3 1 .7 2.4.7 3.3.2.9-.5 1.7-1.5 1.5-2.5-.6.7-1.3.9-2 1s-1.2-.1-1.6-.3c-.4-.2-.7-.7-.9-1.4zm-64.4 75.8c-.4-.1-.6-.2-.7-.4-.1-.2-.1-.4-.1-.4L38 104h-.6c-.5 0-1-.3-1.5-.8s-.8-1.2-.8-2.1c-.3.3-.5.8-.6 1.3-.1.5 0 1 .2 1.5s.5.9 1 1.3c.2.1.3.2.5.3v.3c0 .5.2.9.5 1.3.6.8 1.6 1 2.3.9.8-.1 1.4-.5 1.8-1 .5-.5.8-1 1-1.6-.6.2-1.1.5-1.6.7-.5.3-.9.4-1.3.3zm16.9 5.8c-.4.3-.8.4-1.2.4-.3-.1-.7-.2-.9-.5-.2-.3-.4-.6-.4-.9v-2l-1.6 1.2c-.6.4-1.4.6-2.2.5s-1.8-.4-2.5-1.2c0 1.1 1 2.2 2.1 2.7.8.3 1.6.4 2.5.2.2.4.4.7.7.9.6.6 1.5.9 2.4.8.9-.1 1.5-.7 1.9-1.4.3-.7.4-1.4 0-2-.1.5-.4 1-.8 1.3zm5.5-9.1c.6.8.9 1.6 1 2.4s.1 1.5-.1 2.1c-.2.6-.6 1.2-1.2 1.8-.6.5-1.3 1-2.2 1.3.9.6 2.1.5 3.1.1s1.9-1.3 2.3-2.5c.4-1.1.2-2.4-.3-3.3-.6-1.1-1.6-1.8-2.6-1.9zm79.1 7.1c-.6-.1-.9-.3-1.2-.7-.2-.4-.3-.7-.1-.9.1-.3.4-.5.6-.5h.2l-.1-1.9h-.5c-.4 0-.9-.3-1.2-.7-.2-.3-.3-.6-.3-1.1 0-.4.1-.9.4-1.3-.5.2-.9.6-1.2 1.1-.3.5-.3 1.2-.2 1.8.1.5.4.9.8 1.3l-.3.6c-.2.5-.2 1.1-.1 1.6s.4.9.8 1.2c.7.7 1.8.9 2.6.6.8-.2 1.4-.8 1.7-1.5-.7.4-1.4.5-1.9.4zm7.1.3c-.4.3-.7.5-1 .6-.3.1-.7.2-.9.2-.1 0-.3 0-.5-.1s-.4-.3-.4-.7c-.3.2-.5.6-.5 1s.3.9.6 1.1c.8.6 1.7.6 2.4.3.8-.3 1.3-.9 1.6-1.7.2-.7.2-1.6-.3-2.1-.3.7-.6 1.1-1 1.4zM112.7 5.9c.6.1 1.1.4 1.6.9s1 1 1.3 1.9c.5-.8.4-1.9-.1-2.8s-1.3-1.6-2.4-1.9-2.2 0-3 .5c-.8.6-1.4 1.4-1.4 2.4.7-.6 1.4-.8 2.1-1 .7-.2 1.3-.1 1.9 0zM98.9 5c.3-.1.6-.1.8-.2.3-.1.5-.2.8-.3.3-.1.6-.3 1.2-.4-.1-.6-.5-.9-1-1.1-.5-.2-1-.2-1.5-.1s-.9.4-1.2.8c-.3.4-.5.9-.3 1.5.5-.1.9-.1 1.2-.2z" fill="#432910" stroke-width="none" opacity="1" stroke="none"></path></g><g id="svga-group-glasses-single-move" transform="matrix(1,0,0,1,0,0)"><g id="svga-group-glasses-single" transform="matrix(1,0,0,1,0,0)"></g></g></g></g></g><rect id="svga-credit-rect" width="200" height="15" x="0" y="185" fill="#ecf0f1" opacity="0.5" style="display: none;"></rect><text id="svga-credit-text" font-family="Avenir Next, Roboto, Helvetica, Arial, sans-serif" font-size="10px" text-anchor="start" font-weight="400" size="10px" anchor="start" weight="400" fill="#333333" x="33.40447998046875" y="182.60824704170227" style="display: none;"><tspan id="SvgjsTspan113286" dy="13" x="33.40447998046875">Created on AvatarMaker.com</tspan></text></g></svg>