<svg xmlns="http://www.w3.org/2000/svg" version="1.1" width="600px" height="600px" viewBox="0 0 200 200" style="overflow:hidden!important;"><g id="svga-group-wrapper"><g id="svga-group-backs-single"></g><g id="svga-group-humanwrap-move" transform="matrix(1,0,0,1,0,0)"><g id="svga-group-humanwrap"><g id="svga-group-hair-back-move" transform="matrix(1,0,0,1,0,0)"><g id="svga-group-hair-back"></g></g><g id="svga-group-humanbody-back"><path id="SvgjsPath75609" d="M180.8 184.9c-2.3-3.4-38.9-17.8-38.9-17.8l-13.4-5.2-5.6-68.8H76.8L71.3 162l-13.4 5.2S21.4 181.6 19 185c-2.3 3.4-3.3 14.9-3.3 14.9V219h168.5v-19.2c-.1.1-1-11.5-3.4-14.9z" fill="#eabaa7" stroke-width="none" opacity="1" stroke="none"></path></g><g id="svga-group-chinshadow-single"><path id="SvgjsPath75605" d="M73.4 148.4c11.3 14.1 20.9 13.8 20.9 13.8s9.6.3 20.9-13.9c4.4-5.5 8-11.5 10.8-17.1l-3.1-38.1H76.8l-4.3 54.2c.3.3.6.7.9 1.1z" fill="#cb8568" stroke-width="none" opacity="1" stroke="none"></path></g><g id="svga-group-humanbody-front"><path id="SvgjsPath75610" d="M184.5 219c-.1-6.4-.1-12.8-.1-19.2l-.3-.1s.1-.1.2 0c.1 0 .1.1.1.1v-.4l-.1-.5-.1-.9-.2-1.9c-.2-1.3-.4-2.5-.6-3.8-.2-1.3-.5-2.5-.9-3.8-.4-1.2-.8-2.5-1.5-3.6-.8-.9-1.9-1.5-2.9-2.1-1-.6-2.1-1.1-3.2-1.7-2.1-1.1-4.3-2.1-6.5-3.1-4.4-2-8.7-3.9-13.1-5.7-4.4-1.9-8.8-3.7-13.2-5.5l-13-5.2-1.2-16.9c-.4-5.7-.9-11.5-1.3-17.2l-1.3-17.2-1.5-17.3-.1-.8h-.8c-7.7 0-15.4.1-23.1.1l-23.1.2h-.5v.5L75 110.2l-1.3 17.2c-.8 11.4-1.8 22.8-2.8 34.2-5.6 2.1-11.2 4.2-16.7 6.4-5.6 2.2-11.2 4.5-16.8 6.9-2.8 1.2-5.6 2.4-8.3 3.6-2.8 1.3-5.5 2.5-8.2 4.1-.7.4-1.3.8-2 1.4-.2.1-.4.4-.5.6l-.3.6c-.2.4-.4.7-.5 1.1-.6 1.5-1 3-1.3 4.5-.6 3-1.1 6-1.4 9.1l-.1 19.1v.9h.9l42.1.1H100c14 0 28.1-.1 42.1-.2l42.1-.5h.3v-.3zm-84.5-1-42.1-.1-41.2.1-.1-18.1c.3-3 .6-5.9 1.2-8.9.3-1.4.6-2.9 1.1-4.2.1-.3.3-.7.4-.9l.2-.4.3-.3c.5-.4 1.1-.8 1.8-1.2 2.5-1.5 5.3-2.8 8-4.1 2.7-1.3 5.5-2.5 8.2-3.7 5.5-2.4 11.1-4.8 16.7-7.1s11.2-4.5 16.9-6.7l.2-.1v-.2c.9-11.5 1.7-23 2.7-34.4l1.4-17.2 1.5-16.7 22.6.2c7.4.1 14.8.1 22.3.1l1.3 16.4 1.5 17.2c.5 5.7 1 11.5 1.5 17.2l1.6 17.2v.3l.3.1 13.4 5c4.4 1.7 8.9 3.4 13.3 5.2 4.4 1.8 8.8 3.7 13.2 5.6 2.2 1 4.3 2 6.5 3 1.1.5 2.1 1.1 3.2 1.6 1 .6 2.1 1.2 2.9 2 .7 1.1 1.1 2.3 1.4 3.5.3 1.2.6 2.5.8 3.7.2 1.3.4 2.5.6 3.8l.2 1.9.1.9.1.5v.4c0 6.3 0 12.6-.1 18.9l-41.8-.5c-14 .1-28.1 0-42.1 0z" fill="#bc6d4e" stroke-width="none" opacity="1" stroke="none"></path><path id="SvgjsPath75611" d="M125.1 142.4s-1.8 23-9.1 32.9c0 0 7.9-25 9.1-32.9zm-34.5 16s5 7.9 11.5 10.1c0 0-9.5 2.2-11.5-10.1zM73.4 140c6.7 25.6 6.7 25.6 8.5 30.7 0 0 .4-12.6-8.5-30.7z" fill="#cb8568" stroke-width="none" opacity="1" stroke="none"></path></g><g id="svga-group-clothes-single"><path id="SvgjsPath75497" d="M53.2 168.3s-14.6 5.6-17.9 7.1c0 0 6.1 11.9 6.1 43.9h115.3s-.3-24 7.4-43.6c0 0-13.9-6.2-16.9-6.9 0 0-6.3 18.4-10.4 25.3-4.2 6.9-44.7 4.9-60.6 4.1-12.2-.5-18.4-15.7-23-29.9z" fill="#565656" stroke-width="none" opacity="1"></path><path id="SvgjsPath75498" d="M164.5 174.9c-2.8-1.2-5.6-2.5-8.4-3.7l-4.2-1.8c-1.4-.6-2.8-1.1-4.4-1.6l-.9-.2-.3.9c-1.8 5-3.6 10-5.7 14.9-1 2.4-2.1 4.9-3.2 7.3l-.9 1.8c-.3.5-.6 1.2-.9 1.5-.7.7-1.9 1.3-3.1 1.7-2.4.8-5.1 1.2-7.7 1.6-2.7.3-5.3.5-8 .7-5.4.3-10.8.3-16.2.3-5.4 0-10.8-.2-16.2-.3l-8.1-.3c-2.6-.1-5.1-.9-7.3-2.3s-4-3.3-5.6-5.4c-1.6-2.1-2.9-4.4-4.2-6.8-1.2-2.4-2.3-4.8-3.3-7.3s-1.9-5-2.8-7.6c-.3.1-.4.1-.7.2l-.6.2-1.1.4-2.3.8-4.5 1.7-4.5 1.7c-1.5.6-3 1.1-4.5 1.8l-.4.2.2.5c1.4 3.3 2.3 7 3 10.6.7 3.6 1.2 7.3 1.6 11 .4 3.7.6 7.4.8 11.1l.2 5.6V220.5h.8c9.6.1 19.2 0 28.8 0l28.8-.3c4.8-.1 9.6-.1 14.4-.1l14.4-.1c9.6 0 19.2.1 28.8.2h.5v-.5c0-3.7.3-7.4.6-11 .4-3.7.8-7.3 1.5-11 .6-3.6 1.4-7.2 2.3-10.8.9-3.6 2.1-7 3.4-10.5l.3-.8-.4-.7zm-4.5 11.2c-.9 3.6-1.6 7.3-2.1 11s-.9 7.4-1.2 11.1c-.2 3.6-.4 7.1-.4 10.7-9.4.1-18.9.1-28.3.2l-14.4-.1c-4.8 0-9.6-.1-14.4-.1l-28.8-.3c-9.3 0-18.7-.1-28 0l-.1-4.8-.2-5.6c-.2-3.7-.5-7.4-1-11.2-.5-3.7-1.1-7.4-1.9-11.1-.8-3.5-1.7-7-3.2-10.3 2.8-1.3 5.6-2.4 8.4-3.6l4.4-1.8 2.2-.9 1.1-.5.6-.2c.2-.1.4-.1.5-.2.7 2.5 1.5 5 2.4 7.6.9 2.5 1.9 5 3 7.5 1.2 2.4 2.4 4.8 4 7s3.5 4.3 5.8 5.8c2.3 1.6 5.1 2.6 7.9 2.7l8.1.4c5.4.3 10.8.5 16.2.6 5.4.1 10.8.1 16.3-.1 2.7-.1 5.4-.3 8.2-.6 2.7-.4 5.4-.7 8.1-1.6 1.3-.5 2.7-1 3.9-2.2.6-.7.9-1.3 1.2-1.9l.9-1.8c1.2-2.4 2.3-4.9 3.3-7.4 1.9-4.7 3.6-9.4 5.3-14.2l3.3 1.2c1.4.6 2.8 1.1 4.2 1.7 2.6 1.1 5.1 2.2 7.6 3.3-1.1 3.1-2.1 6.4-2.9 9.7z" fill="#373737" stroke-width="none" opacity="1"></path></g><g id="svga-group-head" transform="matrix(1,0,0,1,0,0)"><g id="svga-group-ears-left-move" transform="matrix(1,0,0,1,0,0)"><g id="svga-group-ears-left"><path id="SvgjsPath75507" d="M70.01 81.26s-3.24-4.86-12.55-8.1c0 0-3.1-.67-10.39 10.66 0 0-1.35 5.94 5.13 15.65 0 0 6.34 3.37 16.73-1.21 0 0 4.72-7.69 1.08-17z" fill="#eabaa7" stroke-width="none" opacity="1" stroke="none"></path><path id="SvgjsPath75508" d="M68.66 90.08s-5.67-8.43-10.93-11.38c0 0-3.51 2.67-6.48 7.73 0 0 2.97 6.89 4.45 8.71 0 0 3.64 1.41 11.2-.56l1.76-4.5z" fill="#db9e86" stroke-width="none" opacity="1" stroke="none"></path><path id="SvgjsPath75509" d="M46.91 83.79c-.12.72-.12 1.43-.08 2.13.03.71.12 1.41.22 2.1.23 1.39.63 2.75 1.08 4.08.45 1.34 1.04 2.62 1.65 3.9.32.63.66 1.25 1 1.87l1.1 1.81.05.08.09.04c1.39.67 2.82.98 4.28 1.17 1.46.18 2.94.17 4.4.04 1.46-.13 2.9-.44 4.3-.84.71-.19 1.39-.45 2.08-.68l2.03-.82.13-.05.07-.12c.77-1.34 1.25-2.75 1.64-4.19.39-1.44.58-2.93.62-4.41.04-1.48-.04-2.97-.34-4.41-.21-1.46-.68-2.86-1.19-4.24-.75-1.04-1.67-1.91-2.62-2.75-.96-.83-1.97-1.6-3.03-2.3-1.06-.7-2.17-1.33-3.3-1.9-1.14-.58-2.32-1.04-3.51-1.49l-.03-.01h-.02c-.53-.05-.8.08-1.15.19-.32.12-.62.29-.91.46-.56.36-1.08.76-1.57 1.19-.98.85-1.83 1.83-2.63 2.82-1.61 2-2.97 4.15-4.35 6.28l-.02.03.01.02zm.32.09c.7-1.04 1.4-2.08 2.17-3.07.76-1.01 1.55-1.99 2.39-2.94.84-.93 1.7-1.85 2.64-2.66.47-.4.96-.78 1.48-1.09.26-.16.52-.29.79-.4.24-.1.57-.18.69-.18l1.73.62 1.73.71c1.15.49 2.28 1.03 3.37 1.66 1.08.63 2.15 1.3 3.12 2.09.97.79 1.9 1.66 2.65 2.66.47 1.38.89 2.78 1.07 4.23.2 1.44.19 2.91.05 4.35-.13 1.44-.45 2.86-.87 4.23-.4 1.33-.96 2.63-1.61 3.8l-1.83.73c-.67.21-1.34.46-2.02.64-1.36.38-2.75.65-4.14.82-1.4.15-2.81.18-4.21.04-1.35-.15-2.75-.43-3.95-.95l-1.08-1.65-1.06-1.79c-.66-1.22-1.3-2.46-1.79-3.76-.51-1.29-.92-2.63-1.17-4-.27-1.35-.38-2.76-.15-4.09z" fill="#db9e86" stroke-width="none" opacity="1" stroke="none"></path><path id="SvgjsPath75510" d="M52.21 84.06c.46-.6.96-1.16 1.45-1.73 1.01-1.12 2.05-2.19 3.12-3.26l.12-.12.16.12c.9.67 1.74 1.43 2.52 2.24.77.82 1.44 1.71 2.09 2.62 1.27 1.84 2.38 3.77 3.26 5.82l-.08.04c-1.24-1.84-2.49-3.65-3.81-5.4-.66-.87-1.34-1.73-2.03-2.57-.66-.79-1.34-1.57-2.09-2.27-1.1.89-2.11 1.91-3.01 3-.91 1.1-1.7 2.31-2.27 3.59.53 1.19 1.08 2.38 1.66 3.54.53 1.03 1.08 2.07 1.7 3.01.68-.6 1.35-1.23 1.97-1.88.72-.77 1.38-1.61 1.82-2.53-.13-.47-.36-.96-.61-1.42a7.38 7.38 0 0 0-1.01-1.36l.06-.07c.46.35.88.77 1.24 1.23.18.23.35.48.49.74.15.26.28.52.39.83l.02.07-.03.1c-.36 1.14-1.06 2.08-1.76 2.96-.72.89-1.51 1.68-2.37 2.45l-.39.34-.31-.42c-.85-1.16-1.45-2.4-2.02-3.65-.58-1.25-1.09-2.51-1.56-3.8l-.06-.15.07-.12c.38-.72.81-1.35 1.27-1.95z" fill="#bc6d4e" stroke-width="none" opacity="1" stroke="none"></path></g></g><g id="svga-group-ears-right-move" transform="matrix(1,0,0,1,0,0)"><g id="svga-group-ears-right"><path id="SvgjsPath75511" d="M129.99 81.26s3.24-4.86 12.55-8.1c0 0 3.1-.67 10.39 10.66 0 0 1.35 5.94-5.13 15.65 0 0-6.34 3.37-16.73-1.21 0 0-4.72-7.69-1.08-17z" fill="#eabaa7" stroke-width="none" opacity="1" stroke="none"></path><path id="SvgjsPath75512" d="M131.34 90.08s5.67-8.43 10.93-11.38c0 0 3.51 2.67 6.48 7.73 0 0-2.97 6.89-4.45 8.71 0 0-3.64 1.41-11.2-.56l-1.76-4.5z" fill="#db9e86" stroke-width="none" opacity="1" stroke="none"></path><path id="SvgjsPath75513" d="m153.08 83.76-.02-.03c-1.38-2.13-2.74-4.29-4.35-6.28-.8-1-1.65-1.97-2.63-2.82-.49-.43-1-.84-1.57-1.19-.28-.18-.58-.34-.91-.46-.35-.11-.63-.24-1.15-.19h-.02l-.03.01c-1.19.45-2.38.92-3.51 1.49-1.14.58-2.24 1.2-3.3 1.9-1.06.7-2.07 1.47-3.03 2.3-.95.84-1.86 1.71-2.62 2.75-.51 1.38-.98 2.78-1.19 4.24-.29 1.45-.38 2.93-.34 4.41.04 1.48.23 2.97.62 4.41.39 1.45.87 2.85 1.64 4.19l.07.12.13.05 2.03.82c.69.22 1.38.49 2.08.68 1.41.4 2.84.7 4.3.84 1.46.13 2.94.14 4.4-.04 1.47-.19 2.9-.49 4.28-1.17l.09-.04.05-.08 1.1-1.81c.33-.62.68-1.24 1-1.87.61-1.27 1.2-2.56 1.65-3.9.45-1.33.85-2.69 1.08-4.08.11-.7.19-1.4.22-2.1.04-.71.04-1.41-.08-2.13l.01-.02zm-.43 4.21c-.25 1.37-.65 2.71-1.17 4-.49 1.3-1.13 2.54-1.79 3.76l-1.06 1.79-1.08 1.65c-1.21.52-2.6.81-3.95.95-1.4.14-2.81.11-4.21-.04-1.4-.17-2.78-.44-4.14-.82-.68-.18-1.35-.43-2.02-.64l-1.83-.73c-.65-1.18-1.21-2.48-1.61-3.8-.42-1.38-.74-2.79-.87-4.23-.14-1.44-.15-2.9.05-4.35.17-1.45.6-2.85 1.07-4.23.74-1 1.67-1.88 2.65-2.66.98-.79 2.04-1.46 3.12-2.09 1.09-.62 2.22-1.16 3.37-1.66l1.73-.71 1.73-.62c.11 0 .45.08.69.18.26.12.53.25.79.4.51.31 1.01.68 1.48 1.09.94.81 1.8 1.73 2.64 2.66.83.94 1.63 1.93 2.39 2.94.77.99 1.47 2.03 2.17 3.07.2 1.33.09 2.74-.15 4.09z" fill="#db9e86" stroke-width="none" opacity="1" stroke="none"></path><path id="SvgjsPath75514" d="M147.79 84.06c-.46-.6-.96-1.16-1.45-1.73a87.123 87.123 0 0 0-3.12-3.26l-.12-.12-.16.12c-.9.67-1.74 1.43-2.52 2.24-.77.82-1.44 1.71-2.09 2.62-1.27 1.84-2.38 3.77-3.26 5.82l.08.04c1.24-1.84 2.49-3.65 3.81-5.4.66-.87 1.34-1.73 2.03-2.57.66-.79 1.34-1.57 2.09-2.27 1.1.89 2.11 1.91 3.01 3 .91 1.1 1.7 2.31 2.27 3.59-.53 1.19-1.08 2.38-1.66 3.54-.53 1.03-1.08 2.07-1.7 3.01-.68-.6-1.35-1.23-1.97-1.88-.72-.77-1.38-1.61-1.82-2.53.13-.47.36-.96.61-1.42.28-.49.62-.94 1.01-1.36l-.06-.07c-.46.35-.88.77-1.24 1.23-.18.23-.35.48-.49.74-.15.26-.28.52-.39.83l-.02.07.03.1c.36 1.14 1.06 2.08 1.76 2.96.72.89 1.51 1.68 2.37 2.45l.39.34.31-.42c.85-1.16 1.45-2.4 2.02-3.65.58-1.25 1.09-2.51 1.56-3.8l.06-.15-.07-.12c-.38-.72-.81-1.35-1.27-1.95z" fill="#bc6d4e" stroke-width="none" opacity="1" stroke="none"></path></g></g><g id="svga-group-faceshape-wrap"><g id="svga-group-faceshape-single"><path id="SvgjsPath75591" d="M140.4 54.9c-2.2-10-6.3-16-15.2-20.8-9.3-5-25.2-4.8-25.2-4.8s-15.9-.2-25.2 4.8c-8.8 4.8-13 10.8-15.2 20.8-.9 4 0 13.6 0 13.6s1.2 11.9 1.2 15.3-.6 9.6.2 16.4 6.8 23.5 18.1 37.6 20.9 13.8 20.9 13.8 9.6.3 20.9-13.8 17.3-30.9 18.1-37.6c.8-6.8.2-13 .2-16.4s1.2-15.3 1.2-15.3c-.1-.1.9-9.6 0-13.6z" fill="#eabaa7" stroke-width="none" opacity="1" stroke="none"></path><path id="SvgjsPath75592" d="M140.4 54.9c-2.2-10-6.3-16-15.2-20.8-9.3-5-25.2-4.8-25.2-4.8s-15.9-.2-25.2 4.8c-8.8 4.8-13 10.8-15.2 20.8-.9 4 0 13.6 0 13.6s1.2 11.9 1.2 15.3-.6 9.6.2 16.4 6.8 23.5 18.1 37.6 20.9 13.8 20.9 13.8 9.6.3 20.9-13.8 17.3-30.9 18.1-37.6c.8-6.8.2-13 .2-16.4s1.2-15.3 1.2-15.3c-.1-.1.9-9.6 0-13.6zm0 10.1c-.1 1.1-.2 2.2-.3 3.4l-.5 4.9c-.2 1.6-.4 3.3-.5 4.9-.2 1.7-.3 3.3-.4 5-.1 1.7 0 3.3 0 5 0 3.3-.1 6.6-.4 9.8 0 .4-.1.8-.1 1.2l-.1.6-.1.6c-.1.8-.3 1.6-.5 2.3-.4 1.6-.9 3.1-1.4 4.7-1.1 3.1-2.3 6.1-3.7 9.1s-2.9 5.9-4.6 8.7c-.4.7-.8 1.4-1.3 2.1-.4.7-.8 1.4-1.3 2.1l-1.4 2-1.4 2c-.5.7-1 1.3-1.5 2l-.7 1-.4.5-.4.5-1.6 1.9c-.5.6-1.1 1.2-1.7 1.8-2.3 2.3-4.7 4.4-7.4 6.1-1.4.8-2.7 1.6-4.2 2.1-.7.3-1.5.5-2.2.7s-1.5.3-2.2.4c-.6 0-1.4-.1-2.1-.2-.7-.2-1.5-.4-2.2-.6-1.5-.5-2.9-1.2-4.3-2-2.8-1.6-5.3-3.7-7.6-5.9-2.3-2.3-4.4-4.8-6.3-7.4-2-2.6-3.8-5.4-5.5-8.1-1.7-2.8-3.3-5.7-4.7-8.7-1.4-3-2.7-6-3.8-9.1-.3-.8-.5-1.6-.8-2.3l-.4-1.2-.3-1.2-.3-1.2c-.1-.4-.2-.8-.2-1.2-.1-.4-.1-.8-.2-1.2l-.1-1.2c-.3-3.3-.4-6.6-.3-9.9 0-1.7.1-3.3.1-5s-.1-3.3-.3-5c-.2-3.3-.5-6.6-.8-9.9s-.4-6.6-.3-9.9c0-.8.1-1.6.2-2.4.1-.8.2-1.5.5-2.3.4-1.6.9-3.1 1.5-4.7 1.2-3 2.8-5.8 4.9-8.2.5-.6 1.1-1.1 1.7-1.7.6-.5 1.2-1 1.9-1.5.6-.5 1.3-.9 2-1.4.7-.4 1.4-.9 2.1-1.2.4-.2.7-.4 1.1-.6l1.1-.5.5-.3.6-.2 1.1-.4c.4-.1.8-.3 1.1-.4.4-.1.8-.3 1.1-.4l1.2-.3 1.2-.3c3.2-.7 6.4-1.2 9.6-1.5 1.6-.1 3.3-.3 4.9-.3.8 0 1.6-.1 2.4-.1h2.4c3.3.1 6.5.3 9.8.7 3.2.4 6.5 1.1 9.5 2.2.4.1.8.3 1.1.4l1.1.5.6.3.5.3 1.1.6c1.4.8 2.8 1.7 4.1 2.7s2.5 2.2 3.5 3.4c1.1 1.3 2 2.6 2.8 4.1 1.6 2.9 2.5 6.1 3.3 9.3.2 1.1.3 2.2.3 3.4v3.4c0 1 0 2.1-.1 3.2z" fill="#bc6d4e" stroke-width="none" opacity="1" stroke="none"></path></g></g><g id="svga-group-mouth-single-move" transform="matrix(1,0,0,1,0,1)"><g id="svga-group-mouth-single"><path id="SvgjsPath75691" d="M83.97 125.04c.12-.08 2.71-.87 5.61-1.89 2.72-.96 5.75-2.17 6.12-2.21.78-.08 4.82 3.03 4.82 3.03s3.5-3.19 3.96-3.19c.23 0 3.46 1.14 6.75 2.02 3.36.9 7.4.4 7.4.4s-3.98 2.09-7.29 1.72c-2.91-.32-5.66-1.21-6.09-1.13-.93.16-3.81 3.5-4.35 3.57-.54.08-5.13-3.73-5.52-3.89-.17-.06-2.95 1.05-5.48 1.6-2.99.63-5.93-.03-5.93-.03z" fill="#d16370" stroke-width="none" opacity="1" stroke="none"></path><path id="SvgjsPath75692" d="M87.82 125.93c.52 1.38 1.02 2.77 1.59 4.13.28.68.57 1.36.91 1.99.08.16.18.31.27.45.08.14.22.28.25.28.06 0 .08.02.17.02l.24.01c.17-.01.35-.02.53-.04 1.43-.17 7.87-2.25 8.26-2.28.37-.03 10.85 2.22 11.57 2.26.18.01.36.01.52.01.06-.01.16-.01.18-.02.03-.01.09-.06.14-.11.21-.23.4-.56.57-.87.68-1.29 1.19-2.68 1.71-4.06-.17.72-.36 1.44-.58 2.14-.22.71-.45 1.41-.75 2.11-.16.34-.31.69-.58 1.02-.08.08-.15.17-.29.24-.07.04-.13.05-.18.06l-.17.03c-.21.02-2.07 0-2.81-.04-2.96-.17-8.25.14-8.61.16-.35.02-9.34.05-9.5.05l-.31-.02c-.1 0-.25-.06-.37-.09-.06-.03-.14-.09-.19-.13a1.42 1.42 0 0 1-.12-.13c-.07-.09-.13-.17-.18-.26-.1-.17-.19-.35-.27-.52-.31-.69-.56-1.39-.8-2.1-.45-1.43-.87-2.84-1.2-4.29z" fill="#cb8568" stroke-width="none" opacity="1" stroke="none"></path></g></g><g id="svga-group-eyes-left-move" transform="matrix(1,0,0,1,2,0)"><g id="svga-group-eyes-left" transform="matrix(0.8999996000000001,0,0,0.8999996000000001,7.925031318528738,8.730034462234485)"><g id="svga-group-eyesback-left"><path id="SvgjsPath75549" d="M80.2 74.2c7.5 0 13.5 5.8 13.5 13s-6 13-13.5 13-13.5-5.8-13.5-13 6-13 13.5-13z" fill="#ffffff" stroke-width="none" opacity="1"></path></g><g id="svga-group-eyesiriswrapper-left" transform="matrix(1,0,0,1,0,0)"><g id="svga-group-eyesiriscontrol-left" transform="matrix(1,0,0,1,0,0)"><g id="svga-group-eyesiris-left"><path id="SvgjsPath75626" d="M80.2 81.6c3.1 0 5.6 2.5 5.6 5.6s-2.5 5.6-5.6 5.6-5.6-2.5-5.6-5.6 2.5-5.6 5.6-5.6z" fill="#4d0f0a" stroke-width="none" opacity="1"></path><path id="SvgjsPath75627" d="M80.2 84.2c1.7 0 3 1.3 3 3s-1.3 3-3 3-3-1.3-3-3 1.3-3 3-3z" fill="#000000" stroke-width="none" opacity="1"></path><path id="SvgjsPath75628" d="m79.5 84.8-.6-.6c-.2-.2-.5-.3-.8-.3s-.6.1-.8.3c-.2.2-.3.5-.3.8s.1.6.3.8l.6.6c.2.2.5.3.7.3.3 0 .6-.1.7-.3.6-.6.6-1.2.2-1.6zm2.7 5.1c1 0 1-1.5 0-1.5-.9 0-.9 1.5 0 1.5z" fill="#ffffff" stroke-width="none" opacity="1"></path></g></g></g><g id="svga-group-eyesfront-left"><path id="SvgjsPath75557" d="M80.2 73.7c-7.8 0-14.1 6.1-14.1 13.6s6.3 13.6 14.1 13.6 14.1-6.1 14.1-13.6S88 73.7 80.2 73.7zm8.3 19.8c-.8 1.4-11.5 4.7-13.6 4.3s-7.3-7.4-7.6-8.5c-.3-1.1 6.2-9.2 9.2-10.7 0 0 6.5-.1 10 1.5s4.7 6.8 4.3 7.9c-.3 1-1.5 4.1-2.3 5.5z" fill="#eabaa7" stroke-width="none" opacity="1" stroke="none"></path><path id="SvgjsPath75558" d="M91.1 86.8c-.1-.7-.2-1.4-.5-2.1-.5-1.3-1.2-2.6-2.2-3.6-.5-.5-1.1-.9-1.7-1.2-.3-.1-.6-.3-.9-.4 2 .2 3.8.2 4.5-.3 0 0-12.6-3-14.4-2.9-1.8.1-9.2 10.5-9.9 11.8-.7 1.2-1.8 2.2-1.8 2.2s1.9-.2 3-.5c.3.6.6 1 .9 1.5.8 1.1 1.7 2.2 2.6 3.3.9 1 1.9 2.1 3 2.9.3.2.6.4 1 .5.4.1.8.1 1.1 0 .7-.1 1.4-.2 2.1-.4 1.3-.3 2.7-.7 4-1.1 1.3-.4 2.6-.9 3.9-1.4.6-.3 1.3-.5 1.9-.9.3-.2.6-.3.8-.7.2-.3.3-.6.5-.9.6-1.2 1.1-2.5 1.7-3.8.1-.3.3-.6.4-1 .1-.3.1-.7 0-1zm-14.9-8.2h.2c-.2.1-.4.2-.7.4.2-.2.4-.3.5-.4zm14.6 9.2c-.1.3-.2.6-.3 1-.5 1.3-1 2.6-1.6 3.8-.2.3-.3.6-.5.9-.2.2-.5.4-.8.6-.6.3-1.2.6-1.9.9-1.3.5-2.6.9-3.9 1.3-1.3.4-2.7.7-4 1-.7.1-1.3.3-2 .3-.3 0-.7.1-.9 0s-.6-.2-.8-.4c-1.1-.8-2-1.8-2.9-2.8-.9-1-1.7-2.1-2.5-3.2-.3-.5-.7-1-.9-1.4.1 0 .1-.1.1-.1.4-.5 5-7.3 7.3-9.9.4-.4.9-.7 1.4-1h1c1.4.1 3.5.4 5.7.7.5.1 1 .2 1.4.3.7.2 1.3.4 1.9.7.6.3 1.1.7 1.6 1.2.9 1 1.6 2.2 2.1 3.4.2.6.4 1.3.5 1.9 0 .1.1.5 0 .8z" fill="#000000" stroke-width="none" opacity="1" stroke="none"></path></g></g></g><g id="svga-group-eyes-right-move" transform="matrix(1,0,0,1,-2,0)"><g id="svga-group-eyes-right" transform="matrix(0.8999996000000001,0,0,0.8999996000000001,11.99004925700224,8.730034462234485)"><g id="svga-group-eyesback-right"><path id="SvgjsPath75550" d="M119.8 74.2c7.5 0 13.5 5.8 13.5 13s-6 13-13.5 13-13.5-5.8-13.5-13 6-13 13.5-13z" fill="#ffffff" stroke-width="none" opacity="1"></path></g><g id="svga-group-eyesiriswrapper-right" transform="matrix(1,0,0,1,0,0)"><g id="svga-group-eyesiriscontrol-right" transform="matrix(1,0,0,1,0,0)"><g id="svga-group-eyesiris-right"><path id="SvgjsPath75629" d="M119.8 82.3c2.7 0 4.9 2.2 4.9 4.9s-2.2 4.9-4.9 4.9-4.9-2.2-4.9-4.9 2.2-4.9 4.9-4.9z" fill="#4d0f0a" stroke-width="none" opacity="1"></path><path id="SvgjsPath75630" d="M119.8 84.6c1.4 0 2.6 1.2 2.6 2.6s-1.2 2.6-2.6 2.6-2.6-1.2-2.6-2.6 1.2-2.6 2.6-2.6z" fill="#000000" stroke-width="none" opacity="1"></path><path id="SvgjsPath75631" d="M119.2 85.1c-.2-.2-.3-.4-.5-.5-.2-.2-.4-.3-.7-.3-.2 0-.5.1-.7.3-.2.2-.3.4-.3.7 0 .2.1.5.3.7.2.2.4.3.5.5.2.2.4.3.7.3.2 0 .5-.1.7-.3.3-.5.3-1.1 0-1.4zm2.4 4.5c.8 0 .9-1.3 0-1.3-.8-.1-.8 1.3 0 1.3z" fill="#ffffff" stroke-width="none" opacity="1"></path></g></g></g><g id="svga-group-eyesfront-right"><path id="SvgjsPath75559" d="M119.8 73.7c-7.8 0-14.1 6.1-14.1 13.6s6.3 13.6 14.1 13.6 14.1-6.1 14.1-13.6-6.3-13.6-14.1-13.6zm4.5 22.3c-1.8.3-11-1.7-11.6-3-.6-1.2-1.4-4.1-1.7-5.1s1.2-5.4 4.4-6.5c3.2-1.1 8.9-.5 8.9-.5 2.5 1.6 7.5 9.2 7.1 10.1s-.5 3.8-7.1 5z" fill="#eabaa7" stroke-width="none" opacity="1" stroke="none"></path><path id="SvgjsPath75562" d="M134.1 92.3s-.8-.9-1.3-2.1c-.5-1.1-6.1-10.8-7.7-11.1-1.5-.2-12.8 1.3-12.8 1.3.6.4 2 .6 3.8.6-.2.1-.4.1-.6.2-.6.2-1.1.5-1.6.8-1 .7-1.7 1.8-2.2 2.8-.3.5-.5 1.1-.6 1.7-.1.3-.1.6-.2.9v.5c0 .2.1.3.1.4.3 1.1.7 2.2 1.1 3.4.1.3.2.6.3.8.1.1.1.3.2.4.1.2.2.3.3.4.5.4 1.1.6 1.6.8 1.1.4 2.2.8 3.4 1.1s2.3.6 3.5.8c.6.1 1.2.2 1.8.2.3 0 .6.1.9 0 .3 0 .6-.1.9-.1 1.2-.2 2.3-.5 3.4-1.1 1.1-.5 2.1-1.3 2.8-2.3.2-.3.3-.6.4-.8 0-.1.1-.2.1-.3.8.4 2.4.7 2.4.7zM125 81.4c-.2-.1-.3-.2-.5-.3h.2c0 .1.2.2.3.3zm6 10.3c-.1.3-.2.5-.4.8-.6 1-1.5 1.6-2.5 2.1s-2.2.8-3.3 1.1c-.3.1-.6.1-.8.2h-.8c-.6 0-1.2-.1-1.7-.2-1.2-.2-2.3-.4-3.5-.6-1.1-.3-2.3-.5-3.4-.9-.5-.2-1.1-.4-1.6-.7l-.3-.3c-.1-.1-.1-.3-.2-.4-.1-.3-.2-.6-.3-.8-.4-1.1-.7-2.2-1-3.4l-.1-.4v-.4c0-.3.1-.6.2-.8.2-.6.4-1.1.7-1.6.5-1 1.2-1.9 2.1-2.7.9-.7 2-1 3.2-1.2.5-.1.9-.1 1.4-.2 1.7 0 3.3-.1 4.4-.1h1.3c.4.3.8.7 1.2 1.1 1.8 2.4 5.2 8.6 5.5 9.1 0 .1.1.1.1.1-.1 0-.1.1-.2.2z" fill="#000000" stroke-width="none" opacity="1" stroke="none"></path></g></g></g><g id="svga-group-facehighlight-single"></g><g id="svga-group-eyebrows-left-move" transform="matrix(1,0,0,1,0,0)"><g id="svga-group-eyebrows-left-rotate" transform="matrix(1,1.7453292519943295e-9,-1.7453292519943295e-9,1,1.2669256932440476e-7,-1.3795119002679712e-7)"><g id="svga-group-eyebrows-left"><path id="SvgjsPath75475" d="M67.87 76.23s1.96-4.66 6.27-6.5c4.32-1.84 16.59 1.19 15.86 4.07-.73 2.87-4.1 1.64-6.44.58s-7.93-6.39-15.69 1.85z" fill="#2a232b" stroke-width="none" opacity="1"></path><path id="SvgjsPath75476" d="M90.03 72.96c-.29-.52-.75-.86-1.2-1.16-.47-.29-.96-.54-1.45-.76-1-.43-2.04-.76-3.09-1.05-2.1-.56-4.25-.98-6.44-1.04-1.09-.01-2.21.05-3.28.38-1.06.38-2.02.95-2.87 1.64-.86.69-1.6 1.52-2.24 2.39-.33.44-.62.9-.89 1.37-.14.24-.26.48-.38.72-.06.12-.12.24-.17.37l-.08.19-.04.09-.02.05c-.01.03-.01.06-.01.08.19-.18.4-.35.61-.55.21-.21.41-.36.62-.55.2-.18.41-.35.62-.51.21-.17.42-.34.64-.49.87-.63 1.8-1.17 2.79-1.56a8.6 8.6 0 0 1 3.08-.63c.53 0 1.05.05 1.57.13.52.09 1.03.24 1.52.42 1 .35 1.93.86 2.87 1.4.47.27.94.56 1.46.78.5.22 1.01.43 1.53.6.52.18 1.05.34 1.61.42.55.09 1.13.12 1.7-.03.28-.07.56-.19.8-.37s.43-.41.58-.66c.14-.25.24-.53.31-.8.03-.15.04-.31.02-.46-.05-.13-.1-.28-.17-.41zm-.18.81c-.07.25-.17.49-.3.7-.26.43-.69.72-1.17.82-.49.11-1.01.07-1.53-.02-.51-.1-1.02-.25-1.52-.43s-.99-.39-1.48-.61c-.48-.21-.93-.49-1.4-.77-.93-.56-1.91-1.09-2.95-1.46-1.05-.37-2.17-.57-3.28-.53-1.11.05-2.22.31-3.22.75-1.01.44-1.94 1.04-2.79 1.72-.22.17-.42.34-.62.53-.21.18-.41.36-.6.56-.19.19-.4.38-.56.57-.17.19-.33.4-.53.61 1.02-1.85 2.36-3.63 4.05-4.92.84-.64 1.78-1.18 2.76-1.52 1-.29 2.08-.37 3.15-.39 1.07-.01 2.15.05 3.22.18 1.07.13 2.13.32 3.18.59 1.05.27 2.07.61 3.05 1.06.49.22.97.47 1.41.78.43.3.85.66 1.08 1.1a1 1 0 0 1 .05.68z" fill="#1b141c" stroke-width="none" opacity="1"></path></g></g></g><g id="svga-group-eyebrows-right-move" transform="matrix(1,0,0,1,0,0)"><g id="svga-group-eyebrows-right-rotate" transform="matrix(1,1.7453292519943295e-9,-1.7453292519943295e-9,1,1.242377152266272e-7,-2.1219713630671322e-7)"><g id="svga-group-eyebrows-right"><path id="SvgjsPath75477" d="M132.8 72.8s-2.65-4.3-7.2-5.46c-4.55-1.16-16.21 3.72-15.05 6.45s4.3.99 6.45-.41c2.16-1.41 6.87-7.53 15.8-.58z" fill="#2a232b" stroke-width="none" opacity="1"></path><path id="SvgjsPath75478" d="m132.8 72.74-.03-.05-.05-.09-.11-.17c-.07-.12-.15-.23-.23-.34-.16-.22-.32-.44-.49-.65-.34-.43-.7-.84-1.09-1.22-.78-.77-1.63-1.47-2.58-2.02-.95-.56-1.98-.97-3.09-1.18-1.11-.16-2.22-.06-3.3.13-2.16.39-4.22 1.13-6.2 2.01-.99.45-1.97.93-2.89 1.51-.46.29-.91.61-1.32.97-.41.37-.81.77-1.01 1.33-.05.14-.08.29-.08.44 0 .15.03.31.09.45.11.26.25.51.43.74.18.23.41.43.67.57.26.14.56.22.85.24.59.06 1.15-.06 1.68-.23s1.04-.41 1.52-.66c.49-.26.96-.54 1.42-.83.48-.29.9-.66 1.32-.99.84-.68 1.68-1.33 2.62-1.83.46-.25.94-.48 1.44-.64.5-.17 1.01-.29 1.53-.37 1.04-.14 2.11-.1 3.14.15 1.03.24 2.04.62 3 1.11.24.12.47.25.71.38s.47.26.7.41c.23.15.45.27.69.45.24.16.48.3.69.45-.01-.01-.01-.05-.03-.07zm-.63-.48c-.19-.16-.43-.32-.64-.48-.22-.16-.44-.31-.67-.46-.23-.15-.46-.3-.7-.43-.95-.54-1.95-1-3.02-1.28a8.942 8.942 0 0 0-3.3-.25c-1.11.13-2.18.5-3.16 1.03-.98.52-1.86 1.2-2.7 1.89-.42.35-.82.7-1.26.98-.45.3-.9.58-1.37.83-.47.26-.95.49-1.44.66-.49.17-1.01.29-1.5.26-.5-.03-.96-.25-1.29-.63-.16-.19-.3-.41-.41-.65-.1-.21-.1-.45-.03-.69.15-.48.51-.89.89-1.26.39-.37.82-.69 1.27-.98.9-.59 1.86-1.09 2.86-1.51.99-.42 2.02-.78 3.05-1.07 1.04-.29 2.09-.52 3.15-.68 1.06-.15 2.13-.24 3.17-.1 1.02.18 2.04.57 2.96 1.08 1.87 1.02 3.47 2.57 4.76 4.24-.23-.16-.42-.34-.62-.5z" fill="#1b141c" stroke-width="none" opacity="1"></path></g></g></g><g id="svga-group-beardwrap"><g id="svga-group-beard-single-move" transform="matrix(1,0,0,1,0,0)"><g id="svga-group-beard-single" transform="matrix(0.8499994000000002,0,0,0.8499994000000002,0,0)"></g></g></g><g id="svga-group-mustache-single-move" transform="matrix(1,0,0,1,0,0)"><g id="svga-group-mustache-single"><path id="SvgjsPath75705" d="M98.2 116.3c.9 0 1 2.9.2 3.4s-19.8-1.6-19.5-2.6c.3-1.1 10.8-1.3 12.3-1.4 1.4-.1 7 .6 7 .6zm3.5.1c-.8.5-.6 3.4 0 3.4.7 0 18.1-1.5 19.5-1.8s-10.4-1.8-12.2-1.8-6.7-.2-7.3.2z" fill="#2a232b" stroke-width="none" opacity="1"></path><path id="SvgjsPath75706" d="M98.7 116.7c-.1-.2-.3-.4-.5-.4-1.8-.2-3.6-.6-5.4-.9-.4-.1-.9-.1-1.4-.2H90c-.9 0-1.8 0-2.7.1-1.8.1-3.6.2-5.4.5-.9.1-1.8.3-2.7.6-.1.1-.2.1-.4.2-.1 0-.1.1-.2.2s-.2.2-.1.5c.2.3.3.3.4.4.1.1.2.1.3.1.5.1.9.2 1.4.3l5.4.8c1.8.3 3.6.7 5.4.9 1.8.2 3.6.3 5.4.3.5 0 .9 0 1.4-.1.3-.1.5-.3.6-.5.1-.2.2-.5.2-.7.1-.5.1-.9 0-1.4-.1-.3-.2-.5-.3-.7zm.1 2c-.1.4-.3.9-.6.9-.4 0-.9 0-1.3-.1-1-.1-2-.2-3.1-.4l.1-.1c1-.6 2-1.1 3-1.7v1.5l.2-1.7v-.1l-.1.1c-.9.4-1.9.9-2.8 1.4l.6-1.4.2-.4-.4.2-3.2 1.1.3-1 .1-.5-.4.2-2.5.9v-1l-.3.1-2.5.7c0-.1.1-.2.1-.3v-.2s0-.1-.1-.1h-.4c-.4.1-.7.1-1.1.2-.7.1-1.4.2-2.2.4l2.2-.2 1.1-.1h.2c0 .2-.1.3-.2.5l-.1.3.3-.1 2.5-.6v1.1l.3-.1 2.4-.9-.3 1-.1.4.4-.2 3.2-1.2-.5 1.4-.1.3c-.7-.1-1.4-.2-2.1-.2-1.8-.1-3.6-.2-5.4-.4-1.8-.2-3.6-.5-5.3-1-.4-.1-.9-.2-1.3-.4-.1 0-.1 0-.1-.1h.1c.8-.2 1.7-.3 2.6-.4 1.8-.2 3.6-.2 5.4-.3l2.7-.2c.9-.1 1.8-.1 2.7-.1 1.8 0 3.6 0 5.4.2.2 0 .3.2.4.4.1.2.2.4.2.6-.1.7-.1 1.2-.2 1.6zm22.8-.8c0-.1-.1-.1-.1-.2-.2-.2-.2-.1-.3-.2-.2-.1-.5-.2-.7-.2l-2.7-.6c-1.8-.3-3.6-.6-5.4-.8-.9-.1-1.8-.2-2.7-.2-.9-.1-1.8 0-2.7.1l-2.7.2-1.3.1c-.4.1-.9 0-1.3.2-.4.3-.5.8-.6 1.2-.1.4-.1.9 0 1.4 0 .2.1.5.2.7.1.1.1.3.3.3H103.4c1.8 0 3.6-.1 5.4-.3 1.8-.2 3.6-.5 5.4-.7 1.8-.2 3.6-.3 5.4-.4l1.4-.1h.4c.1 0 .1 0 .2-.1h.1c.1 0 .1-.1.1-.1-.2-.1-.1-.2-.2-.3zm-2.2.1c-1.8.3-3.6.5-5.4.6-1.8.1-3.6.1-5.4.2-1.2.1-2.5.2-3.7.3v-.2l.2-1.6 1.5 1.2.3.2.1-.4.1-1c.6.4 1.1.8 1.7 1.1l.3.2.1-.3.2-.9 1.8.9.2.1.1-.2.2-.6 1.5.8.1.1.1-.1.4-.5 1 .3h.1l.1-.1.2-.3 2.3.2-2.3-.4h-.1v.1l-.2.3-1-.4h-.1l-.1.1-.4.5-1.5-.9-.2-.1-.1.2-.2.6-1.8-1-.3-.2-.1.3-.2.9c-.6-.4-1.2-.8-1.7-1.1l-.3-.2-.1.4-.1 1-1.5-1.1-.3-.2v.4l-.1 1.7-2.1-1.5-.1-.1v.1l-.1 1.4.2-1.3 2.1 1.8.1.1c-.5.1-1 .1-1.5.2l-1.3.2h-.3s-.1 0-.1-.1c-.1-.2-.2-.4-.2-.6-.1-.4-.1-.9-.1-1.3s.1-.9.5-1.2c.8-.2 1.8-.2 2.7-.1.9.1 1.8.1 2.7.2.9.1 1.8.1 2.7.2l2.7.3 5.3.7c.6.1 1.2.2 1.9.3l-.5-.2z" fill="#1b141c" stroke-width="none" opacity="1"></path></g></g><g id="svga-group-nose-single-move" transform="matrix(1,0,0,1,0,0)"><g id="svga-group-nose-single"><path id="SvgjsPath75661" d="M102.57 86.18s5.53 21.64 5.89 25.72-1.08 4.45-2.64 3.73c-1.56-.72-2.16 1.2-3.01 3.85-.84 2.64-2.4 3.25-3.49 2.4s-2.28-7.33-3.61-6.49c-1.32.84-3.25 1.8-4.09 0S98 81.14 98 81.14s2.06-5.58 4.57 5.04z" fill="url(#SvgjsLinearGradient75662)" opacity="1"></path><path id="SvgjsPath75669" d="m102.57 86.18 2.79 10.95c.92 3.65 1.86 7.3 2.69 10.98.2.92.4 1.85.57 2.78.15.95.27 1.9.2 2.89-.03.49-.11 1-.33 1.5-.12.25-.28.5-.52.69-.24.2-.55.31-.84.34-.59.06-1.13-.15-1.55-.33-.37-.14-.61-.1-.86.15s-.46.65-.63 1.06c-.17.41-.32.85-.47 1.29l-.43 1.35c-.15.47-.36.94-.63 1.38-.27.44-.62.87-1.11 1.19-.48.32-1.18.48-1.78.26-.15-.04-.29-.12-.43-.19-.13-.09-.25-.15-.39-.3-.24-.26-.35-.48-.48-.71-.23-.46-.41-.91-.58-1.35-.34-.89-.64-1.78-.98-2.63-.17-.42-.36-.84-.57-1.2-.1-.17-.23-.34-.31-.4-.04-.04-.05-.02 0-.02.02 0 .04-.01.05-.01h-.01l-.08.05c-.41.26-.85.5-1.32.7-.47.19-1 .36-1.6.34-.3-.01-.62-.09-.9-.25-.29-.16-.51-.39-.68-.63-.09-.12-.16-.25-.22-.37a.955.955 0 0 1-.1-.29c-.01-.08-.03-.17-.03-.24-.02-.29 0-.53.01-.78.16-1.94.51-3.78.84-5.64.35-1.86.73-3.7 1.12-5.55 1.55-7.38 3.29-14.71 4.95-22.06.15-.38.35-.74.62-1.04.25-.3.68-.54 1.09-.38.39.15.66.48.88.81.23.34.41.7.57 1.06.67 1.48 1.07 3.04 1.45 4.6zm0 0c-.38-1.56-.8-3.13-1.45-4.6-.17-.37-.35-.72-.58-1.06-.23-.32-.5-.65-.87-.79-.39-.15-.79.08-1.05.38s-.46.66-.6 1.03c-.78 3.68-1.53 7.38-2.24 11.07-.71 3.7-1.41 7.4-2.06 11.11-.33 1.85-.64 3.71-.93 5.56-.28 1.85-.6 3.72-.71 5.55-.01.22-.02.45 0 .63 0 .05.01.07.02.11.01 0-.01-.02.02.04.04.08.09.16.14.23.21.28.45.42.79.44.7.02 1.55-.42 2.3-.9l.07-.05c.04-.02.1-.06.15-.08a.97.97 0 0 1 .39-.08c.28.01.5.13.64.24.28.23.43.47.57.69.27.45.46.9.64 1.35.36.9.65 1.79.97 2.66.16.43.33.86.52 1.25.09.19.21.38.29.46.01.02.11.08.17.13.07.03.14.08.22.1.29.1.61.05.92-.14.31-.19.58-.5.81-.85.47-.7.68-1.6 1.01-2.51.16-.45.32-.9.53-1.36.21-.45.44-.91.87-1.32.21-.2.51-.37.85-.42.33-.04.65.03.9.14.43.21.81.34 1.17.32.7 0 1.03-.94 1.1-1.82.16-1.81-.25-3.67-.58-5.51-1.42-7.35-3.15-14.69-4.99-22z" fill="#bc6d4e" stroke-width="none" opacity="1" stroke="none"></path></g></g><g id="svga-group-hair-front"><path id="SvgjsPath75718" d="M58.02 71.24s1.85 1.66 2.59 3.33c.74 1.66 0 4.62.55 4.99.55.37 2.4-4.99 2.4-4.99l1.29-21.45 16.09-14.98 6.66 7.21s17.01.92 25.34.55l7.03-5.18 15.54 13.32.55 20.71 2.4 4.62s.74-5.18 1.11-5.92c.37-.74 2.03-2.59 2.03-2.59s1.48-13.5.74-17.38-5.55-13.69-14.24-20.16-35.69-5.55-40.5-5.18c-4.81.37-15.17 3.51-15.17 3.51l.92 1.29-2.59 1.11-.37 1.48s-5.36 3.33-7.4 5.73-3.88 7.03-4.44 10.91-.53 19.07-.53 19.07z" fill="#2a232b" stroke-width="none" opacity="1" stroke="none"></path><path id="SvgjsPath75719" d="M58.07 71.22c.89.82 1.77 1.77 2.4 2.86.69 1.12.63 2.47.62 3.7 0 .31-.01.62 0 .93.01.15.02.3.05.44.01.14.12.27.1.26-.06.02.12-.1.17-.22.08-.12.16-.25.23-.38.14-.27.27-.55.4-.83.49-1.14.91-2.31 1.31-3.49l-.01.06 1.15-21.46.01-.15.11-.11L80.66 37.8l.33-.3.3.33 6.65 7.22-.29-.14c4.21.23 8.43.4 12.65.56 4.22.14 8.44.26 12.65.14l-.16.06 7.07-5.12.14-.1.13.11 15.49 13.37.05.04v.07l.64 20.71-.03-.1 2.42 4.61-.49.08c.22-1.54.45-3.08.75-4.62.08-.39.15-.77.28-1.17.16-.46.42-.75.65-1.08.48-.63.98-1.23 1.5-1.82l-.08.17c.4-4.12.74-8.25.84-12.37.01-2.06.12-4.14-.5-6.04-.6-1.93-1.51-3.79-2.5-5.58-2-3.58-4.5-6.89-7.42-9.75-1.46-1.42-3.02-2.82-4.72-3.86-1.67-1.1-3.65-1.71-5.58-2.32-3.95-1.06-8.05-1.62-12.16-2-4.11-.36-8.24-.51-12.38-.52-2.07 0-4.13.02-6.2.1-1.03.04-2.06.09-3.08.16-1 .09-2.01.25-3.02.42-4.04.76-8.05 1.84-12.02 2.98l.22-.63.92 1.3.29.41-.46.19-2.6 1.09.22-.26-.38 1.48-.04.15-.13.08c-1.41.88-2.81 1.82-4.15 2.81-1.32 1.01-2.66 2.04-3.63 3.34-1.92 2.68-3.12 5.89-3.82 9.12-.35 1.62-.4 3.3-.51 4.98-.09 1.68-.16 3.36-.21 5.04-.1 3.36-.17 6.76-.22 10.08zm-.09.04c-.04-3.4-.04-6.74-.01-10.11.02-1.68.05-3.36.1-5.05.08-1.68.12-3.38.45-5.05.32-1.67.81-3.3 1.43-4.88.63-1.57 1.37-3.12 2.39-4.52 1.03-1.42 2.4-2.47 3.72-3.52 1.35-1.03 2.74-1.99 4.17-2.9l-.17.23.36-1.48.04-.18.18-.08 2.58-1.13-.17.6-.93-1.29-.34-.47.55-.17c3.98-1.2 7.98-2.32 12.08-3.15 1.03-.19 2.06-.38 3.13-.47 1.05-.08 2.09-.13 3.12-.17 2.08-.08 4.16-.11 6.24-.11 4.16 0 8.32.14 12.47.5 4.15.37 8.3.92 12.35 2.04 2 .65 4.03 1.28 5.84 2.47 1.82 1.13 3.36 2.54 4.87 4.01 2.98 2.95 5.51 6.34 7.53 10.01 1 1.84 1.9 3.74 2.51 5.78.32 1.01.45 2.12.48 3.16.02 1.05.02 2.09-.02 3.13-.16 4.16-.54 8.29-.99 12.42l-.01.1-.07.07c-.51.57-1.02 1.16-1.49 1.76-.22.3-.48.62-.57.9-.11.34-.19.73-.27 1.1-.31 1.51-.55 3.05-.78 4.58l-.12.8-.37-.72-2.39-4.63-.03-.05v-.05l-.47-20.72.05.11-15.58-13.27.28.01-6.99 5.23-.07.05h-.09c-4.24.19-8.47.13-12.7.05-4.23-.08-8.45-.26-12.68-.46l-.17-.01-.12-.13-6.67-7.21.63.02-16.13 14.98.12-.25-1.45 21.44v.03l-.01.03c-.43 1.18-.88 2.35-1.41 3.49-.13.29-.27.57-.43.85-.08.14-.16.28-.26.41-.05.07-.1.13-.17.2-.06.05-.16.16-.36.13-.29-.15-.29-.36-.33-.52-.03-.17-.04-.33-.04-.49-.01-.32.01-.63.02-.95.03-1.23.12-2.53-.51-3.6-.59-1.08-1.41-2.01-2.32-2.9z" fill="#1b141c" stroke-width="none" opacity="1" stroke="none"></path></g><g id="svga-group-glasses-single-move" transform="matrix(1,0,0,1,0,0)"><g id="svga-group-glasses-single"></g></g></g></g></g><rect id="svga-credit-rect" width="200" height="15" x="0" y="185" fill="#ecf0f1" opacity="0.5" style="display: none;"></rect><text id="svga-credit-text" font-family="Avenir Next, Roboto, Helvetica, Arial, sans-serif" font-size="10px" text-anchor="start" font-weight="400" size="10px" anchor="start" weight="400" fill="#333333" x="33.40447998046875" y="182.60824704170227" style="display: none;"><tspan id="SvgjsTspan75469" dy="13" x="33.40447998046875">Created on AvatarMaker.com</tspan></text></g><defs id="SvgjsDefs75416"><linearGradient id="SvgjsLinearGradient75662" x1="100.0394" y1="79.6722" x2="100.0394" y2="122.2396" gradientUnits="userSpaceOnUse" class="svga-on-canvas-nose-gradient-single-0-null"><stop id="SvgjsStop75663" stop-opacity="0" stop-color="#f9d8cb" offset="0" ></stop><stop id="SvgjsStop75664" stop-opacity="0.9727" stop-color="#eabaa7" offset="0.7584" ></stop><stop id="SvgjsStop75665" stop-opacity="0.9769" stop-color="#e2ac96" offset="0.7953" ></stop><stop id="SvgjsStop75666" stop-opacity="0.9852" stop-color="#db9e86" offset="0.8691" ></stop><stop id="SvgjsStop75667" stop-opacity="0.9968" stop-color="#cb8568" offset="0.972" ></stop><stop id="SvgjsStop75668" stop-opacity="1" stop-color="#bc6d4e" offset="1" ></stop></linearGradient></defs></svg>