<svg xmlns="http://www.w3.org/2000/svg" version="1.1" width="600px" height="600px" viewBox="0 0 200 200" style="overflow:hidden!important;"><defs id="SvgjsDefs101177"><linearGradient id="SvgjsLinearGradient101807" x1="100.2671" y1="81.0612" x2="100.2671" y2="115.12" gradientUnits="userSpaceOnUse" class="svga-on-canvas-nose-gradient-single-0-null"><stop id="SvgjsStop101808" stop-opacity="0" stop-color="#e8b9a0" offset="0" ></stop><stop id="SvgjsStop101809" stop-opacity="1" stop-color="#d19271" offset="1" ></stop></linearGradient></defs><g id="svga-group-wrapper"><g id="svga-group-backs-single"></g><g id="svga-group-humanwrap-move" transform="matrix(1,0,0,1,0,0)"><g id="svga-group-humanwrap" transform="matrix(1,0,0,1,0,0)"><g id="svga-group-hair-back-move" transform="matrix(1,0,0,1,0,0)"><g id="svga-group-hair-back" transform="matrix(1,0,0,1,0,0)"></g></g><g id="svga-group-humanbody-back"><path id="SvgjsPath101576" d="M180.8 184.9c-2.3-3.4-38.9-17.8-38.9-17.8l-13.4-5.2-5.6-68.8H76.8L71.3 162l-13.4 5.2S21.4 181.6 19 185c-2.3 3.4-3.3 14.9-3.3 14.9V219h168.5v-19.2c-.1.1-1-11.5-3.4-14.9z" fill="#ffe7da" stroke-width="none" opacity="1" stroke="none"></path></g><g id="svga-group-chinshadow-single"><path id="SvgjsPath102957" d="M73 146.3c5.5 2.6 6.6 7.4 9 10.8 2.4 3.4 12.1 3.7 12.1 3.7s9.7-.2 12-3.6c2.4-3.4 3.4-8.2 9-10.8 2.87-1.36 7.58-3.19 11.72-5.63l-3.88-47.67H76.82l-4.22 53.02c.13.06.28.12.4.18z" fill="#e0ae93" stroke-width="none" opacity="1"></path></g><g id="svga-group-humanbody-front"><path id="SvgjsPath101577" d="M184.5 219c-.1-6.4-.1-12.8-.1-19.2l-.3-.1s.1-.1.2 0c.1 0 .1.1.1.1v-.4l-.1-.5-.1-.9-.2-1.9c-.2-1.3-.4-2.5-.6-3.8-.2-1.3-.5-2.5-.9-3.8-.4-1.2-.8-2.5-1.5-3.6-.8-.9-1.9-1.5-2.9-2.1-1-.6-2.1-1.1-3.2-1.7-2.1-1.1-4.3-2.1-6.5-3.1-4.4-2-8.7-3.9-13.1-5.7-4.4-1.9-8.8-3.7-13.2-5.5l-13-5.2-1.2-16.9c-.4-5.7-.9-11.5-1.3-17.2l-1.3-17.2-1.5-17.3-.1-.8h-.8c-7.7 0-15.4.1-23.1.1l-23.1.2h-.5v.5L75 110.2l-1.3 17.2c-.8 11.4-1.8 22.8-2.8 34.2-5.6 2.1-11.2 4.2-16.7 6.4-5.6 2.2-11.2 4.5-16.8 6.9-2.8 1.2-5.6 2.4-8.3 3.6-2.8 1.3-5.5 2.5-8.2 4.1-.7.4-1.3.8-2 1.4-.2.1-.4.4-.5.6l-.3.6c-.2.4-.4.7-.5 1.1-.6 1.5-1 3-1.3 4.5-.6 3-1.1 6-1.4 9.1l-.1 19.1v.9h.9l42.1.1H100c14 0 28.1-.1 42.1-.2l42.1-.5h.3v-.3zm-84.5-1-42.1-.1-41.2.1-.1-18.1c.3-3 .6-5.9 1.2-8.9.3-1.4.6-2.9 1.1-4.2.1-.3.3-.7.4-.9l.2-.4.3-.3c.5-.4 1.1-.8 1.8-1.2 2.5-1.5 5.3-2.8 8-4.1 2.7-1.3 5.5-2.5 8.2-3.7 5.5-2.4 11.1-4.8 16.7-7.1s11.2-4.5 16.9-6.7l.2-.1v-.2c.9-11.5 1.7-23 2.7-34.4l1.4-17.2 1.5-16.7 22.6.2c7.4.1 14.8.1 22.3.1l1.3 16.4 1.5 17.2c.5 5.7 1 11.5 1.5 17.2l1.6 17.2v.3l.3.1 13.4 5c4.4 1.7 8.9 3.4 13.3 5.2 4.4 1.8 8.8 3.7 13.2 5.6 2.2 1 4.3 2 6.5 3 1.1.5 2.1 1.1 3.2 1.6 1 .6 2.1 1.2 2.9 2 .7 1.1 1.1 2.3 1.4 3.5.3 1.2.6 2.5.8 3.7.2 1.3.4 2.5.6 3.8l.2 1.9.1.9.1.5v.4c0 6.3 0 12.6-.1 18.9l-41.8-.5c-14 .1-28.1 0-42.1 0z" fill="#d19574" stroke-width="none" opacity="1" stroke="none"></path><path id="SvgjsPath101578" d="M125.1 142.4s-1.8 23-9.1 32.9c0 0 7.9-25 9.1-32.9zm-34.5 16s5 7.9 11.5 10.1c0 0-9.5 2.2-11.5-10.1zM73.4 140c6.7 25.6 6.7 25.6 8.5 30.7 0 0 .4-12.6-8.5-30.7z" fill="#e0ae93" stroke-width="none" opacity="1" stroke="none"></path></g><g id="svga-group-clothes-single"><path id="SvgjsPath102545" d="m71.9 145.1-6.2 2.5-.7 14.1v20.2L79 220h42l10.7-34.3 3.4-25.5-1.7-14.2-5.4-.8-.3 9.2s-26.2 22.2-26.6 22.7-29.2-22.8-29.2-22.8v-9.2z" fill="#eaeaea" stroke-width="none" opacity="1"></path><path id="SvgjsPath102546" d="m127.8 155.4.8-.3 4.9-9-5.5-.9-.2 10.2zm-56.3-1.6h-.4l-5.2-6.1 6.3-2.6-.7 8.7z" fill="#c9c9c9" stroke-width="none" opacity="1"></path><path id="SvgjsPath102547" d="m44.6 168 1.1 1.7s-24.9 7.2-29 9c0 0-4.4-3.1-6 3.4-1.6 6.5-3.8 30.8-3.8 37.9h72s-8.7-29-14.1-59.9L44.6 168zm144.6 14.1c-1.6-6.5-6-3.4-6-3.4-4.1-1.9-29-9-29-9l1.1-1.7-20.3-7.8c-5.3 30.8-14 59.8-14 59.8h72c.1-7.2-2.2-31.4-3.8-37.9z" fill="#0e2e34" stroke-width="none" opacity="1" stroke="none"></path><path id="SvgjsPath102548" d="M89 180.6s4.9 12.4 6.4 15.4c0 0-2.8 17.1-2.9 23.8h18s-2.5-20-3.1-24.1c0 0 4.4-11 5.7-13.9 0 0-2.7-3.4-3.8-3.6-1.1-.2-8.7-.8-8.7-.8s-7.3.9-8.7 1.4c-1.4.4-2.9 1.8-2.9 1.8z" fill="#222222" stroke-width="none" opacity="1"></path><path id="SvgjsPath102549" d="M106.9 196c-1.1.5-3.8 1.9-5.2 2.1h-.5c-1.6-.1-4.2-1.3-5.3-1.8v-.2c.6.1 1.6.2 2.9.5 1.7.4 6.5-.4 8.1-.7m-5.5 17.2c1.2 1.5 3.4 2.7 3.1 1-.2-1.7-3.3-15.8-3.4-16-.1.7-.9 13.5.3 15zm-2.8-17.3s-.1-8.9-.6-9.8c-.5-.9-1.7-.1-2.1 1.8-.5 2 2.3 7.6 2.7 8zm-1.8 15.8c.5 2.7 1.9-.4 2.1-3.6.2-3.2-1.1-10.6-1.1-10.6-.2.5-1.5 11.4-1 14.2zm7.4-27.7c-1-1.1-2.5 1.9-2.8 4-.4 2.1-.2 6.3-.2 7.8-.1 0 3.9-10.7 3-11.8zm3.2 6.8c.6-1.2-.6-2.2-1.5-1.7s-1.7 5.3-2.1 7.2c0 0 3-4.2 3.6-5.5zm-2.4 18.4c.5 1 1.9 2.2 2.1 1.5.2-.7-2.7-12.5-2.7-12.5s.1 10 .6 11z" fill="#000000" stroke-width="none" opacity="1"></path><path id="SvgjsPath102550" d="m192.7 208.3-.9-11.6c-.3-3.9-.7-7.8-1.3-11.6-.2-1-.3-1.9-.5-2.9s-.5-2-1.1-3c-.5-1-1.6-1.9-2.9-2.1-.6-.1-1.2 0-1.8.1-.4.1-.8.3-1.2.5-2.3-.9-4.6-1.6-6.8-2.4l-7.3-2.2c-4.6-1.4-9.1-2.7-13.7-3.9l.6-.9.5-.7-.8-.3c-3.5-1.3-7-2.5-10.4-3.8l-9.2-3.2c0-.1 0-.2.1-.4l-2.2-14.2-6-1.4s-.5 4.6-.5 9.7l-13.8 11c-2.2 1.9-4.5 3.8-6.7 5.8l-3.3 2.9-1.7 1.5-.8.8c-2.3-1.6-4.6-3.4-6.9-5.1l-7.1-5.4-14.6-11.4.1-9.8c-.5.5-6.2 2.5-6.8 3v.1l-.6 8.6-.3 4-10 3.5c-3.4 1.2-6.9 2.5-10.4 3.8l-.8.3.5.7.6.9c-4.6 1.2-9.2 2.5-13.7 3.9l-7.3 2.2c-2.3.8-4.5 1.4-6.9 2.4-.4-.2-.7-.4-1.1-.5-.6-.2-1.2-.2-1.8-.1-1.3.2-2.3 1.1-2.8 2-.6 1-.9 2-1.1 3-.2 1-.3 2-.5 2.9-.5 3.9-.9 7.8-1.3 11.6l-.9 11.6c-.3 3.9-.6 7.8-.7 11.7v.3h.3c6 0 12 .1 18 .2l18 .3 18.1.3h78l18-.1c6-.1 12-.1 18-.3 6-.1 12-.2 18-.2h.4v-.4c-.1-3.9-.4-7.8-.7-11.7zm-88.1-33 3.4-2.9 6.8-5.7 13.6-11.5.2-.2-.4-9.6c1.8.4 3.6.8 5 1.1l1.1 13.6-1.1 8.5-1.4 6.4c-1.1 5-2.4 10-3.6 14.9-.7 2.9-1.5 5.9-2.3 8.8-.3-.8-.6-1.6-1-2.4-.3-.7-.6-1.4-1-2.1-.3-.7-.8-1.4-1.2-2-1.8-2.6-3.6-5-5.5-7.4-1-1.2-2-2.4-3-3.5-1.1-1.1-2.1-2.3-3.5-3.3-.3-.2-.7-.5-1.1-.7-.2-.1-.5-.2-.8-.3-.3-.1-.4 0-.6-.1l-2.3-.3-2.5-.3 1.2-1zm-38.8-19.1.2-8.5 5.7-2.1-.6 8.2 1.4 1.6h.1c4.5 3.8 9.1 7.6 13.7 11.3 2.3 1.9 4.6 3.7 6.9 5.6 1.8 1.4 3.5 2.8 5.4 4.2l-2.1.3c-.8.1-1.5.2-2.3.4l-1.2.2c-.2.1-.3.1-.6.1-.3.1-.5.2-.7.3-1.6.9-2.7 2-3.8 3.1-1.1 1.1-2.1 2.3-3.2 3.5-2 2.4-3.9 4.9-5.7 7.4-.9 1.3-1.8 2.6-2.6 3.9-.7 1.1-1.4 2.2-2 3.3-.8-2.9-1.5-5.9-2.3-8.8-1.2-5-2.5-9.9-3.6-14.9l-1.7-7.5-1-4.7c-.2-2.4-.1-4.8 0-6.9zM7.3 219.6c0-3.8.3-7.5.6-11.3.3-3.9.7-7.7 1.2-11.6.5-3.9 1-7.7 1.7-11.5.4-1.9.7-3.9 1.6-5.3.5-.7 1-1.2 1.7-1.2.7-.1 1.5.2 2.1.6l.4.3.4-.2c.6 1.4 1.1 2.7 1.6 4.1.6 1.7 1.1 3.4 1.3 5.1.5 3.5.8 7 1.2 10.5l1.2 10.5.7 5.3.6 4.5c-5.3.1-10.8.2-16.3.2zM61 219l-18 .1c-6 .1-12 .1-18 .3h-1.1c-.1-3.3-.4-6.5-.6-9.8-.3-3.5-.6-7-1-10.6-.4-3.5-.8-7-1.5-10.5-.7-3.2-2-6.3-3.5-9.1 2.2-.9 4.6-1.6 7-2.4l7.2-2.3 14.5-4.5h.1c.3.3.5.6.8.9.8.8 1.6 1.6 2.5 2.3-1.2.6-2.5 1.2-3.7 1.9l-.7.3.3.7c1.6 3.7 3.3 7.4 5 11 1.7 3.7 3.5 7.3 5.2 10.9l5.4 10.8c1.7 3.3 3.4 6.5 5.2 9.7-1.7.3-3.4.3-5.1.3zm5.3 0c-1.3-3.5-2.8-6.9-4.2-10.3-1.6-3.7-3.2-7.4-4.9-11.1-1.7-3.7-3.4-7.3-5.1-11-1.6-3.4-3.3-6.8-5-10.2 2.3-1.4 4.6-2.7 6.9-4.1l7.5-4.7c-1.4.6-2.7 1.2-4 1.8l-4 1.9c-1.3.7-2.7 1.4-4 2-.6-1-1.3-1.9-2-2.8-.5-.7-1.1-1.3-1.6-2l-.3-.4c3-1.2 6.1-2.5 9.1-3.8l10-4.2c0 .5.4 2.5.7 3.7l.3 1.8.3 1.9c.4 2.5.8 5.1 1.3 7.6 1 5 1.9 10.1 3.1 15.1 2.1 9.6 4.5 19.1 7.2 28.5-3.8.2-7.5.3-11.3.3zm13.6.2c-1.4-4.7-2.7-9.5-4-14.3-.5-2-1.1-3.9-1.6-5.9 1.7-2.3 3.5-4.5 5.3-6.7 2-2.4 4-4.7 6.1-7 1-1.1 2.1-2.2 3.2-3.3l.1-.1c1.2 3.1 4.6 11.4 5.9 14.1-.3 1.7-2.7 16.8-2.9 23.3l-12.1-.1zm13.1.1c.2-6.6 2.7-21.7 2.9-23.2v-.1l-.1-.1c-1.2-2.5-4.9-11.7-6-14.5.8-.7 1.7-1.4 2.5-1.8.1-.1.3-.1.4-.1.1 0 .3-.1.5-.1l1.1-.2c.8-.1 1.5-.2 2.3-.3 1.5-.2 3-.3 4.5-.5l4.5.5 2.3.2c.2 0 .4 0 .5.1.1 0 .2 0 .3.1.3.1.5.3.8.5 1 .7 1.9 1.6 2.8 2.5-1.5 3.5-5.4 13.3-5.5 13.4v.2c.6 4 2.7 20.3 3.1 23.5l-16.9-.1zm18 .3c-.2-1.5-2.5-19.7-3.1-23.9.4-1.1 3.8-9.4 5.2-12.9 1 1 1.9 2 2.8 3 2 2.3 4 4.6 5.9 7 .5.6 1 1.2 1.4 1.8.4.6.8 1.3 1.1 2l1.3 2.5-1.5 5.7c-1.3 4.9-2.7 9.9-4.2 14.8-2.9.1-5.9.1-8.9 0zm11.4-.7c2.7-9.4 5.1-18.9 7.2-28.5 1.1-5 2.1-10.1 3.1-15.1.4-2 .7-4.1 1.1-6.1 1-2.8 1.8-5.7 2.2-8.7l9.3 3.9c3.1 1.3 6.1 2.5 9.1 3.8l-.3.4c-.6.6-1.1 1.3-1.6 2-.7.9-1.3 1.8-1.9 2.8-1.3-.7-2.7-1.4-4-2l-4-1.9c-1.3-.6-2.7-1.3-4-1.8l7.5 4.7c2.3 1.4 4.6 2.8 6.9 4.1-1.7 3.4-3.4 6.8-5 10.2-1.8 3.6-3.4 7.3-5.1 11-1.7 3.7-3.3 7.4-4.9 11.1-1.5 3.4-2.9 6.8-4.2 10.3-3.9-.1-7.6-.2-11.4-.2zm52.6.5-18-.3-18-.1h-5.2c1.8-3.2 3.5-6.5 5.2-9.7 1.9-3.6 3.7-7.2 5.4-10.8 1.8-3.6 3.5-7.3 5.2-10.9 1.7-3.7 3.4-7.3 5-11l.3-.7-.7-.3c-1.2-.6-2.5-1.3-3.7-1.9.9-.7 1.7-1.5 2.5-2.3.3-.3.5-.6.8-.9h.1l14.5 4.5 7.2 2.3c2.4.8 4.8 1.5 7 2.4-1.6 2.8-2.9 5.9-3.5 9.1-.7 3.5-1.1 7-1.5 10.5-.4 3.5-.8 7-1 10.6-.2 3.3-.5 6.5-.6 9.8-.2-.3-.6-.3-1-.3zm1.2 0 .6-4.5.7-5.3c.5-3.5.8-7 1.2-10.5l1.2-10.5c.2-1.7.7-3.4 1.3-5.1.5-1.4 1-2.8 1.6-4.1l.4.2.4-.3c.6-.4 1.5-.7 2.1-.6.7.1 1.3.5 1.7 1.2.9 1.4 1.2 3.4 1.6 5.3.7 3.8 1.2 7.6 1.7 11.5.5 3.8.9 7.7 1.2 11.6.3 3.8.6 7.5.6 11.3-5.3 0-10.8-.1-16.3-.2z" fill="#011215" stroke-width="none" opacity="1" stroke="none"></path><path id="SvgjsPath102551" d="M111 174.5c3.5.2 9.7 9.1 9.7 9.1s8.9-15.3 9.7-19c.8-3.6 2-14.2 2-14.2s-3 9.7-3.8 11.1-17.6 13-17.6 13zm-33.5 15c2-3.5 8.4-11.7 9.9-12.5 1.5-.8 7.6-1.6 7.6-1.6l-15-10.9s2.1 8.2 2.1 10.1-4.6 14.9-4.6 14.9z" fill="#ffffff" stroke-width="none" opacity="1"></path><path id="SvgjsPath102552" d="M184.7 180.9c2.3.8 3.3 6.6 4.1 9.7.8 3.1 2.3 25.1 2.3 25.1s-3.1-25.1-4.6-28.7c-1.5-3.6-1.8-6.1-1.8-6.1zM155 172c1.5-.2 21.9 5.8 25.7 8.2 0 0-10.6-2.3-15.3-3.6-4.8-1.3-10.4-4.6-10.4-4.6zm-16.3-2.6c1 .5 13 7.8 13 7.8s-11.7 24.1-12.9 27.1-5.4 11.7-5.4 11.7 6.1-16.8 7.8-22.6c1.6-5.8 6.1-15.7 6.1-15.7l-8.6-8.3zm-74.2-2.8c.5 5.3 7.8 40.6 10.9 47.8 0 0-6.6-15.3-9.7-29.5-3.2-14.2-1.2-18.3-1.2-18.3z" fill="#193d43" stroke-width="none" opacity="1" stroke="none"></path></g><g id="svga-group-head" transform="matrix(1,0,0,1,0,0)"><g id="svga-group-ears-left-move" transform="matrix(1,0,0,1,0,1)"><g id="svga-group-ears-left" transform="matrix(1.0500001,0,0,1.0500001,-2.950053679178815,-4.333538330145274)"><path id="SvgjsPath102123" d="M64.76 80.15s-6.05-5.71-11.65-8.37c0 0-2.9.43-6.25 3.44 0 0 2.32 4.96 4.4 7.42 2.07 2.46 5.01 10.72 5.25 13.08.24 2.36-.73 6.67-.59 8.06.14 1.39 3.24 1.5 3.24 1.5s5.71-3.24 9.27-8.23c0-.01-1.08-9.31-3.67-16.9z" fill="#ffe7da" stroke-width="none" opacity="1" stroke="none"></path><path id="SvgjsPath102124" d="M65.07 87.27c.04-.28-8.52-10.28-14.7-11.44 0 0 1.73 5.62 2.89 7.46s4.94 11 4.61 15.67c0 0 3.96-2.27 6.18-4.1 0 0 .54-4.33 1.02-7.59z" fill="#f0cab5" stroke-width="none" opacity="1" stroke="none"></path><path id="SvgjsPath102125" d="m46.65 74.98-.18.16.11.21c.65 1.31 1.35 2.58 2.1 3.83s1.55 2.47 2.5 3.58c.88 1.11 1.53 2.42 2.14 3.72.59 1.32 1.11 2.67 1.59 4.03.46 1.37.89 2.75 1.2 4.15.35 1.38.16 2.81 0 4.24-.16 1.43-.44 2.84-.54 4.34-.01.19-.01.38.01.59.04.25.13.49.28.67.3.37.68.56 1.04.71.74.28 1.48.39 2.24.44l.1.01.1-.06c1.83-1.07 3.53-2.3 5.11-3.7.8-.69 1.55-1.43 2.27-2.2.73-.77 1.38-1.6 2.01-2.45l.09-.12-.02-.15c-.4-2.88-.92-5.72-1.56-8.54-.32-1.41-.69-2.81-1.08-4.2-.41-1.39-.87-2.76-1.37-4.12-.86-.87-1.74-1.67-2.64-2.46-.9-.8-1.84-1.55-2.79-2.29-1.91-1.47-3.93-2.81-6.11-3.89l-.09-.04-.1.02c-.65.12-1.22.31-1.8.54-.57.23-1.13.5-1.66.81-.53.31-1.05.64-1.54 1.01-.49.36-.96.75-1.41 1.16zm.6.32c.39-.33.79-.66 1.2-.95.48-.35.98-.66 1.48-.95.52-.28 1.04-.55 1.58-.77.51-.21 1.04-.39 1.55-.5 1.03.5 2.04 1.06 3.02 1.66 1 .64 2.01 1.28 2.98 1.98.98.69 1.92 1.42 2.87 2.15.94.73 1.88 1.5 2.78 2.26a65.5 65.5 0 0 1 1.1 4.17c.33 1.4.64 2.81.9 4.22.52 2.77.98 5.57 1.3 8.37-.59.78-1.2 1.54-1.87 2.24-.71.74-1.44 1.46-2.23 2.13-1.53 1.31-3.16 2.54-4.87 3.58-.64-.04-1.32-.14-1.9-.35-.3-.12-.59-.27-.75-.47-.08-.1-.12-.2-.14-.31-.01-.15-.02-.32-.01-.49.06-1.4.29-2.85.43-4.29.12-1.43.25-2.96-.17-4.4-.37-1.42-.84-2.79-1.35-4.15a54.07 54.07 0 0 0-1.65-4.03c-.6-1.32-1.22-2.64-2.12-3.82-.9-1.12-1.63-2.37-2.32-3.63-.64-1.2-1.24-2.42-1.81-3.65z" fill="#f0cab5" stroke-width="none" opacity="1" stroke="none"></path><path id="SvgjsPath102126" d="M55.9 80.14c.92.98 1.71 2.06 2.44 3.17.74 1.11 1.44 2.24 2.05 3.42.63 1.17 1.22 2.36 1.71 3.59l-.07.03c-.67-1.14-1.37-2.27-2.06-3.38-.72-1.11-1.41-2.23-2.18-3.29-.77-1.07-1.53-2.13-2.37-3.14-.69-.85-1.43-1.67-2.27-2.37l1.72 3.94c.67 1.51 1.31 3.03 1.88 4.58a38.98 38.98 0 0 1 1.44 4.76c.26 1.14.48 2.31.53 3.5.14-.27.27-.55.38-.83.28-.73.44-1.5.5-2.28-.46-1.67-.91-3.34-1.32-5.02l.07-.02c.64 1.63 1.22 3.29 1.81 4.94l.01.04v.06c-.02.86-.15 1.71-.42 2.53-.13.41-.29.81-.47 1.19-.19.39-.4.75-.66 1.13l-.8 1.12.09-1.39c.1-1.57-.17-3.19-.49-4.78-.33-1.59-.77-3.17-1.25-4.73-.48-1.56-.99-3.13-1.57-4.67-.6-1.53-1.23-3.05-1.99-4.51l-.26-.5.49.31c1.16.7 2.14 1.63 3.06 2.6z" fill="#d19574" stroke-width="none" opacity="1" stroke="none"></path></g></g><g id="svga-group-ears-right-move" transform="matrix(1,0,0,1,0,1)"><g id="svga-group-ears-right" transform="matrix(1.0500001,0,0,1.0500001,-7.050870501248937,-4.334891405971533)"><path id="SvgjsPath102127" d="M135.24 80.15s6.05-5.71 11.65-8.37c0 0 2.9.43 6.25 3.44 0 0-2.32 4.96-4.4 7.42s-5.01 10.72-5.25 13.08c-.24 2.36.73 6.67.59 8.06-.14 1.39-3.24 1.5-3.24 1.5s-5.71-3.24-9.27-8.23c0-.01 1.08-9.31 3.67-16.9z" fill="#ffe7da" stroke-width="none" opacity="1" stroke="none"></path><path id="SvgjsPath102128" d="M134.93 87.27c-.04-.28 8.52-10.28 14.7-11.44 0 0-1.73 5.62-2.89 7.46s-4.94 11-4.61 15.67c0 0-3.96-2.27-6.18-4.1 0 0-.54-4.33-1.02-7.59z" fill="#f0cab5" stroke-width="none" opacity="1" stroke="none"></path><path id="SvgjsPath102129" d="M151.93 73.82c-.49-.37-1.01-.7-1.54-1.01-.53-.31-1.09-.58-1.66-.81-.58-.23-1.15-.42-1.8-.54l-.1-.02-.09.04c-2.18 1.08-4.2 2.42-6.11 3.89-.95.74-1.89 1.49-2.79 2.29-.9.8-1.79 1.59-2.64 2.46-.5 1.36-.96 2.74-1.37 4.12-.39 1.39-.76 2.79-1.08 4.2-.65 2.82-1.16 5.67-1.56 8.54l-.02.15.09.12c.63.85 1.29 1.68 2.01 2.45.72.77 1.48 1.51 2.27 2.2 1.58 1.39 3.28 2.62 5.11 3.7l.1.06.1-.01c.77-.05 1.5-.16 2.24-.44.36-.15.74-.34 1.04-.71.15-.18.25-.42.28-.67.02-.21.02-.41.01-.59-.1-1.5-.37-2.9-.54-4.34-.16-1.43-.35-2.86 0-4.24.31-1.4.74-2.78 1.2-4.15.48-1.36 1-2.71 1.59-4.03.61-1.3 1.26-2.61 2.14-3.72.94-1.12 1.75-2.34 2.5-3.58.75-1.25 1.45-2.52 2.1-3.83l.11-.21-.18-.16c-.44-.41-.91-.8-1.41-1.16zm-1.01 5.12c-.7 1.26-1.42 2.51-2.32 3.63-.9 1.18-1.52 2.5-2.12 3.82a54.07 54.07 0 0 0-1.65 4.03c-.51 1.36-.98 2.73-1.35 4.15-.42 1.44-.28 2.96-.17 4.4.13 1.44.37 2.9.43 4.29.01.17 0 .34-.01.49-.02.11-.06.21-.14.31-.16.2-.44.36-.75.47-.58.21-1.26.31-1.9.35-1.71-1.04-3.34-2.27-4.87-3.58-.78-.67-1.52-1.38-2.23-2.13-.68-.71-1.29-1.47-1.87-2.24.32-2.8.77-5.59 1.3-8.37.26-1.42.57-2.82.9-4.22.32-1.41.7-2.79 1.1-4.17.9-.76 1.84-1.53 2.78-2.26.95-.73 1.9-1.46 2.87-2.15.97-.69 1.98-1.34 2.98-1.98.98-.6 1.99-1.16 3.02-1.66.51.11 1.05.29 1.55.5.54.23 1.06.49 1.58.77.51.29 1.01.6 1.48.95.42.3.81.62 1.2.95-.55 1.24-1.15 2.46-1.81 3.65z" fill="#f0cab5" stroke-width="none" opacity="1" stroke="none"></path><path id="SvgjsPath102130" d="M144.1 80.14c-.92.98-1.71 2.06-2.44 3.17-.74 1.11-1.44 2.24-2.05 3.42-.63 1.17-1.22 2.36-1.71 3.59l.07.03c.67-1.14 1.37-2.27 2.06-3.38.72-1.11 1.41-2.23 2.18-3.29.77-1.07 1.53-2.13 2.37-3.14.69-.85 1.43-1.67 2.27-2.37l-1.72 3.94c-.67 1.51-1.31 3.03-1.88 4.58a38.98 38.98 0 0 0-1.44 4.76c-.26 1.14-.48 2.31-.53 3.5a8.84 8.84 0 0 1-.38-.83c-.28-.73-.44-1.5-.5-2.28.46-1.67.91-3.34 1.32-5.02l-.07-.02c-.64 1.63-1.22 3.29-1.81 4.94l-.01.04v.06c.02.86.15 1.71.42 2.53.13.41.29.81.47 1.19.19.39.4.75.66 1.13l.8 1.12-.09-1.39c-.1-1.57.17-3.19.49-4.78.33-1.59.77-3.17 1.25-4.73.48-1.56.99-3.13 1.57-4.67.6-1.53 1.23-3.05 1.99-4.51l.26-.5-.49.31c-1.16.7-2.14 1.63-3.06 2.6z" fill="#d19574" stroke-width="none" opacity="1" stroke="none"></path></g></g><g id="svga-group-faceshape-wrap" transform="matrix(1,0,0,1,0,0)"><g id="svga-group-faceshape-single"><path id="SvgjsPath102947" d="M139.24 94.99c-.76-8.02 1.89-33.13.68-40.1-2.2-10-6.11-15.74-15.01-20.54-9.3-5-25.03-4.86-25.03-4.86s-15.78-.22-25.08 4.78c-8.7 4.9-12.73 10.58-14.93 20.58-.9 4 0 13.7 0 13.7s1.78 19.58 1.18 26.68c-.5 7.1-.79 19.34 1.31 26.44s11.07 14.23 16.57 16.83 6.9 5.52 9.3 8.92 11.7 3.53 11.7 3.53 9.55-.31 11.95-3.71 3.47-6.12 9.07-8.72c5.5-2.6 14.75-9.62 16.85-16.72 2.2-7.2 1.94-19.61 1.44-26.81z" fill="#ffe7da" stroke-width="none" opacity="1"></path><path id="SvgjsPath102948" d="M139.92 54.89c-2.2-10-6.11-15.74-15.01-20.54-9.3-5-25.03-4.86-25.03-4.86s-15.78-.22-25.08 4.78c-8.7 4.9-12.73 10.58-14.93 20.58-.9 4 0 13.7 0 13.7s1.78 19.58 1.18 26.68c-.5 7.1-.79 19.34 1.31 26.44s11.07 14.23 16.57 16.83 6.9 5.52 9.3 8.92 11.7 3.53 11.7 3.53 9.55-.31 11.95-3.71c2.4-3.4 3.47-6.12 9.07-8.72 5.5-2.6 14.75-9.62 16.85-16.72 2.2-7.2 1.94-19.61 1.44-26.81-.76-8.02 1.89-33.13.68-40.1zm-.46 18.97-.36 10.56c-.1 3.52-.25 7.05.02 10.58.41 7.01.5 14.1-.51 21.04-.26 1.73-.61 3.45-1.11 5.1-.49 1.65-1.27 3.17-2.24 4.58-.96 1.42-2.12 2.71-3.35 3.92a37.24 37.24 0 0 1-3.93 3.38 45.341 45.341 0 0 1-4.29 2.89c-.74.44-1.5.84-2.25 1.23-.73.37-1.58.72-2.4 1.16-1.63.85-3.22 1.94-4.52 3.34-1.3 1.4-2.27 2.96-3.25 4.36l-.37.52c-.11.11-.21.22-.31.34-.09.12-.26.21-.39.32s-.27.21-.44.3c-.61.39-1.39.67-2.14.94-1.56.49-3.24.8-4.93 1-.84.1-1.7.17-2.54.22-.3.03-.76-.02-1.18-.04l-1.27-.1c-1.69-.17-3.37-.45-4.93-.92-.78-.23-1.52-.52-2.16-.89-.15-.09-.32-.18-.46-.28l-.39-.31c-.14-.1-.2-.22-.31-.33-.09-.08-.22-.26-.34-.44-.98-1.4-1.95-2.95-3.21-4.38-1.25-1.44-2.78-2.65-4.39-3.6-.79-.47-1.69-.9-2.43-1.26-.75-.36-1.49-.77-2.21-1.22-2.9-1.77-5.62-3.93-8-6.35-2.36-2.43-4.45-5.21-5.4-8.29-.93-3.23-1.29-6.71-1.52-10.17-.23-3.47-.25-6.97-.17-10.47.04-1.75.11-3.5.21-5.24.11-1.81.08-3.59.03-5.36-.12-3.55-.36-7.07-.63-10.59s-.59-7.03-.94-10.54c-.36-3.49-.59-7-.5-10.49.02-.87.09-1.74.19-2.59.12-.83.35-1.69.54-2.54.43-1.69.94-3.36 1.58-4.98 1.3-3.23 3.23-6.19 5.75-8.58 2.52-2.36 5.49-4.33 8.62-5.74 3.19-1.34 6.61-2.11 10.05-2.66 6.91-1.03 13.92-1.19 20.83-.35 3.46.38 6.89.97 10.21 1.86 1.67.43 3.27 1.01 4.84 1.66 1.51.7 3.05 1.48 4.49 2.42 2.88 1.82 5.46 4.07 7.4 6.84 1.95 2.76 3.26 5.97 4.22 9.3.13.41.22.83.34 1.25.11.42.23.83.27 1.24.14.81.2 1.68.26 2.55.1 1.74.13 3.49.13 5.24-.01 3.53-.11 7.05-.21 10.57z" fill="#d19574" stroke-width="none" opacity="1"></path></g></g><g id="svga-group-mouth-single-move" transform="matrix(1,0,0,1,0,-2)"><g id="svga-group-mouth-single" transform="matrix(1,0,0,1,0,0)"><path id="SvgjsPath101749" d="M114.32 126.8c-.74 1.7-1.79 3.4-4.63 2.9-2.1-.4-2.53-1.9-4.1-2.8-2.21-1.2-3.47 0-4.42 1.4-.21.5-2.25 2.18-4.15-.1-.54-.58-1.28-1.9-3.32-2.1-1.05-.1-1.89.2-2.63.8-.74.5-1.05 1.1-2.32 1.2-1.37.1-2.42-.6-3.26-1.4-.42-.4-1.37-.2-1.16.4.74 2.3 4.42 3.2 6.73 1.9 1.16-.6.87-1.1 2.55-1.2 1.58-.1 2.3.94 3.24 1.8.84.7 2.1 1 3.37.8 1.47-.3 1.58-1.3 2.63-2 2-1.4 4.31 1.4 6.1 1.9 2.84.8 6.73-.5 7.05-2.9.1-1-1.37-1.4-1.68-.6z" fill="#da7c87" stroke-width="none" opacity="1" stroke="none"></path></g></g><g id="svga-group-eyes-left-move" transform="matrix(1,0,0,1,0,1)"><g id="svga-group-eyes-left" transform="matrix(1,0,0,1,0,0)"><g id="svga-group-eyesback-left"><path id="SvgjsPath102461" d="M80.2 74.2c7.5 0 13.5 5.8 13.5 13s-6 13-13.5 13-13.5-5.8-13.5-13 6-13 13.5-13z" fill="#ffffff" stroke-width="none" opacity="1"></path></g><g id="svga-group-eyesiriswrapper-left" transform="matrix(1,0,0,1,0,0)"><g id="svga-group-eyesiriscontrol-left" transform="matrix(1,0,0,1,0,0)"><g id="svga-group-eyesiris-left" transform="matrix(1,0,0,1,0,0)"><path id="SvgjsPath102507" d="M80.2 81.6c3.1 0 5.6 2.5 5.6 5.6s-2.5 5.6-5.6 5.6-5.6-2.5-5.6-5.6 2.5-5.6 5.6-5.6z" fill="#4e60a3" stroke-width="none" opacity="1"></path><path id="SvgjsPath102508" d="M80.2 83.3c2.2 0 3.9 1.7 3.9 3.9s-1.7 3.9-3.9 3.9-3.9-1.7-3.9-3.9 1.7-3.9 3.9-3.9z" fill="#000000" stroke-width="none" opacity="1"></path><path id="SvgjsPath102509" d="m76.1 84.6 4.4 3.1-1.8-5.1c-.3-.4-2.5.8-2.6 2z" fill="#ffffff" stroke-width="none" opacity="1"></path></g></g></g><g id="svga-group-eyesfront-left"><path id="SvgjsPath102469" d="M80.2 73.68c-7.76 0-14.06 6.06-14.06 13.55s6.29 13.55 14.06 13.55 14.06-6.06 14.06-13.55-6.3-13.55-14.06-13.55zm1.43 21.93c-2.87.55-12.6-1.99-12.64-2.45-.04-.46 4.34-8.5 6.7-9.62s6.86-4.11 8.12-3.76c1.26.35 4.38 6.38 5.62 11.95 0-.01-4.93 3.33-7.8 3.88z" fill="#ffe7da" stroke-width="none" opacity="1" stroke="none"></path><path id="SvgjsPath102470" d="M84.67 98.44c-.98.87-6.07 2.75-6.07 2.75s3.78-.32 5.53-1.39c1.75-1.07 5.32-6.89 5.32-6.89s-3.8 4.66-4.78 5.53z" fill="#e0ae93" stroke-width="none" opacity="1" stroke="none"></path><path id="SvgjsPath102471" d="m88.76 83.77 2.52-4.55-3.52-.04-2.89-.75s-9.45 4.32-10.23 4.91c-.78.58-4.7 6.71-5.68 8.55-.98 1.84-.91 3.9-.91 3.9.19-.45.63-1.3 1.2-2.34.11.05.23.1.34.15 2.22.77 4.48 1.37 6.78 1.85 1.15.21 2.31.42 3.5.48.59.03 1.19.04 1.81-.07.59-.13 1.16-.32 1.71-.55 2.18-.94 4.15-2.17 6.07-3.56-.01-.03-.01-.06-.02-.1.28-2.35-.46-6.11-.68-7.88zm-5.54 11.11c-.54.21-1.08.38-1.63.49-.54.09-1.11.07-1.69.03-1.15-.09-2.3-.24-3.44-.44-1.15-.19-2.29-.4-3.43-.66-1.14-.25-2.27-.52-3.37-.91-.11-.04-.21-.08-.32-.13 1.77-3.21 4.72-8.09 5.79-8.95.91-.72 5.6-2.55 9-3.82.23.22.44.45.65.71.21.29.42.58.61.89.6.98 1.12 2.02 1.61 3.07.97 2.1 1.78 4.31 2.39 6.53-1.97 1.18-4.03 2.36-6.17 3.19z" fill="#000000" stroke-width="none" opacity="1" stroke="none"></path></g></g></g><g id="svga-group-eyes-right-move" transform="matrix(1,0,0,1,0,1)"><g id="svga-group-eyes-right" transform="matrix(1,0,0,1,0,0)"><g id="svga-group-eyesback-right"><path id="SvgjsPath102462" d="M119.8 74.2c7.5 0 13.5 5.8 13.5 13s-6 13-13.5 13-13.5-5.8-13.5-13 6-13 13.5-13z" fill="#ffffff" stroke-width="none" opacity="1"></path></g><g id="svga-group-eyesiriswrapper-right" transform="matrix(1,0,0,1,0,0)"><g id="svga-group-eyesiriscontrol-right" transform="matrix(1,0,0,1,0,0)"><g id="svga-group-eyesiris-right" transform="matrix(1,0,0,1,0,0)"><path id="SvgjsPath102510" d="M119.8 82.3c2.7 0 4.9 2.2 4.9 4.9s-2.2 4.9-4.9 4.9-4.9-2.2-4.9-4.9 2.2-4.9 4.9-4.9z" fill="#4e60a3" stroke-width="none" opacity="1"></path><path id="SvgjsPath102511" d="M119.8 83.8c1.9 0 3.4 1.5 3.4 3.4s-1.5 3.4-3.4 3.4-3.4-1.5-3.4-3.4 1.5-3.4 3.4-3.4z" fill="#000000" stroke-width="none" opacity="1"></path><path id="SvgjsPath102512" d="m116.2 84.9 3.8 2.7-1.5-4.5c-.2-.3-2.2.8-2.3 1.8z" fill="#ffffff" stroke-width="none" opacity="1"></path></g></g></g><g id="svga-group-eyesfront-right"><path id="SvgjsPath102472" d="M119.8 73.68c-7.76 0-14.06 6.06-14.06 13.55s6.29 13.55 14.06 13.55 14.06-6.06 14.06-13.55-6.29-13.55-14.06-13.55zm-.1 19.3c-2.69-.48-7.92-1.42-7.92-1.42 1.09-5.23 3.93-10.91 5.11-11.25 1.17-.35 5.42 2.39 7.65 3.41 2.22 1.02 6.42 8.49 6.39 8.92s-8.54.82-11.23.34z" fill="#ffe7da" stroke-width="none" opacity="1" stroke="none"></path><path id="SvgjsPath102475" d="M130.94 91.45c-.94-1.71-4.69-7.39-5.43-7.93-.74-.54-9.64-4.46-9.64-4.46l-2.69.74s1.15.39 2.73.95c-.07.08-.13.16-.19.25-.33.45-.61.92-.86 1.4-.51.96-.95 1.95-1.35 2.95-.78 2.02-1.4 4.06-1.74 6.23 2.02.45 4.13.91 6.28 1.34l1.61.31c.55.1 1.09.15 1.63.18 1.08.06 2.16.05 3.23.03 1.07-.04 2.15-.11 3.22-.2l1.6-.16c.27-.03.53-.06.8-.1.18-.04.35-.06.53-.11.56.99.99 1.8 1.18 2.22-.01 0 .03-1.93-.91-3.64zm-.84 1.31c-.26.03-.53.06-.79.08-.53.05-1.07.06-1.6.08-1.07.03-2.14.04-3.21.02-2.14-.01-4.27-.04-6.31-.48-2.07-.33-4.18-.62-6.38-.93a40.47 40.47 0 0 1 2.12-6.01c.43-.97.89-1.93 1.42-2.85.27-.45.54-.9.85-1.32.1-.13.21-.26.32-.39 3.2 1.15 7.67 2.81 8.53 3.48 1.01.78 3.8 5.25 5.5 8.23-.14.05-.3.07-.45.09z" fill="#000000" stroke-width="none" opacity="1" stroke="none"></path><path id="SvgjsPath102476" d="M112.18 93.13s5.73 4.16 8.05 4.6c2.32.44 6.81-.4 6.81-.4s-6.43-.17-7.8-.66c-1.38-.49-7.06-3.54-7.06-3.54z" fill="#e0ae93" stroke-width="none" opacity="1" stroke="none"></path></g></g></g><g id="svga-group-facehighlight-single"></g><g id="svga-group-eyebrows-left-move" transform="matrix(1,0,0,1,1,2)"><g id="svga-group-eyebrows-left-rotate" transform="matrix(0.9999999999999999,1.7453292699975975e-9,-1.7453292699975975e-9,0.9999999999999999,1.2673712035393692e-7,-1.3713926705349877e-7)"><g id="svga-group-eyebrows-left" transform="matrix(1,0,0,1,0,0)"><path id="SvgjsPath102535" d="m67.51 77.85-1.28-1.77-.08-.11.12.02 2.11.33-1.17-1.31-.24-.27.32.08 2.78.73-2.59-1.89-.57-.42.66.08 2.97.34-1.19-1.23-.63-.65.81.26 3.76 1.23-3.31-2.24-1.65-1.11 1.82.59 2.83.91-.98-.81-1.3-1.05 1.51.51 4.73 1.61-1.6-2.95-.41-.76.72.3c.55.23 1.05.56 1.52.91.47.36.92.75 1.35 1.15.43.41.85.83 1.26 1.27.03.04.07.08.1.11l-1.12-2.62-.45-1.05.82.68 4.53 3.77-3.23-4.4-.56-.77.8.37c.56.26 1.07.6 1.57.96s.98.74 1.46 1.14c.62.52 1.2 1.09 1.79 1.64l-2.13-3.53-.33-.54.51.27c.52.27.99.64 1.42 1.05.43.41.84.85 1.22 1.32.64.79 1.22 1.63 1.77 2.51l-.68-2.85-.06-.25.17.17c.37.37.73.75 1.06 1.16.34.4.67.82.98 1.25.63.86 1.21 1.75 1.74 2.7-.54-.93-1.15-1.81-1.79-2.64-.32-.42-.66-.82-1-1.22-.29-.33-.59-.64-.9-.94l.81 3.15.16.63-.34-.54c-.64-1.02-1.34-2-2.11-2.9-.38-.45-.78-.88-1.21-1.27-.25-.23-.52-.44-.79-.62l2.47 4.02.8 1.3-1.06-1.03c-.88-.86-1.8-1.68-2.74-2.46-.47-.39-.95-.76-1.44-1.1-.2-.14-.4-.27-.6-.4l3.87 5.19 1.3 1.75-1.62-1.34-5.31-4.38 1.35 3.13.73 1.69-1.15-1.36c-.76-.9-1.57-1.76-2.41-2.55-.42-.39-.86-.77-1.31-1.11-.2-.15-.4-.28-.6-.41l1.5 2.77.38.71-.69-.24-3.9-1.35.91.74 1.22 1-1.42-.47-2.43-.8 3.23 2.21 1.63 1.11-1.8-.62-4.69-1.6.97 1.03.41.44-.55-.07-2.85-.37 2.64 1.99.66.5-.75-.22-3.19-.92 1.07 1.25.16.19-.22-.04-2.21-.4 1.19 1.74.03.05h-.05l-1.53-.12 1.52.06z" fill="#b0b0b0" stroke-width="none" opacity="1" stroke="none"></path></g></g></g><g id="svga-group-eyebrows-right-move" transform="matrix(1,0,0,1,-1,2)"><g id="svga-group-eyebrows-right-rotate" transform="matrix(1,1.7453291312197194e-9,-1.7453291312197194e-9,1,1.257073165561451e-7,-2.1217088885805424e-7)"><g id="svga-group-eyebrows-right" transform="matrix(1,0,0,1,0,0)"><path id="SvgjsPath102536" d="m131.75 75.14.9-1.51.06-.09-.11.03-1.85.5.87-1.14.18-.23-.28.1-2.39.88 2.06-1.76.46-.39-.58.14-2.61.61.9-1.09.48-.57-.69.3-3.2 1.38 2.66-2.11 1.32-1.05-1.55.66-2.41 1.03.78-.73 1.02-.96-1.28.57-4.02 1.79 1.03-2.46.27-.63-.61.31c-.47.24-.86.55-1.24.88-.37.33-.72.68-1.05 1.04-.33.36-.65.74-.96 1.12-.03.03-.05.07-.08.1l.65-2.15.26-.86-.65.62-3.55 3.42 2.3-3.76.4-.66-.67.38c-.47.26-.88.59-1.28.92-.4.33-.78.68-1.15 1.04-.48.47-.93.98-1.39 1.47l1.43-2.96.22-.45-.42.27c-.43.27-.8.61-1.13.97-.33.36-.64.75-.92 1.16-.47.68-.88 1.4-1.25 2.13l.22-2.27.02-.2-.13.15a15.406 15.406 0 0 0-1.51 2.08c-.45.73-.85 1.49-1.19 2.28.36-.78.79-1.52 1.25-2.24.23-.36.48-.71.73-1.05.21-.29.45-.56.68-.83l-.3 2.52-.06.5.23-.46c.43-.86.93-1.7 1.5-2.48.28-.39.58-.77.91-1.12.19-.21.4-.4.62-.57l-1.65 3.4-.54 1.1.81-.92c.68-.76 1.39-1.51 2.12-2.21.37-.35.75-.69 1.14-1.01.16-.13.32-.25.49-.38l-2.76 4.45-.93 1.5 1.27-1.22 4.16-3.99-.79 2.57-.43 1.39.85-1.18c.56-.78 1.17-1.54 1.81-2.24.33-.35.66-.69 1.02-1 .16-.14.32-.27.49-.39l-.97 2.3-.25.59.58-.26 3.32-1.49-.71.68-.96.91 1.21-.52 2.07-.9-2.6 2.07-1.31 1.05 1.53-.68 3.98-1.78-.73.9-.31.39.48-.12 2.51-.62-2.1 1.84-.52.46.64-.25 2.73-1.07-.79 1.08-.12.16.19-.06 1.92-.57-.83 1.47-.02.04.04-.01 1.35-.27-1.29.22z" fill="#b0b0b0" stroke-width="none" opacity="1" stroke="none"></path></g></g></g><g id="svga-group-beardwrap" transform="matrix(1,0,0,1,0,0)"><g id="svga-group-beard-single-move" transform="matrix(1,0,0,1,0,0)"><g id="svga-group-beard-single" transform="matrix(1,0,0,1,0,0)"></g></g></g><g id="svga-group-mustache-single-move" transform="matrix(1,0,0,1,0,0)"><g id="svga-group-mustache-single" transform="matrix(1,0,0,1,0,0)"></g></g><g id="svga-group-nose-single-move" transform="matrix(1,0,0,1,0,0)"><g id="svga-group-nose-single" transform="matrix(1,0,0,1,0,0)"><path id="SvgjsPath101850" d="M96.8 88.78c-.28 1.49-.54 2.98-.59 4.45 0 .36.01.73.07 1.07.02.18.08.32.12.48l.21.53c.27.71.52 1.43.75 2.16.22.73.41 1.48.53 2.25.05.39.09.78.07 1.19-.01.41-.13.85-.31 1.21-.36.72-.85 1.32-1.36 1.89-.52.56-1.07 1.09-1.66 1.56.47-.59.94-1.18 1.37-1.8.43-.61.84-1.24 1.11-1.89.13-.33.19-.63.18-.98 0-.35-.05-.71-.12-1.06a16.4 16.4 0 0 0-.55-2.14c-.21-.71-.45-1.42-.7-2.13l-.18-.54c-.05-.2-.12-.42-.13-.62-.06-.41-.03-.8 0-1.19.07-.78.24-1.53.43-2.26.22-.75.46-1.48.76-2.18z" fill="#d19574" stroke-width="none" opacity="1" stroke="none"></path><path id="SvgjsPath101851" d="M103.7 88.62c.49.61.9 1.27 1.26 1.96.09.17.18.35.26.53.04.1.08.17.12.28.03.11.08.23.09.33.08.43.07.83.05 1.23-.06.79-.22 1.55-.42 2.3-.19.75-.45 1.47-.71 2.2-.06-.79.05-1.56.12-2.31.09-.76.18-1.51.24-2.24.03-.36.04-.73 0-1.06-.02-.28-.19-.67-.3-1.02-.24-.72-.49-1.44-.71-2.2z" fill="#d19574" stroke-width="none" opacity="1" stroke="none"></path><path id="SvgjsPath101852" d="M109.24 107.49s1.28.96 1.53 1.77c.24.8-.32 2.57-1.12 2.65s-3.77-.64-4.17-.24c-.4.4-.8 4.42-2.01 4.9s-6.02.56-6.58-.32c-.56-.88-1.12-4.01-1.85-4.17-.72-.16-3.77.08-4.5 0-.72-.08-1.2-1.77-.32-3.45.88-1.69 4.74-3.53 7.39-3.69 2.65-.16 7.41.62 7.41.62s3.08 1.11 4.22 1.93z" fill="#f7d8c7" stroke-width="none" opacity="1" stroke="none"></path><path id="SvgjsPath101853" d="M109.24 107.49c.42.32.81.68 1.15 1.09.16.21.32.43.39.69.07.26.06.53.03.79-.08.52-.24 1.05-.56 1.48-.16.21-.4.4-.68.4-.27.01-.53-.02-.8-.05-.53-.06-1.05-.14-1.58-.19-.26-.03-.52-.05-.79-.07-.26-.01-.53-.02-.76.04-.06.02-.09.04-.12.07-.03.03-.05.09-.07.15-.04.12-.08.24-.11.37-.07.25-.12.51-.18.77-.11.52-.23 1.04-.37 1.55-.15.51-.31 1.03-.59 1.52-.15.24-.32.49-.64.64-.28.12-.55.17-.81.23-1.07.19-2.14.24-3.22.22-.54-.02-1.08-.05-1.63-.15-.27-.05-.55-.12-.84-.25-.14-.07-.3-.15-.44-.33-.11-.16-.16-.28-.23-.41-.44-1.02-.68-2.05-1.07-2.99-.1-.22-.21-.46-.33-.58-.03-.03-.05-.05-.06-.05-.01-.01 0 .01.01 0l-.07-.01c-.1-.01-.23-.02-.35-.03-.5-.02-1.03 0-1.56.01l-1.59.04c-.27 0-.53.01-.83-.01a.983.983 0 0 1-.31-.07c-.1-.04-.18-.11-.26-.17-.14-.13-.24-.27-.32-.42-.29-.59-.3-1.19-.24-1.76.08-.57.26-1.12.55-1.62.31-.52.73-.9 1.17-1.23.44-.33.9-.62 1.38-.87.95-.51 1.96-.9 3-1.18.52-.14 1.05-.24 1.58-.3.54-.06 1.08-.05 1.61-.03 1.06.04 2.12.15 3.17.29 1.05.13 2.1.28 3.14.46.72.28 1.45.57 2.16.89.36.16.71.32 1.05.5.36.16.71.34 1.02.57zm0 0c-.32-.22-.66-.4-1.01-.58-.35-.17-.7-.34-1.06-.49-.71-.31-1.43-.6-2.17-.86-2.09-.3-4.2-.52-6.31-.53-.52.01-1.05.02-1.56.1s-1.02.2-1.52.36c-.99.31-1.96.73-2.85 1.26-.45.26-.88.55-1.27.88-.39.32-.75.69-.97 1.09-.23.42-.38.9-.43 1.38-.05.47 0 .98.2 1.34.05.09.1.16.16.21.03.02.05.04.07.05.01.01.02.01.03.01h.05c.22.02.49.01.75 0l1.58-.05c.53-.02 1.06-.04 1.61-.01.14.01.28.01.44.04l.12.02c.07.02.14.05.19.08.11.06.18.14.24.2.23.28.34.53.45.79.21.52.37 1.03.53 1.53.16.5.3 1.01.49 1.47.04.1.11.23.14.29.02.03.1.09.19.13.19.09.43.16.68.21.49.1 1.01.16 1.53.19 1.04.06 2.09.05 3.12-.09.25-.04.51-.08.72-.16.18-.07.34-.25.47-.46.27-.42.45-.91.61-1.41.16-.5.3-1.01.43-1.52l.21-.77c.04-.13.08-.26.14-.39.03-.07.06-.13.12-.2a.46.46 0 0 1 .22-.13c.29-.07.56-.04.82-.02.27.02.53.06.79.1l1.57.24c.26.03.52.07.78.07.26.01.48-.17.64-.37.32-.41.5-.93.58-1.45.03-.26.04-.53-.02-.78-.07-.25-.22-.48-.38-.69-.31-.39-.7-.75-1.12-1.08z" fill="#d19574" stroke-width="none" opacity="1" stroke="none"></path></g></g><g id="svga-group-hair-front" transform="matrix(1,0,0,1,0,0)"><path id="SvgjsPath102619" d="M58.02 71.24s1.85 1.66 2.59 3.33c.74 1.66 0 4.62.55 4.99.55.37 2.4-4.99 2.4-4.99l1.29-21.45 16.09-14.98 6.66 7.21s17.01.92 25.34.55l7.03-5.18 15.54 13.32.55 20.71 2.4 4.62s.74-5.18 1.11-5.92c.37-.74 2.03-2.59 2.03-2.59s1.48-13.5.74-17.38-5.55-13.69-14.24-20.16-35.69-5.55-40.5-5.18c-4.81.37-15.17 3.51-15.17 3.51l.92 1.29-2.59 1.11-.37 1.48s-5.36 3.33-7.4 5.73-3.88 7.03-4.44 10.91-.53 19.07-.53 19.07z" fill="#d1d1d1" stroke-width="none" opacity="1" stroke="none"></path><path id="SvgjsPath102620" d="M58.07 71.22c.89.82 1.77 1.77 2.4 2.86.69 1.12.63 2.47.62 3.7 0 .31-.01.62 0 .93.01.15.02.3.05.44.01.14.12.27.1.26-.06.02.12-.1.17-.22.08-.12.16-.25.23-.38.14-.27.27-.55.4-.83.49-1.14.91-2.31 1.31-3.49l-.01.06 1.15-21.46.01-.15.11-.11L80.66 37.8l.33-.3.3.33 6.65 7.22-.29-.14c4.21.23 8.43.4 12.65.56 4.22.14 8.44.26 12.65.14l-.16.06 7.07-5.12.14-.1.13.11 15.49 13.37.05.04v.07l.64 20.71-.03-.1 2.42 4.61-.49.08c.22-1.54.45-3.08.75-4.62.08-.39.15-.77.28-1.17.16-.46.42-.75.65-1.08.48-.63.98-1.23 1.5-1.82l-.08.17c.4-4.12.74-8.25.84-12.37.01-2.06.12-4.14-.5-6.04-.6-1.93-1.51-3.79-2.5-5.58-2-3.58-4.5-6.89-7.42-9.75-1.46-1.42-3.02-2.82-4.72-3.86-1.67-1.1-3.65-1.71-5.58-2.32-3.95-1.06-8.05-1.62-12.16-2-4.11-.36-8.24-.51-12.38-.52-2.07 0-4.13.02-6.2.1-1.03.04-2.06.09-3.08.16-1 .09-2.01.25-3.02.42-4.04.76-8.05 1.84-12.02 2.98l.22-.63.92 1.3.29.41-.46.19-2.6 1.09.22-.26-.38 1.48-.04.15-.13.08c-1.41.88-2.81 1.82-4.15 2.81-1.32 1.01-2.66 2.04-3.63 3.34-1.92 2.68-3.12 5.89-3.82 9.12-.35 1.62-.4 3.3-.51 4.98-.09 1.68-.16 3.36-.21 5.04-.1 3.36-.17 6.76-.22 10.08zm-.09.04c-.04-3.4-.04-6.74-.01-10.11.02-1.68.05-3.36.1-5.05.08-1.68.12-3.38.45-5.05.32-1.67.81-3.3 1.43-4.88.63-1.57 1.37-3.12 2.39-4.52 1.03-1.42 2.4-2.47 3.72-3.52 1.35-1.03 2.74-1.99 4.17-2.9l-.17.23.36-1.48.04-.18.18-.08 2.58-1.13-.17.6-.93-1.29-.34-.47.55-.17c3.98-1.2 7.98-2.32 12.08-3.15 1.03-.19 2.06-.38 3.13-.47 1.05-.08 2.09-.13 3.12-.17 2.08-.08 4.16-.11 6.24-.11 4.16 0 8.32.14 12.47.5 4.15.37 8.3.92 12.35 2.04 2 .65 4.03 1.28 5.84 2.47 1.82 1.13 3.36 2.54 4.87 4.01 2.98 2.95 5.51 6.34 7.53 10.01 1 1.84 1.9 3.74 2.51 5.78.32 1.01.45 2.12.48 3.16.02 1.05.02 2.09-.02 3.13-.16 4.16-.54 8.29-.99 12.42l-.01.1-.07.07c-.51.57-1.02 1.16-1.49 1.76-.22.3-.48.62-.57.9-.11.34-.19.73-.27 1.1-.31 1.51-.55 3.05-.78 4.58l-.12.8-.37-.72-2.39-4.63-.03-.05v-.05l-.47-20.72.05.11-15.58-13.27.28.01-6.99 5.23-.07.05h-.09c-4.24.19-8.47.13-12.7.05-4.23-.08-8.45-.26-12.68-.46l-.17-.01-.12-.13-6.67-7.21.63.02-16.13 14.98.12-.25-1.45 21.44v.03l-.01.03c-.43 1.18-.88 2.35-1.41 3.49-.13.29-.27.57-.43.85-.08.14-.16.28-.26.41-.05.07-.1.13-.17.2-.06.05-.16.16-.36.13-.29-.15-.29-.36-.33-.52-.03-.17-.04-.33-.04-.49-.01-.32.01-.63.02-.95.03-1.23.12-2.53-.51-3.6-.59-1.08-1.41-2.01-2.32-2.9z" fill="#c2c2c2" stroke-width="none" opacity="1" stroke="none"></path></g><g id="svga-group-glasses-single-move" transform="matrix(1,0,0,1,0,0)"><g id="svga-group-glasses-single" transform="matrix(1,0,0,1,0,0)"></g></g></g></g></g><rect id="svga-credit-rect" width="200" height="15" x="0" y="185" fill="#ecf0f1" opacity="0.5" style="display: none;"></rect><text id="svga-credit-text" font-family="Avenir Next, Roboto, Helvetica, Arial, sans-serif" font-size="10px" text-anchor="start" font-weight="400" size="10px" anchor="start" weight="400" fill="#333333" x="33.40447998046875" y="182.60824704170227" style="display: none;"><tspan id="SvgjsTspan101230" dy="13" x="33.40447998046875">Created on AvatarMaker.com</tspan></text></g></svg>