<svg xmlns="http://www.w3.org/2000/svg" version="1.1" width="600px" height="600px" viewBox="0 0 200 200" style="overflow:hidden!important;"><g id="svga-group-wrapper"><g id="svga-group-backs-single"></g><g id="svga-group-humanwrap-move" transform="matrix(1,0,0,1,0,0)"><g id="svga-group-humanwrap" transform="matrix(1.0000001,0,0,1.0000001,-0.000010000000145282684,-0.000011245712528307195)"><g id="svga-group-hair-back-move" transform="matrix(1,-1.3877787807814457e-16,1.3877787807814457e-16,1,-1.4210854715202004e-14,0)"><g id="svga-group-hair-back"></g></g><g id="svga-group-humanbody-back"><path id="SvgjsPath99502" d="M180.8 184.9c-2.3-3.4-38.9-17.8-38.9-17.8l-13.4-5.2-5.6-68.8H76.8L71.3 162l-13.4 5.2S21.4 181.6 19 185c-2.3 3.4-3.3 14.9-3.3 14.9V219h168.5v-19.2c-.1.1-1-11.5-3.4-14.9z" fill="#ffa970" stroke-width="none" opacity="1" stroke="none"></path></g><g id="svga-group-chinshadow-single"><path id="SvgjsPath99498" d="M80.4 152.5c5 8 14 6.5 14 6.5s9 1.4 14-6.6c0 0 2.7 0 12.7-1.3 2.4-.3 4.5-1.1 6.4-2.2L123 93.1H76.8l-4.7 58.7c6.5.7 8.3.7 8.3.7z" fill="#e07a36" stroke-width="none" opacity="1" stroke="none"></path></g><g id="svga-group-humanbody-front"><path id="SvgjsPath99503" d="M184.5 219c-.1-6.4-.1-12.8-.1-19.2l-.3-.1s.1-.1.2 0c.1 0 .1.1.1.1v-.4l-.1-.5-.1-.9-.2-1.9c-.2-1.3-.4-2.5-.6-3.8-.2-1.3-.5-2.5-.9-3.8-.4-1.2-.8-2.5-1.5-3.6-.8-.9-1.9-1.5-2.9-2.1-1-.6-2.1-1.1-3.2-1.7-2.1-1.1-4.3-2.1-6.5-3.1-4.4-2-8.7-3.9-13.1-5.7-4.4-1.9-8.8-3.7-13.2-5.5l-13-5.2-1.2-16.9c-.4-5.7-.9-11.5-1.3-17.2l-1.3-17.2-1.5-17.3-.1-.8h-.8c-7.7 0-15.4.1-23.1.1l-23.1.2h-.5v.5L75 110.2l-1.3 17.2c-.8 11.4-1.8 22.8-2.8 34.2-5.6 2.1-11.2 4.2-16.7 6.4-5.6 2.2-11.2 4.5-16.8 6.9-2.8 1.2-5.6 2.4-8.3 3.6-2.8 1.3-5.5 2.5-8.2 4.1-.7.4-1.3.8-2 1.4-.2.1-.4.4-.5.6l-.3.6c-.2.4-.4.7-.5 1.1-.6 1.5-1 3-1.3 4.5-.6 3-1.1 6-1.4 9.1l-.1 19.1v.9h.9l42.1.1H100c14 0 28.1-.1 42.1-.2l42.1-.5h.3v-.3zm-84.5-1-42.1-.1-41.2.1-.1-18.1c.3-3 .6-5.9 1.2-8.9.3-1.4.6-2.9 1.1-4.2.1-.3.3-.7.4-.9l.2-.4.3-.3c.5-.4 1.1-.8 1.8-1.2 2.5-1.5 5.3-2.8 8-4.1 2.7-1.3 5.5-2.5 8.2-3.7 5.5-2.4 11.1-4.8 16.7-7.1s11.2-4.5 16.9-6.7l.2-.1v-.2c.9-11.5 1.7-23 2.7-34.4l1.4-17.2 1.5-16.7 22.6.2c7.4.1 14.8.1 22.3.1l1.3 16.4 1.5 17.2c.5 5.7 1 11.5 1.5 17.2l1.6 17.2v.3l.3.1 13.4 5c4.4 1.7 8.9 3.4 13.3 5.2 4.4 1.8 8.8 3.7 13.2 5.6 2.2 1 4.3 2 6.5 3 1.1.5 2.1 1.1 3.2 1.6 1 .6 2.1 1.2 2.9 2 .7 1.1 1.1 2.3 1.4 3.5.3 1.2.6 2.5.8 3.7.2 1.3.4 2.5.6 3.8l.2 1.9.1.9.1.5v.4c0 6.3 0 12.6-.1 18.9l-41.8-.5c-14 .1-28.1 0-42.1 0z" fill="#d1651d" stroke-width="none" opacity="1" stroke="none"></path><path id="SvgjsPath99504" d="M125.1 142.4s-1.8 23-9.1 32.9c0 0 7.9-25 9.1-32.9zm-34.5 16s5 7.9 11.5 10.1c0 0-9.5 2.2-11.5-10.1zM73.4 140c6.7 25.6 6.7 25.6 8.5 30.7 0 0 .4-12.6-8.5-30.7z" fill="#e07a36" stroke-width="none" opacity="1" stroke="none"></path></g><g id="svga-group-clothes-single"><path id="SvgjsPath99364" d="m71.9 145.1-6.2 2.5-.7 14.1v20.2L79 220h42l10.7-34.3 3.4-25.5-1.7-14.2-5.4-.8-.3 9.2s-26.2 22.2-26.6 22.7-29.2-22.8-29.2-22.8v-9.2z" fill="#eaeaea" stroke-width="none" opacity="1"></path><path id="SvgjsPath99365" d="m127.8 155.4.8-.3 4.9-9-5.5-.9-.2 10.2zm-56.3-1.6h-.4l-5.2-6.1 6.3-2.6-.7 8.7z" fill="#c9c9c9" stroke-width="none" opacity="1"></path><path id="SvgjsPath99366" d="m44.6 168 1.1 1.7s-24.9 7.2-29 9c0 0-4.4-3.1-6 3.4-1.6 6.5-3.8 30.8-3.8 37.9h72s-8.7-29-14.1-59.9L44.6 168zm144.6 14.1c-1.6-6.5-6-3.4-6-3.4-4.1-1.9-29-9-29-9l1.1-1.7-20.3-7.8c-5.3 30.8-14 59.8-14 59.8h72c.1-7.2-2.2-31.4-3.8-37.9z" fill="#031945" stroke-width="none" opacity="1"></path><path id="SvgjsPath99367" d="M89 180.6s4.9 12.4 6.4 15.4c0 0-2.8 17.1-2.9 23.8h18s-2.5-20-3.1-24.1c0 0 4.4-11 5.7-13.9 0 0-2.7-3.4-3.8-3.6-1.1-.2-8.7-.8-8.7-.8s-7.3.9-8.7 1.4c-1.4.4-2.9 1.8-2.9 1.8z" fill="#222222" stroke-width="none" opacity="1"></path><path id="SvgjsPath99368" d="M106.9 196c-1.1.5-3.8 1.9-5.2 2.1h-.5c-1.6-.1-4.2-1.3-5.3-1.8v-.2c.6.1 1.6.2 2.9.5 1.7.4 6.5-.4 8.1-.7m-5.5 17.2c1.2 1.5 3.4 2.7 3.1 1-.2-1.7-3.3-15.8-3.4-16-.1.7-.9 13.5.3 15zm-2.8-17.3s-.1-8.9-.6-9.8c-.5-.9-1.7-.1-2.1 1.8-.5 2 2.3 7.6 2.7 8zm-1.8 15.8c.5 2.7 1.9-.4 2.1-3.6.2-3.2-1.1-10.6-1.1-10.6-.2.5-1.5 11.4-1 14.2zm7.4-27.7c-1-1.1-2.5 1.9-2.8 4-.4 2.1-.2 6.3-.2 7.8-.1 0 3.9-10.7 3-11.8zm3.2 6.8c.6-1.2-.6-2.2-1.5-1.7s-1.7 5.3-2.1 7.2c0 0 3-4.2 3.6-5.5zm-2.4 18.4c.5 1 1.9 2.2 2.1 1.5.2-.7-2.7-12.5-2.7-12.5s.1 10 .6 11z" fill="#000000" stroke-width="none" opacity="1"></path><path id="SvgjsPath99369" d="m192.7 208.3-.9-11.6c-.3-3.9-.7-7.8-1.3-11.6-.2-1-.3-1.9-.5-2.9s-.5-2-1.1-3c-.5-1-1.6-1.9-2.9-2.1-.6-.1-1.2 0-1.8.1-.4.1-.8.3-1.2.5-2.3-.9-4.6-1.6-6.8-2.4l-7.3-2.2c-4.6-1.4-9.1-2.7-13.7-3.9l.6-.9.5-.7-.8-.3c-3.5-1.3-7-2.5-10.4-3.8l-9.2-3.2c0-.1 0-.2.1-.4l-2.2-14.2-6-1.4s-.5 4.6-.5 9.7l-13.8 11c-2.2 1.9-4.5 3.8-6.7 5.8l-3.3 2.9-1.7 1.5-.8.8c-2.3-1.6-4.6-3.4-6.9-5.1l-7.1-5.4-14.6-11.4.1-9.8c-.5.5-6.2 2.5-6.8 3v.1l-.6 8.6-.3 4-10 3.5c-3.4 1.2-6.9 2.5-10.4 3.8l-.8.3.5.7.6.9c-4.6 1.2-9.2 2.5-13.7 3.9l-7.3 2.2c-2.3.8-4.5 1.4-6.9 2.4-.4-.2-.7-.4-1.1-.5-.6-.2-1.2-.2-1.8-.1-1.3.2-2.3 1.1-2.8 2-.6 1-.9 2-1.1 3-.2 1-.3 2-.5 2.9-.5 3.9-.9 7.8-1.3 11.6l-.9 11.6c-.3 3.9-.6 7.8-.7 11.7v.3h.3c6 0 12 .1 18 .2l18 .3 18.1.3h78l18-.1c6-.1 12-.1 18-.3 6-.1 12-.2 18-.2h.4v-.4c-.1-3.9-.4-7.8-.7-11.7zm-88.1-33 3.4-2.9 6.8-5.7 13.6-11.5.2-.2-.4-9.6c1.8.4 3.6.8 5 1.1l1.1 13.6-1.1 8.5-1.4 6.4c-1.1 5-2.4 10-3.6 14.9-.7 2.9-1.5 5.9-2.3 8.8-.3-.8-.6-1.6-1-2.4-.3-.7-.6-1.4-1-2.1-.3-.7-.8-1.4-1.2-2-1.8-2.6-3.6-5-5.5-7.4-1-1.2-2-2.4-3-3.5-1.1-1.1-2.1-2.3-3.5-3.3-.3-.2-.7-.5-1.1-.7-.2-.1-.5-.2-.8-.3-.3-.1-.4 0-.6-.1l-2.3-.3-2.5-.3 1.2-1zm-38.8-19.1.2-8.5 5.7-2.1-.6 8.2 1.4 1.6h.1c4.5 3.8 9.1 7.6 13.7 11.3 2.3 1.9 4.6 3.7 6.9 5.6 1.8 1.4 3.5 2.8 5.4 4.2l-2.1.3c-.8.1-1.5.2-2.3.4l-1.2.2c-.2.1-.3.1-.6.1-.3.1-.5.2-.7.3-1.6.9-2.7 2-3.8 3.1-1.1 1.1-2.1 2.3-3.2 3.5-2 2.4-3.9 4.9-5.7 7.4-.9 1.3-1.8 2.6-2.6 3.9-.7 1.1-1.4 2.2-2 3.3-.8-2.9-1.5-5.9-2.3-8.8-1.2-5-2.5-9.9-3.6-14.9l-1.7-7.5-1-4.7c-.2-2.4-.1-4.8 0-6.9zM7.3 219.6c0-3.8.3-7.5.6-11.3.3-3.9.7-7.7 1.2-11.6.5-3.9 1-7.7 1.7-11.5.4-1.9.7-3.9 1.6-5.3.5-.7 1-1.2 1.7-1.2.7-.1 1.5.2 2.1.6l.4.3.4-.2c.6 1.4 1.1 2.7 1.6 4.1.6 1.7 1.1 3.4 1.3 5.1.5 3.5.8 7 1.2 10.5l1.2 10.5.7 5.3.6 4.5c-5.3.1-10.8.2-16.3.2zM61 219l-18 .1c-6 .1-12 .1-18 .3h-1.1c-.1-3.3-.4-6.5-.6-9.8-.3-3.5-.6-7-1-10.6-.4-3.5-.8-7-1.5-10.5-.7-3.2-2-6.3-3.5-9.1 2.2-.9 4.6-1.6 7-2.4l7.2-2.3 14.5-4.5h.1c.3.3.5.6.8.9.8.8 1.6 1.6 2.5 2.3-1.2.6-2.5 1.2-3.7 1.9l-.7.3.3.7c1.6 3.7 3.3 7.4 5 11 1.7 3.7 3.5 7.3 5.2 10.9l5.4 10.8c1.7 3.3 3.4 6.5 5.2 9.7-1.7.3-3.4.3-5.1.3zm5.3 0c-1.3-3.5-2.8-6.9-4.2-10.3-1.6-3.7-3.2-7.4-4.9-11.1-1.7-3.7-3.4-7.3-5.1-11-1.6-3.4-3.3-6.8-5-10.2 2.3-1.4 4.6-2.7 6.9-4.1l7.5-4.7c-1.4.6-2.7 1.2-4 1.8l-4 1.9c-1.3.7-2.7 1.4-4 2-.6-1-1.3-1.9-2-2.8-.5-.7-1.1-1.3-1.6-2l-.3-.4c3-1.2 6.1-2.5 9.1-3.8l10-4.2c0 .5.4 2.5.7 3.7l.3 1.8.3 1.9c.4 2.5.8 5.1 1.3 7.6 1 5 1.9 10.1 3.1 15.1 2.1 9.6 4.5 19.1 7.2 28.5-3.8.2-7.5.3-11.3.3zm13.6.2c-1.4-4.7-2.7-9.5-4-14.3-.5-2-1.1-3.9-1.6-5.9 1.7-2.3 3.5-4.5 5.3-6.7 2-2.4 4-4.7 6.1-7 1-1.1 2.1-2.2 3.2-3.3l.1-.1c1.2 3.1 4.6 11.4 5.9 14.1-.3 1.7-2.7 16.8-2.9 23.3l-12.1-.1zm13.1.1c.2-6.6 2.7-21.7 2.9-23.2v-.1l-.1-.1c-1.2-2.5-4.9-11.7-6-14.5.8-.7 1.7-1.4 2.5-1.8.1-.1.3-.1.4-.1.1 0 .3-.1.5-.1l1.1-.2c.8-.1 1.5-.2 2.3-.3 1.5-.2 3-.3 4.5-.5l4.5.5 2.3.2c.2 0 .4 0 .5.1.1 0 .2 0 .3.1.3.1.5.3.8.5 1 .7 1.9 1.6 2.8 2.5-1.5 3.5-5.4 13.3-5.5 13.4v.2c.6 4 2.7 20.3 3.1 23.5l-16.9-.1zm18 .3c-.2-1.5-2.5-19.7-3.1-23.9.4-1.1 3.8-9.4 5.2-12.9 1 1 1.9 2 2.8 3 2 2.3 4 4.6 5.9 7 .5.6 1 1.2 1.4 1.8.4.6.8 1.3 1.1 2l1.3 2.5-1.5 5.7c-1.3 4.9-2.7 9.9-4.2 14.8-2.9.1-5.9.1-8.9 0zm11.4-.7c2.7-9.4 5.1-18.9 7.2-28.5 1.1-5 2.1-10.1 3.1-15.1.4-2 .7-4.1 1.1-6.1 1-2.8 1.8-5.7 2.2-8.7l9.3 3.9c3.1 1.3 6.1 2.5 9.1 3.8l-.3.4c-.6.6-1.1 1.3-1.6 2-.7.9-1.3 1.8-1.9 2.8-1.3-.7-2.7-1.4-4-2l-4-1.9c-1.3-.6-2.7-1.3-4-1.8l7.5 4.7c2.3 1.4 4.6 2.8 6.9 4.1-1.7 3.4-3.4 6.8-5 10.2-1.8 3.6-3.4 7.3-5.1 11-1.7 3.7-3.3 7.4-4.9 11.1-1.5 3.4-2.9 6.8-4.2 10.3-3.9-.1-7.6-.2-11.4-.2zm52.6.5-18-.3-18-.1h-5.2c1.8-3.2 3.5-6.5 5.2-9.7 1.9-3.6 3.7-7.2 5.4-10.8 1.8-3.6 3.5-7.3 5.2-10.9 1.7-3.7 3.4-7.3 5-11l.3-.7-.7-.3c-1.2-.6-2.5-1.3-3.7-1.9.9-.7 1.7-1.5 2.5-2.3.3-.3.5-.6.8-.9h.1l14.5 4.5 7.2 2.3c2.4.8 4.8 1.5 7 2.4-1.6 2.8-2.9 5.9-3.5 9.1-.7 3.5-1.1 7-1.5 10.5-.4 3.5-.8 7-1 10.6-.2 3.3-.5 6.5-.6 9.8-.2-.3-.6-.3-1-.3zm1.2 0 .6-4.5.7-5.3c.5-3.5.8-7 1.2-10.5l1.2-10.5c.2-1.7.7-3.4 1.3-5.1.5-1.4 1-2.8 1.6-4.1l.4.2.4-.3c.6-.4 1.5-.7 2.1-.6.7.1 1.3.5 1.7 1.2.9 1.4 1.2 3.4 1.6 5.3.7 3.8 1.2 7.6 1.7 11.5.5 3.8.9 7.7 1.2 11.6.3 3.8.6 7.5.6 11.3-5.3 0-10.8-.1-16.3-.2z" fill="#000d26" stroke-width="none" opacity="1"></path><path id="SvgjsPath99370" d="M111 174.5c3.5.2 9.7 9.1 9.7 9.1s8.9-15.3 9.7-19c.8-3.6 2-14.2 2-14.2s-3 9.7-3.8 11.1-17.6 13-17.6 13zm-33.5 15c2-3.5 8.4-11.7 9.9-12.5 1.5-.8 7.6-1.6 7.6-1.6l-15-10.9s2.1 8.2 2.1 10.1-4.6 14.9-4.6 14.9z" fill="#ffffff" stroke-width="none" opacity="1"></path><path id="SvgjsPath99371" d="M184.7 180.9c2.3.8 3.3 6.6 4.1 9.7.8 3.1 2.3 25.1 2.3 25.1s-3.1-25.1-4.6-28.7c-1.5-3.6-1.8-6.1-1.8-6.1zM155 172c1.5-.2 21.9 5.8 25.7 8.2 0 0-10.6-2.3-15.3-3.6-4.8-1.3-10.4-4.6-10.4-4.6zm-16.3-2.6c1 .5 13 7.8 13 7.8s-11.7 24.1-12.9 27.1-5.4 11.7-5.4 11.7 6.1-16.8 7.8-22.6c1.6-5.8 6.1-15.7 6.1-15.7l-8.6-8.3zm-74.2-2.8c.5 5.3 7.8 40.6 10.9 47.8 0 0-6.6-15.3-9.7-29.5-3.2-14.2-1.2-18.3-1.2-18.3z" fill="#0c2454" stroke-width="none" opacity="1"></path></g><g id="svga-group-head" transform="matrix(1,-1.3877787807814457e-16,1.3877787807814457e-16,1,-1.4210854715202004e-14,0)"><g id="svga-group-ears-left-move" transform="matrix(1,0,0,1,0,1)"><g id="svga-group-ears-left"><path id="SvgjsPath99396" d="M68.53 80.36s-11.15-9.8-12.94-9.96c-1.54-.14-5.36 8.01-7.05 13.16-.45 1.36-.34 2.88.25 4.2 1.62 3.57 5.21 11.04 8.43 14.78 0 0 2.72.59 3.58.33.86-.25 7.58-5.67 8.27-7.77s.83-11.3-.54-14.74z" fill="#ffa970" stroke-width="none" opacity="1" stroke="none"></path><path id="SvgjsPath99397" d="M69.49 84.19c.18 1.31.28 2.64.33 3.96.05 1.32.06 2.65-.01 3.98a26.7 26.7 0 0 1-.17 1.99c-.05.34-.1.67-.2 1.02s-.28.7-.46.96c-.72 1.11-1.6 1.95-2.47 2.8-.88.84-1.78 1.63-2.71 2.4-.47.38-.93.75-1.42 1.11-.24.18-.49.35-.74.52l-.4.24c-.16.08-.35.17-.53.19-.67.08-1.23-.01-1.82-.09-.58-.08-1.15-.19-1.73-.32l-.13-.03-.08-.1c-1.45-1.74-2.63-3.68-3.74-5.65-1.1-1.98-2.1-4.03-3.06-6.1l-1.41-3.11c-.5-1.05-.71-2.29-.54-3.46.06-.59.26-1.14.44-1.67.18-.54.37-1.07.56-1.6.4-1.05.79-2.11 1.22-3.15.86-2.07 1.76-4.13 2.94-6.02.3-.47.62-.93 1-1.36.19-.21.4-.42.67-.59.13-.08.3-.16.52-.16.19.01.32.07.47.12 1.06.47 1.87 1.14 2.75 1.76 1.72 1.29 3.37 2.66 5 4.09 1.64 1.41 3.22 2.86 4.81 4.38.49 1.27.72 2.58.91 3.89zM58.4 72.51c-.85-.59-1.75-1.26-2.59-1.61-.09-.02-.2-.08-.26-.08-.04 0-.12.02-.2.07-.17.1-.35.25-.51.44-.34.36-.65.8-.94 1.24-1.16 1.8-2.18 3.77-3.11 5.77-.46 1.01-.92 2.02-1.32 3.06-.2.52-.4 1.04-.59 1.57-.19.53-.38 1.05-.45 1.6-.15 1.11.06 2.27.55 3.26.47 1.03.98 2.05 1.49 3.05 1.02 2.02 2.12 3.99 3.26 5.91 1.15 1.91 2.36 3.79 3.76 5.42l-.21-.13c1.09.2 2.3.43 3.29.33.11-.01.18-.06.28-.11l.35-.22.7-.5c.47-.34.93-.71 1.39-1.08.92-.74 1.81-1.52 2.68-2.34.85-.82 1.73-1.66 2.39-2.61.17-.25.29-.46.38-.72.08-.27.14-.58.19-.89.09-.63.17-1.27.21-1.91.1-1.29.14-2.6.15-3.9.01-1.31-.04-2.62-.15-3.92-.11-1.3-.27-2.62-.66-3.84-3.33-2.62-6.67-5.35-10.08-7.86z" fill="#f09051" stroke-width="none" opacity="1" stroke="none"></path><path id="SvgjsPath99398" d="M68.79 88.66S58.04 75.08 56.02 76.21c-2.01 1.12-5.19 7.53-5.18 9.67.02 3.14 3.34 8.38 5.01 9.96s3.68 2.55 6.35 1.94c2.66-.61 6.59-9.12 6.59-9.12z" fill="#f09051" stroke-width="none" opacity="1" stroke="none"></path><path id="SvgjsPath99399" d="M60.61 88.64c-.45-1.26-.95-2.5-1.45-3.74a49.61 49.61 0 0 0-1.66-3.64c-.61-1.18-1.22-2.36-1.97-3.45l-.08-.12-.08.12c-.75 1.18-1.45 2.38-2.12 3.62-.33.62-.66 1.25-.96 1.89-.31.64-.57 1.31-.84 1.98l-.04.1.04.12c.46 1.41.96 2.79 1.47 4.18.25.69.54 1.37.83 2.05.3.68.59 1.35.99 2.01l.19.31.25-.23c.34-.31.6-.65.87-1.02.26-.37.49-.76.69-1.17.4-.82.63-1.78.6-2.74v-.06l-.02-.04c-.5-.99-1.03-1.96-1.55-2.94l-.05.03c.42 1.01.83 2.03 1.26 3.03-.04.86-.3 1.68-.68 2.41-.33.62-.77 1.17-1.24 1.65-.26-.49-.5-1.02-.73-1.56l-.81-2.03c-.53-1.32-1.03-2.66-1.52-3.99.45-1.3.94-2.59 1.52-3.82.57-1.23 1.22-2.41 1.96-3.51.67 1.04 1.17 2.23 1.68 3.39l1.54 3.67 1.56 3.67c.52 1.22 1.05 2.45 1.6 3.66l.06-.03c-.41-1.27-.85-2.54-1.31-3.8z" fill="#d1651d" stroke-width="none" opacity="1" stroke="none"></path></g></g><g id="svga-group-ears-right-move" transform="matrix(1,0,0,1,0,1)"><g id="svga-group-ears-right"><path id="SvgjsPath99400" d="M131.47 80.36s11.15-9.8 12.94-9.96c1.54-.14 5.36 8.01 7.05 13.16.45 1.36.34 2.88-.25 4.2-1.62 3.57-5.21 11.04-8.43 14.78 0 0-2.72.59-3.58.33-.86-.25-7.58-5.67-8.27-7.77s-.83-11.3.54-14.74z" fill="#ffa970" stroke-width="none" opacity="1" stroke="none"></path><path id="SvgjsPath99401" d="M131.44 80.33c1.58-1.52 3.17-2.97 4.81-4.38 1.62-1.42 3.28-2.8 5-4.09.88-.63 1.69-1.29 2.75-1.76.16-.04.28-.11.47-.12.21 0 .38.08.52.16.28.17.49.37.67.59.38.43.7.89 1 1.36 1.18 1.89 2.07 3.96 2.94 6.02.43 1.04.82 2.09 1.22 3.15.19.53.38 1.06.56 1.6.18.53.37 1.08.44 1.67.17 1.17-.04 2.41-.54 3.46l-1.41 3.11c-.97 2.06-1.96 4.11-3.06 6.1-1.11 1.98-2.29 3.92-3.74 5.65l-.08.1-.13.03c-.58.13-1.15.23-1.73.32-.59.07-1.16.16-1.82.09-.18-.02-.37-.11-.53-.19l-.4-.24c-.25-.17-.5-.34-.74-.52-.48-.36-.95-.73-1.42-1.11-.93-.76-1.83-1.56-2.71-2.4-.87-.86-1.75-1.69-2.47-2.8a3.42 3.42 0 0 1-.46-.96c-.1-.35-.14-.69-.2-1.02-.08-.67-.14-1.33-.17-1.99-.07-1.33-.07-2.65-.01-3.98.06-1.32.15-2.65.33-3.96.17-1.34.4-2.65.91-3.89zm.06.06c-.4 1.21-.56 2.54-.66 3.84-.1 1.3-.15 2.61-.15 3.92.01 1.31.06 2.61.15 3.9.05.65.12 1.29.21 1.91.06.31.11.62.19.89.09.26.2.47.38.72.66.94 1.54 1.79 2.39 2.61.86.81 1.76 1.59 2.68 2.34.46.37.92.73 1.39 1.08l.7.5.35.22c.1.05.17.1.28.11.99.1 2.2-.13 3.29-.33l-.21.13c1.4-1.63 2.61-3.51 3.76-5.42 1.14-1.92 2.24-3.89 3.26-5.91.51-1.01 1.02-2.02 1.49-3.05.49-.99.7-2.15.55-3.26-.07-.56-.26-1.07-.45-1.6s-.38-1.05-.59-1.57c-.4-1.04-.86-2.06-1.32-3.06-.93-2.01-1.95-3.97-3.11-5.77-.29-.44-.6-.88-.94-1.24-.17-.18-.35-.34-.51-.44a.431.431 0 0 0-.2-.07c-.06 0-.17.06-.26.08-.84.35-1.74 1.02-2.59 1.61-3.39 2.49-6.73 5.22-10.08 7.86z" fill="#f09051" stroke-width="none" opacity="1" stroke="none"></path><path id="SvgjsPath99402" d="M131.21 88.66s10.75-13.58 12.77-12.45c2.01 1.12 5.19 7.53 5.18 9.67-.02 3.14-3.34 8.38-5.01 9.96s-3.68 2.55-6.35 1.94c-2.66-.61-6.59-9.12-6.59-9.12z" fill="#f09051" stroke-width="none" opacity="1" stroke="none"></path><path id="SvgjsPath99403" d="M148.54 85.31c-.26-.67-.52-1.34-.84-1.98-.3-.64-.62-1.27-.96-1.89-.67-1.24-1.38-2.44-2.12-3.62l-.08-.12-.08.12c-.74 1.1-1.36 2.27-1.97 3.45-.6 1.18-1.14 2.4-1.66 3.64-.49 1.24-1 2.48-1.45 3.74-.46 1.26-.9 2.53-1.28 3.81l.06.03c.55-1.21 1.07-2.44 1.6-3.66l1.56-3.67 1.54-3.67c.51-1.16 1.01-2.35 1.68-3.39.74 1.1 1.39 2.29 1.96 3.51.58 1.24 1.08 2.52 1.52 3.82-.5 1.34-.99 2.67-1.52 3.99l-.81 2.03c-.23.53-.47 1.07-.73 1.56-.47-.48-.91-1.03-1.24-1.65-.39-.73-.64-1.55-.68-2.41.43-1 .84-2.02 1.26-3.03l-.05-.03c-.52.98-1.05 1.95-1.55 2.94l-.02.04v.06c-.03.96.2 1.92.6 2.74.2.41.43.81.69 1.17.26.36.53.71.87 1.02l.25.23.19-.31c.4-.67.69-1.34.99-2.01.29-.68.57-1.36.83-2.05.51-1.38 1.01-2.77 1.47-4.18l.04-.12-.07-.11z" fill="#d1651d" stroke-width="none" opacity="1" stroke="none"></path></g></g><g id="svga-group-faceshape-wrap"><g id="svga-group-faceshape-single"><path id="SvgjsPath99482" d="M143.2 113.8c-.6-7.1-3.8-21.3-4-26.7s.5-17.6.5-17.6l.3-3.2s.8-7.3-.1-11.5c-2.2-10-6.1-15.8-15-20.6-9.3-5-25-4.9-25-4.9s-15.8-.2-25.1 4.8C66.1 39 62 44.7 59.8 54.7c-.9 4 .1 13.8.1 13.8s1.2 13.7 1 19.1-1.6 19.2-2.2 26.4c-.6 7.1 1.3 24.2 15 26 10.1 1.3 12.6 1.4 12.6 1.4 5 8 13.7 6.4 13.7 6.4s8.8 1.4 13.8-6.6c0 0 2.9.3 12.9-1 13.9-1.8 17.2-19.3 16.5-26.4z" fill="#ffa970" stroke-width="none" opacity="1" stroke="none"></path><path id="SvgjsPath99483" d="M143.2 113.8c-.5-5.6-1.6-11.1-2.5-16.6-.5-2.8-.9-5.5-1.2-8.3-.2-2.8-.1-5.6 0-8.4.1-2.8.3-5.6.5-8.4.1-2.8.5-5.5.7-8.4.2-2.8.3-5.6-.2-8.5-.6-2.8-1.3-5.5-2.5-8.2-1.1-2.7-2.7-5.1-4.7-7.2-2-2.1-4.3-3.8-6.8-5.2-1.2-.7-2.5-1.4-3.8-1.9-1.3-.5-2.7-1-4-1.4-2.7-.8-5.5-1.3-8.3-1.6-5.6-.7-11.2-.9-16.8-.4-5.6.5-11.2 1.4-16.4 3.5-1.3.5-2.6 1.2-3.8 1.9-1.2.7-2.4 1.5-3.5 2.4-2.2 1.7-4.3 3.7-5.8 6.1-1.6 2.3-2.7 5-3.6 7.6-.4 1.3-.8 2.7-1.1 4.1-.3 1.4-.3 2.8-.4 4.2-.1 5.7.6 11.2.9 16.8.2 2.8.3 5.6.4 8.4.1 2.8-.1 5.5-.4 8.3l-1.6 16.7-.4 4.2c-.1 1.4-.2 2.9-.1 4.3.1 2.8.5 5.7 1.2 8.5.8 2.8 1.9 5.5 3.5 7.9 1.7 2.4 4 4.4 6.8 5.5 1.4.6 2.8.9 4.2 1.1l4.2.5 8 .9c.7 1 1.5 2.1 2.5 2.9 1 1 2.2 1.7 3.5 2.3 1.3.6 2.6 1 4 1.2 1.4.2 2.7.2 4.1 0 1.4.1 2.8.1 4.1-.1 1.4-.2 2.8-.6 4-1.3 1.3-.6 2.5-1.4 3.5-2.4 1-.9 1.8-1.9 2.5-3 1.9 0 3.8-.2 5.6-.3 2-.2 3.9-.4 5.9-.7 1.9-.2 3.9-.8 5.8-1.6.5-.2.9-.5 1.3-.7.4-.3.9-.5 1.3-.8.8-.6 1.6-1.2 2.2-2 2.8-2.9 4.6-6.5 5.7-10.3.6-1.9 1-3.8 1.2-5.8.4-1.8.5-3.8.3-5.8zm-.3 5.9c-.2 1.9-.7 3.9-1.3 5.7-.6 1.9-1.4 3.7-2.3 5.4-1 1.7-2.1 3.3-3.5 4.6-.6.7-1.4 1.3-2.2 1.9-.4.3-.8.5-1.2.8-.4.2-.8.5-1.3.7-1.8.8-3.6 1.2-5.6 1.4-1.9.2-3.9.4-5.8.6-1.9.1-3.9.3-5.8.2h-.3l-.2.3c-.8 1.1-1.5 2.1-2.5 2.9-.9.9-2.1 1.6-3.2 2.1-1.2.5-2.4.9-3.7 1.1-1.3.2-2.6.2-3.8.1h-.2c-1.2.2-2.5.1-3.8-.1-1.2-.2-2.5-.6-3.6-1.1s-2.2-1.2-3.1-2.1c-.9-.8-1.7-1.9-2.4-2.9l-.2-.3-.4-.1-8.3-1-4.2-.5c-1.3-.2-2.6-.5-3.8-1-2.4-1-4.5-2.8-6.1-5-1.6-2.2-2.6-4.7-3.4-7.3-.7-2.6-1.1-5.4-1.2-8.1 0-1.4 0-2.7.1-4.1l.4-4.2c.5-5.6 1-11.2 1.4-16.8 1.1-11.3-1.3-22.5-1.4-33.6 0-1.4 0-2.8.3-4.1.3-1.3.6-2.7 1-4 .8-2.7 1.9-5.2 3.5-7.5 1.5-2.3 3.5-4.3 5.7-6 2.2-1.7 4.6-3.2 7.2-4.2 2.6-1 5.3-1.7 8-2.2 2.7-.5 5.5-.9 8.3-1 5.6-.4 11.2-.1 16.7.7 5.5.8 11 2.2 15.7 5 2.4 1.4 4.6 3.1 6.4 5.1 1.9 2 3.3 4.3 4.4 6.8 1.1 2.5 1.9 5.2 2.5 7.9.5 2.7.4 5.5.3 8.2-.1 2.7-.4 5.6-.5 8.4-.1 2.8-.2 5.6-.2 8.4 0 2.8-.1 5.6.2 8.4.3 2.8.9 5.5 1.3 8.3.9 5.5 2.1 11 2.7 16.6-.2 1.7-.4 3.7-.6 5.6z" fill="#d1651d" stroke-width="none" opacity="1" stroke="none"></path><path id="SvgjsPath99484" d="M98.2 142.9s.8-3.7 4.1-4.6c3.3-1-4.1 4.6-4.1 4.6z" fill="#e07a36" stroke-width="none" opacity="1" stroke="none"></path></g></g><g id="svga-group-mouth-single-move" transform="matrix(1,0,0,1,0,-2)"><g id="svga-group-mouth-single"><path id="SvgjsPath99577" d="M86.27 129.4s3.6 2.25 7.4 1.38c4.96-1.13 5.2-2.97 8.34-1.13 2.62 1.54 8.98 1.66 11.25.22 0 0-1.88-6.63-9.14-8.71-7.27-2.07-16.06 1.46-17.85 8.24z" fill="#d33346" stroke-width="none" opacity="1" stroke="none"></path><path id="SvgjsPath99578" d="M84.48 128.4c1.13.69 2.31 1.27 3.55 1.69 1.23.42 2.52.69 3.78.64.64-.02 1.23-.15 1.87-.33.63-.17 1.25-.35 1.86-.58.61-.22 1.21-.46 1.81-.72.6-.25 1.2-.58 1.97-.68.38-.05.79.01 1.12.1.35.1.67.22.98.36.62.27 1.21.59 1.79.85a8 8 0 0 0 .87.36c.15.05.28.08.44.11l.48.09c.64.11 1.29.19 1.93.25 1.29.11 2.6.12 3.89-.07 1.28-.17 2.56-.58 3.62-1.37-.95.94-2.25 1.46-3.55 1.76-1.31.29-2.66.36-4 .3-.67-.02-1.34-.1-2-.19l-.5-.08c-.17-.03-.36-.07-.52-.12-.34-.1-.66-.23-.97-.37-.62-.28-1.2-.58-1.79-.83-.59-.25-1.18-.46-1.71-.39-.55.07-1.15.36-1.76.61-.61.26-1.24.51-1.88.72s-1.29.38-1.94.54c-.33.07-.65.15-1 .21-.34.04-.69.07-1.03.07-1.38 0-2.71-.37-3.94-.89-1.18-.54-2.34-1.21-3.37-2.04z" fill="#c41c30" stroke-width="none" opacity="1" stroke="none"></path><path id="SvgjsPath99579" d="M107.14 134.93c-4.96 1.97-11.24 2.79-15.8-.6-.17-.13-.34.14-.22.28 1.94 2.24 4.96 2.96 7.82 3.05 2.91.09 6.25-.2 8.46-2.28.18-.18-.01-.55-.26-.45z" fill="#e07a36" stroke-width="none" opacity="1" stroke="none"></path></g></g><g id="svga-group-eyes-left-move" transform="matrix(1,0,0,1,1,0)"><g id="svga-group-eyes-left" transform="matrix(1.0500002000000002,0,0,1.0500002000000002,-4.010015887411512,-4.365017231117264)"><g id="svga-group-eyesback-left"><path id="SvgjsPath100441" d="M80.2 74.2c7.5 0 13.5 5.8 13.5 13s-6 13-13.5 13-13.5-5.8-13.5-13 6-13 13.5-13z" fill="#ffffff" stroke-width="none" opacity="1"></path></g><g id="svga-group-eyesiriswrapper-left" transform="matrix(1,0,0,1,0,0)"><g id="svga-group-eyesiriscontrol-left" transform="matrix(1,0,0,1,2,0)"><g id="svga-group-eyesiris-left"><path id="SvgjsPath99519" d="M80.2 81.6c3.1 0 5.6 2.5 5.6 5.6s-2.5 5.6-5.6 5.6-5.6-2.5-5.6-5.6 2.5-5.6 5.6-5.6z" fill="#51929f" stroke-width="none" opacity="1"></path><path id="SvgjsPath99520" d="M80.2 84.2c1.7 0 3 1.3 3 3s-1.3 3-3 3-3-1.3-3-3 1.3-3 3-3z" fill="#000000" stroke-width="none" opacity="1"></path><path id="SvgjsPath99521" d="m79.5 84.8-.6-.6c-.2-.2-.5-.3-.8-.3s-.6.1-.8.3c-.2.2-.3.5-.3.8s.1.6.3.8l.6.6c.2.2.5.3.7.3.3 0 .6-.1.7-.3.6-.6.6-1.2.2-1.6zm2.7 5.1c1 0 1-1.5 0-1.5-.9 0-.9 1.5 0 1.5z" fill="#ffffff" stroke-width="none" opacity="1"></path></g></g></g><g id="svga-group-eyesfront-left"><path id="SvgjsPath100449" d="M80.2 73.7c-7.8 0-14.1 6.1-14.1 13.6s6.3 13.6 14.1 13.6 14.1-6.1 14.1-13.6S88 73.7 80.2 73.7zM79 90.6c-6.5-.3-11.9-2.5-12.1-2.9s4.4-3.8 14.1-3.4c9.7.5 11.6 5.2 11.6 5.2-1.6 1-7.2 1.4-13.6 1.1z" fill="#ffa970" stroke-width="none" opacity="1"></path><path id="SvgjsPath100450" d="M86 90.8c1.1-.1 2.3-.2 3.4-.3.6-.1 1.1-.2 1.7-.3.6-.2 1.1-.3 1.6-.6-.2-.6-.6-1-.9-1.4l-.6-.6c-.2-.2-.4-.4-.7-.5-.9-.7-2-1.2-3-1.6-2.2-.8-4.5-1.1-6.7-1.2-2.3-.1-4.6.1-6.8.6-1.1.2-2.2.5-3.3.8-1.1.4-2.2.8-3.1 1.4l-.3.3c-.1.1-.2.2-.3.4v.2s0 .1.1.1l.1.1.2.1c.1.1.3.1.4.2.5.3 1.1.5 1.6.7 1.1.4 2.2.7 3.3 1 2.2.5 4.5.9 6.8 1 1.9-.2 4.2-.3 6.5-.4zm-16.8-2.3c-.5-.2-1.1-.4-1.6-.6-.1-.1-.2-.1-.4-.2l-.2-.1c0-.1.1-.2.2-.2l.3-.3c.9-.6 1.9-1.1 3-1.5 1.1-.4 2.2-.7 3.3-.8 2.2-.4 4.5-.4 6.8-.3 1.1.1 2.2.2 3.4.3.6.1 1.1.2 1.7.3.5.2 1.1.3 1.6.5 1.1.3 2.1.8 3 1.4.9.6 1.8 1.4 2.3 2.4-.5.2-1.1.4-1.6.5-.6.1-1.1.2-1.7.2-1.1.1-2.2.2-3.4.2-2.3.1-4.5 0-6.8-.1-2.2-.1-4.5-.4-6.7-.9-1-.1-2.1-.4-3.2-.8z" fill="#430e0e" stroke-width="none" opacity="1"></path><path id="SvgjsPath100451" d="M76.9 94.9C88.7 96.3 93.6 91 93.6 91c-8.1 4.6-16.7 3.9-16.7 3.9zm7.9-13.1c4.3 1.4 5.9 2.8 5.9 2.8s-1.1-1.4-6.1-3.2c-5-1.8-14.6.4-14.6.4s10.2-1.6 14.8 0z" fill="#e07a36" stroke-width="none" opacity="1"></path></g></g></g><g id="svga-group-eyes-right-move" transform="matrix(1,0,0,1,-1,0)"><g id="svga-group-eyes-right" transform="matrix(1.0500002000000002,0,0,1.0500002000000002,-5.990024303324148,-4.365017231117264)"><g id="svga-group-eyesback-right"><path id="SvgjsPath100442" d="M119.8 74.2c7.5 0 13.5 5.8 13.5 13s-6 13-13.5 13-13.5-5.8-13.5-13 6-13 13.5-13z" fill="#ffffff" stroke-width="none" opacity="1"></path></g><g id="svga-group-eyesiriswrapper-right" transform="matrix(1,0,0,1,0,0)"><g id="svga-group-eyesiriscontrol-right" transform="matrix(1,0,0,1,2,0)"><g id="svga-group-eyesiris-right"><path id="SvgjsPath99522" d="M119.8 82.3c2.7 0 4.9 2.2 4.9 4.9s-2.2 4.9-4.9 4.9-4.9-2.2-4.9-4.9 2.2-4.9 4.9-4.9z" fill="#51929f" stroke-width="none" opacity="1"></path><path id="SvgjsPath99523" d="M119.8 84.6c1.4 0 2.6 1.2 2.6 2.6s-1.2 2.6-2.6 2.6-2.6-1.2-2.6-2.6 1.2-2.6 2.6-2.6z" fill="#000000" stroke-width="none" opacity="1"></path><path id="SvgjsPath99524" d="M119.2 85.1c-.2-.2-.3-.4-.5-.5-.2-.2-.4-.3-.7-.3-.2 0-.5.1-.7.3-.2.2-.3.4-.3.7 0 .2.1.5.3.7.2.2.4.3.5.5.2.2.4.3.7.3.2 0 .5-.1.7-.3.3-.5.3-1.1 0-1.4zm2.4 4.5c.8 0 .9-1.3 0-1.3-.8-.1-.8 1.3 0 1.3z" fill="#ffffff" stroke-width="none" opacity="1"></path></g></g></g><g id="svga-group-eyesfront-right"><path id="SvgjsPath100452" d="M119.8 73.7c-7.8 0-14.1 6.1-14.1 13.6s6.3 13.6 14.1 13.6 14.1-6.1 14.1-13.6-6.3-13.6-14.1-13.6zm.5 15.6c-6.4.2-11.3.4-13-.4 0 0 1.9-3.6 11.5-3.9 9.6-.4 14.2 2.3 14 2.6-.2.3-6.1 1.5-12.5 1.7z" fill="#ffa970" stroke-width="none" opacity="1"></path><path id="SvgjsPath100455" d="M132.8 87.3c-.1-.1-.2-.2-.4-.2-2-1-4.2-1.4-6.4-1.8-2.2-.3-4.4-.5-6.6-.5-2.2 0-4.4.3-6.6.8-1.1.3-2.1.7-3.1 1.2-.5.2-1 .6-1.4.9-.4.4-.8.7-1.1 1.3.5.3 1.1.4 1.6.5.6.1 1.1.2 1.7.2 1.1.1 2.2.1 3.3.1 2.2 0 4.4-.1 6.6-.1 2.2-.1 4.4-.3 6.6-.6 1.1-.2 2.2-.3 3.3-.6.5-.1 1.1-.2 1.6-.4.3-.1.5-.2.8-.3 0 0 .1 0 .1-.1l.1-.1s.1-.1.1-.2c-.1-.1-.2-.1-.2-.1zm-1 .4c-.5.1-1.1.2-1.6.3-1.1.2-2.2.3-3.2.5-2.2.3-4.4.4-6.6.5l-6.6.2c-1.1 0-2.2.1-3.3 0-.6 0-1.1 0-1.6-.1s-1.1-.1-1.6-.3c.3-.4.7-.8 1.2-1.1.4-.3.9-.6 1.4-.8 1-.5 2-.8 3.1-1.1 2.1-.5 4.3-.7 6.5-.8 2.2-.1 4.4-.1 6.6.2 1.1.1 2.2.4 3.2.7s2.1.7 3 1.2c.1.1.2.1.3.2-.3.3-.5.4-.8.4z" fill="#430e0e" stroke-width="none" opacity="1"></path><path id="SvgjsPath100456" d="M107.1 90.3s4.8 5.2 16.5 3.9c0-.1-8.5.6-16.5-3.9zm6-6.1c4.4-2.2 14.4-2.2 14.4-2.2s-9.7-.7-14.3 1.8c-4.7 2.5-5.5 4-5.5 4s1.4-1.6 5.4-3.6z" fill="#e07a36" stroke-width="none" opacity="1"></path></g></g></g><g id="svga-group-facehighlight-single"></g><g id="svga-group-eyebrows-left-move" transform="matrix(1,0,0,1,0,1)"><g id="svga-group-eyebrows-left-rotate" transform="matrix(0.9914448590956985,0.13052620952402866,-0.13052620952402866,0.9914448590956985,9.863011184979172,-9.782041295515072)"><g id="svga-group-eyebrows-left" transform="matrix(0.8999996000000001,0,0,0.8999996000000001,7.95543686617583,7.034948641390983)"><path id="SvgjsPath99342" d="M91.5 72.22s-1.28 2.06-2.36 1.59c-1.08-.48-6.27-3.19-9.56-2.78-3.29.41-5.17 2.39-5.17 2.39l-1.48.75.48.39s-3.13 2.59-3.97 2.55c-.84-.04-2.04-1.27-1.97-3.59.07-2.32 3.08-5.09 3.08-5.09s-.48.18-1.49.66c0 0 1.23-1.86 4.52-3.33 3.3-1.47 9.08-1.46 10.9-.54L84 64.16s4.38 1.8 5.44 3.25l.17-1.09c-.01-.01 2.89 2.54 1.89 5.9z" fill="#deb98a" stroke-width="none" opacity="1" stroke="none"></path><path id="SvgjsPath99343" d="M91.49 68.91c-.18-.54-.44-1.04-.74-1.5-.3-.46-.63-.89-1.03-1.27l-.24-.24-.07.37-.11.62c-.3-.32-.63-.57-.97-.8-.45-.31-.91-.59-1.38-.85-.94-.52-1.88-.99-2.86-1.42l-.75-.33.37.82.13.29c-.45-.13-.9-.21-1.35-.28-.7-.09-1.4-.13-2.1-.13-1.4 0-2.79.12-4.17.4-.69.14-1.37.32-2.04.56-.67.25-1.31.56-1.94.91-.63.35-1.23.76-1.8 1.23-.57.47-1.11.97-1.57 1.63l-.57.81.85-.4.47-.22c-.59.67-1.12 1.39-1.57 2.19-.31.58-.58 1.22-.67 1.92-.07.7 0 1.4.21 2.07.21.66.58 1.27 1.11 1.65.27.18.58.32.92.25.31-.08.58-.23.85-.37 1.06-.62 2.06-1.35 3.04-2.11l.2-.16-.21-.18-.2-.17 1.19-.57.02-.01.04-.03c.56-.52 1.23-.95 1.91-1.29.68-.35 1.4-.61 2.13-.78.74-.17 1.47-.28 2.22-.21.75.06 1.5.2 2.25.38 1.49.39 2.96.93 4.41 1.55l1.08.48c.18.08.36.16.55.23.21.08.44.07.64.01.4-.13.72-.41 1.01-.71.29-.31.53-.65.75-1.02.15-.53.28-1.09.25-1.66.02-.56-.07-1.13-.26-1.66zm.1 2.7-.04.2-.08.4c-.23.33-.51.64-.8.92-.29.27-.62.51-.96.59-.17.03-.35.03-.5-.04-.17-.08-.35-.17-.53-.26l-1.07-.53c-1.43-.69-2.9-1.32-4.42-1.75-.76-.21-1.54-.38-2.33-.44l-.6-.02c-.2 0-.4.02-.6.03a9.226 9.226 0 0 0-3.41 1.05c-.7.38-1.35.84-1.95 1.43l-1.44.78-.31.16.28.22.28.22c-.87.74-1.77 1.46-2.72 2.05-.26.15-.52.3-.79.37-.25.06-.54-.06-.78-.22-.49-.34-.84-.92-1.02-1.54-.19-.62-.25-1.31-.18-1.95.08-.64.35-1.24.67-1.79.65-1.09 1.5-2.04 2.4-2.87l.95-.87-1.14.47-.45.19c.23-.21.47-.42.71-.61.55-.43 1.14-.8 1.75-1.13.61-.33 1.24-.62 1.87-.84.64-.21 1.3-.38 1.97-.5.67-.12 1.34-.21 2.02-.26.68-.07 1.36-.08 2.04-.09.68.01 1.36.04 2.03.12.66.09 1.35.2 1.92.47l.82.38-.42-.88-.11-.24c.7.3 1.39.62 2.07.97.46.24.92.5 1.36.79.43.28.87.6 1.18.98l.31.38.07-.49.1-.7c.27.27.52.57.75.88.3.42.56.89.76 1.38.21.49.32 1.03.37 1.57l.02.41-.03.41c-.01.06-.01.13-.02.2z" fill="#cfa36c" stroke-width="none" opacity="1" stroke="none"></path></g></g></g><g id="svga-group-eyebrows-right-move" transform="matrix(1,0,0,1,0,1)"><g id="svga-group-eyebrows-right-rotate" transform="matrix(0.9914448613738104,-0.13052619222005174,0.13052619222005174,0.9914448613738104,-8.48751139050296,16.416877781350024)"><g id="svga-group-eyebrows-right" transform="matrix(0.8999996000000001,0,0,0.8999996000000001,12.099330471102888,7.295593070805353)"><path id="SvgjsPath99344" d="M109.22 76.81s1.57 1.57 2.57.99 5.71-3.72 9.02-3.89c3.31-.17 5.46 1.24 5.46 1.24l1.57.41-.41.41s3.48 1.74 4.3 1.57c.83-.17 1.82-1.41 1.41-3.39-.41-1.99-3.81-3.89-3.81-3.89s.5.08 1.57.33c0 0-1.49-1.41-4.96-2.15s-9.18.17-10.84 1.24l.33-.99s-4.05 2.23-4.88 3.64l-.33-.91c-.01.01-2.49 2.66-1 5.39z" fill="#deb98a" stroke-width="none" opacity="1" stroke="none"></path><path id="SvgjsPath99345" d="M133.17 73.9c-.19-.59-.55-1.09-.95-1.55-.56-.62-1.2-1.16-1.88-1.64l.5.12.9.21-.69-.61c-.56-.49-1.16-.84-1.8-1.15-.63-.31-1.29-.57-1.96-.77-.67-.2-1.35-.37-2.05-.48-.7-.1-1.4-.15-2.1-.16-1.4-.03-2.79.09-4.17.31-.69.11-1.37.25-2.05.44-.43.13-.87.27-1.29.45l.09-.27.25-.76-.69.4c-.9.52-1.76 1.07-2.61 1.66-.42.3-.83.61-1.23.95-.3.25-.58.54-.83.86l-.21-.54-.12-.31-.21.24c-.33.39-.6.81-.83 1.25-.23.44-.4.91-.5 1.4-.11.49-.11 1-.04 1.49.05.5.27.96.5 1.39.28.29.57.54.89.76.33.21.69.4 1.11.45.21.02.43-.01.63-.11.18-.09.34-.19.51-.29l1-.58c1.34-.76 2.71-1.45 4.12-2.02.71-.27 1.43-.52 2.16-.68.73-.17 1.47-.2 2.23-.17.75.03 1.5.15 2.22.34.72.19 1.45.45 2.08.81l.04.02.03.01 1.26.3-.17.18-.18.19.22.1c1.08.5 2.17.97 3.31 1.34.29.08.58.17.9.19.34 0 .63-.17.87-.36.47-.41.74-1 .85-1.6.1-.6.06-1.22-.11-1.81zm-.09 1.78c-.09.56-.35 1.12-.78 1.48-.21.17-.48.32-.74.31-.27-.02-.56-.11-.84-.19-1.03-.35-2.02-.84-2.99-1.33l.24-.23.24-.23-.33-.09-1.54-.44a8.24 8.24 0 0 0-2.14-.92 10.3 10.3 0 0 0-2.34-.38c-.4-.02-.79-.02-1.19.01-.2.02-.4.04-.6.07l-.59.11c-.77.18-1.51.44-2.23.75-1.44.61-2.79 1.38-4.11 2.19l-.98.62c-.16.1-.32.22-.48.31-.14.08-.31.12-.49.11-.36-.02-.71-.17-1.04-.36-.32-.19-.64-.42-.92-.67l-.14-.33-.07-.16c-.02-.06-.03-.12-.05-.17l-.09-.35-.04-.35c-.04-.47 0-.95.13-1.41.13-.46.31-.89.54-1.31.18-.31.39-.6.61-.88l.2.59.14.41.25-.37c.25-.38.63-.72 1.02-1.03.39-.31.8-.61 1.22-.89.62-.41 1.25-.79 1.9-1.16l-.08.22-.28.82.76-.45c.53-.32 1.19-.53 1.83-.7a26 26 0 0 1 1.99-.42c.67-.1 1.35-.2 2.02-.25.68-.06 1.36-.09 2.03-.09.68 0 1.35.04 2.02.12.66.09 1.32.24 1.97.43.65.19 1.29.41 1.9.7.27.12.54.26.8.41l-.47-.09-1.2-.23 1.06.6c1.01.57 1.99 1.25 2.8 2.09.4.42.76.89.93 1.43.19.53.24 1.13.15 1.7z" fill="#cfa36c" stroke-width="none" opacity="1" stroke="none"></path></g></g></g><g id="svga-group-beardwrap"><g id="svga-group-beard-single-move" transform="matrix(1,0,0,1,0,3)"><g id="svga-group-beard-single" transform="matrix(0.9499998000000001,0,0,0.9499998000000001,0,0)"></g></g></g><g id="svga-group-mustache-single-move" transform="matrix(1,0,0,1,0,0)"><g id="svga-group-mustache-single"></g></g><g id="svga-group-nose-single-move" transform="matrix(1,0,0,1,0.5,1)"><g id="svga-group-nose-single"><path id="SvgjsPath99554" d="M103.78 79.27s-5.31-.41-8.3.62-2.96 2.84-2.86 4.28.2 4.84.82 5.76-.1 2.58-.41 3.2.25 6.61.66 8.26c.41 1.65.99 3.71.37 4.13s-3.1 1.24-3.2 2.17 2.79 7.95 3.41 8.47 11.05.41 11.98.52 4.44-7.12 4.03-8.36-3.72-1.45-4.03-2.37 1.4-13.03 1.19-13.65-.26-2.75.36-4.2.33-6.27.27-6.7c-.27-1.7-3.67-1.92-4.29-2.13z" fill="#f79c60" stroke-width="none" opacity="1" stroke="none"></path><path id="SvgjsPath99555" d="M103.77 79.32c-2.16-.13-4.39-.07-6.51.36-1.05.22-2.1.54-2.95 1.11-.42.29-.78.64-1 1.07-.22.42-.31.9-.32 1.41-.01.5.07 1.05.1 1.6l.12 1.63c.05.54.11 1.08.18 1.6.08.52.17 1.06.35 1.46l.2.36c.07.17.12.34.15.51.05.34.03.65-.02.96-.1.6-.3 1.15-.55 1.67-.05.12-.15.3-.14.29-.02.08-.04.21-.04.34-.02.26-.02.52-.02.79 0 .54.02 1.08.05 1.62.06 1.09.14 2.18.25 3.26.06.54.12 1.08.21 1.61.09.52.24 1.06.35 1.6.12.54.23 1.08.29 1.64.02.28.04.57-.01.86-.03.15-.07.31-.18.45-.13.16-.27.21-.39.28-.5.25-1 .46-1.48.71-.47.25-.97.52-1.27.9-.07.1-.12.2-.13.3-.01.09.02.23.04.35.06.26.13.52.22.78.16.52.35 1.03.54 1.54.38 1.02.81 2.03 1.26 3.02.23.5.46.99.71 1.47.12.24.25.48.39.71.07.11.14.23.21.31.03.05.07.07.05.06.02.01.08.03.14.04.49.09 1.05.11 1.59.14.54.02 1.09.03 1.63.04 2.18.02 4.37.02 6.56.02.55 0 1.09 0 1.66.02l.22.01c.02 0 .06.01.05 0-.02-.01-.05 0-.06 0l-.03.01c.02-.01.11-.08.18-.16.16-.17.31-.38.46-.59.58-.87 1.08-1.84 1.54-2.81.45-.97.87-1.98 1.18-2.98.07-.25.14-.5.18-.74.04-.23.05-.48.02-.49-.08-.22-.55-.49-1.02-.67-.48-.2-.99-.36-1.53-.56-.27-.11-.54-.21-.84-.39-.15-.09-.3-.2-.45-.39-.07-.1-.15-.22-.19-.35-.02-.06-.03-.13-.04-.19l-.01-.13c-.02-.64.03-1.16.08-1.72l.16-1.65c.23-2.19.52-4.36.81-6.53.14-1.08.31-2.18.39-3.23 0-.07.01-.13.01-.18V92.41l-.02-.06c-.04-.16-.06-.31-.07-.45-.03-.29-.03-.57-.03-.86.01-.56.08-1.12.19-1.68.06-.28.13-.55.22-.82.09-.27.22-.54.3-.76.16-.5.22-1.04.28-1.58.11-1.08.11-2.18.09-3.27-.03-.54-.02-1.1-.11-1.62-.13-.52-.59-.88-1.06-1.12-.97-.51-2.07-.63-3.14-.87zm.02-.1c1.06.23 2.18.35 3.18.85.49.24.98.62 1.13 1.19.1.56.1 1.1.13 1.65.06 1.1.08 2.19.04 3.3-.03.55-.06 1.1-.2 1.66-.08.3-.19.53-.25.78-.07.25-.12.51-.16.78-.08.53-.1 1.06-.08 1.59.01.26.03.53.07.78.02.12.05.25.08.35l.01.04.02.09c.01.07.01.11.02.15.01.08.01.16.01.23-.02 1.13-.12 2.21-.21 3.31-.19 2.19-.42 4.36-.63 6.53l-.14 1.63c-.04.53-.08 1.1-.06 1.56.02.15-.01.04.01.09.02.03.09.09.18.14.17.11.41.21.65.3.49.19 1.02.35 1.56.57.27.11.54.24.82.41.27.18.57.41.76.81.02.05.04.1.06.16.02.07.03.13.04.19.02.11.02.21.01.3-.01.18-.03.33-.06.49-.06.3-.14.58-.22.85-.35 1.09-.8 2.1-1.28 3.1-.49 1-1.01 1.98-1.66 2.92-.17.24-.34.47-.56.7-.12.11-.23.23-.45.35-.06.03-.13.06-.23.07-.04.01-.11.01-.16.01h-.05l-.19-.01-1.63-.05c-2.19-.06-4.38-.09-6.58-.21-.55-.03-1.1-.07-1.65-.11-.55-.05-1.09-.09-1.68-.22-.08-.02-.15-.04-.25-.09-.02-.01-.06-.03-.09-.06-.03-.02-.04-.04-.06-.06a.73.73 0 0 1-.09-.11c-.1-.13-.16-.25-.24-.38-.14-.25-.26-.5-.38-.75a49.4 49.4 0 0 1-.66-1.51c-.42-1.02-.82-2.04-1.2-3.07-.19-.52-.37-1.04-.53-1.57-.08-.27-.16-.53-.21-.81-.02-.14-.06-.28-.04-.46.02-.18.11-.32.2-.45.39-.47.9-.72 1.38-.99.49-.26 1-.48 1.47-.72.12-.06.24-.13.28-.19a.87.87 0 0 0 .11-.31c.03-.24.01-.51-.02-.77-.07-.53-.19-1.06-.33-1.59-.13-.53-.3-1.04-.42-1.6-.12-.55-.21-1.09-.29-1.63-.16-1.09-.3-2.18-.4-3.28-.05-.55-.1-1.1-.12-1.66-.01-.28-.02-.56-.01-.85.01-.15.01-.29.04-.48.07-.28.13-.33.18-.46.21-.47.38-.97.44-1.45.03-.24.04-.47 0-.68-.02-.1-.05-.19-.09-.28l-.2-.36c-.26-.6-.34-1.16-.43-1.72-.08-.56-.13-1.11-.17-1.66l-.09-1.65c-.01-.54-.07-1.08-.04-1.68.02-.58.16-1.21.49-1.74.31-.54.79-.94 1.29-1.24 1.01-.6 2.13-.84 3.23-.98 1.1-.15 2.2-.15 3.3-.17 1.1.03 2.19.05 3.3.13z" fill="#d1651d" stroke-width="none" opacity="1" stroke="none"></path><path id="SvgjsPath99556" d="M97.96 113.62c-.07-.26-.22-.5-.35-.73-.14-.24-.28-.51-.53-.64-.3-.16-.79.03-.75.43.03.29.17.48.3.73.11.21.18.44.29.65.31.56 1.21.18 1.04-.44z" fill="#d1651d" stroke-width="none" opacity="1" stroke="none"></path><path id="SvgjsPath99557" d="M103.46 112.66c-.02-.42-.52-.52-.75-.2-.35.49-.77 1.13-.79 1.74-.02.69.92.89 1.25.34.32-.52.31-1.29.29-1.88z" fill="#d1651d" stroke-width="none" opacity="1" stroke="none"></path></g></g><g id="svga-group-hair-front"><path id="SvgjsPath99602" d="M52.6 63.6s-2.3 16.1-12.4 22.2c0 0 4.2-.4 6.9-2.3 0 0-1 8.2 4.2 14.9 0 0-3.2-8.4-1.2-14.4s6.5-11.7 6.5-11.7 3.2 5.9 4.4 11.9c1.2 5.9.2 10 .2 10s4.4-13.6 2.3-20.9S62.3 54 62.3 54s6 3 10.9 3c0 0-6.3-3.1-7.5-6.9 0 0 6.3-1.5 12.4-.4 6.1 1.2 9.2 3.8 9.2 3.8s-4.8-6.3-11.1-8.4c0 0 13.8 0 22.2-3.1 0 0 2.3 2.3 8.8 2.1 6.5-.2 7.7-1.5 12.4-1.2s12.6 3.6 14.2 8.6 1.5 11.3 3.8 14.6c0 0-.2 11.1-3.2 14 0 0 2.7-3.2 3.6-6.1 0 0 6.5 10.9 14.9 13.4 0 0-4.8-5.6-5.6-8 0 0 9.4 4.8 10.5 12.2 0 0 .2-9.2-7.1-19 0 0 3.4 1.7 8.2.6 0 0-7.7-6.7-9.6-13.4 0 0 3.6 2.9 7.9 3.5 0 0-9.2-9-10.1-13.6 0 0 3.4-.6 7.1 1.5 0 0-2.7-9.6-12.4-15.5 0 0 3.6-1.3 5.2-3.6 0 0-8.8 2.5-12.6 2.3 0 0 2.3-3.8 3.6-8.2 0 0-8.6 2.9-13.8 1.5 0 0 5.4-6.5 6.7-9.6 0 0-14.9 7.1-22.8 5 0 0 11.7-8.8 14-14.4 0 0-18.4 8.8-25.1 9.2l1.5-2.9-5.9 3.1 1.3-2.1-3.1.2S78.9 21 73.6 28.8c0 0 2.7-6.5 2.9-12.2 0 0-2.7 3.1-5.4 5.4s-9.7 13.4-10.9 15-3.6 7-3.6 7-.6-9.8-5.4-13c0 0 4 5.7 3.5 16.3 0 0-3.6 5-11.9-2.7 0 0 1.2 6.3 10.9 6.5 0 0-8.4 6.3-8.6 18.4 0 0 2.9-7.1 7.5-5.9z" fill="#d7b68e" stroke-width="none" opacity="1" stroke="none"></path><path id="SvgjsPath99603" d="M129.9 19.4C118.8 36 96.3 45.7 76.5 44.7c-.4 0-.4.6 0 .6 10.8 1.2 21.9-2.5 31.7-6.8 8.8-3.9 18-9.8 22.3-18.8.2-.3-.3-.7-.6-.3zm-17.1 4.8c6.4-.1 12.9-2 18.2-5.8.3-.2 0-.7-.3-.5-5.7 3.2-11.3 5.3-17.9 5.8-.3.1-.3.5 0 .5zm22.5 8c.3-.2 0-.7-.3-.5-5.1 3.1-10.2 6-15.8 8.1-5.3 2.1-12.3 4.8-18 3.4-.4-.1-.5.5-.2.6 5.4 1.9 11.7-.7 16.8-2.5 6.2-2.2 12.2-5.1 17.5-9.1zm8.8 22.8c.2.3.6 0 .4-.3-5.2-9.5-16.8-12.7-27-12-.3 0-.3.5 0 .5 10.6.8 20 2.8 26.6 11.8zM158 72.8c.4.1.6-.5.3-.6-10-5.1-17.9-11.3-24.3-20.6-.2-.3-.6 0-.4.2 5.1 9.4 14.1 17.6 24.4 21zm-16.3-5.9c-.3-.2-.6.1-.4.4 4 4.3 10.4 6.2 16.1 6.4.4 0 .5-.7.1-.8-5.8-1.2-11.1-2.1-15.8-6zm11.2 19.9c-6.1-3.3-10.8-7.3-14.1-13.6-.2-.3-.7-.1-.6.2 2.6 6.2 7.9 11.9 14.4 14 .4.2.6-.4.3-.6zm-59-57.7c-.4.1-.2.7.2.6 11.8-3 24.1-11.1 29.5-22.3.1-.2-.2-.4-.4-.2-7.9 10.5-16.4 18.1-29.3 21.9zm4.7-10.6c7.8-2 15.7-4.4 22.4-8.9.3-.2 0-.6-.3-.5-7.1 4-14.6 6.4-22.2 9-.3 0-.2.4.1.4zM80 28.9c-.2.3.2.6.4.4 5.2-5.8 11-10.1 17.8-13.9.2-.1.1-.6-.2-.5-6.9 2.9-13.3 8-18 14zm-7.4 1.2c-.2.2.2.5.4.3 5.6-6 11.5-10.4 19-13.9.3-.1.1-.6-.2-.5-7.5 2.4-14.6 7.7-19.2 14.1zm-8.8 6.5c-.2.2.1.5.3.4 7.2-4.5 12.6-13.1 13.1-21.6 0-.3-.4-.3-.4-.1-2.2 8.8-6 15.4-13 21.3zm-7.5 8.3v.3c0 .7.1 1.3.1 2 0 .3.4.3.4 0 .1-.8.2-1.7.2-2.5C61 34.5 67.8 27 75.1 18.9c.3-.3-.2-.7-.4-.4-7.2 6.8-14.4 14.8-17.7 24.3-.2-4.5-1.8-9-5.5-11.9-.3-.2-.8.2-.5.5 4.1 3.6 5 8.4 5.3 13.5zm-2.2 4.9c-4.9 2.1-9.2-.6-10.8-5.4-.1-.3-.7-.3-.7.1.4 5.8 6.9 8.4 11.6 5.7.3 0 .1-.5-.1-.4zm1.4-2.4c-4.3 2.3-8.6.8-11.6-2.8-.2-.2-.5.1-.4.3 2.7 3.8 8.2 6.7 12.3 3.1.4-.3 0-.8-.3-.6zm-2 3.4c-5.9 4.5-8.7 11.6-8.9 18.9 0 .3.6.4.6.1 1.2-7.1 2.9-13.6 8.8-18.3.3-.4-.1-1-.5-.7zm-7.8 18.9c.8-2.7 3-4.7 5.6-5.8.4-.2.2-.7-.2-.6-3 .8-5.1 3.2-5.7 6.3-.1.2.2.3.3.1zm7-8.7C50.9 72.6 47 82.6 35.6 87.5c-.3.1-.1.6.2.5 11.9-2.7 16.7-16.2 17.7-27 .1-.4-.7-.5-.8 0zm101.2-13.2c.1.2.5.1.4-.2-1.8-5.5-6.8-9.8-12.1-12-.3-.1-.4.3-.2.5 5.2 3 8.6 6.9 11.9 11.7zm-7.1 1.6c1.9 5.5 6.3 10.8 10.8 14.4.2.2.6-.1.4-.3-3.6-4.8-7.9-8.8-10.8-14.2-.1-.4-.5-.2-.4.1zM47.2 83c0-.4-.6-.4-.6-.1-1.3 5.6.7 11.8 4.7 15.8.2.2.7-.1.5-.4-3.5-4.7-4.7-9.5-4.6-15.3zm105.4-5.7c-.3-.3-.7.2-.4.4 3.9 3.9 5.6 8.8 5.6 14.3 0 .3.5.4.6.1.8-5.6-1.6-11.1-5.8-14.8zm-91 9.5c-.1-7.1-5.2-12.6-4.5-20 0-.2-.4-.3-.4-.1-1.9 6.8 3.1 13.6 4.3 20.1.1.4.6.3.6 0zM72.8 56c-4.3-1.4-5.9-5-7.7-8.8-.1-.2-.5-.1-.4.2.9 3.1 2.6 7.1 5.7 8.6-1.7-.2-3.4-.5-5-1.1-1.9-.7-3.4-1.8-5.1-2.7-.2-.1-.4.2-.2.3.5.5 1 1 1.6 1.4-1.4 4.9-.7 10 .1 15 1.2 7.6 2.1 14.2-1 21.5-.2.4.3.6.5.3 3.1-4.4 3-10.2 2.4-15.3-.9-7.3-2.8-13.8-1.7-21.2 2.6 1.8 6.2 2.6 9.1 2.4.2 0 .3-.1.2-.3.5.1.9.2 1.5.2.3.1.3-.4 0-.5zm5.1-7c-3.5-1-7.2-1.3-10.6.2-.2.1-.1.4.2.4 6.5-1.2 14.3.2 19.5 4.6.3.2.6-.1.4-.4-2.1-2.6-6.3-3.9-9.5-4.8zm53.6-13.3c-.2 0-.2.4.1.4 2.5 0 4.1-2.3 5.2-4.3 1.6-2.7 2.6-5.9 2.2-9 0-.3-.5-.4-.5-.1-.4 2.4-.7 4.8-1.7 7.1-1 2.2-2.7 5.5-5.3 5.9z" fill="#c8a070" stroke-width="none" opacity="1" stroke="none"></path></g><g id="svga-group-glasses-single-move" transform="matrix(1,0,0,1,0,0)"><g id="svga-group-glasses-single"></g></g></g></g></g><rect id="svga-credit-rect" width="200" height="15" x="0" y="185" fill="#ecf0f1" opacity="0.5" style="display: none;"></rect><text id="svga-credit-text" font-family="Avenir Next, Roboto, Helvetica, Arial, sans-serif" font-size="10px" text-anchor="start" font-weight="400" size="10px" anchor="start" weight="400" fill="#333333" x="33.40447998046875" y="182.60824704170227" style="display: none;"><tspan id="SvgjsTspan99336" dy="13" x="33.40447998046875">Created on AvatarMaker.com</tspan></text></g><defs id="SvgjsDefs99283"></defs></svg>