<svg xmlns="http://www.w3.org/2000/svg" version="1.1" width="600px" height="600px" viewBox="0 0 200 200" style="overflow:hidden!important;"><g id="svga-group-wrapper"><g id="svga-group-backs-single"></g><g id="svga-group-humanwrap-move" transform="matrix(1,0,0,1,0,0)"><g id="svga-group-humanwrap"><g id="svga-group-hair-back-move" transform="matrix(1,-2.856368900253737e-18,2.856368900253737e-18,1,0,0)"><g id="svga-group-hair-back"></g></g><g id="svga-group-humanbody-back"><path id="SvgjsPath27604" d="M180.8 184.9c-2.3-3.4-38.9-17.8-38.9-17.8l-13.4-5.2-5.6-68.8H76.8L71.3 162l-13.4 5.2S21.4 181.6 19 185c-2.3 3.4-3.3 14.9-3.3 14.9V219h168.5v-19.2c-.1.1-1-11.5-3.4-14.9z" fill="#f4baa3" stroke-width="none" opacity="1" stroke="none"></path></g><g id="svga-group-chinshadow-single"><path id="SvgjsPath27814" d="M72.43 148.33c4.6 7.26 7.3 11.9 8.92 12.82 2.3 1.3 12.8 1.3 12.8 1.3s10.6 0 12.8-1.3c2.4-1.2 6.9-10 15.9-23.3 1.24-1.83 2.35-3.42 3.34-4.83l-3.25-39.92H76.82l-4.39 55.23z" fill="#d58464" stroke-width="none" opacity="1" stroke="none"></path></g><g id="svga-group-humanbody-front"><path id="SvgjsPath27605" d="M184.5 219c-.1-6.4-.1-12.8-.1-19.2l-.3-.1s.1-.1.2 0c.1 0 .1.1.1.1v-.4l-.1-.5-.1-.9-.2-1.9c-.2-1.3-.4-2.5-.6-3.8-.2-1.3-.5-2.5-.9-3.8-.4-1.2-.8-2.5-1.5-3.6-.8-.9-1.9-1.5-2.9-2.1-1-.6-2.1-1.1-3.2-1.7-2.1-1.1-4.3-2.1-6.5-3.1-4.4-2-8.7-3.9-13.1-5.7-4.4-1.9-8.8-3.7-13.2-5.5l-13-5.2-1.2-16.9c-.4-5.7-.9-11.5-1.3-17.2l-1.3-17.2-1.5-17.3-.1-.8h-.8c-7.7 0-15.4.1-23.1.1l-23.1.2h-.5v.5L75 110.2l-1.3 17.2c-.8 11.4-1.8 22.8-2.8 34.2-5.6 2.1-11.2 4.2-16.7 6.4-5.6 2.2-11.2 4.5-16.8 6.9-2.8 1.2-5.6 2.4-8.3 3.6-2.8 1.3-5.5 2.5-8.2 4.1-.7.4-1.3.8-2 1.4-.2.1-.4.4-.5.6l-.3.6c-.2.4-.4.7-.5 1.1-.6 1.5-1 3-1.3 4.5-.6 3-1.1 6-1.4 9.1l-.1 19.1v.9h.9l42.1.1H100c14 0 28.1-.1 42.1-.2l42.1-.5h.3v-.3zm-84.5-1-42.1-.1-41.2.1-.1-18.1c.3-3 .6-5.9 1.2-8.9.3-1.4.6-2.9 1.1-4.2.1-.3.3-.7.4-.9l.2-.4.3-.3c.5-.4 1.1-.8 1.8-1.2 2.5-1.5 5.3-2.8 8-4.1 2.7-1.3 5.5-2.5 8.2-3.7 5.5-2.4 11.1-4.8 16.7-7.1s11.2-4.5 16.9-6.7l.2-.1v-.2c.9-11.5 1.7-23 2.7-34.4l1.4-17.2 1.5-16.7 22.6.2c7.4.1 14.8.1 22.3.1l1.3 16.4 1.5 17.2c.5 5.7 1 11.5 1.5 17.2l1.6 17.2v.3l.3.1 13.4 5c4.4 1.7 8.9 3.4 13.3 5.2 4.4 1.8 8.8 3.7 13.2 5.6 2.2 1 4.3 2 6.5 3 1.1.5 2.1 1.1 3.2 1.6 1 .6 2.1 1.2 2.9 2 .7 1.1 1.1 2.3 1.4 3.5.3 1.2.6 2.5.8 3.7.2 1.3.4 2.5.6 3.8l.2 1.9.1.9.1.5v.4c0 6.3 0 12.6-.1 18.9l-41.8-.5c-14 .1-28.1 0-42.1 0z" fill="#c66c49" stroke-width="none" opacity="1" stroke="none"></path><path id="SvgjsPath27606" d="M125.1 142.4s-1.8 23-9.1 32.9c0 0 7.9-25 9.1-32.9zm-34.5 16s5 7.9 11.5 10.1c0 0-9.5 2.2-11.5-10.1zM73.4 140c6.7 25.6 6.7 25.6 8.5 30.7 0 0 .4-12.6-8.5-30.7z" fill="#d58464" stroke-width="none" opacity="1" stroke="none"></path></g><g id="svga-group-clothes-single"><path id="SvgjsPath29305" d="M61.8 186.6s14.4 11.8 17.6 14.6c3.2 2.8 21.3 12 21.3 12s19.2-9.9 22.4-12.5c3.2-2.6 14.4-17.4 14.4-17.4V220H66.4l-4.6-33.4z" fill="#efefef" stroke-width="none" opacity="1"></path><path id="SvgjsPath29306" d="M67 148.7s-7.2 5.3-11 8.6-9.9 6.6-9.9 6.6l2.9 1.6s-5.5 3.2-10.9 4.8c-5.5 1.6-20.1 5.2-21.1 5.7s-2.3 2.9-2.3 2.9-4.4.9-4.9 11.1c-.6 10.2-1.3 30-1.3 30h64.1s-5.8-35.1-6.3-39.2c0-.4 1.2-16.6 1.2-18 0-1 4.4-11.7 4.3-15.4-.1-1.5-4.8 1.3-4.8 1.3zm66 0s7.2 5.3 11 8.6 9.9 6.6 9.9 6.6l-2.9 1.6s5.5 3.2 10.9 4.8c5.5 1.6 20.1 5.2 21.1 5.7s2.3 2.9 2.3 2.9 4.4.9 4.9 11.1 1.3 29.9 1.3 29.9h-64.1s5.8-35.1 6.3-39.2c0-.4-1.1-16.6-1.1-18 0-1-3.5-12.8-3.7-15.9-.1-1.2 4.1 1.9 4.1 1.9z" fill="#252525" stroke-width="none" opacity="1" stroke="none"></path><path id="SvgjsPath29307" d="M138.2 164.1s4.9 11.3 6.3 13.8c1.4 2.6 12.2 10.8 12.2 10.8s-15.5 12.9-15.7 14.5c-.2 1.6-3.1 11.7-3.1 11.7l4.2-9.9s6.6-5.6 8.2-6.6 14.1-9.9 14.1-9.9-16.2-11-17.8-12.7c-1.6-1.4-8.4-11.7-8.4-11.7zm26.3 9.6c-3.5-.9-10.1-4.2-12.7-5.6 0 0 8 5.4 10.6 6.8 2.6 1.4 15.5 3.8 15.5 4.5 0 .7-4 5.2-4.9 7.5-.9 2.4-.9 9.1-.9 9.1s1.9-5.9 3.1-8.9 7.7-7.3 7.7-7.3 0-1.6-.9-2.6-14-2.6-17.5-3.5zm24.1 12.9c-.2-2.6-2.1-4.5-3.8-5.2 0 0 .9 1.6 1.2 2.6s.7 11.5.7 15.9 3.1 16.9 3.1 16.9-.9-27.6-1.2-30.2zM65.5 161.7c-.5 5.4-2.6 17.6-3.5 21.4-.9 3.8-.2 18.1-.2 18.1s.7-12.7 1.9-15.5c1.2-2.8 2.6-10.3 2.4-12.4-.4-2.2-.6-11.6-.6-11.6zm-43.1 14.5c-1.6.4-4.3 1.2-5.1 2.2 0 0 0 1.4 7.5-.8 5.3-1.5 14.7-5.8 19.7-8.2-6.9 2.7-20.8 6.5-22.1 6.8zm22.1-6.8c1.6-.6 2.9-1.2 3.5-1.6-.1 0-1.4.6-3.5 1.6zm-2.1 22.9c-2.2-1-5.7-2.4-5.7-2.4 4.1 1.8 21.2 14.6 21.2 14.6l6.3 13.8s-4.5-14.6-5.5-15.5c-.9-1-14.1-9.5-16.3-10.5z" fill="#343434" stroke-width="none" opacity="1" stroke="none"></path><path id="SvgjsPath29308" d="M190.8 190.1c-.5-9.2-4.1-11.1-5.1-11.4-.4-.6-1.4-2.5-2.4-2.9-.5-.3-3.8-1.1-9.1-2.5-4.4-1.1-9.3-2.4-12-3.2-4.1-1.3-8.4-3.4-10.1-4.4l2.9-1.7-.8-.4c-.1 0-6.1-3.3-9.8-6.5-3.8-3.3-10.9-8.6-11-8.6l-.8-.6-4.8-2.4 1.1 16.4 3.1 1.2c0 1.1.4 6.1.7 10.5.2 3.5.5 7 .5 7.3-.1 1.2-.7 4.9-1.4 9.7-.6.8-1.2 1.5-1.8 2.2-1.3 1.6-2.6 3.1-3.9 4.6-.7.8-1.3 1.5-2 2.2-.3.4-.7.7-1.1 1-.4.3-.8.6-1.2.8-3.4 2.1-7 4-10.5 5.9-3.5 1.9-7 3.7-10.5 5.5-3.4-1.7-6.9-3.5-10.3-5.3-1.7-.9-3.5-1.9-5.2-2.9-1.7-1-3.4-1.9-5-3.1L68.5 192c-.9-5.4-1.6-9.9-1.7-11.1 0-.3.2-3.9.5-7.3.3-4.4.6-8.9.7-10.2l3.1-1.4 1.3-15.9-5 1.7-.8.6c-.1.1-7.2 5.4-11 8.6-3.7 3.2-9.8 6.5-9.8 6.5l-.8.4 2.9 1.7c-1.7.9-5.9 3.1-10 4.4-2.7.8-7.6 2.1-12 3.2-5.3 1.4-8.6 2.2-9.1 2.5-1 .5-2.1 2.3-2.4 2.9-1 .4-4.6 2.2-5.1 11.4-.6 10.1-1.3 29.8-1.3 30v.5h184.1v-.5c-.1-.2-.8-19.9-1.3-29.9zM30.4 219.5c-.1-3.5-.3-6.9-.9-10.4-.7-3.7-1.4-7.4-2.3-11-.5-1.8-.9-3.6-1.5-5.4-.6-1.8-1.2-3.6-2.2-5.2-1.1-1.6-2.3-3-3.6-4.4-.6-.7-1.3-1.4-2-2-.7-.6-1.3-1.4-2.2-1.8.4.2.7.6 1 .9.3.3.6.7.9 1l1.8 2.1c1.2 1.4 2.4 2.9 3.3 4.5.9 1.6 1.5 3.4 2 5.1.5 1.8 1 3.6 1.4 5.4.9 3.6 1.6 7.3 2.5 10.9.4 1.8.7 3.7.9 5.5.4 1.6.6 3.2.9 4.8H9c.1-3.2.8-20.3 1.2-29.4.5-9.6 4.5-10.6 4.6-10.6l.2-.1.1-.2c.5-.9 1.4-2.4 2.1-2.7.5-.2 4.8-1.4 8.9-2.4 4.4-1.1 9.4-2.4 12.1-3.2 4.9-1.5 9.8-4.2 10.8-4.8.6.4 1.2.7 1.8 1.1l2.5 1.5c.4.2.8.5 1.2.8l.6.3c-2.1 2.2-4.3 4.2-6.7 6l-8.4 6.1c-2.8 2.1-5.6 4.1-8.4 6.2l-1.1.8 1.2.8 6.1 4.1 6.1 4.1 6.2 4.1c1 .7 2.1 1.4 3 2l2.8 2.2c1.2 2.3 2.3 4.6 3.5 6.9l3.3 6.3H30.4zm32.4 0c-.9-2.2-1.8-4.4-2.7-6.7-1-2.4-2-4.9-3.1-7.3v-.1l-.1-.1c-.9-.8-1.8-1.7-2.8-2.5-1-.8-2-1.5-3-2.2-2-1.4-4-2.8-6-4.3s-4-2.8-6.1-4.2c-1.7-1.1-3.3-2.3-5-3.4 2.4-1.8 4.8-3.6 7.2-5.5 2.7-2.1 5.5-4.2 8.2-6.4 2.8-2.2 5.2-4.8 7.4-7.5s4.3-5.5 6-8.5c-2.1 2.7-4.4 5.4-6.8 7.9-.2.3-.5.5-.7.8-.2-.1-.4-.3-.6-.4-.4-.3-.7-.7-1.1-1-.8-.6-1.6-1.2-2.4-1.7-.8-.5-1.6-1.1-2.5-1.6l-1.2-.6-.6-.4c1.8-1 6.2-3.6 9.2-6.2 3-2.6 10.2-8 10.2-8l4.1-2.1s-3.7 14.6-3.7 15.3c0 .8-.4 5.9-.7 10.5-.4 5.7-.5 7.3-.5 7.5 0 .1 0 .3.1.4-.2.6-.4 1.2-.5 1.9l-.9 3.9c-.3 1.3-.5 2.6-.8 3.9-.2 1.3-.5 2.6-.7 3.9-.1 2.3-.2 4.5-.1 6.8.4-2.2.7-4.5 1-6.7.3-1.3.5-2.6.8-3.9.2-1.3.5-2.6.7-3.9l.6-3.9c0-.2.1-.5.1-.7 1.1 7.5 5.2 32.6 6 36.9l-9 .1zm57 0H84.2c-3.7 0-7.4 0-11.2.1-.4-2.4-2.8-16.6-4.4-27.2.8.7 1.6 1.4 2.4 2 3 2.6 5.9 5.1 8.9 7.6 1.6 1.2 3.3 2.2 5 3.2 1.7 1 3.4 1.9 5.2 2.9 3.5 1.9 7 3.7 10.5 5.5l.2.1.2-.1c3.6-1.9 7.1-3.7 10.7-5.7 3.5-1.9 7.1-3.9 10.4-6.1l1.2-.9c.4-.4.8-.7 1.1-1.1.7-.7 1.4-1.5 2-2.3 1.3-1.5 2.6-3.1 3.8-4.7.5-.6.9-1.1 1.4-1.7-1.7 10.7-4.2 25.9-4.7 28.4h-7.1zm8.2 0c.7-4.3 4.9-29.4 6-36.9 0 .2.1.5.1.7l.6 3.9c.2 1.3.5 2.6.7 3.9.3 1.3.5 2.6.8 3.9.2 2.2.6 4.5 1 6.7.1-2.3 0-4.6-.1-6.8-.2-1.3-.4-2.6-.7-3.9-.2-1.3-.5-2.6-.8-3.9l-.9-3.9c-.1-.6-.3-1.2-.5-1.9 0-.2 0-.3.1-.4 0-.2-.1-1.8-.5-7.5-.3-4.6-.7-9.8-.7-10.6 0-.9-3.7-15.8-3.7-15.8l4.2 2.6s7.2 5.4 10.2 8c3 2.6 7.4 5.2 9.2 6.2l-.6.4-1.2.6c-.9.5-1.7 1-2.5 1.6-.8.6-1.6 1.1-2.4 1.7-.4.3-.7.7-1.1 1-.2.2-.4.3-.6.4-.2-.2-.5-.5-.7-.8-2.4-2.5-4.6-5.2-6.8-7.9 1.8 3 3.9 5.8 6.1 8.5 2.2 2.7 4.6 5.3 7.4 7.5 2.7 2.2 5.5 4.3 8.2 6.4 2.4 1.9 4.8 3.7 7.2 5.5-1.7 1.1-3.3 2.2-5 3.4-2 1.4-4.1 2.8-6.1 4.2-2 1.4-4 2.8-6 4.3-1 .7-2 1.4-3 2.2-.9.8-1.9 1.6-2.8 2.5l-.1.1-.1.1c-1 2.4-2.1 4.9-3.1 7.3l-2.7 6.6-9.1.1zm41.7 0c.2-1.6.4-3.1.6-4.7.3-1.9.5-3.7.9-5.5.9-3.6 1.6-7.3 2.5-10.9.4-1.8.9-3.6 1.4-5.4s1.1-3.6 2-5.1c.9-1.5 2.1-3 3.3-4.5l1.8-2.1c.3-.4.6-.7.9-1 .3-.3.6-.7 1-.9-.8.4-1.5 1.2-2.2 1.8l-2 2c-1.3 1.4-2.5 2.8-3.6 4.4-1.1 1.6-1.6 3.4-2.2 5.2-.6 1.8-1.1 3.6-1.5 5.4-.9 3.7-1.6 7.3-2.3 11-.4 3.4-.6 6.8-.6 10.3h-32.4l3.3-6.3c1.2-2.3 2.4-4.6 3.5-6.9l2.8-2.2c1-.7 2-1.4 3-2l6.1-4.1 6.1-4.1 6.1-4.1 1.2-.8-1.1-.8c-2.8-2.1-5.6-4.2-8.4-6.2l-8.4-6.1c-2.4-1.8-4.6-3.8-6.7-6l.6-.3c.4-.2.8-.5 1.2-.8l2.5-1.5c.6-.3 1.2-.7 1.8-1.1 1 .6 5.9 3.3 10.8 4.8 2.7.8 7.7 2.1 12.1 3.2 4.2 1.1 8.5 2.2 8.9 2.4.6.3 1.6 1.8 2.1 2.7l.1.2.2.1s4.1 1 4.6 10.6c.5 9.1 1.1 26.2 1.2 29.4h-21.2zm22.4 1z" fill="#000000" stroke-width="none" opacity="1" stroke="none"></path></g><g id="svga-group-head" transform="matrix(1,-2.856368900253737e-18,2.856368900253737e-18,1,0,0)"><g id="svga-group-ears-left-move" transform="matrix(1,0,0,1,0,0)"><g id="svga-group-ears-left" transform="matrix(0.9499998000000001,0,0,0.9499998000000001,2.9500595792743667,4.333546997204579)"><path id="SvgjsPath29163" d="M67.09 85.03s-3.12-7.36-5.69-9.71c-2.57-2.34-7.59-5.02-9.48-4.35-1.9.67 1.12 8.81 2.23 10.6 1.12 1.79 1.12 11.49 1.23 14.39.11 2.9 2.9 6.25 5.02 8.7 2.12 2.45 4.24-1.12 5.69-4.35 1.45-3.23 1-15.28 1-15.28z" fill="#f4baa3" stroke-width="none" opacity="1"></path><path id="SvgjsPath29164" d="M65.92 91.31c-.33-2.85-5.11-11.21-6.86-12.8-1.76-1.59-5.69-4.44-5.77-3.52s2.26 5.69 2.34 8.54.17 10.96 1.09 12.72c.92 1.76 5.69 1.51 6.53-.17s2.67-4.77 2.67-4.77z" fill="#e59e82" stroke-width="none" opacity="1"></path><path id="SvgjsPath29165" d="M51.07 71.79c-.11.94.06 1.79.25 2.64.4 1.69.98 3.31 1.62 4.9.33.79.68 1.58 1.11 2.33.35.72.47 1.6.59 2.43.22 1.69.26 3.4.32 5.11.04 1.71.03 3.42.05 5.13.03.85-.04 1.71.14 2.62.17.89.52 1.72.93 2.5.82 1.56 1.87 2.94 2.96 4.28.27.33.55.67.83.99.13.16.29.33.47.5.16.18.38.32.6.45.46.25 1.07.32 1.58.14.49-.19.88-.49 1.21-.81.66-.65 1.13-1.41 1.57-2.16.43-.76.81-1.54 1.15-2.34.63-1.74.72-3.45.84-5.17.17-3.44.07-6.86-.15-10.29-.62-1.62-1.31-3.18-2.08-4.71-.79-1.52-1.59-3.06-2.7-4.42-.56-.69-1.24-1.27-1.92-1.8-.69-.53-1.41-1.01-2.15-1.47-1.49-.89-3.07-1.66-4.83-2.01-.44-.07-.91-.11-1.4.01-.22.02-.56.2-.71.44-.18.22-.23.47-.28.71zm.56.1c.04-.18.1-.36.19-.47.1-.11.16-.15.37-.18.35-.08.75-.02 1.14.05 1.6.33 3.13 1.13 4.58 1.96.73.42 1.44.88 2.11 1.38.68.51 1.32 1.03 1.85 1.67 1.07 1.27 1.97 2.74 2.81 4.22.83 1.48 1.63 3.01 2.37 4.53-.03 3.41-.11 6.84-.4 10.23-.16 1.68-.34 3.42-.92 4.9-.73 1.51-1.47 3.09-2.59 4.22-.28.27-.59.49-.9.61-.31.1-.61.06-.9-.09-.55-.33-1.09-1.11-1.65-1.73-1.09-1.3-2.14-2.64-2.94-4.1-.4-.73-.72-1.5-.9-2.28-.17-.76-.15-1.64-.19-2.49-.06-1.71-.14-3.42-.25-5.13-.11-1.71-.25-3.42-.48-5.12-.14-.85-.25-1.71-.66-2.52-.43-.72-.75-1.52-1.07-2.31-.62-1.59-1.13-3.22-1.44-4.89-.14-.84-.26-1.7-.13-2.46z" fill="#e59e82" stroke-width="none" opacity="1"></path><path id="SvgjsPath29166" d="M57.38 80.46c.58 1.22 1.11 2.47 1.51 3.75.4 1.29.75 2.59 1.06 3.9.29 1.31.56 2.63.72 3.97l-.08.02c-.42-1.28-.8-2.56-1.2-3.84-.39-1.28-.78-2.56-1.2-3.82-.41-1.27-.78-2.55-1.24-3.8-.38-1.05-.84-2.1-1.49-3 .37 1.58.79 3.15 1.13 4.74.19.9.36 1.8.49 2.71.07.46.13.92.17 1.38.05.46.04.98.04 1.39.05 1.78.28 3.6.53 5.39.14.9.28 1.79.47 2.67.09.44.2.88.32 1.3.01.02.01.04.02.06.04-.85.09-1.71.11-2.56.04-1.28.1-2.55.06-3.83l.08-.01c.17 1.27.2 2.56.25 3.84.03 1.28.04 2.56.05 3.84v.8l-.52-.59c-.4-.46-.51-.9-.68-1.34-.15-.45-.28-.89-.39-1.34-.23-.9-.42-1.8-.58-2.71-.31-1.82-.56-3.63-.58-5.51.09-1.79-.24-3.58-.47-5.39-.26-1.8-.5-3.62-.9-5.4l-.12-.54.35.42c.88 1.08 1.49 2.29 2.09 3.5z" fill="#c66c49" stroke-width="none" opacity="1"></path></g></g><g id="svga-group-ears-right-move" transform="matrix(1,0,0,1,0,0)"><g id="svga-group-ears-right" transform="matrix(0.9499998000000001,0,0,0.9499998000000001,7.05088460296173,4.334900075736996)"><path id="SvgjsPath29167" d="M132.91 85.03s3.12-7.36 5.69-9.71c2.57-2.34 7.59-5.02 9.48-4.35s-1.12 8.81-2.23 10.6c-1.12 1.79-1.12 11.49-1.23 14.39-.11 2.9-2.9 6.25-5.02 8.7-2.12 2.45-4.24-1.12-5.69-4.35-1.45-3.23-1-15.28-1-15.28z" fill="#f4baa3" stroke-width="none" opacity="1"></path><path id="SvgjsPath29168" d="M134.08 91.31c.33-2.85 5.11-11.21 6.86-12.8 1.76-1.59 5.69-4.44 5.77-3.52.08.92-2.26 5.69-2.34 8.54s-.17 10.96-1.09 12.72c-.92 1.76-5.69 1.51-6.53-.17s-2.67-4.77-2.67-4.77z" fill="#e59e82" stroke-width="none" opacity="1"></path><path id="SvgjsPath29169" d="M148.66 71.07c-.15-.24-.49-.42-.71-.44-.49-.12-.96-.08-1.4-.01-1.76.35-3.34 1.12-4.83 2.01-.74.45-1.46.93-2.15 1.47-.68.53-1.36 1.1-1.92 1.8-1.11 1.36-1.91 2.9-2.7 4.42-.77 1.54-1.46 3.1-2.08 4.71-.23 3.43-.33 6.85-.15 10.29.12 1.72.22 3.44.84 5.17.34.79.72 1.58 1.15 2.34.44.76.91 1.51 1.57 2.16.33.32.72.62 1.21.81.51.18 1.11.11 1.58-.14.22-.14.44-.27.6-.45.18-.17.34-.34.47-.5.28-.32.55-.66.83-.99 1.09-1.34 2.14-2.72 2.96-4.28.4-.78.75-1.61.93-2.5.17-.92.11-1.77.14-2.62.02-1.71.01-3.42.05-5.13.05-1.71.1-3.42.32-5.11.12-.83.23-1.71.59-2.43.43-.76.78-1.54 1.11-2.33.64-1.59 1.21-3.21 1.62-4.9.18-.85.36-1.7.25-2.64-.06-.23-.11-.48-.28-.71zm-.42 3.27c-.31 1.66-.82 3.3-1.44 4.89-.32.79-.63 1.59-1.07 2.31-.41.81-.52 1.67-.66 2.52-.22 1.7-.37 3.41-.48 5.12-.11 1.71-.2 3.42-.25 5.13-.05.85-.02 1.73-.19 2.49-.18.79-.5 1.55-.9 2.28-.8 1.46-1.85 2.8-2.94 4.1-.56.62-1.1 1.4-1.65 1.73-.29.15-.59.19-.9.09-.31-.12-.62-.34-.9-.61-1.12-1.13-1.86-2.71-2.59-4.22-.58-1.47-.76-3.22-.92-4.9-.29-3.39-.37-6.82-.4-10.23.74-1.52 1.54-3.05 2.37-4.53.84-1.48 1.73-2.95 2.81-4.22.53-.63 1.17-1.16 1.85-1.67.67-.5 1.39-.96 2.11-1.38 1.45-.83 2.98-1.63 4.58-1.96.39-.07.8-.12 1.14-.05.21.03.27.07.37.18.09.11.15.29.19.47.13.77.01 1.63-.13 2.46z" fill="#e59e82" stroke-width="none" opacity="1"></path><path id="SvgjsPath29170" d="M142.62 80.46c-.58 1.22-1.11 2.47-1.51 3.75-.4 1.29-.75 2.59-1.06 3.9-.29 1.31-.56 2.63-.72 3.97l.08.02c.42-1.28.8-2.56 1.2-3.84.39-1.28.78-2.56 1.2-3.82.41-1.27.78-2.55 1.24-3.8.38-1.05.84-2.1 1.49-3-.37 1.58-.79 3.15-1.13 4.74-.19.9-.36 1.8-.49 2.71-.07.46-.13.92-.17 1.38-.05.46-.04.98-.04 1.39-.05 1.78-.28 3.6-.53 5.39-.14.9-.28 1.79-.47 2.67-.09.44-.2.88-.32 1.3-.01.02-.01.04-.02.06-.04-.85-.09-1.71-.11-2.56-.04-1.28-.1-2.55-.06-3.83l-.08-.01c-.17 1.27-.2 2.56-.25 3.84-.03 1.28-.04 2.56-.05 3.84v.8l.52-.59c.4-.46.51-.9.68-1.34.15-.45.28-.89.39-1.34.23-.9.42-1.8.58-2.71.31-1.82.56-3.63.58-5.51-.09-1.79.24-3.58.47-5.39.26-1.8.5-3.62.9-5.4l.12-.54-.35.42c-.88 1.08-1.49 2.29-2.09 3.5z" fill="#c66c49" stroke-width="none" opacity="1"></path></g></g><g id="svga-group-faceshape-wrap"><g id="svga-group-faceshape-single"><path id="SvgjsPath27804" d="M139.54 91.4c-.2-6.41.54-22.35.54-22.35s.82-10.41-.08-14.45c-2.2-9.87-6.18-15.59-15.08-20.32-9.3-4.93-25.05-4.7-25.05-4.7s-15.75-.36-25.05 4.58c-8.7 4.74-12.8 10.54-15 20.4-.9 3.95.08 13.43.08 13.43s1.05 16.97.75 23.38-3.83 13.25-1.83 17 3.94 4.39 12.94 17.51 13.34 22.57 15.64 23.85 12.68 1.17 12.68 1.17 10.4.11 12.6-1.17c2.3-1.28 6.68-10.57 15.68-23.69s10.95-13.87 12.95-17.62c2.09-3.74-1.47-10.61-1.77-17.02z" fill="#f4baa3" stroke-width="none" opacity="1" stroke="none"></path><path id="SvgjsPath27805" d="M87.2 150.07c2.3 1.28 12.8 1.28 12.8 1.28s10.6 0 12.8-1.28c2.3-1.28 6.8-10.87 15.8-23.99s10.8-14.01 12.8-17.76-1.5-10.66-1.8-17.07c-.2-6.41.7-23.38.7-23.38s.9-9.37 0-13.42c-2.2-9.87-6.3-15.79-15.2-20.52-9.3-4.93-25.2-4.73-25.2-4.73S84 29 74.7 33.94C66 38.77 61.8 44.69 59.6 54.56c-.9 3.95 0 13.42 0 13.42s1 16.97.7 23.38-3.8 13.32-1.8 17.07 3.8 4.64 12.8 17.76c9.1 13.02 13.6 22.6 15.9 23.88zm-24.8-38.29c-1-1.28-1.9-2.57-2.7-3.85-.6-1.09-.6-2.57-.4-4.14.2-1.58.5-3.16.9-4.74s.7-3.26.9-4.93c.1-.79.2-1.68.2-2.57v-2.47c0-1.68-.1-3.26-.1-4.93-.1-3.26-.3-6.51-.5-9.77l-.3-4.93s-.4-3.95-.5-4.83c-.1-1.58-.2-3.26-.2-4.83s0-3.26.3-4.83c.3-1.58.7-3.16 1.2-4.64.2-.79.5-1.48.8-2.27.3-.69.6-1.48 1-2.17 1.5-2.86 3.6-5.43 6.1-7.4.3-.3.6-.49 1-.79l.5-.39c.2-.1.3-.2.5-.3.3-.2.7-.49 1-.69l1-.59c.3-.2.7-.39 1.1-.59s.7-.39 1.1-.59l1.1-.49.5-.3.6-.2c3-1.18 6.2-1.87 9.5-2.37 3.2-.49 6.5-.69 9.8-.79s6.5 0 9.8.3l2.4.3c.8.1 4 .49 4.8.69 0 0 5.5 1.38 7 1.87.4.1 4.3 1.87 4.3 1.87 2.8 1.48 5.5 3.35 7.6 5.62 1.1 1.09 2 2.37 2.9 3.75l1.2 2.07c.3.69.7 1.38 1 2.17.3.69 1.4 4.24 1.5 4.64l.3 1.18c.1.39.4 2.76.4 3.55.1 1.58.1 3.26.1 4.83 0 1.48-.1 3.06-.2 4.54l-.2 6.22-.2 5.82-.1 5.82c0 1.97-.1 3.95 0 5.82.1 3.26 1 6.51 1.7 9.67.3 1.58.6 3.16.5 4.83 0 .39-.06 1.31-.44 2.14-.4.69-.86 1.51-1.36 2.2-.9 1.28-2 2.57-3 3.85s-2.1 2.57-3.1 3.85c-2 2.57-4 5.23-5.9 7.89s-3.8 5.33-5.7 8.09c-1.8 2.76-7.08 12.01-9.7 14.81-.1.1-1.31.64-6.2 1.09-1.6.15-3.3.1-4.9.2-3.2 0-6.6-.1-9.8-.39-3.45-.37-3.9-.89-3.9-.89-.4-.39-.9-.99-1.4-1.58s-.9-1.28-1.4-1.97c-1.8-2.66-3.66-5.93-5.46-8.7-1.8-2.76-3.44-6.02-5.34-8.68-1.9-2.76-3.8-5.43-5.7-8.09-1.9-2.76-3.9-5.42-5.9-7.99z" fill="#c66c49" stroke-width="none" opacity="1" stroke="none"></path></g></g><g id="svga-group-mouth-single-move" transform="matrix(1,0,0,1,0.5,0)"><g id="svga-group-mouth-single"><path id="SvgjsPath29045" d="M88.53 129.83s4.06 4.15 10.11 4.69 12.45-4.15 12.45-4.15-12.81 5.96-22.56-.54z" fill="#d58464" stroke-width="none" opacity="1" stroke="none"></path><path id="SvgjsPath29046" d="M83.99 123.04s1.47.84 3.56 1.38c2.32.6 5.38.95 7.57 1.65 2.99.95 3.52 2.68 4.69 2.49 1.17-.18 2.37-2.32 4.63-2.77 2.26-.45 8.66 0 11.37-1.49 0 0-10.89-1.46-16.48-1.65-7.61-.26-15.34.39-15.34.39z" fill="#e28c7c" stroke-width="none" opacity="1" stroke="none"></path></g></g><g id="svga-group-eyes-left-move" transform="matrix(1,0,0,1,0,0)"><g id="svga-group-eyes-left"><g id="svga-group-eyesback-left"><path id="SvgjsPath28962" d="M80.2 74.2c7.5 0 13.5 5.8 13.5 13s-6 13-13.5 13-13.5-5.8-13.5-13 6-13 13.5-13z" fill="#ffffff" stroke-width="none" opacity="1"></path></g><g id="svga-group-eyesiriswrapper-left" transform="matrix(1,0,0,1,0,0)"><g id="svga-group-eyesiriscontrol-left" transform="matrix(1,0,0,1,0,0)"><g id="svga-group-eyesiris-left"><path id="SvgjsPath27621" d="M80.2 81.6c3.1 0 5.6 2.5 5.6 5.6s-2.5 5.6-5.6 5.6-5.6-2.5-5.6-5.6 2.5-5.6 5.6-5.6z" fill="#563d1c" stroke-width="none" opacity="1" stroke="none"></path><path id="SvgjsPath27622" d="M80.2 83.3c2.2 0 3.9 1.7 3.9 3.9s-1.7 3.9-3.9 3.9-3.9-1.7-3.9-3.9 1.7-3.9 3.9-3.9z" fill="#000000" stroke-width="none" opacity="1"></path><path id="SvgjsPath27623" d="m76.1 84.6 4.4 3.1-1.8-5.1c-.3-.4-2.5.8-2.6 2z" fill="#ffffff" stroke-width="none" opacity="1"></path></g></g></g><g id="svga-group-eyesfront-left"><path id="SvgjsPath28970" d="M80.2 73.68c-7.76 0-14.06 6.06-14.06 13.55s6.29 13.55 14.06 13.55 14.06-6.06 14.06-13.55-6.3-13.55-14.06-13.55zm1.43 21.93c-2.87.55-12.6-1.99-12.64-2.45-.04-.46 4.34-8.5 6.7-9.62s6.86-4.11 8.12-3.76c1.26.35 4.38 6.38 5.62 11.95 0-.01-4.93 3.33-7.8 3.88z" fill="#f4baa3" stroke-width="none" opacity="1" stroke="none"></path><path id="SvgjsPath28971" d="M84.67 98.44c-.98.87-6.07 2.75-6.07 2.75s3.78-.32 5.53-1.39c1.75-1.07 5.32-6.89 5.32-6.89s-3.8 4.66-4.78 5.53z" fill="#d58464" stroke-width="none" opacity="1" stroke="none"></path><path id="SvgjsPath28972" d="m88.76 83.77 2.52-4.55-3.52-.04-2.89-.75s-9.45 4.32-10.23 4.91c-.78.58-4.7 6.71-5.68 8.55-.98 1.84-.91 3.9-.91 3.9.19-.45.63-1.3 1.2-2.34.11.05.23.1.34.15 2.22.77 4.48 1.37 6.78 1.85 1.15.21 2.31.42 3.5.48.59.03 1.19.04 1.81-.07.59-.13 1.16-.32 1.71-.55 2.18-.94 4.15-2.17 6.07-3.56-.01-.03-.01-.06-.02-.1.28-2.35-.46-6.11-.68-7.88zm-5.54 11.11c-.54.21-1.08.38-1.63.49-.54.09-1.11.07-1.69.03-1.15-.09-2.3-.24-3.44-.44-1.15-.19-2.29-.4-3.43-.66-1.14-.25-2.27-.52-3.37-.91-.11-.04-.21-.08-.32-.13 1.77-3.21 4.72-8.09 5.79-8.95.91-.72 5.6-2.55 9-3.82.23.22.44.45.65.71.21.29.42.58.61.89.6.98 1.12 2.02 1.61 3.07.97 2.1 1.78 4.31 2.39 6.53-1.97 1.18-4.03 2.36-6.17 3.19z" fill="#000000" stroke-width="none" opacity="1" stroke="none"></path></g></g></g><g id="svga-group-eyes-right-move" transform="matrix(1,0,0,1,0,0)"><g id="svga-group-eyes-right"><g id="svga-group-eyesback-right"><path id="SvgjsPath28963" d="M119.8 74.2c7.5 0 13.5 5.8 13.5 13s-6 13-13.5 13-13.5-5.8-13.5-13 6-13 13.5-13z" fill="#ffffff" stroke-width="none" opacity="1"></path></g><g id="svga-group-eyesiriswrapper-right" transform="matrix(1,0,0,1,0,0)"><g id="svga-group-eyesiriscontrol-right" transform="matrix(1,0,0,1,0,0)"><g id="svga-group-eyesiris-right"><path id="SvgjsPath27624" d="M119.8 82.3c2.7 0 4.9 2.2 4.9 4.9s-2.2 4.9-4.9 4.9-4.9-2.2-4.9-4.9 2.2-4.9 4.9-4.9z" fill="#563d1c" stroke-width="none" opacity="1" stroke="none"></path><path id="SvgjsPath27625" d="M119.8 83.8c1.9 0 3.4 1.5 3.4 3.4s-1.5 3.4-3.4 3.4-3.4-1.5-3.4-3.4 1.5-3.4 3.4-3.4z" fill="#000000" stroke-width="none" opacity="1"></path><path id="SvgjsPath27626" d="m116.2 84.9 3.8 2.7-1.5-4.5c-.2-.3-2.2.8-2.3 1.8z" fill="#ffffff" stroke-width="none" opacity="1"></path></g></g></g><g id="svga-group-eyesfront-right"><path id="SvgjsPath28973" d="M119.8 73.68c-7.76 0-14.06 6.06-14.06 13.55s6.29 13.55 14.06 13.55 14.06-6.06 14.06-13.55-6.29-13.55-14.06-13.55zm-.1 19.3c-2.69-.48-7.92-1.42-7.92-1.42 1.09-5.23 3.93-10.91 5.11-11.25 1.17-.35 5.42 2.39 7.65 3.41 2.22 1.02 6.42 8.49 6.39 8.92s-8.54.82-11.23.34z" fill="#f4baa3" stroke-width="none" opacity="1" stroke="none"></path><path id="SvgjsPath28976" d="M130.94 91.45c-.94-1.71-4.69-7.39-5.43-7.93-.74-.54-9.64-4.46-9.64-4.46l-2.69.74s1.15.39 2.73.95c-.07.08-.13.16-.19.25-.33.45-.61.92-.86 1.4-.51.96-.95 1.95-1.35 2.95-.78 2.02-1.4 4.06-1.74 6.23 2.02.45 4.13.91 6.28 1.34l1.61.31c.55.1 1.09.15 1.63.18 1.08.06 2.16.05 3.23.03 1.07-.04 2.15-.11 3.22-.2l1.6-.16c.27-.03.53-.06.8-.1.18-.04.35-.06.53-.11.56.99.99 1.8 1.18 2.22-.01 0 .03-1.93-.91-3.64zm-.84 1.31c-.26.03-.53.06-.79.08-.53.05-1.07.06-1.6.08-1.07.03-2.14.04-3.21.02-2.14-.01-4.27-.04-6.31-.48-2.07-.33-4.18-.62-6.38-.93a40.47 40.47 0 0 1 2.12-6.01c.43-.97.89-1.93 1.42-2.85.27-.45.54-.9.85-1.32.1-.13.21-.26.32-.39 3.2 1.15 7.67 2.81 8.53 3.48 1.01.78 3.8 5.25 5.5 8.23-.14.05-.3.07-.45.09z" fill="#000000" stroke-width="none" opacity="1" stroke="none"></path><path id="SvgjsPath28977" d="M112.18 93.13s5.73 4.16 8.05 4.6c2.32.44 6.81-.4 6.81-.4s-6.43-.17-7.8-.66c-1.38-.49-7.06-3.54-7.06-3.54z" fill="#d58464" stroke-width="none" opacity="1" stroke="none"></path></g></g></g><g id="svga-group-facehighlight-single"></g><g id="svga-group-eyebrows-left-move" transform="matrix(1,0,0,1,0,0)"><g id="svga-group-eyebrows-left-rotate" transform="matrix(0.9914448609181881,0.13052619568084683,-0.13052619568084683,0.9914448609181881,9.892604858988648,-9.83200398697251)"><g id="svga-group-eyebrows-left"><path id="SvgjsPath28902" d="M91.2 73.1s-11.8 1.1-14.3 1.1c-2.6.1-8.5.5-8.5.5s-1-3.4-.3-4.1c.7-.7 9.8-2.8 9.8-2.8l1.2.5-.1-.8s6-.5 7.3-.5h2.8l-.3 1.6 1.4-1.6.8 1 .7-.8s.4.8.1 2.5c-.2 1.6-.6 3.4-.6 3.4z" fill="#6b4e40" stroke-width="none" opacity="1" stroke="none"></path><path id="SvgjsPath28903" d="m91.9 67.1-.1-.2-.2.2-.6.6-.1-.1c.2-.4.4-.9.5-1.3-.3.4-.5.8-.7 1.2l-.4-.5-.2-.2-.1.2-.8.9.2-.8v-.3H86.7c-.8 0-1.7 0-2.5.1-1.7.1-3.5.3-5.2.4h-.3v.6l-.7-.3h-.2c-2.5.6-5 1.3-7.5 2-.6.2-1.2.4-1.8.7-.2.1-.3.1-.4.2-.2.1-.2.3-.2.4-.1.3-.1.5-.1.8 0 1.1.3 2.1.5 3v.1h.1c2.1-.1 4.2-.2 6.2-.3l1.5-.1c.5 0 1 0 1.5-.1 1 0 1.9-.1 2.9-.2 1.9-.2 3.7-.3 5.5-.5l2.7-.3 1.3-.2.7-.1h.6V72.7l.1-.3.2-.7.3-1.5c.1-.5.2-1 .2-1.5v-.8c-.1-.2-.1-.5-.2-.8zm-.3 3.2c-.1.5-.2 1-.2 1.5l-.1.7-.1.3V73.1H90l-1.3.1-2.7.2c-1.8.1-3.7.3-5.6.4l-2.9.2c-.5 0-1 .1-1.5.1l-1.5.1c-2 .1-4 .3-6.1.5-.3-.9-.5-1.9-.5-2.9 0-.3 0-.5.1-.8 0-.1.1-.2.2-.3.1-.1.2-.1.4-.2l1.8-.6c1.2-.3 2.5-.6 3.7-1 1.2-.3 2.4-.6 3.6-.8l1.1.5.4.2v-1c1.6-.1 3.3-.3 4.9-.4.8-.1 1.7-.1 2.5-.1h2.1l-.2 1.3-.1.8.6-.6 1.2-1.3.4.4c-.2.5-.5 1-.6 1.6.3-.4.6-.9.8-1.4l.1.1.1.1.2-.2.5-.5c0 .1.1.3.1.4v.8c0 .5-.1 1-.2 1.5zm-6.4-.4.6-2.4c-.1.8-.2 1.6-.4 2.4l-.3 1.2c-.1.4-.2.7-.4 1.1l-.2.3v-.3c-.1-.6-.2-1.2-.4-1.8l-.3-1.6-.8 1.4c-.1.3-.3.6-.5.9-.2.3-.3.6-.5.8.1-.3.3-.6.4-.9.1-.3.3-.6.4-.9l.9-1.8.2-.3.1.3.4 1.9.3 1.5c.1-.2.2-.5.3-.7 0-.3.1-.7.2-1.1z" fill="#5c3d2e" stroke-width="none" opacity="1" stroke="none"></path></g></g></g><g id="svga-group-eyebrows-right-move" transform="matrix(1,0,0,1,0,0)"><g id="svga-group-eyebrows-right-rotate" transform="matrix(0.9914448613738104,-0.13052619222005177,0.13052619222005177,0.9914448613738104,-8.2718837692439,16.49544635561518)"><g id="svga-group-eyebrows-right"><path id="SvgjsPath28904" d="M110.7 74.9s12-.3 14.3-.6 7.6-.5 7.6-.5-.1-3.6-.8-4.2c-.7-.6-8.3-1.8-8.3-1.8l-.9.6v-.7s-5.2 0-6.3.1-2.6.2-2.6.2l.1 1.5-1.2-1.4-.9.9-.6-.7s-.5.8-.5 2.6c-.1 1.9.1 4 .1 4z" fill="#6b4e40" stroke-width="none" opacity="1" stroke="none"></path><path id="SvgjsPath28905" d="M110.7 74.9H112l1.4-.1 2.8-.2c1.8-.1 3.7-.2 5.5-.3l2.7-.1c.4 0 .9-.1 1.4-.1l1.4-.1c1.8-.1 3.7-.1 5.5-.2l-.1.1c0-1.1-.1-2.2-.4-3.2-.1-.3-.1-.5-.3-.7-.1-.1-.1-.2-.2-.3-.1-.1-.2-.1-.4-.1-.5-.2-1-.3-1.6-.4-1.1-.2-2.1-.4-3.2-.6s-2.1-.3-3.2-.5h.2l-.9.6-.4.2v-1.1l.2.2c-1.5 0-3 0-4.5.1-.8 0-1.5 0-2.2.1l-2.2.2.2-.3.1 1.5.1.8-.5-.6-1.2-1.4h.3l-.9.9-.2.2-.1-.2-.6-.7h.3c-.1.2-.2.5-.3.7s-.1.5-.2.8c-.1.5-.1 1.1-.1 1.6V74.7l.3.2zm0 .1c-.1 0-.1-.1 0 0v-.8l-.1-.8c0-.5-.1-1.1-.1-1.6v-1.7c0-.3.1-.6.1-.8.1-.3.1-.5.3-.8l.1-.2.2.2.6.7h-.3l.9-.9.2-.2.2.2 1.2 1.4-.4.2-.1-1.5v-.2h.3l2.2-.2c.8-.1 1.5-.1 2.2-.1h4.7V68.8l-.4-.2.9-.6.1-.1h.1c2.1.4 4.2.8 6.4 1.2.5.1 1.1.3 1.6.4.1.1.3.1.4.2l.3.3c.1.2.2.5.3.8.2 1.1.3 2.1.4 3.2h-.1c-1.8.1-3.7.2-5.5.4l-1.4.1c-.4.1-.9.1-1.4.1-.9.1-1.8.1-2.8.2-1.8.1-3.7.1-5.5.2h-5.6zm4.5-5.9c.2.8.3 1.6.5 2.4l.3 1.2c.1.4.2.8.4 1.1l-.2.1.3-2.1.4-2.1.1-.3.2.3.9 1.7c.2.3.3.6.4.9.1.3.3.6.4.9-.2-.3-.3-.6-.5-.8s-.3-.6-.5-.8l-.9-1.7h.2l-.3 2.1-.3 2.1-.1.3-.2-.3c-.2-.4-.3-.8-.4-1.2-.1-.4-.2-.8-.2-1.2-.3-.9-.4-1.7-.5-2.6zm-2.3 4.7-.9-1.5c-.3-.5-.5-1.1-.6-1.6l.9 1.5c.3.5.4 1 .6 1.6z" fill="#5c3d2e" stroke-width="none" opacity="1" stroke="none"></path></g></g></g><g id="svga-group-beardwrap"><g id="svga-group-beard-single-move" transform="matrix(1,0,0,1,1,-1)"><g id="svga-group-beard-single" transform="matrix(0.8499994000000002,0,0,0.8499994000000002,0,0)"></g></g></g><g id="svga-group-mustache-single-move" transform="matrix(1,0,0,1,0.5,1)"><g id="svga-group-mustache-single" transform="matrix(0.8499994000000002,0,0,0.8499994000000002,15.019454379945358,17.647570246675855)"></g></g><g id="svga-group-nose-single-move" transform="matrix(1,0,0,1,0,0)"><g id="svga-group-nose-single"><path id="SvgjsPath27818" d="M98.34 75.84s-3.77 9.97-3.77 11.79c0 1.82 1.56 5.03 2.35 6.84 1.21 2.78 1.05 6.77-.04 7.74-1.09.97-1.94.61-2.92-.12-.97-.73-5.1-1.94-5.35 4.01s1.46 7.05 2.67 6.56c1.22-.49 2.31-4.86 3.65-.85 1.34 4.01 1.46 5.83 2.8 6.32s3.77.61 4.98-.24 1.82-4.5 2.31-7.17 1.94-.12 2.19 1.22c.24 1.34 1.58 1.7 2.55.97.97-.73 1.82-5.71 1.46-8.14-.36-2.43-2.92-4.74-5.35-2.92-2.43 1.82-3.04-3.28-2.92-4.62.12-1.34.67-4.02 1.52-5.96s-.16-5.62-.64-7.2c-.49-1.58-.76-6.16-1.49-7.5-.72-1.34-2.3-1.34-4-.73z" fill="#fcc9b5" stroke-width="none" opacity="1" stroke="none"></path><path id="SvgjsPath27819" d="M98.34 75.84c-.89 2.54-1.76 5.09-2.55 7.66-.38 1.28-.8 2.59-.99 3.88-.05.61.11 1.27.3 1.9.19.63.43 1.26.68 1.87.5 1.25 1.1 2.42 1.63 3.71.48 1.31.7 2.69.7 4.07 0 .69-.06 1.39-.23 2.09-.09.35-.21.7-.41 1.04-.1.16-.25.35-.4.47-.14.12-.29.24-.46.34-.33.2-.76.34-1.18.31-.43-.02-.8-.19-1.12-.37-.32-.18-.61-.43-.83-.54-.26-.13-.55-.23-.85-.3-.59-.13-1.21-.11-1.72.12-.52.22-.93.64-1.2 1.18-.28.53-.44 1.15-.53 1.78-.09.63-.11 1.29-.11 1.95 0 1.31.07 2.66.45 3.84.19.58.5 1.14.9 1.35.19.1.4.12.61.06.06-.02.11-.03.13-.05.03-.02.08-.05.12-.09.09-.08.19-.19.28-.31.39-.49.7-1.08 1.23-1.66.14-.14.31-.3.57-.41.26-.13.69-.1.93.07.47.32.62.68.79 1.01.31.68.48 1.32.7 1.97l.59 1.94c.2.64.38 1.29.63 1.85.12.29.26.54.43.73.17.19.33.29.6.38 1.15.35 2.53.42 3.66.1.28-.08.54-.2.74-.34.16-.12.34-.36.48-.62.29-.53.49-1.15.67-1.77.36-1.26.6-2.58.84-3.9l.09-.5c.03-.18.07-.36.13-.55.06-.19.13-.39.28-.6.07-.1.17-.22.33-.32.15-.1.38-.16.57-.13.38.06.56.25.72.4.16.16.27.32.38.48.21.32.37.65.5.99.07.17.13.34.18.52.03.09.05.18.07.28l.03.14.02.09c.06.25.17.46.34.6.33.3.87.31 1.3.04.13-.08.14-.09.22-.21.07-.1.14-.23.2-.36.13-.27.23-.58.32-.88.18-.62.33-1.26.44-1.91.21-1.29.34-2.63.26-3.91-.05-1.23-.66-2.41-1.62-3.14-.47-.35-1.04-.57-1.6-.54-.28.01-.56.07-.83.18-.13.06-.27.12-.39.2-.13.08-.23.16-.41.27-.32.2-.74.4-1.22.34-.49-.06-.86-.38-1.09-.69-.46-.64-.65-1.33-.81-2.02-.15-.69-.23-1.37-.25-2.07-.02-.73.12-1.41.24-2.08.26-1.34.61-2.66 1.11-3.94.12-.31.28-.65.38-.92.1-.29.16-.6.19-.92.06-.64.03-1.3-.03-1.96-.14-1.32-.45-2.62-.83-3.91-.33-1.35-.43-2.68-.62-4.02-.09-.67-.18-1.33-.31-1.99-.14-.65-.26-1.33-.67-1.84-.4-.52-1.07-.77-1.73-.77-.67-.03-1.33.13-1.97.34zm0 0c.63-.23 1.29-.42 1.97-.43.67-.02 1.4.2 1.86.75.23.26.39.59.49.91.11.32.19.65.27.98.15.66.26 1.33.37 1.99.23 1.32.37 2.69.73 3.94.41 1.29.76 2.61.95 3.96.09.68.14 1.37.08 2.07-.03.35-.09.7-.2 1.05-.12.37-.26.63-.37.95-.45 1.24-.77 2.55-1 3.85-.1.66-.22 1.31-.19 1.93.03.65.12 1.3.27 1.93.15.62.36 1.25.7 1.7.36.45.73.48 1.23.14.1-.07.27-.2.42-.29.16-.1.33-.19.5-.27.35-.15.73-.25 1.13-.27.79-.05 1.56.24 2.17.68 1.21.89 1.94 2.34 2.01 3.8.1 1.41-.03 2.78-.25 4.14-.11.68-.25 1.36-.45 2.03-.1.34-.21.67-.37 1.01-.08.17-.16.34-.29.52-.1.17-.34.39-.51.48-.69.47-1.77.5-2.47-.12-.35-.3-.56-.71-.66-1.11l-.06-.26c-.02-.07-.03-.14-.06-.21-.04-.14-.09-.29-.15-.43-.12-.28-.25-.56-.41-.81-.08-.12-.17-.23-.25-.31-.08-.08-.17-.12-.13-.11.02 0 .08 0 .09-.02.01-.01 0 0-.02.04-.04.07-.1.19-.14.32-.04.13-.07.28-.1.43l-.09.5c-.24 1.33-.47 2.67-.84 4-.19.67-.4 1.34-.75 2-.18.33-.39.67-.76.96-.35.26-.71.41-1.08.52-.73.21-1.46.26-2.17.24-.72-.03-1.42-.13-2.13-.36-.37-.11-.81-.37-1.07-.7-.27-.32-.45-.67-.59-1-.28-.67-.46-1.32-.66-1.97l-.58-1.93c-.2-.63-.39-1.3-.64-1.84-.12-.27-.3-.53-.4-.59-.04-.02.01-.01-.04 0-.05.02-.15.09-.24.18-.39.4-.72 1.01-1.17 1.58-.12.14-.24.29-.4.43-.08.07-.17.14-.28.21-.12.07-.24.11-.34.14-.43.13-.95.09-1.35-.14-.4-.22-.68-.55-.88-.88-.21-.33-.35-.68-.46-1.02-.43-1.39-.48-2.78-.47-4.15.02-1.35.08-2.81.78-4.15.35-.66.93-1.26 1.66-1.55.73-.3 1.53-.29 2.24-.13.36.09.71.21 1.05.39.37.2.59.42.85.57.53.33 1.02.4 1.51.1.12-.07.24-.16.36-.25.11-.09.18-.17.26-.29.15-.24.26-.53.34-.83.16-.61.23-1.26.24-1.91.02-1.3-.17-2.63-.59-3.86-.47-1.22-1.08-2.46-1.55-3.72-.24-.63-.46-1.28-.64-1.94-.17-.66-.33-1.34-.25-2.08.24-1.37.7-2.63 1.12-3.92.89-2.55 1.85-5.07 2.85-7.57z" fill="#c66c49" stroke-width="none" opacity="1" stroke="none"></path></g></g><g id="svga-group-hair-front"><path id="SvgjsPath27841" d="M62.3 84.7s1.5-2.7 1.7-7.3 0-10.9.2-14.2c.2-3.3 1-8.2 1.5-10 .4-1.8.6-3.5 1.8-5.3 1.2-1.8 2.4-3.6 5.2-4.3 2.8-.7 7.6-3 8.7-4.3 0 0 3-.6 3.7-1 0 0 5.3 2.6 7.2 2.8 1.9.2 8.2.5 12.3-.7s10.1-2.6 12.4-2.2 12.2-1.1 16.6 12.7c0 0 1.1 4.3 1.2 10.4.1 6.1.3 10.1.8 11.9.4 1.8 1.2 5.6 1.2 7.3s.6 2.5.6 2.5 1.7-3.8 2.2-5.8 1.9-11.6 2.1-13.1c.2-1.5.6-6.4.9-8.5.3-2 0-9.5 0-9.5s.1-4.7-.6-6.1c-.7-1.3-1.4-3.5-2.9-4.8 0 0 .1-1.6-.1-2.7s-2.1-5.3-8.2-10.6-13.3-9.4-21.6-9.4c0 0 2.9-.4 4.8-.6 0 0-5.5-.7-8.1-.3l4.3-.6s-7.2-1.4-12.3.1c0 0 .7-1.2 4.2-2.5 0 0-7.8-2.1-15.4 3.1 0 0-5.9-.3-11.7 6.8 0 0-3.7 1.1-4.7 1.8s-6.2 3.1-6.9 11.4c0 0-5 .6-5.5 11l.5 8.7s-1.8 3.6-1.8 7.3 1 6 1.1 7.8c.1 1.8.7 5.2.7 5.2s1.8 4.2 2.1 5.9c.2 1.9 1.8 7.1 1.8 7.1z" fill="#1a1412" stroke-width="none" opacity="1" stroke="none"></path><path id="SvgjsPath27842" d="M143 46.5c.1-1 .1-2 0-3s-.3-2-.6-3-.7-1.9-1.1-2.8c-.4-.8-1-1.6-1.6-2.4.2-1.8-.4-3.5-1.2-5-.8-1.5-1.9-2.9-3.1-4.2-2.3-2.6-5-4.8-7.7-6.9-2.8-2-5.8-3.8-9.1-4.9-1.6-.6-3.3-1-5-1.2-1.7-.2-3.4-.3-5.1-.1 3.4-.3 6.8.5 10 1.7s6.1 3 8.8 5.1c1.4 1 2.6 2.1 3.9 3.3 1.3 1.1 2.5 2.3 3.6 3.6 1.1 1.3 2.1 2.6 2.9 4.1.8 1.4 1.3 3.1 1.1 4.6v.2l.2.2c.6.7 1.1 1.5 1.6 2.3.4.8.8 1.7 1.1 2.6s.5 1.8.5 2.8c.1 1 .1 1.9 0 2.9.2 3.1.2 6.2.1 9.3-.1 3.1-.7 6.1-1.1 9.2-.4 3.1-.8 6.2-1.3 9.2-.2 1.5-.5 3.1-.9 4.5-.5 1.4-1.1 2.9-1.5 4.4.5-1.5 1.1-2.9 1.7-4.3.5-1.5.8-3 1.1-4.6.6-3.1 1.1-6.1 1.5-9.2l.7-4.6c.3-1.5.4-3.1.5-4.7.2-2.9.2-6 0-9.1zm-7.5 1.3c.1-.8.4-1.6.6-2.4.2-.8.5-1.6.8-2.4l.8-2.4.4-1.2.2-.6.1-.3.1-.2v-.1.1-.1c-.1 0 0 0-.1.1l-.1.1-.2.3-.3.5-.6 1.1c-.4.8-.8 1.5-1.1 2.3-.7 1.6-1.3 3.2-1.6 4.9-.2 1.2-.2 2.4-.2 3.6-.1-.5-.3-1-.4-1.5-.5-1.8-1.2-3.6-2-5.3s-1.7-3.4-3-4.9c-2.4-3-5.9-4.9-9.4-6.3-3.5-1.2-6.3-3.8-8.2-6.9-.9-1.5-1.7-3.3-1.8-5.1-.1-.9.1-1.8.4-2.6.4-.8.9-1.5 1.7-2 1.4-1.1 3.3-1.6 5.1-1.5 1.8.1 3.7.7 5.3 1.6-1.6-1-3.4-1.6-5.3-1.8-1.9-.2-3.9.2-5.4 1.4-.8.5-1.5 1.3-1.9 2.2-.4.9-.6 1.9-.5 2.9.1 2 .8 3.8 1.8 5.4 1.9 3.3 5 6 8.5 7.3 3.4 1.4 6.7 3.3 8.9 6.1 1.8 2.2 3 4.8 4 7.5-1.3-3.2-3.6-6.2-6.7-8-1.8-1.1-3.9-1.7-6-1.8h-.4c-3.2-1-6.6-1.6-10-1.7h-2.5l-.8-.1c-.5 0-1.1-.2-1.6-.3-.5-.2-1-.3-1.5-.6-2-.9-3.7-2.3-4.8-4.1-1.2-1.8-2-3.9-2.3-6-.3-2.2-.2-4.4.5-6.4s2.3-3.7 4.1-4.9c1.9-1.1 4.1-1.8 6.3-2.1-2.2.1-4.5.6-6.5 1.7s-3.7 2.8-4.6 5c-.2.5-.4 1.1-.5 1.7-.1.6-.2 1.1-.2 1.7 0 .6-.1 1.1-.1 1.7 0 .6.1 1.1.1 1.7.3 2.3 1.1 4.5 2.3 6.5 1.3 1.9 3.2 3.5 5.3 4.4 2.1 1 4.6 1.1 6.8.9 2.2-.1 4.4.1 6.6.5.6.1 1.3.2 1.9.3-1.5 0-3 0-4.4.2-4.2.5-8.2 2-12.2 2.6-2 .3-4.1.4-6.1.2-2.1-.1-4.1-.6-5.9-1.4-1.8-.8-3.5-2-4.8-3.6-1.3-1.5-2.2-3.4-2.8-5.3s-.8-4-.7-6c.1-2 .3-4.1 1.1-6 1.6-3.7 4.9-6.6 8.6-8.2 3.4-1.5 7.3-2 10.9-1.4-.5.2-1 .3-1.5.6-.4.2-.8.4-1.2.7-.4.3-.7.6-.9 1.1l-.1.4.4-.1c1-.4 2.1-.6 3.1-.7 1.1-.1 2.1-.2 3.2-.2s2.2.1 3.2.1c1.1.1 2.2.2 3.2.4-1.1-.2-2.1-.4-3.2-.5s-2.2-.2-3.2-.2c-1.1 0-2.2 0-3.3.1-.9.1-1.8.2-2.7.5.2-.2.3-.4.5-.5.3-.2.7-.4 1.1-.6.8-.3 1.6-.6 2.5-.8l1.1-.2-1.1-.3c-4-1-8.5-.6-12.4 1-1.3.5-2.6 1.2-3.7 2.1-1.5.2-2.9.6-4.3 1.2-1.7.7-3.3 1.7-4.7 2.8-.4.3-.7.6-1.1.9-.3.3-.6.7-.9 1-.3.4-.5.8-.8 1.1-3.1.6-6.1 2.2-8.3 4.6-1.3 1.5-2.1 3.3-2.7 5.2-.3 1.2-.5 2.4-.5 3.6-1.5.5-2.8 1.6-3.6 3-.9 1.5-1.3 3.3-1.5 5-.4 3.3-.4 6.7 0 10.1v.2c-.9 2.7-1.6 5.5-1.8 8.4V61c.1.7.2 1.5.4 2.2.3 1.4.5 2.8.7 4.2.2 1.4.4 2.8.8 4.2.2.7.4 1.4.7 2.1.3.6.5 1.3.8 2 .9 2.7 1.7 5.4 2.4 8.2-.5-2.8-1-5.6-1.9-8.4-.2-.7-.4-1.4-.7-2.1-.3-.7-.5-1.3-.6-2-.3-1.4-.4-2.8-.6-4.2-.2-1.4-.4-2.8-.7-4.2-.2-.7-.3-1.4-.3-2v-2c.1-2.2.6-4.4 1.2-6.5.7 2.9 2.2 8.2 5.7 12.4 0 1.1.1 2.2 0 3.4 0 1.9-.1 3.8-.1 5.6 0 1.9-.1 3.8-.3 5.6-.1.9-.1 1.9-.3 2.8-.2.9-.2 1.9-.7 2.7.5-.8.7-1.8.9-2.7s.4-1.9.5-2.8c.2-1.9.4-3.8.6-5.6.2-1.9.2-3.8.3-5.7.1-1.9 0-3.8 0-5.6.1-3.7.6-7.5 1.5-11.1.4-1.8 1-3.6 2.2-5 1.2-1.4 2.8-2.4 4.6-3-1.8.4-3.6 1.4-5 2.7-.7.7-1.2 1.5-1.6 2.4-.4.9-.7 1.8-1 2.7-.6 1.8-.9 3.7-1.2 5.6-.3 1.9-.5 3.8-.6 5.7v.6c-4.1-5.7-5.1-13-5.1-13.1h-.1c-.2-1.6-.3-3.2-.4-4.8-.1-1.7 0-3.4.1-5.2.1-1.7.4-3.4 1.2-4.9.7-1.3 1.8-2.5 3.3-3.1 0 .7 0 1.5.1 2.2.3 1.9 1 3.9 2.4 5.3 1.4 1.5 3.4 2.2 5.3 2.4 3.9.6 7.9-.6 10.8-3-1.6 1-3.3 1.8-5.2 2.2-1.8.4-3.7.4-5.5.1-1.8-.4-3.6-1-4.8-2.3-1.2-1.3-1.9-3.1-2.1-4.9-.5-3.6.5-7.5 2.7-10.4 1.2-1.4 2.7-2.6 4.3-3.5 1-.6 2.2-1 3.3-1.4-.2.4-.3.7-.5 1.1-.7 1.7-1.1 3.6-1.2 5.4-.1 1.9 0 3.7.4 5.5.4 1.8 1 3.6 2.2 5.1.6.7 1.4 1.4 2.2 1.8.8.4 1.7.7 2.6.9 1.8.3 3.6.2 5.2-.6 1 .8 2.2 1.5 3.4 2.1 2 .8 4.1 1.3 6.2 1.4 2.1.2 4.2.1 6.3-.2 4.2-.7 8.1-2.2 12.2-2.8 2.6-.3 5.3-.5 7.8-.1l1.2.3c-.2-.1-.4-.1-.6-.2 1.3.3 2.5.7 3.6 1.3 3.5 1.9 6.1 5.4 7.5 9.2.1.2.2.5.2.7.5 1.8.9 3.6 1.1 5.4 0 .2 0 .3.1.5 0 .6-.1 1.3-.2 1.9.1-.3.2-.5.3-.8.1 1.3 0 2.6 0 3.9 0 3.7.4 7.5.9 11.2.3 1.8.7 3.7 1.1 5.5.4 1.8.2 3.7.1 5.5.1-.9.3-1.8.4-2.8.1-.9 0-1.9-.1-2.8-.1-.9-.3-1.8-.5-2.8s-.3-1.8-.4-2.8c-.4-3.7-.7-7.4-.6-11.1.1-1.8.1-3.8-.1-5.6 0-.3-.1-.7-.1-1 .1-.5.1-1 .2-1.5.3-1.3.3-3 .6-4.6zM80 38.4c-1.7-.5-3.4-1.3-4.3-2.6-1-1.4-1.5-3.1-1.9-4.9-.3-1.7-.4-3.5-.3-5.3.2-2.4.8-4.8 2-6.9.2 0 .5-.1.8-.1-.2 0-.5 0-.7.1.6-.9 1.2-1.7 2.1-2.4 1.3-1.2 2.8-2.2 4.4-3 1.2-.6 2.6-1.1 3.9-1.5-2.2 1.6-4 3.8-5.2 6.4-.9 2-1.1 4.2-1.2 6.3-.1 2.1.2 4.3.7 6.3s1.6 4 3 5.7c.5.6 1.1 1.2 1.8 1.7-1.7.6-3.5.6-5.1.2z" fill="#0b0706" stroke-width="none" opacity="1" stroke="none"></path></g><g id="svga-group-glasses-single-move" transform="matrix(1,0,0,1,0,0)"><g id="svga-group-glasses-single"></g></g></g></g></g><rect id="svga-credit-rect" width="200" height="15" x="0" y="185" fill="#ecf0f1" opacity="0.5" style="display: none;"></rect><text id="svga-credit-text" font-family="Avenir Next, Roboto, Helvetica, Arial, sans-serif" font-size="10px" text-anchor="start" font-weight="400" size="10px" anchor="start" weight="400" fill="#333333" x="33.40447998046875" y="182.60824704170227" style="display: none;"><tspan id="SvgjsTspan27438" dy="13" x="33.40447998046875">Created on AvatarMaker.com</tspan></text></g><defs id="SvgjsDefs27385"></defs></svg>