<svg xmlns="http://www.w3.org/2000/svg" version="1.1" width="600px" height="600px" viewBox="0 0 200 200" style="overflow:hidden!important;"><defs id="SvgjsDefs9792"><linearGradient id="SvgjsLinearGradient10533" x1="100.2671" y1="81.0612" x2="100.2671" y2="115.12" gradientUnits="userSpaceOnUse" class="svga-on-canvas-nose-gradient-single-0-null"><stop id="SvgjsStop10534" stop-opacity="0" stop-color="#f7c1aa" offset="0" ></stop><stop id="SvgjsStop10535" stop-opacity="1" stop-color="#e09879" offset="1" ></stop></linearGradient></defs><g id="svga-group-wrapper"><g id="svga-group-backs-single"></g><g id="svga-group-humanwrap-move" transform="matrix(1,0,0,1,0,0)"><g id="svga-group-humanwrap" transform="matrix(1,0,0,1,0,0)"><g id="svga-group-hair-back-move" transform="matrix(1,0,0,1,0,0)"><g id="svga-group-hair-back" transform="matrix(1,0,0,1,0,0)"><path id="SvgjsPath10583" d="M61.6 38.2S52 52.5 51.1 62.3s1.6 31 1.6 38-.7 25.9-11.6 35.1c0 0 8.2-4.3 12.3-11.6 0 0-2.5 10.5-9.8 16.2 0 0 9.6-4.3 15.7-15.2 0 0-4.8 13.2-12.8 16.8 0 0 9.8-2.7 16.4-14.8 0 0-2.7 16.6-7.3 22.3 0 0 8.6-11.6 10.9-19.4 0 0-3.6 13.7-3.2 20.5 0 0 1.6-10.9 9.8-18.4 0 0 1.1 12.8.2 18.4 0 0 4.6-7.7 5.2-14.6 0 0 3.6 10.9 6.2 15.5 0 0-1.6-9.6-.5-13.9l37.3-2.1s3.2 14.3 6.2 18.7c0 0-2.5-14.8-.9-20.3 0 0 .9 12.1 14.8 19.1 0 0-12.1-12.1-11.1-22.5 0 0 2.7 10.2 10.5 15.9 0 0-6.4-11.4-4.8-20 0 0 5.9 15.7 11.1 19.8 0 0-6.1-10.2-5.7-19.1 0 0 4.1 10 9.1 13 0 0-5.7-7.1-6.4-17.5 0 0 3.6 10 12.3 15 0 0-8.9-7.3-10.7-21.8-1.8-14.6 1.1-37.8 1.4-44.8s0-12.3-2.7-18.4-2.1-12.1-18.4-15.5c-16.4-3.5-64.6 1.5-64.6 1.5z" fill="#504543" stroke-width="none" opacity="1" stroke="none"></path><path id="SvgjsPath10584" d="M50.7 120.8c.7-2.1 1.3-4.2 1.7-6.3 1.8-8.6 1.3-17.4.7-25.9-.7-8.6-1.6-17.1-.9-25.6.4-4.2 1.1-8.4 2.4-12.5.7-2 1.5-4 2.4-5.9 1-1.9 2.1-3.7 3.4-5.4-1.5 1.6-2.8 3.3-3.9 5.2-1.1 1.9-2.1 3.8-2.9 5.8-.8 2-1.4 4.1-1.9 6.2-.5 2.1-.8 4.3-1.1 6.4-1 8.7-.2 17.3.5 25.9.3 4.3.6 8.5.7 12.8 0 2.1 0 4.2-.2 6.4-.2 2.1-.4 4.2-.8 6.3-.7 4.2-1.9 8.3-3.7 12.1-.9 1.9-2 3.8-3.2 5.5-1.3 1.7-2.7 3.3-4.3 4.8 1.7-1.3 3.3-2.8 4.7-4.5 1.4-1.7 2.6-3.5 3.7-5.4 1.1-1.9 1.9-3.9 2.7-5.9zm11.6-6.7c-1.1 2.7-2.1 5.5-3.1 8.2-1 2.7-2.1 5.3-3.5 7.8-1.3 2.5-2.9 4.9-4.7 7-1.9 2.1-4 4-6.5 5.6 2.8-.8 5.5-2.4 7.6-4.5 2.2-2.1 4-4.5 5.4-7.2 1.4-2.6 2.4-5.4 3.2-8.3.8-2.8 1.3-5.6 1.6-8.6zm7.3-1.7c0-4.2-.4-8.5-1.4-12.6.2 4.2.2 8.4-.1 12.6-.3 4.2-.9 8.3-1.8 12.3-.8 4.1-2 8.1-3.4 12-1.4 3.9-3.1 7.7-5 11.5 2.6-3.3 4.7-7 6.5-10.9 1.7-3.9 3-8 3.9-12.1.9-4.3 1.3-8.6 1.3-12.8zm8.1-5.1c.2 3.9.2 7.7-.1 11.5-.3 3.8-.9 7.6-1.9 11.2-.9 3.7-2.2 7.3-3.7 10.8-1.5 3.5-3.3 6.9-5.3 10.2 2.7-2.8 4.9-6.1 6.7-9.5 1.8-3.5 3.2-7.2 4.2-11 .9-3.8 1.5-7.7 1.5-11.6 0-3.9-.4-7.9-1.4-11.6zm8.3 18c-.2 3.3-.7 6.7-1.4 9.9-.7 3.3-1.6 6.5-2.7 9.6-1.1 3.2-2.5 6.2-4 9.3 2.2-2.6 4-5.6 5.5-8.7 1.5-3.1 2.5-6.4 3.2-9.8.7-3.4 1.1-6.9 1-10.3-.1-3.4-.5-6.9-1.5-10.2.1 3.4.1 6.8-.1 10.2zm67.8 8c-1.3-1.9-2.4-4-3.4-6.1-1.9-4.2-3-8.8-3.7-13.4a80.289 80.289 0 0 1-.6-13.9c.2-4.7.6-9.3 1-14 .4-4.7.8-9.4.9-14.1 0-2.4 0-4.7-.1-7.1-.2-2.4-.4-4.7-.9-7.1-.4-2.3-1-4.7-1.7-6.9-.8-2.2-1.6-4.5-2.7-6.6-1.1-2.1-2.4-4.1-3.9-5.9-1.5-1.8-3.2-3.5-5.1-4.9 1.7 1.6 3.3 3.3 4.7 5.2 1.3 1.9 2.5 3.9 3.4 6 1.9 4.2 3.1 8.8 3.8 13.3a80.289 80.289 0 0 1 .6 13.9c-.2 4.7-.6 9.3-1 14-.4 4.7-.8 9.4-.9 14.1 0 2.4 0 4.7.1 7.1.1 2.4.4 4.7.8 7.1.4 2.3.9 4.7 1.7 6.9.7 2.3 1.6 4.5 2.7 6.6 1.1 2.1 2.4 4.1 3.8 6 1.5 1.9 3.2 3.5 5 5-1.6-1.6-3.2-3.3-4.5-5.2zm-17-10.8c-.9-4.6-1.4-9.3-1.6-14.1-.2-4.7-.1-9.5 0-14.2.2-9.5.7-19.1-.3-28.7-.3-2.4-.6-4.8-1.1-7.1-.5-2.3-1.1-4.7-2-7-.9-2.2-2.1-4.4-3.8-6.2-.8-.9-1.8-1.7-2.8-2.3-1.1-.6-2.2-1-3.4-1.1 2.3.5 4.4 1.9 5.8 3.7 1.5 1.8 2.5 4 3.2 6.2.8 2.2 1.2 4.5 1.6 6.9.4 2.3.7 4.7.9 7 .7 9.4.2 19-.1 28.5-.2 9.5-.2 19.3 2.1 28.7 1.1 4.7 2.8 9.3 5.1 13.5 2.3 4.2 5.3 8.1 8.9 11.2-3.3-3.4-6-7.4-8-11.7-2.2-4.1-3.6-8.7-4.5-13.3zm-7.4 6.5c-2.8-9.2-4.1-18.8-4.7-28.4-.8-9.6-1-19.3-2.1-29-.3-2.4-.6-4.8-1-7.2-.4-2.4-.8-4.8-1.6-7.2-.8-2.3-2-4.6-3.7-6.3-1.7-1.8-4-3-6.5-3.1 2.4.3 4.5 1.7 6.1 3.5 1.6 1.8 2.6 4 3.2 6.3.6 2.3.9 4.7 1.2 7.1.3 2.4.5 4.8.7 7.2.8 9.6.9 19.3 1.7 29 .7 9.7 2.1 19.4 5.2 28.7 1.6 4.6 3.5 9.1 6 13.3 2.6 4.1 5.6 8 9.2 11.3-3.3-3.6-6.1-7.5-8.3-11.8-2.2-4.4-4-8.9-5.4-13.4zm-15.6-11.7c-3.5-13.1-5.2-26.6-5.3-40.2-1.5 13.6-.2 27.5 3.4 40.7 1.8 6.6 4.1 13.1 7 19.3 2.9 6.2 6.4 12.1 10.4 17.6-3.4-5.9-6.3-12-9-18.3-2.6-6.2-4.8-12.6-6.5-19.1z" fill="#413230" stroke-width="none" opacity="1" stroke="none"></path></g></g><g id="svga-group-humanbody-back"><path id="SvgjsPath10191" d="M180.8 184.9c-2.3-3.4-38.9-17.8-38.9-17.8l-13.4-5.2-5.6-68.8H76.8L71.3 162l-13.4 5.2S21.4 181.6 19 185c-2.3 3.4-3.3 14.9-3.3 14.9V219h168.5v-19.2c-.1.1-1-11.5-3.4-14.9z" fill="#ffd0bc" stroke-width="none" opacity="1" stroke="none"></path></g><g id="svga-group-chinshadow-single"><path id="SvgjsPath10454" d="M73.4 148.4c11.3 14.1 20.9 13.8 20.9 13.8s9.6.3 20.9-13.9c4.4-5.5 8-11.5 10.8-17.1l-3.1-38.1H76.8l-4.3 54.2c.3.3.6.7.9 1.1z" fill="#e09879" stroke-width="none" opacity="1" stroke="none"></path></g><g id="svga-group-humanbody-front"><path id="SvgjsPath10192" d="M184.5 219c-.1-6.4-.1-12.8-.1-19.2l-.3-.1s.1-.1.2 0c.1 0 .1.1.1.1v-.4l-.1-.5-.1-.9-.2-1.9c-.2-1.3-.4-2.5-.6-3.8-.2-1.3-.5-2.5-.9-3.8-.4-1.2-.8-2.5-1.5-3.6-.8-.9-1.9-1.5-2.9-2.1-1-.6-2.1-1.1-3.2-1.7-2.1-1.1-4.3-2.1-6.5-3.1-4.4-2-8.7-3.9-13.1-5.7-4.4-1.9-8.8-3.7-13.2-5.5l-13-5.2-1.2-16.9c-.4-5.7-.9-11.5-1.3-17.2l-1.3-17.2-1.5-17.3-.1-.8h-.8c-7.7 0-15.4.1-23.1.1l-23.1.2h-.5v.5L75 110.2l-1.3 17.2c-.8 11.4-1.8 22.8-2.8 34.2-5.6 2.1-11.2 4.2-16.7 6.4-5.6 2.2-11.2 4.5-16.8 6.9-2.8 1.2-5.6 2.4-8.3 3.6-2.8 1.3-5.5 2.5-8.2 4.1-.7.4-1.3.8-2 1.4-.2.1-.4.4-.5.6l-.3.6c-.2.4-.4.7-.5 1.1-.6 1.5-1 3-1.3 4.5-.6 3-1.1 6-1.4 9.1l-.1 19.1v.9h.9l42.1.1H100c14 0 28.1-.1 42.1-.2l42.1-.5h.3v-.3zm-84.5-1-42.1-.1-41.2.1-.1-18.1c.3-3 .6-5.9 1.2-8.9.3-1.4.6-2.9 1.1-4.2.1-.3.3-.7.4-.9l.2-.4.3-.3c.5-.4 1.1-.8 1.8-1.2 2.5-1.5 5.3-2.8 8-4.1 2.7-1.3 5.5-2.5 8.2-3.7 5.5-2.4 11.1-4.8 16.7-7.1s11.2-4.5 16.9-6.7l.2-.1v-.2c.9-11.5 1.7-23 2.7-34.4l1.4-17.2 1.5-16.7 22.6.2c7.4.1 14.8.1 22.3.1l1.3 16.4 1.5 17.2c.5 5.7 1 11.5 1.5 17.2l1.6 17.2v.3l.3.1 13.4 5c4.4 1.7 8.9 3.4 13.3 5.2 4.4 1.8 8.8 3.7 13.2 5.6 2.2 1 4.3 2 6.5 3 1.1.5 2.1 1.1 3.2 1.6 1 .6 2.1 1.2 2.9 2 .7 1.1 1.1 2.3 1.4 3.5.3 1.2.6 2.5.8 3.7.2 1.3.4 2.5.6 3.8l.2 1.9.1.9.1.5v.4c0 6.3 0 12.6-.1 18.9l-41.8-.5c-14 .1-28.1 0-42.1 0z" fill="#d17f5b" stroke-width="none" opacity="1" stroke="none"></path><path id="SvgjsPath10193" d="M125.1 142.4s-1.8 23-9.1 32.9c0 0 7.9-25 9.1-32.9zm-34.5 16s5 7.9 11.5 10.1c0 0-9.5 2.2-11.5-10.1zM73.4 140c6.7 25.6 6.7 25.6 8.5 30.7 0 0 .4-12.6-8.5-30.7z" fill="#e09879" stroke-width="none" opacity="1" stroke="none"></path></g><g id="svga-group-clothes-single"><path id="SvgjsPath10728" d="M187 220c0-12.4-1.8-33.5-4-36.1s-36.9-16.9-39.5-17.6-13.8-4.8-13.8-4.8l-.9-15s-3 1.6-8.2 3.6c-12.8 4.9-14.6 4.2-17.3 6.4s-2 12.2-2 12.2l-2.1-.2s-.2-10.4-3-12.5c-2.8-2.1-11.1-3.1-17.9-5.9-5.2-2.1-7.7-3.5-7.7-3.5l-.9 15s-11.1 4.1-13.7 4.8-37.3 15-39.5 17.6-4 23.7-4 36.1H187z" fill="#862584" stroke-width="none" opacity="1" stroke="none"></path><path id="SvgjsPath10729" d="M90.2 179.4h19.7v3.4H90.2v-3.4zm0 14.8h19.7v3.4H90.2v-3.4zm0 14.7h19.7v3.4H90.2v-3.4z" fill="#939393" stroke-width="none" opacity="1"></path><path id="SvgjsPath10730" d="M187.1 214.3c0-1.9-.1-3.8-.2-5.7-.2-3.8-.4-7.5-.7-11.3-.4-3.8-.8-7.5-1.7-11.3-.1-.5-.2-.9-.4-1.4-.2-.4-.4-1-.8-1.4-.9-.7-1.7-1.1-2.5-1.6-1.7-.9-3.4-1.8-5.1-2.6-6.8-3.3-13.8-6.3-20.7-9.2-3.5-1.4-22.9-8-24.4-8.9-.2-4.8-.6-9.7-.9-14.5l-.1-1.6-1.3.9c-1.4 1-3 1.8-4.7 2.4-1.7.7-8.1 3.3-11.7 4.3-1.8.5-3.6 1-5.3 1.6-.9.3-1.8.6-2.6 1.1-.2.1-.4.2-.7.4s-.4.3-.6.5c-.4.4-.7.9-.9 1.3-.8 1.9-1 3.8-1.1 5.6-.1 1.7-.1 3.3 0 5l-1.1-.1c-.1-1.7-.2-3.4-.5-5.1-.3-1.9-.6-3.7-1.5-5.5-.2-.4-.5-.9-.8-1.3-.2-.2-.4-.4-.6-.5-.2-.1-.4-.3-.6-.4-.9-.4-1.8-.8-2.7-1-1.8-.6-19.4-5.8-22.3-7.8l-.4-.1-.1.4-.9 14.8c-1.6.9-12.2 4.3-14 4.8-3.6 1.3-7.1 2.7-10.6 4.1-7 2.8-14 5.7-20.8 8.9-1.7.8-3.4 1.6-5.1 2.5-.4.2-.8.5-1.3.7-.4.3-.8.5-1.3.9s-.7 1-.9 1.5c-.2.5-.3.9-.5 1.4-1 3.8-1.4 7.5-1.9 11.3-.8 7.5-1.3 15.1-1.4 22.7v.9h1c14.6 0 29.2.1 43.8.1 14.6-.1 29.2 0 43.8-.1l43.6-.4 43.3-.5c0-.5.1-1 .1-1.5v-1.4l.1-2.9zm-85.2-51c.2-1.8.4-3.6 1.1-5.2.2-.4.4-.7.6-.9.1-.1.3-.2.4-.3.2-.1.3-.2.6-.3.8-.4 1.6-.7 2.5-1 1.7-.6 8.8-2.1 21-7.5.2 4.5.5 9 .8 13.5v.4c-2.4 1.2-8 5.3-15.8 6.3-1.5.2-2.9.4-4.4.5-2.3.2-4.6.3-6.8.2v-.3c-.1-1.8-.1-3.6 0-5.4zm-2.1 33.9c-1.6 0-3.2.1-4.8.2-1.6.1-3.1.1-4.7.1 0-1 .1-1.9.1-2.9 3.2.2 6.4.2 9.6.2 3.2 0 6.4-.1 9.6-.2.1 1 .2 2 .2 3-1.8-.1-3.4-.2-5.1-.3-1.6-.1-3.2-.1-4.9-.1zm.2 12.2c3.2 0 6.4-.1 9.6-.2.1 1 .2 2 .2 3-1.8-.1-3.4-.2-5.1-.3-1.7-.1-3.3-.1-4.9-.1s-3.2.1-4.8.2c-1.6.1-3.1.1-4.7.1 0-1 .1-1.9.1-2.9 3.2.1 6.4.2 9.6.2zm-.5-15.7v-3.6 3.6zm.3-11.3c-.1 0-3.3.1-4.8.2-1.6.1-3.1.1-4.7.1 0-1 .1-1.9.1-2.9 3.2.2 6.4.2 9.6.2 3.2 0 6.4-.1 9.6-.2.1 1 .2 2 .2 3-1.8-.1-3.4-.2-5.1-.3-1.6-.1-3.2-.1-4.9-.1zm-29-35.3c3 1.9 13.1 5.4 16.7 6.3 1.8.4 3.6.9 5.3 1.5.9.3 1.7.6 2.5 1l.5.3c.2.1.3.3.4.4.2.3.5.7.7 1.1.7 1.6 1 3.5 1.3 5.3.2 1.8.4 3.7.4 5.5v.4c-5.5-.2-10.9-1-16.3-2.2-2.9-.6-9.2-3.4-12.4-5.5l.9-14.1zm-56.1 50.4c.4-3.7.8-7.5 1.6-11.1.1-.4.2-.9.4-1.3.1-.4.3-.8.5-.9.2-.2.6-.5 1-.7.4-.2.8-.5 1.2-.7.3-.1.5-.3.8-.4 1 1.3 1.9 2.6 2.7 4 .9 1.4 1.6 2.9 2.3 4.4 1.4 3 2.6 6.1 3.4 9.2s1.4 6.4 1.9 9.7c.4 3 .8 6.1 1.1 9.2-6 0-12 .1-18.1.1.1-7.1.5-14.3 1.2-21.5zm84.7 21.6c-14.5-.1-29-.1-43.4-.1H31.7c0-1.4 0-2.9-.1-4.3-.1-1.7-.2-3.3-.4-5-.3-3.3-.9-6.6-1.6-9.9-.8-3.2-2.1-6.4-3.7-9.3-1.6-2.9-3.4-5.7-5.7-8.1l4.2-2.1c6.8-3.2 13.7-6.2 20.6-9.2 3.5-1.4 7-2.9 10.5-4.2 1.8-.5 12.7-4.1 14.3-5.1 0 0 6.8 4.2 12.4 5.6 5.8 1.4 11.7 2.2 17.6 2.5h.1c-.1 1.9-.1 3.7-.2 5.6l-.1 3.4c-3.2 0-6.3.1-9.5.2h-.3v.3c0 1.1.1 2.2.1 3.4v.2h.2c1.7 0 3.3 0 5 .1 1.5.1 2.9.1 4.4.1v3.7c0 2.3 0 4.6-.1 6.9-3.1 0-6.2.1-9.3.2h-.3v.3c0 1.1.1 2.2.1 3.4v.2h.2c1.7 0 3.3 0 5 .1 1.5.1 2.9.1 4.4.1 0 3.5 0 6.9.1 10.4-3.2 0-6.3.1-9.4.2h-.3v.3c0 1.1.1 2.2.1 3.4v.2h.2c1.7 0 3.3 0 5 .1 1.5.1 3.1.1 4.6.1.1 3 .1 3.7.2 6.5l-.6-.2zm43.6.4-43-.3c.2-2.7.2-3.5.2-6.5 1.7 0 3.3-.1 4.9-.1 1.6-.1 3.2-.1 4.8-.3.1-1.1.2-2.2.2-3.4v-.3h-.3c-3.2-.2-6.3-.2-9.5-.2.1-3.4.1-7 .1-10.4 1.6 0 3.1-.1 4.6-.1 1.6-.1 3.2-.1 4.8-.3.1-1.1.2-2.2.2-3.4v-.3h-.3c-3.1-.2-6.2-.2-9.4-.2 0-3.9 0-6.6-.1-10.5 1.6 0 3.2-.1 4.7-.1 1.6-.1 3.2-.1 4.8-.3.1-1.1.2-2.2.2-3.4v-.3h-.3c-3.2-.2-6.3-.2-9.5-.2l-.1-3.4c-.1-1.9-.1-3.7-.2-5.6 2.9.1 5.8 0 8.8-.3 3-.3 5.8-.9 8.7-1.6 5.8-1.4 11.8-5.8 11.8-5.8 1.6 1 11 3.6 11.9 4 .4.2 9.7 3.7 13.2 5.1 7 2.9 13.9 5.8 20.8 8.9 1.3.6 2.5 1.2 3.8 1.8-2.1 2.6-3.7 5.4-5 8.5-1.4 3-2.3 6.3-2.7 9.6-.4 3.3-.7 6.6-.7 9.9 0 3.2.1 6.5.4 9.7l-27.8-.2zm27.9.3c0-1.6 0-3.1.1-4.7 0-1.6.1-3.3.2-4.9.2-3.3.5-6.6.9-9.8.4-3.2 1.3-6.4 2.4-9.4.6-1.5 1.2-3 2-4.5.7-1.5 1.5-2.9 2.3-4.2.4.2.9.4 1.3.6.8.4 1.7.9 2.3 1.4.2.2.4.6.6 1 .2.4.3.9.4 1.3.9 3.6 1.4 7.3 1.9 11.1.4 3.7.8 7.5 1.1 11.2.1 1.9.2 3.8.3 5.6l.2 5.6-16-.3z" fill="#670865" stroke-width="none" opacity="1" stroke="none"></path></g><g id="svga-group-head" transform="matrix(1,0,0,1,0,0)"><g id="svga-group-ears-left-move" transform="matrix(1,0,0,1,0,0)"><g id="svga-group-ears-left" transform="matrix(1,0,0,1,0,0)"><path id="SvgjsPath10360" d="M68.8 87.48s-4.2-8.27-8.66-11.42c-4.46-3.15-9.84-3.15-9.84-3.15s-3.02 2.1-1.97 12.6c0 0 4.46 10.76 12.47 14.7 0 0 5.77 1.31 8.66.66-.01-.01 2.09-6.18-.66-13.39z" fill="#ffd0bc" stroke-width="none" opacity="1" stroke="none"></path><path id="SvgjsPath10361" d="M67.88 90.76s-3.67-7.87-6.04-9.84c-2.36-1.97-7.87-5.12-9.32-3.28-1.44 1.84-1.57 7.61-1.57 7.61s1.57 4.59 6.3 7.09c4.72 2.49 10.37 2.76 10.37 2.76l.26-4.34z" fill="#f0b399" stroke-width="none" opacity="1" stroke="none"></path><path id="SvgjsPath10362" d="M47.99 82.25c.02 1.09.09 2.19.17 3.28v.02l.01.03a39.54 39.54 0 0 0 2.2 4.42c.82 1.43 1.75 2.79 2.75 4.11 1.02 1.3 2.15 2.51 3.38 3.64 1.25 1.1 2.62 2.07 4.12 2.83l.04.02.05.01c1.45.31 2.89.55 4.36.7.73.07 1.47.13 2.22.13.74-.01 1.5-.05 2.25-.23l.19-.05.05-.17c.33-1.14.5-2.27.58-3.42.08-1.15.08-2.3-.01-3.44a23.99 23.99 0 0 0-.52-3.38c-.23-1.12-.59-2.2-.99-3.27-.94-1.86-2.02-3.63-3.13-5.4-1.14-1.74-2.35-3.46-3.85-4.95-.75-.74-1.6-1.4-2.5-1.96-.91-.56-1.88-.98-2.87-1.35-1.99-.73-4.08-1.08-6.19-1.12h-.08l-.04.04c-.89.85-1.22 1.93-1.54 2.98-.29 1.06-.45 2.16-.54 3.25-.09 1.09-.13 2.18-.11 3.28zm.33-3.27c.11-1.08.28-2.15.59-3.19.15-.52.35-1.02.59-1.49.23-.44.53-.89.86-1.18 2.01.12 4.01.6 5.9 1.29 1.9.73 3.7 1.74 5.19 3.13 1.5 1.39 2.82 2.99 4.04 4.67 1.22 1.67 2.29 3.46 3.28 5.28.37 1.07.71 2.15.91 3.27.24 1.11.32 2.24.36 3.37.04 1.13-.04 2.26-.19 3.37-.14 1.04-.35 2.09-.65 3.07-.62.1-1.26.12-1.91.1-.71-.01-1.43-.06-2.14-.14-1.41-.15-2.83-.4-4.21-.7-1.39-.74-2.72-1.62-3.93-2.66-1.2-1.07-2.33-2.24-3.35-3.49a42.391 42.391 0 0 1-2.82-3.96c-.86-1.37-1.66-2.79-2.33-4.25l-.16-1.59c-.05-.54-.06-1.09-.09-1.63-.04-1.1-.03-2.18.06-3.27z" fill="#f0b399" stroke-width="none" opacity="1" stroke="none"></path><path id="SvgjsPath10363" d="M52.2 80.53c.18-.69.39-1.36.67-2.03.07-.16.16-.33.26-.48.11-.15.23-.33.48-.37.45.02.72.22 1.06.37a18.3 18.3 0 0 1 3.48 2.44c.53.48 1.03 1.01 1.42 1.66.18.33.36.69.38 1.14.01.25-.01.36-.01.54l.01.51c.16 2.77.58 5.56.83 8.36l-.07.01c-.34-1.37-.61-2.75-.86-4.13-.26-1.39-.44-2.78-.55-4.2l-.03-.54v-.51c0-.26-.13-.56-.28-.84-.31-.57-.74-1.11-1.21-1.61-.94-1-2.01-1.94-3.22-2.61-.29-.16-.65-.33-.91-.33-.23.06-.41.43-.53.73-.26.63-.39 1.33-.52 2.01-.23 1.37-.39 2.77-.48 4.15-.02.34-.04.7-.02 1.01-.01.17.21.46.41.71.42.52.91 1.02 1.4 1.5.81.79 1.65 1.57 2.5 2.33.09-.91.18-1.82.24-2.74.04-.59.07-1.17.08-1.75.01-.53.01-1.07-.06-1.58-.15-.02-.33-.03-.5-.02a4.1 4.1 0 0 0-.69.1c-.46.1-.91.25-1.35.43l-.03-.07c.41-.25.85-.46 1.32-.62.23-.08.47-.15.72-.19.26-.04.49-.07.79-.01l.11.02.03.13c.15.61.18 1.21.22 1.81.02.6.02 1.19.01 1.79-.03 1.19-.08 2.37-.19 3.56l-.07.75-.58-.49c-1.08-.92-2.11-1.87-3.11-2.88-.49-.51-.98-1.03-1.43-1.61-.11-.15-.22-.3-.32-.47-.05-.09-.1-.18-.14-.29-.05-.11-.07-.28-.07-.37-.01-.39.03-.74.06-1.1.14-1.45.39-2.84.75-4.22z" fill="#d17f5b" stroke-width="none" opacity="1" stroke="none"></path></g></g><g id="svga-group-ears-right-move" transform="matrix(1,0,0,1,0,0)"><g id="svga-group-ears-right" transform="matrix(1,0,0,1,0,0)"><path id="SvgjsPath10364" d="M131.2 87.48s4.2-8.27 8.66-11.42c4.46-3.15 9.84-3.15 9.84-3.15s3.02 2.1 1.97 12.6c0 0-4.46 10.76-12.47 14.7 0 0-5.77 1.31-8.66.66.01-.01-2.09-6.18.66-13.39z" fill="#ffd0bc" stroke-width="none" opacity="1" stroke="none"></path><path id="SvgjsPath10365" d="M132.12 90.76s3.67-7.87 6.04-9.84c2.36-1.97 7.87-5.12 9.32-3.28 1.44 1.84 1.57 7.61 1.57 7.61s-1.57 4.59-6.3 7.09c-4.72 2.49-10.37 2.76-10.37 2.76l-.26-4.34z" fill="#f0b399" stroke-width="none" opacity="1" stroke="none"></path><path id="SvgjsPath10366" d="M151.91 78.96c-.09-1.09-.25-2.18-.54-3.25-.32-1.05-.65-2.13-1.54-2.98l-.04-.04h-.08c-2.11.04-4.21.39-6.19 1.12-.99.37-1.96.79-2.87 1.35-.9.56-1.75 1.22-2.5 1.96-1.5 1.49-2.71 3.21-3.85 4.95-1.11 1.77-2.18 3.54-3.13 5.4-.39 1.07-.76 2.15-.99 3.27a23.99 23.99 0 0 0-.52 3.38c-.1 1.14-.09 2.29-.01 3.44s.25 2.28.58 3.42l.05.17.19.05c.75.18 1.51.22 2.25.23.75 0 1.48-.05 2.22-.13 1.47-.15 2.91-.39 4.36-.7l.05-.01.04-.02c1.5-.76 2.87-1.73 4.12-2.83 1.23-1.12 2.36-2.34 3.38-3.64 1-1.31 1.93-2.68 2.75-4.11.82-1.43 1.57-2.89 2.2-4.42l.01-.03v-.02c.07-1.09.14-2.18.17-3.28.01-1.09-.03-2.18-.11-3.28zm-.16 3.28c-.03.54-.04 1.09-.09 1.63l-.16 1.59c-.67 1.47-1.47 2.89-2.33 4.25-.87 1.37-1.8 2.7-2.82 3.96a29.855 29.855 0 0 1-3.35 3.49 21.554 21.554 0 0 1-3.93 2.66c-1.38.3-2.8.54-4.21.7-.71.08-1.43.13-2.14.14-.64.01-1.29 0-1.91-.1-.3-.98-.51-2.03-.65-3.07-.15-1.11-.22-2.24-.19-3.37.04-1.13.12-2.26.36-3.37.2-1.12.54-2.2.91-3.27.98-1.82 2.05-3.61 3.28-5.28 1.21-1.67 2.54-3.28 4.04-4.67 1.49-1.39 3.28-2.4 5.19-3.13 1.88-.69 3.89-1.17 5.9-1.29.34.29.63.74.86 1.18.25.47.44.97.59 1.49.3 1.03.48 2.11.59 3.19.08 1.1.09 2.18.06 3.27z" fill="#f0b399" stroke-width="none" opacity="1" stroke="none"></path><path id="SvgjsPath10367" d="M147.8 80.53c-.18-.69-.39-1.36-.67-2.03-.07-.16-.16-.33-.26-.48-.11-.15-.23-.33-.48-.37-.45.02-.72.22-1.06.37a18.3 18.3 0 0 0-3.48 2.44c-.53.48-1.03 1.01-1.42 1.66-.18.33-.36.69-.38 1.14-.01.25.01.36.01.54l-.01.51c-.16 2.77-.58 5.56-.83 8.36l.07.01c.34-1.37.61-2.75.86-4.13.26-1.39.44-2.78.55-4.2l.03-.54v-.51c0-.26.13-.56.28-.84.31-.57.74-1.11 1.21-1.61.94-1 2.01-1.94 3.22-2.61.29-.16.65-.33.91-.33.23.06.41.43.53.73.26.63.39 1.33.52 2.01.23 1.37.39 2.77.48 4.15.02.34.04.7.02 1.01.01.17-.21.46-.41.71-.42.52-.91 1.02-1.4 1.5-.81.79-1.65 1.57-2.5 2.33-.09-.91-.18-1.82-.24-2.74-.04-.59-.07-1.17-.08-1.75-.01-.53-.01-1.07.06-1.58.15-.02.33-.03.5-.02.23.01.46.05.69.1.46.1.91.25 1.35.43l.03-.07c-.41-.25-.85-.46-1.32-.62a4.23 4.23 0 0 0-.72-.19c-.26-.04-.49-.07-.79-.01l-.11.02-.03.13c-.15.61-.18 1.21-.22 1.81-.02.6-.02 1.19-.01 1.79.03 1.19.08 2.37.19 3.56l.07.75.58-.49c1.08-.92 2.11-1.87 3.11-2.88.49-.51.98-1.03 1.43-1.61.11-.15.22-.3.32-.47.05-.09.1-.18.14-.29.05-.11.07-.28.07-.37.01-.39-.03-.74-.06-1.1a26.8 26.8 0 0 0-.75-4.22z" fill="#d17f5b" stroke-width="none" opacity="1" stroke="none"></path></g></g><g id="svga-group-faceshape-wrap" transform="matrix(1,0,0,1,0,0)"><g id="svga-group-faceshape-single"><path id="SvgjsPath10444" d="M140.4 54.9c-2.2-10-6.3-16-15.2-20.8-9.3-5-25.2-4.8-25.2-4.8s-15.9-.2-25.2 4.8c-8.8 4.8-13 10.8-15.2 20.8-.9 4 0 13.6 0 13.6s1.2 11.9 1.2 15.3-.6 9.6.2 16.4 6.8 23.5 18.1 37.6 20.9 13.8 20.9 13.8 9.6.3 20.9-13.8 17.3-30.9 18.1-37.6c.8-6.8.2-13 .2-16.4s1.2-15.3 1.2-15.3c-.1-.1.9-9.6 0-13.6z" fill="#ffd0bc" stroke-width="none" opacity="1" stroke="none"></path><path id="SvgjsPath10445" d="M140.4 54.9c-2.2-10-6.3-16-15.2-20.8-9.3-5-25.2-4.8-25.2-4.8s-15.9-.2-25.2 4.8c-8.8 4.8-13 10.8-15.2 20.8-.9 4 0 13.6 0 13.6s1.2 11.9 1.2 15.3-.6 9.6.2 16.4 6.8 23.5 18.1 37.6 20.9 13.8 20.9 13.8 9.6.3 20.9-13.8 17.3-30.9 18.1-37.6c.8-6.8.2-13 .2-16.4s1.2-15.3 1.2-15.3c-.1-.1.9-9.6 0-13.6zm0 10.1c-.1 1.1-.2 2.2-.3 3.4l-.5 4.9c-.2 1.6-.4 3.3-.5 4.9-.2 1.7-.3 3.3-.4 5-.1 1.7 0 3.3 0 5 0 3.3-.1 6.6-.4 9.8 0 .4-.1.8-.1 1.2l-.1.6-.1.6c-.1.8-.3 1.6-.5 2.3-.4 1.6-.9 3.1-1.4 4.7-1.1 3.1-2.3 6.1-3.7 9.1s-2.9 5.9-4.6 8.7c-.4.7-.8 1.4-1.3 2.1-.4.7-.8 1.4-1.3 2.1l-1.4 2-1.4 2c-.5.7-1 1.3-1.5 2l-.7 1-.4.5-.4.5-1.6 1.9c-.5.6-1.1 1.2-1.7 1.8-2.3 2.3-4.7 4.4-7.4 6.1-1.4.8-2.7 1.6-4.2 2.1-.7.3-1.5.5-2.2.7s-1.5.3-2.2.4c-.6 0-1.4-.1-2.1-.2-.7-.2-1.5-.4-2.2-.6-1.5-.5-2.9-1.2-4.3-2-2.8-1.6-5.3-3.7-7.6-5.9-2.3-2.3-4.4-4.8-6.3-7.4-2-2.6-3.8-5.4-5.5-8.1-1.7-2.8-3.3-5.7-4.7-8.7-1.4-3-2.7-6-3.8-9.1-.3-.8-.5-1.6-.8-2.3l-.4-1.2-.3-1.2-.3-1.2c-.1-.4-.2-.8-.2-1.2-.1-.4-.1-.8-.2-1.2l-.1-1.2c-.3-3.3-.4-6.6-.3-9.9 0-1.7.1-3.3.1-5s-.1-3.3-.3-5c-.2-3.3-.5-6.6-.8-9.9s-.4-6.6-.3-9.9c0-.8.1-1.6.2-2.4.1-.8.2-1.5.5-2.3.4-1.6.9-3.1 1.5-4.7 1.2-3 2.8-5.8 4.9-8.2.5-.6 1.1-1.1 1.7-1.7.6-.5 1.2-1 1.9-1.5.6-.5 1.3-.9 2-1.4.7-.4 1.4-.9 2.1-1.2.4-.2.7-.4 1.1-.6l1.1-.5.5-.3.6-.2 1.1-.4c.4-.1.8-.3 1.1-.4.4-.1.8-.3 1.1-.4l1.2-.3 1.2-.3c3.2-.7 6.4-1.2 9.6-1.5 1.6-.1 3.3-.3 4.9-.3.8 0 1.6-.1 2.4-.1h2.4c3.3.1 6.5.3 9.8.7 3.2.4 6.5 1.1 9.5 2.2.4.1.8.3 1.1.4l1.1.5.6.3.5.3 1.1.6c1.4.8 2.8 1.7 4.1 2.7s2.5 2.2 3.5 3.4c1.1 1.3 2 2.6 2.8 4.1 1.6 2.9 2.5 6.1 3.3 9.3.2 1.1.3 2.2.3 3.4v3.4c0 1 0 2.1-.1 3.2z" fill="#d17f5b" stroke-width="none" opacity="1" stroke="none"></path></g></g><g id="svga-group-mouth-single-move" transform="matrix(1,0,0,1,0,0)"><g id="svga-group-mouth-single" transform="matrix(1,0,0,1,0,0)"><path id="SvgjsPath10555" d="M84.5 124.7s16.4 8.5 29.9.2c0 0-7.2-3.4-9.6-4.6-.2-.1-4.8 3.3-4.8 3.3l-5.3-3.6c-.1 0-6.6 3.9-10.2 4.7z" fill="#9d6d5f" stroke-width="none" opacity="1" stroke="none"></path><path id="SvgjsPath10556" d="M89.7 133s3.1 4.2 4.3 4.2c1.2 0 4.6-1.8 5.5-1.9.9-.1 6.2 1.8 7.1 1.6.9-.1 3.7-4 3.7-4s-3.1 2.5-4.2 2.5-6.4-1.6-7.3-1.3-4.1 2.1-4.7 2c-.7-.2-4.4-3.1-4.4-3.1z" fill="#e09879" stroke-width="none" opacity="1" stroke="none"></path><path id="SvgjsPath10557" d="M82.82 123.91s4.78 3.98 15.77 4.89c10.98.91 17.42-5.01 17.42-5.01s-8.03 5.24-17.3 4.38c-9.29-.85-15.89-4.26-15.89-4.26z" fill="#8e5748" stroke-width="none" opacity="1" stroke="none"></path></g></g><g id="svga-group-eyes-left-move" transform="matrix(1,0,0,1,0,0)"><g id="svga-group-eyes-left" transform="matrix(1,0,0,1,0,0)"><g id="svga-group-eyesback-left"><path id="SvgjsPath10398" d="M80.2 74.2c7.5 0 13.5 5.8 13.5 13s-6 13-13.5 13-13.5-5.8-13.5-13 6-13 13.5-13z" fill="#ffffff" stroke-width="none" opacity="1"></path></g><g id="svga-group-eyesiriswrapper-left" transform="matrix(1,0,0,1,0,0)"><g id="svga-group-eyesiriscontrol-left" transform="matrix(1,0,0,1,0,0)"><g id="svga-group-eyesiris-left" transform="matrix(1,0,0,1,0,0)"><path id="SvgjsPath10458" d="M80.2 81.9c2.9 0 5.3 2.4 5.3 5.3s-2.4 5.3-5.3 5.3-5.3-2.4-5.3-5.3 2.4-5.3 5.3-5.3z" fill="#ddb332" stroke-width="none" opacity="1" stroke="none"></path><path id="SvgjsPath10459" d="M77.4 88.7c0 1.3.5 2.5 1.3 3.3.5.1 1 .2 1.5.2 2.8 0 5.1-2.3 5.1-5.1 0-1-.3-2-.8-2.8-.7-.3-1.4-.5-2.2-.5-2.8.1-4.9 2.3-4.9 4.9z" fill="#ecc54d" stroke-width="none" opacity="1" stroke="none"></path><path id="SvgjsPath10460" d="M80.2 84.5c1.5 0 2.7 1.2 2.7 2.7s-1.2 2.7-2.7 2.7-2.7-1.2-2.7-2.7 1.2-2.7 2.7-2.7z" fill="#000000" stroke-width="none" opacity="1"></path><path id="SvgjsPath10461" d="M79 84.5c.5 0 .9.4.9.9s-.4.9-.9.9-1-.4-1-.9.5-.9 1-.9zm3.1 4.3c.2 0 .4.2.4.4s-.2.4-.4.4-.4-.2-.4-.4.2-.4.4-.4z" fill="#ffffff" stroke-width="none" opacity="1"></path><path id="SvgjsPath10462" d="M80.2 81.6c-3.1 0-5.6 2.5-5.6 5.6s2.5 5.6 5.6 5.6 5.6-2.5 5.6-5.6-2.5-5.6-5.6-5.6zm0 .6c.2 0 .4 0 .7.1h.5-.2c.1 0 .2 0 .2.1.1 0 .1 0 .2.1.2.1.3.2.5.3.1-.1.2-.1.3-.1.1 0 .1.1.2.1.1.1.1.1.1.2.3-.1.6.2.5.5.3-.2.8.3.6.6.2-.1.4 0 .4.2s.1.4-.1.5c.2 0 .5.1.6.3.1.2.1.5-.1.7.2 0 .4.2.5.4s0 .5-.2.6c.2.1.3.3.3.5s-.1.4-.3.5c.2.1.3.3.3.5s-.2.4-.4.4c.3.2.1.8-.2.8.1.1.1.2.1.3-.1.1-.1.3-.2.4s-.2.1-.4.1c.1.4-.3.8-.8.7 0 .2 0 .3-.1.4s-.1.1-.2.1c-.2.1-.3 0-.5-.1 0 .2-.1.4-.3.5-.2.1-.4 0-.6-.2 0 .2-.1.3-.2.4-.2 0-.3.1-.5.1-.1-.1-.3-.2-.3-.3 0 .2-.2.4-.4.4s-.4-.2-.5-.4c-.1.2-.3.3-.6.2H79c-.2-.1-.3-.3-.3-.5-.2.2-.4.2-.6.1s-.3-.3-.3-.5c-.2.1-.5.1-.6 0h-.1c-.2-.2-.2-.4-.1-.7-.2.2-.4.1-.6 0l-.1-.1c-.1-.2-.1-.4 0-.6-.2 0-.4-.1-.6-.2-.4-.7-.7-1.6-.7-2.4.1-2.8 2.4-5 5.2-5zm2 .4s-.1 0 0 0z" fill="#be9105" stroke-width="none" opacity="1" stroke="none"></path><path id="SvgjsPath10463" d="M76.5 89.7c.2 0 .3-.1.4-.2.2-.1.3-.2.4-.3v-.1c-.2.1-.3.1-.4.2-.1.2-.3.2-.4.4 0-.1 0 0 0 0zm-1.2-1.5c.1 0 .3 0 .4-.1.2 0 .3-.1.5-.1v-.1c-.2 0-.3 0-.5.1s-.3 0-.4.2c0-.1 0 0 0 0zm.5-2.5c.4.1.8.3 1.2.4 0 0 .1 0 0-.1-.4-.1-.8-.3-1.2-.3 0-.1 0 0 0 0zm.2-.7c.2.2.4.3.7.4 0 0 .1 0 0-.1-.2-.2-.5-.3-.7-.3-.1-.1-.1-.1 0 0zm3.7 6.5c.1-.3.2-.7.2-1 0 0-.1-.1-.1 0-.1.3-.1.7-.1 1zm3.5-4c.3.1.7.1 1.1.1v-.1h-1.1zm.2-.7c.3 0 .7.1 1 0v-.1c-.3 0-.6 0-1 .1zm.2-2.7c-.3.2-.6.5-.9.8 0 0 0 .1 0 0 .3-.2.6-.5.9-.8.1 0 0 0 0 0zm-2.8-1.3c-.1.3-.2.5-.2.8 0 .1.1.1.1 0 .1-.2.1-.5.1-.8zm-2.9.3c.1.2.2.5.3.7h.1c-.1-.2-.3-.4-.4-.7z" fill="#be9105" stroke-width="none" opacity="1" stroke="none"></path></g></g></g><g id="svga-group-eyesfront-left"><path id="SvgjsPath10406" d="M80.2 73.7c-7.8 0-14.1 6.1-14.1 13.6s6.3 13.6 14.1 13.6 14.1-6.1 14.1-13.6S88 73.7 80.2 73.7zM68.6 92.6s3.5-5.5 5.1-7.2 3.1-1.8 6.1-1.9 6.3.1 7.9 2.4c1.6 2.3 2.7 6.3 2.7 6.3-7.3-3.2-21.8.4-21.8.4z" fill="#ffd0bc" stroke-width="none" opacity="1" stroke="none"></path><path id="SvgjsPath10407" d="M89.9 90.3c-.2-.6-.4-1.2-.7-1.8s-.5-1.2-.8-1.8c-.3-.6-.7-1.2-1.2-1.6-1-.9-2.3-1.4-3.5-1.6-1.3-.2-2.6-.2-3.8-.1-1.3.1-2.5.1-3.8.5-1.2.4-2.3 1.3-3.1 2.3-.8 1-1.6 2.1-2.3 3.1-.8 1.1-1.5 2.1-2.2 3.2l-.3.4.5-.1c1.8-.4 3.6-.7 5.4-1 1.8-.3 3.6-.5 5.5-.6 1.8-.1 3.7-.2 5.5 0l2.7.3c.9.2 1.8.4 2.7.7-.2-.7-.4-1.3-.6-1.9zm-4.8.5c-1.8-.2-3.7-.2-5.5-.1-1.8.1-3.7.3-5.5.6-1.7.3-3.3.6-4.9 1 1.3-2.1 2.6-4.1 4-6 .4-.5.8-1 1.3-1.4s1.1-.7 1.7-.8c.6-.2 1.2-.2 1.8-.3.6 0 1.3-.1 1.9-.1 1.3 0 2.5 0 3.7.2 1.2.2 2.4.6 3.3 1.5.5.4.8.9 1.1 1.5.3.6.6 1.1.9 1.7.5 1.2 1 2.4 1.4 3.6-.8-.4-1.7-.7-2.6-.9-.8-.2-1.7-.4-2.6-.5z" fill="#191c29" stroke-width="none" opacity="1" stroke="none"></path><path id="SvgjsPath10408" d="M74.2 82.9c1.4-.3 12.4-1 13.3-.5.8.5 2.4 4.3 2.4 4.3-.4-1.1-.3-6.4-.9-6.5s-14.7 1.6-15.4 2.2c-.6.4-2 3.4-2.5 4.4.6-1 2.1-3.7 3.1-3.9zm2.2 13.2c-3.4-.3-7.7-1.9-7.7-1.9 4.5 3 7.7 1.9 7.7 1.9z" fill="#e09879" stroke-width="none" opacity="1" stroke="none"></path></g></g></g><g id="svga-group-eyes-right-move" transform="matrix(1,0,0,1,0,0)"><g id="svga-group-eyes-right" transform="matrix(1,0,0,1,0,0)"><g id="svga-group-eyesback-right"><path id="SvgjsPath10399" d="M119.8 74.2c7.5 0 13.5 5.8 13.5 13s-6 13-13.5 13-13.5-5.8-13.5-13 6-13 13.5-13z" fill="#ffffff" stroke-width="none" opacity="1"></path></g><g id="svga-group-eyesiriswrapper-right" transform="matrix(1,0,0,1,0,0)"><g id="svga-group-eyesiriscontrol-right" transform="matrix(1,0,0,1,0,0)"><g id="svga-group-eyesiris-right" transform="matrix(1,0,0,1,0,0)"><path id="SvgjsPath10464" d="M119.8 82.5c2.6 0 4.7 2.1 4.7 4.7s-2.1 4.7-4.7 4.7-4.7-2.1-4.7-4.7 2.1-4.7 4.7-4.7z" fill="#ddb332" stroke-width="none" opacity="1" stroke="none"></path><path id="SvgjsPath10465" d="M117.3 88.5c0 1.1.4 2.2 1.2 2.9.4.1.8.2 1.3.2 2.4 0 4.4-2 4.4-4.4 0-.9-.3-1.8-.7-2.4-.6-.3-1.2-.5-1.9-.5-2.4 0-4.3 1.9-4.3 4.2z" fill="#ecc54d" stroke-width="none" opacity="1" stroke="none"></path><path id="SvgjsPath10466" d="M119.8 84.8c1.3 0 2.4 1.1 2.4 2.4s-1.1 2.4-2.4 2.4-2.4-1.1-2.4-2.4 1.1-2.4 2.4-2.4z" fill="#000000" stroke-width="none" opacity="1"></path><path id="SvgjsPath10467" d="M118.7 84.8c.5 0 .8.4.8.8s-.4.8-.8.8-.8-.4-.8-.8.4-.8.8-.8zm2.8 3.8c.2 0 .3.1.3.3s-.1.3-.3.3-.3-.1-.3-.3.1-.3.3-.3z" fill="#ffffff" stroke-width="none" opacity="1"></path><path id="SvgjsPath10468" d="M119.8 82.3c-2.7 0-4.9 2.2-4.9 4.9s2.2 4.9 4.9 4.9 4.9-2.2 4.9-4.9-2.2-4.9-4.9-4.9zm.9.6zm-.9-.1c.2 0 .4 0 .6.1h.4c.1 0 .2.1.3.1.1.1.3.1.4.2.1-.1.1-.1.2-.1s.2.1.3.1c0 0 .1.1.1.2.2-.1.5.2.5.4.3-.1.7.2.6.5.1 0 .3 0 .4.2.1.1 0 .3-.1.4.2 0 .4.1.5.3.1.2.1.4-.1.6.2 0 .3.1.4.2 0 .1.1.1.1.2 0 .2-.1.3-.2.4.2.1.2.2.3.4v.1c0 .2-.1.3-.3.4.1.1.2.2.2.3v.2c-.1.1-.2.3-.3.3.2.2.1.7-.2.7.1.1.1.2.1.2-.1.2-.2.3-.2.4-.1.1-.2.1-.3.1.1.4-.3.7-.7.7 0 .1 0 .2-.1.3-.1.1-.2.1-.2.2-.1 0-.3 0-.4-.1 0 .2-.1.4-.3.4-.2.1-.4 0-.5-.2 0 .1-.1.3-.2.4-.1 0-.3.1-.4.1-.1-.1-.2-.1-.3-.3 0 .2-.2.3-.4.3s-.4-.1-.4-.3c-.1.2-.3.3-.5.2-.2-.1-.3-.2-.3-.4-.1.1-.4.2-.5.1-.2-.1-.3-.3-.3-.4-.2.1-.4.1-.6 0s-.2-.4-.1-.6c-.2.1-.4.1-.6 0-.1-.2-.2-.4 0-.6-.2 0-.4-.1-.5-.2s-.1-.2-.2-.3c-.2-.6-.4-1.2-.4-1.8-.2-2.4 1.7-4.4 4.2-4.4zm-2.5 8.1zm-1.2-1.2zm.6.6c0 .1 0 .1 0 0 0 .1 0 .1 0 0z" fill="#be9105" stroke-width="none" opacity="1" stroke="none"></path><path id="SvgjsPath10469" d="M116.6 89.4c.1 0 .2-.1.4-.2.1-.1.3-.1.4-.2v-.1c-.1.1-.3.1-.4.2s-.3.1-.4.3c-.1-.1 0 0 0 0zm-1.1-1.4c.1 0 .2 0 .4-.1.1 0 .3-.1.4-.1v-.1c-.1 0-.3 0-.4.1s-.3.1-.4.2zm.5-2.1c.3.1.7.2 1 .3 0 0 .1 0 0 0-.3-.2-.7-.3-1-.3-.1-.1-.1 0 0 0zm.1-.7c.2.1.4.3.6.4 0 0 .1 0 0-.1l-.6-.3zm3.3 5.8c.1-.3.2-.6.2-.9 0 0-.1-.1-.1 0-.1.2-.1.6-.1.9-.1 0 0 0 0 0zm3-3.5c.3.1.6.1.9.1-.2-.1-.6-.1-.9-.1zm.2-.6h.8v-.1c-.2 0-.5 0-.8.1 0-.1 0 0 0 0zm.2-2.4c-.3.2-.6.4-.8.7.2-.2.5-.4.8-.7zm-2.5-1.1c-.1.2-.1.5-.1.7h.1v-.7zm-2.5.2.3.6h.1c-.2-.2-.3-.4-.4-.6z" fill="#be9105" stroke-width="none" opacity="1" stroke="none"></path></g></g></g><g id="svga-group-eyesfront-right"><path id="SvgjsPath10409" d="M119.8 73.7c-7.8 0-14.1 6.1-14.1 13.6s6.3 13.6 14.1 13.6 14.1-6.1 14.1-13.6-6.3-13.6-14.1-13.6zm-10.4 17.4s.6-2.4 2.2-4.5 5.1-2.3 8.1-2.2c3 .1 4.6.2 6.2 1.7 1.5 1.3 4.6 5.6 5.1 6.2l.1.1-.1-.1c-1.1-.7-13.8-5.6-21.6-1.2z" fill="#ffd0bc" stroke-width="none" opacity="1" stroke="none"></path><path id="SvgjsPath10412" d="M129 89.6c-.8-.9-1.5-1.8-2.3-2.7-.8-.9-1.8-1.7-2.9-2-1.2-.4-2.3-.4-3.5-.5-1.2-.1-2.4-.1-3.6 0-1.2.1-2.4.3-3.5.8-.6.3-1.1.6-1.5 1.1-.4.5-.8 1-1.1 1.5-.6 1.1-1 2.2-1.3 3.4 1.7-.9 3.5-1.3 5.4-1.5 1.8-.2 3.7-.1 5.6.1 1.8.2 3.7.6 5.5 1.1.9.2 1.8.5 2.7.8.4.2.9.3 1.3.5.2.1 1.4.6 1.4.6.1-.2-1.5-2.3-2.2-3.2zm-.4 1.5-2.7-.9c-1.8-.5-3.7-.9-5.6-1.1-1.9-.2-3.8-.2-5.7.1-.9.1-1.9.3-2.8.6-.9.3-1.8.7-2.5 1.2.4-1.1.9-2.2 1.5-3.2.3-.5.7-1 1.1-1.4.4-.4.9-.7 1.4-1 1-.5 2.2-.7 3.4-.8 1.2-.1 2.3-.1 3.5-.1 1.2 0 2.4 0 3.5.4.6.2 1.1.4 1.6.8s.9.8 1.3 1.2c1.3 1.5 2.5 3.2 3.7 4.8-.1-.1-.2-.1-.4-.2-.4 0-.8-.2-1.3-.4z" fill="#191c29" stroke-width="none" opacity="1" stroke="none"></path><path id="SvgjsPath10413" d="M112.9 82.6c.9-.6 11.3 1.4 12.7 1.8s3.9 4.5 3.9 4.5-1.8-5.1-2.4-5.8c-.7-.7-13.7-1.8-14.3-1.7-.6.1-2.1 4.9-2.6 6.1-.1 0 1.7-4.4 2.7-4.9zm12.9 11.6-14.7-.7c6.5 1.9 14.7.7 14.7.7z" fill="#e09879" stroke-width="none" opacity="1" stroke="none"></path></g></g></g><g id="svga-group-facehighlight-single"></g><g id="svga-group-eyebrows-left-move" transform="matrix(1,0,0,1,0,0)"><g id="svga-group-eyebrows-left-rotate" transform="matrix(1,0,0,1,0,0)"><g id="svga-group-eyebrows-left" transform="matrix(1,0,0,1,0,0)"><path id="SvgjsPath10304" d="M91.61 68.78s.68 5.89.07 6.92c-.62 1.03-6.92-2.39-9.93-4.06-3.02-1.68-5.83-2.31-7.18-1.33-1.35.98-5.84 5.47-5.84 5.47s4.12-10.89 4.61-11.59c.49-.7 6.94 1.5 6.94 1.5s1.97 1.59 3.08 2.82l-1.07-2.59s7.5 2.36 7.93 2.92c.41.57 1.14 2.84 1.14 2.84l.25-2.9z" fill="#504543" stroke-width="none" opacity="1" stroke="none"></path><path id="SvgjsPath10305" d="M91.6 68.75c-.01.02 0 .04-.01.06-.01-.01-.02-.01-.02-.01v.02l.01.04.01.04c-.05.41-.1.82-.16 1.26-.05.33-.09.68-.14 1.02-.11-.35-.22-.7-.34-1.05-.08-.25-.18-.5-.28-.73-.05-.12-.1-.25-.17-.37-.07-.13-.1-.23-.24-.38-.13-.12-.23-.16-.34-.22-.11-.06-.22-.11-.32-.17-.22-.1-.44-.2-.65-.29-.44-.19-.87-.35-1.31-.53-1.76-.65-3.52-1.26-5.29-1.85l-.56-.19.25.62.48 1.19c-.16-.14-.32-.3-.47-.44-.52-.47-1.05-.92-1.59-1.36l-.05-.04-.05-.02a54.25 54.25 0 0 0-4.63-1.34c-.39-.08-.78-.17-1.19-.22a6 6 0 0 0-.61-.06c-.1 0-.21 0-.32.02-.12.02-.23.03-.39.15-.1.09-.11.14-.15.2l-.07.16-.13.29-.24.58-.46 1.17c-.61 1.56-1.2 3.14-1.78 4.71l-1.73 4.73-.19.53.37-.37c.95-.96 1.91-1.91 2.88-2.84.98-.91 1.96-1.87 3.01-2.63.53-.34 1.19-.4 1.83-.36.65.05 1.3.2 1.95.41 1.29.42 2.52 1.07 3.75 1.78 1.24.7 2.49 1.36 3.76 1.98 1.27.62 2.54 1.22 3.88 1.65.33.1.67.2 1.03.24.18.02.36.03.55 0 .1-.02.2-.06.29-.13.04-.04.09-.11.12-.15.02-.04.05-.1.06-.15.13-.4.15-.78.17-1.16.01-.38.01-.76 0-1.15-.02-.77-.1-1.53-.17-2.29l-.12-1.14-.07-.57-.04-.29-.02-.14-.01-.07-.01-.04v-.02c-.04-.05-.07-.08-.08-.08zm.02.61.04.56.07 1.14c.04.75.05 1.51.06 2.26 0 .38-.01.75-.04 1.11-.03.36-.06.74-.17 1.03-.03.08-.06.13-.09.15-.04.03-.08.05-.15.06-.13.02-.28.01-.44-.01-.31-.06-.64-.15-.95-.26-1.28-.45-2.54-1.08-3.79-1.7-1.25-.63-2.49-1.31-3.73-1.98-.62-.34-1.25-.68-1.9-.97-.65-.28-1.3-.53-1.98-.73-.67-.19-1.35-.32-2.03-.34-.67-.01-1.38.08-1.96.49-.55.42-1.02.87-1.52 1.33l-1.47 1.39c-.84.8-1.69 1.62-2.52 2.43l1.65-4.12 1.9-4.63.49-1.14.25-.56.12-.28.07-.12c.01-.03.05-.08.02-.04 0 0 .08-.03.15-.04.08 0 .16-.01.25 0 .17.01.37.03.56.05.38.06.76.14 1.14.24 1.51.37 3.01.86 4.51 1.35.51.42 1.02.86 1.52 1.3.51.46 1.02.93 1.48 1.43L84.3 70l-.67-1.6-.83-1.99c1.59.48 3.17.98 4.74 1.52.44.15.88.3 1.31.46.22.08.44.17.64.25.11.04.21.1.31.14.1.04.21.1.27.16.01.01 0 .01.01.01l.03.04.04.06.09.16c.06.11.11.22.16.34.1.24.2.47.3.71.19.48.37.96.54 1.45l.17.48.03-.49c.03-.46.06-.91.08-1.39.02-.41.04-.84.08-1.27v.06l.02.26z" fill="#413230" stroke-width="none" opacity="1" stroke="none"></path></g></g></g><g id="svga-group-eyebrows-right-move" transform="matrix(1,0,0,1,0,0)"><g id="svga-group-eyebrows-right-rotate" transform="matrix(1,0,0,1,0,0)"><g id="svga-group-eyebrows-right" transform="matrix(1,0,0,1,0,0)"><path id="SvgjsPath10306" d="M108.81 71.46s-.04 5.1.68 5.96c.72.87 6.57-2.29 9.37-3.83 2.8-1.55 5.5-2.19 6.94-1.39s6.36 4.52 6.36 4.52-5.25-9.24-5.8-9.83c-.56-.59-6.69 1.52-6.69 1.52s-1.78 1.44-2.73 2.53l.77-2.27s-7.15 2.28-7.51 2.77c-.35.49-.82 2.48-.82 2.48l-.57-2.46z" fill="#504543" stroke-width="none" opacity="1" stroke="none"></path><path id="SvgjsPath10307" d="m132.25 76.67-2.22-4.02c-.74-1.35-1.49-2.67-2.26-4l-.59-.99-.31-.49-.16-.24-.09-.12c-.04-.04-.06-.1-.17-.16-.17-.1-.29-.1-.4-.12a1.71 1.71 0 0 0-.32 0c-.21.01-.4.04-.6.06-.38.06-.77.15-1.14.23-1.5.37-2.97.81-4.43 1.3l-.06.02-.04.03c-.48.4-.96.8-1.42 1.23l-.42.39.35-1.04.18-.53-.54.18c-1.69.57-3.36 1.14-5.03 1.77-.42.16-.83.32-1.24.5-.2.09-.41.18-.62.28-.1.05-.21.1-.3.15-.11.06-.2.11-.31.2-.11.14-.14.22-.19.34-.04.1-.08.22-.13.32-.07.22-.14.43-.2.64-.08.3-.15.61-.23.91-.08-.3-.16-.59-.25-.88-.11-.36-.21-.72-.3-1.08v-.08s-.01.01-.02.01c-.01-.02-.01-.03-.02-.06-.01 0-.03.03-.03.04v.11l-.01.12-.01.25-.01.49v.99c.01.66.03 1.31.09 1.97.03.32.07.66.13.99.07.33.12.66.29.99.02.05.05.08.08.12.02.04.08.09.14.12.11.07.21.09.3.1.2.03.37 0 .55-.01.34-.05.67-.14.99-.24 1.27-.42 2.47-.97 3.64-1.56 1.18-.57 2.35-1.19 3.49-1.83 1.14-.66 2.29-1.25 3.51-1.66.61-.2 1.24-.35 1.88-.42.63-.06 1.29-.03 1.85.25 1.13.62 2.2 1.41 3.26 2.16 1.06.77 2.11 1.55 3.15 2.36l.41.31-.22-.4zm-4.8-3.5c-.54-.38-1.07-.75-1.65-1.1-.61-.33-1.32-.39-1.99-.36-.68.04-1.34.18-1.97.36-.64.19-1.26.42-1.87.69-.61.27-1.2.59-1.77.9-1.15.62-2.31 1.24-3.47 1.83-1.17.58-2.34 1.17-3.56 1.59-.3.1-.61.2-.91.26-.15.03-.31.04-.44.03-.06 0-.12-.02-.15-.05a.324.324 0 0 1-.1-.12c-.14-.25-.22-.56-.29-.88-.07-.31-.12-.63-.15-.96-.08-.65-.15-1.3-.19-1.95l-.06-.98-.03-.49-.01-.25v-.05c.08.37.16.74.22 1.09.07.41.15.8.23 1.2l.09.42.11-.43c.11-.43.24-.85.38-1.27.07-.21.14-.42.22-.62.04-.1.08-.2.13-.3l.07-.14.04-.06.02-.03.01-.01c.05-.04.16-.1.25-.15.09-.05.2-.09.3-.14.2-.09.41-.16.61-.24.42-.15.83-.3 1.25-.45 1.49-.51 3-.99 4.5-1.46l-.6 1.73-.48 1.4 1-1.1c.4-.45.85-.87 1.31-1.28.44-.4.9-.8 1.35-1.17 1.43-.48 2.86-.94 4.3-1.31.37-.09.73-.18 1.1-.23.18-.03.36-.06.54-.07.08-.01.18-.01.25 0 .07 0 .15.02.15.02-.02-.03.01.01.03.04l.08.11.15.23.31.47.6.97 2.37 3.93 2.08 3.49c-.91-.68-1.83-1.35-2.75-2l-1.61-1.11z" fill="#413230" stroke-width="none" opacity="1" stroke="none"></path></g></g></g><g id="svga-group-beardwrap" transform="matrix(1,0,0,1,0,0)"><g id="svga-group-beard-single-move" transform="matrix(1,0,0,1,0,0)"><g id="svga-group-beard-single" transform="matrix(1,0,0,1,0,0)"></g></g></g><g id="svga-group-mustache-single-move" transform="matrix(1,0,0,1,0,0)"><g id="svga-group-mustache-single" transform="matrix(1,0,0,1,0,0)"></g></g><g id="svga-group-nose-single-move" transform="matrix(1,0,0,1,0,0)"><g id="svga-group-nose-single" transform="matrix(1,0,0,1,0,0)"><path id="SvgjsPath10532" d="M100.88 81.23s-2.28-.93-4.05 1.56-5.61 18.17-5.71 23.99c-.1 5.81 1.04 7.79 2.28 7.58 1.25-.21 2.18-3.12 2.91-2.6s2.39 3.74 3.95 3.32c1.56-.42 2.18-3.53 3.32-3.43 1.14.1 2.08 2.91 3.01 3.01s3.12-1.35 2.8-4.98c-.31-3.63-4.67-27.82-8.51-28.45z" fill="url(#SvgjsLinearGradient10533)" opacity="1"></path><path id="SvgjsPath10536" d="M100.88 81.23c-.92-.32-1.98-.17-2.79.35-.84.51-1.4 1.35-1.78 2.24-.76 1.79-1.29 3.67-1.81 5.53-1 3.75-1.81 7.56-2.44 11.39-.3 1.91-.57 3.84-.63 5.75-.02 1.92.05 3.88.52 5.68.13.44.29.88.51 1.23.23.35.52.59.8.54.26 0 .6-.31.87-.66.28-.35.54-.76.84-1.17.15-.21.3-.41.55-.63.13-.1.31-.24.63-.23.15 0 .3.07.4.14l.19.16c.39.41.66.8.96 1.18.29.38.59.75.91 1.08.31.33.66.63 1 .76.08.03.17.07.24.07.04 0 .08.02.11.01.04-.01.07-.01.11-.02.07.01.15-.05.23-.07.08-.04.16-.09.23-.14.31-.24.58-.6.83-.99.26-.39.49-.82.78-1.24.14-.21.32-.43.54-.64.13-.1.26-.2.45-.27.08-.04.19-.05.29-.06.11-.01.21-.01.29.02.38.08.63.28.83.47.21.19.37.4.52.61.3.41.56.83.83 1.21.13.19.27.37.41.52.07.06.14.14.2.16l.04.03h.03c.01 0 .02.01.03.01h.05c.3 0 .73-.21 1.04-.48.66-.56 1.06-1.41 1.24-2.3.18-.9.12-1.83-.01-2.8-.24-1.92-.55-3.84-.88-5.75-.67-3.82-1.44-7.64-2.41-11.4-.5-1.88-1.03-3.75-1.7-5.57-.34-.91-.71-1.81-1.17-2.67-.23-.43-.48-.85-.78-1.23-.25-.34-.62-.72-1.1-.82zm0 0c.49.09.86.47 1.16.84.3.38.56.8.79 1.22.46.86.84 1.76 1.18 2.66.69 1.82 1.27 3.68 1.79 5.55 1.06 3.74 1.95 7.54 2.73 11.35.39 1.91.75 3.82 1.05 5.75.15.96.26 1.99.09 3.01-.18 1.01-.6 2.03-1.43 2.76-.21.18-.43.34-.69.46-.25.13-.54.22-.88.23h-.13l-.15-.04-.15-.05-.11-.06c-.16-.09-.26-.19-.37-.29-.2-.2-.36-.41-.51-.61-.3-.41-.56-.82-.84-1.18-.14-.18-.28-.36-.43-.49-.15-.14-.3-.24-.41-.25-.09-.01-.15 0-.3.12-.13.13-.27.29-.39.48-.25.38-.49.81-.76 1.23-.28.42-.58.86-1.04 1.22-.12.09-.25.17-.39.24-.15.05-.28.14-.46.15l-.26.03c-.08 0-.16-.01-.25-.02-.17-.01-.31-.07-.46-.12-.56-.24-.95-.61-1.31-.98-.35-.37-.66-.77-.96-1.16-.3-.38-.59-.8-.87-1.09-.03-.02-.06-.05-.09-.08 0 .01.03.02.06.02.07 0 .03-.01-.03.04-.12.1-.27.28-.4.46-.28.38-.55.79-.88 1.19-.17.2-.35.4-.58.58-.23.17-.53.35-.89.36-.17.02-.34-.01-.51-.05-.15-.06-.32-.12-.44-.22-.27-.18-.44-.42-.59-.65-.29-.47-.45-.97-.59-1.46-.25-.99-.34-1.98-.39-2.96-.05-.99-.04-1.96 0-2.95.12-1.97.45-3.89.8-5.81.74-3.83 1.67-7.61 2.76-11.34.55-1.86 1.12-3.73 1.89-5.52.38-.89.96-1.73 1.8-2.24.86-.51 1.92-.65 2.84-.33z" fill="#d17f5b" stroke-width="none" opacity="1" stroke="none"></path></g></g><g id="svga-group-hair-front" transform="matrix(1,0,0,1,0,0)"><path id="SvgjsPath10581" d="M76.1 30.7s-5-.6-11.9 4.5-9.5 13.2-10.1 21.1c-.6 7.9 2.6 20.4 5.6 28.4s2.3 25.1-6 38.5c0 0 6.7-7.8 8.7-17.6 0 0-.6 15.7-4.8 25.4 0 0 6.7-10.7 7.6-22.9 0 0 1.9 21.7-8.9 33.9 0 0 10.1-10.6 11.3-28 1.2-17.4-3.4-31.2-3.8-42.1s1-19.8 8.1-23.8c7-4 12.2-1.2 12.2-1.2s5.4 1.6 8.1-.4c0 0 6.3 2.6 14.1.3 0 0 8.4-.3 10.8-3.5 0 0 .9.6 2.8-.2 1.9-.7 5.3-2.2 12.5 6s6.9 20.2 6.3 24.6c-.6 4.4-4.4 19.1-4.5 29.6s4.4 27.7 13.9 35.2c0 0-10.7-12.6-8.6-26.4 0 0 1.3 13.6 10 25.1 0 0-7.6-12.2-7.3-25.8s2.9-50.3 2.8-55.7-.4-19.2-6.6-30.6S122.1 9 111.8 7.3s-17.8.3-23.6 3.1-9.5 8.1-11.1 12.3-1 8-1 8z" fill="#504543" stroke-width="none" opacity="1" stroke="none"></path><path id="SvgjsPath10582" d="M140.9 130.4c-2-3.3-3.4-7-4.4-10.7-2-7.5-2-15.4-1-23.1 1-7.7 2.6-15.4 4.1-23.1 1.5-7.7 2.7-15.6 2.4-23.5-.1-4-.7-8-1.8-11.8-1.1-3.9-2.7-7.6-5-10.9-2.3-3.3-5.3-6.2-9-8-3.6-1.9-7.8-2.6-11.8-2.4-4 .2-7.9 1.1-11.7 2.6-3.7 1.5-7.2 3.4-10.3 6-1.5 1.3-2.8 2.9-3.8 4.6-1 1.7-1.6 3.7-1.8 5.7-.1 2 .2 4 1 5.8.4.9.9 1.8 1.6 2.5.7.7 1.4 1.3 2.3 1.8-.8-.5-1.6-1.2-2.2-1.9-.6-.8-1.1-1.6-1.4-2.5-.7-1.8-.9-3.8-.7-5.7.4-3.9 2.8-7.2 5.7-9.6 2.9-2.5 6.4-4.2 10.1-5.6 3.6-1.3 7.4-2.1 11.2-2.2 3.8-.1 7.6.7 11 2.4 2.6 1.3 4.9 3.2 6.7 5.5-1.1-.9-2.4-1.7-3.7-2.4-2.1-1-4.4-1.6-6.7-1.8-2.3-.1-4.7.3-6.9 1-4.4 1.5-8.3 4.6-10.5 8.7-1.2 2-1.9 4.3-1.9 6.6 0 1.2.1 2.3.6 3.4.4 1.1 1.1 2 2 2.7-1.5-1.7-1.9-4-1.6-6 .2-2.1 1.1-4.1 2.3-5.9 1.2-1.8 2.6-3.4 4.3-4.6 1.7-1.3 3.5-2.3 5.5-3 4-1.4 8.4-1.4 12.3.3 2.6 1.1 5 2.7 7 4.8 1.5 2.6 2.7 5.5 3.5 8.4-.9-1-1.9-1.9-3.1-2.5-1.3-.7-2.7-1.1-4.2-1.4-2.9-.4-5.8 0-8.5 1.1-1.3.6-2.6 1.3-3.6 2.4-1 1-1.7 2.4-1.8 3.8.5-1.3 1.4-2.3 2.4-3.1 1-.8 2.3-1.3 3.5-1.7 2.5-.7 5.1-1 7.7-.6 2.5.4 4.9 1.4 6.7 3.2.7.7 1.3 1.5 1.8 2.4.5 2.6.8 5.2.8 7.8.1 1.9.1 3.9 0 5.8l-.3-1.2c-.4-1.7-1.1-3.4-2-5-.9-1.6-2.1-3-3.4-4.2-1.4-1.2-3-2.2-4.7-2.8-3.4-1.2-7.4-1-10.3 1 1.1-.4 2.3-.7 3.4-.7 3.5 1.3 6.3 3.6 8.5 6.4 2.2 2.9 3.8 6.2 4.7 9.6.9 3.5 1.2 7.2 1.3 10.8.1 2.2 0 4.3 0 6.5-1.3 6.6-2.6 13.3-3.3 20.1-.8 7.8-.6 15.9 1.6 23.5 1.2 3.8 2.7 7.4 4.9 10.7 2.1 3.3 4.9 6.2 8.1 8.4-2.9-2.1-5.6-5-7.6-8.4zm-8.5-82c-2.5-2.8-5.9-4.9-9.6-5.5 2.2-.1 4.3.3 6.2 1.2 3 1.3 5.4 3.7 6.9 6.5 1.6 2.8 2.5 6.1 2.9 9.4.2 2.2.2 4.3.1 6.6v.3c0-2.8-.3-5.6-1-8.4-1.1-3.7-2.9-7.3-5.5-10.1zM77 33.7c-1.2-4.3-.6-8.9 1.5-12.7 2-3.9 5.2-7.1 9-9.2C91.3 9.6 95.6 8.4 100 8c8.7-.8 17.9.7 25.3 5.3 3.7 2.3 6.9 5.4 9.4 8.9 2.5 3.6 4.4 7.6 5.7 11.8s2.1 8.5 2.5 12.9c.4 4.4.3 8.8 0 13.3-.6 8.9-2.3 17.7-3.4 26.6-1.2 8.9-1.8 18-.5 26.9.7 4.5 1.8 8.9 3.5 13 1.8 4.2 4.1 8 7.2 11.3-2.9-3.4-5.1-7.4-6.7-11.5-1.6-4.2-2.5-8.6-3.1-13-.5-4.4-.6-8.9-.4-13.3.2-4.4.8-8.9 1.4-13.3 1.3-8.8 3-17.7 3.7-26.7.4-4.5.5-9 .1-13.6-.4-4.5-1.2-9-2.6-13.4-1.4-4.3-3.4-8.5-6.1-12.3-2.7-3.7-6.1-7-10-9.4-3.9-2.4-8.3-3.9-12.8-4.8-4.5-.8-9.1-1-13.6-.4s-9 1.9-12.9 4.2c-3.9 2.3-7.2 5.8-9.3 9.9-1 2.1-1.7 4.3-1.9 6.6-.2 2.3.1 4.6.7 6.8.7 2.2 1.8 4.2 3.3 5.9 1.5 1.7 3.4 3 5.4 3.9-3.8-1.8-6.7-5.6-7.9-9.9zm.2 12.1c-2.4.3-4.7 1.2-6.7 2.6-1 .7-1.9 1.5-2.7 2.4-.8.9-1.5 1.9-2.1 3-1.2 2.1-2 4.4-2.6 6.7-1 4.7-1.1 9.5-1.1 14.2.1 4.7.5 9.4 1 14.1 1 9.3 2.2 18.6 1.5 27.9-.3 4.6-1 9.2-2.4 13.6-.7 2.2-1.6 4.4-2.6 6.4-1.1 2.1-2.3 4-3.8 5.9 1.6-1.7 3-3.6 4.2-5.6 1.2-2 2.2-4.2 3.1-6.4 1.6-4.4 2.6-9.1 3.1-13.8 1-9.5-.2-18.9-1.1-28.2-.5-4.7-.9-9.3-1-13.9-.1-4.6 0-9.3.8-13.8.4-2.2 1.2-4.4 2.2-6.4.5-1 1.1-2 1.8-2.9.7-.9 1.5-1.7 2.4-2.4 1.8-1.4 3.9-2.4 6.2-2.8 2.2-.4 4.7-.1 6.8 1-2.1-1.4-4.6-1.9-7-1.6zm-18.5 62.1c-.7 3-1.6 5.9-2.6 8.7-1 2.9-2.3 5.7-3.6 8.5 2-2.4 3.7-5 5.1-7.9 1.4-2.8 2.4-5.8 3.1-8.9.6-2.7 1-5.4 1.1-8.1.1 2.2.1 4.5 0 6.7-.3 8.6-2 17.1-4.8 25.2 1.8-3.9 3.2-8.1 4.3-12.2 1.1-4.2 1.7-8.5 2.1-12.9.3-4.3.2-8.7-.2-13.1s-1.4-8.6-2.3-12.8c-1-4.2-1.9-8.4-2.4-12.6-.5-4.2-.5-8.5.4-12.6s2.8-8 5.8-11c1.5-1.5 3.2-2.8 5.1-3.7 1.9-.9 4-1.4 6.2-1.5-2.2-.2-4.4.2-6.4 1s-3.9 2-5.6 3.5c-1.6 1.5-3.1 3.2-4.2 5.2-1.1 1.9-1.9 4-2.5 6.2-1.1 4.3-1.2 8.8-.8 13.2.4 4.4 1.4 8.6 2.3 12.9.2 1.1.5 2.2.7 3.2-.7-2.8-1.5-5.7-2.2-8.5-1.4-6.2-2.5-12.4-2.3-18.6.1-1.5.2-3.1.4-4.6.2-1.5.6-3 1-4.5s1-2.9 1.6-4.3c.7-1.4 1.5-2.7 2.3-4 1.8-2.5 4-4.7 6.6-6.4 1.3-.8 2.7-1.6 4.2-2.1s3-.9 4.6-1.1c-1.6 0-3.2.2-4.8.6-1.6.4-3.1 1-4.5 1.8s-2.7 1.7-4 2.8c-1.2 1.1-2.3 2.3-3.4 3.5-1 1.3-1.9 2.7-2.7 4.1-.7 1.5-1.3 3-1.8 4.5-1 3.1-1.4 6.4-1.6 9.6-.1 3.2.2 6.5.7 9.7.5 3.2 1.2 6.3 2.2 9.4 1.4 4.9 3.1 9.6 4.7 14.3 0 2.7-.2 5.3-.4 7.9-.3 3-.7 6-1.4 8.9z" fill="#413230" stroke-width="none" opacity="1" stroke="none"></path></g><g id="svga-group-glasses-single-move" transform="matrix(1,0,0,1,0,0)"><g id="svga-group-glasses-single" transform="matrix(1,0,0,1,0,0)"></g></g></g></g></g><rect id="svga-credit-rect" width="200" height="15" x="0" y="185" fill="#ecf0f1" opacity="0.5" style="display: none;"></rect><text id="svga-credit-text" font-family="Avenir Next, Roboto, Helvetica, Arial, sans-serif" font-size="10px" text-anchor="start" font-weight="400" size="10px" anchor="start" weight="400" fill="#333333" x="33.40447998046875" y="182.60824704170227" style="display: none;"><tspan id="SvgjsTspan9845" dy="13" x="33.40447998046875">Created on AvatarMaker.com</tspan></text></g></svg>