<svg xmlns="http://www.w3.org/2000/svg" version="1.1" width="600px" height="600px" viewBox="0 0 200 200" style="overflow:hidden!important;"><g id="svga-group-wrapper"><g id="svga-group-backs-single"></g><g id="svga-group-humanwrap-move" transform="matrix(1,0,0,1,0,0)"><g id="svga-group-humanwrap"><g id="svga-group-hair-back-move" transform="matrix(1,2.856368900253737e-18,-2.856368900253737e-18,1,0,0)"><g id="svga-group-hair-back"><path id="SvgjsPath29765" d="M61.7 93.5s-5.2 14.9-5.8 24.5c-.6 9.6-1 17.8-.9 18.9 0 0 1.8 3.4 3.4 4.6l1.5-.6s.9 5.1 3.1 6.4l4.4-.8s3.9 2.8 4.8 2.7c.9-.1 2.9-.8 3.9-3.3 0 0 4.9 2.9 6-.4.1-.3-2.7-45.6-2.7-45.6s-7.5-9.7-17.7-6.4zm57.3 2.2s-.3 28.1-.2 31.9 1 17 1.5 17.5 4.4 1.5 4.4 1.5l4-3.7 1.4 3.2s5-.1 6-2c.3-.7.8-5.2.8-5.2s4.2.4 4.5-.9c.1-.4.7-4.5.2-6.8 0 0 2.8-1.8 3.1-3.9s-.3-9.5-3.4-19.2-4.5-18.5-4.5-18.5-9.7-2.9-17.8 6.1z" fill="#504543" stroke-width="none" opacity="1"></path><path id="SvgjsPath29766" d="M144.4 119.5c-2.2-9.9-4.5-20-7.4-29.7-.1-.4-.6-.2-.6.2 1.1 6.3 2.8 12.5 4.3 18.7 1.3 5.4 7.2 20.4-.9 22.4-.5-.7-1-1.4-1.5-2-.4-.5-.7-1.2-1.3-1.3-.4-5.3-1.2-10.7-1.6-16-.4-5.4-.3-10.9-.8-16.3 0-.3-.5-.3-.5 0-.7 5.6-.2 11.4.1 17.1.4 5.1.5 10.6 2.1 15.6.1.2.2.3.4.2.1.5.6.9.9 1.3.5.7 1.1 1.4 1.6 2.1 0 .3.3.6.7.6 6.2-1.7 5.6-8.2 4.5-12.9zm-2.7 12.2s-.2-.1-.2 0c-.1 0-.1.1-.1.1-.1.1-.3.3-.2.4.2 1.7.2 3.4-.1 5.1-.7.3-1.3.7-2.1.9-.9.2-1.7.1-2.6.2-.1 0-.2.1-.2.1-.3-5.8-1.7-11.6-2.6-17.3-1.1-6.7-2-13.4-3-20.2 0-.3-.5-.2-.5.1.2 6.2 1.2 12.3 2.1 18.3-.1-.2-.2-.5-.2-.7-.2-.5-1-.3-.8.2.3.9.5 1.8 1 2.6.1.1.3.2.4.1.9 5.8 1.7 11.8 3.2 17.5.1.2.4.2.4-.1l.1.1h.2c-.3 1.5-.5 3-.5 4.6v.1c-.9.2-1.8.7-2.6 1-1 .3-2.1.5-3.2.5h-.1c-4.4-16.1-7-31.7-5.6-48.5.1-.7-1-.7-1.1 0-1.3 15.1-.2 31.4 4.9 45.8-1.4 1-2.7 2.2-4 3.4-.5-.2-1.1-.4-1.6-.5-.7-.2-1.4-.5-2.1-.4.3-16.2-1.3-32.5-.9-48.8 0-.8-1.2-.8-1.2 0-.3 16.1-1.1 33.2 1.6 49.2 0 .1.1.1.2.1v.1c.6.4 1.4.5 2.1.7.6.1 1.1.3 1.7.3.2.3.5.4.8.2 1.2-1 2.5-2.1 3.6-3.2.3.8.6 1.6.9 2.3 0 .3.2.6.6.6 2 0 4.9-.5 6.1-2.2.3.1.6-.1.6-.4.2-1.5.2-3 0-4.4 1.4.2 3.2-.3 4.4-1.1.3.1.7 0 .8-.3.4-1.9.3-3.9.1-5.8 0-.5-.1-.7-.3-.7zm-62-31.6c-.1-.6-.9-.6-.9 0 .3 7.9 1 15.9 1.5 23.8.4 7.1.5 14.3 1.5 21.3-.1 0-.2 0-.2.1-1.6 1.4-3.3 1.1-5 .3.7-3.4-.1-8.2-.3-10.4-.8-12.2-.1-24.2 1.1-36.3 0-.4-.7-.6-.8-.1-1.2 7.6-1.6 15.3-1.6 23 0 3.8.1 7.6.3 11.5.2 2.8 2.7 15.8-3.4 15.3 0-.2-.1-.4-.3-.5-1.2-.3-2.5-1-3.5-1.9.8-8.8.7-17.6 1-26.4.3-8.8 1.1-17.8.7-26.6 0-.4-.6-.4-.7 0-1 8.8-.7 17.8-1 26.6-.3 8.7-.9 17.5-.6 26.2l-.1.1h-.1c-.7.1-1.4.2-2.2.4-.7.1-1.3.2-2 .4-.8-.8-1.5-1.7-1.9-2.8-.4-.9-.6-2-1-2.9l2.4-1.2c.3-.1.3-.5.1-.6-.4-7.6-.6-15.1 0-22.6.6-8.2 2.5-16.1 3.9-24.2.1-.3-.4-.4-.5-.1-5 14.5-5.8 31.8-4 46.9-1.1.6-2.3 1.1-3.4 1.8-.3-.7-1.2-1.2-1.7-1.8-.7-.8-1-1.7-1.5-2.6 0-.1-.1-.1-.2-.2.7-7.3.5-14.6 1.6-22 1.1-7.1 3-13.9 5-20.8.1-.5-.6-.7-.7-.2-2.8 7.6-4.5 15.6-5.6 23.5-.9 6.7-1.9 14-.9 20.7 0 .2.2.2.4.1.3.7.7 1.4 1.1 2.1.5.6 1.1 1.5 1.9 1.7 0 .2.1.3.3.3.4-.1.8-.3 1.2-.4-.3 2.2 1.3 4.6 2.8 6.1.2.1.3.2.5.1.7 0 1.3-.2 2-.3.8-.1 1.6-.2 2.4-.4.1 0 .2-.1.2-.2h.1c.4.5.7.9 1.2 1.2.6.4 1.3.8 2.1 1 0 .1.1.3.3.3 2.9.6 4.3-.7 5-2.8 1.7 1.2 4.4.7 5.8-.6.1 0 .2-.1.2-.2.2-7.6-.7-15.3-1.2-22.8-.3-7.7-.7-15.3-1.3-22.9zM56.5 128c.2 2.2 1.2 5 3.2 6.2.2.2.5-.1.4-.4-.5-.9-1.3-1.7-1.8-2.6-.5-1-.9-2.1-1.3-3.2-.1-.4-.5-.3-.5 0zm1.7-5.8c-1 2.1 0 5.1 1.2 6.9.2.3.6 0 .5-.3-.5-1.2-.9-2.3-1.1-3.6-.1-1 0-2-.2-3 0-.1-.3-.1-.4 0zm2.7-4.2c-.1-.2-.5-.2-.5.1 0 .9.1 1.7 0 2.6-.1 1-.4 1.9-.7 2.8-.1.3.3.4.4.2 1.2-1.5 1.5-3.9.8-5.7zm-2.1.5c-.1.2.3.4.4.2.8-1.7 1.4-3.8.9-5.6-.1-.3-.5-.3-.5 0-.4 1.8-.4 3.6-.8 5.4zm1.4-8.3c.3-.8.2-1.8.2-2.6 0-.4-.6-.4-.7 0-.1.8-.3 1.8-.1 2.6.2.2.5.2.6 0zm3.1 30c.1 1.2.8 3 2.1 3.3.3.1.4-.2.3-.4-.4-.5-.9-.8-1.2-1.3-.3-.5-.6-1-.7-1.6-.1-.3-.6-.3-.5 0zm2.9-1.4c-.2-.8-.8-1.4-1.2-2.1-.4-.9-.7-1.8-.9-2.8 0-.2-.4-.2-.4.1 0 1.7.5 4.3 2.1 5.2.2 0 .4-.2.4-.4zm-.3-8.4c-.4.8-.4 1.9-.6 2.8-.1.4.5.5.6.1.2-.9.6-1.9.5-2.8 0-.2-.3-.4-.5-.1zm67.7 12.1c.4-.4.6-.9.8-1.4l.6-1.5c.1-.4-.4-.6-.6-.2l-.9 1.5c-.2.4-.5.9-.5 1.4.1.3.4.4.6.2zm-.3-6.3c-.2.6-.7 1.1-1 1.7-.1.2.2.4.4.4.8-.2 1.2-1.2 1.3-1.9.1-.5-.5-.7-.7-.2zm6-1.5c.3 0 .4-.4.1-.5-.5-.4-1.1-.5-1.5-1-.2-.2-.6.1-.4.3.4.6 1.1 1.3 1.8 1.2zm-2.4 1.8c.4.4.9.7 1.4.6.2-.1.2-.3 0-.4-.4-.1-.7-.2-1.1-.5-.2-.3-.5 0-.3.3zm1.4-13.2c.3.7.6 1.3 1.1 1.9.4.5 1.1 1.2 1.8 1.3.2 0 .6-.2.4-.5-.4-.5-1-.8-1.4-1.2-.5-.5-.9-1.1-1.3-1.7-.2-.4-.7-.2-.6.2zm1.1-4.5c.1.7.5 1.3 1 1.8.5.4 1.2.8 1.9.6.2-.1.3-.4.1-.5-.4-.3-.9-.4-1.4-.7-.5-.3-.8-.8-1-1.4-.2-.3-.7-.1-.6.2zm.7-5c.6-.5.8-1.5.8-2.2 0-.3-.4-.3-.4 0 0 .8-.4 1.3-.7 2-.1.2.2.3.3.2zm-1.1-5.7c-.1.5-.2 1.1-.1 1.6.1.3.4.2.5 0 .2-.5.2-1.1.2-1.6.1-.4-.5-.4-.6 0zm-68.3 34c-.3-.2-.7.1-.4.4.5.5 1 1.1 1.6 1.4.2.1.5-.1.4-.4-.4-.6-1.1-1-1.6-1.4zm2.2-1.8c.2 0 .3-.3.2-.4-.4-.4-.9-.6-1.3-1-.5-.4-.8-.8-1.1-1.4-.2-.3-.7 0-.5.3.4 1 1.5 2.5 2.7 2.5zm-1.9-9.7c1.4-.5 2-2.1 1.7-3.5-.1-.4-.7-.3-.7.1.1 1.2-.5 2.1-1.3 2.8-.3.3 0 .7.3.6zm-5.1-7c.2.1.4-.1.3-.2-.1-.6-.6-1.1-.9-1.5-.4-.5-.8-1.1-1.3-1.6-.2-.2-.6.1-.4.3.4.6.7 1.1 1.1 1.7.4.5.7 1 1.2 1.3zm64 5.3c.3 0 .3-.3.2-.5-.2-.3-.6-.5-.9-.8-.3-.3-.5-.7-.7-1.1-.2-.4-.8-.2-.7.2.4 1 1.1 2.2 2.1 2.2zm-6 12.5c.8-.4 1.3-1.3 1.6-2.1.1-.3-.4-.5-.5-.1-.2.8-.8 1.4-1.2 2-.2.1 0 .2.1.2zm-1.5-5.5c.4-.3.7-.8 1.1-1.2.2-.2-.2-.6-.4-.4-.3.4-.8.8-1 1.3-.1.3.1.5.3.3z" fill="#413230" stroke-width="none" opacity="1"></path></g></g><g id="svga-group-humanbody-back"><path id="SvgjsPath29668" d="M180.8 184.9c-2.3-3.4-38.9-17.8-38.9-17.8l-13.4-5.2-5.6-68.8H76.8L71.3 162l-13.4 5.2S21.4 181.6 19 185c-2.3 3.4-3.3 14.9-3.3 14.9V219h168.5v-19.2c-.1.1-1-11.5-3.4-14.9z" fill="#ffd0bc" stroke-width="none" opacity="1"></path></g><g id="svga-group-chinshadow-single"><path id="SvgjsPath29664" d="M74.4 151c3.3 4.9 8 13.4 10.3 14 1.7.5 6.3-1.4 8.5-2.3.8-.3 1.7-.3 2.5 0 2.1 1 6.8 2.8 8.4 2.3 2.3-.6 7-9 10.3-14 1.78-2.67 7.23-9.55 11.96-15.83l-3.42-42.07H76.82l-4.4 55.29c.85 1.08 1.55 1.98 1.98 2.61z" fill="#e09879" stroke-width="none" opacity="1"></path></g><g id="svga-group-humanbody-front"><path id="SvgjsPath29669" d="M184.5 219c-.1-6.4-.1-12.8-.1-19.2l-.3-.1s.1-.1.2 0c.1 0 .1.1.1.1v-.4l-.1-.5-.1-.9-.2-1.9c-.2-1.3-.4-2.5-.6-3.8-.2-1.3-.5-2.5-.9-3.8-.4-1.2-.8-2.5-1.5-3.6-.8-.9-1.9-1.5-2.9-2.1-1-.6-2.1-1.1-3.2-1.7-2.1-1.1-4.3-2.1-6.5-3.1-4.4-2-8.7-3.9-13.1-5.7-4.4-1.9-8.8-3.7-13.2-5.5l-13-5.2-1.2-16.9c-.4-5.7-.9-11.5-1.3-17.2l-1.3-17.2-1.5-17.3-.1-.8h-.8c-7.7 0-15.4.1-23.1.1l-23.1.2h-.5v.5L75 110.2l-1.3 17.2c-.8 11.4-1.8 22.8-2.8 34.2-5.6 2.1-11.2 4.2-16.7 6.4-5.6 2.2-11.2 4.5-16.8 6.9-2.8 1.2-5.6 2.4-8.3 3.6-2.8 1.3-5.5 2.5-8.2 4.1-.7.4-1.3.8-2 1.4-.2.1-.4.4-.5.6l-.3.6c-.2.4-.4.7-.5 1.1-.6 1.5-1 3-1.3 4.5-.6 3-1.1 6-1.4 9.1l-.1 19.1v.9h.9l42.1.1H100c14 0 28.1-.1 42.1-.2l42.1-.5h.3v-.3zm-84.5-1-42.1-.1-41.2.1-.1-18.1c.3-3 .6-5.9 1.2-8.9.3-1.4.6-2.9 1.1-4.2.1-.3.3-.7.4-.9l.2-.4.3-.3c.5-.4 1.1-.8 1.8-1.2 2.5-1.5 5.3-2.8 8-4.1 2.7-1.3 5.5-2.5 8.2-3.7 5.5-2.4 11.1-4.8 16.7-7.1s11.2-4.5 16.9-6.7l.2-.1v-.2c.9-11.5 1.7-23 2.7-34.4l1.4-17.2 1.5-16.7 22.6.2c7.4.1 14.8.1 22.3.1l1.3 16.4 1.5 17.2c.5 5.7 1 11.5 1.5 17.2l1.6 17.2v.3l.3.1 13.4 5c4.4 1.7 8.9 3.4 13.3 5.2 4.4 1.8 8.8 3.7 13.2 5.6 2.2 1 4.3 2 6.5 3 1.1.5 2.1 1.1 3.2 1.6 1 .6 2.1 1.2 2.9 2 .7 1.1 1.1 2.3 1.4 3.5.3 1.2.6 2.5.8 3.7.2 1.3.4 2.5.6 3.8l.2 1.9.1.9.1.5v.4c0 6.3 0 12.6-.1 18.9l-41.8-.5c-14 .1-28.1 0-42.1 0z" fill="#d17f5b" stroke-width="none" opacity="1"></path><path id="SvgjsPath29670" d="M125.1 142.4s-1.8 23-9.1 32.9c0 0 7.9-25 9.1-32.9zm-34.5 16s5 7.9 11.5 10.1c0 0-9.5 2.2-11.5-10.1zM73.4 140c6.7 25.6 6.7 25.6 8.5 30.7 0 0 .4-12.6-8.5-30.7z" fill="#e09879" stroke-width="none" opacity="1"></path></g><g id="svga-group-clothes-single"><path id="SvgjsPath29553" d="M67.8 137.1c-1.1-1.6-5.2 6-4.4 9.6.8 3.7-.8 3.1-.6 6.8.2 3.7-2.5 3.9-2.7 5.4s.2 4.8.2 4.8-11.8 2.1-16.4 4.4-17.5 6.9-19.7 7.9-5.6 2.5-5.8 3.5-1.7-1.4-3.5 2.9-4.4 11.4-3.8 14.3-.4 9.8-.2 11.9c.2 2.1 0 11.4 0 11.4h177.5s-1.2-10.6-.6-14.2 0-13.1-.4-15.2-1.5-7.3-3.1-8.1c0 0 0-3.5-5-6s-15-5-19.7-6.8-15.6-6.4-17-6.9-3.1-1.2-3.1-1.2l-1.9-.2s1.7-6.9 0-8.7-1.7-5.2-2.5-6 2.9-6.2-2.5-8.9c0 0 1.4 2.5-10.2 6.8s-31.2 3.3-41.2 1-12.6-7.3-13.4-8.5z" fill="#001e32" stroke-width="none" opacity="1"></path><path id="SvgjsPath29554" d="M132 138.2zm-77 30.3c-2.4.7-4.9 1.4-7.3 2.1-2.4.8-4.8 1.4-7.2 2.6l-.5.3-.3.3-.7.6-1.5 1.1-3 2.3c1.1-.6 2.2-1.2 3.3-1.9.5-.3 1.1-.7 1.6-1l.8-.6.4-.3.3-.2c1.1-.5 2.3-.8 3.5-1.2l3.6-1.1c2.4-.7 4.8-1.5 7.2-2.3 1.2-.4 2.4-.9 3.6-1.4 1.2-.5 2.4-1 3.3-1.9-1.1.7-2.3 1-3.5 1.4-1.2.5-2.4.8-3.6 1.2zm134.4 51.4c-.3-3.1-.6-6.3-.7-9.5 0-1.6-.1-3.2.1-4.6.2-1.7.2-3.3.3-4.9 0-3.2-.1-6.4-.5-9.7-.2-1.7-.6-3.2-1-4.9-.2-.8-.5-1.6-.8-2.4l-.6-1.2c-.2-.3-.4-.6-.7-.9 0-.2-.1-.3-.1-.5l-.3-.9c-.2-.6-.5-1.1-.9-1.6-.7-1-1.6-1.8-2.5-2.4-1.9-1.3-4-2-6-2.8-4-1.4-8.1-2.6-12.1-3.9-2-.6-3.9-1.3-5.9-2.1l-5.9-2.4-5.8-2.2-2.9-1.2c-1-.4-2-.8-3-1.1h-.2l-.8-.1c.4-1.8.6-3.6.5-5.5-.1-.6-.1-1.2-.4-1.8-.1-.3-.3-.7-.6-1l-.2-.3c-.1-.1-.1-.2-.2-.2-.5-.7-.8-1.6-1.1-2.6-.1-.5-.3-1-.4-1.6-.1-.3-.2-.6-.4-.9 0-.1-.1-.1-.1-.2 0-.4.2-.9.3-1.5.1-.5.2-1.1.3-1.7.1-1.2-.1-2.5-.7-3.6-.7-1.1-1.7-1.9-2.7-2.4 0 0-1.4-.6-3.1-.9-1.8-.3-2.8-.4-2.8-.4s.3 4.5.4 5.8c-.6.3-1.1.6-1.7.8-2.7 1.2-5.4 2.2-8.2 2.9-5.7 1.3-11.6 1.8-17.5 1.8s-11.8-.4-17.6-1.5c-2.9-.6-5.7-1.4-8.3-2.8l-1.5-.9c-.1-.2-.1-.4-.1-.6 0-.5.4-5.2.4-5.4s-5.4.6-5.8.8c-.1 0-.2.1-.3.1-.3.2-.5.4-.7.6-.4.5-.7 1-1.1 1.6-.6 1.1-1.1 2.2-1.5 3.4-.4 1.2-.6 2.4-.5 3.7.2 1.2.5 2.4.1 3.6-.2.6-.4 1.2-.5 1.8-.1.6-.1 1.3-.1 1.9.1 1.2-.2 2.4-1.1 3.3-.4.4-.9.8-1.3 1.3-.2.3-.3.7-.3 1v.9c0 1.2.1 2.3.2 3.5-3.6.6-7.1 1.4-10.6 2.3-1.8.5-3.6 1-5.3 1.8-1.7.8-3.3 1.5-5 2.1-3.4 1.3-6.9 2.6-10.3 3.9-1.7.6-3.5 1.2-5.2 2-.8.4-1.7.7-2.5 1.2-.8.4-1.7.8-2.5 1.5-.2.2-.4.4-.6.7h-.4c-.3 0-.7.1-1 .2-.6.3-1 .8-1.3 1.2-.3.4-.5.9-.7 1.3-.7 1.7-1.4 3.4-2.1 5.2-.6 1.8-1.2 3.5-1.7 5.4-.2.9-.4 1.9-.5 2.9 0 .5-.1 1 0 1.6l.1.6v.6c.1 1.7 0 3.6-.1 5.4-.1 1.8-.3 3.7-.2 5.6.1 3.6 0 7.3 0 11v.9h.9l44.4-.4c14.8-.1 29.6-.2 44.4-.1 14.8 0 29.6.2 44.4.3l44.4.3h1l-.7-1.2zM137 153.3l.1.1c.1.1.1.2.2.4.1.4.2.8.2 1.3.1 1.9-.3 4.1-.8 6l-.3 1.1h.2c-.9.8-1.7 1.5-2.6 2.2.2-.5.3-1.1.4-1.6.1-.8.1-1.6 0-2.4-.1-.8-.3-1.6-.6-2.4-.3-.7-.6-1.4-1-2.1v-.2c1.5-.8 2.8-1.6 4.2-2.4zm-10.2 9.5-.1-.2c-.4-.9-.9-1.8-1.4-2.7 2.2-1.1 4.4-2.3 6.6-3.6l.1.1c.4.6.8 1.3 1.1 2 .3.7.6 1.4.7 2.2.2.8.3 1.5.3 2.3 0 .6 0 1.2-.1 1.8-1.4 1.2-2.8 2.3-4.3 3.3-1 .7-2.1 1.5-3.2 2.1 0-.1.1-.3.1-.4.1-1.1.1-2.3.1-3.4.1-1.2.2-2.4.1-3.5zm-4.3.6c-.2-.6-.5-1.2-.9-1.6l2.7-1.2c.1-.1.2-.1.3-.1.5.9.9 1.7 1.4 2.6.1 1.1.2 2.2.2 3.3.1 1.1.1 2.3.2 3.4v.6c-.3.1-.6.3-.8.4-.8.3-1.4.6-2.3.8-.3.1-.6.1-.9.2.2-1.7.3-3.4.4-5-.2-1.2-.1-2.3-.3-3.4zm-9.3 4.8c-.4-.8-.6-1.7-.8-2.6-.1-.4-.1-.7-.2-1.1l.9-.1c.7-.1 1.3-.2 1.9-.4l1-.2 1-.3c1.2-.4 2.5-.9 3.7-1.4.4.4.8.9.9 1.5.2.9.2 1.9.3 3l.2 5.1c-.5.1-.9.2-1.4.2-2.4.4-4.8.7-7.2 1 0-.1.1-.3.1-.4.1-.5.1-.9.1-1.4 0-1-.1-1.9-.5-2.9zm-19.9 3.9c.2.6.2 1.2.5 1.8.1.2.2.4.3.5-1.4 0-2.7-.1-4-.2-.4 0-.8-.1-1.2-.2l-.6-.1-.6-.2-2.4-.9h-.1c-.1-.7-.1-1.3-.2-2 0-.6-.1-1.1 0-1.7.1-.5.2-1.1.4-1.6s.4-1.1.4-1.7h.2c.6.1 1.2.3 1.9.4.3.1.6.2.9.2.3.1.7.2 1.1.2.9.1 1.7.1 2.5.1.1.6.2 1.1.2 1.7v.1c.2 1.2.4 2.4.7 3.6zm.8 1.7c-.2-.6-.2-1.2-.3-1.8-.1-1.2-.3-2.4-.4-3.7 0-.6-.1-1.1-.1-1.7h.6c5.2-.2 10.3-.9 15.5-1.7l2.1-.3c.1.4.1.8.2 1.1.2.9.5 1.9 1 2.7.4.7.6 1.7.7 2.6.1.6.1 1.2.1 1.9-1 .1-1.9.3-2.9.4-3.4.4-6.8.8-10.2.9-2 .1-3.9.2-5.9.2-.3-.1-.4-.3-.4-.6zm41.9-27.6s-.1 0 0 0c-.1-.1-.1 0 0 0zm-2.8-6.8c0-.1.1-.1.1-.1.5.3.9.7 1.1 1.2.4.8.6 1.6.5 2.6-.1.5-.1 1-.2 1.5s-.3 1-.4 1.7c0 .2 0 .4.1.8 0 .1.1.2.1.3l.2.2c.1.1.1.3.2.5.1.5.2 1 .4 1.5.3 1.1.6 2.2 1.3 3.3.1.1.2.3.3.4-1.3.6-2.6 1.2-4 1.8-.1-.9-.2-1.9-.5-2.8-.2-.7-.6-1.2-.7-1.8-.2-.5-.1-1 .1-1.7.1-.6.2-1.3.2-2s-.2-1.4-.5-2c-.3-.6-.6-1.2-1.1-1.7-.3-.3-.6-.6-.9-.8.3-.2.7-.4 1-.6.6-.4 1.3-.8 1.9-1.4.3-.2.6-.5.8-.9zm-6.7 4.4c1-.4 2-.9 2.9-1.4.8.7 1.3 1.6 1.6 2.5.2.6.3 1.2.2 1.8 0 .6-.2 1.2-.3 1.8-.1.3-.1.6-.2 1s0 .8.1 1.1c.2.7.5 1.3.7 1.8.3.9.5 1.9.5 2.9-2.2 1-4.5 2.1-6.8 3v-1.4c-.1-.9-.3-1.7-.7-2.6l-.6-1.2-.3-.6c-.1-.2-.2-.3-.3-.5-.2-.3-.2-.7-.2-.9.1-.3.3-.5.6-.6l.3-.1v-.2c-.1-1-.2-2-.4-2.9-.2-.8-.4-1.5-.8-2.2 1.3-.3 2.5-.8 3.7-1.3zm-3.8 1.4c.2.7.4 1.5.4 2.2.1.9.1 1.8.1 2.6-.4.2-.8.5-.9.9-.2.6-.1 1.1.1 1.5l.3.6c.1.2.2.3.3.5.2.4.3.7.5 1.1.3.8.5 1.6.6 2.3v1.7c-.2.1-.4.2-.6.2l-3 1.2c0-1.1-.1-2.1-.3-3.2-.1-.7-.3-1.3-.7-2-.1-.2-.2-.3-.3-.5-.1-.1-.2-.2-.2-.4-.1-.2-.2-.5-.3-.8-.1-.6 0-1.2.2-1.8.2-.6.4-1.3.4-2-.1-1.2-.6-2.3-1.3-3.2 1.7.1 3.2-.4 4.7-.9zm-4.8 1.4c.1 0 .1 0 0 0 .7.9 1 2.1 1 3.1 0 1.2-1.1 2.3-.9 3.9 0 .4.1.8.3 1.1.1.2.2.3.3.5.1.1.2.2.2.4.2.5.4 1.1.5 1.8.2 1.1.3 2.2.3 3.4-1.1.4-2.1.7-3.2 1-1.2.4-2.4.6-3.7.8l-.4.1c0-1.9-.4-3.7-1.4-5.3-.3-.5-.6-.7-.7-1.1-.1-.3-.1-.7.1-1.1.3-.7.9-1.5 1.6-2l.1-.1v-.1c0-1 0-2-.1-2.9-.1-.8-.2-1.6-.5-2.4 2.3-.4 4.4-.7 6.5-1.1zm-54.5-.4c-.1-1.1.2-2.4.5-3.5.4-1.2.8-2.3 1.4-3.4.3-.5.6-1.1 1-1.5.2-.2.4-.4.7-.6.2-.2.5-.2.7.1 1.5 2.6 3.8 4.6 6.5 6 2.6 1.4 5.5 2.3 8.4 2.9 2.9.6 5.8 1 8.8 1.3 2.9.3 5.9.5 8.9.6 3.8.1 7.5 0 11.3-.4.1.3.1.6.1.9 0 .5.1 1 0 1.4 0 .9-.1 1.8-.2 2.7-.8.5-1.5 1.2-1.9 2.1-.2.5-.3 1.1-.1 1.7.1.3.2.5.4.8.2.3.3.4.4.6.4.7.8 1.6 1 2.5.2.8.3 1.6.3 2.4l-2.6.2c-2.5.4-5.1.8-7.6 1.1-2.6.4-5.1.7-7.6 1-.3 0-.6.1-.9.1-.1-.2-.1-.4-.1-.7.1-1.2.6-2.5 1-3.8v-.2c0-2.1.1-4.3 0-6.5l.1-3.2c.1-1.1.1-2.2.3-3.2-.4 1-.5 2.1-.7 3.2-.2 1.1-.3 2.1-.4 3.2-.2 2.1-.2 4.3-.3 6.4-.2.6-.5 1.2-.7 1.9-.2.7-.3 1.4-.4 2.1 0 .2 0 .6.1.8-.7 0-1.3.1-1.9.1-.3 0-.5 0-.8-.1-.3-.1-.7-.1-1-.2-.7-.1-1.3-.2-1.9-.3h-.3c0-.3-.1-.6-.1-.9-.2-1.1-.3-2.2-.2-3.3.1-.5.2-1 .5-1.6.2-.6.3-1.2.4-1.8.2-1.2.2-2.4.2-3.5.1-1.2-.1-2.4-.2-3.5s-.2-2.3.3-3.4c-.7 1-.7 2.2-.8 3.4 0 1.2 0 2.3-.1 3.4-.1 1.2-.1 2.3-.3 3.4-.1.5-.2 1.1-.4 1.6s-.4 1.1-.5 1.7c-.2 1.2 0 2.5.2 3.6 0 .2.1.4.1.6-2.2-.2-4.3-.4-6.5-.5 2.2.5 4.4.9 6.6 1.4v.1c0 .5-.2 1-.3 1.6-.1.6-.2 1.1-.2 1.8 0 .6.1 1.2.1 1.8.1.6.2 1.2.4 1.8l-4.5-1.6c-1.7-.6-3.4-1.2-5.2-1.8 0-.4.1-.8.2-1.2.1-.3.2-.7.3-1 .1-.3.3-.7.2-1.1 0-.8-.3-1.5-.5-2.1-.2-.7-.2-1.3-.2-2 .1-1.3.8-2.6 1.4-3.8.6-1.1 1.1-2.4 1.2-3.7.6.1 1.2.3 1.7.4 1.8.4 3.8.7 5.7.4-.9-.1-1.9-.2-2.8-.5-.9-.2-1.8-.5-2.7-.7-.7-.2-1.3-.4-2-.6-.2-.6-.3-1.2-.4-1.9-.1-.7-.2-1.4 0-2.1.2-.7.3-1.4.5-2.1.2-.7.4-1.4.9-2-.6.5-.9 1.2-1.2 1.9-.3.7-.6 1.4-.8 2.1-.2.8-.2 1.6-.2 2.3 0 .5.1 1 .2 1.5-.8-.2-1.6-.5-2.5-.7-1.4-.4-2.9-.9-4.4-1.3v-1.2c0-.7 0-1.4-.1-2.1-.1-.6.2-1.3.4-1.9.5-1.3.9-2.7 1.6-3.8-.5.5-.8 1.1-1.2 1.7-.3.6-.7 1.2-.9 1.9-.1.3-.3.6-.4 1-.1.2-.1.3-.2.5 0 .1-.1.2-.1.3v.3c0 .7-.1 1.4-.1 2.1v.9c-.7-.2-1.3-.4-2-.5-.1-.9-.2-1.8-.1-2.7 0-.9.1-1.9.2-2.8.2-.9.4-1.8.7-2.7.3-.9.7-1.7 1.3-2.5-.7.7-1.2 1.5-1.7 2.3-.4.9-.8 1.8-1 2.7-.2.9-.4 1.9-.4 2.9-.1.8 0 1.6 0 2.4-.8-.2-1.7-.4-2.6-.6.4-.8.2-1.9 0-2.8zm11.8 22.9c-1.9-.7-3.9-1.4-5.8-2-.1-1.4 0-2.7.2-4 .2-.7.4-1.6.6-2.4.1-.8.1-1.6 0-2.5v.1-6.3c1.3.5 2.7.9 4.1 1.3.9.3 1.9.5 2.8.8-.1 1.2-.5 2.4-1.1 3.5-.7 1.3-1.3 2.6-1.4 4.2-.1.8.1 1.6.3 2.2.2.7.6 1.4.6 2 0 .3 0 .6-.1.9-.1.4-.1.7-.1 1.1-.2.4-.2.7-.1 1.1zm-6.3-3.7c.1.6.2 1.1.3 1.6-1.4-.5-2.8-.9-4.1-1.4-.1-1.2-.2-2.4-.2-3.6.1-.6.1-1.4.4-1.8.5-.6.8-1.3 1-2 .4-1.4.3-3-.1-4.4-.1-.4-.2-.7-.3-1v-.8c.1-.5.6-1 1-1.3.7.3 1.4.6 2.2.8v6.6c.1.7.1 1.5.1 2.3 0 .8-.2 1.5-.3 2.4-.1 1-.1 1.8 0 2.6zm-49.7 14.3zm-7.4 39.5c.1-3.4.2-6.8.1-10.3-.1-1.7.1-3.6.2-5.4.1-1.8.3-3.7.2-5.6l-.1-.7-.1-.7c-.1-.3-.1-.8 0-1.2.1-.8.2-1.7.4-2.6.4-1.7 1-3.5 1.6-5.2.6-1.7 1.3-3.4 1.9-5.1.3-.8.8-1.6 1.3-1.8.1-.1.2-.1.3-.1.1 0 .2 0 .6.1.1 0 .3 0 .5-.1.1 0 .2-.1.2-.2 1.5 3 3 5.9 4.5 8.8.8 1.6 1.6 3.1 2.3 4.7.3.8.7 1.6.9 2.3.2.8.3 1.7.5 2.5.3 1.7.5 3.5.7 5.2l.7 5.3c.4 3.4.9 6.7 1.5 10.1H11.8zm132.3.2c-14.8.1-29.6.3-44.4.3-14.8.1-29.6 0-44.4-.1l-25.3-.2c.1-3.4.1-6.8-.1-10.2-.2-3.6-.5-7.1-1-10.7-.1-.9-.3-1.8-.5-2.7-.2-1-.7-1.8-1-2.6-.8-1.6-1.7-3.2-2.7-4.7-1.8-2.8-3.6-5.5-5.7-8.1.1-.1.1-.1.1-.2s.1-.2.1-.2v-.1c0-.1.1-.2.3-.3.6-.5 1.4-.9 2.2-1.3.8-.4 1.6-.8 2.5-1.2 1.6-.8 3.4-1.4 5.1-2.1 3.4-1.4 6.9-2.7 10.2-4.1 1.7-.7 3.4-1.5 5-2.3 1.6-.8 3.4-1.3 5.1-1.8 3.5-1 7.1-1.8 10.7-2.6l.2-.1v-.2c-.2-1.2-.3-2.4-.3-3.7v-.9c0-.3.1-.5.2-.8.3-.5.8-.8 1.3-1.3.9-.9 1.3-2.3 1.2-3.6 0-.6 0-1.2.1-1.8.1-.6.3-1.1.5-1.8.1-.2.1-.4.2-.6.8.4 1.5.7 2.3 1-.4.4-.8.9-1 1.5-.1.4-.1.8-.1 1.2.1.4.2.7.3 1.1.4 1.3.5 2.6.2 3.9-.2.6-.3 1.3-.7 1.8-.1.1-.2.4-.3.6-.1.2-.1.4-.1.6v1.1c.1 1.2.3 2.4.6 3.5-1.3-.4-2.7-.9-4.1-1.3l4.2 1.8v.1-.1c4.9 2.2 9.9 4.3 14.9 6.3l4.8 1.9 2.4 1 .6.2.7.2c.5.1.9.3 1.4.3 3.6.5 7.1.4 10.6.2 6.9-.5 13.8-1.4 20.6-2.8.8-.2 1.7-.4 2.6-.6.9-.2 1.8-.6 2.5-1 .1 0 .1-.1.2-.1v.3c0-.1.1-.2.1-.4 1.5-.9 2.8-1.9 4.1-2.9 2.3-2 4.5-4.1 6.6-6.4l.7.1 1.8.2c.9.3 1.9.7 2.8 1.1l2.9 1.2 5.8 2.4 5.9 2.4c1.9.8 4 1.5 6 2.2 4 1.3 8.1 2.4 12 3.9 1.9.7 3.9 1.5 5.5 2.5.8.5 1.5 1.2 2 1.9.3.4.5.8.7 1.1.1.2.2.4.2.6.1.2.1.4.1.5v.4c-1.3.6-2.5 1.3-3.7 2.1-1.4 1.1-2.8 2.2-4 3.7-.6.7-1 1.6-1.4 2.5-.4.8-.6 1.7-.9 2.5-.6 1.7-1 3.4-1.5 5.1-.4 1.7-.8 3.4-1.1 5.2l-.3 2.7c-.1.9-.1 1.8-.1 2.8.4 3.3.6 6.5.8 9.9h-27.2zm27.3-.2c.5-3.3.8-6.6.7-9.9.1-1.6.4-3.3.7-5 .3-1.7.7-3.4 1.1-5.1.4-1.7.8-3.4 1.3-5s.9-3.3 1.8-4.7c.9-1.4 2.1-2.6 3.3-3.8 1-.9 2-1.8 3.1-2.6v.2l.5.1s.2.2.4.5.3.6.5.9c.3.6.5 1.4.8 2.1.4 1.5.8 3.1 1 4.5.4 3.1.5 6.3.5 9.4 0 1.6 0 3.2-.2 4.6-.2 1.7-.2 3.3-.1 5 .1 2.9.4 5.8.6 8.6l-16 .2z" fill="#000c13" stroke-width="none" opacity="1"></path></g><g id="svga-group-head" transform="matrix(1,2.856368900253737e-18,-2.856368900253737e-18,1,0,0)"><g id="svga-group-ears-left-move" transform="matrix(1,0,0,1,0,0)"><g id="svga-group-ears-left"><path id="SvgjsPath29563" d="M68.53 80.36s-11.15-9.8-12.94-9.96c-1.54-.14-5.36 8.01-7.05 13.16-.45 1.36-.34 2.88.25 4.2 1.62 3.57 5.21 11.04 8.43 14.78 0 0 2.72.59 3.58.33.86-.25 7.58-5.67 8.27-7.77s.83-11.3-.54-14.74z" fill="#ffd0bc" stroke-width="none" opacity="1"></path><path id="SvgjsPath29564" d="M69.49 84.19c.18 1.31.28 2.64.33 3.96.05 1.32.06 2.65-.01 3.98a26.7 26.7 0 0 1-.17 1.99c-.05.34-.1.67-.2 1.02s-.28.7-.46.96c-.72 1.11-1.6 1.95-2.47 2.8-.88.84-1.78 1.63-2.71 2.4-.47.38-.93.75-1.42 1.11-.24.18-.49.35-.74.52l-.4.24c-.16.08-.35.17-.53.19-.67.08-1.23-.01-1.82-.09-.58-.08-1.15-.19-1.73-.32l-.13-.03-.08-.1c-1.45-1.74-2.63-3.68-3.74-5.65-1.1-1.98-2.1-4.03-3.06-6.1l-1.41-3.11c-.5-1.05-.71-2.29-.54-3.46.06-.59.26-1.14.44-1.67.18-.54.37-1.07.56-1.6.4-1.05.79-2.11 1.22-3.15.86-2.07 1.76-4.13 2.94-6.02.3-.47.62-.93 1-1.36.19-.21.4-.42.67-.59.13-.08.3-.16.52-.16.19.01.32.07.47.12 1.06.47 1.87 1.14 2.75 1.76 1.72 1.29 3.37 2.66 5 4.09 1.64 1.41 3.22 2.86 4.81 4.38.49 1.27.72 2.58.91 3.89zM58.4 72.51c-.85-.59-1.75-1.26-2.59-1.61-.09-.02-.2-.08-.26-.08-.04 0-.12.02-.2.07-.17.1-.35.25-.51.44-.34.36-.65.8-.94 1.24-1.16 1.8-2.18 3.77-3.11 5.77-.46 1.01-.92 2.02-1.32 3.06-.2.52-.4 1.04-.59 1.57-.19.53-.38 1.05-.45 1.6-.15 1.11.06 2.27.55 3.26.47 1.03.98 2.05 1.49 3.05 1.02 2.02 2.12 3.99 3.26 5.91 1.15 1.91 2.36 3.79 3.76 5.42l-.21-.13c1.09.2 2.3.43 3.29.33.11-.01.18-.06.28-.11l.35-.22.7-.5c.47-.34.93-.71 1.39-1.08.92-.74 1.81-1.52 2.68-2.34.85-.82 1.73-1.66 2.39-2.61.17-.25.29-.46.38-.72.08-.27.14-.58.19-.89.09-.63.17-1.27.21-1.91.1-1.29.14-2.6.15-3.9.01-1.31-.04-2.62-.15-3.92-.11-1.3-.27-2.62-.66-3.84-3.33-2.62-6.67-5.35-10.08-7.86z" fill="#f0b399" stroke-width="none" opacity="1"></path><path id="SvgjsPath29565" d="M68.79 88.66S58.04 75.08 56.02 76.21c-2.01 1.12-5.19 7.53-5.18 9.67.02 3.14 3.34 8.38 5.01 9.96s3.68 2.55 6.35 1.94c2.66-.61 6.59-9.12 6.59-9.12z" fill="#f0b399" stroke-width="none" opacity="1"></path><path id="SvgjsPath29566" d="M60.61 88.64c-.45-1.26-.95-2.5-1.45-3.74a49.61 49.61 0 0 0-1.66-3.64c-.61-1.18-1.22-2.36-1.97-3.45l-.08-.12-.08.12c-.75 1.18-1.45 2.38-2.12 3.62-.33.62-.66 1.25-.96 1.89-.31.64-.57 1.31-.84 1.98l-.04.1.04.12c.46 1.41.96 2.79 1.47 4.18.25.69.54 1.37.83 2.05.3.68.59 1.35.99 2.01l.19.31.25-.23c.34-.31.6-.65.87-1.02.26-.37.49-.76.69-1.17.4-.82.63-1.78.6-2.74v-.06l-.02-.04c-.5-.99-1.03-1.96-1.55-2.94l-.05.03c.42 1.01.83 2.03 1.26 3.03-.04.86-.3 1.68-.68 2.41-.33.62-.77 1.17-1.24 1.65-.26-.49-.5-1.02-.73-1.56l-.81-2.03c-.53-1.32-1.03-2.66-1.52-3.99.45-1.3.94-2.59 1.52-3.82.57-1.23 1.22-2.41 1.96-3.51.67 1.04 1.17 2.23 1.68 3.39l1.54 3.67 1.56 3.67c.52 1.22 1.05 2.45 1.6 3.66l.06-.03c-.41-1.27-.85-2.54-1.31-3.8z" fill="#d17f5b" stroke-width="none" opacity="1"></path></g></g><g id="svga-group-ears-right-move" transform="matrix(1,0,0,1,0,0)"><g id="svga-group-ears-right"><path id="SvgjsPath29567" d="M131.47 80.36s11.15-9.8 12.94-9.96c1.54-.14 5.36 8.01 7.05 13.16.45 1.36.34 2.88-.25 4.2-1.62 3.57-5.21 11.04-8.43 14.78 0 0-2.72.59-3.58.33-.86-.25-7.58-5.67-8.27-7.77s-.83-11.3.54-14.74z" fill="#ffd0bc" stroke-width="none" opacity="1"></path><path id="SvgjsPath29568" d="M131.44 80.33c1.58-1.52 3.17-2.97 4.81-4.38 1.62-1.42 3.28-2.8 5-4.09.88-.63 1.69-1.29 2.75-1.76.16-.04.28-.11.47-.12.21 0 .38.08.52.16.28.17.49.37.67.59.38.43.7.89 1 1.36 1.18 1.89 2.07 3.96 2.94 6.02.43 1.04.82 2.09 1.22 3.15.19.53.38 1.06.56 1.6.18.53.37 1.08.44 1.67.17 1.17-.04 2.41-.54 3.46l-1.41 3.11c-.97 2.06-1.96 4.11-3.06 6.1-1.11 1.98-2.29 3.92-3.74 5.65l-.08.1-.13.03c-.58.13-1.15.23-1.73.32-.59.07-1.16.16-1.82.09-.18-.02-.37-.11-.53-.19l-.4-.24c-.25-.17-.5-.34-.74-.52-.48-.36-.95-.73-1.42-1.11-.93-.76-1.83-1.56-2.71-2.4-.87-.86-1.75-1.69-2.47-2.8a3.42 3.42 0 0 1-.46-.96c-.1-.35-.14-.69-.2-1.02-.08-.67-.14-1.33-.17-1.99-.07-1.33-.07-2.65-.01-3.98.06-1.32.15-2.65.33-3.96.17-1.34.4-2.65.91-3.89zm.06.06c-.4 1.21-.56 2.54-.66 3.84-.1 1.3-.15 2.61-.15 3.92.01 1.31.06 2.61.15 3.9.05.65.12 1.29.21 1.91.06.31.11.62.19.89.09.26.2.47.38.72.66.94 1.54 1.79 2.39 2.61.86.81 1.76 1.59 2.68 2.34.46.37.92.73 1.39 1.08l.7.5.35.22c.1.05.17.1.28.11.99.1 2.2-.13 3.29-.33l-.21.13c1.4-1.63 2.61-3.51 3.76-5.42 1.14-1.92 2.24-3.89 3.26-5.91.51-1.01 1.02-2.02 1.49-3.05.49-.99.7-2.15.55-3.26-.07-.56-.26-1.07-.45-1.6s-.38-1.05-.59-1.57c-.4-1.04-.86-2.06-1.32-3.06-.93-2.01-1.95-3.97-3.11-5.77-.29-.44-.6-.88-.94-1.24-.17-.18-.35-.34-.51-.44a.431.431 0 0 0-.2-.07c-.06 0-.17.06-.26.08-.84.35-1.74 1.02-2.59 1.61-3.39 2.49-6.73 5.22-10.08 7.86z" fill="#f0b399" stroke-width="none" opacity="1"></path><path id="SvgjsPath29569" d="M131.21 88.66s10.75-13.58 12.77-12.45c2.01 1.12 5.19 7.53 5.18 9.67-.02 3.14-3.34 8.38-5.01 9.96s-3.68 2.55-6.35 1.94c-2.66-.61-6.59-9.12-6.59-9.12z" fill="#f0b399" stroke-width="none" opacity="1"></path><path id="SvgjsPath29570" d="M148.54 85.31c-.26-.67-.52-1.34-.84-1.98-.3-.64-.62-1.27-.96-1.89-.67-1.24-1.38-2.44-2.12-3.62l-.08-.12-.08.12c-.74 1.1-1.36 2.27-1.97 3.45-.6 1.18-1.14 2.4-1.66 3.64-.49 1.24-1 2.48-1.45 3.74-.46 1.26-.9 2.53-1.28 3.81l.06.03c.55-1.21 1.07-2.44 1.6-3.66l1.56-3.67 1.54-3.67c.51-1.16 1.01-2.35 1.68-3.39.74 1.1 1.39 2.29 1.96 3.51.58 1.24 1.08 2.52 1.52 3.82-.5 1.34-.99 2.67-1.52 3.99l-.81 2.03c-.23.53-.47 1.07-.73 1.56-.47-.48-.91-1.03-1.24-1.65-.39-.73-.64-1.55-.68-2.41.43-1 .84-2.02 1.26-3.03l-.05-.03c-.52.98-1.05 1.95-1.55 2.94l-.02.04v.06c-.03.96.2 1.92.6 2.74.2.41.43.81.69 1.17.26.36.53.71.87 1.02l.25.23.19-.31c.4-.67.69-1.34.99-2.01.29-.68.57-1.36.83-2.05.51-1.38 1.01-2.77 1.47-4.18l.04-.12-.07-.11z" fill="#d17f5b" stroke-width="none" opacity="1"></path></g></g><g id="svga-group-faceshape-wrap"><g id="svga-group-faceshape-single"><path id="SvgjsPath29649" d="M140.4 54.9c-2.2-10-6.3-16-15.2-20.8-9.3-5-25.2-4.8-25.2-4.8s-15.9-.2-25.2 4.8c-8.8 4.8-13 10.8-15.2 20.8-.9 4 0 13.6 0 13.6s1.2 13.5 1.2 19.8-1.2 21.4-.8 24.4c.4 3.1 16.6 21.8 19.9 26.7 3.3 4.9 8 13.4 10.3 14 1.7.5 6.3-1.4 8.5-2.3.8-.3 1.7-.3 2.5 0 2.2 1 6.8 2.8 8.5 2.3 2.3-.6 7-9 10.3-14 3.3-4.9 19.5-23.7 19.9-26.7.4-3.1-.8-18.1-.8-24.4s1.2-19.8 1.2-19.8c0-.1 1-9.6.1-13.6z" fill="#ffd0bc" stroke-width="none" opacity="1"></path><path id="SvgjsPath29650" d="M140.4 69.03s.85-8.56.08-14.12c-2.2-10-6.48-16.1-15.38-20.9-9.3-5-25.2-4.8-25.2-4.8S84 29 74.7 34C66 38.9 61.8 44.9 59.6 54.9c-.9 4 0 13.6 0 13.6s1.2 13.5 1.2 19.8-1.2 21.4-.8 24.4c.4 3.1 16.6 21.8 19.9 26.7 3.3 4.9 8 13.4 10.3 14 1.7.5 6.3-1.4 8.5-2.3.8-.3 1.7-.3 2.5 0 2.2 1 6.8 2.8 8.5 2.3 2.3-.6 7-9 10.3-14 3.3-4.9 19.5-23.7 19.9-26.7.4-3.1-.8-18.1-.8-24.4s1.3-19.27 1.3-19.27zm-1.7 30.47.1 5.2c0 1.7.1 3.4.1 5.1 0 .8.21 2.72-.8 4.3-.9 1.4-1.9 2.8-2.9 4.2-2 2.8-4.1 5.5-6.2 8.2l-6.4 7.2c-1.1 1.4-2.1 2.7-3.1 4.2-.5.7-1 1.5-1.5 2.2l-1.4 2.2c-.9 1.5-1.8 2.9-2.8 4.3-.9 1.4-1.9 2.8-2.9 4.1-.3.3-.5.6-.8.9-.2.2-.5.5-.7.5h-.5c-.3 0-.7-.1-1.1-.2-1.5-.3-3.1-.9-4.7-1.5-.4-.2-2.5-.9-2.8-.9-.6 0-1.2.1-1.8.3 0 0-4.28 1.78-5.9 2.1-1.5.3-2 .2-2.1.1l-1.2-1.2c-1.1-1.2-2-2.6-3-4s-1.9-2.9-2.8-4.3c-.9-1.5-1.9-2.9-2.9-4.4-1-1.4-2.1-2.8-3.2-4.1-1.1-1.4-2.1-2.7-3.2-4.1-2.2-2.7-4.3-4.4-6.4-7.1-1.1-1.4-2.1-2.7-3.1-4.1s-2.96-4.3-3.5-5.3c-.48-.88-.5-1.6-.5-1.6v-1.9c0-1.7 0-3.4.1-5.2l.5-10.3c.1-1.7.1-3.5.2-5.2 0-1.7 0-3.5-.1-5.2-.1-3.5-.4-6.9-.6-10.3l-.4-5.2c-.3-1.5-.4-3.2-.4-4.9 0-1.7-.1-3.4 0-5.1 0-.8.8-4.9.8-4.9.5-1.6 1-3.2 1.6-4.8.7-1.5 1.4-3 2.3-4.4.9-1.4 2-2.6 3.2-3.8l.4-.4c.1-.1.3-.3.5-.4l.9-.8c.7-.5 1.3-1 2-1.5s1.4-.9 2.1-1.3l1.1-.6.6-.3.6-.3 1.1-.5 1.2-.5.6-.2c.2-.1.4-.1.6-.2l1.2-.4c3.2-1 6.6-1.6 9.9-2 3.4-.4 6.8-.7 10.2-.7 3.4 0 6.8.2 10.2.5 3.4.4 6.8 1 10 2 .4.1.8.3 1.2.4l.6.2c.2.1.4.1.6.2.8.4 1.6.7 2.3 1.1 1.5.8 3 1.7 4.3 2.7.7.5 2.9 2.5 2.9 2.5 1.15 1.08 2.88 3.67 3.78 5.17.8 1.5 1.53 3.1 2.13 4.7.6 1.6.93 3.39 1.33 5.09.2 1.1.29 2.44.29 3.64 0 1.1.08 1.88.08 2.98-.1 2.2-.15 4.39-.35 6.59l-.47 5.43c-.2 1.7-.3 3.4-.5 5.2-.3 3.4-.51 6.71-.7 10.44-.14 3.51.01 6.66.11 10.16z" fill="#d17f5b" stroke-width="none" opacity="1"></path></g></g><g id="svga-group-mouth-single-move" transform="matrix(1,0,0,1,0,0)"><g id="svga-group-mouth-single"><path id="SvgjsPath29739" d="M115.95 118.85c-2.72.91-5.53 1.92-7.88 2.91-2.5 1.06-4.07 2.57-6.76 3.19-2.65.62-5.3-.52-8.01-.37-2.69.14-6.08 2.24-7.87-.41-.95-1.41-2.74.41-1.63 1.37 1.64 1.41 3.91 2.59 5.96 2.73 3.29.23 7.06.3 10.34-.05 6.21-.67 11.72-3.75 17.44-6.41 1.86-1.3 1.02-3.63-1.59-2.96z" fill="#da7c87" stroke-width="none" opacity="1"></path><path id="SvgjsPath29740" d="M107.55 131.3c-1.8-.09-3.6.28-5.4.35-1.81.07-3.62-.07-5.43-.06-.38 0-.47.57-.09.67 3.35.88 7.85 1.04 11.07-.39.3-.13.13-.55-.15-.57z" fill="#f0b399" stroke-width="none" opacity="1"></path></g></g><g id="svga-group-eyes-left-move" transform="matrix(1,0,0,1,0,0)"><g id="svga-group-eyes-left"><g id="svga-group-eyesback-left"><path id="SvgjsPath29605" d="M80.2 74.2c7.5 0 13.5 5.8 13.5 13s-6 13-13.5 13-13.5-5.8-13.5-13 6-13 13.5-13z" fill="#ffffff" stroke-width="none" opacity="1"></path></g><g id="svga-group-eyesiriswrapper-left" transform="matrix(1,0,0,1,0,0)"><g id="svga-group-eyesiriscontrol-left" transform="matrix(1,0,0,1,0,0)"><g id="svga-group-eyesiris-left"><path id="SvgjsPath29685" d="M80.2 81.6c3.1 0 5.6 2.5 5.6 5.6s-2.5 5.6-5.6 5.6-5.6-2.5-5.6-5.6 2.5-5.6 5.6-5.6z" fill="#4e60a3" stroke-width="none" opacity="1"></path><path id="SvgjsPath29686" d="M80.2 83.3c2.2 0 3.9 1.7 3.9 3.9s-1.7 3.9-3.9 3.9-3.9-1.7-3.9-3.9 1.7-3.9 3.9-3.9z" fill="#000000" stroke-width="none" opacity="1"></path><path id="SvgjsPath29687" d="m76.1 84.6 4.4 3.1-1.8-5.1c-.3-.4-2.5.8-2.6 2z" fill="#ffffff" stroke-width="none" opacity="1"></path></g></g></g><g id="svga-group-eyesfront-left"><path id="SvgjsPath29613" d="M80.2 73.7c-7.8 0-14.1 6.1-14.1 13.6s6.3 13.6 14.1 13.6 14.1-6.1 14.1-13.6S88 73.7 80.2 73.7zm9.4 11.5c-.2.3-1.4 4.3-3.6 6.2-2.2 1.9-11.4 3.9-14 3.1-2.6-.8-2.8-6.5-3.5-8.1 0 0 22.3-3.4 21.1-1.2z" fill="#ffd0bc" stroke-width="none" opacity="1"></path><path id="SvgjsPath29614" d="M81.6 96.7c-5.6.5-8.5.4-8.5.4s9 2.2 14.6-2c1.2-.9 2.4-7.5 2.4-7.5s-1.3 5.2-3 7.1c-.9 1.3-3.8 1.9-5.5 2z" fill="#e09879" stroke-width="none" opacity="1"></path><path id="SvgjsPath29615" d="M74.4 94.7c1.3-.1 2.6-.2 3.8-.5 1.3-.2 2.5-.5 3.8-.9l1.8-.6c.6-.2 1.2-.5 1.8-.9.6-.4 1-.9 1.4-1.4.4-.5.7-1.1 1-1.7.6-1.2 1.1-2.3 1.5-3.6.1-.1.1-.2 0-.3-.1-.1-.1-.1-.2-.1h.2l2.9-2.3s-3.3-1.2-4.7-1.5c-1.3-.3-13.6 3.1-14.7 3.3s-5.2 2.5-5.2 2.5.2 0 .6-.1c.2.5.3 1.1.5 1.7.1.6.3 1.3.4 1.9s.3 1.2.6 1.9c.2.6.5 1.2.9 1.7.2.2.5.5.8.6.3.2.6.2.9.3h1.9zm-2.8-.5c-.3-.2-.5-.3-.7-.6-.8-1-1.2-2.3-1.4-3.5-.1-.6-.2-1.3-.4-1.9-.1-.6-.2-1.1-.4-1.7 3.5-.4 15.9-1.8 16.9-1.8.9-.1 2.9 0 3.7 0 .1 0 .2.1.3.2s.1.2 0 .3c-.5 1.2-.9 2.4-1.6 3.5-.3.6-.7 1.1-1.1 1.6-.4.5-.9.9-1.4 1.3-1.1.7-2.3 1.1-3.5 1.4-1.2.4-2.5.7-3.7 1-1.3.3-2.5.5-3.8.6-.6 0-1.3.1-1.9 0-.4-.2-.7-.2-1-.4z" fill="#000000" stroke-width="none" opacity="1"></path></g></g></g><g id="svga-group-eyes-right-move" transform="matrix(1,0,0,1,0,0)"><g id="svga-group-eyes-right"><g id="svga-group-eyesback-right"><path id="SvgjsPath29606" d="M119.8 74.2c7.5 0 13.5 5.8 13.5 13s-6 13-13.5 13-13.5-5.8-13.5-13 6-13 13.5-13z" fill="#ffffff" stroke-width="none" opacity="1"></path></g><g id="svga-group-eyesiriswrapper-right" transform="matrix(1,0,0,1,0,0)"><g id="svga-group-eyesiriscontrol-right" transform="matrix(1,0,0,1,0,0)"><g id="svga-group-eyesiris-right"><path id="SvgjsPath29688" d="M119.8 82.3c2.7 0 4.9 2.2 4.9 4.9s-2.2 4.9-4.9 4.9-4.9-2.2-4.9-4.9 2.2-4.9 4.9-4.9z" fill="#4e60a3" stroke-width="none" opacity="1"></path><path id="SvgjsPath29689" d="M119.8 83.8c1.9 0 3.4 1.5 3.4 3.4s-1.5 3.4-3.4 3.4-3.4-1.5-3.4-3.4 1.5-3.4 3.4-3.4z" fill="#000000" stroke-width="none" opacity="1"></path><path id="SvgjsPath29690" d="m116.2 84.9 3.8 2.7-1.5-4.5c-.2-.3-2.2.8-2.3 1.8z" fill="#ffffff" stroke-width="none" opacity="1"></path></g></g></g><g id="svga-group-eyesfront-right"><path id="SvgjsPath29616" d="M119.8 73.7c-7.8 0-14.1 6.1-14.1 13.6s6.3 13.6 14.1 13.6 14.1-6.1 14.1-13.6-6.3-13.6-14.1-13.6zm9.8 18.7c-2.6.7-12.7.7-14.9-1s-3.5-5.2-3.6-5.4c-1.2-1.9 21.1 1.1 21.1 1.1-.7 1.4 0 4.7-2.6 5.3z" fill="#ffd0bc" stroke-width="none" opacity="1"></path><path id="SvgjsPath29619" d="M127.7 85.1c-1.1-.2-12.6-.9-14-.6s-5.5-1.1-5.5-1.1l2.9 2.2h.2s-.1 0-.1.1c-.1.1-.1.2 0 .3.2.5.5 1.1.7 1.6.3.5.5 1 .8 1.5.3.5.7 1 1 1.4l.6.6.3.3c.1.1.2.2.4.2.5.3 1.1.4 1.7.6.6.1 1.2.2 1.7.3 1.2.2 2.3.2 3.5.2h3.5c1.2-.1 2.3-.1 3.5-.3.6-.1 1.2-.2 1.7-.6.5-.4.8-.9 1-1.5.2-.6.3-1.2.4-1.7.1-.5.1-1.1.3-1.5.7.1 1.1.1 1.1.1s-3.6-1.7-5.7-2.1zm4 3.7c-.1.6-.1 1.2-.3 1.7-.2.6-.4 1.1-.9 1.4-.4.4-1 .5-1.6.6-2.3.3-4.7.3-7 .2-1.2-.1-2.3-.2-3.5-.3-1.1-.2-2.3-.3-3.3-.8-.1-.1-.2-.1-.4-.2l-.3-.3-.6-.6c-.4-.4-.8-.9-1.1-1.4-.7-1-1.1-2-1.6-3.1-.1-.1-.1-.2 0-.3.1-.1.1-.1.2-.1.8 0 2.9-.1 3.8 0 .9.1 12.7 1.2 16.9 1.6-.2.6-.3 1.1-.3 1.6z" fill="#000000" stroke-width="none" opacity="1"></path><path id="SvgjsPath29620" d="M114.7 93.6c-1.8-1.6-3.7-5.3-3.7-5.3s1.7 5 2.6 6.1c.9 1.1 10.5 2.5 11.5 2.4s-3.4-.8-4.6-1.1c-1.2-.3-4.7-1.1-5.8-2.1zM110 81l-.9.6 16.8 1.1L110 81z" fill="#e09879" stroke-width="none" opacity="1"></path></g></g></g><g id="svga-group-facehighlight-single"></g><g id="svga-group-eyebrows-left-move" transform="matrix(1,0,0,1,0,0)"><g id="svga-group-eyebrows-left-rotate" transform="matrix(1,1.7453292519943295e-9,-1.7453292519943295e-9,1,1.227825237037905e-7,-1.388480086461641e-7)"><g id="svga-group-eyebrows-left"><path id="SvgjsPath29531" d="M91.5 72.22s-1.28 2.06-2.36 1.59c-1.08-.48-6.27-3.19-9.56-2.78-3.29.41-5.17 2.39-5.17 2.39l-1.48.75.48.39s-3.13 2.59-3.97 2.55c-.84-.04-2.04-1.27-1.97-3.59.07-2.32 3.08-5.09 3.08-5.09s-.48.18-1.49.66c0 0 1.23-1.86 4.52-3.33 3.3-1.47 9.08-1.46 10.9-.54L84 64.16s4.38 1.8 5.44 3.25l.17-1.09c-.01-.01 2.89 2.54 1.89 5.9z" fill="#2a232b" stroke-width="none" opacity="1"></path><path id="SvgjsPath29532" d="M91.49 68.91c-.18-.54-.44-1.04-.74-1.5-.3-.46-.63-.89-1.03-1.27l-.24-.24-.07.37-.11.62c-.3-.32-.63-.57-.97-.8-.45-.31-.91-.59-1.38-.85-.94-.52-1.88-.99-2.86-1.42l-.75-.33.37.82.13.29c-.45-.13-.9-.21-1.35-.28-.7-.09-1.4-.13-2.1-.13-1.4 0-2.79.12-4.17.4-.69.14-1.37.32-2.04.56-.67.25-1.31.56-1.94.91-.63.35-1.23.76-1.8 1.23-.57.47-1.11.97-1.57 1.63l-.57.81.85-.4.47-.22c-.59.67-1.12 1.39-1.57 2.19-.31.58-.58 1.22-.67 1.92-.07.7 0 1.4.21 2.07.21.66.58 1.27 1.11 1.65.27.18.58.32.92.25.31-.08.58-.23.85-.37 1.06-.62 2.06-1.35 3.04-2.11l.2-.16-.21-.18-.2-.17 1.19-.57.02-.01.04-.03c.56-.52 1.23-.95 1.91-1.29.68-.35 1.4-.61 2.13-.78.74-.17 1.47-.28 2.22-.21.75.06 1.5.2 2.25.38 1.49.39 2.96.93 4.41 1.55l1.08.48c.18.08.36.16.55.23.21.08.44.07.64.01.4-.13.72-.41 1.01-.71.29-.31.53-.65.75-1.02.15-.53.28-1.09.25-1.66.02-.56-.07-1.13-.26-1.66zm.1 2.7-.04.2-.08.4c-.23.33-.51.64-.8.92-.29.27-.62.51-.96.59-.17.03-.35.03-.5-.04-.17-.08-.35-.17-.53-.26l-1.07-.53c-1.43-.69-2.9-1.32-4.42-1.75-.76-.21-1.54-.38-2.33-.44l-.6-.02c-.2 0-.4.02-.6.03a9.226 9.226 0 0 0-3.41 1.05c-.7.38-1.35.84-1.95 1.43l-1.44.78-.31.16.28.22.28.22c-.87.74-1.77 1.46-2.72 2.05-.26.15-.52.3-.79.37-.25.06-.54-.06-.78-.22-.49-.34-.84-.92-1.02-1.54-.19-.62-.25-1.31-.18-1.95.08-.64.35-1.24.67-1.79.65-1.09 1.5-2.04 2.4-2.87l.95-.87-1.14.47-.45.19c.23-.21.47-.42.71-.61.55-.43 1.14-.8 1.75-1.13.61-.33 1.24-.62 1.87-.84.64-.21 1.3-.38 1.97-.5.67-.12 1.34-.21 2.02-.26.68-.07 1.36-.08 2.04-.09.68.01 1.36.04 2.03.12.66.09 1.35.2 1.92.47l.82.38-.42-.88-.11-.24c.7.3 1.39.62 2.07.97.46.24.92.5 1.36.79.43.28.87.6 1.18.98l.31.38.07-.49.1-.7c.27.27.52.57.75.88.3.42.56.89.76 1.38.21.49.32 1.03.37 1.57l.02.41-.03.41c-.01.06-.01.13-.02.2z" fill="#1b141c" stroke-width="none" opacity="1"></path></g></g></g><g id="svga-group-eyebrows-right-move" transform="matrix(1,0,0,1,0,0)"><g id="svga-group-eyebrows-right-rotate" transform="matrix(1,1.7453292519943295e-9,-1.7453292519943295e-9,1,1.2733161725009268e-7,-2.111723063080717e-7)"><g id="svga-group-eyebrows-right"><path id="SvgjsPath29533" d="M109.22 76.81s1.57 1.57 2.57.99 5.71-3.72 9.02-3.89c3.31-.17 5.46 1.24 5.46 1.24l1.57.41-.41.41s3.48 1.74 4.3 1.57c.83-.17 1.82-1.41 1.41-3.39-.41-1.99-3.81-3.89-3.81-3.89s.5.08 1.57.33c0 0-1.49-1.41-4.96-2.15s-9.18.17-10.84 1.24l.33-.99s-4.05 2.23-4.88 3.64l-.33-.91c-.01.01-2.49 2.66-1 5.39z" fill="#2a232b" stroke-width="none" opacity="1"></path><path id="SvgjsPath29534" d="M133.17 73.9c-.19-.59-.55-1.09-.95-1.55-.56-.62-1.2-1.16-1.88-1.64l.5.12.9.21-.69-.61c-.56-.49-1.16-.84-1.8-1.15-.63-.31-1.29-.57-1.96-.77-.67-.2-1.35-.37-2.05-.48-.7-.1-1.4-.15-2.1-.16-1.4-.03-2.79.09-4.17.31-.69.11-1.37.25-2.05.44-.43.13-.87.27-1.29.45l.09-.27.25-.76-.69.4c-.9.52-1.76 1.07-2.61 1.66-.42.3-.83.61-1.23.95-.3.25-.58.54-.83.86l-.21-.54-.12-.31-.21.24c-.33.39-.6.81-.83 1.25-.23.44-.4.91-.5 1.4-.11.49-.11 1-.04 1.49.05.5.27.96.5 1.39.28.29.57.54.89.76.33.21.69.4 1.11.45.21.02.43-.01.63-.11.18-.09.34-.19.51-.29l1-.58c1.34-.76 2.71-1.45 4.12-2.02.71-.27 1.43-.52 2.16-.68.73-.17 1.47-.2 2.23-.17.75.03 1.5.15 2.22.34.72.19 1.45.45 2.08.81l.04.02.03.01 1.26.3-.17.18-.18.19.22.1c1.08.5 2.17.97 3.31 1.34.29.08.58.17.9.19.34 0 .63-.17.87-.36.47-.41.74-1 .85-1.6.1-.6.06-1.22-.11-1.81zm-.09 1.78c-.09.56-.35 1.12-.78 1.48-.21.17-.48.32-.74.31-.27-.02-.56-.11-.84-.19-1.03-.35-2.02-.84-2.99-1.33l.24-.23.24-.23-.33-.09-1.54-.44a8.24 8.24 0 0 0-2.14-.92 10.3 10.3 0 0 0-2.34-.38c-.4-.02-.79-.02-1.19.01-.2.02-.4.04-.6.07l-.59.11c-.77.18-1.51.44-2.23.75-1.44.61-2.79 1.38-4.11 2.19l-.98.62c-.16.1-.32.22-.48.31-.14.08-.31.12-.49.11-.36-.02-.71-.17-1.04-.36-.32-.19-.64-.42-.92-.67l-.14-.33-.07-.16c-.02-.06-.03-.12-.05-.17l-.09-.35-.04-.35c-.04-.47 0-.95.13-1.41.13-.46.31-.89.54-1.31.18-.31.39-.6.61-.88l.2.59.14.41.25-.37c.25-.38.63-.72 1.02-1.03.39-.31.8-.61 1.22-.89.62-.41 1.25-.79 1.9-1.16l-.08.22-.28.82.76-.45c.53-.32 1.19-.53 1.83-.7a26 26 0 0 1 1.99-.42c.67-.1 1.35-.2 2.02-.25.68-.06 1.36-.09 2.03-.09.68 0 1.35.04 2.02.12.66.09 1.32.24 1.97.43.65.19 1.29.41 1.9.7.27.12.54.26.8.41l-.47-.09-1.2-.23 1.06.6c1.01.57 1.99 1.25 2.8 2.09.4.42.76.89.93 1.43.19.53.24 1.13.15 1.7z" fill="#1b141c" stroke-width="none" opacity="1"></path></g></g></g><g id="svga-group-beardwrap"><g id="svga-group-beard-single-move" transform="matrix(1,0,0,1,0,0)"><g id="svga-group-beard-single"><path id="SvgjsPath29522" d="M91.8 134.75c.35 3.01 5.21 7.92 5.21 7.92l.69-1.16 1.39 1.62 2.08-2.43v1.39l1.62-1.62-.23 2.2s3.74-2.85 5.25-7.48c-2.3-.41-5.37-.44-8.37-.52-2.55-.08-5.58-.13-7.64.08z" fill="#2a232b" stroke-width="none" opacity="1"></path><path id="SvgjsPath29523" d="M107.88 134.82c-1.34-.26-2.69-.35-4.04-.4-1.34-.06-2.68-.08-4.02-.08-1.34-.01-2.68-.02-4.02.04-1.35.05-2.66.12-4.04.35.02.87.36 1.6.69 2.35.36.73.78 1.42 1.24 2.09.45.67.95 1.3 1.46 1.93.52.62 1.04 1.23 1.6 1.82l.3.32.22-.38.46-.79c.37.42.74.84 1.13 1.26l.22.24.19-.24 1.73-2.17.02.95.01.32.22-.23c.45-.46.9-.92 1.36-1.37-.07.61-.14 1.23-.22 1.84l-.06.38.31-.24c1.24-.96 2.35-2.07 3.29-3.33.95-1.25 1.69-2.66 2.22-4.16l.14-.4-.41-.1zm-2.42 4.29c-.78 1.14-1.68 2.22-2.7 3.16.05-.6.11-1.19.16-1.79l.03-.35-.24.25c-.45.47-.93.93-1.4 1.39l.02-1.07.01-.41-.28.3-1.95 2.12c-.38-.48-.76-.95-1.16-1.42l-.29-.34-.23.38-.47.77c-1-1.03-1.95-2.12-2.83-3.26-.49-.62-.95-1.27-1.35-1.95-.41-.66-.77-1.41-.94-2.13 1.28-.02 2.66.01 3.98.06l4 .19c2.52.13 5.04.16 7.49.49-.2.56-.41 1.12-.69 1.65-.35.68-.72 1.34-1.16 1.96z" fill="#1b141c" stroke-width="none" opacity="1"></path></g></g></g><g id="svga-group-mustache-single-move" transform="matrix(1,0,0,1,0,0)"><g id="svga-group-mustache-single"><path id="SvgjsPath29754" d="m95.82 117.66.09-.27-.28.07-3.01.77.63-.98.36-.56-.66.15-2.27.53.43-1.07.24-.6-.63.16-2.93.73.42-.9.34-.74-.79.24c-.91.28-1.81.57-2.71.86l-.04-.61-.03-.43-.41.11-.83.22.5-.85.43-.73-.83.24-1.99.59.61-1.13.43-.81-.8.43-3.63 1.94.32-1 .09-.28-.27.1-1.32.49.27-1.05.03-.12-.11.06-1.12.62 1.06-.47-.36 1.09-.06.17.18-.05 1.23-.37-.44 1.15-.17.44.44-.21 3.29-1.6-.58.99-.39.67.76-.21 1.91-.54-.51.85-.43.72.82-.21 1.23-.31.04.65.03.46.45-.14c.79-.24 1.58-.5 2.37-.75l-.37.83-.3.68.71-.19 3.02-.79-.4 1.05-.23.59.6-.16 2.21-.59-.56.94-.32.53.58-.18 3.29-1-.31 1.1-.06.22.2-.08 2.83-1.11-2.69.83.4-1.18z" fill="#2a232b" stroke-width="none" opacity="1"></path><path id="SvgjsPath29755" d="m125.07 112.89-1-.12h-.03l-.02.02-.34.51-1.01-.44-.12-.05-.03.14-.14.74-1.75-.77-.27-.12-.01.31-.01.55-1.85-.66-.42-.15.08.45.14.82c-.75-.51-1.51-1.01-2.27-1.51l-.63-.42.12.75.37 2.32-1.24-.63-.4-.2-.12.43-.26.92-1.64-.51-.52-.16.06.54.09.87-2.41-.92-.37-.14-.07.39-.28 1.59-1.89-.62-.31-.1-.03.31-.14 1.39-1.81-1-.21-.12-.03.23-.21 1.66-2.21-1.13 2.24 1.38.12.08.03-.15.3-1.54 1.85 1.14.28.18.05-.34.2-1.39 1.91.72.34.13.07-.36.3-1.54 2.56 1.02.53.21-.05-.57-.08-.88 1.48.49.37.12.1-.38.24-.86 1.46.72.63.31-.12-.68-.39-2.26c.74.48 1.49.96 2.24 1.42l.6.37-.14-.67-.22-1.06 1.72.53.3.09-.01-.3-.01-.56 1.67.62.17.06.02-.17.1-.8.95.34.06.02.03-.05.32-.56h.97z" fill="#2a232b" stroke-width="none" opacity="1"></path></g></g><g id="svga-group-nose-single-move" transform="matrix(1,0,0,1,0,0)"><g id="svga-group-nose-single"><path id="SvgjsPath29718" d="M96.8 88.78c-.28 1.49-.54 2.98-.59 4.45 0 .36.01.73.07 1.07.02.18.08.32.12.48l.21.53c.27.71.52 1.43.75 2.16.22.73.41 1.48.53 2.25.05.39.09.78.07 1.19-.01.41-.13.85-.31 1.21-.36.72-.85 1.32-1.36 1.89-.52.56-1.07 1.09-1.66 1.56.47-.59.94-1.18 1.37-1.8.43-.61.84-1.24 1.11-1.89.13-.33.19-.63.18-.98 0-.35-.05-.71-.12-1.06a16.4 16.4 0 0 0-.55-2.14c-.21-.71-.45-1.42-.7-2.13l-.18-.54c-.05-.2-.12-.42-.13-.62-.06-.41-.03-.8 0-1.19.07-.78.24-1.53.43-2.26.22-.75.46-1.48.76-2.18z" fill="#d17f5b" stroke-width="none" opacity="1"></path><path id="SvgjsPath29719" d="M103.7 88.62c.49.61.9 1.27 1.26 1.96.09.17.18.35.26.53.04.1.08.17.12.28.03.11.08.23.09.33.08.43.07.83.05 1.23-.06.79-.22 1.55-.42 2.3-.19.75-.45 1.47-.71 2.2-.06-.79.05-1.56.12-2.31.09-.76.18-1.51.24-2.24.03-.36.04-.73 0-1.06-.02-.28-.19-.67-.3-1.02-.24-.72-.49-1.44-.71-2.2z" fill="#d17f5b" stroke-width="none" opacity="1"></path><path id="SvgjsPath29720" d="M109.24 107.49s1.28.96 1.53 1.77c.24.8-.32 2.57-1.12 2.65s-3.77-.64-4.17-.24c-.4.4-.8 4.42-2.01 4.9s-6.02.56-6.58-.32c-.56-.88-1.12-4.01-1.85-4.17-.72-.16-3.77.08-4.5 0-.72-.08-1.2-1.77-.32-3.45.88-1.69 4.74-3.53 7.39-3.69 2.65-.16 7.41.62 7.41.62s3.08 1.11 4.22 1.93z" fill="#f7c1aa" stroke-width="none" opacity="1"></path><path id="SvgjsPath29721" d="M109.24 107.49c.42.32.81.68 1.15 1.09.16.21.32.43.39.69.07.26.06.53.03.79-.08.52-.24 1.05-.56 1.48-.16.21-.4.4-.68.4-.27.01-.53-.02-.8-.05-.53-.06-1.05-.14-1.58-.19-.26-.03-.52-.05-.79-.07-.26-.01-.53-.02-.76.04-.06.02-.09.04-.12.07-.03.03-.05.09-.07.15-.04.12-.08.24-.11.37-.07.25-.12.51-.18.77-.11.52-.23 1.04-.37 1.55-.15.51-.31 1.03-.59 1.52-.15.24-.32.49-.64.64-.28.12-.55.17-.81.23-1.07.19-2.14.24-3.22.22-.54-.02-1.08-.05-1.63-.15-.27-.05-.55-.12-.84-.25-.14-.07-.3-.15-.44-.33-.11-.16-.16-.28-.23-.41-.44-1.02-.68-2.05-1.07-2.99-.1-.22-.21-.46-.33-.58-.03-.03-.05-.05-.06-.05-.01-.01 0 .01.01 0l-.07-.01c-.1-.01-.23-.02-.35-.03-.5-.02-1.03 0-1.56.01l-1.59.04c-.27 0-.53.01-.83-.01a.983.983 0 0 1-.31-.07c-.1-.04-.18-.11-.26-.17-.14-.13-.24-.27-.32-.42-.29-.59-.3-1.19-.24-1.76.08-.57.26-1.12.55-1.62.31-.52.73-.9 1.17-1.23.44-.33.9-.62 1.38-.87.95-.51 1.96-.9 3-1.18.52-.14 1.05-.24 1.58-.3.54-.06 1.08-.05 1.61-.03 1.06.04 2.12.15 3.17.29 1.05.13 2.1.28 3.14.46.72.28 1.45.57 2.16.89.36.16.71.32 1.05.5.36.16.71.34 1.02.57zm0 0c-.32-.22-.66-.4-1.01-.58-.35-.17-.7-.34-1.06-.49-.71-.31-1.43-.6-2.17-.86-2.09-.3-4.2-.52-6.31-.53-.52.01-1.05.02-1.56.1s-1.02.2-1.52.36c-.99.31-1.96.73-2.85 1.26-.45.26-.88.55-1.27.88-.39.32-.75.69-.97 1.09-.23.42-.38.9-.43 1.38-.05.47 0 .98.2 1.34.05.09.1.16.16.21.03.02.05.04.07.05.01.01.02.01.03.01h.05c.22.02.49.01.75 0l1.58-.05c.53-.02 1.06-.04 1.61-.01.14.01.28.01.44.04l.12.02c.07.02.14.05.19.08.11.06.18.14.24.2.23.28.34.53.45.79.21.52.37 1.03.53 1.53.16.5.3 1.01.49 1.47.04.1.11.23.14.29.02.03.1.09.19.13.19.09.43.16.68.21.49.1 1.01.16 1.53.19 1.04.06 2.09.05 3.12-.09.25-.04.51-.08.72-.16.18-.07.34-.25.47-.46.27-.42.45-.91.61-1.41.16-.5.3-1.01.43-1.52l.21-.77c.04-.13.08-.26.14-.39.03-.07.06-.13.12-.2a.46.46 0 0 1 .22-.13c.29-.07.56-.04.82-.02.27.02.53.06.79.1l1.57.24c.26.03.52.07.78.07.26.01.48-.17.64-.37.32-.41.5-.93.58-1.45.03-.26.04-.53-.02-.78-.07-.25-.22-.48-.38-.69-.31-.39-.7-.75-1.12-1.08z" fill="#d17f5b" stroke-width="none" opacity="1"></path></g></g><g id="svga-group-hair-front"><path id="SvgjsPath29763" d="M62.6 77.5s-2.3-1.4-3.2-4.8c0 0-2.2-4.3-2.4-7-.2-2.7.2-6.5.2-6.5s-.6-2.6 0-4.7.8-4.7 2.7-5.8c0 0 1-5.2 3-7.9 0 0 1.9-4.2 6.4-5 0 0-.1-1.8 5.2-4.4 0 0 .9-2.1 5.5-2.1 0 0 2.5-2.3 6.3-2.2 0 0 2.8-1.7 5.6-.5 0 0 .5-1.5 4.9-.8 0 0 2.9-2 7.2.7 0 0 2.1-1.6 4.7-.1 0 0 2.2-.7 5.6.6 0 0 3.4-.3 6.1 2.2 0 0 3.9-.2 5.9 2.6 0 0 2.9.3 5.1 3.8 0 0 3.9.9 6.3 5.2 0 0 1.9 4.1 3 8 0 0 3.5 4 2.5 11 0 0 1.4 4.7-2.2 12.8 0 0-.6 3.3-3.1 4.8 0 0-1.4-5.6.5-11.4 0 0-1.3-4.3-.6-7.8 0 0-.6.6-1.2.1s-2.9-6-2.9-6-2.7-1-3.4-5.1c0 0-3.1-.1-6-3.1 0 0-2.7-.7-4.6-3.3 0 0-2.7.2-4.8-.6 0 0-1.9 1.4-5.2-.2 0 0-1.9 1.3-5.4.6 0 0-4.3 1-6.4-.9 0 0-3.9 1.8-6.1.6 0 0-4 1.2-5.7.3 0 0-3 .4-5.2.7 0 0-1.2 2.2-4.3 2.8 0 0-1.5 2.2-5.6 3.1 0 0-.8 3.9-3.6 5.2 0 0-2.2 5.4-3.2 5.8-1 .4-1.4-.1-1.4-.1s1 3.5-.1 7.2c-.5 0 1.3 7-.1 12.2z" fill="#504543" stroke-width="none" opacity="1"></path><path id="SvgjsPath29764" d="M80.2 41c-.3 0-.4.1-.7.4-.3.3-.6.7-.9 1-.6.6-1.4.9-2.1 1.4-2.4-3.7-2.7-7.2-1.5-11.5.1-.3-.3-.5-.5-.2-2 3.9-1.1 9.1 1.7 12.4.2.2.4.1.5-.1.9-.2 1.6-.6 2.3-1.2.5-.4 1.7-1.2 1.4-2 0-.1-.1-.2-.2-.2zm-4.6 3.2c-.8.5-1.4 1.2-2.2 1.6-.9.5-1.8.7-2.8 1-.4-1.7-.9-3.4-1.1-5.2-.2-2 .1-4 .2-6 1.1-1.5 2.3-2.6 4.2-3.2.2-.1.2-.5-.1-.5-2.2.1-4.3 1.6-5.1 3.7v.1h-.1c-2.6.3-4.8 2.5-6.1 4.7-.2.4.4.8.6.4 1.4-2.3 3.4-3.4 5.6-4.6-.7 3.6-.3 7.5 1.1 11 0 .1.1.1.1.1-.4 1.2-.7 2.2-1.5 3.2-.4.5-.8.9-1.3 1.3-.2.1-.3.2-.4.3-1.3-3.7-1.9-7.4-2.8-11.2-.1-.2-.4-.2-.4.1-.3 3.9 1.1 8.1 2.9 11.5l-.1.1c-1.1 1.7-2 3.5-2.9 5.3v.3c-.2-.1-.5-.3-.7-.5 0-.2-.1-.3-.2-.5s-.3-.2-.5-.1c-3.7-3.8-1.5-11.9 1-15.6.3-.4-.4-.8-.7-.4-1.5 2.2-2.5 4.7-2.8 7.3-.1 0-.2 0-.3.1-2.1 3-3.3 6.9-2.6 10.5.1.4.7.3.7-.1 0-3.5.4-6.5 2-9.5 0 .9 0 1.8.1 2.7.2 2.1.8 4.5 2.5 5.8.1 1.1.3 2.3.3 3.4 0 1.2-.2 2.4-.4 3.6h-.1c-.8-.8-1.6-1.5-2.2-2.3-.8-1-1.3-2.2-1.9-3.3-.1-.2-.4-.1-.5.1-.1 0-.2.1-.2.2-1 3.9-.4 9.9 2.3 13 .2.2.5 0 .4-.2-.5-2-1.5-3.8-1.9-5.8-.4-2-.3-3.9-.3-5.9.7 2.1 2.4 4.3 4.1 5.3 1.1 3.5 1.2 7.2.9 10.9-.5-.5-1-1-1.4-1.6-.5-.7-1-1.5-1.3-2.3-.1-.3-.6-.1-.5.2.6 1.8 1.6 3.8 3.2 4.9.4.3.8-.3.5-.6l-.1-.1c.9-4.1.5-8-.5-12 .6-2.1 1-4.6.5-6.8.1.1.3.1.4.2.2 0 .3-.1.3-.2.2.1.4.1.6-.2 1-1.8 2-3.6 2.7-5.5.9-.2 1.8-1.4 2.3-2.1.6-.9 1.2-2 1.4-3.1h.1c1.9-.2 4.2-1.3 5.3-3 .2-.3-.1-.7-.3-.5zm20-4.7c-.4-.5-.7-1.1-.9-1.7-.3-.6-.4-1.2-.7-1.8-.1-.2-.4-.1-.4.1.1 1.3.9 2.6 1.7 3.6.1.2.5 0 .3-.2zm-8.8-4.7c0 1.3.6 2.3 1.4 3.3.2.2.5-.1.4-.3-.5-1-.9-2-1.3-3-.1-.3-.5-.3-.5 0zM82.2 36c-.2-.3-.6 0-.4.3.5 1.1 1.2 2.6 2.4 3.2.2.1.5-.1.4-.4-.3-.5-.8-1-1.2-1.5-.5-.5-.8-1-1.2-1.6zm-7.4 3.3c.2 1.2.7 2.5 1.7 3.4.2.1.4 0 .3-.2-.6-1.1-1.3-2-1.7-3.2-.1-.3-.4-.2-.3 0zm-4.7.1c.1 1.9.3 4.2 1.5 5.7.2.3.6.1.6-.2-.5-1.9-1.3-3.5-1.5-5.5-.1-.3-.6-.4-.6 0zm32.9.9c-.5 0-1.1 0-1.6.1.1-.1.1-.2 0-.3-.2-.2-.3-.5-.4-.7.1.1.3.2.4 0 .3-.6.6-1.2.8-1.9 0-.2-.2-.3-.3-.2-.4.5-.7 1.2-.9 1.8v.2c-.1-.2-.2-.4-.3-.7-.2-.5-.4-1-.7-1.5-.1-.2-.5-.1-.5.1 0 1.2.8 2.3 1.5 3.1-.3 0-.5 0-.8-.1-.9-.2-1.8-.6-2.6-1.1 1.8-4.5 1.5-9.6-.7-13.9-.1-.3-.4-.2-.6-.1-.8 0-1.6.1-2.3.2-.6.1-1.1.1-1.6.3-.2-.1-.4-.1-.5.1-1.8 4.3-2.5 9.1-1.1 13.6-.7.2-1.4.6-2.2.7h-.3c-1.1-2.2-1.7-4.5-2.4-6.8-.1-.2-.4-.2-.4 0-.1 2.5.9 4.8 2.3 6.9-.6 0-1.2 0-1.8-.2-.2-2.1-.7-4.1-.6-6.2.1-2.3.6-4.4 1.1-6.6.1 0 .2-.1.2-.1h.2c1.5-.6 2.8-.8 4.4-.6.3 0 .3-.5.1-.5-1.5-.6-3.4-.4-4.8.5 0 0-.1 0-.1.1-.1 0-.2 0-.3.1-2.2-.3-4.5.7-6 2.2-.1 0-.1.1-.1.2-1.9-.4-4.5.7-5.8 2-.3.3.1.8.4.6.9-.6 1.7-1.1 2.8-1.5.7-.2 1.5-.3 2.2-.4-.4 3.6-.2 7.3.9 10.7l.1.1c-.2.2-.2.6.2.7 1.4.5 3.4.2 4.6-.9l.1.1c0 .1 0 .1.1.2 1.6.7 4 .8 5.4-.5 0 .1.1.2.1.3.1.2.3.1.3-.1l.1.1c1 .3 2.1.4 3.1.3.8-.1 1.8-.2 2.4-.7.1 0 .1 0 .2-.1l.1-.1c.1-.1.1-.1.1-.2v-.1c1.3 1.3 4.1 2.4 5.8 1.2 0-.1-.1-.4-.3-.4zm-22 .1h-.1c-.2-1-.4-2-.5-3.1.2.4.5.8.8 1.2.5.6 1.3 1.4 2.1 1.8-.8.3-1.5.2-2.3.1zm3.1-.2c-.7-.7-1.6-1.2-2.3-2-.7-.7-1.2-1.6-1.6-2.5-.2-2-.2-3.9 0-5.9v-.2c.1 0 .2 0 .4-.1 1.6-1.3 3.2-1.8 5.1-2-1.5 3.7-1.8 8.5-.6 12.3-.3.1-.6.2-1 .4zm10-.1s0-.1-.1-.1c-1.7-2-2.4-4.2-2.7-6.8 0-.2-.4-.3-.4-.1-.5 2.5.5 5.2 2.3 7-.6 0-1.1-.1-1.6-.1-.2 0-.3.1-.3.2-1-4.8-1-9.3 1.2-13.9.6.1 1.2 0 1.7 0 .6-.1 1.3-.1 1.9-.2 1.9 4.5 2 8.9.6 13.6-.6.1-1.3.4-1.9.5-.2-.1-.5-.1-.7-.1zm3.4-14.2c1-.1 1.9-.4 2.9-.3.9.1 1.7.5 2.5.9.4.1.6-.4.4-.6-1.4-1.4-4.4-1.6-6-.3-.2.1 0 .3.2.3zm2.3 8.3c-.1.9.4 1.8 1 2.4.3.3.7-.1.4-.4-.5-.6-.6-1.4-1-2 0-.2-.4-.2-.4 0zM66.3 46.5c-.1-.2-.5-.1-.4.2.4 1.2 1.9 2.6 3.3 2 .1 0 .1-.2 0-.2l-1.5-.6c-.6-.4-1.1-.9-1.4-1.4zm.4-2.8c-.3-.5-.6-.9-.8-1.5-.1-.3-.7-.2-.6.2.3 1 .9 2.6 2 3 .3.1.5-.2.3-.5-.1-.4-.6-.7-.9-1.2zm-4.3 8c-.2-.3-.6 0-.5.3.4.8 1.4 1.8 2.4 1.7.2 0 .3-.3.1-.4-.4-.2-.8-.3-1.1-.5-.4-.3-.7-.7-.9-1.1zM60 59.2c-.1 0-.1.1 0 .1s.1-.1 0-.1zm59.6-18.6c1.2-3.5 1.4-7.2 1-10.8.8.1 1.5.2 2.2.4 1 .3 1.9.9 2.8 1.5.3.2.7-.3.4-.6-1.3-1.3-3.9-2.4-5.8-2 0 0-.1-.1-.1-.2-1.5-1.5-3.8-2.4-6-2.2-.1-.1-.2-.1-.3-.1 0 0-.1 0-.1-.1-1.3-.9-3.2-1.1-4.7-.6h-.1c-2.1-.7-5.2-1.1-6 1.6-.4 1.5 0 3.5.1 4.9.2 2.5.3 4.9.6 7.4 0 .2.4.2.4 0-.1-2.5-.2-4.9-.4-7.4-.1-1-.3-2.2-.2-3.2.3-3.2 2.2-3.3 4.6-2.7 0 .1-.1.2 0 .3.7 4.2 1.1 8.2 1 12.5-.9.2-1.6.8-2.5.9-1 .2-2 .1-2.9-.2-.3-.1-.6.4-.2.6 1.6.8 4.3.9 5.8-.4 1.4 1.2 3.8 1.1 5.4.4.1 0 .1-.1.1-.2 0 0 .1 0 .1-.1 1.2 1.1 3.1 1.4 4.6.9.3 0 .4-.4.2-.6zm-7.2-.3c1.3-2 2.3-4.4 2.3-6.9 0-.2-.3-.3-.4 0-.7 2.3-1.3 4.6-2.4 6.8h-.3c-.7-.1-1.3-.5-2-.7.5-4.2.3-8.7-.7-12.8.1 0 .2-.1.3-.1 1.5-.1 2.8 0 4.2.6h.2c.1.1.1.1.2.1.5 2.2 1 4.3 1.1 6.6.1 2.1-.4 4.1-.6 6.2-.7.2-1.3.3-1.9.2zm2-12.8c1.9.2 3.5.7 5.1 2 .1.1.2.1.4.1 0 0-.1.1 0 .2.2 2 .2 4 0 5.9-.4.9-1 1.8-1.6 2.5-.7.8-1.6 1.3-2.3 2-.3-.1-.7-.3-1-.5 1.2-3.8.9-8.5-.6-12.2zm2.5 12.9c.8-.4 1.5-1.2 2.1-1.8.3-.4.6-.8.8-1.2-.1 1-.3 2-.5 3.1h-.1c-.8 0-1.6.1-2.3-.1zm8.7-8.4c-.1-.3-.6-.1-.5.2 1.2 4.3.8 7.8-1.5 11.5-.7-.5-1.4-.8-2.1-1.4-.3-.3-.6-.5-.8-.8-.3-.3-.3-.5-.8-.5-.1 0-.2.1-.3.2-.2.8.9 1.6 1.4 2 .7.5 1.5 1 2.3 1.2.1.2.4.3.5.1 2.9-3.4 3.8-8.6 1.8-12.5zm16.7 34.7c-.4 2-1.4 3.8-1.9 5.8-.1.2.2.4.4.2 2.7-3.2 3.4-9.1 2.3-13 0-.1-.1-.2-.2-.2 0-.2-.3-.3-.4-.1-.6 1.1-1.1 2.2-1.9 3.3-.7.9-1.5 1.6-2.2 2.3h-.1c-.2-1.2-.4-2.4-.4-3.6 0-1.2.2-2.3.3-3.4 1.7-1.3 2.3-3.7 2.5-5.8.1-.9.1-1.8.1-2.7 1.6 3 2.1 6 2.1 9.5 0 .4.6.5.7.1.7-3.6-.5-7.6-2.6-10.5-.1-.1-.2-.1-.3-.1-.4-2.6-1.3-5.1-2.8-7.3-.3-.4-1 0-.7.4 2.5 3.7 4.7 11.8 1 15.6-.1-.1-.4-.1-.4.1-.1.2-.1.3-.2.5-.2.2-.4.3-.7.5V58c-.9-1.8-1.8-3.7-2.9-5.3 0-.1-.1-.1-.1-.1 1.8-3.4 3.2-7.6 2.9-11.5 0-.2-.4-.3-.4-.1-.9 3.8-1.5 7.5-2.8 11.2-.1 0-.1-.1-.2-.1-.6-.4-1.1-.9-1.5-1.4-.8-1-1.1-2-1.5-3.2l.1-.1c1.3-3.4 1.8-7.3 1.1-11 2.3 1.2 4.3 2.3 5.6 4.6.2.4.9 0 .6-.4-1.3-2.2-3.4-4.4-6.1-4.7h-.1v-.1c-.8-2.1-2.9-3.5-5.1-3.7-.3 0-.3.4-.1.5 1.9.6 3.1 1.6 4.2 3.2.1 2 .4 4 .2 6-.2 1.8-.7 3.4-1.1 5.2-1-.2-1.9-.5-2.8-1-.8-.5-1.5-1.1-2.2-1.6-.2-.2-.6.2-.4.4 1 1.7 3.4 2.8 5.3 3h.1c.1 1.1.7 2.2 1.4 3.1.5.7 1.4 1.9 2.3 2.1.7 1.9 1.7 3.8 2.7 5.5.1.2.4.3.6.2 0 .2.1.3.3.2.1 0 .3-.1.4-.2-.5 2.2-.1 4.6.5 6.8-1 4-1.4 7.9-.5 12l-.1.1c-.3.3.1.9.5.6 1.6-1.1 2.7-3.1 3.2-4.9.1-.3-.4-.5-.5-.2-.4.8-.8 1.6-1.3 2.3-.4.6-.9 1.1-1.4 1.6-.3-3.7-.2-7.4.9-10.9 1.8-1 3.4-3.2 4.1-5.3-.1 1.9-.1 3.8-.5 5.9zm-29.5-31.9c-.4 1-.8 2.1-1.3 3-.1.2.2.5.4.3.8-1 1.3-2 1.4-3.3 0-.3-.4-.3-.5 0zm3.2 4.7c1.2-.6 1.9-2.1 2.4-3.2.1-.3-.3-.6-.4-.3-.3.6-.7 1.1-1.1 1.7-.4.5-.9.9-1.2 1.5-.2.1 0 .4.3.3zm7.7 3.1c1-.8 1.5-2.1 1.7-3.4 0-.2-.2-.3-.3-.1-.4 1.2-1.1 2.2-1.7 3.2-.2.3.1.5.3.3zm4.9 2.5c1.1-1.6 1.4-3.8 1.5-5.7 0-.3-.5-.3-.5 0-.2 2-1 3.6-1.5 5.5-.2.3.3.5.5.2zm5.3 1.4c-.3.5-.8 1-1.3 1.3-.5.3-1 .4-1.5.6-.1 0-.1.2 0 .2 1.4.6 2.9-.8 3.3-2 0-.2-.4-.3-.5-.1zm.3-4.2c-.2.5-.5 1-.8 1.5-.3.4-.8.8-1 1.2-.1.2.1.6.4.5 1.1-.4 1.7-2 2-3 .1-.5-.4-.6-.6-.2zm1.6 11.4c1 .1 1.9-.9 2.4-1.7.2-.3-.3-.5-.4-.3-.2.4-.5.8-.9 1-.4.2-.8.3-1.1.5-.3.2-.2.5 0 .5zm-30.1-14c1.2-1.1 2.3-3 1.8-4.6-.1-.2-.5-.3-.5 0-.1.7-.1 1.4-.3 2.1-.2.8-.7 1.6-1.2 2.2-.3.2 0 .5.2.3zm-.6-7.1c.2.6.3 1.5.8 2 .1.1.3.1.3-.1.1-.7-.4-1.5-.6-2.1-.1-.2-.5-.1-.5.2zM139 57.7c-.2 1.4-.4 2.6-1 3.8-.1.3.3.5.4.2.7-1.2 1.2-2.7.9-4.1 0-.1-.2-.1-.3.1zm1.6 1.9c.1-.7.4-1.5.3-2.2 0-.2-.3-.4-.4-.1-.2.6-.3 1.2-.4 1.9-.1 0-.1.1 0 .1v.2c-.1.3.5.5.5.1z" fill="#413230" stroke-width="none" opacity="1"></path></g><g id="svga-group-glasses-single-move" transform="matrix(1,0,0,1,0,0)"><g id="svga-group-glasses-single"></g></g></g></g></g><rect id="svga-credit-rect" width="200" height="15" x="0" y="185" fill="#ecf0f1" opacity="0.5" style="display: none;"></rect><text id="svga-credit-text" font-family="Avenir Next, Roboto, Helvetica, Arial, sans-serif" font-size="10px" text-anchor="start" font-weight="400" size="10px" anchor="start" weight="400" fill="#333333" x="33.40447998046875" y="182.60824704170227" style="display: none;"><tspan id="SvgjsTspan29521" dy="13" x="33.40447998046875">Created on AvatarMaker.com</tspan></text></g><defs id="SvgjsDefs29468"></defs></svg>