<svg xmlns="http://www.w3.org/2000/svg" version="1.1" width="600px" height="600px" viewBox="0 0 200 200" style="overflow:hidden!important;"><g id="svga-group-wrapper"><g id="svga-group-backs-single"></g><g id="svga-group-humanwrap-move" transform="matrix(1,0,0,1,0,0)"><g id="svga-group-humanwrap"><g id="svga-group-hair-back-move" transform="matrix(1,0,0,1,0,0)"><g id="svga-group-hair-back"></g></g><g id="svga-group-humanbody-back"><path id="SvgjsPath21157" d="M180.8 184.9c-2.3-3.4-38.9-17.8-38.9-17.8l-13.4-5.2-5.6-68.8H76.8L71.3 162l-13.4 5.2S21.4 181.6 19 185c-2.3 3.4-3.3 14.9-3.3 14.9V219h168.5v-19.2c-.1.1-1-11.5-3.4-14.9z" fill="#ffd0bc" stroke-width="none" opacity="1"></path></g><g id="svga-group-chinshadow-single"><path id="SvgjsPath21153" d="m76.82 93.1-3.53 44.34c1.58 4.84 2.79 9.44 4.01 13.96.25 2.53 2.44 5.17 4.54 6.07 4 1.7 7.66 2.8 11.06 3.4 2.7.5 5.4.5 8 0 3.4-.6 7.08-1.89 11.08-3.49 2.2-.9 3.96-2.86 4.52-5.98 1.47-7.47 4.69-16.83 9.08-25.85l-2.64-32.45H76.82z" fill="#e09879" stroke-width="none" opacity="1"></path></g><g id="svga-group-humanbody-front"><path id="SvgjsPath21158" d="M184.5 219c-.1-6.4-.1-12.8-.1-19.2l-.3-.1s.1-.1.2 0c.1 0 .1.1.1.1v-.4l-.1-.5-.1-.9-.2-1.9c-.2-1.3-.4-2.5-.6-3.8-.2-1.3-.5-2.5-.9-3.8-.4-1.2-.8-2.5-1.5-3.6-.8-.9-1.9-1.5-2.9-2.1-1-.6-2.1-1.1-3.2-1.7-2.1-1.1-4.3-2.1-6.5-3.1-4.4-2-8.7-3.9-13.1-5.7-4.4-1.9-8.8-3.7-13.2-5.5l-13-5.2-1.2-16.9c-.4-5.7-.9-11.5-1.3-17.2l-1.3-17.2-1.5-17.3-.1-.8h-.8c-7.7 0-15.4.1-23.1.1l-23.1.2h-.5v.5L75 110.2l-1.3 17.2c-.8 11.4-1.8 22.8-2.8 34.2-5.6 2.1-11.2 4.2-16.7 6.4-5.6 2.2-11.2 4.5-16.8 6.9-2.8 1.2-5.6 2.4-8.3 3.6-2.8 1.3-5.5 2.5-8.2 4.1-.7.4-1.3.8-2 1.4-.2.1-.4.4-.5.6l-.3.6c-.2.4-.4.7-.5 1.1-.6 1.5-1 3-1.3 4.5-.6 3-1.1 6-1.4 9.1l-.1 19.1v.9h.9l42.1.1H100c14 0 28.1-.1 42.1-.2l42.1-.5h.3v-.3zm-84.5-1-42.1-.1-41.2.1-.1-18.1c.3-3 .6-5.9 1.2-8.9.3-1.4.6-2.9 1.1-4.2.1-.3.3-.7.4-.9l.2-.4.3-.3c.5-.4 1.1-.8 1.8-1.2 2.5-1.5 5.3-2.8 8-4.1 2.7-1.3 5.5-2.5 8.2-3.7 5.5-2.4 11.1-4.8 16.7-7.1s11.2-4.5 16.9-6.7l.2-.1v-.2c.9-11.5 1.7-23 2.7-34.4l1.4-17.2 1.5-16.7 22.6.2c7.4.1 14.8.1 22.3.1l1.3 16.4 1.5 17.2c.5 5.7 1 11.5 1.5 17.2l1.6 17.2v.3l.3.1 13.4 5c4.4 1.7 8.9 3.4 13.3 5.2 4.4 1.8 8.8 3.7 13.2 5.6 2.2 1 4.3 2 6.5 3 1.1.5 2.1 1.1 3.2 1.6 1 .6 2.1 1.2 2.9 2 .7 1.1 1.1 2.3 1.4 3.5.3 1.2.6 2.5.8 3.7.2 1.3.4 2.5.6 3.8l.2 1.9.1.9.1.5v.4c0 6.3 0 12.6-.1 18.9l-41.8-.5c-14 .1-28.1 0-42.1 0z" fill="#d17f5b" stroke-width="none" opacity="1"></path><path id="SvgjsPath21159" d="M125.1 142.4s-1.8 23-9.1 32.9c0 0 7.9-25 9.1-32.9zm-34.5 16s5 7.9 11.5 10.1c0 0-9.5 2.2-11.5-10.1zM73.4 140c6.7 25.6 6.7 25.6 8.5 30.7 0 0 .4-12.6-8.5-30.7z" fill="#e09879" stroke-width="none" opacity="1"></path></g><g id="svga-group-clothes-single"><path id="SvgjsPath21037" d="M56.9 166.6s-31.1 11.5-38.3 16.7c0 0-2.3 2.3-3.3 9.3-1 7-1.4 27.3-1.4 27.3h171.5s-.2-16.2-1.3-25.3c-1.2-9.1-1.9-9.3-3.1-10.5-1.2-1.2-27.3-14-38.6-17.5 0 0-1.6 22-40.1 23.6s-45.2-17.5-45.4-23.6z" fill="#335529" stroke-width="none" opacity="1"></path><path id="SvgjsPath21038" d="M185.8 220c-.1-6.6-.3-13.2-.7-19.8-.2-3.3-.6-6.6-1.1-9.8-.3-1.6-.5-3.3-1.3-4.9-.2-.4-.5-.8-.8-1.1-.3-.3-.6-.6-1-.9-.8-.5-1.5-.9-2.2-1.2-5.8-3.1-11.8-5.9-17.8-8.7-3-1.4-6-2.7-9.1-3.9-3.1-1.3-6.1-2.5-9.3-3.5l-.5-.2-.1.6c-.3 2.1-1 4.2-2.1 6.1l-.4.7-.4.7-.9 1.4-1 1.3c-.4.4-.7.9-1.1 1.2-1.5 1.6-3.2 2.9-5 4.1-.9.6-1.8 1.2-2.8 1.7l-3 1.4c-4.1 1.6-8.3 2.9-12.7 3.6l-3.3.5-3.3.3-3.3.3c-1.1.1-2.2 0-3.3.1H96c-1.1 0-2.2-.1-3.3-.1l-3.3-.2-3.3-.4c-2.2-.2-4.3-.8-6.5-1.2-1.1-.2-2.1-.6-3.2-1l-1.6-.5-1.5-.7c-4.1-1.7-7.9-4.1-10.8-7.4l-1.1-1.2c-.3-.4-.6-.9-1-1.3-.7-.9-1.1-1.9-1.7-2.8-1-2-1.6-4.1-1.8-6.4-3.4 1.2-6.6 2.4-9.9 3.6-3.3 1.2-6.5 2.5-9.8 3.8-3.2 1.3-6.5 2.7-9.6 4.1-3.2 1.5-6.4 2.9-9.3 4.9-1.1 1.3-1.7 2.8-2.2 4.2-.5 1.5-.9 3-1.1 4.6-.5 3.1-.6 6.2-.8 9.3-.4 6.2-.6 12.4-.7 18.7v.4h.4c14.3.1 28.6-.1 42.9-.1l42.9-.1h21.4l21.4.1 42.9.2h.4v-.5zm-64.7-.2H99.7l-42.9-.1c-6.8 0-13.6 0-20.5-.1-.1-3.4-.5-6.7-1-10-.6-3.4-1.3-6.8-2.5-10-.6-1.6-1.5-3.2-2.5-4.6-1-1.4-2-2.8-3.2-4.1-2.3-2.6-4.9-4.9-7.6-6.9 2.5 2.3 4.9 4.8 7.1 7.4 2.1 2.6 4.1 5.4 5.3 8.6 1.2 3.1 2 6.5 2.7 9.8.4 1.7.7 3.4 1 5 .3 1.6.6 3.2.8 4.9-7.3 0-14.6-.1-22 0 .1-6.1.3-12.1.6-18.2.2-3.1.3-6.2.8-9.3.2-1.5.6-3 1.1-4.5.5-1.4 1.1-2.9 2-4 2.8-1.9 6-3.4 9.1-4.9 3.2-1.5 6.4-2.8 9.6-4.2 3.2-1.4 6.4-2.7 9.7-4l9.7-3.8c.1 2.1.8 4.4 1.7 6.4.5 1 1 2 1.7 2.9.3.5.6.9 1 1.4l1.1 1.3c3 3.4 6.8 5.9 10.9 7.6l1.5.7 1.6.5c1.1.3 2.1.8 3.2 1 2.2.5 4.3 1.1 6.6 1.3l3.3.5 3.3.2c1.1.1 2.2.2 3.3.2h5.3c-.2.7-.2 1.3-.1 1.9.1.7.2 1.3.5 2-1.1 0-2.1.1-3.2 0-4.8 0-9.6-.2-14.3-.9-.6-.1-1.2-.1-1.8-.2l-1.8-.4-3.5-.7c-1.2-.3-2.3-.7-3.4-1l-1.6-.5c.5-.5.9-1.2 1.2-1.8.3-.7.6-1.5.7-2.3-.6.6-1 1.3-1.4 2-.3.7-.6 1.3-.7 2.1-.6-.2-1.1-.4-1.6-.6-1.5-.6-2.9-1.2-4.3-1.9.3-.3.6-.5.8-.8.3-.3.5-.6.8-.9.5-.7.9-1.4 1.2-2.2-.7.5-1.3 1.1-1.8 1.7-.2.3-.5.7-.7 1.1-.2.3-.3.7-.4 1.1-2.2-1.1-4.2-2.5-6-4.1.8-.4 1.4-.9 2-1.5.6-.6 1.2-1.3 1.6-2.1-.8.4-1.5 1-2.1 1.6-.6.6-1.1 1.2-1.5 2-.5-.5-1.1-.9-1.6-1.4-.5-.4-.8-.9-1.2-1.3-.4-.4-.8-.9-1.2-1.4-.7-1-1.4-1.9-2-3-1.2-2.1-2.1-4.3-2.4-6.7.2 2.4 1.1 4.7 2.2 6.9.5 1.1 1.2 2.1 1.9 3.1.3.5.8.9 1.1 1.4.4.4.8 1 1.2 1.4 3.4 3.5 7.6 6.1 12.1 7.9.6.2 1.1.5 1.7.7l1.7.6c1.2.4 2.3.8 3.5 1.1l3.6.8 1.8.4c.6.1 1.2.2 1.8.2 4.8.7 9.6.9 14.5 1 9.6 0 19.4-1.3 28.4-5 4.5-1.9 8.7-4.3 12.3-7.6 1.8-1.7 3.4-3.4 4.7-5.5 1.4-2 2.5-4.1 3.1-6.5-1.6 4.6-4.7 8.4-8.2 11.6-3.6 3.2-7.8 5.5-12.3 7.3-6.6 2.6-13.6 3.9-20.7 4.4.1-.6.1-1.1 0-1.6-.1-.6-.3-1.2-.6-1.8-.2.7-.2 1.3-.1 1.9.1.5.2 1.1.5 1.6-1.3.1-2.7.1-4 .2.2-.7.2-1.4.2-2.1-.1-.6-.2-1.2-.5-1.9h1.2l3.3-.2c1.1-.1 2.2-.1 3.3-.3l3.3-.5c4.4-.6 8.8-1.9 12.9-3.5 4.1-1.7 8-4.2 11.2-7.4.4-.4.8-.8 1.1-1.3l1.1-1.3.9-1.4.5-.7.4-.8c1-1.8 1.7-3.7 2.1-5.8 2.9.9 5.8 2.1 8.6 3.3l9 3.9c6 2.7 11.9 5.5 17.7 8.6.7.4 1.5.8 2.1 1.2.3.1.6.5.9.7.3.3.4.6.6.9.6 1.4.9 3 1.2 4.6.5 3.2.9 6.5 1.2 9.8.5 6.4.7 12.9.8 19.3l-22.5.1c.3-1.7.5-3.3.8-4.9.3-1.7.6-3.4 1-5 .7-3.3 1.5-6.7 2.7-9.8 1.1-3.1 3.2-5.9 5.3-8.6 2.2-2.6 4.6-5.1 7.1-7.4-2.8 2-5.3 4.4-7.6 6.9-1.2 1.3-2.2 2.6-3.2 4.1-1 1.4-1.8 3-2.4 4.6-1.2 3.2-2 6.6-2.5 10-.5 3.4-.9 6.7-1 10.1l-19.9.1-21.7-.6zm16.2-41.2c.3.7.7 1.2 1.2 1.7s1 .9 1.7 1.2c-.3-.7-.7-1.2-1.2-1.7s-1-1-1.7-1.2z" fill="#18360f" stroke-width="none" opacity="1"></path></g><g id="svga-group-head" transform="matrix(1,0,0,1,0,0)"><g id="svga-group-ears-left-move" transform="matrix(1,0,0,1,0,0)"><g id="svga-group-ears-left"><path id="SvgjsPath21047" d="M68.8 87.48s-4.2-8.27-8.66-11.42c-4.46-3.15-9.84-3.15-9.84-3.15s-3.02 2.1-1.97 12.6c0 0 4.46 10.76 12.47 14.7 0 0 5.77 1.31 8.66.66-.01-.01 2.09-6.18-.66-13.39z" fill="#ffd0bc" stroke-width="none" opacity="1"></path><path id="SvgjsPath21048" d="M67.88 90.76s-3.67-7.87-6.04-9.84c-2.36-1.97-7.87-5.12-9.32-3.28-1.44 1.84-1.57 7.61-1.57 7.61s1.57 4.59 6.3 7.09c4.72 2.49 10.37 2.76 10.37 2.76l.26-4.34z" fill="#f0b399" stroke-width="none" opacity="1"></path><path id="SvgjsPath21049" d="M47.99 82.25c.02 1.09.09 2.19.17 3.28v.02l.01.03a39.54 39.54 0 0 0 2.2 4.42c.82 1.43 1.75 2.79 2.75 4.11 1.02 1.3 2.15 2.51 3.38 3.64 1.25 1.1 2.62 2.07 4.12 2.83l.04.02.05.01c1.45.31 2.89.55 4.36.7.73.07 1.47.13 2.22.13.74-.01 1.5-.05 2.25-.23l.19-.05.05-.17c.33-1.14.5-2.27.58-3.42.08-1.15.08-2.3-.01-3.44a23.99 23.99 0 0 0-.52-3.38c-.23-1.12-.59-2.2-.99-3.27-.94-1.86-2.02-3.63-3.13-5.4-1.14-1.74-2.35-3.46-3.85-4.95-.75-.74-1.6-1.4-2.5-1.96-.91-.56-1.88-.98-2.87-1.35-1.99-.73-4.08-1.08-6.19-1.12h-.08l-.04.04c-.89.85-1.22 1.93-1.54 2.98-.29 1.06-.45 2.16-.54 3.25-.09 1.09-.13 2.18-.11 3.28zm.33-3.27c.11-1.08.28-2.15.59-3.19.15-.52.35-1.02.59-1.49.23-.44.53-.89.86-1.18 2.01.12 4.01.6 5.9 1.29 1.9.73 3.7 1.74 5.19 3.13 1.5 1.39 2.82 2.99 4.04 4.67 1.22 1.67 2.29 3.46 3.28 5.28.37 1.07.71 2.15.91 3.27.24 1.11.32 2.24.36 3.37.04 1.13-.04 2.26-.19 3.37-.14 1.04-.35 2.09-.65 3.07-.62.1-1.26.12-1.91.1-.71-.01-1.43-.06-2.14-.14-1.41-.15-2.83-.4-4.21-.7-1.39-.74-2.72-1.62-3.93-2.66-1.2-1.07-2.33-2.24-3.35-3.49a42.391 42.391 0 0 1-2.82-3.96c-.86-1.37-1.66-2.79-2.33-4.25l-.16-1.59c-.05-.54-.06-1.09-.09-1.63-.04-1.1-.03-2.18.06-3.27z" fill="#f0b399" stroke-width="none" opacity="1"></path><path id="SvgjsPath21050" d="M52.2 80.53c.18-.69.39-1.36.67-2.03.07-.16.16-.33.26-.48.11-.15.23-.33.48-.37.45.02.72.22 1.06.37a18.3 18.3 0 0 1 3.48 2.44c.53.48 1.03 1.01 1.42 1.66.18.33.36.69.38 1.14.01.25-.01.36-.01.54l.01.51c.16 2.77.58 5.56.83 8.36l-.07.01c-.34-1.37-.61-2.75-.86-4.13-.26-1.39-.44-2.78-.55-4.2l-.03-.54v-.51c0-.26-.13-.56-.28-.84-.31-.57-.74-1.11-1.21-1.61-.94-1-2.01-1.94-3.22-2.61-.29-.16-.65-.33-.91-.33-.23.06-.41.43-.53.73-.26.63-.39 1.33-.52 2.01-.23 1.37-.39 2.77-.48 4.15-.02.34-.04.7-.02 1.01-.01.17.21.46.41.71.42.52.91 1.02 1.4 1.5.81.79 1.65 1.57 2.5 2.33.09-.91.18-1.82.24-2.74.04-.59.07-1.17.08-1.75.01-.53.01-1.07-.06-1.58-.15-.02-.33-.03-.5-.02a4.1 4.1 0 0 0-.69.1c-.46.1-.91.25-1.35.43l-.03-.07c.41-.25.85-.46 1.32-.62.23-.08.47-.15.72-.19.26-.04.49-.07.79-.01l.11.02.03.13c.15.61.18 1.21.22 1.81.02.6.02 1.19.01 1.79-.03 1.19-.08 2.37-.19 3.56l-.07.75-.58-.49c-1.08-.92-2.11-1.87-3.11-2.88-.49-.51-.98-1.03-1.43-1.61-.11-.15-.22-.3-.32-.47-.05-.09-.1-.18-.14-.29-.05-.11-.07-.28-.07-.37-.01-.39.03-.74.06-1.1.14-1.45.39-2.84.75-4.22z" fill="#d17f5b" stroke-width="none" opacity="1"></path></g></g><g id="svga-group-ears-right-move" transform="matrix(1,0,0,1,0,0)"><g id="svga-group-ears-right"><path id="SvgjsPath21051" d="M131.2 87.48s4.2-8.27 8.66-11.42c4.46-3.15 9.84-3.15 9.84-3.15s3.02 2.1 1.97 12.6c0 0-4.46 10.76-12.47 14.7 0 0-5.77 1.31-8.66.66.01-.01-2.09-6.18.66-13.39z" fill="#ffd0bc" stroke-width="none" opacity="1"></path><path id="SvgjsPath21052" d="M132.12 90.76s3.67-7.87 6.04-9.84c2.36-1.97 7.87-5.12 9.32-3.28 1.44 1.84 1.57 7.61 1.57 7.61s-1.57 4.59-6.3 7.09c-4.72 2.49-10.37 2.76-10.37 2.76l-.26-4.34z" fill="#f0b399" stroke-width="none" opacity="1"></path><path id="SvgjsPath21053" d="M151.91 78.96c-.09-1.09-.25-2.18-.54-3.25-.32-1.05-.65-2.13-1.54-2.98l-.04-.04h-.08c-2.11.04-4.21.39-6.19 1.12-.99.37-1.96.79-2.87 1.35-.9.56-1.75 1.22-2.5 1.96-1.5 1.49-2.71 3.21-3.85 4.95-1.11 1.77-2.18 3.54-3.13 5.4-.39 1.07-.76 2.15-.99 3.27a23.99 23.99 0 0 0-.52 3.38c-.1 1.14-.09 2.29-.01 3.44s.25 2.28.58 3.42l.05.17.19.05c.75.18 1.51.22 2.25.23.75 0 1.48-.05 2.22-.13 1.47-.15 2.91-.39 4.36-.7l.05-.01.04-.02c1.5-.76 2.87-1.73 4.12-2.83 1.23-1.12 2.36-2.34 3.38-3.64 1-1.31 1.93-2.68 2.75-4.11.82-1.43 1.57-2.89 2.2-4.42l.01-.03v-.02c.07-1.09.14-2.18.17-3.28.01-1.09-.03-2.18-.11-3.28zm-.16 3.28c-.03.54-.04 1.09-.09 1.63l-.16 1.59c-.67 1.47-1.47 2.89-2.33 4.25-.87 1.37-1.8 2.7-2.82 3.96a29.855 29.855 0 0 1-3.35 3.49 21.554 21.554 0 0 1-3.93 2.66c-1.38.3-2.8.54-4.21.7-.71.08-1.43.13-2.14.14-.64.01-1.29 0-1.91-.1-.3-.98-.51-2.03-.65-3.07-.15-1.11-.22-2.24-.19-3.37.04-1.13.12-2.26.36-3.37.2-1.12.54-2.2.91-3.27.98-1.82 2.05-3.61 3.28-5.28 1.21-1.67 2.54-3.28 4.04-4.67 1.49-1.39 3.28-2.4 5.19-3.13 1.88-.69 3.89-1.17 5.9-1.29.34.29.63.74.86 1.18.25.47.44.97.59 1.49.3 1.03.48 2.11.59 3.19.08 1.1.09 2.18.06 3.27z" fill="#f0b399" stroke-width="none" opacity="1"></path><path id="SvgjsPath21054" d="M147.8 80.53c-.18-.69-.39-1.36-.67-2.03-.07-.16-.16-.33-.26-.48-.11-.15-.23-.33-.48-.37-.45.02-.72.22-1.06.37a18.3 18.3 0 0 0-3.48 2.44c-.53.48-1.03 1.01-1.42 1.66-.18.33-.36.69-.38 1.14-.01.25.01.36.01.54l-.01.51c-.16 2.77-.58 5.56-.83 8.36l.07.01c.34-1.37.61-2.75.86-4.13.26-1.39.44-2.78.55-4.2l.03-.54v-.51c0-.26.13-.56.28-.84.31-.57.74-1.11 1.21-1.61.94-1 2.01-1.94 3.22-2.61.29-.16.65-.33.91-.33.23.06.41.43.53.73.26.63.39 1.33.52 2.01.23 1.37.39 2.77.48 4.15.02.34.04.7.02 1.01.01.17-.21.46-.41.71-.42.52-.91 1.02-1.4 1.5-.81.79-1.65 1.57-2.5 2.33-.09-.91-.18-1.82-.24-2.74-.04-.59-.07-1.17-.08-1.75-.01-.53-.01-1.07.06-1.58.15-.02.33-.03.5-.02.23.01.46.05.69.1.46.1.91.25 1.35.43l.03-.07c-.41-.25-.85-.46-1.32-.62a4.23 4.23 0 0 0-.72-.19c-.26-.04-.49-.07-.79-.01l-.11.02-.03.13c-.15.61-.18 1.21-.22 1.81-.02.6-.02 1.19-.01 1.79.03 1.19.08 2.37.19 3.56l.07.75.58-.49c1.08-.92 2.11-1.87 3.11-2.88.49-.51.98-1.03 1.43-1.61.11-.15.22-.3.32-.47.05-.09.1-.18.14-.29.05-.11.07-.28.07-.37.01-.39-.03-.74-.06-1.1a26.8 26.8 0 0 0-.75-4.22z" fill="#d17f5b" stroke-width="none" opacity="1"></path></g></g><g id="svga-group-faceshape-wrap"><g id="svga-group-faceshape-single"><path id="SvgjsPath21137" d="M140.4 54.9c-2.2-10-6.3-16-15.2-20.8-9.3-5-25.2-4.8-25.2-4.8s-15.9-.2-25.2 4.8c-8.8 4.8-13 10.8-15.2 20.8-.9 4 0 13.6 0 13.6s1.19 20.36 2.33 25.75c.61 2.3.88 5.51 6.14 14C75 121 77.59 131.35 80.3 141.4c.25 2.53 2.44 5.17 4.54 6.07 4 1.7 7.66 2.8 11.06 3.4 2.7.5 5.4.5 8 0 3.4-.6 7.08-1.89 11.08-3.49 2.2-.9 3.96-2.86 4.52-5.98 1.8-9.13 6.21-21.09 12.18-31.8 6.09-9.6 5.84-12.09 6.51-15.48.8-5.1 2.01-25.62 2.01-25.62.1-.1 1.1-9.6.2-13.6z" fill="#ffd0bc" stroke-width="none" opacity="1"></path><path id="SvgjsPath21138" d="M140.4 54.9c-2.2-10-6.3-16-15.2-20.8-9.3-5-25.2-4.8-25.2-4.8s-15.9-.2-25.2 4.8c-8.8 4.8-13 10.8-15.2 20.8-.9 4 0 13.6 0 13.6s1.19 20.36 2.33 25.75c.61 2.3.88 5.51 6.14 14C75 121 77.59 131.35 80.3 141.4c.25 2.53 2.44 5.17 4.54 6.07 4 1.7 7.66 2.8 11.06 3.4 2.7.5 5.4.5 8 0 3.4-.6 7.08-1.89 11.08-3.49 2.2-.9 3.96-2.86 4.52-5.98 1.8-9.13 6.21-21.09 12.18-31.8 6.09-9.6 5.84-12.09 6.51-15.48.8-5.1 2.01-25.62 2.01-25.62.1-.1 1.1-9.6.2-13.6zm-.03 10.19-.33 3.24-.07.15c-.36 5.15-.85 10.29-1.34 15.42-.55 5.09-.9 10.37-2.43 15.06-.85 2.32-2.1 4.54-3.39 6.73-.66 1.08-1.35 2.17-2.06 3.26a117.418 117.418 0 0 0-8.31 17.7c-.91 2.44-1.75 4.91-2.5 7.42-.37 1.25-.71 2.52-1.02 3.79-.15.64-.31 1.27-.44 1.92l-.39 1.87c-.26 1.09-.72 2.09-1.4 2.89-.34.4-2.64 1.78-2.64 1.78-2.37.94-4.75 1.85-7.16 2.54-1.21.35-2.41.63-3.64.84-1.19.21-2.41.31-3.62.3-1.22-.01-2.42-.13-3.64-.35-1.24-.21-2.46-.49-3.68-.81-2.42-.65-4.85-1.5-7.12-2.47-1.85-.89-3.56-3.04-3.81-5.07 0 0-2.22-8.04-3.47-11.94-1.26-3.9-2.7-7.75-4.36-11.5-1.67-3.74-3.48-7.43-5.61-10.95-2.12-3.45-4.14-7-5.12-10.89-.24-.98-.5-1.98-.66-2.94-.16-.99-.3-2-.42-3.01-.24-2.02-.45-4.04-.63-6.07-.35-4.05-.63-8.12-.86-12.18l-.16-3.05-.19-3.05c-.1-2.03-.14-4.05-.09-6.07.03-1.01.09-2.01.19-2.99.1-.98.34-1.9.6-2.89.52-1.94 1.15-3.84 1.95-5.66 1.59-3.64 3.99-6.85 7.06-9.31 1.53-1.24 3.18-2.33 4.91-3.3.86-.51 1.74-.89 2.63-1.3.92-.35 1.82-.74 2.77-1.01 1.88-.62 3.82-1.07 5.79-1.45 1.96-.39 3.95-.67 5.95-.9 4-.43 8.02-.67 12.04-.5 4.03.12 8.06.47 12.02 1.22 1.98.35 3.93.88 5.83 1.51 1.9.64 3.7 1.52 5.45 2.53 3.5 1.99 6.64 4.68 8.86 8.08 2.26 3.37 3.53 7.3 4.44 11.25.23 1.1.29 2.24.33 3.37.03 1.13.02 2.27-.03 3.4-.07 1.13-.13 2.26-.23 3.39z" fill="#d17f5b" stroke-width="none" opacity="1"></path></g></g><g id="svga-group-mouth-single-move" transform="matrix(1,0,0,1,0,0)"><g id="svga-group-mouth-single"><path id="SvgjsPath21256" d="M88.53 129.83s4.06 4.15 10.11 4.69 12.45-4.15 12.45-4.15-12.81 5.96-22.56-.54z" fill="#e09879" stroke-width="none" opacity="1"></path><path id="SvgjsPath21257" d="M83.99 123.04s1.47.84 3.56 1.38c2.32.6 5.38.95 7.57 1.65 2.99.95 3.52 2.68 4.69 2.49 1.17-.18 2.37-2.32 4.63-2.77 2.26-.45 8.66 0 11.37-1.49 0 0-10.89-1.46-16.48-1.65-7.61-.26-15.34.39-15.34.39z" fill="#9d6d5f" stroke-width="none" opacity="1"></path></g></g><g id="svga-group-eyes-left-move" transform="matrix(1,0,0,1,0,0)"><g id="svga-group-eyes-left"><g id="svga-group-eyesback-left"><path id="SvgjsPath21093" d="M80.2 74.2c7.5 0 13.5 5.8 13.5 13s-6 13-13.5 13-13.5-5.8-13.5-13 6-13 13.5-13z" fill="#ffffff" stroke-width="none" opacity="1"></path></g><g id="svga-group-eyesiriswrapper-left" transform="matrix(1,0,0,1,0,0)"><g id="svga-group-eyesiriscontrol-left" transform="matrix(1,0,0,1,0,0)"><g id="svga-group-eyesiris-left"><path id="SvgjsPath21174" d="M80.2 81.9c2.9 0 5.3 2.4 5.3 5.3s-2.4 5.3-5.3 5.3-5.3-2.4-5.3-5.3 2.4-5.3 5.3-5.3z" fill="#410069" stroke-width="none" opacity="1" stroke="none"></path><path id="SvgjsPath21175" d="M80.2 82.2c2.8 0 5.1 2.3 5.1 5.1s-2.3 5.1-5.1 5.1-5.1-2.3-5.1-5.1 2.3-5.1 5.1-5.1m0-.6c-3.1 0-5.6 2.5-5.6 5.6s2.5 5.6 5.6 5.6 5.6-2.5 5.6-5.6-2.5-5.6-5.6-5.6z" fill="#2e004a" stroke-width="none" opacity="1" stroke="none"></path><path id="SvgjsPath21176" d="M77.4 88.7c0 1.3.5 2.5 1.3 3.3.5.1 1 .2 1.5.2 2.8 0 5.1-2.3 5.1-5.1 0-1-.3-2-.8-2.8-.7-.3-1.4-.5-2.2-.5-2.8.1-4.9 2.3-4.9 4.9z" fill="#4f0c78" stroke-width="none" opacity="1" stroke="none"></path><path id="SvgjsPath21177" d="M80.2 84.5c1.5 0 2.7 1.2 2.7 2.7s-1.2 2.7-2.7 2.7-2.7-1.2-2.7-2.7 1.2-2.7 2.7-2.7z" fill="#000000" stroke-width="none" opacity="1"></path><path id="SvgjsPath21178" d="M79 84.3c.8 0 1.4.6 1.4 1.4s-.6 1.4-1.4 1.4-1.4-.6-1.4-1.4.7-1.4 1.4-1.4zm2.7 4c.5 0 .9.4.9.9s-.4.9-.9.9-.9-.4-.9-.9.4-.9.9-.9z" fill="#ffffff" stroke-width="none" opacity="1"></path></g></g></g><g id="svga-group-eyesfront-left"><path id="SvgjsPath21101" d="M80.2 73.7c-7.8 0-14.1 6.1-14.1 13.6s6.3 13.6 14.1 13.6 14.1-6.1 14.1-13.6S88 73.7 80.2 73.7zm9.4 11.5c-.2.3-1.4 4.3-3.6 6.2-2.2 1.9-11.4 3.9-14 3.1-2.6-.8-2.8-6.5-3.5-8.1 0 0 22.3-3.4 21.1-1.2z" fill="#ffd0bc" stroke-width="none" opacity="1" stroke="none"></path><path id="SvgjsPath21102" d="M81.6 96.7c-5.6.5-8.5.4-8.5.4s9 2.2 14.6-2c1.2-.9 2.4-7.5 2.4-7.5s-1.3 5.2-3 7.1c-.9 1.3-3.8 1.9-5.5 2z" fill="#e09879" stroke-width="none" opacity="1" stroke="none"></path><path id="SvgjsPath21103" d="M74.4 94.7c1.3-.1 2.6-.2 3.8-.5 1.3-.2 2.5-.5 3.8-.9l1.8-.6c.6-.2 1.2-.5 1.8-.9.6-.4 1-.9 1.4-1.4.4-.5.7-1.1 1-1.7.6-1.2 1.1-2.3 1.5-3.6.1-.1.1-.2 0-.3-.1-.1-.1-.1-.2-.1h.2l2.9-2.3s-3.3-1.2-4.7-1.5c-1.3-.3-13.6 3.1-14.7 3.3s-5.2 2.5-5.2 2.5.2 0 .6-.1c.2.5.3 1.1.5 1.7.1.6.3 1.3.4 1.9s.3 1.2.6 1.9c.2.6.5 1.2.9 1.7.2.2.5.5.8.6.3.2.6.2.9.3h1.9zm-2.8-.5c-.3-.2-.5-.3-.7-.6-.8-1-1.2-2.3-1.4-3.5-.1-.6-.2-1.3-.4-1.9-.1-.6-.2-1.1-.4-1.7 3.5-.4 15.9-1.8 16.9-1.8.9-.1 2.9 0 3.7 0 .1 0 .2.1.3.2s.1.2 0 .3c-.5 1.2-.9 2.4-1.6 3.5-.3.6-.7 1.1-1.1 1.6-.4.5-.9.9-1.4 1.3-1.1.7-2.3 1.1-3.5 1.4-1.2.4-2.5.7-3.7 1-1.3.3-2.5.5-3.8.6-.6 0-1.3.1-1.9 0-.4-.2-.7-.2-1-.4z" fill="#000000" stroke-width="none" opacity="1" stroke="none"></path></g></g></g><g id="svga-group-eyes-right-move" transform="matrix(1,0,0,1,0,0)"><g id="svga-group-eyes-right"><g id="svga-group-eyesback-right"><path id="SvgjsPath21094" d="M119.8 74.2c7.5 0 13.5 5.8 13.5 13s-6 13-13.5 13-13.5-5.8-13.5-13 6-13 13.5-13z" fill="#ffffff" stroke-width="none" opacity="1"></path></g><g id="svga-group-eyesiriswrapper-right" transform="matrix(1,0,0,1,0,0)"><g id="svga-group-eyesiriscontrol-right" transform="matrix(1,0,0,1,0,0)"><g id="svga-group-eyesiris-right"><path id="SvgjsPath21179" d="M119.8 82.5c2.6 0 4.7 2.1 4.7 4.7s-2.1 4.7-4.7 4.7-4.7-2.1-4.7-4.7 2.1-4.7 4.7-4.7z" fill="#410069" stroke-width="none" opacity="1" stroke="none"></path><path id="SvgjsPath21180" d="M119.8 82.8c2.4 0 4.4 2 4.4 4.4s-2 4.4-4.4 4.4-4.4-2-4.4-4.4 1.9-4.4 4.4-4.4m0-.5c-2.7 0-4.9 2.2-4.9 4.9s2.2 4.9 4.9 4.9 4.9-2.2 4.9-4.9-2.2-4.9-4.9-4.9z" fill="#2e004a" stroke-width="none" opacity="1" stroke="none"></path><path id="SvgjsPath21181" d="M117.3 88.5c0 1.1.4 2.2 1.2 2.9.4.1.8.2 1.3.2 2.4 0 4.4-2 4.4-4.4 0-.9-.3-1.8-.7-2.4-.6-.3-1.2-.5-1.9-.5-2.4 0-4.3 1.9-4.3 4.2z" fill="#4f0c78" stroke-width="none" opacity="1" stroke="none"></path><path id="SvgjsPath21182" d="M119.8 84.8c1.3 0 2.4 1.1 2.4 2.4s-1.1 2.4-2.4 2.4-2.4-1.1-2.4-2.4 1.1-2.4 2.4-2.4z" fill="#000000" stroke-width="none" opacity="1"></path><path id="SvgjsPath21183" d="M118.8 84.7c.7 0 1.2.5 1.2 1.2s-.5 1.2-1.2 1.2-1.2-.5-1.2-1.2.5-1.2 1.2-1.2zm2.3 3.5c.4 0 .8.4.8.8s-.4.8-.8.8-.8-.4-.8-.8.4-.8.8-.8z" fill="#ffffff" stroke-width="none" opacity="1"></path></g></g></g><g id="svga-group-eyesfront-right"><path id="SvgjsPath21104" d="M119.8 73.7c-7.8 0-14.1 6.1-14.1 13.6s6.3 13.6 14.1 13.6 14.1-6.1 14.1-13.6-6.3-13.6-14.1-13.6zm9.8 18.7c-2.6.7-12.7.7-14.9-1s-3.5-5.2-3.6-5.4c-1.2-1.9 21.1 1.1 21.1 1.1-.7 1.4 0 4.7-2.6 5.3z" fill="#ffd0bc" stroke-width="none" opacity="1" stroke="none"></path><path id="SvgjsPath21107" d="M127.7 85.1c-1.1-.2-12.6-.9-14-.6s-5.5-1.1-5.5-1.1l2.9 2.2h.2s-.1 0-.1.1c-.1.1-.1.2 0 .3.2.5.5 1.1.7 1.6.3.5.5 1 .8 1.5.3.5.7 1 1 1.4l.6.6.3.3c.1.1.2.2.4.2.5.3 1.1.4 1.7.6.6.1 1.2.2 1.7.3 1.2.2 2.3.2 3.5.2h3.5c1.2-.1 2.3-.1 3.5-.3.6-.1 1.2-.2 1.7-.6.5-.4.8-.9 1-1.5.2-.6.3-1.2.4-1.7.1-.5.1-1.1.3-1.5.7.1 1.1.1 1.1.1s-3.6-1.7-5.7-2.1zm4 3.7c-.1.6-.1 1.2-.3 1.7-.2.6-.4 1.1-.9 1.4-.4.4-1 .5-1.6.6-2.3.3-4.7.3-7 .2-1.2-.1-2.3-.2-3.5-.3-1.1-.2-2.3-.3-3.3-.8-.1-.1-.2-.1-.4-.2l-.3-.3-.6-.6c-.4-.4-.8-.9-1.1-1.4-.7-1-1.1-2-1.6-3.1-.1-.1-.1-.2 0-.3.1-.1.1-.1.2-.1.8 0 2.9-.1 3.8 0 .9.1 12.7 1.2 16.9 1.6-.2.6-.3 1.1-.3 1.6z" fill="#000000" stroke-width="none" opacity="1" stroke="none"></path><path id="SvgjsPath21108" d="M114.7 93.6c-1.8-1.6-3.7-5.3-3.7-5.3s1.7 5 2.6 6.1c.9 1.1 10.5 2.5 11.5 2.4s-3.4-.8-4.6-1.1c-1.2-.3-4.7-1.1-5.8-2.1zM110 81l-.9.6 16.8 1.1L110 81z" fill="#e09879" stroke-width="none" opacity="1" stroke="none"></path></g></g></g><g id="svga-group-facehighlight-single"></g><g id="svga-group-eyebrows-left-move" transform="matrix(1,0,0,1,0,0)"><g id="svga-group-eyebrows-left-rotate" transform="matrix(1,1.7453292519943295e-9,-1.7453292519943295e-9,1,1.2391838311032188e-7,-1.3753196981269866e-7)"><g id="svga-group-eyebrows-left"><path id="SvgjsPath21015" d="M92.8 69.5s-.2 3.9-1 7.1c0 0-16.1-4.6-18-4.8-1.9-.2-8.4 4.1-8.4 4.1l6.5-9.8 3.8.3-.6-.9 8 1.9 7.5 1.2.5 2.8.4-2.8.5 2.8.8-1.9z" fill="#2a232b" stroke-width="none" opacity="1"></path><path id="SvgjsPath21016" d="m92.8 69.5-.1.1c-.1.3-.2.5-.4.8-.1.2-.2.4-.3.7l-.4-2.5-.2-.9-.2.9-.3 1.6-.3-1.6v-.2h-.2l-3.9-.7-1.9-.3c-.6-.1-1.3-.2-1.9-.3-2.6-.6-5.1-1.2-7.7-1.8l-.8-.2.5.8.3.1-3.1-.2h-.2l-.1.1c-1.1 1.7-2.1 3.3-3.2 5l-3.2 5-.4.6.6-.4c1.9-1.3 3.9-2.5 6-3.4.5-.2 1.1-.4 1.6-.6.3-.1.5-.1.8-.1l.4.1.4.1c1.1.3 2.3.6 3.4.9 2.3.7 4.5 1.3 6.8 1.9 2.3.6 4.5 1.2 6.8 1.8l.2.1v-.2c.3-1.2.4-2.4.6-3.6.1-.6.1-1.2.2-1.8 0-.3 0-.6.1-.9V69.6l.1-.1c0 .1 0 0 0 0zm-.1.4-.1.4-.1.9-.3 1.8c-.2 1.1-.4 2.2-.7 3.3-2.2-.7-4.4-1.3-6.6-2-2.3-.7-4.5-1.3-6.8-1.8-1.1-.3-2.3-.5-3.4-.8l-.4-.1-.4-.1c-.3 0-.6 0-.9.1-.6.2-1.1.4-1.6.6-1.9.9-3.7 1.9-5.5 3.1l2.9-4.2c1.1-1.6 2.2-3.2 3.2-4.7l3.6.3.7.1-.4-.7-.1-.1c2.3.6 4.6 1.1 6.9 1.6l3.9.6 3.7.5.5 2.5.2 1.2.2-1.2.3-2 .4 1.9.1.3.1-.3.3-.9c.1-.3.2-.6.3-.8v.5zm-2.9 4.7c0-.8-.1-1.7-.2-2.5-.1-.4-.1-.8-.2-1.2s-.2-.8-.4-1.2c.1.4.1.8.1 1.2 0 .4.1.8.2 1.2.1.8.3 1.7.5 2.5zm-1.2-1.7c-.2-.3-.3-.7-.5-1l-.5-1-1-1.9-.2-.5v.6c0 1.6 0 3.2.1 4.8l.3-.1c-.3-.4-.6-.9-.9-1.3l-.9-1.2c-.3-.4-.6-.8-1-1.2-.3-.4-.7-.8-1.1-1.1.3.4.7.8 1 1.2l.9 1.2c.3.4.6.8.9 1.3.3.4.6.9.8 1.3l.3.5v-.6c0-1.6-.1-3.2-.1-4.8l-.2.1 1.1 1.9.6.9c0 .3.2.6.4.9z" fill="#1b141c" stroke-width="none" opacity="1"></path></g></g></g><g id="svga-group-eyebrows-right-move" transform="matrix(1,0,0,1,0,0)"><g id="svga-group-eyebrows-right-rotate" transform="matrix(1,1.7453292519943295e-9,-1.7453292519943295e-9,1,1.2705996255135688e-7,-2.123193070246998e-7)"><g id="svga-group-eyebrows-right"><path id="SvgjsPath21017" d="M107.2 73.2s.9 3.1 2.3 5.5c0 0 14.9-6.1 16.8-6.5 1.9-.4 9 2 9 2l-8.2-6.9-3.6.8.4-.8-7.5 2.7-7.1 2v2.3l-.9-2.2v2.3l-1.2-1.2z" fill="#2a232b" stroke-width="none" opacity="1"></path><path id="SvgjsPath21018" d="m135.4 74.1-4-3.5c-1.3-1.2-2.7-2.3-4.1-3.5l-.1-.1h-.1l-3 .6.1-.2.4-.7-.8.3c-2.4.8-4.8 1.7-7.2 2.6l-1.8.6-1.8.6-3.7 1.1h-.2v1.5l-.6-1.3-.3-.7v.7l.1 2c-.1-.2-.3-.3-.4-.5-.2-.2-.3-.4-.5-.6l-.1-.1V73.2l.1.2.1.4c.1.2.2.5.2.7.2.5.3.9.5 1.4.3.9.8 1.9 1.2 2.8l.1.2.2-.1c2.1-.8 4.2-1.6 6.4-2.5 2.1-.8 4.2-1.7 6.3-2.5 1.1-.4 2.1-.8 3.2-1.2l.4-.1.4-.1c.3-.1.5-.1.8-.1.6 0 1.1.1 1.7.2 2.2.4 4.4 1.1 6.6 1.8l.6.2-.7-.4zm-8.3-2.1c-.3 0-.6 0-.9.1l-.4.1-.4.1c-1.1.3-2.2.7-3.2 1.1-2.2.8-4.3 1.6-6.4 2.4-2.1.8-4.1 1.7-6.1 2.6-.5-.8-.9-1.7-1.2-2.5-.2-.4-.4-.9-.6-1.4l-.3-.7-.1-.3-.1-.2v-.1c.2.2.3.4.4.6.2.2.3.4.5.7l.2.2V72.8l.6 1.5.4.9v-3.1l3.6-1c1.2-.3 2.5-.7 3.7-1 2.2-.8 4.3-1.5 6.5-2.3v.1l-.3.6.7-.2 3.5-.8c1.3 1.1 2.7 2.2 4 3.3l3.6 2.9c-2-.6-3.9-1.2-6-1.6-.6.1-1.1 0-1.7-.1zm-16 4.7c-.2-.7-.2-1.3-.2-2v-1c0-.3 0-.7.2-1 0 .3.1.7.1 1s.1.7.1 1c-.1.7-.1 1.4-.2 2zm.9-1.5c.1-.3.2-.6.3-.8l.3-.8.6-1.7.2-.4.1.4c.3 1.3.5 2.6.8 3.8h-.3l.6-1.2c.2-.4.4-.8.7-1.1.2-.4.5-.7.7-1.1s.5-.7.8-1c-.3.3-.5.7-.7 1.1-.2.4-.4.7-.7 1.1l-.6 1.2-.6 1.2-.2.4-.1-.4c-.3-1.3-.5-2.6-.8-3.8h.3l-.7 1.6-.4.8c0 .2-.1.4-.3.7z" fill="#1b141c" stroke-width="none" opacity="1"></path></g></g></g><g id="svga-group-beardwrap"><g id="svga-group-beard-single-move" transform="matrix(1,0,0,1,0,0)"><g id="svga-group-beard-single"><path id="SvgjsPath21005" d="M95.1 158s-6.6-5.4-8.3-11.6c-1.1-3.8 2.2-5.4 5.4-5.7 3.2-.3 10.7.4 10.7.4l-.1 2.4 1-2.5s5.1.4 7.6 1.5 1.7 4.4.4 7.1c-1.2 2.6-7.3 8.6-7.3 8.6v-1.1l-1 1.4-6.9-.3-2.5-2.2 1 2z" fill="#2a232b" stroke-width="none" opacity="1"></path><path id="SvgjsPath21006" d="M113.3 144.2c-.2-.6-.6-1.2-1.1-1.5-.5-.4-1.1-.6-1.6-.7-2.2-.6-4.5-.9-6.7-1.1h-.1l-.1.1-.7 1.7.1-1.6v-.1h-.1c-2.9-.2-5.7-.4-8.6-.5-1.4 0-2.9 0-4.3.4s-2.9 1.2-3.5 2.7c-.3.7-.3 1.6-.2 2.3.2.8.4 1.4.7 2.1.6 1.4 1.3 2.6 2.1 3.8 1.7 2.4 3.7 4.4 6 6.2l-.6-1.7 2.1 2 .1.1h.1c2.3.2 4.6.3 6.9.5h.2l.1-.1.4-.5v1l.6-.6c1.6-1.6 3.2-3.2 4.7-4.9.7-.9 1.5-1.7 2.1-2.7.7-1 1.1-2.1 1.4-3.2.1-1.3.3-2.5 0-3.7zm-.9 3.3c-.3 1-.8 2.1-1.4 2.9-.6.9-1.3 1.8-2.1 2.6-1.3 1.5-2.6 2.9-4 4.3v-1.2l-.6.8-.9 1.2c-2.2-.1-4.4-.1-6.7-.2l-2.5-2.1-.4-.3.2.4c.3.6.6 1.3.9 2-2-1.9-4-4.1-5.5-6.5-.8-1.2-1.5-2.4-2-3.7-.2-.6-.5-1.3-.6-2-.1-.7-.1-1.3.2-1.9.5-1.2 1.7-2 3-2.4 1.3-.4 2.8-.5 4.2-.6 2.8-.1 5.7.1 8.5.3l-.1 2.3v.8l.3-.7 1-2.3c2.2.3 4.4.6 6.4 1.3.5.2 1 .4 1.4.7.4.3.7.7.8 1.2.4 1 .2 2.1-.1 3.1zm-18.8 1.2-.4-1-.1 1c0 .3-.1.6-.1.9-.5-1-1-2-1.4-3.1-.5-1.3-.9-2.6-1.2-4 .1 1.4.5 2.8.9 4.1.4 1.4 1 2.6 1.7 3.9l.4.7.1-.8c0-.2.1-.5.1-.7.5 1.1 1 2.2 1.6 3.3.7 1.4 1.6 2.7 2.6 3.8-.8-1.3-1.6-2.6-2.2-4-.9-1.3-1.5-2.7-2-4.1zm15.1-.1-.5.1-.7.2c.2-1.1.5-2.2.7-3.3l-1.2 3.6-.1.4.4-.1.5-.1-1.2 2.1-1.4 2.6c.7-.8 1.2-1.6 1.8-2.4.5-.8 1.1-1.7 1.6-2.6l.1-.5zm-14.2-6.1c.2 2.4.7 4.7 1.3 7 .3 1.1.6 2.3 1.1 3.4.4 1.1.9 2.2 1.5 3.2-.8-2.2-1.4-4.5-2-6.8-.7-2.2-1.3-4.5-1.9-6.8zm-5.4 4.4c.8 1.8 1.8 3.5 3 5.1.6.8 1.2 1.6 1.8 2.3.7.7 1.3 1.5 2.1 2.1-1.3-1.5-2.4-3.1-3.6-4.7-1-1.6-2.1-3.2-3.3-4.8zm18 6.9c.5-.6 1-1.3 1.4-1.9l1.2-2.1c.8-1.4 1.5-2.8 2-4.4-.9 1.3-1.7 2.7-2.4 4.1-.8 1.5-1.5 2.9-2.2 4.3zm-3.6-3.9-1.5 6.6c.4-1 .8-2.1 1.1-3.2.3-1.1.6-2.2.8-3.3.2-1.1.4-2.2.6-3.4.2-1.1.3-2.2.3-3.4-.2 1.1-.4 2.2-.7 3.3l-.6 3.4zm-4.7-1.3c0 1.4.1 2.7.3 4 .1.7.2 1.3.4 2s.3 1.3.6 1.9c-.1-1.4-.2-2.7-.4-4-.3-1.3-.5-2.6-.9-3.9z" fill="#1b141c" stroke-width="none" opacity="1"></path></g></g></g><g id="svga-group-mustache-single-move" transform="matrix(1,0,0,1,0,1)"><g id="svga-group-mustache-single"><path id="SvgjsPath21271" d="M98.2 116.3c.9 0 1 2.9.2 3.4s-19.8-1.6-19.5-2.6c.3-1.1 10.8-1.3 12.3-1.4 1.4-.1 7 .6 7 .6zm3.5.1c-.8.5-.6 3.4 0 3.4.7 0 18.1-1.5 19.5-1.8s-10.4-1.8-12.2-1.8-6.7-.2-7.3.2z" fill="#2a232b" stroke-width="none" opacity="1"></path><path id="SvgjsPath21272" d="M98.7 116.7c-.1-.2-.3-.4-.5-.4-1.8-.2-3.6-.6-5.4-.9-.4-.1-.9-.1-1.4-.2H90c-.9 0-1.8 0-2.7.1-1.8.1-3.6.2-5.4.5-.9.1-1.8.3-2.7.6-.1.1-.2.1-.4.2-.1 0-.1.1-.2.2s-.2.2-.1.5c.2.3.3.3.4.4.1.1.2.1.3.1.5.1.9.2 1.4.3l5.4.8c1.8.3 3.6.7 5.4.9 1.8.2 3.6.3 5.4.3.5 0 .9 0 1.4-.1.3-.1.5-.3.6-.5.1-.2.2-.5.2-.7.1-.5.1-.9 0-1.4-.1-.3-.2-.5-.3-.7zm.1 2c-.1.4-.3.9-.6.9-.4 0-.9 0-1.3-.1-1-.1-2-.2-3.1-.4l.1-.1c1-.6 2-1.1 3-1.7v1.5l.2-1.7v-.1l-.1.1c-.9.4-1.9.9-2.8 1.4l.6-1.4.2-.4-.4.2-3.2 1.1.3-1 .1-.5-.4.2-2.5.9v-1l-.3.1-2.5.7c0-.1.1-.2.1-.3v-.2s0-.1-.1-.1h-.4c-.4.1-.7.1-1.1.2-.7.1-1.4.2-2.2.4l2.2-.2 1.1-.1h.2c0 .2-.1.3-.2.5l-.1.3.3-.1 2.5-.6v1.1l.3-.1 2.4-.9-.3 1-.1.4.4-.2 3.2-1.2-.5 1.4-.1.3c-.7-.1-1.4-.2-2.1-.2-1.8-.1-3.6-.2-5.4-.4-1.8-.2-3.6-.5-5.3-1-.4-.1-.9-.2-1.3-.4-.1 0-.1 0-.1-.1h.1c.8-.2 1.7-.3 2.6-.4 1.8-.2 3.6-.2 5.4-.3l2.7-.2c.9-.1 1.8-.1 2.7-.1 1.8 0 3.6 0 5.4.2.2 0 .3.2.4.4.1.2.2.4.2.6-.1.7-.1 1.2-.2 1.6zm22.8-.8c0-.1-.1-.1-.1-.2-.2-.2-.2-.1-.3-.2-.2-.1-.5-.2-.7-.2l-2.7-.6c-1.8-.3-3.6-.6-5.4-.8-.9-.1-1.8-.2-2.7-.2-.9-.1-1.8 0-2.7.1l-2.7.2-1.3.1c-.4.1-.9 0-1.3.2-.4.3-.5.8-.6 1.2-.1.4-.1.9 0 1.4 0 .2.1.5.2.7.1.1.1.3.3.3H103.4c1.8 0 3.6-.1 5.4-.3 1.8-.2 3.6-.5 5.4-.7 1.8-.2 3.6-.3 5.4-.4l1.4-.1h.4c.1 0 .1 0 .2-.1h.1c.1 0 .1-.1.1-.1-.2-.1-.1-.2-.2-.3zm-2.2.1c-1.8.3-3.6.5-5.4.6-1.8.1-3.6.1-5.4.2-1.2.1-2.5.2-3.7.3v-.2l.2-1.6 1.5 1.2.3.2.1-.4.1-1c.6.4 1.1.8 1.7 1.1l.3.2.1-.3.2-.9 1.8.9.2.1.1-.2.2-.6 1.5.8.1.1.1-.1.4-.5 1 .3h.1l.1-.1.2-.3 2.3.2-2.3-.4h-.1v.1l-.2.3-1-.4h-.1l-.1.1-.4.5-1.5-.9-.2-.1-.1.2-.2.6-1.8-1-.3-.2-.1.3-.2.9c-.6-.4-1.2-.8-1.7-1.1l-.3-.2-.1.4-.1 1-1.5-1.1-.3-.2v.4l-.1 1.7-2.1-1.5-.1-.1v.1l-.1 1.4.2-1.3 2.1 1.8.1.1c-.5.1-1 .1-1.5.2l-1.3.2h-.3s-.1 0-.1-.1c-.1-.2-.2-.4-.2-.6-.1-.4-.1-.9-.1-1.3s.1-.9.5-1.2c.8-.2 1.8-.2 2.7-.1.9.1 1.8.1 2.7.2.9.1 1.8.1 2.7.2l2.7.3 5.3.7c.6.1 1.2.2 1.9.3l-.5-.2z" fill="#1b141c" stroke-width="none" opacity="1"></path></g></g><g id="svga-group-nose-single-move" transform="matrix(1,0,0,1,0,0)"><g id="svga-group-nose-single"><path id="SvgjsPath21235" d="M96.8 88.78c-.28 1.49-.54 2.98-.59 4.45 0 .36.01.73.07 1.07.02.18.08.32.12.48l.21.53c.27.71.52 1.43.75 2.16.22.73.41 1.48.53 2.25.05.39.09.78.07 1.19-.01.41-.13.85-.31 1.21-.36.72-.85 1.32-1.36 1.89-.52.56-1.07 1.09-1.66 1.56.47-.59.94-1.18 1.37-1.8.43-.61.84-1.24 1.11-1.89.13-.33.19-.63.18-.98 0-.35-.05-.71-.12-1.06a16.4 16.4 0 0 0-.55-2.14c-.21-.71-.45-1.42-.7-2.13l-.18-.54c-.05-.2-.12-.42-.13-.62-.06-.41-.03-.8 0-1.19.07-.78.24-1.53.43-2.26.22-.75.46-1.48.76-2.18z" fill="#d17f5b" stroke-width="none" opacity="1"></path><path id="SvgjsPath21236" d="M103.7 88.62c.49.61.9 1.27 1.26 1.96.09.17.18.35.26.53.04.1.08.17.12.28.03.11.08.23.09.33.08.43.07.83.05 1.23-.06.79-.22 1.55-.42 2.3-.19.75-.45 1.47-.71 2.2-.06-.79.05-1.56.12-2.31.09-.76.18-1.51.24-2.24.03-.36.04-.73 0-1.06-.02-.28-.19-.67-.3-1.02-.24-.72-.49-1.44-.71-2.2z" fill="#d17f5b" stroke-width="none" opacity="1"></path><path id="SvgjsPath21237" d="M109.24 107.49s1.28.96 1.53 1.77c.24.8-.32 2.57-1.12 2.65s-3.77-.64-4.17-.24c-.4.4-.8 4.42-2.01 4.9s-6.02.56-6.58-.32c-.56-.88-1.12-4.01-1.85-4.17-.72-.16-3.77.08-4.5 0-.72-.08-1.2-1.77-.32-3.45.88-1.69 4.74-3.53 7.39-3.69 2.65-.16 7.41.62 7.41.62s3.08 1.11 4.22 1.93z" fill="#f7c1aa" stroke-width="none" opacity="1"></path><path id="SvgjsPath21238" d="M109.24 107.49c.42.32.81.68 1.15 1.09.16.21.32.43.39.69.07.26.06.53.03.79-.08.52-.24 1.05-.56 1.48-.16.21-.4.4-.68.4-.27.01-.53-.02-.8-.05-.53-.06-1.05-.14-1.58-.19-.26-.03-.52-.05-.79-.07-.26-.01-.53-.02-.76.04-.06.02-.09.04-.12.07-.03.03-.05.09-.07.15-.04.12-.08.24-.11.37-.07.25-.12.51-.18.77-.11.52-.23 1.04-.37 1.55-.15.51-.31 1.03-.59 1.52-.15.24-.32.49-.64.64-.28.12-.55.17-.81.23-1.07.19-2.14.24-3.22.22-.54-.02-1.08-.05-1.63-.15-.27-.05-.55-.12-.84-.25-.14-.07-.3-.15-.44-.33-.11-.16-.16-.28-.23-.41-.44-1.02-.68-2.05-1.07-2.99-.1-.22-.21-.46-.33-.58-.03-.03-.05-.05-.06-.05-.01-.01 0 .01.01 0l-.07-.01c-.1-.01-.23-.02-.35-.03-.5-.02-1.03 0-1.56.01l-1.59.04c-.27 0-.53.01-.83-.01a.983.983 0 0 1-.31-.07c-.1-.04-.18-.11-.26-.17-.14-.13-.24-.27-.32-.42-.29-.59-.3-1.19-.24-1.76.08-.57.26-1.12.55-1.62.31-.52.73-.9 1.17-1.23.44-.33.9-.62 1.38-.87.95-.51 1.96-.9 3-1.18.52-.14 1.05-.24 1.58-.3.54-.06 1.08-.05 1.61-.03 1.06.04 2.12.15 3.17.29 1.05.13 2.1.28 3.14.46.72.28 1.45.57 2.16.89.36.16.71.32 1.05.5.36.16.71.34 1.02.57zm0 0c-.32-.22-.66-.4-1.01-.58-.35-.17-.7-.34-1.06-.49-.71-.31-1.43-.6-2.17-.86-2.09-.3-4.2-.52-6.31-.53-.52.01-1.05.02-1.56.1s-1.02.2-1.52.36c-.99.31-1.96.73-2.85 1.26-.45.26-.88.55-1.27.88-.39.32-.75.69-.97 1.09-.23.42-.38.9-.43 1.38-.05.47 0 .98.2 1.34.05.09.1.16.16.21.03.02.05.04.07.05.01.01.02.01.03.01h.05c.22.02.49.01.75 0l1.58-.05c.53-.02 1.06-.04 1.61-.01.14.01.28.01.44.04l.12.02c.07.02.14.05.19.08.11.06.18.14.24.2.23.28.34.53.45.79.21.52.37 1.03.53 1.53.16.5.3 1.01.49 1.47.04.1.11.23.14.29.02.03.1.09.19.13.19.09.43.16.68.21.49.1 1.01.16 1.53.19 1.04.06 2.09.05 3.12-.09.25-.04.51-.08.72-.16.18-.07.34-.25.47-.46.27-.42.45-.91.61-1.41.16-.5.3-1.01.43-1.52l.21-.77c.04-.13.08-.26.14-.39.03-.07.06-.13.12-.2a.46.46 0 0 1 .22-.13c.29-.07.56-.04.82-.02.27.02.53.06.79.1l1.57.24c.26.03.52.07.78.07.26.01.48-.17.64-.37.32-.41.5-.93.58-1.45.03-.26.04-.53-.02-.78-.07-.25-.22-.48-.38-.69-.31-.39-.7-.75-1.12-1.08z" fill="#d17f5b" stroke-width="none" opacity="1"></path></g></g><g id="svga-group-hair-front"><path id="SvgjsPath21284" d="M62.3 84.7s1.5-2.7 1.7-7.3 0-10.9.2-14.2c.2-3.3 1-8.2 1.5-10 .4-1.8.6-3.5 1.8-5.3 1.2-1.8 2.4-3.6 5.2-4.3 2.8-.7 7.6-3 8.7-4.3 0 0 3-.6 3.7-1 0 0 5.3 2.6 7.2 2.8 1.9.2 8.2.5 12.3-.7s10.1-2.6 12.4-2.2 12.2-1.1 16.6 12.7c0 0 1.1 4.3 1.2 10.4.1 6.1.3 10.1.8 11.9.4 1.8 1.2 5.6 1.2 7.3s.6 2.5.6 2.5 1.7-3.8 2.2-5.8 1.9-11.6 2.1-13.1c.2-1.5.6-6.4.9-8.5.3-2 0-9.5 0-9.5s.1-4.7-.6-6.1c-.7-1.3-1.4-3.5-2.9-4.8 0 0 .1-1.6-.1-2.7s-2.1-5.3-8.2-10.6-13.3-9.4-21.6-9.4c0 0 2.9-.4 4.8-.6 0 0-5.5-.7-8.1-.3l4.3-.6s-7.2-1.4-12.3.1c0 0 .7-1.2 4.2-2.5 0 0-7.8-2.1-15.4 3.1 0 0-5.9-.3-11.7 6.8 0 0-3.7 1.1-4.7 1.8s-6.2 3.1-6.9 11.4c0 0-5 .6-5.5 11l.5 8.7s-1.8 3.6-1.8 7.3 1 6 1.1 7.8c.1 1.8.7 5.2.7 5.2s1.8 4.2 2.1 5.9c.2 1.9 1.8 7.1 1.8 7.1z" fill="#2a232b" stroke-width="none" opacity="1"></path><path id="SvgjsPath21285" d="M143 46.5c.1-1 .1-2 0-3s-.3-2-.6-3-.7-1.9-1.1-2.8c-.4-.8-1-1.6-1.6-2.4.2-1.8-.4-3.5-1.2-5-.8-1.5-1.9-2.9-3.1-4.2-2.3-2.6-5-4.8-7.7-6.9-2.8-2-5.8-3.8-9.1-4.9-1.6-.6-3.3-1-5-1.2-1.7-.2-3.4-.3-5.1-.1 3.4-.3 6.8.5 10 1.7s6.1 3 8.8 5.1c1.4 1 2.6 2.1 3.9 3.3 1.3 1.1 2.5 2.3 3.6 3.6 1.1 1.3 2.1 2.6 2.9 4.1.8 1.4 1.3 3.1 1.1 4.6v.2l.2.2c.6.7 1.1 1.5 1.6 2.3.4.8.8 1.7 1.1 2.6s.5 1.8.5 2.8c.1 1 .1 1.9 0 2.9.2 3.1.2 6.2.1 9.3-.1 3.1-.7 6.1-1.1 9.2-.4 3.1-.8 6.2-1.3 9.2-.2 1.5-.5 3.1-.9 4.5-.5 1.4-1.1 2.9-1.5 4.4.5-1.5 1.1-2.9 1.7-4.3.5-1.5.8-3 1.1-4.6.6-3.1 1.1-6.1 1.5-9.2l.7-4.6c.3-1.5.4-3.1.5-4.7.2-2.9.2-6 0-9.1zm-7.5 1.3c.1-.8.4-1.6.6-2.4.2-.8.5-1.6.8-2.4l.8-2.4.4-1.2.2-.6.1-.3.1-.2v-.1.1-.1c-.1 0 0 0-.1.1l-.1.1-.2.3-.3.5-.6 1.1c-.4.8-.8 1.5-1.1 2.3-.7 1.6-1.3 3.2-1.6 4.9-.2 1.2-.2 2.4-.2 3.6-.1-.5-.3-1-.4-1.5-.5-1.8-1.2-3.6-2-5.3s-1.7-3.4-3-4.9c-2.4-3-5.9-4.9-9.4-6.3-3.5-1.2-6.3-3.8-8.2-6.9-.9-1.5-1.7-3.3-1.8-5.1-.1-.9.1-1.8.4-2.6.4-.8.9-1.5 1.7-2 1.4-1.1 3.3-1.6 5.1-1.5 1.8.1 3.7.7 5.3 1.6-1.6-1-3.4-1.6-5.3-1.8-1.9-.2-3.9.2-5.4 1.4-.8.5-1.5 1.3-1.9 2.2-.4.9-.6 1.9-.5 2.9.1 2 .8 3.8 1.8 5.4 1.9 3.3 5 6 8.5 7.3 3.4 1.4 6.7 3.3 8.9 6.1 1.8 2.2 3 4.8 4 7.5-1.3-3.2-3.6-6.2-6.7-8-1.8-1.1-3.9-1.7-6-1.8h-.4c-3.2-1-6.6-1.6-10-1.7h-2.5l-.8-.1c-.5 0-1.1-.2-1.6-.3-.5-.2-1-.3-1.5-.6-2-.9-3.7-2.3-4.8-4.1-1.2-1.8-2-3.9-2.3-6-.3-2.2-.2-4.4.5-6.4s2.3-3.7 4.1-4.9c1.9-1.1 4.1-1.8 6.3-2.1-2.2.1-4.5.6-6.5 1.7s-3.7 2.8-4.6 5c-.2.5-.4 1.1-.5 1.7-.1.6-.2 1.1-.2 1.7 0 .6-.1 1.1-.1 1.7 0 .6.1 1.1.1 1.7.3 2.3 1.1 4.5 2.3 6.5 1.3 1.9 3.2 3.5 5.3 4.4 2.1 1 4.6 1.1 6.8.9 2.2-.1 4.4.1 6.6.5.6.1 1.3.2 1.9.3-1.5 0-3 0-4.4.2-4.2.5-8.2 2-12.2 2.6-2 .3-4.1.4-6.1.2-2.1-.1-4.1-.6-5.9-1.4-1.8-.8-3.5-2-4.8-3.6-1.3-1.5-2.2-3.4-2.8-5.3s-.8-4-.7-6c.1-2 .3-4.1 1.1-6 1.6-3.7 4.9-6.6 8.6-8.2 3.4-1.5 7.3-2 10.9-1.4-.5.2-1 .3-1.5.6-.4.2-.8.4-1.2.7-.4.3-.7.6-.9 1.1l-.1.4.4-.1c1-.4 2.1-.6 3.1-.7 1.1-.1 2.1-.2 3.2-.2s2.2.1 3.2.1c1.1.1 2.2.2 3.2.4-1.1-.2-2.1-.4-3.2-.5s-2.2-.2-3.2-.2c-1.1 0-2.2 0-3.3.1-.9.1-1.8.2-2.7.5.2-.2.3-.4.5-.5.3-.2.7-.4 1.1-.6.8-.3 1.6-.6 2.5-.8l1.1-.2-1.1-.3c-4-1-8.5-.6-12.4 1-1.3.5-2.6 1.2-3.7 2.1-1.5.2-2.9.6-4.3 1.2-1.7.7-3.3 1.7-4.7 2.8-.4.3-.7.6-1.1.9-.3.3-.6.7-.9 1-.3.4-.5.8-.8 1.1-3.1.6-6.1 2.2-8.3 4.6-1.3 1.5-2.1 3.3-2.7 5.2-.3 1.2-.5 2.4-.5 3.6-1.5.5-2.8 1.6-3.6 3-.9 1.5-1.3 3.3-1.5 5-.4 3.3-.4 6.7 0 10.1v.2c-.9 2.7-1.6 5.5-1.8 8.4V61c.1.7.2 1.5.4 2.2.3 1.4.5 2.8.7 4.2.2 1.4.4 2.8.8 4.2.2.7.4 1.4.7 2.1.3.6.5 1.3.8 2 .9 2.7 1.7 5.4 2.4 8.2-.5-2.8-1-5.6-1.9-8.4-.2-.7-.4-1.4-.7-2.1-.3-.7-.5-1.3-.6-2-.3-1.4-.4-2.8-.6-4.2-.2-1.4-.4-2.8-.7-4.2-.2-.7-.3-1.4-.3-2v-2c.1-2.2.6-4.4 1.2-6.5.7 2.9 2.2 8.2 5.7 12.4 0 1.1.1 2.2 0 3.4 0 1.9-.1 3.8-.1 5.6 0 1.9-.1 3.8-.3 5.6-.1.9-.1 1.9-.3 2.8-.2.9-.2 1.9-.7 2.7.5-.8.7-1.8.9-2.7s.4-1.9.5-2.8c.2-1.9.4-3.8.6-5.6.2-1.9.2-3.8.3-5.7.1-1.9 0-3.8 0-5.6.1-3.7.6-7.5 1.5-11.1.4-1.8 1-3.6 2.2-5 1.2-1.4 2.8-2.4 4.6-3-1.8.4-3.6 1.4-5 2.7-.7.7-1.2 1.5-1.6 2.4-.4.9-.7 1.8-1 2.7-.6 1.8-.9 3.7-1.2 5.6-.3 1.9-.5 3.8-.6 5.7v.6c-4.1-5.7-5.1-13-5.1-13.1h-.1c-.2-1.6-.3-3.2-.4-4.8-.1-1.7 0-3.4.1-5.2.1-1.7.4-3.4 1.2-4.9.7-1.3 1.8-2.5 3.3-3.1 0 .7 0 1.5.1 2.2.3 1.9 1 3.9 2.4 5.3 1.4 1.5 3.4 2.2 5.3 2.4 3.9.6 7.9-.6 10.8-3-1.6 1-3.3 1.8-5.2 2.2-1.8.4-3.7.4-5.5.1-1.8-.4-3.6-1-4.8-2.3-1.2-1.3-1.9-3.1-2.1-4.9-.5-3.6.5-7.5 2.7-10.4 1.2-1.4 2.7-2.6 4.3-3.5 1-.6 2.2-1 3.3-1.4-.2.4-.3.7-.5 1.1-.7 1.7-1.1 3.6-1.2 5.4-.1 1.9 0 3.7.4 5.5.4 1.8 1 3.6 2.2 5.1.6.7 1.4 1.4 2.2 1.8.8.4 1.7.7 2.6.9 1.8.3 3.6.2 5.2-.6 1 .8 2.2 1.5 3.4 2.1 2 .8 4.1 1.3 6.2 1.4 2.1.2 4.2.1 6.3-.2 4.2-.7 8.1-2.2 12.2-2.8 2.6-.3 5.3-.5 7.8-.1l1.2.3c-.2-.1-.4-.1-.6-.2 1.3.3 2.5.7 3.6 1.3 3.5 1.9 6.1 5.4 7.5 9.2.1.2.2.5.2.7.5 1.8.9 3.6 1.1 5.4 0 .2 0 .3.1.5 0 .6-.1 1.3-.2 1.9.1-.3.2-.5.3-.8.1 1.3 0 2.6 0 3.9 0 3.7.4 7.5.9 11.2.3 1.8.7 3.7 1.1 5.5.4 1.8.2 3.7.1 5.5.1-.9.3-1.8.4-2.8.1-.9 0-1.9-.1-2.8-.1-.9-.3-1.8-.5-2.8s-.3-1.8-.4-2.8c-.4-3.7-.7-7.4-.6-11.1.1-1.8.1-3.8-.1-5.6 0-.3-.1-.7-.1-1 .1-.5.1-1 .2-1.5.3-1.3.3-3 .6-4.6zM80 38.4c-1.7-.5-3.4-1.3-4.3-2.6-1-1.4-1.5-3.1-1.9-4.9-.3-1.7-.4-3.5-.3-5.3.2-2.4.8-4.8 2-6.9.2 0 .5-.1.8-.1-.2 0-.5 0-.7.1.6-.9 1.2-1.7 2.1-2.4 1.3-1.2 2.8-2.2 4.4-3 1.2-.6 2.6-1.1 3.9-1.5-2.2 1.6-4 3.8-5.2 6.4-.9 2-1.1 4.2-1.2 6.3-.1 2.1.2 4.3.7 6.3s1.6 4 3 5.7c.5.6 1.1 1.2 1.8 1.7-1.7.6-3.5.6-5.1.2z" fill="#1b141c" stroke-width="none" opacity="1"></path></g><g id="svga-group-glasses-single-move" transform="matrix(1,0,0,1,0,0)"><g id="svga-group-glasses-single"></g></g></g></g></g><rect id="svga-credit-rect" width="200" height="15" x="0" y="185" fill="#ecf0f1" opacity="0.5" style="display: none;"></rect><text id="svga-credit-text" font-family="Avenir Next, Roboto, Helvetica, Arial, sans-serif" font-size="10px" text-anchor="start" font-weight="400" size="10px" anchor="start" weight="400" fill="#333333" x="33.40447998046875" y="182.60824704170227" style="display: none;"><tspan id="SvgjsTspan21004" dy="13" x="33.40447998046875">Created on AvatarMaker.com</tspan></text></g><defs id="SvgjsDefs20951"></defs></svg>