<svg xmlns="http://www.w3.org/2000/svg" version="1.1" width="600px" height="600px" viewBox="0 0 200 200" style="overflow:hidden!important;"><g id="svga-group-wrapper"><g id="svga-group-backs-single"></g><g id="svga-group-humanwrap-move" transform="matrix(1,0,0,1,0,0)"><g id="svga-group-humanwrap"><g id="svga-group-hair-back-move" transform="matrix(1,2.856368900253737e-18,-2.856368900253737e-18,1,0,0)"><g id="svga-group-hair-back"></g></g><g id="svga-group-humanbody-back"><path id="SvgjsPath31797" d="M180.8 184.9c-2.3-3.4-38.9-17.8-38.9-17.8l-13.4-5.2-5.6-68.8H76.8L71.3 162l-13.4 5.2S21.4 181.6 19 185c-2.3 3.4-3.3 14.9-3.3 14.9V219h168.5v-19.2c-.1.1-1-11.5-3.4-14.9z" fill="#ffd0bc" stroke-width="none" opacity="1"></path></g><g id="svga-group-chinshadow-single"><path id="SvgjsPath31793" d="M74.72 148.31c2.3 3.7 4.08 7.78 6.37 12.59 1.85 3.82 9.93 3.51 12.23.91 2.4-2.6 2.74-2.22 5.04.38 2.4 2.6 10.28 2.62 12.66-1.12 1.42-2.24 3.83-9.05 6.13-12.75 1.25-1.92 5.5-5.97 9.47-10.04l-3.68-45.18H76.82l-4.19 52.64c.94 1.04 1.68 1.93 2.09 2.57z" fill="#e09879" stroke-width="none" opacity="1"></path></g><g id="svga-group-humanbody-front"><path id="SvgjsPath31798" d="M184.5 219c-.1-6.4-.1-12.8-.1-19.2l-.3-.1s.1-.1.2 0c.1 0 .1.1.1.1v-.4l-.1-.5-.1-.9-.2-1.9c-.2-1.3-.4-2.5-.6-3.8-.2-1.3-.5-2.5-.9-3.8-.4-1.2-.8-2.5-1.5-3.6-.8-.9-1.9-1.5-2.9-2.1-1-.6-2.1-1.1-3.2-1.7-2.1-1.1-4.3-2.1-6.5-3.1-4.4-2-8.7-3.9-13.1-5.7-4.4-1.9-8.8-3.7-13.2-5.5l-13-5.2-1.2-16.9c-.4-5.7-.9-11.5-1.3-17.2l-1.3-17.2-1.5-17.3-.1-.8h-.8c-7.7 0-15.4.1-23.1.1l-23.1.2h-.5v.5L75 110.2l-1.3 17.2c-.8 11.4-1.8 22.8-2.8 34.2-5.6 2.1-11.2 4.2-16.7 6.4-5.6 2.2-11.2 4.5-16.8 6.9-2.8 1.2-5.6 2.4-8.3 3.6-2.8 1.3-5.5 2.5-8.2 4.1-.7.4-1.3.8-2 1.4-.2.1-.4.4-.5.6l-.3.6c-.2.4-.4.7-.5 1.1-.6 1.5-1 3-1.3 4.5-.6 3-1.1 6-1.4 9.1l-.1 19.1v.9h.9l42.1.1H100c14 0 28.1-.1 42.1-.2l42.1-.5h.3v-.3zm-84.5-1-42.1-.1-41.2.1-.1-18.1c.3-3 .6-5.9 1.2-8.9.3-1.4.6-2.9 1.1-4.2.1-.3.3-.7.4-.9l.2-.4.3-.3c.5-.4 1.1-.8 1.8-1.2 2.5-1.5 5.3-2.8 8-4.1 2.7-1.3 5.5-2.5 8.2-3.7 5.5-2.4 11.1-4.8 16.7-7.1s11.2-4.5 16.9-6.7l.2-.1v-.2c.9-11.5 1.7-23 2.7-34.4l1.4-17.2 1.5-16.7 22.6.2c7.4.1 14.8.1 22.3.1l1.3 16.4 1.5 17.2c.5 5.7 1 11.5 1.5 17.2l1.6 17.2v.3l.3.1 13.4 5c4.4 1.7 8.9 3.4 13.3 5.2 4.4 1.8 8.8 3.7 13.2 5.6 2.2 1 4.3 2 6.5 3 1.1.5 2.1 1.1 3.2 1.6 1 .6 2.1 1.2 2.9 2 .7 1.1 1.1 2.3 1.4 3.5.3 1.2.6 2.5.8 3.7.2 1.3.4 2.5.6 3.8l.2 1.9.1.9.1.5v.4c0 6.3 0 12.6-.1 18.9l-41.8-.5c-14 .1-28.1 0-42.1 0z" fill="#d17f5b" stroke-width="none" opacity="1"></path><path id="SvgjsPath31799" d="M125.1 142.4s-1.8 23-9.1 32.9c0 0 7.9-25 9.1-32.9zm-34.5 16s5 7.9 11.5 10.1c0 0-9.5 2.2-11.5-10.1zM73.4 140c6.7 25.6 6.7 25.6 8.5 30.7 0 0 .4-12.6-8.5-30.7z" fill="#e09879" stroke-width="none" opacity="1"></path></g><g id="svga-group-clothes-single"><path id="SvgjsPath31670" d="M10.9 220c0-15.2 1.2-32.2 2.3-34.1 1-1.9 5-3.3 5-3.3s3.5-2.9 7.1-4.8c3.5-1.9 15.7-3.9 15.7-3.9s0-1 .4-1.9 1.9-1.2 5-5.2 2.1-4.8 2.7-6.7c.6-1.9 4.4-1.5 4.4-1.5s.4-6 4.8-10c4.4-3.9 13.6-6.6 13.6-6.6s-.1 6.9-.1 11.3-1.3 4.6 5.1 12.6c6.5 7.9 12.4 15.1 15.4 17 3.1 1.9 7.2 4 9.1 9.5 0 0 1.7-4.4 3.7-5.9s6.2-6 7.9-7.7c1.7-1.7 5.3-8.1 7.5-9.5 2.2-1.5 7.4-6.5 8.3-7.9s-.9-21.7-.9-21.7 6.9 3.7 9.4 5.4c2.5 1.7 4.9 9.5 4.9 9.5s2.4 2.1 5.1 4.1 4.7 2.9 6.2 5.7c1.5 2.8.8 5.3 1.4 6.5.6 1.1 1.2 2 1.6 2.6 0 0 17.1 5.1 20 6.4s5.7 4 5.7 4 3.1 1.9 3.9 9.8 1.8 26.4 1.8 26.4l-177-.1z" fill="#34530e" stroke-width="none" opacity="1"></path><path id="SvgjsPath31671" d="m188.6 219.9-1.2-18.6c-.2-3.1-.4-6.2-.9-9.3-.2-1.6-.6-3.2-1.2-4.7-.3-.8-.7-1.5-1.1-2.2-.2-.4-.5-.7-.8-1-.3-.3-.5-.6-.9-.9-1.5-1.4-3.1-2.6-4.9-3.6-.9-.5-1.9-.9-2.8-1.2l-2.8-1.1-15.3-4.3c-.5-.8-1.1-1.6-1.4-2.4-.1-.3-.2-.8-.2-1.3s-.1-1-.1-1.6c-.2-2.2-1.2-4.3-2.7-5.9-1.6-1.6-3.4-2.6-5.1-3.8-1.6-1.1-3.2-2.4-4.7-3.7-.6-1.7-1.2-3.3-1.9-4.9-.4-.8-.8-1.6-1.3-2.4-.5-.8-1-1.6-1.9-2.2-1.5-1-3.1-1.9-4.7-2.8-1.6-.9-3.2-1.7-4.8-2.6l-.7-.4s.7 11.7 1 17.3c0 1.4.4 3 .3 4.3 0 .2 0 .3-.1.5 0 .1 0 .1-.1.2l-.1.2c-.2.3-.4.5-.6.8-.4.5-.9 1-1.4 1.5-2 2-4 3.9-6.2 5.6-1.1.9-2 2.1-2.8 3.2-.8 1.1-1.6 2.3-2.4 3.4-.4.6-.8 1.1-1.2 1.7-.4.6-.8 1.1-1.4 1.5-1.1.8-3.5 4.2-6.3 6.5-.6.4-1.2.7-1.8 1.3-.5.5-.9 1.1-1.3 1.7-.6.9-1.1 1.8-1.5 2.8-.9-2.2-2.5-4.3-4.4-5.8-1.1-.9-2.2-1.6-3.4-2.4-1.2-.7-2.1-1.7-3.2-2.5-4.4-4-4.4-6-8.3-9.7-1.9-1.9-3.6-4.1-5.2-6.2-.8-1.1-1.7-2.1-2.4-3.2-.8-1.1-1.4-2.2-1.8-3.4-.4-1.1-.2-2.4-.1-3.8l.1-4.1.1-8.1v-1.2l-1.2.3c-2.2.6-4.3 1.4-6.3 2.3-2.1.9-4.1 1.9-6 3.2-1.9 1.3-3.6 3.1-4.6 5.2-1 1.8-1.6 3.8-1.9 5.8-.7 0-1.4.1-2.2.2-.5.1-1 .3-1.5.7-.2.2-.5.5-.6.8-.2.3-.2.6-.3.8-.1.5-.2 1-.2 1.4 0 .4-.1.8-.2 1.1-.2.7-.7 1.5-1.1 2.2-1 1.4-2.1 2.8-3.3 4-.6.6-1.2 1.1-2 1.8-.2.2-.4.4-.6.7-.2.3-.2.5-.3.8-.1.3-.2.6-.2 1-1.5.4-7.5.9-9 1.4-1.6.6-3.2 1.1-4.8 1.8-1.6.7-3.1 1.6-4.5 2.6-1.4.9-2.7 1.9-4 3-1.6.7-3.1 1.4-4.4 2.6-.3.3-.6.7-.9 1.2-.2.5-.2.9-.3 1.3-.2.9-.3 1.7-.4 2.5-.4 3.4-.6 6.7-.8 10.1-.2 3.4-.3 6.7-.3 10.1 0 1.7-.1 3.4-.1 5 0 1.7 0 3.3.1 5.1l43.9.4 44.2.3c14.7.1 29.5.1 44.3.2 14.8 0 29.6.1 44.4 0h1.1l-.1-1.1zm-85-30.9c.4-.6.8-1.1 1.2-1.6.4-.5 1-.8 1.6-1.2 2.4-1.4 3.4-4.9 12.8-9.5 3.2-1.6 6-3.6 8.7-5.7 1.4-1.1 2.7-2.2 4-3.3.6-.6 1.3-1.2 1.8-2s.9-1.6 1.3-2.4c.7-1.7 1.1-3.4 1.2-5.2 0-.4 0-.9-.1-1.4-.1-.4-.2-.9-.4-1.3-.3-.8-.7-1.6-1.2-2.3.3.8.5 1.6.7 2.5.1.8.2 1.6 0 2.4-.3 1.6-.9 3.2-1.7 4.6-.4.7-.8 1.4-1.3 2-.5.6-1.1 1.1-1.7 1.7-1.3 1.1-2.6 2.1-3.9 3.2-1.3 1.1-2.7 2.1-4.1 3.1l-2.1 1.5c-.7.5-1.4.9-2.1 1.4-1.5.9-2.9 1.9-4.4 2.9.1-.1.1-.2.2-.2.4-.6.8-1.1 1.2-1.7.8-1.1 1.6-2.3 2.4-3.4.8-1.1 1.7-2.3 2.7-3.1 2.3-1.6 4.3-3.6 6.3-5.6l1.5-1.5c.2-.3.5-.5.7-.8 0 0 2-2.5 2.4-3.6.5-1.3.8-2.7.7-4.2-.2-1.4-.9-5.1-1.6-6.4-.5-1.1-2-4.9-2.2-7.2 1.4.8 2.7 1.5 4.1 2.3 1.6.9 3.1 1.8 4.6 2.8.6.4 1.1 1.2 1.6 1.9.4.8.8 1.5 1.2 2.4.7 1.6 1.3 3.3 1.9 5l.1.1.1.1c.1 0 .1.1.1.1v.1c0 1.1-.1 2.3-.3 3.4-.3 2.2-1 4.4-1.8 6.5-1.5 4.2-3.9 8.1-7.5 10.4-.9.6-1.8 1.1-2.9 1.7l-3 1.8-5.8 3.6c-1 .6-1.9 1.1-2.9 1.6-.5.2-1 .5-1.5.6-.5.2-1.1.3-1.6.4-2.2.6-4.4 1.2-6.6 1.9 2.3-.3 4.6-.6 6.8-.9.6-.1 1.1-.1 1.7-.3.6-.1 1.2-.3 1.7-.6 1.1-.4 2.1-1 3.2-1.5 2.1-1.1 4-2.3 6-3.4 1-.6 2-1.1 3-1.7 1-.5 2.1-1.1 3-1.8 2-1.4 3.7-3.1 5-5.1 1.3-2 2.2-4.2 2.9-6.5.7-2.2 1.1-4.5 1.2-6.9 0-1 0-2.1-.1-3.1 1.3 1.2 2.7 2.3 4.1 3.3 1.7 1.2 3.5 2.2 4.8 3.6 1.3 1.4 2.1 3.2 2.3 5.2.1.5.1 1 .1 1.5s0 1 .3 1.7c-.8.9-1.6 1.9-2.3 2.8-.9 1.2-1.9 2.3-2.8 3.4-1.9 2.1-4.2 4.2-6.1 6.6 1.5-.6 2.8-1.4 4.1-2.2 1.3-.9 2.5-1.9 3.5-3 1.1-1.2 1.9-2.5 2.6-3.9.5-1 1-2 1.3-3.1.4.8.9 1.6 1.4 2.2l.1.2h.1c-1.5 2.2-3 4.4-4.7 6.6-1.8 2.3-3.7 4.6-5.9 6.4-2.3 1.8-4.8 3.2-7.5 4.3-2.7 1.1-5.4 2.1-8.2 2.9-2.8.8-5.7 1.3-8.6 1.8-2.9.5-5.7 1.2-8.6 1.6-3.4.6-4.8.5-5.1.5 0-1.1-.1-2.1-.3-2.8.6-.3 1.4-.9.1-1.4-1.6-.5-3.1.2-3.1.9-.1.6.5.7 1.1.7.2.6.2 1.3.2 2.1-.3-.1-.6-.3-.8-.5-.5-.4-.9-.8-1.3-1.3-.3-.5-.7-1.1-.8-1.6l-.6-2.1c.6-.9 1.1-2 1.8-3zm-61.9-14.6v-.6c0-.3.1-.8.2-1.1 0-.2.1-.4.2-.4 0-.1.1-.2.3-.3.6-.5 1.4-1.1 2-1.8 1.3-1.3 2.5-2.7 3.5-4.2.5-.8 1-1.6 1.3-2.6.3-1 .3-2 .5-2.7 0-1.1 1.6-1.3 3.1-1.3 0 .6.1 1.1.1 1.7.4 3.3 1.5 6.6 3.1 9.6 1.7 2.9 3.9 5.6 6.5 7.6 2.6 2.1 5.6 3.7 8.7 4.7-2.8-1.8-5.4-3.7-7.7-5.9s-4.3-4.7-5.8-7.4c-.8-1.4-1.4-2.8-2-4.3-.6-1.5-1-3-1.3-4.5-.1-.5-.2-1.1-.3-1.6l.1-.6c.2-2 .9-4.1 1.9-5.9 1-1.9 2.4-3.4 4.1-4.6 1.7-1.2 3.7-2.1 5.7-3 1.6-.7 3.3-1.3 5-1.9 0 0-1.7 4.2-2.2 5.1-.7 1.1-1 2.6-.7 3.9.1.7.3 1.3.6 1.8.2.6.5 1.1.8 1.6.4.7 3 5.6 3.8 6.8.8 1.1 1.7 2.2 2.5 3.3 1.7 2.1 3.6 4.9 5.6 6.8 4.1 4 3.8 6.3 8.3 9.4 1.1.8 2.3 1.5 3.5 2.2 1.2.7 2.3 1.4 3.3 2.2 2.1 1.6 3.7 3.8 4.6 6.3l.1.3-.4 1.1c-.2.6-.5 1.3-.9 1.8-.4.6-.8 1-1.2 1.1-.1 0-.2.1-.4.1h-1.3c0-.1.1-.2.1-.3.3-.6.6-1.2.8-1.5.4.1.9 0 1-.3.2-.5-.6-2.1-1.6-2-.9 0-1.3.3-.5 1.4-.6.6-1.3 1.5-1.8 2.8h-.6c-3.1-.1-6.1-.4-9.2-.7-3.1-.4-6.1-.7-9-1.5-2.9-.8-15.6-7.5-21.2-10-2.8-1.2-5.7-2.4-8.3-4.1-1.3-.9-2.5-1.8-3.5-3-.8-.9-1.6-2.1-1.9-3.3l.5-.2zm102 44.6c-14.7 0-29.3.1-44 .2l-44.2.3-44.5.4c.1-1.6.1-3.3.2-5l.2-5c.1-3.4.3-6.7.6-10.1.2-3.3.6-6.7 1-10 .1-.8.2-1.6.4-2.4.1-.4.2-.8.3-1.1.1-.3.4-.6.6-.8 1.1-1 2.7-1.8 4.2-2.4h.1l.1-.1c1.3-1 2.7-2 4.1-2.9 1.4-.9 2.8-1.8 4.3-2.4 3-1.3 10.9-2.2 14.1-3.1.3 1.3 1 2.4 1.8 3.5 1 1.2 2.2 2.3 3.4 3.2 2.5 1.9 5.4 3.2 8.2 4.5 5.6 2.7 18.2 9.9 21.2 10.8 1.5.4 3.1.8 4.6 1s3.1.5 4.6.7c3.1.4 6.2.6 9.3.8h.2v.1c-.3 2.9 1.6 8.7 2 12.1s-1 6.8-.3 7 2.5.9 2.8-.2c.3-1.1.6-10.9-.9-13.9-.9-1.8-1.3-3.6-1.3-5.1H98.5c.2 0 .5-.1.8-.1 1.1-.3 1.8-1.2 2.3-1.9.1-.1.1-.2.2-.3 0 .1.1.1.1.2.5.7 1.1 1.3 1.8 1.8.6.4 1.2.7 1.8.9-.1.5-.1.9-.2 1.3-.4 1.9-2 3.1-1.2 7.2s3.1 6.1 3.4 7.7c.3 1.6.4 2.9 1 2.9s2.4-.7 2.7-1.6-.8-3.5-2.3-5.4c-1.5-1.9-2.8-4.6-2.8-6.1 0-1.3.9-3.7 1.3-5.7 6.7-.6 11.3-1.8 14.2-2.3s5.8-1.2 8.6-2c2.9-.9 5.6-1.9 8.3-3.2 2.7-1.3 5.3-2.8 7.6-4.8 2.2-2 4.1-4.4 5.8-6.8 1.6-2.2 3-4.5 4.3-6.9h.1l15.4 4.5 2.7 1.1c.9.4 1.8.8 2.6 1.2 1.6.9 3.2 2.1 4.6 3.4l.1.1.6.6.6.9c.4.6.7 1.3.9 1.9.5 1.4.9 2.8 1.1 4.3.4 3 .6 6.1.8 9.2.4 5.8.7 11.7 1.1 17.5-14.5.2-28.8.2-43.1.3zM32.8 203.3c-.3-1.8-1-3.3-1.7-4.7-1.5-2.9-3.2-5.6-5.1-8.2-1-1.3-1.9-2.6-3.1-3.7-1.2-1.1-2.5-2.1-4.1-2.6 1.4.8 2.5 2 3.4 3.2.9 1.2 1.7 2.6 2.6 3.9 1.6 2.7 3.2 5.4 4.6 8.2.7 1.4 1.4 2.8 1.6 4.1.3 1.5.4 3.1.6 4.6.3 3.1.6 6.3 1.1 9.5.4-3.2.5-6.4.4-9.6 0-1.4-.1-3-.3-4.7zm142.4-17.5c-.9.2-1.8.7-2.4 1.4-.6.7-1.1 1.5-1.5 2.2-1.8 2.8-3.6 5.7-5.2 8.7-.4.8-.7 1.6-1.1 2.4-.2.4-.3.8-.4 1.3-.1.4-.2.9-.3 1.3-.2 1.7-.4 3.4-.4 5.1-.1 3.4-.1 6.8.1 10.1.6-3.3 1-6.7 1.5-10 .2-1.6.4-3.3.7-4.9.3-1.5 1-3 1.7-4.4 1.5-3 3.2-5.8 4.7-8.9.4-.8.7-1.5 1.1-2.1.4-.6 1-1 1.7-1.3.7-.3 1.6-.4 2.4-.8.8-.3 1.6-.8 2.2-1.3-.8.4-1.6.6-2.4.8-.7.2-1.5.2-2.4.4z" fill="#1d3400" stroke-width="none" opacity="1"></path><path id="SvgjsPath31672" d="M173.1 180.5c-3.5-1.5-13.8-3-16.4-4.8 0 0 11.8 6.1 15.9 7.4 4.1 1.3 7.2.9 7.2.9s-3.2-2-6.7-3.5zm-32.6-24.6c0-3.2-2.4-7.4-4.1-9.5s-5.4-3.2-6.9-4.3c0 0 .9.9 2.6 2.8 1.7 1.9 5 6.7 5.6 10.6.6 3.9-2.6 11.3-4.8 14.1s-10.8 7.2-14.8 9.5c-3.9 2.4-7.5 5.6-12.1 8.2s-3 6.9-3 6.9.7-2.6 2.2-4.6 7.3-6.1 11.6-7.4c4.3-1.3 14.3-7.4 18.2-11.1 3.9-3.4 5.5-11.9 5.5-15.2zm3.2 2.2s1.9 3 3.2 4.8c1.3 1.7 2.4 5.9-1.5 12.4s-15 13.2-15 13.2 9.5-4.3 12.6-6.5c3-2.2 8.9-9.5 9.3-11.3.4-1.7-.2-4.8-1.5-6.9-1.2-2.2-6.2-4.8-7.1-5.7zm-59.3 22.6c-3.9-3-11.4-13.2-14.4-17.1-3-3.9-3.2-8-3.5-10.8 0 0-2.4 2.6-2.8 4.8s-.4 5.9 3.2 8.9c3.7 3 17.5 18 22.7 20.4 5.2 2.4 9.3 5.9 9.3 5.9s-1.1-2.6-2.4-3.9c-1.3-1.5-8.2-5.2-12.1-8.2zM60 185.4c3.9 1.5 14.5 6.3 17.3 7.4s15.1 3 15.1 3-11.8-3.9-15.8-5.6c-3.8-1.7-16.6-4.8-16.6-4.8z" fill="#42621a" stroke-width="none" opacity="1"></path></g><g id="svga-group-head" transform="matrix(1,2.856368900253737e-18,-2.856368900253737e-18,1,0,0)"><g id="svga-group-ears-left-move" transform="matrix(1,0,0,1,0,0)"><g id="svga-group-ears-left"><path id="SvgjsPath31685" d="M68.41 84.17s-2.58-5.02-4.51-7.21-6.82-5.79-7.98-5.54-6.31 14.04-6.82 16.1c-.52 2.06 6.18 8.63 6.82 9.79.64 1.16.52 3.99.39 4.76s5.15 2.83 7.85 2.19c2.71-.65 10.05-9.54 4.25-20.09z" fill="#ffd0bc" stroke-width="none" opacity="1"></path><path id="SvgjsPath31686" d="M68.03 90.6s-5.92-8.11-9.91-10.82c-3.99-2.7-5.67 7.73-5.41 8.76s4.64 6.31 6.31 7.08 7.33-.64 9.01-5.02z" fill="#f0b399" stroke-width="none" opacity="1"></path><path id="SvgjsPath31687" d="M49.09 87.02c-.06.22-.14.41-.16.67 0 .24.03.48.11.7.29.87.78 1.62 1.26 2.35.49.73 1.03 1.43 1.58 2.12 1.09 1.38 2.25 2.71 3.34 4.05.13.17.27.34.36.49.09.15.15.33.21.52.11.38.16.8.19 1.22.06.84.05 1.71-.04 2.55l-.04.31c-.02.4.16.52.24.63.21.22.41.34.61.47.41.25.82.44 1.24.61.84.35 1.69.62 2.57.82.88.2 1.78.33 2.72.29.47-.02.95-.08 1.43-.3.26-.08.43-.23.64-.35.21-.12.39-.27.57-.42 2.81-2.39 4.39-5.88 4.78-9.42.13-.89.07-1.78.07-2.67-.12-.88-.17-1.77-.43-2.62-.36-1.73-1.1-3.35-1.9-4.91-.79-1.57-1.65-3.09-2.54-4.6-.45-.76-.92-1.5-1.44-2.22-.53-.72-1.15-1.36-1.79-1.97a28.138 28.138 0 0 0-4.17-3.28c-.38-.24-.76-.48-1.18-.67-.2-.1-.43-.18-.65-.27-.24-.06-.49-.15-.87-.07-.46.23-.48.42-.65.62-.13.2-.25.39-.36.59-.22.39-.42.79-.61 1.19-1.46 3.22-2.59 6.54-3.8 9.83l-.87 2.48-.42 1.26zm.13.69c.01-.17.09-.4.14-.6l.4-1.25c.28-.83.59-1.65.9-2.47.61-1.64 1.28-3.26 1.97-4.86.69-1.6 1.41-3.2 2.19-4.75.19-.39.39-.77.6-1.14.11-.18.22-.36.33-.53.06-.09.12-.15.17-.23.03-.04.08-.07.09-.08.03 0 .08 0 .14.01.09.02.17.04.26.07.18.07.37.14.56.24.37.18.75.39 1.12.6 1.47.89 2.86 1.95 4.2 3.05.66.56 1.3 1.14 1.85 1.8.55.66 1.06 1.38 1.55 2.1.97 1.45 1.83 2.98 2.66 4.52 1.61 3.08 2.43 6.67 1.76 10.07-.3 1.69-.84 3.33-1.65 4.84-.81 1.49-1.83 2.91-3.12 3.96-.16.14-.32.26-.49.36-.17.09-.34.24-.51.28-.31.16-.72.21-1.12.22-.81.03-1.66-.09-2.49-.26-.83-.18-1.65-.42-2.44-.73a9.77 9.77 0 0 1-1.13-.53c-.17-.1-.34-.22-.44-.31l-.03-.03.03-.26c.07-.91.08-1.8-.01-2.7a7.4 7.4 0 0 0-.26-1.36c-.08-.23-.16-.46-.31-.69a5 5 0 0 0-.43-.55c-1.16-1.35-2.37-2.59-3.51-3.92-.57-.66-1.12-1.33-1.64-2.03-.51-.7-1.01-1.43-1.28-2.23-.03-.22-.06-.42-.06-.61z" fill="#f0b399" stroke-width="none" opacity="1"></path><path id="SvgjsPath31688" d="M54.5 82.01c.34-.68.71-1.4 1.37-1.89.31-.25.82-.37 1.21-.16.39.19.65.53.87.83.92 1.24 1.7 2.57 2.38 3.94 1.31 2.76 2.4 5.61 3.21 8.56l-.08.03c-1.35-2.74-2.56-5.51-3.83-8.25-.62-1.37-1.2-2.78-1.98-4.06-.19-.33-.41-.61-.7-.78-.29-.16-.64-.09-.93.11-.56.44-.91 1.14-1.21 1.81-.55 1.39-.85 2.89-.94 4.35-.02.36-.02.73.04 1.06.02.17.06.31.11.43.09.16.16.32.26.47.37.63.8 1.24 1.25 1.84.45.6.9 1.2 1.38 1.78l.71.87c.06.07.12.13.18.2.2-.53.34-1.18.48-1.78l.43-2.13c-.6-.94-1.19-1.89-1.75-2.86l.07-.05c.75.89 1.48 1.79 2.19 2.7l.06.07-.01.12A29.5 29.5 0 0 1 59 91.5c-.14.77-.2 1.49-.53 2.33-.04.07-.05.11-.12.2-.03.04-.05.07-.13.13-.03.03-.07.05-.1.07-.06.03-.14.05-.21.05-.13.02-.29-.07-.35-.11l-.07-.06a.769.769 0 0 1-.13-.12c-.15-.15-.28-.29-.41-.43-.26-.29-.51-.58-.76-.88-.48-.6-.96-1.2-1.39-1.84-.44-.63-.86-1.28-1.24-1.97-.1-.17-.18-.36-.27-.54-.09-.24-.14-.46-.16-.67-.04-.42-.01-.82.03-1.21.18-1.57.68-3.04 1.34-4.44z" fill="#d17f5b" stroke-width="none" opacity="1"></path></g></g><g id="svga-group-ears-right-move" transform="matrix(1,0,0,1,0,0)"><g id="svga-group-ears-right"><path id="SvgjsPath31689" d="M131.59 84.17s2.58-5.02 4.51-7.21 6.82-5.79 7.98-5.54 6.31 14.04 6.82 16.1c.52 2.06-6.18 8.63-6.82 9.79-.64 1.16-.52 3.99-.39 4.76.13.77-5.15 2.83-7.85 2.19-2.71-.65-10.05-9.54-4.25-20.09z" fill="#ffd0bc" stroke-width="none" opacity="1"></path><path id="SvgjsPath31690" d="M131.97 90.6s5.92-8.11 9.91-10.82c3.99-2.7 5.67 7.73 5.41 8.76-.26 1.03-4.64 6.31-6.31 7.08s-7.33-.64-9.01-5.02z" fill="#f0b399" stroke-width="none" opacity="1"></path><path id="SvgjsPath31691" d="m150.49 85.77-.87-2.48c-1.22-3.29-2.34-6.61-3.8-9.83-.19-.4-.39-.8-.61-1.19-.11-.2-.22-.39-.36-.59-.17-.2-.19-.39-.65-.62-.38-.08-.63.01-.87.07-.23.08-.45.16-.65.27-.42.19-.8.43-1.18.67-1.5.97-2.89 2.06-4.17 3.28-.64.61-1.26 1.25-1.79 1.97-.53.71-.99 1.46-1.44 2.22-.89 1.51-1.76 3.04-2.54 4.6-.8 1.56-1.54 3.17-1.9 4.91-.26.85-.3 1.74-.43 2.62 0 .89-.06 1.78.07 2.67.38 3.54 1.96 7.03 4.78 9.42.17.15.36.3.57.42.21.12.38.27.64.35.49.23.96.28 1.43.3.94.04 1.84-.09 2.72-.29.88-.2 1.74-.47 2.57-.82.42-.18.83-.37 1.24-.61.2-.13.4-.25.61-.47.08-.12.26-.23.24-.63l-.04-.31c-.09-.84-.09-1.71-.04-2.55.03-.42.09-.84.19-1.22.06-.19.12-.37.21-.52.1-.15.23-.33.36-.49 1.1-1.34 2.26-2.67 3.34-4.05.55-.69 1.08-1.39 1.58-2.12.49-.74.97-1.48 1.26-2.35.07-.22.11-.45.11-.7-.02-.27-.1-.45-.16-.67l-.42-1.26zm.19 2.53c-.27.8-.77 1.53-1.28 2.23s-1.07 1.37-1.64 2.03c-1.14 1.33-2.36 2.57-3.51 3.92-.14.17-.29.34-.43.55-.14.23-.23.46-.31.69a7.4 7.4 0 0 0-.26 1.36c-.09.9-.09 1.79-.01 2.7l.03.26c-.01.01-.01.02-.03.03-.1.1-.27.22-.44.31-.35.2-.73.38-1.13.53-.79.31-1.61.55-2.44.73-.83.17-1.67.29-2.49.26-.4-.01-.81-.07-1.12-.22-.17-.04-.34-.18-.51-.28-.17-.09-.33-.22-.49-.36-1.29-1.05-2.31-2.47-3.12-3.96-.81-1.5-1.35-3.15-1.65-4.84-.67-3.4.14-6.99 1.76-10.07.83-1.54 1.69-3.07 2.66-4.52.49-.72 1-1.43 1.55-2.1.55-.66 1.19-1.24 1.85-1.8 1.34-1.1 2.73-2.16 4.2-3.05.37-.22.74-.43 1.12-.6.19-.1.37-.17.56-.24.09-.03.17-.04.26-.07.07-.01.11-.01.14-.01.01.01.06.05.09.08.06.08.12.14.17.23.12.16.22.35.33.53.21.37.41.75.6 1.14.78 1.55 1.5 3.15 2.19 4.75.7 1.6 1.36 3.22 1.97 4.86.31.82.62 1.64.9 2.47l.4 1.25c.06.2.13.43.14.6.04.21.01.41-.06.61z" fill="#f0b399" stroke-width="none" opacity="1"></path><path id="SvgjsPath31692" d="M145.5 82.01c-.34-.68-.71-1.4-1.37-1.89-.31-.25-.82-.37-1.21-.16-.39.19-.65.53-.87.83-.92 1.24-1.7 2.57-2.38 3.94-1.31 2.76-2.4 5.61-3.21 8.56l.08.03c1.35-2.74 2.56-5.51 3.83-8.25.62-1.37 1.2-2.78 1.98-4.06.19-.33.41-.61.7-.78.29-.16.64-.09.93.11.56.44.91 1.14 1.21 1.81.55 1.39.85 2.89.94 4.35.02.36.01.73-.04 1.06-.02.17-.06.31-.11.43-.09.16-.16.32-.26.47-.37.63-.8 1.24-1.25 1.84-.45.6-.9 1.2-1.38 1.78l-.71.87c-.06.07-.12.13-.18.2-.2-.53-.34-1.18-.48-1.78l-.43-2.13c.6-.94 1.19-1.89 1.75-2.86l-.07-.05c-.75.89-1.48 1.79-2.19 2.7l-.06.07.01.12c.06.76.15 1.52.27 2.28.14.77.2 1.49.53 2.33.04.07.05.11.12.2.03.04.05.07.13.13.03.03.07.05.1.07.06.03.14.05.21.05.13.02.29-.07.35-.11l.07-.06c.05-.04.1-.08.13-.12.15-.15.28-.29.41-.43.26-.29.51-.58.76-.88.48-.6.96-1.2 1.39-1.84.44-.63.86-1.28 1.24-1.97.1-.17.18-.36.27-.54.09-.24.14-.46.16-.67.04-.42.01-.82-.03-1.21-.18-1.57-.68-3.04-1.34-4.44z" fill="#d17f5b" stroke-width="none" opacity="1"></path></g></g><g id="svga-group-faceshape-wrap"><g id="svga-group-faceshape-single"><path id="SvgjsPath31777" d="M140.2 95.5c0-10.4.1-27 .1-27s.67-9.34-.23-13.44c-2.2-10-6.31-15.62-15.21-20.42-9.3-5-24.98-4.91-24.98-4.91S84 29.39 74.7 34.39c-8.7 4.8-12.71 10.55-14.91 20.55-.9 4 .02 13.59.02 13.59s.48 16.68.27 27.04c-.21 10.4.56 18.42 1.86 22.82s14.38 16.22 16.78 19.92c2.3 3.7 4.08 7.78 6.37 12.59 1.85 3.82 9.93 3.51 12.23.91 2.4-2.6 2.74-2.22 5.04.38 2.4 2.6 10.28 2.62 12.66-1.12 1.42-2.24 3.83-9.05 6.13-12.75 2.4-3.7 15.9-15.24 17.2-19.74 1.5-4.38 1.85-12.68 1.85-23.08z" fill="#ffd0bc" stroke-width="none" opacity="1"></path><path id="SvgjsPath31778" d="M100 148.3s1.4-6.2 3.6-9.2c0 0-3.3 1.4-4.6 4s1 5.2 1 5.2z" fill="#e09879" stroke-width="none" opacity="1"></path><path id="SvgjsPath31779" d="M140.07 55.06c-2.2-10-6.31-15.62-15.21-20.42-9.3-5-24.98-4.91-24.98-4.91S84 29.39 74.7 34.39c-8.7 4.8-12.71 10.55-14.91 20.55-.9 4 .02 13.59.02 13.59s.48 16.68.27 27.04c-.21 10.4.56 18.42 1.86 22.82s14.38 16.22 16.78 19.92c2.3 3.7 4.08 7.78 6.37 12.59 1.85 3.82 9.93 3.51 12.23.91 2.4-2.6 2.74-2.22 5.04.38 2.4 2.6 10.28 2.62 12.66-1.12 1.42-2.24 3.83-9.05 6.13-12.75 2.4-3.7 15.9-15.24 17.2-19.74 1.5-4.38 1.85-12.68 1.85-23.08s.1-27 .1-27 .67-9.34-.23-13.44zm-.25 51.26c-.24 3.59-.47 7.22-1.38 10.67-.21.87-.52 1.71-.9 2.45-.44.75-.96 1.46-1.51 2.16-1.12 1.38-2.36 2.68-3.6 3.98-2.51 2.57-5.15 5.03-7.74 7.55-1.3 1.28-2.6 2.51-3.82 3.99-1.24 1.59-1.97 3.23-2.8 4.87-.79 1.64-1.53 3.3-2.28 4.93-.37.82-.74 1.63-1.13 2.4-.19.39-.4.75-.6 1.08-.22.27-.39.54-.68.76-.52.46-1.19.84-1.94 1.07-.73.26-1.53.42-2.34.48-1.6.15-3.32-.05-4.66-.65-.34-.14-.63-.33-.86-.52l-.8-.85c-.31-.35-.63-.7-1.05-1.08a3.59 3.59 0 0 0-.8-.57c-.33-.18-.83-.34-1.34-.31-1.03.11-1.52.59-1.95.92-.4.35-.75.69-1.08 1.05-.08.08-1.55 1.09-1.74 1.14-1.42.53-3.12.69-4.69.5-1.55-.19-3.09-.8-3.68-1.8-.14-.16-.36-.69-.55-1.06l-.58-1.22-1.16-2.45c-.78-1.64-1.58-3.27-2.45-4.89-.44-.81-.89-1.61-1.36-2.41-.25-.4-.46-.79-.78-1.21-.3-.43-.6-.8-.91-1.15-1.22-1.43-2.47-2.73-3.72-4.05-2.5-2.61-5.04-5.18-7.41-7.84-1.19-1.33-2.35-2.68-3.33-4.09-.5-.69-.91-1.42-1.16-2.06-.25-.8-.46-1.65-.64-2.51-.7-3.44-1.03-7.02-1.24-10.59-.2-3.58-.23-7.15-.22-10.77 0-3.62-.08-7.24-.17-10.85l-.33-10.83-.1-2.71-.19-2.72c-.14-1.79-.26-3.59-.3-5.38s-.06-3.59.12-5.35c.07-.88.29-1.72.49-2.61.2-.87.45-1.73.7-2.59 1.02-3.42 2.62-6.68 4.87-9.42 2.29-2.72 5.19-4.88 8.31-6.59.77-.46 1.59-.77 2.38-1.16.84-.29 1.64-.65 2.5-.89 1.69-.55 3.43-.94 5.18-1.28a78.219 78.219 0 0 1 21.33-.82c3.55.32 7.08.87 10.52 1.68 3.47.81 6.7 2.03 9.73 3.82 3.01 1.8 5.82 3.92 7.96 6.65 2.13 2.72 3.66 5.92 4.67 9.32.27.84.48 1.71.71 2.57.2.83.33 1.69.41 2.57.18 1.76.22 3.56.23 5.35.01 1.8-.03 3.59-.11 5.39l.09 5.43c.13 7.23.13 14.45.12 21.67-.01 3.62-.05 7.23-.24 10.83z" fill="#d17f5b" stroke-width="none" opacity="1"></path></g></g><g id="svga-group-mouth-single-move" transform="matrix(1,0,0,1,0,0)"><g id="svga-group-mouth-single"><path id="SvgjsPath31868" d="M85.29 125.97s-.19-2.85.95-4.85c1.24-2 3.99-1.81 7.13-.29s10.22-.23 14.6-.14c4.37.1 6.93 3.91 5.69 7.14a11.438 11.438 0 0 1-10.46.28c-.71.41-3.02 1.61-6.08 1.17a9.535 9.535 0 0 1-4.91-2.3c-.82.16-2.12.32-3.67.07a9.95 9.95 0 0 1-3.25-1.08z" fill="#da7c87" stroke-width="none" opacity="1"></path><path id="SvgjsPath31869" d="M110.13 133.79c-3-.76-6.47-1.05-9.78-1.24-4.42-.19-9.3.67-12.77-1.52-.32-.19-.63 0-.63.19.63 2.09 4.42 2.28 7.41 2.28 5.36 0 10.25.48 15.61.76.47.1.63-.37.16-.47z" fill="#e09879" stroke-width="none" opacity="1"></path><path id="SvgjsPath31870" d="M116.26 125.1c-3.26 3.66-8.18 4.41-12.74 2.96.34-.33.62-.7.83-1.13.14-.29-.21-.59-.46-.35-4.06 3.79-9.26 2.75-12.66-1.29-.16-.19-.43.05-.33.25.24.48.54.91.87 1.31-3.79-.03-6.58-.59-9.22-3.63-.11-.12-.34.01-.28.16 1.24 3.42 6.56 5.31 9.85 3.89a8.108 8.108 0 0 0 5.23 2.57c1.75.17 4.12-.23 5.69-1.39 3.85 2.43 11.54 1.26 13.44-3.18.06-.13-.1-.3-.22-.17z" fill="#cb5f6c" stroke-width="none" opacity="1"></path></g></g><g id="svga-group-eyes-left-move" transform="matrix(1,0,0,1,0,0)"><g id="svga-group-eyes-left"><g id="svga-group-eyesback-left"><path id="SvgjsPath31731" d="M80.2 74.2c7.5 0 13.5 5.8 13.5 13s-6 13-13.5 13-13.5-5.8-13.5-13 6-13 13.5-13z" fill="#ffffff" stroke-width="none" opacity="1"></path></g><g id="svga-group-eyesiriswrapper-left" transform="matrix(1,0,0,1,0,0)"><g id="svga-group-eyesiriscontrol-left" transform="matrix(1,0,0,1,0,0)"><g id="svga-group-eyesiris-left"><path id="SvgjsPath31814" d="M80.2 81.6c3.1 0 5.6 2.5 5.6 5.6s-2.5 5.6-5.6 5.6-5.6-2.5-5.6-5.6 2.5-5.6 5.6-5.6z" fill="#4e60a3" stroke-width="none" opacity="1"></path><path id="SvgjsPath31815" d="M80.2 83.3c2.2 0 3.9 1.7 3.9 3.9s-1.7 3.9-3.9 3.9-3.9-1.7-3.9-3.9 1.7-3.9 3.9-3.9z" fill="#000000" stroke-width="none" opacity="1"></path><path id="SvgjsPath31816" d="m76.1 84.6 4.4 3.1-1.8-5.1c-.3-.4-2.5.8-2.6 2z" fill="#ffffff" stroke-width="none" opacity="1"></path></g></g></g><g id="svga-group-eyesfront-left"><path id="SvgjsPath31739" d="M80.2 73.7c-7.8 0-14.1 6.1-14.1 13.6s6.3 13.6 14.1 13.6 14.1-6.1 14.1-13.6S88 73.7 80.2 73.7zM68.6 92.6s3.5-5.5 5.1-7.2 3.1-1.8 6.1-1.9 6.3.1 7.9 2.4c1.6 2.3 2.7 6.3 2.7 6.3-7.3-3.2-21.8.4-21.8.4z" fill="#ffd0bc" stroke-width="none" opacity="1"></path><path id="SvgjsPath31740" d="M89.9 90.3c-.2-.6-.4-1.2-.7-1.8s-.5-1.2-.8-1.8c-.3-.6-.7-1.2-1.2-1.6-1-.9-2.3-1.4-3.5-1.6-1.3-.2-2.6-.2-3.8-.1-1.3.1-2.5.1-3.8.5-1.2.4-2.3 1.3-3.1 2.3-.8 1-1.6 2.1-2.3 3.1-.8 1.1-1.5 2.1-2.2 3.2l-.3.4.5-.1c1.8-.4 3.6-.7 5.4-1 1.8-.3 3.6-.5 5.5-.6 1.8-.1 3.7-.2 5.5 0l2.7.3c.9.2 1.8.4 2.7.7-.2-.7-.4-1.3-.6-1.9zm-4.8.5c-1.8-.2-3.7-.2-5.5-.1-1.8.1-3.7.3-5.5.6-1.7.3-3.3.6-4.9 1 1.3-2.1 2.6-4.1 4-6 .4-.5.8-1 1.3-1.4s1.1-.7 1.7-.8c.6-.2 1.2-.2 1.8-.3.6 0 1.3-.1 1.9-.1 1.3 0 2.5 0 3.7.2 1.2.2 2.4.6 3.3 1.5.5.4.8.9 1.1 1.5.3.6.6 1.1.9 1.7.5 1.2 1 2.4 1.4 3.6-.8-.4-1.7-.7-2.6-.9-.8-.2-1.7-.4-2.6-.5z" fill="#000000" stroke-width="none" opacity="1"></path><path id="SvgjsPath31741" d="M74.2 82.9c1.4-.3 12.4-1 13.3-.5.8.5 2.4 4.3 2.4 4.3-.4-1.1-.3-6.4-.9-6.5s-14.7 1.6-15.4 2.2c-.6.4-2 3.4-2.5 4.4.6-1 2.1-3.7 3.1-3.9zm2.2 13.2c-3.4-.3-7.7-1.9-7.7-1.9 4.5 3 7.7 1.9 7.7 1.9z" fill="#e09879" stroke-width="none" opacity="1"></path></g></g></g><g id="svga-group-eyes-right-move" transform="matrix(1,0,0,1,0,0)"><g id="svga-group-eyes-right"><g id="svga-group-eyesback-right"><path id="SvgjsPath31732" d="M119.8 74.2c7.5 0 13.5 5.8 13.5 13s-6 13-13.5 13-13.5-5.8-13.5-13 6-13 13.5-13z" fill="#ffffff" stroke-width="none" opacity="1"></path></g><g id="svga-group-eyesiriswrapper-right" transform="matrix(1,0,0,1,0,0)"><g id="svga-group-eyesiriscontrol-right" transform="matrix(1,0,0,1,0,0)"><g id="svga-group-eyesiris-right"><path id="SvgjsPath31817" d="M119.8 82.3c2.7 0 4.9 2.2 4.9 4.9s-2.2 4.9-4.9 4.9-4.9-2.2-4.9-4.9 2.2-4.9 4.9-4.9z" fill="#4e60a3" stroke-width="none" opacity="1"></path><path id="SvgjsPath31818" d="M119.8 83.8c1.9 0 3.4 1.5 3.4 3.4s-1.5 3.4-3.4 3.4-3.4-1.5-3.4-3.4 1.5-3.4 3.4-3.4z" fill="#000000" stroke-width="none" opacity="1"></path><path id="SvgjsPath31819" d="m116.2 84.9 3.8 2.7-1.5-4.5c-.2-.3-2.2.8-2.3 1.8z" fill="#ffffff" stroke-width="none" opacity="1"></path></g></g></g><g id="svga-group-eyesfront-right"><path id="SvgjsPath31742" d="M119.8 73.7c-7.8 0-14.1 6.1-14.1 13.6s6.3 13.6 14.1 13.6 14.1-6.1 14.1-13.6-6.3-13.6-14.1-13.6zm-10.4 17.4s.6-2.4 2.2-4.5 5.1-2.3 8.1-2.2c3 .1 4.6.2 6.2 1.7 1.5 1.3 4.6 5.6 5.1 6.2l.1.1-.1-.1c-1.1-.7-13.8-5.6-21.6-1.2z" fill="#ffd0bc" stroke-width="none" opacity="1"></path><path id="SvgjsPath31745" d="M129 89.6c-.8-.9-1.5-1.8-2.3-2.7-.8-.9-1.8-1.7-2.9-2-1.2-.4-2.3-.4-3.5-.5-1.2-.1-2.4-.1-3.6 0-1.2.1-2.4.3-3.5.8-.6.3-1.1.6-1.5 1.1-.4.5-.8 1-1.1 1.5-.6 1.1-1 2.2-1.3 3.4 1.7-.9 3.5-1.3 5.4-1.5 1.8-.2 3.7-.1 5.6.1 1.8.2 3.7.6 5.5 1.1.9.2 1.8.5 2.7.8.4.2.9.3 1.3.5.2.1 1.4.6 1.4.6.1-.2-1.5-2.3-2.2-3.2zm-.4 1.5-2.7-.9c-1.8-.5-3.7-.9-5.6-1.1-1.9-.2-3.8-.2-5.7.1-.9.1-1.9.3-2.8.6-.9.3-1.8.7-2.5 1.2.4-1.1.9-2.2 1.5-3.2.3-.5.7-1 1.1-1.4.4-.4.9-.7 1.4-1 1-.5 2.2-.7 3.4-.8 1.2-.1 2.3-.1 3.5-.1 1.2 0 2.4 0 3.5.4.6.2 1.1.4 1.6.8s.9.8 1.3 1.2c1.3 1.5 2.5 3.2 3.7 4.8-.1-.1-.2-.1-.4-.2-.4 0-.8-.2-1.3-.4z" fill="#000000" stroke-width="none" opacity="1"></path><path id="SvgjsPath31746" d="M112.9 82.6c.9-.6 11.3 1.4 12.7 1.8s3.9 4.5 3.9 4.5-1.8-5.1-2.4-5.8c-.7-.7-13.7-1.8-14.3-1.7-.6.1-2.1 4.9-2.6 6.1-.1 0 1.7-4.4 2.7-4.9zm12.9 11.6-14.7-.7c6.5 1.9 14.7.7 14.7.7z" fill="#e09879" stroke-width="none" opacity="1"></path></g></g></g><g id="svga-group-facehighlight-single"></g><g id="svga-group-eyebrows-left-move" transform="matrix(1,0,0,1,0,0)"><g id="svga-group-eyebrows-left-rotate" transform="matrix(1,1.7453292519943295e-9,-1.7453292519943295e-9,1,1.2313296338106738e-7,-1.3953906830010965e-7)"><g id="svga-group-eyebrows-left"><path id="SvgjsPath31648" d="M91.2 73.1s-11.8 1.1-14.3 1.1c-2.6.1-8.5.5-8.5.5s-1-3.4-.3-4.1c.7-.7 9.8-2.8 9.8-2.8l1.2.5-.1-.8s6-.5 7.3-.5h2.8l-.3 1.6 1.4-1.6.8 1 .7-.8s.4.8.1 2.5c-.2 1.6-.6 3.4-.6 3.4z" fill="#2a232b" stroke-width="none" opacity="1"></path><path id="SvgjsPath31649" d="m91.9 67.1-.1-.2-.2.2-.6.6-.1-.1c.2-.4.4-.9.5-1.3-.3.4-.5.8-.7 1.2l-.4-.5-.2-.2-.1.2-.8.9.2-.8v-.3H86.7c-.8 0-1.7 0-2.5.1-1.7.1-3.5.3-5.2.4h-.3v.6l-.7-.3h-.2c-2.5.6-5 1.3-7.5 2-.6.2-1.2.4-1.8.7-.2.1-.3.1-.4.2-.2.1-.2.3-.2.4-.1.3-.1.5-.1.8 0 1.1.3 2.1.5 3v.1h.1c2.1-.1 4.2-.2 6.2-.3l1.5-.1c.5 0 1 0 1.5-.1 1 0 1.9-.1 2.9-.2 1.9-.2 3.7-.3 5.5-.5l2.7-.3 1.3-.2.7-.1h.6V72.7l.1-.3.2-.7.3-1.5c.1-.5.2-1 .2-1.5v-.8c-.1-.2-.1-.5-.2-.8zm-.3 3.2c-.1.5-.2 1-.2 1.5l-.1.7-.1.3V73.1H90l-1.3.1-2.7.2c-1.8.1-3.7.3-5.6.4l-2.9.2c-.5 0-1 .1-1.5.1l-1.5.1c-2 .1-4 .3-6.1.5-.3-.9-.5-1.9-.5-2.9 0-.3 0-.5.1-.8 0-.1.1-.2.2-.3.1-.1.2-.1.4-.2l1.8-.6c1.2-.3 2.5-.6 3.7-1 1.2-.3 2.4-.6 3.6-.8l1.1.5.4.2v-1c1.6-.1 3.3-.3 4.9-.4.8-.1 1.7-.1 2.5-.1h2.1l-.2 1.3-.1.8.6-.6 1.2-1.3.4.4c-.2.5-.5 1-.6 1.6.3-.4.6-.9.8-1.4l.1.1.1.1.2-.2.5-.5c0 .1.1.3.1.4v.8c0 .5-.1 1-.2 1.5zm-6.4-.4.6-2.4c-.1.8-.2 1.6-.4 2.4l-.3 1.2c-.1.4-.2.7-.4 1.1l-.2.3v-.3c-.1-.6-.2-1.2-.4-1.8l-.3-1.6-.8 1.4c-.1.3-.3.6-.5.9-.2.3-.3.6-.5.8.1-.3.3-.6.4-.9.1-.3.3-.6.4-.9l.9-1.8.2-.3.1.3.4 1.9.3 1.5c.1-.2.2-.5.3-.7 0-.3.1-.7.2-1.1z" fill="#1b141c" stroke-width="none" opacity="1"></path></g></g></g><g id="svga-group-eyebrows-right-move" transform="matrix(1,0,0,1,0,0)"><g id="svga-group-eyebrows-right-rotate" transform="matrix(1,1.7453292519943295e-9,-1.7453292519943295e-9,1,1.2452925091110956e-7,-2.1240656167265115e-7)"><g id="svga-group-eyebrows-right"><path id="SvgjsPath31650" d="M110.7 74.9s12-.3 14.3-.6 7.6-.5 7.6-.5-.1-3.6-.8-4.2c-.7-.6-8.3-1.8-8.3-1.8l-.9.6v-.7s-5.2 0-6.3.1-2.6.2-2.6.2l.1 1.5-1.2-1.4-.9.9-.6-.7s-.5.8-.5 2.6c-.1 1.9.1 4 .1 4z" fill="#2a232b" stroke-width="none" opacity="1"></path><path id="SvgjsPath31651" d="M110.7 74.9H112l1.4-.1 2.8-.2c1.8-.1 3.7-.2 5.5-.3l2.7-.1c.4 0 .9-.1 1.4-.1l1.4-.1c1.8-.1 3.7-.1 5.5-.2l-.1.1c0-1.1-.1-2.2-.4-3.2-.1-.3-.1-.5-.3-.7-.1-.1-.1-.2-.2-.3-.1-.1-.2-.1-.4-.1-.5-.2-1-.3-1.6-.4-1.1-.2-2.1-.4-3.2-.6s-2.1-.3-3.2-.5h.2l-.9.6-.4.2v-1.1l.2.2c-1.5 0-3 0-4.5.1-.8 0-1.5 0-2.2.1l-2.2.2.2-.3.1 1.5.1.8-.5-.6-1.2-1.4h.3l-.9.9-.2.2-.1-.2-.6-.7h.3c-.1.2-.2.5-.3.7s-.1.5-.2.8c-.1.5-.1 1.1-.1 1.6V74.7l.3.2zm0 .1c-.1 0-.1-.1 0 0v-.8l-.1-.8c0-.5-.1-1.1-.1-1.6v-1.7c0-.3.1-.6.1-.8.1-.3.1-.5.3-.8l.1-.2.2.2.6.7h-.3l.9-.9.2-.2.2.2 1.2 1.4-.4.2-.1-1.5v-.2h.3l2.2-.2c.8-.1 1.5-.1 2.2-.1h4.7V68.8l-.4-.2.9-.6.1-.1h.1c2.1.4 4.2.8 6.4 1.2.5.1 1.1.3 1.6.4.1.1.3.1.4.2l.3.3c.1.2.2.5.3.8.2 1.1.3 2.1.4 3.2h-.1c-1.8.1-3.7.2-5.5.4l-1.4.1c-.4.1-.9.1-1.4.1-.9.1-1.8.1-2.8.2-1.8.1-3.7.1-5.5.2h-5.6zm4.5-5.9c.2.8.3 1.6.5 2.4l.3 1.2c.1.4.2.8.4 1.1l-.2.1.3-2.1.4-2.1.1-.3.2.3.9 1.7c.2.3.3.6.4.9.1.3.3.6.4.9-.2-.3-.3-.6-.5-.8s-.3-.6-.5-.8l-.9-1.7h.2l-.3 2.1-.3 2.1-.1.3-.2-.3c-.2-.4-.3-.8-.4-1.2-.1-.4-.2-.8-.2-1.2-.3-.9-.4-1.7-.5-2.6zm-2.3 4.7-.9-1.5c-.3-.5-.5-1.1-.6-1.6l.9 1.5c.3.5.4 1 .6 1.6z" fill="#1b141c" stroke-width="none" opacity="1"></path></g></g></g><g id="svga-group-beardwrap"><g id="svga-group-beard-single-move" transform="matrix(1,0,0,1,0,0)"><g id="svga-group-beard-single"></g></g></g><g id="svga-group-mustache-single-move" transform="matrix(1,0,0,1,0,0)"><g id="svga-group-mustache-single"></g></g><g id="svga-group-nose-single-move" transform="matrix(1,0,0,1,0,0)"><g id="svga-group-nose-single"><path id="SvgjsPath31847" d="M98.34 75.84s-3.77 9.97-3.77 11.79c0 1.82 1.56 5.03 2.35 6.84 1.21 2.78 1.05 6.77-.04 7.74-1.09.97-1.94.61-2.92-.12-.97-.73-5.1-1.94-5.35 4.01s1.46 7.05 2.67 6.56c1.22-.49 2.31-4.86 3.65-.85 1.34 4.01 1.46 5.83 2.8 6.32s3.77.61 4.98-.24 1.82-4.5 2.31-7.17 1.94-.12 2.19 1.22c.24 1.34 1.58 1.7 2.55.97.97-.73 1.82-5.71 1.46-8.14-.36-2.43-2.92-4.74-5.35-2.92-2.43 1.82-3.04-3.28-2.92-4.62.12-1.34.67-4.02 1.52-5.96s-.16-5.62-.64-7.2c-.49-1.58-.76-6.16-1.49-7.5-.72-1.34-2.3-1.34-4-.73z" fill="#ffd9c9" stroke-width="none" opacity="1"></path><path id="SvgjsPath31848" d="M98.34 75.84c-.89 2.54-1.76 5.09-2.55 7.66-.38 1.28-.8 2.59-.99 3.88-.05.61.11 1.27.3 1.9.19.63.43 1.26.68 1.87.5 1.25 1.1 2.42 1.63 3.71.48 1.31.7 2.69.7 4.07 0 .69-.06 1.39-.23 2.09-.09.35-.21.7-.41 1.04-.1.16-.25.35-.4.47-.14.12-.29.24-.46.34-.33.2-.76.34-1.18.31-.43-.02-.8-.19-1.12-.37-.32-.18-.61-.43-.83-.54-.26-.13-.55-.23-.85-.3-.59-.13-1.21-.11-1.72.12-.52.22-.93.64-1.2 1.18-.28.53-.44 1.15-.53 1.78-.09.63-.11 1.29-.11 1.95 0 1.31.07 2.66.45 3.84.19.58.5 1.14.9 1.35.19.1.4.12.61.06.06-.02.11-.03.13-.05.03-.02.08-.05.12-.09.09-.08.19-.19.28-.31.39-.49.7-1.08 1.23-1.66.14-.14.31-.3.57-.41.26-.13.69-.1.93.07.47.32.62.68.79 1.01.31.68.48 1.32.7 1.97l.59 1.94c.2.64.38 1.29.63 1.85.12.29.26.54.43.73.17.19.33.29.6.38 1.15.35 2.53.42 3.66.1.28-.08.54-.2.74-.34.16-.12.34-.36.48-.62.29-.53.49-1.15.67-1.77.36-1.26.6-2.58.84-3.9l.09-.5c.03-.18.07-.36.13-.55.06-.19.13-.39.28-.6.07-.1.17-.22.33-.32.15-.1.38-.16.57-.13.38.06.56.25.72.4.16.16.27.32.38.48.21.32.37.65.5.99.07.17.13.34.18.52.03.09.05.18.07.28l.03.14.02.09c.06.25.17.46.34.6.33.3.87.31 1.3.04.13-.08.14-.09.22-.21.07-.1.14-.23.2-.36.13-.27.23-.58.32-.88.18-.62.33-1.26.44-1.91.21-1.29.34-2.63.26-3.91-.05-1.23-.66-2.41-1.62-3.14-.47-.35-1.04-.57-1.6-.54-.28.01-.56.07-.83.18-.13.06-.27.12-.39.2-.13.08-.23.16-.41.27-.32.2-.74.4-1.22.34-.49-.06-.86-.38-1.09-.69-.46-.64-.65-1.33-.81-2.02-.15-.69-.23-1.37-.25-2.07-.02-.73.12-1.41.24-2.08.26-1.34.61-2.66 1.11-3.94.12-.31.28-.65.38-.92.1-.29.16-.6.19-.92.06-.64.03-1.3-.03-1.96-.14-1.32-.45-2.62-.83-3.91-.33-1.35-.43-2.68-.62-4.02-.09-.67-.18-1.33-.31-1.99-.14-.65-.26-1.33-.67-1.84-.4-.52-1.07-.77-1.73-.77-.67-.03-1.33.13-1.97.34zm0 0c.63-.23 1.29-.42 1.97-.43.67-.02 1.4.2 1.86.75.23.26.39.59.49.91.11.32.19.65.27.98.15.66.26 1.33.37 1.99.23 1.32.37 2.69.73 3.94.41 1.29.76 2.61.95 3.96.09.68.14 1.37.08 2.07-.03.35-.09.7-.2 1.05-.12.37-.26.63-.37.95-.45 1.24-.77 2.55-1 3.85-.1.66-.22 1.31-.19 1.93.03.65.12 1.3.27 1.93.15.62.36 1.25.7 1.7.36.45.73.48 1.23.14.1-.07.27-.2.42-.29.16-.1.33-.19.5-.27.35-.15.73-.25 1.13-.27.79-.05 1.56.24 2.17.68 1.21.89 1.94 2.34 2.01 3.8.1 1.41-.03 2.78-.25 4.14-.11.68-.25 1.36-.45 2.03-.1.34-.21.67-.37 1.01-.08.17-.16.34-.29.52-.1.17-.34.39-.51.48-.69.47-1.77.5-2.47-.12-.35-.3-.56-.71-.66-1.11l-.06-.26c-.02-.07-.03-.14-.06-.21-.04-.14-.09-.29-.15-.43-.12-.28-.25-.56-.41-.81-.08-.12-.17-.23-.25-.31-.08-.08-.17-.12-.13-.11.02 0 .08 0 .09-.02.01-.01 0 0-.02.04-.04.07-.1.19-.14.32-.04.13-.07.28-.1.43l-.09.5c-.24 1.33-.47 2.67-.84 4-.19.67-.4 1.34-.75 2-.18.33-.39.67-.76.96-.35.26-.71.41-1.08.52-.73.21-1.46.26-2.17.24-.72-.03-1.42-.13-2.13-.36-.37-.11-.81-.37-1.07-.7-.27-.32-.45-.67-.59-1-.28-.67-.46-1.32-.66-1.97l-.58-1.93c-.2-.63-.39-1.3-.64-1.84-.12-.27-.3-.53-.4-.59-.04-.02.01-.01-.04 0-.05.02-.15.09-.24.18-.39.4-.72 1.01-1.17 1.58-.12.14-.24.29-.4.43-.08.07-.17.14-.28.21-.12.07-.24.11-.34.14-.43.13-.95.09-1.35-.14-.4-.22-.68-.55-.88-.88-.21-.33-.35-.68-.46-1.02-.43-1.39-.48-2.78-.47-4.15.02-1.35.08-2.81.78-4.15.35-.66.93-1.26 1.66-1.55.73-.3 1.53-.29 2.24-.13.36.09.71.21 1.05.39.37.2.59.42.85.57.53.33 1.02.4 1.51.1.12-.07.24-.16.36-.25.11-.09.18-.17.26-.29.15-.24.26-.53.34-.83.16-.61.23-1.26.24-1.91.02-1.3-.17-2.63-.59-3.86-.47-1.22-1.08-2.46-1.55-3.72-.24-.63-.46-1.28-.64-1.94-.17-.66-.33-1.34-.25-2.08.24-1.37.7-2.63 1.12-3.92.89-2.55 1.85-5.07 2.85-7.57z" fill="#d17f5b" stroke-width="none" opacity="1"></path></g></g><g id="svga-group-hair-front"><path id="SvgjsPath31895" d="M58.02 71.24s1.85 1.66 2.59 3.33c.74 1.66 0 4.62.55 4.99.55.37 2.4-4.99 2.4-4.99l1.29-21.45 16.09-14.98 6.66 7.21s17.01.92 25.34.55l7.03-5.18 15.54 13.32.55 20.71 2.4 4.62s.74-5.18 1.11-5.92c.37-.74 2.03-2.59 2.03-2.59s1.48-13.5.74-17.38-5.55-13.69-14.24-20.16-35.69-5.55-40.5-5.18c-4.81.37-15.17 3.51-15.17 3.51l.92 1.29-2.59 1.11-.37 1.48s-5.36 3.33-7.4 5.73-3.88 7.03-4.44 10.91-.53 19.07-.53 19.07z" fill="#212121" stroke-width="none" opacity="1"></path><path id="SvgjsPath31896" d="M58.07 71.22c.89.82 1.77 1.77 2.4 2.86.69 1.12.63 2.47.62 3.7 0 .31-.01.62 0 .93.01.15.02.3.05.44.01.14.12.27.1.26-.06.02.12-.1.17-.22.08-.12.16-.25.23-.38.14-.27.27-.55.4-.83.49-1.14.91-2.31 1.31-3.49l-.01.06 1.15-21.46.01-.15.11-.11L80.66 37.8l.33-.3.3.33 6.65 7.22-.29-.14c4.21.23 8.43.4 12.65.56 4.22.14 8.44.26 12.65.14l-.16.06 7.07-5.12.14-.1.13.11 15.49 13.37.05.04v.07l.64 20.71-.03-.1 2.42 4.61-.49.08c.22-1.54.45-3.08.75-4.62.08-.39.15-.77.28-1.17.16-.46.42-.75.65-1.08.48-.63.98-1.23 1.5-1.82l-.08.17c.4-4.12.74-8.25.84-12.37.01-2.06.12-4.14-.5-6.04-.6-1.93-1.51-3.79-2.5-5.58-2-3.58-4.5-6.89-7.42-9.75-1.46-1.42-3.02-2.82-4.72-3.86-1.67-1.1-3.65-1.71-5.58-2.32-3.95-1.06-8.05-1.62-12.16-2-4.11-.36-8.24-.51-12.38-.52-2.07 0-4.13.02-6.2.1-1.03.04-2.06.09-3.08.16-1 .09-2.01.25-3.02.42-4.04.76-8.05 1.84-12.02 2.98l.22-.63.92 1.3.29.41-.46.19-2.6 1.09.22-.26-.38 1.48-.04.15-.13.08c-1.41.88-2.81 1.82-4.15 2.81-1.32 1.01-2.66 2.04-3.63 3.34-1.92 2.68-3.12 5.89-3.82 9.12-.35 1.62-.4 3.3-.51 4.98-.09 1.68-.16 3.36-.21 5.04-.1 3.36-.17 6.76-.22 10.08zm-.09.04c-.04-3.4-.04-6.74-.01-10.11.02-1.68.05-3.36.1-5.05.08-1.68.12-3.38.45-5.05.32-1.67.81-3.3 1.43-4.88.63-1.57 1.37-3.12 2.39-4.52 1.03-1.42 2.4-2.47 3.72-3.52 1.35-1.03 2.74-1.99 4.17-2.9l-.17.23.36-1.48.04-.18.18-.08 2.58-1.13-.17.6-.93-1.29-.34-.47.55-.17c3.98-1.2 7.98-2.32 12.08-3.15 1.03-.19 2.06-.38 3.13-.47 1.05-.08 2.09-.13 3.12-.17 2.08-.08 4.16-.11 6.24-.11 4.16 0 8.32.14 12.47.5 4.15.37 8.3.92 12.35 2.04 2 .65 4.03 1.28 5.84 2.47 1.82 1.13 3.36 2.54 4.87 4.01 2.98 2.95 5.51 6.34 7.53 10.01 1 1.84 1.9 3.74 2.51 5.78.32 1.01.45 2.12.48 3.16.02 1.05.02 2.09-.02 3.13-.16 4.16-.54 8.29-.99 12.42l-.01.1-.07.07c-.51.57-1.02 1.16-1.49 1.76-.22.3-.48.62-.57.9-.11.34-.19.73-.27 1.1-.31 1.51-.55 3.05-.78 4.58l-.12.8-.37-.72-2.39-4.63-.03-.05v-.05l-.47-20.72.05.11-15.58-13.27.28.01-6.99 5.23-.07.05h-.09c-4.24.19-8.47.13-12.7.05-4.23-.08-8.45-.26-12.68-.46l-.17-.01-.12-.13-6.67-7.21.63.02-16.13 14.98.12-.25-1.45 21.44v.03l-.01.03c-.43 1.18-.88 2.35-1.41 3.49-.13.29-.27.57-.43.85-.08.14-.16.28-.26.41-.05.07-.1.13-.17.2-.06.05-.16.16-.36.13-.29-.15-.29-.36-.33-.52-.03-.17-.04-.33-.04-.49-.01-.32.01-.63.02-.95.03-1.23.12-2.53-.51-3.6-.59-1.08-1.41-2.01-2.32-2.9z" fill="#121212" stroke-width="none" opacity="1"></path></g><g id="svga-group-glasses-single-move" transform="matrix(1,0,0,1,0,0)"><g id="svga-group-glasses-single"></g></g></g></g></g><rect id="svga-credit-rect" width="200" height="15" x="0" y="185" fill="#ecf0f1" opacity="0.5" style="display: none;"></rect><text id="svga-credit-text" font-family="Avenir Next, Roboto, Helvetica, Arial, sans-serif" font-size="10px" text-anchor="start" font-weight="400" size="10px" anchor="start" weight="400" fill="#333333" x="33.40447998046875" y="182.60824704170227" style="display: none;"><tspan id="SvgjsTspan31642" dy="13" x="33.40447998046875">Created on AvatarMaker.com</tspan></text></g><defs id="SvgjsDefs31589"></defs></svg>