<svg xmlns="http://www.w3.org/2000/svg" version="1.1" width="600px" height="600px" viewBox="0 0 200 200" style="overflow:hidden!important;"><g id="svga-group-wrapper"><g id="svga-group-backs-single"></g><g id="svga-group-humanwrap-move" transform="matrix(1,0,0,1,0,0)"><g id="svga-group-humanwrap"><g id="svga-group-hair-back-move" transform="matrix(1,0,0,1,0,0)"><g id="svga-group-hair-back"></g></g><g id="svga-group-humanbody-back"><path id="SvgjsPath79016" d="M180.8 184.9c-2.3-3.4-38.9-17.8-38.9-17.8l-13.4-5.2-5.6-68.8H76.8L71.3 162l-13.4 5.2S21.4 181.6 19 185c-2.3 3.4-3.3 14.9-3.3 14.9V219h168.5v-19.2c-.1.1-1-11.5-3.4-14.9z" fill="#f0c7b1" stroke-width="none" opacity="1" stroke="none"></path></g><g id="svga-group-chinshadow-single"><path id="SvgjsPath79263" d="M83.41 160.9c3 1.6 18.4 1.6 21.4 0 2.3-1.22 14.94-13.04 22.02-20.04l-3.89-47.76H76.82l-4.61 58.02c5.18 4.83 9.98 9.09 11.2 9.78z" fill="#d19271" stroke-width="none" opacity="1"></path></g><g id="svga-group-humanbody-front"><path id="SvgjsPath79017" d="M184.5 219c-.1-6.4-.1-12.8-.1-19.2l-.3-.1s.1-.1.2 0c.1 0 .1.1.1.1v-.4l-.1-.5-.1-.9-.2-1.9c-.2-1.3-.4-2.5-.6-3.8-.2-1.3-.5-2.5-.9-3.8-.4-1.2-.8-2.5-1.5-3.6-.8-.9-1.9-1.5-2.9-2.1-1-.6-2.1-1.1-3.2-1.7-2.1-1.1-4.3-2.1-6.5-3.1-4.4-2-8.7-3.9-13.1-5.7-4.4-1.9-8.8-3.7-13.2-5.5l-13-5.2-1.2-16.9c-.4-5.7-.9-11.5-1.3-17.2l-1.3-17.2-1.5-17.3-.1-.8h-.8c-7.7 0-15.4.1-23.1.1l-23.1.2h-.5v.5L75 110.2l-1.3 17.2c-.8 11.4-1.8 22.8-2.8 34.2-5.6 2.1-11.2 4.2-16.7 6.4-5.6 2.2-11.2 4.5-16.8 6.9-2.8 1.2-5.6 2.4-8.3 3.6-2.8 1.3-5.5 2.5-8.2 4.1-.7.4-1.3.8-2 1.4-.2.1-.4.4-.5.6l-.3.6c-.2.4-.4.7-.5 1.1-.6 1.5-1 3-1.3 4.5-.6 3-1.1 6-1.4 9.1l-.1 19.1v.9h.9l42.1.1H100c14 0 28.1-.1 42.1-.2l42.1-.5h.3v-.3zm-84.5-1-42.1-.1-41.2.1-.1-18.1c.3-3 .6-5.9 1.2-8.9.3-1.4.6-2.9 1.1-4.2.1-.3.3-.7.4-.9l.2-.4.3-.3c.5-.4 1.1-.8 1.8-1.2 2.5-1.5 5.3-2.8 8-4.1 2.7-1.3 5.5-2.5 8.2-3.7 5.5-2.4 11.1-4.8 16.7-7.1s11.2-4.5 16.9-6.7l.2-.1v-.2c.9-11.5 1.7-23 2.7-34.4l1.4-17.2 1.5-16.7 22.6.2c7.4.1 14.8.1 22.3.1l1.3 16.4 1.5 17.2c.5 5.7 1 11.5 1.5 17.2l1.6 17.2v.3l.3.1 13.4 5c4.4 1.7 8.9 3.4 13.3 5.2 4.4 1.8 8.8 3.7 13.2 5.6 2.2 1 4.3 2 6.5 3 1.1.5 2.1 1.1 3.2 1.6 1 .6 2.1 1.2 2.9 2 .7 1.1 1.1 2.3 1.4 3.5.3 1.2.6 2.5.8 3.7.2 1.3.4 2.5.6 3.8l.2 1.9.1.9.1.5v.4c0 6.3 0 12.6-.1 18.9l-41.8-.5c-14 .1-28.1 0-42.1 0z" fill="#c27b55" stroke-width="none" opacity="1" stroke="none"></path><path id="SvgjsPath79018" d="M125.1 142.4s-1.8 23-9.1 32.9c0 0 7.9-25 9.1-32.9zm-34.5 16s5 7.9 11.5 10.1c0 0-9.5 2.2-11.5-10.1zM73.4 140c6.7 25.6 6.7 25.6 8.5 30.7 0 0 .4-12.6-8.5-30.7z" fill="#d19271" stroke-width="none" opacity="1" stroke="none"></path></g><g id="svga-group-clothes-single"><path id="SvgjsPath79329" d="m69.9 150.1-1.8.9s-1.4 2.9-2.4 5.1c-1 2.2-4.7 5.9-4.7 5.9s-.6 2.2-.6 2.9c0 0-12.3 4.2-15.9 5.6-3.6 1.4-19.2 6.3-21.3 6.4s-5.1 1.8-5.1 1.8-3 1.7-3.9 4.5c-1 2.8-2.6 34.4-2.6 36.8h175.9s-1.8-32.4-3.5-34.9c-.6-.9-.2-2.6-5.9-5.1s-17-7-20.8-8.5-19.3-7.2-19.3-7.2-.2-2.3-2.3-3.4c-2.1-1.1-5.3-9.8-5.3-9.8l-1.3-1.3s.4 5.1.2 9.6-4.7 11.7-7.9 13.8c-3.2 2.1-9 5.7-11.3 6.6s-2.8 3.4-3.8 5.9-2.6 5.9-2.6 5.9-3.6-4.5-5.3-7.6c-1.7-3.2-4-5.5-8.3-5.1-4.2.4-5.5-.9-7-1.7-1.5-.9-10.6-15.1-11.9-18.7-1.1-3.6-1.3-8.4-1.3-8.4z" fill="#1e78a2" stroke-width="none" opacity="1" stroke="none"></path><path id="SvgjsPath79330" d="M188.3 220c-.4-6.9-.8-13.8-1.3-20.7-.3-3.5-.6-6.9-1.1-10.4-.1-.9-.3-1.7-.5-2.6-.1-.5-.2-.9-.5-1.5l-.1-.2-.1-.2-.3-.6c-.5-1-1.2-1.7-1.9-2.3-.8-.6-1.5-1-2.3-1.5-1.6-.9-3.2-1.4-4.8-2.1l-4.8-2-9.6-4c-6.2-2.5-15.8-5.4-21.9-8.3-.1-.6-.4-1.1-.7-1.6-.4-.7-1-1.3-1.7-1.7l-.3-.1c-.1-.1-.2-.1-.2-.1-.1-.1-.1-.1-.2-.1-.2-.2-.3-.3-.5-.6-.4-.4-.7-1-1-1.5-1.2-2.2-2.2-4.6-3.1-6.9l-.1-.2-.1-.1-1.3-1.3-1.9-1.9.2 2.8c.2 2.3.3 4.6.3 6.9v2.6l-.1.8c-.2 1-.5 2.1-.9 3.1-.8 2.1-2 4.1-3.3 5.9-.7.9-1.4 1.8-2.2 2.5-.4.4-.8.7-1.2 1-.4.3-.9.6-1.4.8-4.1 2.1-4.9 3.8-9.2 5.5-.6.2-1.3.6-1.8 1.1-.5.5-.9 1.1-1.2 1.6-.6 1.1-.9 2.3-1.3 3.3l-.9 2.1c-.5 1-.9 2-1.4 3-1.2-1.6-2.5-3.2-3.6-4.9-.3-.5-.6-1-.9-1.6-.3-.6-.7-1.1-1.1-1.7-.8-1.1-1.8-2.1-3-2.7-1.2-.7-2.6-.9-4-.9-.5.1-3.5.1-7.7-1.7-.5-.2-1.5-1.9-2.3-2.9-.7-1-1.5-2.1-2.2-3.1-1.4-2.1-2.8-4.2-4.1-6.4-.7-1.1-1.3-2.2-1.9-3.3-.6-1.1-1.1-2.1-1.4-3.4.1-1.6.4-4.6.5-5.7 0 0 .1-2.2.1-2.4-1.2-.1-3.2 1.1-3.9 1.4l-1.5 3c-.5 1-.9 2-1.5 2.9-.6.9-1.3 1.8-2 2.6s-1.5 1.6-2.3 2.4l-.1.1v.1c-.1.5-.2 1-.4 1.4-.1.4-.2.8-.2 1.3-3.2 1.4-9.4 2.7-12.6 4.1-3.2 1.4-6.6 2.4-10 3.5-3.4 1-6.8 2.1-10.1 3-.9.2-1.7.5-2.5.7l-1.2.3c-.2 0-.3.1-.6.1-.2 0-.5.1-.7.1-.9.2-1.8.5-2.7.8l-1.2.6-.6.3c-.3.1-.4.3-.6.4-1.5 1.1-2.9 2.5-3.6 4.4-.2.5-.3 1-.3 1.4l-.2 1.3-.3 2.7c-.3 3.5-.6 7.1-.8 10.6l-.7 10.6c-.2 3.6-.4 7-.5 10.6v.9h.9l22-.1 22-.2 22-.2 22-.1c7.3-.1 14.7 0 22 0s14.7 0 22 .1l44 .3h.8l-.3-1.2zm-68.2-44.9c.5-.3 1.1-.6 1.6-.9.5-.3 1.1-.7 1.5-1.2.9-.9 1.7-1.8 2.4-2.8 1.4-1.9 2.6-4 3.6-6.3.4-1.1.8-2.3 1-3.6l.1-1v-2.7c0-1 0-2-.1-3 .7 1.7 1.4 3.3 2.3 4.9.3.6.7 1.2 1.1 1.8.2.3.5.6.8.9.1.1.4.3.6.4l.4.2c.4.3.7.6 1 1 .2.4.4 1 .5 1.4l.1.6v.1c.5 2.7 1.1 5.3 1.7 8 .6 2.6 1.4 5.3 2.2 7.9l2.3 7.8 1.1 3.9c.2.8.5 1.7.7 2.5-1.4-.3-2.7-.7-3.9-1.4-.8-.5-1.4-1-2.3-1.7-.8-.6-1.6-1.3-2.5-1.8-1.7-1.2-3.5-2.2-5.4-3l-1.4-.6c-.4-.2-.9-.4-1.3-.6-.8-.5-1.6-1-2.4-1.6-.8-.6-1.5-1.2-2.2-1.9-.3-.4-.7-.7-.9-1.1-.2-.2-.3-.4-.4-.6l-.2-.3-.3-.4c-1.5-1.7-3.6-2.5-5.6-2.8-.3-.1-.7-.1-1-.1 1.8-.6 3.4-1.3 4.9-2zm-12.8 10.4c.9-2.2.5-4.6 6.9-7.5.9-.1 1.4 0 2.3.2 1.8.4 3.5 1.3 4.5 2.7l.2.2.2.3c.1.1.2.3.3.4 0 0-1.8 1.6-5.9 3.2-1.7.5-3.3.9-5 1.4-1.5.3-2.9.7-4.4.9l.9-1.8zm-4.5 6.1c-1.2 1.9-2.5 3.9-4 5.6l-.4.4c-1.7-3.4-5.1-8.9-6.2-10.7.5.1.9.1 1.4.1 1.9.1 3.8.1 5.7-.1 1.2 1.6 2.3 3.2 3.5 4.7zM91 179.5c1.2 0 2.3.2 3.3.8 1 .6 1.8 1.4 2.5 2.4.3.5.7 1 .9 1.6.3.6.6 1.1 1 1.7l.6.9c-1.9-.1-3.8-.3-5.6-.6-2-.3-4-.6-6-1s-6.6-2.2-8.4-2.7c.5-.6 1-1.1 1.5-1.7.6-.8 1.1-1.4 1.8-1.7.7-.3 1.6-.3 2.4-.3.1 0 5.4.6 6 .6zm-29.6-17.3c.8-.8 1.5-1.6 2.2-2.4.7-.9 1.4-1.7 2-2.7.6-1 .9-2 1.4-3l1.3-3c.5-.3 1-.6 1.6-.9v.8l.1.9c.1.6.1 1.3.2 1.9.2 1.3.4 2.5.7 3.8.3 1.2.9 2.4 1.5 3.6.6 1.1 1.2 2.2 1.8 3.4 1.3 2.2 2.6 4.4 3.9 6.5.7 1.1 1.4 2.1 2.1 3.2.8 1.1 1.4 2.1 2.4 3.1.3.3.6.5.9.6 0 0 .1 0 .1.1-.5 0-.9.1-1.4.2-.5.2-.9.5-1.3.8-.4.4-.6.7-.9 1l-1.9 1.9c-1.3 1.3-2.6 2.5-3.9 3.7-1.3 1.2-2.7 2.4-4 3.6-1.3 1.1-2.8 2.1-4.3 3.1-2.5 1.6-5.1 3.1-7.7 4.5.5-5.5 1-11 1.4-16.5l.7-9.1c.2-2 .3-3.9.5-5.9l.2-.1v-.2c0-.4.1-.9.2-1.4 0-.6.1-1.1.2-1.5zm-5.8 57.2-22-.2-21.1-.1c.3-6.7.6-13.5 1-20.2.2-3.5.4-7.1.8-10.6.1-.9.2-1.8.3-2.6l.2-1.3c0-.2.1-.4.1-.6.1-.2.1-.4.1-.6.5-1.4 1.7-2.7 3.1-3.6.2-.1.4-.2.5-.3l.6-.3c.4-.2.8-.4 1.2-.5.8-.3 1.6-.6 2.4-.8.2 0 .4-.1.6-.1l.7-.1c.5-.1.9-.2 1.3-.3.9-.2 1.7-.5 2.6-.7 3.4-1 6.8-2.1 10.1-3.2s6.8-2.2 10-3.7c3.1-1.4 9.2-2.8 12.3-4.2-.3 1.9-.6 3.7-.9 5.6-.5 3-1 6.1-1.3 9.1-.8 6.1-1.4 12.2-2.1 18.3l-.2 1.8 1.6-.8c3.3-1.6 6.4-3.4 9.5-5.4 1.5-1 3-2.1 4.4-3.4 1.3-1.2 2.7-2.5 3.9-3.8 1.3-1.3 2.6-2.6 3.8-3.9l.3-.3c3.6 1.7 4.4 2.8 8.2 3.6 1.2.2 2.4.4 3.5.6l-.1.1c.1.1 4.8 7.7 6.7 11.6-.1.1-.2.2-.2.4-.4.7-.6 1.5-.7 2.2-.1 1.4.1 2.7.2 3.9l.5 3.7.4 3.7c.2 2.4.5 4.9.9 7.3l-21.2-.1-22-.2zm43.3.3c.2-2.5.2-4.9.2-7.4.1-2.5 0-5.1-.3-7.6-.1-1.2-.2-2.5-.1-3.6.1-.5.2-1 .4-1.4.1-.2.3-.4.4-.6l.3-.3.4-.4c.9-1 1.7-2.1 2.4-3.1.7-1.1 1.3-2.2 2-3.3v-.1l.9-2.4.9-2c1.5.1 3.1-.1 4.6-.3.8-.1 1.5-.3 2.2-.4-1.5 2.6-6.5 11.1-7.8 12.9-1.3 1.8-1.1 3.3-.9 5 0 .4.1.8.1 1.3.1 2.1.8 11.5 1 13.6h-6.1l-.6.1zm22.7 0h-14.9c-.2-2-.9-11.6-1-13.7 0-.5-.1-.9-.1-1.3-.2-1.7-.3-2.9.8-4.4 1.5-2.1 6.3-10.5 6.6-10.9l1.6-2.8c1-.4 1.8-.8 3.4-1.5 2.2-1.2 2.8-1.8 3.9-3 0 .1.1.1.1.1.3.4.7.8 1 1.2.7.8 1.4 1.5 2.2 2.2.8.7 1.6 1.3 2.6 1.8.4.3.9.5 1.4.7l1.4.6c1.8.8 3.4 1.8 5 2.9.8.6 1.6 1.1 2.3 1.8.7.6 1.6 1.4 2.5 1.9 1.9 1.1 3.9 1.7 6.1 1.9l1.3.1-.3-1.3c-.3-1.4-.7-2.7-1.1-4l-1.2-3.9-2.5-7.8c-.8-2.6-1.7-5.1-2.5-7.7-.7-2.4-1.4-4.8-2-7.1 2.9 1.4 9.4 2.8 12.3 4.1 1.6.7 3.1 1.4 4.8 2.1l4.8 2 9.6 3.9 4.8 1.9c1.6.7 3.2 1.2 4.7 2 1.4.8 2.9 1.7 3.5 2.9.1.2.1.3.2.6 0 .1.1.2.2.4.1.1.2.3.2.3.1.1.2.6.3 1 .2.8.3 1.6.5 2.5.5 3.4.8 6.8 1.1 10.2.6 6.6 1.1 13.2 1.5 19.9l-43.2.3c-7.2 0-14.6 0-21.9.1zm-9.9-37.7c.8 0 1.5.7 1.5 1.5s-.7 1.5-1.5 1.5-1.5-.7-1.5-1.5.7-1.5 1.5-1.5zm-10.1 18.4c.8 0 1.5.7 1.5 1.5s-.7 1.5-1.5 1.5-1.5-.7-1.5-1.5.7-1.5 1.5-1.5zm-73.8-4.5c-.2-1.2-.5-2.6-.9-3.8-.4-1.2-.9-2.4-1.3-3.6-1-2.3-2-4.6-3.1-6.9l1.2 3.6 1.2 3.6 1.2 3.6c.4 1.2.6 2.4.8 3.6.4 2.5.6 5 .9 7.5l.4 3.8c.2 1.2.3 2.5.5 3.8 0-2.5 0-5.1-.2-7.6-.2-2.6-.4-5.1-.7-7.6zm150.5-9.2c-.5.6-.9 1.3-1.3 1.9-.8 1.3-1.5 2.7-2.2 4.1-1.4 2.8-2.6 5.7-3.6 8.6v.2c-.2 2.5-.3 5-.4 7.6-.1 2.5-.2 5-.2 7.6.4-2.5.7-5 .9-7.5.3-2.5.5-5 .7-7.5 1.1-2.9 2.2-5.7 3.4-8.6.6-1.4 1.2-2.8 1.9-4.2.7-1.4 1.4-2.8 2.5-3.8-.6.4-1.2 1-1.7 1.6z" fill="#005a83" stroke-width="none" opacity="1" stroke="none"></path><path id="SvgjsPath79331" d="M135.7 164.5c-.1 4.2.8 8.5 1.7 12.6.3 1.3 4.5 13.8 4.4 13.8 0 0-6.8-5.8-8.1-6.6-3.9-2.4-8.2-4.3-12.3-6.2-.3-.1-.5.3-.2.4 7.3 4 15.5 8.1 21.4 14.1.1.1.4 0 .4-.2-3.6-9.2-4.6-18.4-6.7-27.9-.2-.4-.6-.3-.6 0zm43.6 17.9c-5-2.4-10.5-3.8-15.7-5.7-6.6-2.4-16.5-5.3-22.9-8.2-.3-.2-.6.3-.3.5 5.1 3.5 14.5 5.8 20.3 8 5.9 2.2 12.2 4.8 18.4 6.1.3 0 .6-.5.2-.7zm-2.4 2.3c-2.5 2.6-4.7 5.8-5.6 9.2-.1.2.3.4.4.2 1.4-3.4 3-6.4 5.6-9 .1-.3-.2-.6-.4-.4zm6 2.1c0-.4-.6-.4-.6 0 .1 5.9.2 11.8.8 17.6 0 .4.6.4.6 0 .1-5.8-.3-11.8-.8-17.6zm-105-9.3c-6.2 5.9-13 11.3-19.1 17.2-.2.2.1.7.4.5 7.2-4.7 13.5-10.9 19.5-17 .3-.4-.4-1.1-.8-.7z" fill="#3389b1" stroke-width="none" opacity="1" stroke="none"></path></g><g id="svga-group-head" transform="matrix(1,0,0,1,0,0)"><g id="svga-group-ears-left-move" transform="matrix(1,0,0,1,0,0)"><g id="svga-group-ears-left"><path id="SvgjsPath78910" d="M68.53 80.36s-11.15-9.8-12.94-9.96c-1.54-.14-5.36 8.01-7.05 13.16-.45 1.36-.34 2.88.25 4.2 1.62 3.57 5.21 11.04 8.43 14.78 0 0 2.72.59 3.58.33.86-.25 7.58-5.67 8.27-7.77s.83-11.3-.54-14.74z" fill="#f0c7b1" stroke-width="none" opacity="1" stroke="none"></path><path id="SvgjsPath78911" d="M69.49 84.19c.18 1.31.28 2.64.33 3.96.05 1.32.06 2.65-.01 3.98a26.7 26.7 0 0 1-.17 1.99c-.05.34-.1.67-.2 1.02s-.28.7-.46.96c-.72 1.11-1.6 1.95-2.47 2.8-.88.84-1.78 1.63-2.71 2.4-.47.38-.93.75-1.42 1.11-.24.18-.49.35-.74.52l-.4.24c-.16.08-.35.17-.53.19-.67.08-1.23-.01-1.82-.09-.58-.08-1.15-.19-1.73-.32l-.13-.03-.08-.1c-1.45-1.74-2.63-3.68-3.74-5.65-1.1-1.98-2.1-4.03-3.06-6.1l-1.41-3.11c-.5-1.05-.71-2.29-.54-3.46.06-.59.26-1.14.44-1.67.18-.54.37-1.07.56-1.6.4-1.05.79-2.11 1.22-3.15.86-2.07 1.76-4.13 2.94-6.02.3-.47.62-.93 1-1.36.19-.21.4-.42.67-.59.13-.08.3-.16.52-.16.19.01.32.07.47.12 1.06.47 1.87 1.14 2.75 1.76 1.72 1.29 3.37 2.66 5 4.09 1.64 1.41 3.22 2.86 4.81 4.38.49 1.27.72 2.58.91 3.89zM58.4 72.51c-.85-.59-1.75-1.26-2.59-1.61-.09-.02-.2-.08-.26-.08-.04 0-.12.02-.2.07-.17.1-.35.25-.51.44-.34.36-.65.8-.94 1.24-1.16 1.8-2.18 3.77-3.11 5.77-.46 1.01-.92 2.02-1.32 3.06-.2.52-.4 1.04-.59 1.57-.19.53-.38 1.05-.45 1.6-.15 1.11.06 2.27.55 3.26.47 1.03.98 2.05 1.49 3.05 1.02 2.02 2.12 3.99 3.26 5.91 1.15 1.91 2.36 3.79 3.76 5.42l-.21-.13c1.09.2 2.3.43 3.29.33.11-.01.18-.06.28-.11l.35-.22.7-.5c.47-.34.93-.71 1.39-1.08.92-.74 1.81-1.52 2.68-2.34.85-.82 1.73-1.66 2.39-2.61.17-.25.29-.46.38-.72.08-.27.14-.58.19-.89.09-.63.17-1.27.21-1.91.1-1.29.14-2.6.15-3.9.01-1.31-.04-2.62-.15-3.92-.11-1.3-.27-2.62-.66-3.84-3.33-2.62-6.67-5.35-10.08-7.86z" fill="#e1ac8f" stroke-width="none" opacity="1" stroke="none"></path><path id="SvgjsPath78912" d="M68.79 88.66S58.04 75.08 56.02 76.21c-2.01 1.12-5.19 7.53-5.18 9.67.02 3.14 3.34 8.38 5.01 9.96s3.68 2.55 6.35 1.94c2.66-.61 6.59-9.12 6.59-9.12z" fill="#e1ac8f" stroke-width="none" opacity="1" stroke="none"></path><path id="SvgjsPath78913" d="M60.61 88.64c-.45-1.26-.95-2.5-1.45-3.74a49.61 49.61 0 0 0-1.66-3.64c-.61-1.18-1.22-2.36-1.97-3.45l-.08-.12-.08.12c-.75 1.18-1.45 2.38-2.12 3.62-.33.62-.66 1.25-.96 1.89-.31.64-.57 1.31-.84 1.98l-.04.1.04.12c.46 1.41.96 2.79 1.47 4.18.25.69.54 1.37.83 2.05.3.68.59 1.35.99 2.01l.19.31.25-.23c.34-.31.6-.65.87-1.02.26-.37.49-.76.69-1.17.4-.82.63-1.78.6-2.74v-.06l-.02-.04c-.5-.99-1.03-1.96-1.55-2.94l-.05.03c.42 1.01.83 2.03 1.26 3.03-.04.86-.3 1.68-.68 2.41-.33.62-.77 1.17-1.24 1.65-.26-.49-.5-1.02-.73-1.56l-.81-2.03c-.53-1.32-1.03-2.66-1.52-3.99.45-1.3.94-2.59 1.52-3.82.57-1.23 1.22-2.41 1.96-3.51.67 1.04 1.17 2.23 1.68 3.39l1.54 3.67 1.56 3.67c.52 1.22 1.05 2.45 1.6 3.66l.06-.03c-.41-1.27-.85-2.54-1.31-3.8z" fill="#c27b55" stroke-width="none" opacity="1" stroke="none"></path></g></g><g id="svga-group-ears-right-move" transform="matrix(1,0,0,1,0,0)"><g id="svga-group-ears-right"><path id="SvgjsPath78914" d="M131.47 80.36s11.15-9.8 12.94-9.96c1.54-.14 5.36 8.01 7.05 13.16.45 1.36.34 2.88-.25 4.2-1.62 3.57-5.21 11.04-8.43 14.78 0 0-2.72.59-3.58.33-.86-.25-7.58-5.67-8.27-7.77s-.83-11.3.54-14.74z" fill="#f0c7b1" stroke-width="none" opacity="1" stroke="none"></path><path id="SvgjsPath78915" d="M131.44 80.33c1.58-1.52 3.17-2.97 4.81-4.38 1.62-1.42 3.28-2.8 5-4.09.88-.63 1.69-1.29 2.75-1.76.16-.04.28-.11.47-.12.21 0 .38.08.52.16.28.17.49.37.67.59.38.43.7.89 1 1.36 1.18 1.89 2.07 3.96 2.94 6.02.43 1.04.82 2.09 1.22 3.15.19.53.38 1.06.56 1.6.18.53.37 1.08.44 1.67.17 1.17-.04 2.41-.54 3.46l-1.41 3.11c-.97 2.06-1.96 4.11-3.06 6.1-1.11 1.98-2.29 3.92-3.74 5.65l-.08.1-.13.03c-.58.13-1.15.23-1.73.32-.59.07-1.16.16-1.82.09-.18-.02-.37-.11-.53-.19l-.4-.24c-.25-.17-.5-.34-.74-.52-.48-.36-.95-.73-1.42-1.11-.93-.76-1.83-1.56-2.71-2.4-.87-.86-1.75-1.69-2.47-2.8a3.42 3.42 0 0 1-.46-.96c-.1-.35-.14-.69-.2-1.02-.08-.67-.14-1.33-.17-1.99-.07-1.33-.07-2.65-.01-3.98.06-1.32.15-2.65.33-3.96.17-1.34.4-2.65.91-3.89zm.06.06c-.4 1.21-.56 2.54-.66 3.84-.1 1.3-.15 2.61-.15 3.92.01 1.31.06 2.61.15 3.9.05.65.12 1.29.21 1.91.06.31.11.62.19.89.09.26.2.47.38.72.66.94 1.54 1.79 2.39 2.61.86.81 1.76 1.59 2.68 2.34.46.37.92.73 1.39 1.08l.7.5.35.22c.1.05.17.1.28.11.99.1 2.2-.13 3.29-.33l-.21.13c1.4-1.63 2.61-3.51 3.76-5.42 1.14-1.92 2.24-3.89 3.26-5.91.51-1.01 1.02-2.02 1.49-3.05.49-.99.7-2.15.55-3.26-.07-.56-.26-1.07-.45-1.6s-.38-1.05-.59-1.57c-.4-1.04-.86-2.06-1.32-3.06-.93-2.01-1.95-3.97-3.11-5.77-.29-.44-.6-.88-.94-1.24-.17-.18-.35-.34-.51-.44a.431.431 0 0 0-.2-.07c-.06 0-.17.06-.26.08-.84.35-1.74 1.02-2.59 1.61-3.39 2.49-6.73 5.22-10.08 7.86z" fill="#e1ac8f" stroke-width="none" opacity="1" stroke="none"></path><path id="SvgjsPath78916" d="M131.21 88.66s10.75-13.58 12.77-12.45c2.01 1.12 5.19 7.53 5.18 9.67-.02 3.14-3.34 8.38-5.01 9.96s-3.68 2.55-6.35 1.94c-2.66-.61-6.59-9.12-6.59-9.12z" fill="#e1ac8f" stroke-width="none" opacity="1" stroke="none"></path><path id="SvgjsPath78917" d="M148.54 85.31c-.26-.67-.52-1.34-.84-1.98-.3-.64-.62-1.27-.96-1.89-.67-1.24-1.38-2.44-2.12-3.62l-.08-.12-.08.12c-.74 1.1-1.36 2.27-1.97 3.45-.6 1.18-1.14 2.4-1.66 3.64-.49 1.24-1 2.48-1.45 3.74-.46 1.26-.9 2.53-1.28 3.81l.06.03c.55-1.21 1.07-2.44 1.6-3.66l1.56-3.67 1.54-3.67c.51-1.16 1.01-2.35 1.68-3.39.74 1.1 1.39 2.29 1.96 3.51.58 1.24 1.08 2.52 1.52 3.82-.5 1.34-.99 2.67-1.52 3.99l-.81 2.03c-.23.53-.47 1.07-.73 1.56-.47-.48-.91-1.03-1.24-1.65-.39-.73-.64-1.55-.68-2.41.43-1 .84-2.02 1.26-3.03l-.05-.03c-.52.98-1.05 1.95-1.55 2.94l-.02.04v.06c-.03.96.2 1.92.6 2.74.2.41.43.81.69 1.17.26.36.53.71.87 1.02l.25.23.19-.31c.4-.67.69-1.34.99-2.01.29-.68.57-1.36.83-2.05.51-1.38 1.01-2.77 1.47-4.18l.04-.12-.07-.11z" fill="#c27b55" stroke-width="none" opacity="1" stroke="none"></path></g></g><g id="svga-group-faceshape-wrap"><g id="svga-group-faceshape-single"><path id="SvgjsPath79253" d="M140.4 54.9c-2.2-10-6.3-16-15.2-20.8-9.3-5-25.2-4.8-25.2-4.8s-15.9-.2-25.2 4.8c-8.8 4.8-13 10.8-15.2 20.8-.9 4 0 13.6 0 13.6S62 90.8 62 97.3s-.8 25.8.6 27.9c1.4 2.1 23.7 23.4 26.7 25.1 3 1.6 18.4 1.6 21.4 0s25.3-23 26.7-25.1c1.4-2.1.6-21.4.6-27.9s2.3-28.9 2.3-28.9 1-9.5.1-13.5z" fill="#f0c7b1" stroke-width="none" opacity="1"></path><path id="SvgjsPath79254" d="M140.4 54.9c-2.2-10-6.3-16-15.2-20.8-9.3-5-25.2-4.8-25.2-4.8s-15.9-.2-25.2 4.8c-8.8 4.8-13 10.8-15.2 20.8-.9 4 0 13.6 0 13.6S62 90.8 62 97.3s-.8 25.8.6 27.9c1.4 2.1 23.7 23.4 26.7 25.1 3 1.6 18.4 1.6 21.4 0s25.3-23 26.7-25.1c1.4-2.1.6-21.4.6-27.9s2.3-28.9 2.3-28.9 1-9.5.1-13.5zm0 10.1c-.1 1.1-.2 2.3-.3 3.4-.8 6.8-1.6 13.6-2.3 20.4-.2 1.7-.3 3.4-.5 5.1-.1 1.7-.2 3.5-.2 5.2V114.4c0 1.7-.1 3.4-.1 5.1 0 .8-.1 1.7-.2 2.5 0 .4-.1.8-.1 1.2 0 .4-.1.8-.2 1.1l-.1.2-.3.4-.8.9-1.8 1.8c-2.4 2.4-4.9 4.8-7.3 7.1-2.5 2.3-4.9 4.7-7.4 7-1.2 1.2-2.5 2.3-3.8 3.4-1.3 1.1-4.41 3.72-4.75 3.97-.21.15-.45.26-.7.32-.61.15-1.86.44-2.45.51-1.6.2-3.3.3-5 .4-1.7.1-3.4.1-5 0-1.7-.1-5.7-.5-6.1-.6s-1.32-.32-1.8-.8l-1-.8c-1.3-1.1-2.6-2.2-3.8-3.3-2.5-2.2-5.1-4.5-7.6-6.9-2.5-2.3-5-4.6-7.5-7-1.2-1.2-2.5-2.3-3.7-3.5l-.9-.9-.9-.9c-.2-.2-.85-.55-1.05-1.81-.1-.8-.15-1.59-.25-2.49-.1-.8-.1-1.7-.1-2.5-.1-1.7-.1-3.4-.1-5.1V98.4c0-1.7-.1-3.4-.2-5.1-.5-6.8-1.1-13.6-1.7-20.4l-.1-2.9c-.1-.9-.2-1.7-.2-2.5-.1-1.7-.2-3.4-.2-5.1 0-1.7 0-3.4.1-5 .1-.8.2-1.6.4-2.4.2-.8 2.3-6.8 2.5-7.1.7-1.5 1.5-2.9 2.5-4.3 1-1.3 2.1-2.5 3.3-3.7 1.2-1.1 2.5-2.1 3.9-3s2.9-1.7 4.3-2.4c.4-.2 2.2-.9 2.2-.9s2-.7 2.4-.8c3.2-.9 6.5-1.5 9.9-1.9 3.3-.4 6.7-.6 10.1-.6 1.7 0 3.4.1 5.1.2.8 0 1.7.1 2.5.2s1.7.2 2.5.3c3.3.4 6.7 1 9.9 2.1 1.6.6 3.1 1.2 4.6 2 .4.2.7.4 1.1.6l1.1.7c.7.5 1.4.9 2.1 1.4 2.7 2 5 4.6 6.6 7.6.8 1.5 1.5 3.1 2 4.7.6 1.6.9 3.29 1.3 4.89.2 1.1.31 2.5.31 3.7 0 1.11-.11 5.21-.21 6.31z" fill="#c27b55" stroke-width="none" opacity="1"></path></g></g><g id="svga-group-mouth-single-move" transform="matrix(1,0,0,1,0,0)"><g id="svga-group-mouth-single"><path id="SvgjsPath79112" d="M119.75 120.2c-2.07.95-4.03 1.44-5.29 1.57-4.78.49-8.33.87-12.75 2.53-1.8.7-2.7.9-4.5.4-1.4-.4-2.8-.7-4.2-.9-2.1-.32-4.18.13-6.29.2-1.2.04-2.44-.29-3.84-.62-.7 0-1.25.22.14.97 3.11 1.68 5.12 1.2 8.62 2 2.4.5 6.2 3.44 8.6 2.64 3-1 6.57-3.23 9.57-4.23 3.3-1 4.76-.51 9.4-3.4.65-.45.99-1.37.54-1.16z" fill="#da7c87" stroke-width="none" opacity="1" stroke="none"></path></g></g><g id="svga-group-eyes-left-move" transform="matrix(1,0,0,1,0,0)"><g id="svga-group-eyes-left"><g id="svga-group-eyesback-left"><path id="SvgjsPath78952" d="M80.2 74.2c7.5 0 13.5 5.8 13.5 13s-6 13-13.5 13-13.5-5.8-13.5-13 6-13 13.5-13z" fill="#ffffff" stroke-width="none" opacity="1"></path></g><g id="svga-group-eyesiriswrapper-left" transform="matrix(1,0,0,1,0,0)"><g id="svga-group-eyesiriscontrol-left" transform="matrix(1,0,0,1,0,0)"><g id="svga-group-eyesiris-left"><path id="SvgjsPath79033" d="M80.2 81.6c3.1 0 5.6 2.5 5.6 5.6s-2.5 5.6-5.6 5.6-5.6-2.5-5.6-5.6 2.5-5.6 5.6-5.6z" fill="#7085b3" stroke-width="none" opacity="1"></path><path id="SvgjsPath79034" d="M80.2 82.7c2.5 0 4.5 2 4.5 4.5s-2 4.5-4.5 4.5-4.5-2-4.5-4.5 2-4.5 4.5-4.5z" fill="#000000" stroke-width="none" opacity="1"></path><path id="SvgjsPath79035" d="M74.6 87.2c0 .9.2 1.8.6 2.6.8.5 1.8.8 2.8.8 2.9 0 5.3-2.4 5.3-5.3 0-1.2-.4-2.4-1.1-3.3-.6-.2-1.3-.4-2-.4-3.1 0-5.6 2.5-5.6 5.6z" fill="#8d9ec2" stroke-width="none" opacity="1"></path><path id="SvgjsPath79036" d="M75.7 87.2c0 1.3.5 2.4 1.4 3.3.3.1.6.1 1 .1 2.9 0 5.3-2.4 5.3-5.3 0-.5-.1-1.1-.2-1.6-.8-.7-1.8-1.1-2.9-1.1-2.6.1-4.6 2.1-4.6 4.6z" fill="#1e1e1e" stroke-width="none" opacity="1"></path><path id="SvgjsPath79037" d="M77.7 84.8c.6-.7 1.6-.9 2-.4.5.5.4 1.4-.3 2.1s-1.6.9-2 .4c-.4-.5-.3-1.4.3-2.1z" fill="#2b2b2b" stroke-width="none" opacity="1"></path></g></g></g><g id="svga-group-eyesfront-left"><path id="SvgjsPath78960" d="M80.2 73.7c-7.8 0-14.1 6.1-14.1 13.6s6.3 13.6 14.1 13.6 14.1-6.1 14.1-13.6S88 73.7 80.2 73.7zm-1.3 22.6c-7.8 0-10.2-4.1-10.2-4.1 2.7-9.7 7.8-15.2 13.5-12.6 5.7 2.6 7.3 8.8 7.3 9.8-.1 1.1-2.9 6.8-10.6 6.9z" fill="#f0c7b1" stroke-width="none" opacity="1" stroke="none"></path><path id="SvgjsPath78961" d="M82.2 96.1c2.4-.6 4.6-2.1 6.1-4 .4-.5.7-1 1-1.6.1-.3.3-.6.3-.9s0-.6-.1-.9c-.2-1.2-.7-2.4-1.3-3.5-1.1-2.2-2.9-4.1-5-5.3-1.1-.6-2.3-1.1-3.6-1.1-1.3-.1-2.6.3-3.6.9-1.1.7-2 1.5-2.8 2.5-.4.5-.8 1-1.1 1.5-.2.3-.3.5-.5.8l-.4.8c-1.1 2.2-1.9 4.5-2.5 6.9.7 1.1 1.7 1.9 2.7 2.5 1.1.6 2.2 1.1 3.4 1.3 1.2.3 2.4.4 3.7.4.6 0 1.2 0 1.9-.1.5 0 1.2 0 1.8-.2zm-2.8-.1h-.9c-1.2 0-2.4-.1-3.6-.4-1.2-.2-2.3-.6-3.4-1.2s-2.1-1.3-2.8-2.3c.7-2.3 1.6-4.6 2.8-6.7l.4-.8c.2-.3.3-.5.5-.8.3-.5.7-1 1.1-1.4.8-.9 1.7-1.7 2.7-2.3 1-.6 2.2-.9 3.3-.9 1.2 0 2.3.4 3.4 1 2.1 1.2 3.8 2.9 5 5.1.6 1.1 1.1 2.2 1.3 3.4.1.3.1.6.1.9-.1.3-.2.6-.3.8-.3.6-.6 1.1-1 1.5-1.5 1.9-3.7 3.2-6 3.7-.6.2-1.2.2-1.8.3-.2.1-.5.1-.8.1z" fill="#000000" stroke-width="none" opacity="1" stroke="none"></path><path id="SvgjsPath78962" d="M73.3 78.5c4-3.4 9.5-2 9.5-2-1.7-1.1-8.5-1.9-11.5 2.9s-3.4 12.3-3.4 12.3 1.4-9.9 5.4-13.2zm16.5 11.9C88.1 99.5 80 101 80 101c10.8-1.9 9.8-10.6 9.8-10.6z" fill="#d19271" stroke-width="none" opacity="1" stroke="none"></path></g></g></g><g id="svga-group-eyes-right-move" transform="matrix(1,0,0,1,0,0)"><g id="svga-group-eyes-right"><g id="svga-group-eyesback-right"><path id="SvgjsPath78953" d="M119.8 74.2c7.5 0 13.5 5.8 13.5 13s-6 13-13.5 13-13.5-5.8-13.5-13 6-13 13.5-13z" fill="#ffffff" stroke-width="none" opacity="1"></path></g><g id="svga-group-eyesiriswrapper-right" transform="matrix(1,0,0,1,0,0)"><g id="svga-group-eyesiriscontrol-right" transform="matrix(1,0,0,1,0,0)"><g id="svga-group-eyesiris-right"><path id="SvgjsPath79038" d="M119.8 82.3c2.7 0 4.9 2.2 4.9 4.9s-2.2 4.9-4.9 4.9-4.9-2.2-4.9-4.9 2.2-4.9 4.9-4.9z" fill="#7085b3" stroke-width="none" opacity="1"></path><path id="SvgjsPath79039" d="M119.8 83.2c2.2 0 4 1.8 4 4s-1.8 4-4 4-4-1.8-4-4 1.8-4 4-4z" fill="#000000" stroke-width="none" opacity="1"></path><path id="SvgjsPath79040" d="M114.9 87.2c0 .8.2 1.6.6 2.3.7.4 1.5.7 2.4.7 2.6 0 4.6-2.1 4.6-4.6 0-1.1-.4-2.1-1-2.9-.5-.2-1.1-.3-1.7-.3-2.7-.1-4.9 2.1-4.9 4.8z" fill="#8d9ec2" stroke-width="none" opacity="1"></path><path id="SvgjsPath79041" d="M115.8 87.2c0 1.1.5 2.2 1.2 2.9.3.1.6.1.8.1 2.6 0 4.6-2.1 4.6-4.6 0-.5-.1-.9-.2-1.4-.7-.6-1.6-.9-2.5-.9-2.1-.1-3.9 1.7-3.9 3.9z" fill="#1e1e1e" stroke-width="none" opacity="1"></path><path id="SvgjsPath79042" d="M117.6 86.1c.6-.6 1.4-.8 1.8-.4.4.4.3 1.2-.2 1.8s-1.4.8-1.8.4c-.4-.4-.3-1.2.2-1.8z" fill="#2b2b2b" stroke-width="none" opacity="1"></path></g></g></g><g id="svga-group-eyesfront-right"><path id="SvgjsPath78963" d="M119.8 73.7c-7.8 0-14.1 6.1-14.1 13.6s6.3 13.6 14.1 13.6 14.1-6.1 14.1-13.6-6.3-13.6-14.1-13.6zm1.4 21.3c-7-.5-9.3-5.5-9.3-6.4s1.7-6 7.1-7.8 11.1 3.8 10.9 11.1c0 0-1.6 3.6-8.7 3.1z" fill="#f0c7b1" stroke-width="none" opacity="1" stroke="none"></path><path id="SvgjsPath78966" d="M124.4 81c-1-.5-2.1-.8-3.2-.8s-2.2.3-3.2.7c-2 .9-3.7 2.4-4.8 4.2-.6.9-1 1.9-1.3 2.9-.1.2-.1.6-.1.8.1.3.2.5.3.8.2.5.5.9.8 1.4 1.3 1.7 3.1 3 5.2 3.7 2.1.7 4.3.7 6.4.4 1.1-.2 2.1-.5 3.1-1 .5-.3.9-.6 1.3-.9.4-.4.8-.8 1-1.3.1-2.1-.2-4.3-1.2-6.2-.9-2-2.3-3.7-4.3-4.7zm3.1 12.8c-.9.4-2 .7-3 .8-1 .1-2.1.1-3.1.1-1-.1-2.1-.2-3.1-.5-2-.6-3.9-1.7-5.2-3.3-.3-.4-.6-.9-.8-1.3-.1-.2-.2-.5-.3-.7-.1-.2 0-.5.1-.7.3-1 .8-1.9 1.4-2.8 1.2-1.7 2.8-3.1 4.7-3.9.9-.4 1.9-.7 3-.6 1 0 2 .3 2.9.8 1.8.9 3.3 2.5 4.3 4.4 1 1.8 1.5 3.9 1.5 6.1-.5.5-1.4 1.2-2.4 1.6z" fill="#000000" stroke-width="none" opacity="1" stroke="none"></path><path id="SvgjsPath78967" d="M126.3 80.5c3.4 3 4.3 11.1 4.3 11.1s0-6.1-2.5-10.2-8.4-3.3-9.9-2.5c0 0 4.7-1.4 8.1 1.6zm-14.8 8.8s-.4 5.3 4.1 8.1c0 0-3.2-3-4.1-8.1zm7.9 9c8 1.2 10.4-5.1 10.4-5.1-3.9 5.5-9.5 5.2-10.4 5.1z" fill="#d19271" stroke-width="none" opacity="1" stroke="none"></path></g></g></g><g id="svga-group-facehighlight-single"></g><g id="svga-group-eyebrows-left-move" transform="matrix(1,0,0,1,0,0)"><g id="svga-group-eyebrows-left-rotate" transform="matrix(0.9978589232386035,-0.0654031292301432,0.0654031292301432,0.9978589232386035,-4.6301610844897425,5.363243807652765)"><g id="svga-group-eyebrows-left"><path id="SvgjsPath78878" d="M93.2 68.2s-1.8 4.7-3.3 5.6-18.1.7-18.1.7-4.2 2.2-5.5 3.9l3.3-8.3.4.4 10.4-1.7-1.2.8 13-1.7-1.3 2.2 2.3-1.9z" fill="#2a232b" stroke-width="none" opacity="1"></path><path id="SvgjsPath78879" d="m66 79.1.4-.6c.3-.4.7-.8 1.1-1.2.2-.2.4-.3.7-.5.2-.2.5-.3.7-.5.5-.3 1-.6 1.4-.9s1-.6 1.5-.8c2.2.1 4.3.1 6.4.1 2.2 0 4.3 0 6.5-.1 1.1-.1 2.2-.1 3.2-.2.5-.1 1.1-.1 1.6-.3l.2-.1c.1 0 .1-.1.2-.1.1-.1.2-.2.3-.2l.3-.3.2-.3c.3-.4.5-.8.8-1.2l.6-1.2c.2-.4.4-.8.5-1.2.1-.2.2-.4.2-.6l.1-.3.1-.2v-.2l-1.2.9c-.3.2-.5.4-.8.6l1.1-1.8.1-.2h-.3l-3.3.4-3.3.4c-1.1.1-2.2.3-3.3.4l-2.2.3.4-.2.9-.6-1.1.2-2.6.4-2.6.4-5.1.8-.4-.3-.2-.2-.1.3-1.6 4.2-.4 2.2c-.3.7-.5 1.4-.8 2.1l-.2.6zm.6-1.1c.2-.5.4-1.1.7-1.6l.8-2.1 1.6-3.8.2.2.1.1h.1l5.2-.8 2.6-.4 1.5-.2-.4.1-.8.5 1.1-.1 3.3-.4c1.1-.1 2.2-.3 3.2-.5l3.2-.5 3-.4-1.1 2-.3.5.4-.4 1.1-.9c.4-.3.7-.6 1.1-1l-.1.1v.1l-.1.1-.1.3-.3.6-.6 1.2c-.4.8-.9 1.6-1.4 2.3l-.2.3-.2.2c-.1.1-.2.1-.3.2l-.1.1-.2.1c-.5.1-1 .2-1.6.2-1.1.1-2.1.2-3.2.2-2.2.1-4.3.1-6.5.2-2.2 0-4.3.1-6.5.1-1 .6-2 1.1-3 1.8-.5.3-.9.7-1.4 1-.3.1-.6.4-.8.6zm23.1-9c-.6.3-1.1.7-1.6 1-.5.3-1.1.7-1.6 1.1-.5.4-1 .7-1.6 1.1s-1 .8-1.5 1.1l.4.2c.2-.7.3-1.3.4-2l.1-.4-.4.3c-.6.5-1.2 1-1.7 1.5.7-.4 1.3-.8 1.9-1.3l-.3-.1c-.2.7-.4 1.3-.6 1.9l-.2.6.6-.4c.5-.4 1-.7 1.5-1.1l1.5-1.2 1.5-1.2c.6-.3 1.1-.7 1.6-1.1zm-10.9 1.6c-.7.4-1.4.9-2.2 1.4-.7.5-1.4.9-2.1 1.4l.4.2c.1-.3.2-.6.4-1 .1-.3.2-.6.4-1l.2-.5-.5.2c-.5.2-1.1.5-1.6.7s-1 .5-1.5.8c-.5.3-1 .6-1.4.9-.4.3-.9.7-1.2 1.1.4-.3.9-.6 1.4-.9.5-.3 1-.6 1.5-.8.5-.2 1-.5 1.5-.7.5-.2 1-.5 1.6-.7l-.3-.2c-.1.3-.2.6-.4 1-.1.3-.2.6-.3 1l-.2.6.6-.4c.7-.5 1.3-1 2-1.5.4-.5 1.1-1 1.7-1.6z" fill="#1b141c" stroke-width="none" opacity="1"></path></g></g></g><g id="svga-group-eyebrows-right-move" transform="matrix(1,0,0,1,0,0)"><g id="svga-group-eyebrows-right-rotate" transform="matrix(0.9914448613738104,-0.13052619222005174,0.13052619222005174,0.9914448613738104,-8.666771635822414,16.370577509012442)"><g id="svga-group-eyebrows-right"><path id="SvgjsPath78880" d="M108.2 71.1s2.3 4.4 3.6 5.2c1.4.7 15.7-1.3 15.7-1.3s4 1.7 5.3 3.2l-4-7.8-.3.4-9.2-.5 1.2.6-11.5-.2 1.4 2-2.2-1.6z" fill="#2a232b" stroke-width="none" opacity="1"></path><path id="SvgjsPath78881" d="M132.9 78.2c-.3-.7-.7-1.3-1-2l-1-2-2-3.9-.1-.3-.2.2-.3.3-4.5-.3-2.3-.1-2.3-.1-1-.1.9.5.4.2H108.7l.1.2 1.2 1.6c-.2-.2-.5-.3-.8-.5-.4-.2-.8-.5-1.1-.8v.2l.1.2.2.3.3.6c.2.4.4.8.7 1.2.2.4.5.8.7 1.1s.5.7.8 1.1l.2.3.3.2c.1.1.2.1.3.2.1 0 .1.1.2.1h.2c.5.1 1 .1 1.4.1.9 0 1.9-.1 2.8-.2 1.9-.1 3.7-.4 5.6-.6 1.8-.2 3.7-.5 5.5-.8.5.2.9.4 1.4.6.5.2.9.5 1.4.7.2.1.4.3.7.4.2.1.4.3.6.4.4.3.8.6 1.1 1l.4.5-.1-.5zm-1.2-1.1c-.4-.3-.9-.6-1.3-.8-.9-.5-1.8-1-2.8-1.4-1.8.2-3.7.5-5.6.7-1.9.2-3.7.4-5.6.6-.9.1-1.9.2-2.8.2-.5 0-.9 0-1.4-.1H111.9c-.1-.1-.2-.1-.3-.2l-.2-.2-.2-.2c-.6-.7-1.1-1.4-1.6-2.2-.2-.4-.5-.8-.7-1.1l-.3-.6-.2-.3-.1-.2v-.1l-.1-.1c.4.3.7.6 1.1.8l1.1.8.4.3-.3-.4-1.3-1.8 2.6.1 2.9.1c.9 0 1.9.1 2.9.1l2.9.1h.9l-.8-.4-.3-.2 1.3.1 2.3.1 4.6.2h.1l.1-.1.1-.2 1.9 3.6 1 1.9c.3.5.5 1 .8 1.5-.2-.2-.5-.4-.8-.6zm-20.4-5.6c.5.3 1 .6 1.6.8s1 .6 1.5.9l1.5.9 1.5.9-.3.2c-.2-.6-.4-1.3-.7-1.9l-.1-.4.3.3c.6.4 1.1.8 1.7 1.3-.6-.3-1.2-.7-1.8-1.1l.2-.2c.3.6.5 1.2.8 1.9l.2.6-.5-.3-1.5-.9c-.5-.3-1-.6-1.5-1s-1-.7-1.4-1c-.5-.3-1-.7-1.5-1zm9.6.3c.7.3 1.4.7 2.1 1.1s1.3.8 2 1.2l-.3.2c-.2-.3-.3-.6-.5-.9-.2-.3-.3-.6-.5-.9l-.2-.4.5.2c.5.2 1 .3 1.5.5s.9.4 1.4.6c.5.2.9.5 1.4.8.4.3.9.6 1.2.9-.4-.3-.9-.5-1.3-.8-.5-.2-.9-.4-1.4-.6-.5-.2-.9-.4-1.4-.6-.5-.2-1-.3-1.4-.5l.3-.3c.2.3.3.6.4.9.2.3.3.6.4.9l.3.6-.6-.4c-.7-.4-1.3-.8-1.9-1.3-.7-.3-1.4-.7-2-1.2z" fill="#1b141c" stroke-width="none" opacity="1"></path></g></g></g><g id="svga-group-beardwrap"><g id="svga-group-beard-single-move" transform="matrix(1,0,0,1,0,4)"><g id="svga-group-beard-single"><path id="SvgjsPath79243" d="M123.7 115.7c-4.9-3.5-12.5 1.2-16.6 1.8-4.1.6-10 .1-10 .1s-5.9-1.2-13.2-3.7c-3.1-1.1-6-1.3-9.2 1.8-3.2 3.1-4.9 8.7-3.9 15.6l.7-1.2s-.3 9.7 2.5 14.5l.8-1.9s.7 4.3 6.6 11.2c3.7 4.5 11.7 5.4 15.5 5.6l-.2-1.4s3.5 2.6 10.3.4v.6s11.1-.1 16.4-12.6l.1 1.8s2.2-4.6 3.8-12c1.6-7.6 1.2-17.2-3.6-20.6zm-10.1 21.9c-2.5 2.6-10.5 4.7-19.4 3-5.2-1-12.4-6.7-15.6-14.9-1.5-4-1.6-7.5.6-9.1 2.4-1.9 7.6 1.1 11.3 2.3s8.4 1.4 10 1.4c3.8-.2 10.3-1.7 14.4-2.8 3-.8 5.4-1.8 6.9 1.3 1.5 3-2.4 13-8.2 18.8z" fill="#95704a" stroke-width="none" opacity="1" stroke="none"></path><path id="SvgjsPath79244" d="M127.8 123c-.3-1.4-.7-2.8-1.4-4.1-.7-1.3-1.6-2.5-2.7-3.3-1.9-1.4-4.4-1.5-6.6-1.1-2.3.4-4.4 1.1-6.6 1.8-1.1.3-2.2.7-3.3.9-1.1.2-2.2.2-3.4.2-2.2 0-4.5-.1-6.8-.3-3.2-.7-6.5-1.7-9.7-2.7l-2.4-.8c-.8-.3-1.6-.6-2.4-.8-1.7-.4-3.6-.5-5.2.3-1.6.7-2.9 1.9-4 3.3-1 1.4-1.8 3-2.3 4.6-1 3.3-1 6.8-.5 10.1l.1.5.3-.4.4-.6c0 2.3.2 4.5.4 6.8.2 1.2.4 2.5.7 3.7.3 1.2.7 2.4 1.3 3.5l.2.3.2-.4.6-1.4c.6 2.3 1.8 4.3 3 6.3.7 1.1 1.4 2.1 2.2 3.1.8 1 1.5 2 2.6 2.8 2 1.7 4.4 2.6 6.9 3.3 2.5.7 5 1 7.5 1.1h.6l-.1-.6-.1-.4c.6.3 1.1.4 1.7.6.9.2 1.8.3 2.8.3.9 0 1.8-.1 2.7-.2.4-.1.9-.2 1.3-.3l.6-.2v.5h.5c1.9-.1 3.7-.6 5.5-1.2 1.7-.7 3.4-1.6 4.8-2.8 1.5-1.2 2.8-2.5 3.8-4 .7-1 1.3-2 1.9-3.1l.1 1.8.8-1.7c1.2-2.7 2.1-5.4 2.8-8.2.7-2.8 1.3-5.6 1.5-8.5.3-2.9.2-5.8-.3-8.7zm0 8.6c-.3 2.8-1 5.6-1.8 8.4-.6 2.1-1.3 4.2-2.1 6.2l-.1-1.8-.8 1.9c-.7 1.6-1.6 3.2-2.6 4.6-1 1.4-2.3 2.7-3.7 3.8-1.4 1.1-2.9 2-4.6 2.6-1.5.6-3 1-4.6 1.1V157.6l-.7.2-1.2.4c-.4.1-.8.2-1.3.3-.8.1-1.7.2-2.6.2-.8 0-1.7-.1-2.5-.3-.8-.2-1.7-.5-2.3-.9l-1-.7.2 1.1.1.8c-2.3-.1-4.6-.4-6.8-.9-2.4-.6-4.7-1.5-6.6-3-.9-.7-1.7-1.7-2.5-2.7-.8-1-1.5-2-2.2-3-1.4-2.1-2.6-4.3-3.2-6.6l-.2-.6-.2.6-.7 1.6c-.5-1-.9-2-1.2-3.1-.3-1.2-.5-2.4-.7-3.6-.3-2.4-.4-4.9-.4-7.4v-.6l-.3.6-.4.7c-.4-3.1-.2-6.3.8-9.3.5-1.6 1.3-3.1 2.3-4.3 1-1.2 2.3-2.3 3.8-2.9 1.5-.6 3.1-.6 4.7-.2.8.2 1.6.5 2.4.8l2.4.8c3.2 1 6.5 1.8 9.8 2.6 2.3.2 4.6.2 6.9.1 1.1-.1 2.3-.2 3.4-.4s2.2-.6 3.3-1c2.1-.8 4.3-1.6 6.5-1.9 2.2-.4 4.6-.3 6.5 1 1.2.8 2 2 2.7 3.3.6 1.3 1 2.7 1.3 4.1.5 2.5.5 5.4.2 8.2zm-5.5-13c-.1-.3-.3-.6-.5-.9-.4-.6-.9-1.1-1.6-1.4-.7-.3-1.4-.3-2.1-.2-1.3.2-2.5.6-3.7.9-2.4.6-4.8 1.2-7.2 1.7-2.4.5-4.8 1-7.2 1.1-2.4 0-4.9-.2-7.2-.7-2.4-.4-4.6-1.4-7-2.3-1.2-.4-2.4-.8-3.6-1-.6-.1-1.3-.1-1.9 0-.6.1-1.2.5-1.7.9-.9.9-1.2 2.3-1.2 3.5 0 1.3.2 2.5.5 3.7 1.4 4.8 4.1 9.2 7.8 12.5 1.9 1.6 4 3.1 6.4 3.9 1.2.5 2.5.6 3.7.8 1.2.1 2.5.2 3.7.2 2.5 0 5-.2 7.4-.8 1.2-.3 2.4-.6 3.5-1.1 1.1-.5 2.2-1.1 3.1-1.9 1.8-1.8 3.2-3.8 4.6-5.8s2.5-4.3 3.3-6.6c.4-1.2.8-2.4 1-3.6.1-.3.1-.6.1-1v-1c0-.3-.1-.6-.2-.9zm-.6 2.8c-.1 1.2-.4 2.4-.8 3.5-1.4 4.7-3.9 9-7.3 12.6-.9.8-2 1.4-3.1 1.9-1.1.4-2.3.8-3.5 1-2.4.5-4.9.6-7.3.4-1.2-.1-2.4-.2-3.6-.4-1.2-.2-2.4-.4-3.5-.9-2.2-.9-4.3-2.2-6.1-3.8-1.9-1.6-3.5-3.4-4.9-5.4-1.4-2-2.5-4.2-3.2-6.6-.3-1.2-.6-2.4-.5-3.6.1-1.2.4-2.4 1.2-3.3.4-.4.9-.7 1.5-.8.6-.1 1.2-.1 1.8 0 1.2.2 2.3.6 3.5 1.1 2.3.9 4.5 2 7 2.5 2.4.5 4.9.9 7.4.9 2.5-.1 5-.5 7.4-1 2.4-.5 4.8-1.1 7.2-1.7 1.2-.3 2.4-.7 3.5-.9 1.2-.2 2.1.1 2.8 1.1.2.2.3.5.4.7.1.2.2.5.2.8 0 .3.1.6.1.8-.2.5-.2.8-.2 1.1zm-38.3 21c-.8-1.4-1.4-2.9-1.9-4.5-.1 1.7.4 3.4 1.2 4.9.8 1.5 2.1 2.8 3.6 3.5-1.1-1.2-2.1-2.5-2.9-3.9zm3.2 6.4c-.6-.5-1.2-1-2-1.3.4.7.9 1.3 1.5 1.9.6.5 1.2 1 2 1.3-.4-.8-1-1.3-1.5-1.9z" fill="#865e35" stroke-width="none" opacity="1" stroke="none"></path></g></g></g><g id="svga-group-mustache-single-move" transform="matrix(1,0,0,1,0,0)"><g id="svga-group-mustache-single"><path id="SvgjsPath79205" d="M130.2 125.3s-6.6-10.9-29-11.8c-18.3-.7-25.8 4.9-31.4 11.3 0 0 15.2 5.2 29.9-2 0-.1 12.5 7.8 30.5 2.5z" fill="#a46c47" stroke-width="none" opacity="1"></path><path id="SvgjsPath79206" d="M127.5 122c-.5-.5-1.1-.9-1.6-1.4-.6-.4-1.1-.8-1.7-1.2-2.3-1.6-4.9-2.8-7.6-3.7-1.3-.5-2.7-.8-4.1-1.2-1.4-.3-2.8-.6-4.1-.8-2.8-.4-5.6-.6-8.4-.7-5.6 0-11.3.5-16.6 2.2-2.7.9-5.2 2.1-7.6 3.7-2.3 1.6-4.4 3.5-6.3 5.6l-.3.3.5.2c2.5.8 5 1.3 7.6 1.6 2.6.3 5.2.4 7.7.3 1.3 0 2.6-.2 3.9-.4 1.3-.2 2.6-.4 3.8-.8 2.4-.6 4.8-1.5 7.1-2.5 2.3 1.3 4.7 2.2 7.2 2.8 2.6.7 5.2 1.1 7.8 1.3 2.6.1 5.3.1 7.9-.3 1.3-.1 2.6-.4 3.9-.7 1.3-.3 2.6-.7 3.8-1.1-.9-1.2-1.9-2.2-2.9-3.2zm-1.2 4.1c-1.3.2-2.6.4-3.9.5-2.6.3-5.2.2-7.8 0-2.6-.2-5.1-.7-7.6-1.4s-4.9-1.6-7.1-2.9l-.2-.1-.3.1c-2.3 1-4.6 2-7.1 2.6-1.2.4-2.5.5-3.7.8-1.2.2-2.5.3-3.8.4-2.5.2-5.1.1-7.6-.1-2.3-.2-4.7-.7-7-1.3 1.7-2 3.6-3.8 5.7-5.3 2.3-1.6 4.8-2.8 7.4-3.7 5.3-1.7 11-2 16.5-1.8 2.8.1 5.5.3 8.3.7 1.4.2 2.7.5 4.1.8 1.3.4 2.7.7 4 1.1 2.6.9 5.2 1.9 7.6 3.4 2.3 1.4 4.6 3.2 6.2 5.4-1.2.2-2.4.5-3.7.8zm-32.6-6.2c-.8.6-1.5 1.2-2.3 1.7-.4.3-.9.6-1.3.9.4-.8.9-1.7 1.3-2.6.6-1.2 1.2-2.5 1.8-3.8l.1-.3-.3.2c-2.1 1.3-4.4 2.4-6.6 3.6-1.8 1-3.7 2-5.5 2.9.5-.9 1-1.7 1.4-2.6l.6-1.1-1 .6c-2.5 1.4-4.9 2.8-7.3 4.4v.1c2.2-1 4.4-2.1 6.6-3.3-.5.9-1 1.7-1.5 2.6l-.6 1 1.1-.5c1.2-.5 2.3-1.1 3.4-1.7 1.1-.6 2.2-1.2 3.2-1.9 2.1-1.2 4-2.5 6.1-3.8-.2.5-.4 1-.7 1.5-.3.6-.6 1.2-1 1.8l-2.1 3.6-.7 1.1 1.1-.7c1.7-1 3.2-2.2 4.7-3.4 1.5-1.2 2.9-2.5 4.3-3.9l-.1-.1-4.7 3.7zm30.5 2.2.7 2.4c-1.1-.3-2-.8-3-1.3-1.1-.6-2.1-1.2-3.1-1.9s-2-1.3-3-2.1c-1-.7-2-1.4-2.9-2.2l-.9-.7.3 1.1c.4 1.4 1.1 2.7 1.9 3.9.7 1.1 1.4 2 2.2 3-1.4-.6-2.8-1.4-4-2.3-1.4-1-2.8-2.1-4-3.3l-.6-.6.1.8c.1 1.3.3 2.7.4 4-1.5-1.4-2.9-2.9-4.4-4.4l-.1.1c.7 1 1.4 1.9 2.2 2.8.8.9 1.6 1.8 2.4 2.6l.6.5-.1-.8c-.1-1.3-.3-2.7-.4-4.1 1.2.9 2.4 1.8 3.7 2.6 1.5.9 3 1.8 4.6 2.5l.5.2-.3-.4c-.8-1.1-1.6-2.3-2.3-3.6-.5-.9-.9-1.8-1.3-2.7 1.6 1.3 3.3 2.5 5.1 3.6 1.1.7 2.1 1.2 3.3 1.8 1.1.5 2.3 1 3.5 1.2l.3.1-.1-.3-1.3-2.5z" fill="#955932" stroke-width="none" opacity="1"></path></g></g><g id="svga-group-nose-single-move" transform="matrix(1,0,0,1,0,0)"><g id="svga-group-nose-single"><path id="SvgjsPath79086" d="M110.66 104.38c.25.93-.49 3.19-1.5 4.38-1.01 1.18-1.6.4-2.31-.27 0 0-1.02-1.71-2.17-1.92-1.14-.21-1.88 1.31-3.09 1.99-1.21.69-2.21 1.32-2.81 1.29-.6-.03-4.4-2.52-4.4-2.52s-2.39.46-3.12 1.33c-.72.87-1.15 1.34-1.38 1.38-.23.04-.26-.02-.26-.02s-.69-2.12-.88-2.79c-.2-.67-.05-1.27.2-1.6.25-.33 2.06-1.42 2.06-1.42s-.37-.95-.05-1.64c.33-.69 2.48-2.37 4.25-2.76s3.31-1.1 5.41-.94c2.1.16 6.74 1.99 8.19 3.21 1.46 1.21 1.86 2.3 1.86 2.3z" fill="#f0c7b1" stroke-width="none" opacity="1" stroke="none"></path><path id="SvgjsPath79087" d="M94.8 90.92c.26 1.32.42 2.65.73 3.95.3 1.31.61 2.6.95 3.92l.09-.01c.16-1.37.04-2.73-.14-4.08-.17-1.35-.57-2.64-.91-3.95-.34-1.31-.71-2.6-1.09-3.89-.4-1.29-.81-2.57-1.24-3.85l-.09.03c.31 1.31.6 2.62.88 3.94.29 1.31.56 2.62.82 3.94z" fill="#c27b55" stroke-width="none" opacity="1" stroke="none"></path><path id="SvgjsPath79088" d="M104.67 106.4c-.09-.02-.2-.01-.3-.01-.11.02-.21.05-.29.1-.17.08-.31.17-.46.26-1.12.74-2.17 1.55-3.29 2.2-.28.15-.56.31-.84.41l-.21.08-.2.05c-.12.02-.22.03-.33-.01-.23-.05-.53-.21-.8-.35-.28-.16-.55-.32-.83-.5-1.1-.7-2.16-1.49-3.2-2.3-.52-.4-1.05-.81-1.54-1.23-.47-.39-.88-.87-1.03-1.37-.17-.5-.03-1.02.35-1.47.37-.45.88-.83 1.44-1.15 1.11-.65 2.34-1.15 3.59-1.53 1.26-.38 2.56-.63 3.89-.71-2.66-.18-5.4.38-7.83 1.62-.61.31-1.21.7-1.71 1.26-.13.13-.23.31-.34.46-.09.17-.18.35-.23.55-.13.39-.1.83 0 1.21.04.12.09.23.14.34-.49.12-.96.3-1.39.57-.28.16-.53.36-.78.64-.12.14-.23.32-.3.56-.01.07-.02.14-.02.21v.1l.01.07c.01.09.02.18.04.25.13.63.34 1.2.58 1.76.24.56.52 1.1.9 1.61-.01-.63-.1-1.23-.21-1.82-.11-.59-.25-1.18-.36-1.72-.02-.07-.02-.13-.03-.19l-.01-.05.01-.01s0-.01-.01-.02c.02-.03.01-.06.03-.1.03-.04.04-.08.08-.14.12-.2.33-.4.53-.6.32-.31.68-.63 1.03-.96.27.53.67.94 1.07 1.3.52.45 1.04.86 1.57 1.28.04.03.09.06.13.1-.28.02-.55.08-.8.17-.31.12-.59.3-.83.52-.24.22-.46.48-.59.81.71-.07 1.24-.28 1.77-.48.26-.1.51-.22.77-.33.13-.06.26-.11.4-.17.8.59 1.61 1.16 2.46 1.68.29.18.59.34.89.5.32.15.62.31 1.04.4.21.06.45.03.65-.01.2-.05.38-.11.54-.19.34-.15.63-.33.92-.51 1.15-.74 2.15-1.64 3.18-2.45.13-.1.26-.2.38-.28.13-.09.22-.1.36-.1.28.02.57.17.84.35.53.37 1 .85 1.38 1.39-.3-.6-.72-1.14-1.23-1.59-.3-.18-.59-.39-.98-.46z" fill="#c27b55" stroke-width="none" opacity="1" stroke="none"></path><path id="SvgjsPath79089" d="M111 104.19c-.12-.41-.3-.7-.53-.97-.45-.54-1.02-.93-1.66-1.13.41.52.79 1.02 1.06 1.53.12.25.25.54.27.76.03.24.02.53-.02.81-.07.57-.22 1.17-.39 1.76-.17.6-.37 1.19-.58 1.82.53-.41.93-.96 1.24-1.55.31-.59.56-1.22.64-1.92.05-.37.07-.73-.03-1.11z" fill="#c27b55" stroke-width="none" opacity="1" stroke="none"></path><path id="SvgjsPath79090" d="M101.11 100.66c-1.95-.8-4.77.64-6.5 1.51-1.75.88-.22 3.41 1.52 2.61.93-.43 1.9-.76 2.88-1.08.92-.3 1.85-.49 2.59-1.14.72-.63.23-1.6-.49-1.9z" fill="#f8d5c3" stroke-width="none" opacity="1" stroke="none"></path></g></g><g id="svga-group-hair-front"><path id="SvgjsPath79217" d="M108.4 27c7.3 2.4 12.6 5.5 12.6 5.5s-8.3 9-11.9 12-8.8 4.2-16.2 1.7-17.4-11.9-17.4-11.9c2.4-2.9 10.8-6.2 10.8-6.2s-2.2-1.1-3-3.3-.5-6.1 3.9-8.7 14.3-3.1 18.3-.7 5.7 5.2 5.1 7.8-2.2 3.8-2.2 3.8z" fill="#decfbc" stroke-width="none" opacity="1" stroke="none"></path><path id="SvgjsPath79218" d="M121.2 32.2c-2-1.1-4.1-2.1-6.2-3-1.1-.4-2.1-.9-3.2-1.2l-1.6-.5c-.5-.2-1-.3-1.6-.5.8-.5 1.5-1.4 1.9-2.3.4-.9.7-2 .6-3s-.5-2-1.1-2.9c-.6-.9-1.3-1.6-2.1-2.2-.8-.6-1.6-1.2-2.6-1.7-.9-.5-1.9-.7-3-.9-2-.4-4.1-.5-6.1-.4-2 .1-4.1.4-6.1 1s-3.9 1.5-5.4 3.1c-1.5 1.5-2.4 3.7-2.2 5.9.1 1.1.5 2.2 1.2 3 .5.6 1 1.1 1.6 1.6-1.7.7-3.3 1.4-4.9 2.3-.9.5-1.8 1-2.7 1.6-.9.6-1.8 1.2-2.4 2.1l-.3.1.2.2c3.5 3 7.2 5.8 11 8.3 1.9 1.2 3.9 2.4 6.1 3.2 2.2.8 4.4 1.4 6.7 1.6 2.3.2 4.7-.1 6.9-1 1.1-.4 2.1-1 3.1-1.8.9-.7 1.8-1.5 2.6-2.3 3.3-3.2 6.5-6.5 9.6-10l.3-.3h-.3zm-10.1 9.9c-.8.8-1.7 1.6-2.5 2.2-.9.7-1.8 1.3-2.8 1.7-2 .9-4.3 1.2-6.6 1.2-2.3-.1-4.5-.6-6.6-1.4-2.1-.8-4.1-1.9-6.1-3.2-3.7-2.4-7.2-5.3-10.5-8.3.6-.6 1.4-1.2 2.1-1.7.9-.5 1.8-1.1 2.7-1.5 1.8-.9 3.8-1.8 5.7-2.5l.9-.4-.9-.5c-1.6-.9-2.9-2.5-3-4.4-.2-1.9.6-3.7 1.9-5.1.7-.7 1.4-1.2 2.3-1.7.8-.5 1.8-.8 2.7-1.1 1.9-.6 3.8-.9 5.8-1 3.9-.2 8.1 0 11.2 2.6 1.5 1.2 2.9 2.7 3.3 4.7.2 1-.1 2-.4 2.9-.4.9-1 1.7-1.8 2.4l3.2 1.3c1.1.4 2.1.9 3.1 1.4 1.9.9 3.8 1.9 5.7 2.9-3.1 3.2-6.2 6.4-9.4 9.5zM88.1 28c1.5-.4 3.1-.7 4.6-1 1.6-.2 3.1-.4 4.7-.5 3.1-.2 6.3-.2 9.4.4-1.6 0-3.1.1-4.7.1-1.6.1-3.1.1-4.7.3l-4.7.3-4.6.4zm-4.5 2.2c.3.9.7 1.7 1.2 2.6.4.8.9 1.7 1.3 2.5 1 1.6 2.1 3.1 3.3 4.5.6.7 1.3 1.3 1.9 2 .7.6 1.4 1.2 2.2 1.7 1.5 1.1 3.2 2 4.9 2.8-1.8-.5-3.6-1.3-5.2-2.3-.8-.5-1.6-1.1-2.3-1.7-.7-.7-1.4-1.3-2-2-1.3-1.4-2.4-3-3.3-4.7-.9-1.7-1.7-3.5-2-5.4zm29.3-.3c.1 1.7-.2 3.4-.6 5-.5 1.6-1.1 3.2-2.2 4.5.6-1.6 1.1-3.2 1.5-4.8.4-1.4.8-3 1.3-4.7zm-21-15.3c-1.2.6-2.4 1.3-3.2 2.2-.4.5-.8 1-1 1.6-.2.6-.2 1.2-.1 1.8.1.3.2.6.2.9.1.3.2.6.4.9.3.6.6 1.2.9 1.7.4.5.8 1 1.3 1.4.5.4 1.1.8 1.7.9-1.4 0-2.6-.9-3.5-2-.5-.5-.8-1.1-1.1-1.7-.2-.3-.3-.6-.4-.9-.1-.3-.2-.7-.3-1-.1-.7-.1-1.5.2-2.2.3-.7.7-1.3 1.2-1.8 1.1-.9 2.4-1.5 3.7-1.8zm11.3 4.1c.4.3.5.9.5 1.3.1.5 0 1-.1 1.4-.2.9-.6 1.9-1.4 2.5.2-.9.5-1.8.6-2.6.1-.4.2-.9.2-1.3 0-.2.1-.4.1-.7.2-.1.2-.3.1-.6zm-1.6 26.8c.2-1.3.4-2.6.6-4l.6-3.9.6-3.9c.2-1.3.3-2.6.4-4 .2 1.3.2 2.7.1 4s-.2 2.7-.4 4c-.2 1.3-.5 2.6-.8 3.9-.3 1.3-.7 2.6-1.1 3.9zm-3.3-3.4c-.6-1.5-.9-3.1-1.1-4.7-.2-1.6-.2-3.2.1-4.8.3 1.6.5 3.2.7 4.7.2 1.6.3 3.2.3 4.8zM80.2 19.2c0 1 .1 1.9.3 2.9.2.9.6 1.8 1.1 2.6.5.8 1.2 1.5 1.9 2s1.6 1 2.4 1.3l1.3.4-1.2.2c-1.2.2-2.4.4-3.6.4-.6 0-1.2 0-1.8-.2-.6-.1-1.2-.3-1.7-.6 1.1.4 2.3.4 3.5.3 1.2-.1 2.3-.3 3.5-.6v.7c-1-.3-1.9-.8-2.7-1.4-.8-.6-1.5-1.4-2-2.3-.5-.9-.8-1.9-.9-2.9-.3-.9-.2-1.9-.1-2.8zm22.2 7.3c2.2.1 4.3.4 6.4.4 1.1 0 2.1-.1 3.1-.5 1-.3 1.9-1 2.3-2-.3 1-1.2 1.8-2.2 2.1-1 .4-2.1.5-3.2.6-2.1.1-4.3-.1-6.4-.1v-.5zm-5.7-12.4c-.4-.7-.8-1.4-1.3-2-.5-.6-1.1-1.2-1.8-1.7.8.3 1.4.9 2 1.4.6.6 1.2 1.2 1.7 1.9l-.6.4zm9.8 32.1c1.5-1.4 3.8-2 5.8-1.8 1.1.1 2.1.5 3 1.1.8.7 1.5 1.6 1.7 2.6-.5-.9-1.2-1.6-2-2.1s-1.8-.8-2.7-.9c-1-.1-1.9-.1-2.9.1s-2 .5-2.9 1zm-.8-.2c.6-.1 1.2-.1 1.8 0 .6.1 1.2.2 1.7.4.6.2 1 .7 1.3 1.2.3.5.5 1.1.2 1.6.2-.5 0-1.1-.4-1.5-.3-.4-.8-.8-1.3-.9-1-.3-2.2-.2-3.2 0l-.1-.8z" fill="#cfb89a" stroke-width="none" opacity="1" stroke="none"></path></g><g id="svga-group-glasses-single-move" transform="matrix(1,0,0,1,0,-1)"><g id="svga-group-glasses-single" transform="matrix(0.9499998000000001,0,0,0.9499998000000001,5.02334525046615,4.562460075633993)"><path id="SvgjsPath79120" d="M86.62 74.99c-6.45-.17-16.08.66-20.02 4.07-4.05 3.5-5.74 7.63-5.16 16.19.61 9.15 6.81 12.13 11.66 12.38 4.86.25 13.05-2.51 21.26-13.94 7.57-10.53 1.72-18.45-7.74-18.7z" fill="url(#SvgjsLinearGradient79121)" opacity="1"></path><path id="SvgjsPath79129" d="M113.96 74.87c6.5-.23 16.22.52 20.23 3.92 4.13 3.5 5.86 7.65 5.31 16.28-.59 9.23-6.86 12.24-11.77 12.5-4.91.26-13.17-2.5-21.46-13.92-7.61-10.48-1.8-18.44 7.69-18.78z" fill="url(#SvgjsLinearGradient79130)" opacity="1"></path><path id="SvgjsPath79138" d="M141.02 87.16c-.24-.11-1.55-.22-1.81-.24-.26-1.28-.67-2.54-1.28-3.73a14.37 14.37 0 0 0-4.65-5.18c-1.99-1.21-4.19-1.82-6.35-2.27-4.33-.86-8.68-1.03-12.97-.89-2.14.08-4.28.53-6.18 1.49-1.61.81-3 2.07-3.91 3.62-1.27-1.23-2.51-1.71-3.86-1.63-1.83.1-3.03 1.28-3.34 1.63-.92-1.53-2.3-2.77-3.9-3.56-1.89-.95-4.02-1.38-6.16-1.44-4.26-.1-8.58.11-12.86 1-2.14.46-4.31 1.09-6.27 2.3-1.91 1.31-3.5 3.12-4.56 5.17-.6 1.19-.99 2.44-1.24 3.71-.25.02-1.55.13-1.78.24-.26.12-.65 2.59-.53 2.85.11.25 1.71.28 1.93.28-.09 2.18-.04 4.38.3 6.54.42 2.31 1.24 4.58 2.73 6.35 1.46 1.83 3.5 3.11 5.76 3.77 2.28.69 4.79.68 7.21.06 2.41-.63 4.72-1.73 6.83-3.14 4.18-2.78 7.54-6.54 10.37-10.44 1.34-1.95 2.48-4.03 3.05-6.28.56-2.19.5-4.53-.4-6.52.26-.29 1.43-1.51 2.91-1.59 1.07-.06 2.26.57 3.33 1.6-.87 1.99-.93 4.32-.36 6.49.57 2.24 1.73 4.32 3.08 6.27 2.85 3.89 6.25 7.65 10.46 10.42 2.13 1.41 4.47 2.5 6.9 3.14 2.45.62 4.99.61 7.29-.08 2.29-.67 4.36-1.97 5.83-3.81 1.5-1.79 2.33-4.07 2.74-6.4.33-2.18.38-4.4.27-6.6.22 0 1.85-.04 1.96-.29.13-.23-.27-2.71-.54-2.84zm-43.69.19c-.59 2.19-1.69 4.26-3.02 6.18-2.81 3.88-6.15 7.61-10.29 10.37-2.09 1.39-4.36 2.49-6.74 3.14-2.39.63-4.86.66-7.12 0-2.25-.64-4.28-1.9-5.73-3.7-1.48-1.74-2.32-3.99-2.71-6.3-.34-2.29-.36-4.64-.23-6.94.15-2.26.59-4.54 1.64-6.6 1.04-2.02 2.65-3.78 4.49-5.07 1.9-1.21 4.06-1.85 6.18-2.33 4.26-.93 8.58-1.17 12.84-1.11 2.13.08 4.25.53 6.11 1.49 1.88.95 3.45 2.52 4.28 4.46.84 1.98.87 4.27.3 6.41zm42.12 2.55c.14 2.32.13 4.68-.21 6.99-.39 2.33-1.23 4.6-2.73 6.35-1.47 1.82-3.53 3.08-5.8 3.73-2.29.66-4.79.64-7.2.01-2.4-.65-4.7-1.74-6.81-3.14-4.17-2.75-7.54-6.48-10.38-10.35-1.35-1.92-2.45-3.98-3.05-6.17-.59-2.14-.56-4.43.29-6.41.82-1.95 2.39-3.53 4.27-4.5 1.87-.98 4-1.45 6.14-1.54 4.29-.1 8.65.11 12.95 1 2.15.46 4.34 1.1 6.27 2.3 1.87 1.29 3.51 3.05 4.58 5.08 1.07 2.08 1.52 4.38 1.68 6.65z" fill="#26120b" stroke-width="none" opacity="1"></path></g></g></g></g></g><rect id="svga-credit-rect" width="200" height="15" x="0" y="185" fill="#ecf0f1" opacity="0.5" style="display: none;"></rect><text id="svga-credit-text" font-family="Avenir Next, Roboto, Helvetica, Arial, sans-serif" font-size="10px" text-anchor="start" font-weight="400" size="10px" anchor="start" weight="400" fill="#333333" x="33.40447998046875" y="182.60824704170227" style="display: none;"><tspan id="SvgjsTspan78867" dy="13" x="33.40447998046875">Created on AvatarMaker.com</tspan></text></g><defs id="SvgjsDefs78814"><linearGradient id="SvgjsLinearGradient79121" x1="79.5772" y1="74.9681" x2="79.5772" y2="107.6386" gradientUnits="userSpaceOnUse" class="svga-on-canvas-glasses-gradient-single-0-null"><stop id="SvgjsStop79122" stop-opacity="1" stop-color="#150000" offset="0.004166667" ></stop><stop id="SvgjsStop79123" stop-opacity="0.8088" stop-color="#190300" offset="0.1945" ></stop><stop id="SvgjsStop79124" stop-opacity="0.6342" stop-color="#240c00" offset="0.3684" ></stop><stop id="SvgjsStop79125" stop-opacity="0.466" stop-color="#361b00" offset="0.5359" ></stop><stop id="SvgjsStop79126" stop-opacity="0.3018" stop-color="#503100" offset="0.6994" ></stop><stop id="SvgjsStop79127" stop-opacity="0.1421" stop-color="#724c00" offset="0.8585" ></stop><stop id="SvgjsStop79128" stop-opacity="0" stop-color="#966a00" offset="1" ></stop></linearGradient><linearGradient id="SvgjsLinearGradient79130" x1="-21.1858" y1="74.8347" x2="-21.1858" y2="107.5897" gradientTransform="matrix(-1 0 0 1 100 0)" gradientUnits="userSpaceOnUse" class="svga-on-canvas-glasses-gradient-single-1-null"><stop id="SvgjsStop79131" stop-opacity="1" stop-color="#150000" offset="0.004166667" ></stop><stop id="SvgjsStop79132" stop-opacity="0.8088" stop-color="#190300" offset="0.1945" ></stop><stop id="SvgjsStop79133" stop-opacity="0.6342" stop-color="#240c00" offset="0.3684" ></stop><stop id="SvgjsStop79134" stop-opacity="0.466" stop-color="#361b00" offset="0.5359" ></stop><stop id="SvgjsStop79135" stop-opacity="0.3018" stop-color="#503100" offset="0.6994" ></stop><stop id="SvgjsStop79136" stop-opacity="0.1421" stop-color="#724c00" offset="0.8585" ></stop><stop id="SvgjsStop79137" stop-opacity="0" stop-color="#966a00" offset="1" ></stop></linearGradient></defs></svg>