<svg xmlns="http://www.w3.org/2000/svg" version="1.1" width="600px" height="600px" viewBox="0 0 200 200" style="overflow:hidden!important;"><g id="svga-group-wrapper"><g id="svga-group-backs-single"></g><g id="svga-group-humanwrap-move" transform="matrix(1,0,0,1,0,0)"><g id="svga-group-humanwrap"><g id="svga-group-hair-back-move" transform="matrix(1,0,0,1,0,0)"><g id="svga-group-hair-back"><path id="SvgjsPath17999" d="M104 26.7s-7-6.5-22.7-7.3S47.7 24.5 36 45.6s-6 45.2 5.4 59.6 19.2 17.1 16.8 26.8c-2.4 9.8-12.2 6.8-14.9 5.1 0 0-1.9 7 12.2 7.9 0 0-2.2 4.6 5.7 4.3 0 0 .8 5.1 13 3.5 0 0 1.6 5.7 14.3 1.9 0 0 4.9 5.1 11.6 3 6.8-2.2 15.7 1.9 20-3.5 0 0 8.9 2.7 11.6-1.6 0 0 8.4 4.3 13-.5 0 0 5.7 2.2 12.2-4.1 0 0-12.4 2.2-12.4-6.8s6.8-14.1 10.3-16.5c3.5-2.4 12.4-15.2 14.4-29.5s.5-29.2-4.1-39S155.6 34.8 144 28c-11.6-6.7-24.6-11.1-40-1.3z" fill="#913d3d" stroke-width="none" opacity="1" stroke="none"></path><path id="SvgjsPath18000" d="M104.1 25.7C78.4 9.2 45 22.8 33.6 49.9c-5.8 13.8-5.3 29.3.4 43 2.9 7 7.2 13.5 12.4 19 3.2 3.4 7 6.4 9.4 10.5 3.6 6.2 2.2 17.3-7.3 15.6-.6-.1-.9.8-.3.9 4.6 1.4 9.1-1.6 10.5-6.1 1.9-6-2-12-5.9-16.3-5.9-6.4-11.8-12.1-15.8-20-4.1-8.1-6.4-17.1-6.4-26.1 0-16.6 8.3-33.2 22-42.7 15.1-10.4 35.3-10.7 50.9-1.4.7.6 1.1-.3.6-.6zm61.7 30.1c-4.8-12.4-13.5-23.6-25.1-30.2-10.9-6.1-25.5-8-35.8.2-.3.2.1.7.4.5 14.7-10.7 34-3.2 45.7 8.4 12 11.9 17.8 28.5 18.1 45.3.2 8.6-.9 17.3-3.4 25.6-2.8 9.1-7.8 14.9-14.6 21.2-3.9 3.6-8.1 8.6-7.2 14.4.7 4.7 4.8 8 9.4 7.1.5-.1.4-1-.1-.9-4.7.5-8.2-3.4-8.1-7.9.1-3.5 2.1-6.7 4.4-9.3 2.8-3.1 6.3-5.5 9.1-8.6 4.8-5.3 7.5-11.9 9.2-18.8 3.8-15.4 3.7-32.1-2-47zm-97.1 81.4c.2-.4-.4-.8-.7-.4-5.7 8.1-15.5 10-23.3 3.7-.3-.2-.6.1-.4.4 7.4 6.9 19.5 5.5 24.4-3.7zm4.8 1.9c-2.4 5.4-6.5 9.5-12.7 10-.5 0-.5.8 0 .8 5.9-.3 12.2-4.4 13.4-10.5.1-.4-.5-.7-.7-.3zm8.8 3c-.2 5.3-3.2 10.1-8.8 10.9-.3 0-.2.5.1.5 5.4-.4 10.6-5.8 9.3-11.4-.1-.4-.6-.3-.6 0zm62.7 9.3c-9.1-1.9-13.3-10.2-8.7-18.6.2-.3-.2-.6-.5-.4-6.1 7.4-.9 19.7 9 19.6.5.1.6-.6.2-.6zm-13.9 0c-5.1-3.2-6.2-9-4.6-14.4.1-.4-.4-.6-.6-.2-3.1 5.3-.2 12.3 4.9 15.1.3.1.6-.3.3-.5zm-10.7 2.2c-5.2-3-7.1-8.8-5.4-14.4.1-.4-.5-.6-.7-.3-3.1 5.6.1 13 5.8 15.4.4.2.7-.5.3-.7zm38.5-92.3c7.4 18.9 4.8 39.3-8.5 54.8-.3.4.2.9.5.5 15.4-14.9 16.1-39.4 7.9-58-7.1-16.2-27-42.7-47.7-31.9-.2.1-.1.4.1.3 21.9-8.8 40.8 16.7 47.7 34.3zM86.8 25.2c-31.1-5.5-58.3 25.9-50 55.9.1.3.5.2.5-.1-2.8-14.8.6-30.6 11.2-41.7 10.1-10.5 24-14.5 38.2-13.7.2 0 .3-.4.1-.4z" fill="#8a3333" stroke-width="none" opacity="1" stroke="none"></path></g></g><g id="svga-group-humanbody-back"><path id="SvgjsPath16206" d="M77.8 105.9s4.8 37.7 10 55.8c0 0-6.4 8.8-14.5 11.9-28.7 11.2-35 11.2-39.6 15.2-2.4 2.1.2 11.1 1.8 17.2 1.3 5 1.7 13.2 1.7 13.2h132.2s1.6-33-.6-39.8-7.1-2.9-21.9-4.5c-14.8-1.6-28.7-10.3-31-13.2l.3-60-38.4 4.2z" fill="#f3d4cf" stroke-width="none" opacity="1" stroke="none"></path></g><g id="svga-group-chinshadow-single"><path id="SvgjsPath16658" d="M84.4 148.5c1.9-.5 3.1-1 3.1-1 3.7 4.2 8.9 4 8.9 4s5.3.3 8.9-4c0 0 4.4 1.6 10.2 2.4l.3-48.3-38.4 4.2c.1 0 3.1 23.8 7 42.7z" fill="#d4958a" stroke-width="none" opacity="1" stroke="none"></path></g><g id="svga-group-humanbody-front"><path id="SvgjsPath16207" d="M72.1 183.1s14.6-.2 20.4 2.6c5.8 2.9 12.7 2.4 16.1-1s21.6-7 21.6-7-19.7 1.9-25 4.6c-5.3 2.7-22.3-2.8-33.1.8z" fill="#d4958a" stroke-width="none" opacity="1" stroke="none"></path><path id="SvgjsPath16208" d="M74.2 173.2c6.7-1.3 14.7-6.4 14.7-6.4l6.2 5.5c-4.3-7.9-12.7-41.1-12.7-41.1l-.7.7c1.7 10.5 3.9 21.9 6.1 29.7 0 0-6 8.2-13.6 11.6z" fill="#d4958a" stroke-width="none" opacity="1" stroke="none"></path><path id="SvgjsPath16209" d="M170.7 188.5c-.1-2.1-.2-4.1-.4-6.2-.1-1-.3-2.1-.6-3.2-.2-.5-.4-1-.6-1.6-.2-.5-.6-1-1-1.5s-.9-.9-1.5-1.1c-.6-.3-1.1-.4-1.7-.6-1.1-.2-2.2-.2-3.2-.2-2.1 0-4.1.1-6.1.1s-4-.1-6-.2-4-.4-6-.7c-1-.2-2-.4-2.9-.6l-1.5-.4c-.5-.1-1-.3-1.4-.4-3.8-1.1-7.6-2.6-11.2-4.4l-1.3-.7-1.3-.7c-.4-.2-.9-.5-1.3-.8s-.9-.5-1.3-.8-.8-.5-1.3-.8l-1.2-.9-.6-.5-.3-.2-.3-.2c-.2-.2-.4-.3-.5-.5l-.2-.3v-44.6l-.1-15v-.6l-.6.1c-6.4.8-12.9 1.5-19.3 2.3l-19.1 2.3v.5l.1.4.1.9.2 1.8c.1 1.2.3 2.3.4 3.5l.9 7c.6 4.7 1.3 9.4 2.1 14 .8 4.7 1.5 9.3 2.5 14 .9 4.5 1.8 9 3 13.5-1.1 1.4-2.3 2.7-3.6 4-1.3 1.3-2.8 2.6-4.3 3.8-1.5 1.1-3.1 2.2-4.8 3l-1.3.6c-.4.2-.9.3-1.3.5l-2.7 1c-7.2 2.7-14.5 5.3-21.8 7.7l-5.5 1.8c-1.8.6-3.7 1.3-5.5 2.2-.4.2-.9.5-1.3.7-.4.3-.9.5-1.3.9l-.6.5c-.2.2-.5.5-.6.8-.3.5-.4 1.1-.5 1.6-.2 1.1-.1 2.1 0 3.1s.3 2 .4 2.9c.4 1.9.8 3.8 1.3 5.7l.8 2.8c.3.9.5 1.8.7 2.8.4 1.9.7 3.8.9 5.7s.4 3.8.5 5.7v.8h133.4v-.8c.2-4.1.4-8.2.5-12.3s.2-8.2.2-12.3c0-1.8-.1-3.8-.1-5.9zm-67.4 30.3H70.2l-16.5-.1-16-.1c-.1-1.8-.2-3.5-.4-5.3-.2-1.9-.4-3.9-.8-5.8-.2-1-.4-1.9-.7-2.9l-.7-2.8c-.5-1.9-.9-3.7-1.2-5.6-.2-.9-.3-1.9-.4-2.8-.1-.9-.1-1.9 0-2.7.1-.4.2-.8.4-1.1.1-.2.2-.3.3-.4l.5-.4c.3-.3.7-.5 1.1-.8.4-.2.8-.5 1.2-.7 1.7-.8 3.5-1.4 5.3-2l5.5-1.8c7.3-2.4 14.6-5 21.8-7.8l2.7-1c.5-.2.9-.3 1.4-.5l1.4-.6c1.8-.9 3.4-2 5-3.2s3-2.5 4.4-3.9 2.7-2.9 3.8-4.5l.2-.3-.1-.3c-1.3-4.5-2.3-9.1-3.3-13.7s-1.9-9.3-2.7-13.9c-.8-4.6-1.6-9.3-2.4-14l-2.2-13.9 19.3-1.8c6.2-.6 12.3-1.2 18.5-1.8l-.2 14.4-.2 15-.3 30v.4l.2.2.6.7.6.6.3.3.3.2.6.5c.4.3.9.6 1.3.9.4.3.9.6 1.3.9.4.3.9.5 1.3.8s.9.5 1.3.8l1.4.8 1.4.7c.5.2.9.5 1.4.7l1.4.7c1 .4 1.9.8 2.9 1.2s1.9.8 2.9 1.1l1.5.5c.5.2 1 .3 1.5.4.5.1 1 .3 1.5.4l1.5.4c1 .3 2 .4 3 .6 2 .4 4.1.6 6.2.8 2.1.2 4.1.2 6.2.2 2.1 0 4.1-.1 6.1-.1s4 .1 5 1.3c.5.6.9 1.4 1.2 2.3.3.9.4 1.9.6 2.8.3 2 .4 4 .5 6s.1 4.1.2 6.1c.1 7.9-.1 15.8-.4 23.7-10.8.1-21.5.1-32.3.2h-33.1z" fill="#c5796d" stroke-width="none" opacity="1" stroke="none"></path><path id="SvgjsPath16210" d="M150.7 219.2 147 198l-.4 21.2z" fill="#d4958a" stroke-width="none" opacity="1" stroke="none"></path><path id="SvgjsPath16211" d="M47.3 203.5s2.2 11.5 2.9 15.7h3.5l-6.4-15.7z" fill="#d4958a" stroke-width="none" opacity="1" stroke="none"></path></g><g id="svga-group-clothes-single"><path id="SvgjsPath18043" d="M83.26 143.21c-2.27.45-5.11 2.64-5.11 5.13 0 2.5.91 3.18.91 4.99s-2.72 2.27-1.59 5.67c1.13 3.4-.91 4.08-1.81 6.12-.91 2.04.68 3.86.68 3.86s-8.62 4.08-13.38 5.22-19.28 7.26-22.91 7.49-10.21 5.22-10.89 6.81-.68 8.39.45 10.66c1.13 2.27 1.13 9.53 1.59 11.34.45 1.81.8 8.7.8 8.7h139.62s.45-17.09 1.36-20.49c.91-3.4-.23-18.6-1.13-21.78-.91-3.18-8.62-7.03-11.34-6.58-2.72.45-29.57-2.97-36.38-6.37 0 0 .08-5.42-3.09-7.24 0 0 2.04-4.08.45-6.12s-.91-4.54-1.59-5.22c-.68-.68-2.95-2.04-2.95-2.04s-.64 2.75-4.72 4.11-23.42 1.09-26.14-.27-2.83-3.99-2.83-3.99z" fill="#1d1d1d" stroke-width="none" opacity="1" stroke="none"></path><path id="SvgjsPath18044" d="M173.89 184.26c-.18-1.95-.37-3.89-.69-5.86-.09-.5-.17-.99-.31-1.52-.04-.24-.2-.58-.31-.87-.13-.3-.3-.52-.46-.78-.68-.94-1.48-1.62-2.3-2.26-1.66-1.24-3.45-2.18-5.37-2.91-.97-.35-1.96-.65-3.12-.74-.27-.04-.62 0-.94.02l-.6.03c-.42 0-.92-.02-1.37-.04-3.81-.26-7.67-.74-11.49-1.27-3.83-.55-7.65-1.14-11.44-1.87-3.6-.72-7.29-1.47-10.55-2.8-.03-.54-.09-1.06-.17-1.59-.13-.72-.29-1.43-.55-2.13-.26-.7-.59-1.39-1.04-2.02-.33-.44-.74-.83-1.18-1.17.44-1.08.76-2.18.84-3.41.03-.72-.03-1.51-.38-2.26-.07-.19-.21-.36-.32-.54l-.26-.37a4.63 4.63 0 0 1-.39-.73c-.22-.52-.34-1.09-.42-1.69l-.11-.96c-.05-.34-.07-.69-.27-1.16-.32-.6-.63-.7-.89-.94a33.141 33.141 0 0 0-2.51-1.61l-.73-.43-.24.84c-.16.54-.56 1.22-1.04 1.72-.49.52-1.07.96-1.72 1.32-1.29.76-2.75 1.02-4.31 1.2-3.1.37-6.26.43-9.4.49-3.15.03-6.3 0-9.44-.23-.78-.06-1.56-.14-2.34-.24-.78-.12-1.54-.23-2.2-.6a4.74 4.74 0 0 1-1.69-1.52c-.21-.32-.4-.66-.53-1.02a3.5 3.5 0 0 1-.17-.55l-.06-.28-.02-.14-.01-.07c-.01-.01.02-.04-.04-.14-.17.01-.38.04-.55.08l-.46.14c-.3.11-.59.23-.88.37-.57.28-1.1.63-1.59 1.05-.96.81-1.8 1.93-1.94 3.28-.05.66-.01 1.29.1 1.93.11.64.32 1.25.49 1.83.16.57.25 1.19.19 1.71-.07.49-.46.93-.86 1.42-.4.48-.81 1.09-.97 1.78-.17.7-.08 1.41.08 2.05.38 1.22.57 2.33.07 3.31-.47.97-1.54 1.85-2.01 3.23-.22.69-.23 1.46-.05 2.14.12.46.29.87.52 1.27-2.92 1.31-5.9 2.55-8.9 3.62-.8.28-1.61.55-2.42.78-.8.24-1.61.41-2.49.65-1.69.48-3.32 1.06-4.95 1.63-3.26 1.15-6.48 2.35-9.73 3.46-1.62.56-3.25 1.09-4.87 1.53-.41.12-.81.2-1.2.29-.43.1-.69.1-1.2.18-1 .11-1.88.42-2.71.77-1.68.71-3.19 1.63-4.64 2.65-.72.52-1.43 1.05-2.11 1.64-.34.3-.67.6-1 .94-.32.34-.66.7-.95 1.3-.37 1.09-.39 1.92-.46 2.83-.05.89-.05 1.78-.03 2.66.03.88.09 1.77.21 2.66.12.89.26 1.78.6 2.72.23.57.34.74.45 1.15.11.36.2.76.27 1.17.15.81.26 1.65.35 2.49.18 1.69.28 3.4.45 5.14.05.44.09.88.18 1.35l.14.64.1.6c.12.82.22 1.67.3 2.52.16 1.7.29 3.42.4 5.12l.04.69.68-.01c11.64-.11 23.27-.31 34.91-.35l17.45-.06 17.45.06 34.91.33 34.91.24.9.01.03-.91c.13-3.87.29-7.75.53-11.61.12-1.93.25-3.86.45-5.76.11-.93.21-1.93.4-2.74.25-1.04.33-2.11.37-3.09.11-3.99-.1-7.88-.42-11.78zm-54.94-38.75c.23.17.51.43.46.43.13.31.15 1.06.22 1.71.08.68.21 1.39.48 2.08.14.34.31.68.51.99.09.14.24.34.29.43.05.1.13.18.17.3.19.43.25.97.21 1.54-.08 1.13-.49 2.35-.99 3.41l-.31.66.63.4c.47.3.88.69 1.23 1.16.34.48.59 1.04.8 1.63.21.59.34 1.21.45 1.85.1.62.16 1.3.15 1.89v.55l.48.23c.09.05.19.08.28.12-3.8 1.26-7.54 2.65-11.26 4.07.15-.55.29-1.1.43-1.65.11-.5.21-.99.29-1.5.09-.53.08-1.07.04-1.59-.09-1.06-.4-2.08-.79-3.04-.17-.41-.38-.81-.59-1.2.03-.02.07-.03.1-.05-.04.01-.07.01-.11.02l-.09-.18c-.26-.47-.56-.89-.54-1.13-.05-.2.26-.57.59-1 .32-.42.61-.91.8-1.42.19-.51.36-1.05.33-1.65-.01-.61-.31-1.21-.68-1.61-.45-.51-.96-.93-1.4-1.36.83-.59 1.6-1.24 2.28-1.98.36-.39.71-.79 1.05-1.2-.01.08-.02.16-.04.25-.01.07-.02.12-.01.23 0 .04.03.13.09.19.03.03.08.06.12.08l.02.01c.07.04.16.11.24.19.66.58 1.1 1.4 1.15 2.22.01.39-.03.92-.06 1.34-.04.45-.13.84-.28 1.27-.15.41-.31.91-.47 1.28-.16.38-.41.73-.68 1.14-.26.39-.58.93-.57 1.57 0 .63.26 1.14.52 1.57.26.41.54.81.8 1.18.28.41.4.62.35 1.03-.04.43-.19.84-.28 1.36-.08.51-.03 1.04.11 1.52.28.95.9 1.71.77 2.68.18-.44.14-.97.02-1.43-.11-.47-.25-.92-.31-1.36-.07-.44-.06-.87.05-1.28.11-.39.31-.87.4-1.38.05-.26.07-.58-.02-.88-.09-.3-.24-.52-.36-.73-.26-.41-.5-.79-.73-1.2-.21-.37-.37-.75-.36-1.08 0-.32.17-.65.43-1.03.25-.38.54-.81.74-1.3.19-.5.33-.9.47-1.38.14-.47.24-1 .26-1.5.01-.51.02-.93-.04-1.48-.15-1.07-.8-1.97-1.63-2.53-.11-.07-.21-.13-.36-.19h-.01c0-.02 0-.05-.01-.08 0-.2 0-.43-.03-.65.59-.75 1.13-1.55 1.55-2.4.35-.38.66-.81.91-1.3.33.21.66.42.98.64.27.15.52.33.76.52zm-36.43 25.61c-.43-.93-.85-1.86-1.17-2.82-.2-.56-.38-1.15-.4-1.69-.01-.27.05-.42.22-.63.18-.21.41-.46.6-.73.38-.55.67-1.1.87-1.78.09-.34.11-.82-.11-1.2-.2-.37-.42-.59-.58-.82a3.98 3.98 0 0 1-.73-1.47c-.16-.54-.2-1.07-.04-1.49.15-.42.57-.78 1.03-1.25.05-.05.1-.12.16-.17.98.96 2.02 1.87 3.18 2.66.18.13.37.24.55.36-.01.02-.03.02-.04.02-.09.09-.35.11-.72.38a.96.96 0 0 0-.37.64c-.04.24 0 .41.03.59.16.63.43 1.11.71 1.59.28.48.59.95.95 1.38.35.43.77.84 1.1 1.19.16.18.28.34.33.5.06.15.06.41.03.53-.02.25-.48.39-1.05.79-.3.21-.49.68-.44 1.03.04.34.14.63.27.88.68 1.3 1.58 2.4 2.57 3.4-.39-.06-.78-.12-1.16-.21-1.93-.44-3.86-1.04-5.79-1.68zm7.38 1.99c-.93-1.19-1.79-2.42-2.37-3.74-.1-.23-.15-.46-.16-.65.01-.19.05-.26.19-.37.15-.11.39-.19.66-.34.26-.14.61-.41.73-.82.1-.4.09-.69 0-1.05-.1-.35-.31-.63-.49-.85-.38-.44-.73-.78-1.05-1.19-.32-.4-.59-.82-.85-1.27-.25-.44-.49-.92-.6-1.32-.01-.09-.03-.18-.02-.21.01-.04-.01-.01.01-.03.05-.06.35-.13.69-.37.1-.07.19-.18.27-.3.88.51 1.79.95 2.71 1.36 1.27.53 2.57.7 3.83.81.22.22.33.6.34 1-.42.29-.71.68-.86 1.16-.18.59-.05 1.18.12 1.65.15.48.46.96.73 1.32.27.35.41.7.49 1.14.13.86.17 1.9.49 2.79.15.46.33.91.59 1.32.01.01.02.03.03.04-.34.02-.68.05-1.03.06-1.5.07-2.99.05-4.45-.14zm5.73.08c-.02-.05-.05-.09-.07-.13-.2-.41-.31-.86-.4-1.31-.08-.45-.13-.91-.16-1.37-.04-.45-.01-.91-.07-1.42-.04-.49-.22-1.05-.5-1.47-.26-.41-.43-.75-.56-1.18-.13-.41-.17-.79-.06-1.11.09-.31.38-.6.65-.73l.27-.13.02-.25c.04-.44.01-.83-.13-1.26 2.99.07 5.93-.18 8.83-.64 1.5-.22 2.98-.53 4.45-.87.73-.19 1.47-.37 2.19-.59.38-.12.76-.24 1.14-.38.22.39.42.78.61 1.18.42.88.72 1.81.89 2.75.18.94.05 1.91-.04 2.92-.05.61-.12 1.22-.19 1.82-.04.02-.09.03-.13.05-1.97.73-3.93 1.53-5.89 2.22-1.9.73-3.88 1.11-5.94 1.4-1.62.27-3.26.41-4.91.5zm18.92-25.82-.15-.24c.28-.16.56-.34.83-.54-.06.07-.11.14-.17.21-.17.2-.34.38-.51.57zm.26 1.42c0 .01 0 .02 0 0 0 .01 0 0 0 0zm-.7-1.5c.06-.03.12-.07.18-.11.05.11.09.21.12.32-.49.54-1 1.06-1.54 1.54-.76.66-1.53 1.3-2.37 1.82-.02-.03-.04-.05-.06-.08-.26-.38-.34-.84-.25-1.32.03-.24.11-.49.13-.75.01-.1-.01-.21-.05-.3.49-.06.99-.14 1.49-.25.84-.15 1.59-.49 2.35-.87zm-14.28 1.49c3.17.06 6.33.03 9.52-.26l.83-.09c.02.09.02.18-.01.27-.05.23-.16.46-.24.71-.17.49-.17 1.1.08 1.61.02.04.05.07.07.11-.76.44-1.55.79-2.39.9-2.02.29-4.16.28-6.26.34l-3.17.04-3.18.08c1.05.18 2.11.28 3.16.41 1.06.09 2.12.17 3.18.24 2.13.11 4.25.16 6.43-.13 1.01-.15 1.95-.58 2.78-1.1.44.54.93 1 1.3 1.5.58.71.48 1.55.08 2.42-.19.42-.41.81-.71 1.19-.14.19-.31.38-.48.62-.16.23-.35.6-.33.99.02.39.16.69.3.94l.3.5c-.36.04-.73.06-1.09.1l-2.24.17-4.47.29c-2.97.16-5.95.32-8.85.2-.54-.02-1.07-.06-1.59-.11 0-.04-.01-.09-.01-.13-.04-.69-.08-1.44-.18-2.15-.09-.69-.18-1.34-.36-2.06l.79-4.2.01-.05v-.03c-.15-1.2-.25-2.43-.17-3.66 2.29.19 4.59.28 6.9.34zm-21.26 1.1c-.12-.58-.18-1.21-.15-1.79.07-1.16.79-2.23 1.68-3.05a8.2 8.2 0 0 1 1.48-1.07c.27-.14.55-.28.83-.39l.43-.15c.12-.03.21-.07.33-.13l.01.07.02.15c.01.1.03.2.05.3a4.993 4.993 0 0 0 .69 1.67 5.18 5.18 0 0 0 1.74 1.68c.33.23.75.34 1.14.47.39.08.78.19 1.18.25.79.14 1.57.24 2.36.33.85.09 1.69.17 2.54.23-.14.57-.22 1.15-.26 1.74a20 20 0 0 0-.05 1.9l-1.12 4.2-.02.08.03.13c.13.62.21 1.35.27 2.04.06.69.11 1.34.14 2.04-.53-.09-1.04-.21-1.52-.39-1.13-.41-2.21-.9-3.27-1.45-.05-.45-.06-.81.06-1.22.06-.24.15-.44.25-.72.12-.29.16-.59.19-.88.09-1.15-.12-2.22-.45-3.28-.11-.8-.18-1.63-.14-2.45.02-.41.07-.83.18-1.22.11-.39.26-.79.55-1.11-.66.56-.92 1.46-1.06 2.29-.14.85-.17 1.71-.09 2.58v.01l.01.04c.23.99.36 2.07.21 3.03-.05.24-.1.47-.19.68-.08.21-.22.51-.3.78-.11.3-.15.64-.16.97-1.09-.61-2.14-1.31-3.18-2.06.12-.3.2-.63.17-.9-.02-.72-.23-1.32-.42-1.92-.2-.6-.43-1.16-.66-1.73-.41-1.13-.91-2.28-.47-3.34.38-1.09 1.42-1.87 2.48-2.46-1.15.39-2.31 1.07-2.92 2.27-.29.6-.36 1.31-.25 1.95.09.64.27 1.24.45 1.83.33 1.17.84 2.35.86 3.41 0 .12-.01.22-.03.31-.91-.67-1.82-1.36-2.75-2.04.05-.7-.08-1.32-.27-1.93-.26-.59-.48-1.16-.6-1.75zm-2.54 15.77c.3-1.04 1.25-1.86 1.88-3.13.66-1.31.29-2.86-.11-3.96-.16-.55-.24-1.12-.13-1.65.1-.53.38-1.01.76-1.49.34-.46.81-.99.93-1.72.74.92 1.51 1.82 2.33 2.68-.05.06-.11.12-.17.18-.39.4-.98.83-1.27 1.58-.27.75-.15 1.49.04 2.12.18.63.5 1.27.93 1.78.21.25.42.48.52.65.1.16.1.33.06.59-.13.5-.37 1.07-.66 1.55-.15.25-.32.46-.52.73-.22.27-.35.75-.29 1.09.08.68.32 1.27.57 1.84.44.91.95 1.77 1.49 2.6-1.76-.59-3.52-1.21-5.29-1.82l.14-.07-.48-.58c-.66-.81-1.05-1.99-.73-2.97zm96.21 30.29c-.03.96-.1 1.84-.29 2.69-.24 1.08-.32 2.03-.43 3.02-.19 1.96-.3 3.91-.41 5.85-.19 3.59-.31 7.18-.41 10.77l-18.2.12c.21-1.85.13-3.74-.16-5.6-.08-.51-.21-1.03-.3-1.52-.1-.48-.13-.98-.16-1.47-.01-1 .05-2.01.18-3.01.51-4.02 1.52-7.99 2.68-11.9.56-1.95 1.14-3.94 1.82-5.83.69-1.88 1.69-3.64 3.02-5.12 1.34-1.48 3.02-2.63 4.84-3.52 1.8-.95 3.73-1.66 5.58-2.54-1.94.67-3.89 1.29-5.79 2.1-1.89.82-3.7 1.94-5.19 3.44-1.5 1.49-2.55 3.38-3.31 5.32-.74 1.95-1.33 3.9-1.93 5.87-1.09 3.96-2.12 7.96-2.49 12.1-.09 1.03-.1 2.08-.05 3.12.05.52.11 1.05.24 1.57l.37 1.48c.42 1.79.61 3.65.58 5.5l-15.74.11-34.91.33-17.45.06-17.45-.06c-4.39-.02-8.77-.06-13.16-.1-.23-1.51-.51-3-.76-4.51l-.93-4.93c-.3-1.65-.66-3.28-.98-4.92l-.52-2.46-.26-1.23-.35-1.25c-1.15-3.28-3.27-6.06-5.69-8.41-2.44-2.33-5.25-4.34-8.42-5.49 1.49.76 2.89 1.67 4.2 2.7 1.32 1.01 2.55 2.13 3.68 3.33 2.24 2.41 4.24 5.12 5.29 8.19l.33 1.16.27 1.22.55 2.45c.39 1.63.74 3.26 1.16 4.88l1.21 4.87c.4 1.47.77 2.94 1.19 4.4-7.01-.08-14.01-.17-21.02-.24-.07-1.5-.14-3-.25-4.51-.07-.87-.14-1.73-.25-2.62l-.1-.68-.12-.63c-.06-.37-.11-.79-.15-1.21-.15-1.69-.24-3.42-.41-5.16-.08-.87-.19-1.74-.35-2.63-.08-.44-.17-.89-.31-1.35-.1-.43-.4-1.02-.48-1.26-.48-1.41-.6-3.17-.66-4.82-.02-.84-.01-1.68.04-2.5.05-.8.15-1.71.35-2.26.09-.17.31-.48.59-.76.26-.28.56-.57.87-.84.61-.55 1.28-1.06 1.95-1.55 1.36-.97 2.8-1.86 4.29-2.5.74-.32 1.51-.59 2.23-.67.34-.06.95-.11 1.35-.21.44-.1.89-.2 1.3-.32 1.7-.48 3.34-1.03 4.97-1.61 3.26-1.15 6.48-2.38 9.71-3.55 1.61-.59 3.23-1.16 4.85-1.66.78-.23 1.64-.44 2.49-.71.84-.26 1.66-.56 2.48-.86 3.26-1.23 6.41-2.64 9.53-4.13l.37-.18c3.48 1.98 7.07 3.75 10.97 5 2.11.69 4.35.79 6.49.82 2.16-.01 4.3-.18 6.43-.47 2.1-.32 4.3-.77 6.32-1.61 1.98-.81 3.92-1.65 5.83-2.55 3.76-1.74 7.47-3.59 11.09-5.63 1.77.8 3.54 1.3 5.33 1.81 1.9.5 3.81.93 5.72 1.33 3.83.79 7.67 1.46 11.53 2.01 3.86.55 7.72 1.04 11.66 1.32.51.02.99.05 1.54.05l.85-.05c.17 0 .3-.04.51 0 .78.06 1.67.32 2.52.63 1.71.65 3.38 1.54 4.83 2.64.71.55 1.38 1.16 1.84 1.8.09.16.23.32.28.47.05.17.14.26.18.5.11.41.18.87.26 1.33.29 1.86.48 3.79.65 5.71.29 3.86.56 7.74.45 11.53z" fill="#000000" stroke-width="none" opacity="1" stroke="none"></path></g><g id="svga-group-head" transform="matrix(1,0,0,1,0,0)"><g id="svga-group-ears-left-move" transform="matrix(1,0,0,1,0,0)"><g id="svga-group-ears-left"><path id="SvgjsPath16961" d="M64.41 94.17s-2.58-5.02-4.51-7.21-6.82-5.79-7.98-5.54-6.31 14.04-6.82 16.1c-.52 2.06 6.18 8.63 6.82 9.79.64 1.16.52 3.99.39 4.76s5.15 2.83 7.85 2.19c2.71-.65 10.05-9.54 4.25-20.09z" fill="#f3d4cf" stroke-width="none" opacity="1" stroke="none"></path><path id="SvgjsPath16962" d="M64.03 100.6s-5.92-8.11-9.91-10.82c-3.99-2.7-5.67 7.73-5.41 8.76s4.64 6.31 6.31 7.08 7.33-.64 9.01-5.02z" fill="#e4b3ab" stroke-width="none" opacity="1" stroke="none"></path><path id="SvgjsPath16963" d="M45.09 97.02c-.06.22-.14.41-.16.67 0 .24.03.48.11.7.29.87.78 1.62 1.26 2.35.49.73 1.03 1.43 1.58 2.12 1.09 1.38 2.25 2.71 3.34 4.05.13.17.27.34.36.49.09.15.15.33.21.52.11.38.16.8.19 1.22.06.84.05 1.71-.04 2.55l-.04.31c-.02.4.16.52.24.63.21.22.41.34.61.47.41.25.82.44 1.24.61.84.35 1.69.62 2.57.82.88.2 1.78.33 2.72.29.47-.02.95-.08 1.43-.3.26-.08.43-.23.64-.35.21-.12.39-.27.57-.42 2.81-2.39 4.39-5.88 4.78-9.42.13-.89.07-1.78.07-2.67-.12-.88-.17-1.77-.43-2.62-.36-1.73-1.1-3.35-1.9-4.91-.79-1.57-1.65-3.09-2.54-4.6-.45-.76-.92-1.5-1.44-2.22-.53-.72-1.15-1.36-1.79-1.97a28.138 28.138 0 0 0-4.17-3.28c-.38-.24-.76-.48-1.18-.67-.2-.1-.43-.18-.65-.27-.24-.06-.49-.15-.87-.07-.46.23-.48.42-.65.62-.13.2-.25.39-.36.59-.22.39-.42.79-.61 1.19-1.46 3.22-2.59 6.54-3.8 9.83l-.87 2.48-.42 1.26zm.13.69c.01-.17.09-.4.14-.6l.4-1.25c.28-.83.59-1.65.9-2.47.61-1.64 1.28-3.26 1.97-4.86.69-1.6 1.41-3.2 2.19-4.75.19-.39.39-.77.6-1.14.11-.18.22-.36.33-.53.06-.09.12-.15.17-.23.03-.04.08-.07.09-.08.03 0 .08 0 .14.01.09.02.17.04.26.07.18.07.37.14.56.24.37.18.75.39 1.12.6 1.47.89 2.86 1.95 4.2 3.05.66.56 1.3 1.14 1.85 1.8.55.66 1.06 1.38 1.55 2.1.97 1.45 1.83 2.98 2.66 4.52 1.61 3.08 2.43 6.67 1.76 10.07-.3 1.69-.84 3.33-1.65 4.84-.81 1.49-1.83 2.91-3.12 3.96-.16.14-.32.26-.49.36-.17.09-.34.24-.51.28-.31.16-.72.21-1.12.22-.81.03-1.66-.09-2.49-.26-.83-.18-1.65-.42-2.44-.73a9.77 9.77 0 0 1-1.13-.53c-.17-.1-.34-.22-.44-.31l-.03-.03.03-.26c.07-.91.08-1.8-.01-2.7a7.4 7.4 0 0 0-.26-1.36c-.08-.23-.16-.46-.31-.69a5 5 0 0 0-.43-.55c-1.16-1.35-2.37-2.59-3.51-3.92-.57-.66-1.12-1.33-1.64-2.03-.51-.7-1.01-1.43-1.28-2.23-.03-.22-.06-.42-.06-.61z" fill="#e4b3ab" stroke-width="none" opacity="1" stroke="none"></path><path id="SvgjsPath16964" d="M50.5 92.01c.34-.68.71-1.4 1.37-1.89.31-.25.82-.37 1.21-.16.39.19.65.53.87.83.92 1.24 1.7 2.57 2.38 3.94 1.31 2.76 2.4 5.61 3.21 8.56l-.08.03c-1.35-2.74-2.56-5.51-3.83-8.25-.62-1.37-1.2-2.78-1.98-4.06-.19-.33-.41-.61-.7-.78-.29-.16-.64-.09-.93.11-.56.44-.91 1.14-1.21 1.81-.55 1.39-.85 2.89-.94 4.35-.02.36-.02.73.04 1.06.02.17.06.31.11.43.09.16.16.32.26.47.37.63.8 1.24 1.25 1.84.45.6.9 1.2 1.38 1.78l.71.87c.06.07.12.13.18.2.2-.53.34-1.18.48-1.78l.43-2.13c-.6-.94-1.19-1.89-1.75-2.86l.07-.05c.75.89 1.48 1.79 2.19 2.7l.06.07-.01.12a29.5 29.5 0 0 1-.27 2.28c-.14.77-.2 1.49-.53 2.33-.04.07-.05.11-.12.2-.03.04-.05.07-.13.13-.03.03-.07.05-.1.07-.06.03-.14.05-.21.05-.13.02-.29-.07-.35-.11l-.07-.06a.769.769 0 0 1-.13-.12c-.15-.15-.28-.29-.41-.43-.26-.29-.51-.58-.76-.88-.48-.6-.96-1.2-1.39-1.84-.44-.63-.86-1.28-1.24-1.97-.1-.17-.18-.36-.27-.54-.09-.24-.14-.46-.16-.67-.04-.42-.01-.82.03-1.21.18-1.57.68-3.04 1.34-4.44z" fill="#c5796d" stroke-width="none" opacity="1" stroke="none"></path></g></g><g id="svga-group-ears-right-move" transform="matrix(1,0,0,1,0,0)"><g id="svga-group-ears-right"><path id="SvgjsPath16965" d="M135.59 94.17s2.58-5.02 4.51-7.21 6.82-5.79 7.98-5.54 6.31 14.04 6.82 16.1c.52 2.06-6.18 8.63-6.82 9.79-.64 1.16-.52 3.99-.39 4.76.13.77-5.15 2.83-7.85 2.19-2.71-.65-10.05-9.54-4.25-20.09z" fill="#f3d4cf" stroke-width="none" opacity="1" stroke="none"></path><path id="SvgjsPath16966" d="M135.97 100.6s5.92-8.11 9.91-10.82c3.99-2.7 5.67 7.73 5.41 8.76-.26 1.03-4.64 6.31-6.31 7.08s-7.33-.64-9.01-5.02z" fill="#e4b3ab" stroke-width="none" opacity="1" stroke="none"></path><path id="SvgjsPath16967" d="m154.49 95.77-.87-2.48c-1.22-3.29-2.34-6.61-3.8-9.83-.19-.4-.39-.8-.61-1.19-.11-.2-.22-.39-.36-.59-.17-.2-.19-.39-.65-.62-.38-.08-.63.01-.87.07-.23.08-.45.16-.65.27-.42.19-.8.43-1.18.67-1.5.97-2.89 2.06-4.17 3.28-.64.61-1.26 1.25-1.79 1.97-.53.71-.99 1.46-1.44 2.22-.89 1.51-1.76 3.04-2.54 4.6-.8 1.56-1.54 3.17-1.9 4.91-.26.85-.3 1.74-.43 2.62 0 .89-.06 1.78.07 2.67.38 3.54 1.96 7.03 4.78 9.42.17.15.36.3.57.42.21.12.38.27.64.35.49.23.96.28 1.43.3.94.04 1.84-.09 2.72-.29.88-.2 1.74-.47 2.57-.82.42-.18.83-.37 1.24-.61.2-.13.4-.25.61-.47.08-.12.26-.23.24-.63l-.04-.31c-.09-.84-.09-1.71-.04-2.55.03-.42.09-.84.19-1.22.06-.19.12-.37.21-.52.1-.15.23-.33.36-.49 1.1-1.34 2.26-2.67 3.34-4.05.55-.69 1.08-1.39 1.58-2.12.49-.74.97-1.48 1.26-2.35.07-.22.11-.45.11-.7-.02-.27-.1-.45-.16-.67l-.42-1.26zm.19 2.53c-.27.8-.77 1.53-1.28 2.23s-1.07 1.37-1.64 2.03c-1.14 1.33-2.36 2.57-3.51 3.92-.14.17-.29.34-.43.55-.14.23-.23.46-.31.69a7.4 7.4 0 0 0-.26 1.36c-.09.9-.09 1.79-.01 2.7l.03.26c-.01.01-.01.02-.03.03-.1.1-.27.22-.44.31-.35.2-.73.38-1.13.53-.79.31-1.61.55-2.44.73-.83.17-1.67.29-2.49.26-.4-.01-.81-.07-1.12-.22-.17-.04-.34-.18-.51-.28-.17-.09-.33-.22-.49-.36-1.29-1.05-2.31-2.47-3.12-3.96-.81-1.5-1.35-3.15-1.65-4.84-.67-3.4.14-6.99 1.76-10.07.83-1.54 1.69-3.07 2.66-4.52.49-.72 1-1.43 1.55-2.1.55-.66 1.19-1.24 1.85-1.8 1.34-1.1 2.73-2.16 4.2-3.05.37-.22.74-.43 1.12-.6.19-.1.37-.17.56-.24.09-.03.17-.04.26-.07.07-.01.11-.01.14-.01.01.01.06.05.09.08.06.08.12.14.17.23.12.16.22.35.33.53.21.37.41.75.6 1.14.78 1.55 1.5 3.15 2.19 4.75.7 1.6 1.36 3.22 1.97 4.86.31.82.62 1.64.9 2.47l.4 1.25c.06.2.13.43.14.6.04.21.01.41-.06.61z" fill="#e4b3ab" stroke-width="none" opacity="1" stroke="none"></path><path id="SvgjsPath16968" d="M149.5 92.01c-.34-.68-.71-1.4-1.37-1.89-.31-.25-.82-.37-1.21-.16-.39.19-.65.53-.87.83-.92 1.24-1.7 2.57-2.38 3.94-1.31 2.76-2.4 5.61-3.21 8.56l.08.03c1.35-2.74 2.56-5.51 3.83-8.25.62-1.37 1.2-2.78 1.98-4.06.19-.33.41-.61.7-.78.29-.16.64-.09.93.11.56.44.91 1.14 1.21 1.81.55 1.39.85 2.89.94 4.35.02.36.01.73-.04 1.06-.02.17-.06.31-.11.43-.09.16-.16.32-.26.47-.37.63-.8 1.24-1.25 1.84-.45.6-.9 1.2-1.38 1.78l-.71.87c-.06.07-.12.13-.18.2-.2-.53-.34-1.18-.48-1.78l-.43-2.13c.6-.94 1.19-1.89 1.75-2.86l-.07-.05c-.75.89-1.48 1.79-2.19 2.7l-.06.07.01.12c.06.76.15 1.52.27 2.28.14.77.2 1.49.53 2.33.04.07.05.11.12.2.03.04.05.07.13.13.03.03.07.05.1.07.06.03.14.05.21.05.13.02.29-.07.35-.11l.07-.06c.05-.04.1-.08.13-.12.15-.15.28-.29.41-.43.26-.29.51-.58.76-.88.48-.6.96-1.2 1.39-1.84.44-.63.86-1.28 1.24-1.97.1-.17.18-.36.27-.54.09-.24.14-.46.16-.67.04-.42.01-.82-.03-1.21-.18-1.57-.68-3.04-1.34-4.44z" fill="#c5796d" stroke-width="none" opacity="1" stroke="none"></path></g></g><g id="svga-group-faceshape-wrap"><g id="svga-group-faceshape-single"><path id="SvgjsPath16648" d="M150 109.2c-1.4-6.5-5.4-17.4-4.6-30.4 0 0-2.4-21.2-9.5-29-6.7-7.4-11.3-13.2-28.8-17.3-1.8-.4-12.3-.4-14.1 0-17.5 4.1-22.1 9.9-28.8 17.3-7.1 7.8-9.5 29-9.5 29 .9 13.1-3.1 23.9-4.6 30.4-1.4 6.5-3.1 19.5 9 28.6s31.9 1.7 31.9 1.7c3.7 4.2 8.9 4 8.9 4s5.3.3 8.9-4c0 0 19.8 7.4 31.9-1.7s10.7-22.1 9.3-28.6z" fill="#f3d4cf" stroke-width="none" opacity="1" stroke="none"></path><path id="SvgjsPath16649" d="M141 137.8c12.26-8.91 10.5-22.1 9-28.6-1.4-6.5-5.4-17.4-4.6-30.4 0 0-2.4-21.2-9.5-29-6.7-7.4-11.3-13.2-28.8-17.3-1.8-.4-12.3-.4-14.1 0-17.5 4.1-22.1 9.9-28.8 17.3-7.1 7.8-9.5 29-9.5 29 .9 13.1-3.1 23.9-4.6 30.4-1.4 6.5-3.1 19.5 9 28.6s31.9 1.7 31.9 1.7c3.7 4.2 8.9 4 8.9 4s5.3.3 8.9-4c.2 0 19.33 7.65 32.2-1.7zm-20 2.9c-1.3-.2-6.5-1.2-7.8-1.5-.6-.2-1.3-.4-1.9-.6-.6-.2-2.7-1-2.7-1l-.8.8c-.5.5-2.2 1.8-2.5 2-.3.2-.6.3-1 .5-.7.3-3.93.88-5.3.8-1.29-.07-2.5-.6-3.2-.9-.3-.1-3-2-3.5-2.5l-.8-.9s-3.3 1.1-3.8 1.2c-.9.3-1.9.5-2.8.7-1.9.4-3.8.7-5.7.9-3.8.4-7.7.3-11.4-.5-5.61-1.28-9.3-4.9-9.7-5.2-1.4-1.3-2.6-2.7-3.7-4.2-.5-.8-2.4-4.6-2.5-5-1.2-3.5-1.5-7.4-1.2-11.2.2-1.9 1.8-9.5 2.3-11.5s2-9.9 2.2-11.9c.5-4 .5-8.1.2-12.1.3-2.9.8-5.9 1.3-8.8.3-1.5.6-2.9.9-4.4.4-1.5.8-2.9 1.2-4.3.9-2.8 2-5.7 3.4-8.2.2-.3 2.4-3.3 2.6-3.5 1-1.1 2-2.2 3.1-3.3 2.1-2.2 4.3-4.2 6.7-5.8 2.5-1.6 5.1-3 7.9-4 2.8-1.1 5.7-1.9 8.6-2.5l1.6-.3s5.6-.1 7.1-.1 3 .1 4.5.2c.4 0 4.2.7 4.2.7 2.9.8 5.7 1.7 8.4 2.8 2.7 1.1 5.3 2.5 7.7 4.1 1.2.8 2.3 1.7 3.4 2.7s2.1 2 3.2 3.1c1 1.1 4.7 5.3 4.7 5.3s3.5 6.5 4.5 9.3c1 2.8 1.8 5.7 2.5 8.6s1.3 5.8 1.7 8.8c-.1 2.6 0 5.2.2 7.7.2 2.6.6 5.2 1.1 7.7s1.1 5 1.8 7.5 1.4 5 1.9 7.5c.6 2.6.9 5.3.9 8s-.4 5.4-1.2 7.9c-.8 2.6-2.1 4.9-3.7 7-3.93 4.98-9.3 7.1-9.3 7.1-1.2.5-6.3 1.5-7.6 1.6-1.3.1-6.4-.1-7.7-.3z" fill="#c5796d" stroke-width="none" opacity="1" stroke="none"></path></g></g><g id="svga-group-mouth-single-move" transform="matrix(1,0,0,1,0,0)"><g id="svga-group-mouth-single"><path id="SvgjsPath16840" d="M86.91 124.8c.07.65 1.73 1.37 3.46 1.87s6.92.58 9.44.65c2.52.07 13.47-2.02 14.48-2.59 1.01-.58-6.77-3.6-9.51-3.1s-5.12 2.16-6.56 1.8-3.53-1.87-4.83-1.3c-1.3.58-3.82 2.31-4.47 2.38-.64.07-2.01.29-2.01.29z" fill="#de5162" stroke-width="none" opacity="1" stroke="none"></path><path id="SvgjsPath16841" d="M86.04 124.67c1.27 1.34 2.83 1.27 4.34.24.69-.47 1.37-1.28 2.13-1.64 1.5-.72 2.18-.19 3.42.37.97.44 1.78.68 2.89.55 1.16-.14 1.96-.64 3.01-1.08 2.44-.99 4.14-.26 6.51.73 2.75 1.17 5.14 2.17 8.04.5.39-.23.17-.78-.34-.68-4.06.76-6.65-2.56-9.91-3.36-2.72-.67-4.16.44-6.33 1.51-1.05.53-1.25 1.23-2.98.41-.47-.23-.82-.71-1.27-.97-.73-.43-1.44-.61-2.31-.5-2.36.3-4.5 4.11-6.75 3.16-.42-.19-.75.45-.45.76z" fill="#cf3749" stroke-width="none" opacity="1" stroke="none"></path></g></g><g id="svga-group-eyes-left-move" transform="matrix(1,0,0,1,0,1)"><g id="svga-group-eyes-left"><g id="svga-group-eyesback-left"><path id="SvgjsPath17447" d="M80.2 77.2c7.5 0 13.5 5.8 13.5 13s-6 13-13.5 13-13.5-5.8-13.5-13 6-13 13.5-13z" fill="#ffffff" stroke-width="none" opacity="1"></path></g><g id="svga-group-eyesiriswrapper-left" transform="matrix(1,0,0,1,0,0)"><g id="svga-group-eyesiriscontrol-left" transform="matrix(1,0,0,1,0,0)"><g id="svga-group-eyesiris-left"><path id="SvgjsPath17553" d="M80.2 84.9c2.9 0 5.3 2.4 5.3 5.3s-2.4 5.3-5.3 5.3-5.3-2.4-5.3-5.3 2.4-5.3 5.3-5.3z" fill="#311400" stroke-width="none" opacity="1"></path><path id="SvgjsPath17554" d="M80.2 95.8c-3.1 0-5.6-2.5-5.6-5.6s2.5-5.6 5.6-5.6 5.6 2.5 5.6 5.6c0 3.1-2.5 5.6-5.6 5.6zm0-10.6c-2.8 0-5 2.3-5 5.1s2.3 5 5.1 5 5-2.3 5-5.1c-.1-2.8-2.4-5-5.1-5z" fill="#210e00" stroke-width="none" opacity="1"></path><path id="SvgjsPath17555" d="M80.2 85.7c2.5 0 4.5 2 4.5 4.5s-2 4.5-4.5 4.5-4.5-2-4.5-4.5 2-4.5 4.5-4.5z" fill="#381700" stroke-width="none" opacity="1"></path><path id="SvgjsPath17556" d="M80.2 86.3c2.2 0 3.9 1.7 3.9 3.9s-1.7 3.9-3.9 3.9-3.9-1.7-3.9-3.9 1.7-3.9 3.9-3.9z" fill="#401a00" stroke-width="none" opacity="1"></path><path id="SvgjsPath17557" d="M80.2 87.3c1.6 0 2.9 1.3 2.9 2.9s-1.3 2.9-2.9 2.9-2.9-1.3-2.9-2.9 1.3-2.9 2.9-2.9z" fill="#000000" stroke-width="none" opacity="1"></path><path id="SvgjsPath17558" d="M78.9 87.3c.5 0 1 .4 1 1s-.4 1-1 1c-.5 0-1-.4-1-1s.4-1 1-1zm3.3 4.6c.2 0 .4.2.4.4s-.2.4-.4.4-.4-.2-.4-.4c0-.3.2-.4.4-.4z" fill="#ffffff" stroke-width="none" opacity="1"></path></g></g></g><g id="svga-group-eyesfront-left"><path id="SvgjsPath17455" d="M80.2 76.7c-7.8 0-14.1 6.1-14.1 13.6s6.3 13.6 14.1 13.6 14.1-6.1 14.1-13.6S88 76.7 80.2 76.7zm3.2 20.4c-3.9 1.7-7.2.9-9.8-.2S67 91.4 67 91.4s3.8-3.7 5.9-4.5 10-1.7 12.2 0 4.4 3.8 4.4 3.8c-.5.8-2.2 4.8-6.1 6.4z" fill="#f3d4cf" stroke-width="none" opacity="1" stroke="none"></path><path id="SvgjsPath17456" d="M66.8 91.3s4.8-3.6 6-4.3 7.7-1.2 10.7-.4c4.3 1.2 7.1 5.6 7.1 5.6s0-2.4-.7-5.1c-.8-2.7-5.2-6.9-5.2-6.9s-5.5-1.9-8.4-.9-4.7 3.9-6.3 6.2c-1.6 2.2-2.7 3.7-3.2 5.8z" fill="#ebc3bd" stroke-width="none" opacity="1" stroke="none"></path><path id="SvgjsPath17457" d="M90.6 92.4v-.2c0-1.2-.1-2.3-.3-3.5-.1-.6-.2-1.2-.4-1.7-.2-.6-.4-1.1-.7-1.6-.6-1-1.3-1.9-2.1-2.8s-1.6-1.8-2.4-2.6h-.1c-1-.3-2-.6-3.1-.8s-2.1-.4-3.2-.4c-.5 0-1.1 0-1.6.1-.6.1-1.1.3-1.6.6-1 .5-1.8 1.2-2.5 2s-1.4 1.7-1.9 2.5c-.6.9-1.2 1.8-1.8 2.6-1.1 1.8-2.1 2.6-2.6 4.7l.4.3c1.5 1.8 3.2 3.4 5.1 4.8.5.3 1 .7 1.6.9.5.2 1.1.4 1.7.6 1.1.3 2.3.5 3.5.6 2.4 0 4.8-.7 6.7-2.2.9-.7 1.7-1.6 2.4-2.6.7-.9 1.1-1.7 1.6-2.7.1.1 1.1 1.2 1.1 1.3l.2.1zm-1.1-1.5c-.1-.1-.1-.1-.1 0-.3.4-.5.8-.8 1.3-.3.5-.7.9-1 1.4-.7.9-1.5 1.7-2.5 2.4-.9.7-2 1.1-3.1 1.4-1.1.3-2.2.5-3.4.5-1.1 0-2.3-.2-3.4-.5-.6-.2-1.1-.3-1.6-.6-.5-.2-1-.5-1.5-.8-.9-.7-1.8-1.4-2.7-2.2-.8-.8-1.6-1.6-2.3-2.4l-.4-.3c.1-.5.3-1 .5-1.4.1-.1.1-.2.2-.4.5-.9 1.1-1.8 1.7-2.6 1.2-1.7 2.4-3.5 3.8-5 .7-.7 1.5-1.4 2.4-1.9.4-.2.9-.4 1.4-.5.5-.1 1-.1 1.5-.1 2 .1 4.1.5 6.1 1.1.8.8 1.6 1.6 2.3 2.4.8.9 1.5 1.8 2.1 2.7.3.5.6 1 .7 1.5.2.6.3 1.1.4 1.7.2 1.1.3 2.1.4 3.2.2.1-.7-.9-.7-.9z" fill="#000000" stroke-width="none" opacity="1" stroke="none"></path><path id="SvgjsPath17458" d="M90.7 92.5s-1.5-4.2-3.9-5.8c-1.8-1.2-7.3-2.6-11.4-2s-8.5 3.7-9.6 4.1-2.9 1-4.6.1c0 0 2.7 2.6 5.1 3.2 0 0 3.9-3.1 7-4.3s6.7-1.6 9.7-.9c2.9.8 4.1 1.5 7.7 5.6z" fill="#000000" stroke-width="none" opacity="1" stroke="none"></path></g></g></g><g id="svga-group-eyes-right-move" transform="matrix(1,0,0,1,0,1)"><g id="svga-group-eyes-right"><g id="svga-group-eyesback-right"><path id="SvgjsPath17448" d="M119.8 77.2c7.5 0 13.5 5.8 13.5 13s-6 13-13.5 13-13.5-5.8-13.5-13 6-13 13.5-13z" fill="#ffffff" stroke-width="none" opacity="1"></path></g><g id="svga-group-eyesiriswrapper-right" transform="matrix(1,0,0,1,0,0)"><g id="svga-group-eyesiriscontrol-right" transform="matrix(1,0,0,1,0,0)"><g id="svga-group-eyesiris-right"><path id="SvgjsPath17559" d="M119.8 85.5c2.6 0 4.7 2.1 4.7 4.7s-2.1 4.7-4.7 4.7-4.7-2.1-4.7-4.7 2.1-4.7 4.7-4.7z" fill="#311400" stroke-width="none" opacity="1"></path><path id="SvgjsPath17560" d="M119.8 95.1c-2.7 0-4.9-2.2-4.9-4.8 0-2.7 2.2-4.9 4.8-4.9 2.7 0 4.9 2.2 4.9 4.8.1 2.7-2.1 4.9-4.8 4.9zm0-9.3c-2.4 0-4.4 2-4.4 4.4s2 4.4 4.4 4.4 4.4-2 4.4-4.4c0-2.4-2-4.4-4.4-4.4z" fill="#210e00" stroke-width="none" opacity="1"></path><path id="SvgjsPath17561" d="M119.8 86.2c2.2 0 4 1.8 4 4s-1.8 4-4 4-4-1.8-4-4 1.8-4 4-4z" fill="#381700" stroke-width="none" opacity="1"></path><path id="SvgjsPath17562" d="M119.8 86.8c1.9 0 3.4 1.5 3.4 3.4s-1.5 3.4-3.4 3.4-3.4-1.5-3.4-3.4 1.5-3.4 3.4-3.4z" fill="#401a00" stroke-width="none" opacity="1"></path><path id="SvgjsPath17563" d="M119.8 87.7c1.4 0 2.5 1.1 2.5 2.5s-1.1 2.5-2.5 2.5-2.5-1.1-2.5-2.5 1.1-2.5 2.5-2.5z" fill="#000000" stroke-width="none" opacity="1"></path><path id="SvgjsPath17564" d="M118.7 87.7c.5 0 .9.4.9.9s-.4.9-.9.9-.9-.4-.9-.9.4-.9.9-.9zm2.9 4c.2 0 .3.1.3.3s-.1.3-.3.3c-.2 0-.3-.1-.3-.3s.1-.3.3-.3z" fill="#ffffff" stroke-width="none" opacity="1"></path></g></g></g><g id="svga-group-eyesfront-right"><path id="SvgjsPath17459" d="M119.8 76.7c-7.8 0-14.1 6.1-14.1 13.6s6.3 13.6 14.1 13.6 14.1-6.1 14.1-13.6-6.3-13.6-14.1-13.6zm6.9 21c-2.6 1.2-7 1.3-10.9-.4s-5.4-5.8-6-6.7c0 0 1.8-1.8 4.1-3.5 2.2-1.8 10.3-1.1 12.4-.2 2.1.9 5.9 4.3 5.9 4.3s-2.9 5.3-5.5 6.5z" fill="#f3d4cf" stroke-width="none" opacity="1" stroke="none"></path><path id="SvgjsPath17462" d="M132.1 91s-2.1-1.7-6.3-3c-1.3-.4-7.2-1.4-10.2-.8-3 .6-7 4.8-7 4.8s0-2 .7-4.3c.8-2.2 5.2-5.7 5.2-5.7s4.8-.8 7.6 0 5.5 2.5 7 4.3c1.7 1.9 2.5 3 3 4.7z" fill="#ebc3bd" stroke-width="none" opacity="1" stroke="none"></path><path id="SvgjsPath17463" d="M131.6 89.4c-.5-.8-1-1.6-1.6-2.4-.3-.4-.6-.8-.9-1.1-.3-.4-.7-.7-1.1-1-.7-.6-1.5-1.2-2.4-1.7-.8-.5-1.7-.9-2.6-1.2-.9-.3-1.9-.5-2.8-.6-1.9-.1-3.8 0-5.7.3h-.2c-.8.6-1.5 1.3-2.2 2s-1.4 1.4-2 2.3c-.3.4-.6.8-.8 1.3-.2.5-.3 1-.4 1.5-.2 1-.3 2.1-.3 3.1v.2l.2-.1c.4-.4.8-.8 1.2-1.1.5.9.9 1.9 1.5 2.7.7 1 1.5 2 2.5 2.7 1 .8 2.1 1.3 3.3 1.7 1.2.4 2.4.6 3.6.7s2.4.1 3.6-.2c.6-.1 1.2-.3 1.8-.5.3-.1.6-.2.9-.4.3-.2.5-.3.8-.5 1-.8 1.8-1.8 2.5-2.8.7-1 1.3-2 1.9-3-.2.1-.2-.9-.8-1.9zm-1.6 4.7c-.7 1-1.5 1.9-2.4 2.7-.9.8-2.1 1-3.2 1.3-1.2.2-2.3.2-3.5.2-1.2-.1-2.3-.3-3.5-.6-1.1-.3-2.2-.8-3.2-1.5-1.8-1.3-3.2-3.4-4.3-5.4-.3.3-.7.6-1.1.9v-.2c0-1 .2-1.5.4-2.5.1-.5.3-1 .5-1.4.2-.4.5-.8.8-1.2.6-.8 1.3-1.5 2.1-2.2.7-.7 1.4-1.3 2.2-1.9 1.8-.2 3.7-.3 5.5-.2.9.1 1.8.2 2.7.5.9.3 1.7.7 2.6 1.1s1.6 1 2.3 1.6c.4.3.7.6 1 1 .3.3.6.7.9 1.1.5.6 2.2 4 2.2 4-.6.8-1.3 1.8-2 2.7z" fill="#000000" stroke-width="none" opacity="1" stroke="none"></path><path id="SvgjsPath17464" d="M108.2 92.6s4.6-4.2 6.9-4.9c2.3-.7 8.4 0 10.4.6 1.9.6 6.8 3.4 7.5 3.8s3.6-1.8 4.2-2.6c0 0-2.2.8-5-.5-1-.4-6.1-3.2-8.9-3.3-2.9-.1-7.8 0-9.2.8-3.5 1.7-5.9 6.1-5.9 6.1z" fill="#000000" stroke-width="none" opacity="1" stroke="none"></path></g></g></g><g id="svga-group-facehighlight-single"></g><g id="svga-group-eyebrows-left-move" transform="matrix(1,0,0,1,0,0)"><g id="svga-group-eyebrows-left-rotate" transform="matrix(1,1.7453289369306901e-9,-1.7453289369306901e-9,1,0.05454165322025517,0.08303278022292204)"><g id="svga-group-eyebrows-left"><path id="SvgjsPath17739" d="M70.59 78.25s8.95.22 15.52-1.79c6.56-2.01 5.47-6.31 4.9-7.59-.57-1.28-2.54-.2-5.41 1.43-3.98 2.27-17.4 5.64-19.33 6.33-3.84 1.36 4.32 1.62 4.32 1.62z" fill="#2a232b" stroke-width="none" opacity="1"></path><path id="SvgjsPath17740" d="M70.58 78.58c-3.66-.11-5.56-.52-5.67-1.21-.08-.52.58-.83 1.24-1.06.52-.18 1.78-.54 3.52-1.03 4.81-1.35 12.85-3.62 15.76-5.28 2.53-1.44 4.13-2.31 5.15-1.97.34.11.59.34.74.7.23.52.91 2.37.03 4.3-.77 1.69-2.5 2.95-5.14 3.76-1.28.39-2.66.7-4.05.94-5.68.98-11.51.86-11.58.85zm15.18-7.99c-2.98 1.69-11.07 3.98-15.91 5.34-1.67.47-2.98.84-3.48 1.02-.42.15-.62.26-.72.33.56.3 2.9.56 4.94.63.13 0 8.99.19 15.41-1.77 2.45-.75 4.04-1.89 4.72-3.39.76-1.67.17-3.29-.04-3.74-.08-.17-.18-.28-.33-.33-.15-.05-.33-.05-.55-.01-.94.16-2.51 1.05-4.04 1.92z" fill="#1b141c" stroke-width="none" opacity="1"></path></g></g></g><g id="svga-group-eyebrows-right-move" transform="matrix(1,0,0,1,0,0)"><g id="svga-group-eyebrows-right-rotate" transform="matrix(0.9999999999999998,1.745329158975295e-9,-1.745329158975295e-9,0.9999999999999998,-0.1659370449377917,-0.1840713141774728)"><g id="svga-group-eyebrows-right"><path id="SvgjsPath17741" d="M130.7 78.5s-8.12 1.75-14.41.9c-6.29-.85-5.98-5.28-5.66-6.64.31-1.36 2.28-.64 5.15.48 3.99 1.55 16.74 2.58 18.61 2.92 3.69.69-3.69 2.34-3.69 2.34z" fill="#2a232b" stroke-width="none" opacity="1"></path><path id="SvgjsPath17742" d="M120.08 79.97c-1.3 0-2.6-.07-3.83-.23-2.53-.34-4.31-1.29-5.28-2.82-1.11-1.75-.78-3.69-.65-4.24.09-.37.28-.65.56-.81.87-.5 2.47.07 5 1.06 2.91 1.13 10.59 1.98 15.18 2.5 1.67.19 2.87.32 3.37.41.64.12 1.29.31 1.3.83.01.7-1.66 1.43-4.97 2.17-.07.01-5.35 1.13-10.68 1.13zm-8.4-7.61c-.21 0-.38.03-.5.11-.13.07-.21.2-.25.38-.11.48-.4 2.17.56 3.69.86 1.36 2.49 2.21 4.84 2.53 6.15.83 14.19-.87 14.31-.9 1.85-.41 3.94-1.07 4.4-1.46-.1-.05-.31-.13-.71-.2-.48-.09-1.74-.23-3.33-.41-4.62-.51-12.35-1.37-15.33-2.53-1.53-.6-3.1-1.21-3.99-1.21z" fill="#1b141c" stroke-width="none" opacity="1"></path></g></g></g><g id="svga-group-nose-single-move" transform="matrix(1,0,0,1,0,0)"><g id="svga-group-nose-single"><path id="SvgjsPath16703" d="M103.09 88.3s2.46 9.84 3.85 16.26c1.39 6.42.43 8.34-1.18 8.88s-8.56.43-10.48 0c-1.93-.43-3-1.39-3.32-3.74s4.17-22.04 4.17-22.04.55-3.51 1.69-4.36c1.15-.86 3.78-1.31 5.27 5z" fill="#ebc3bd" stroke-width="none" opacity="1" stroke="none"></path><path id="SvgjsPath16704" d="m103.09 88.3 2.37 9.49 1.17 4.75c.38 1.58.78 3.17 1.02 4.8.12.81.21 1.63.21 2.47 0 .83-.07 1.69-.43 2.51-.18.41-.47.79-.85 1.07-.37.28-.83.44-1.25.51-.84.16-1.66.21-2.48.25-1.64.07-3.28.08-4.92-.01-.82-.05-1.64-.1-2.48-.23-.84-.16-1.71-.43-2.43-1.03-.72-.6-1.12-1.48-1.31-2.31-.05-.21-.09-.42-.12-.63-.04-.19-.05-.48-.04-.68.01-.44.06-.84.11-1.26.22-1.63.53-3.24.85-4.84.66-3.2 1.38-6.38 2.12-9.55l1.13-4.76.29-1.18c.07-.4.16-.8.26-1.2.21-.79.44-1.58.82-2.31.19-.36.43-.72.79-.95.34-.23.74-.38 1.16-.4.84-.07 1.61.43 2.12 1.05.53.63.9 1.37 1.19 2.13.29.74.51 1.52.7 2.31zm0 0c-.19-.79-.42-1.58-.72-2.33-.3-.76-.67-1.49-1.2-2.11-.27-.3-.57-.58-.93-.77-.36-.19-.77-.28-1.17-.24-.4.03-.79.19-1.12.41-.34.22-.56.57-.74.93-.36.72-.58 1.51-.76 2.3-.09.4-.16.79-.22 1.2l-.25 1.2-.97 4.79c-.64 3.2-1.25 6.4-1.8 9.6-.28 1.6-.56 3.21-.75 4.81-.04.4-.09.8-.1 1.18-.01.21 0 .33.03.54.03.19.07.38.11.57.18.74.51 1.42 1.06 1.86.54.45 1.28.71 2.03.85.76.13 1.58.19 2.38.24 1.61.09 3.24.13 4.85.09 1.56-.12 3.45.11 4.07-1.35.33-.67.43-1.47.46-2.26.02-.8-.03-1.6-.13-2.4-.18-1.61-.53-3.2-.86-4.79-.33-1.59-.67-3.19-1.03-4.78-.7-3.2-1.46-6.37-2.24-9.54z" fill="#c5796d" stroke-width="none" opacity="1" stroke="none"></path><path id="SvgjsPath16705" d="M97.45 111.06c-.63-.59-1.86-1.5-2.78-1.14-.18.07-.26.28-.11.43.28.29.73.42 1.08.61.41.23.77.48 1.1.81.46.46 1.18-.26.71-.71z" fill="#c5796d" stroke-width="none" opacity="1" stroke="none"></path><path id="SvgjsPath16706" d="M105.45 110.12c-.47-.3-1.21.08-1.63.36-.47.31-.87.72-1.04 1.27-.09.3.3.5.51.3.33-.3.63-.62 1.04-.81.39-.19.89-.13 1.2-.44.21-.2.15-.53-.08-.68z" fill="#c5796d" stroke-width="none" opacity="1" stroke="none"></path></g></g><g id="svga-group-hair-front"><path id="SvgjsPath17997" d="M106.8 43.7s-2.2 14.7-11.4 19.2c-9.1 4.5-19.4 3.2-27.7 5.8S54.8 78.9 60.2 86c0 0-4.3-1.5-3.7-8.2 0 0-3 9.1 5.2 15.8 0 0-6.9-1.5-9.7-11.4S49.4 61.7 57.6 50s20.3-24.6 48.6-20.9 39.1 31.3 39.7 34.8c.6 3.5 7.3 24.2-6.3 35.4 0 0 5-8.2 1.1-16.6s-13.8-14-17.1-15.3c-3.3-1.3-11.9-7.8-14.2-12.7s-3-8.2-2.6-11z" fill="#994848" stroke-width="none" opacity="1" stroke="none"></path><path id="SvgjsPath17998" d="M105.7 36.9c-.1-.4-.7-.2-.6.2 1.6 8.4-.7 16.9-7.1 22.8-6.8 6.3-15.6 5.6-24.2 6.8-5.4.8-11.4 2.5-14.5 7.4-2.4 3.8-2.7 8.8.5 12.2.3.3.8-.1.6-.4-7.1-10.7 6.4-17.2 15-18.1 6.4-.7 13.2-.6 18.9-3.9 9.2-5.3 14.4-16.9 11.4-27zM59.1 48.4c10.5-15.7 28-20.9 46-19.1.3 0 .3-.4.1-.5C86.8 24 66.5 34 57 49.8c-7 11.7-12.3 37.4 3.9 44.6.2.1.4-.2.2-.3-14.7-10.5-10.8-32.6-2-45.7zm39.2-11.8c-6.7 16.7-25.3 17.8-37.2 29-7 6.6-10.8 19.3-1.6 26 .3.2.7-.3.4-.6-5.7-5.2-6.1-13.2-2.2-19.7 3.8-6.2 10.3-9.9 16.6-13.1 9.4-4.8 22-10 24.4-21.6.1-.2-.3-.3-.4 0zM145 60.5c-5.8-15.2-20-28.1-36.4-30.6-.3 0-.4.4-.1.5 15 4.4 27.7 12.9 34.4 27.5 5.3 11.6 7.6 29.7-1.9 39.5 3.2-5.4 1.7-13.6-2.2-18.6C129 66.1 103 61.4 108 40.9c.1-.3-.3-.3-.4-.1-4.6 11.1 5.8 20.5 14.2 26 6.1 4 12.8 7.6 17 13.8 4.6 7 4.1 17.8-4.9 21-.4.1-.2.8.2.6.8-.2 1.6-.5 2.3-.8.1.1.3.2.5.1 14.4-7 12.9-28.5 8.1-41zm-24.6-6c7.3 6.7 15.8 11.5 19.6 21.2.1.2.4.2.4-.1-4.1-17-28.6-20.4-28.4-39.6 0-.4-.5-.3-.5 0-.8 7.5 3.6 13.7 8.9 18.5z" fill="#8a3333" stroke-width="none" opacity="1" stroke="none"></path></g><g id="svga-group-glasses-single-move" transform="matrix(1,0,0,1,0,-2)"><g id="svga-group-glasses-single" transform="matrix(1.0000001,0,0,1.0000001,-0.000010048520280747653,-0.000009308749781666847)"><path id="SvgjsPath17818" d="M63.2 81.1c-2.8 1.4-5 4.1-2.3 11.2 2.5 6.7 7.1 10.4 11.2 13 4.1 2.5 10.6 2.4 14.9 1 4.4-1.3 8.8-9.9 9-14.1.2-4.4-2.1-7-7.4-9.7-5.4-2.7-18.8-4.8-25.4-1.4z" fill="url(#SvgjsLinearGradient17819)" opacity="1"></path><path id="SvgjsPath17827" d="M137.7 80.8c2.8 1.4 4.8 4.1 1.7 11.3-2.9 6.8-7.8 10.5-12.1 13.1-4.2 2.5-10.8 2.4-15.1 1.1-4.3-1.3-8.3-9.9-8.2-14.1 0-4.4 2.4-7 8-9.7 5.6-2.8 19.2-5 25.7-1.7z" fill="url(#SvgjsLinearGradient17828)" opacity="1"></path><path id="SvgjsPath17836" d="M143.8 81.4c-.5-2.9-8.2-2.9-12-3.1-3.8-.2-17.4-.1-23.4 5.5-5 4.6-6.7 5-7.8 5h-1c-1 0-2.7-.4-7.5-4.9-5.7-5.5-19.2-5.6-22.9-5.3-3.7.2-11.3.3-12 3.2-.6 2.7 1.7 10.2 5.8 16.7 3.8 6.1 10 9.3 18.6 9.5 8.5.2 12.6-7.4 13.8-10.3 1.4-3.3 2.1-6.3 4.2-6.3h1c2.1 0 2.6 3 3.8 6.3 1.1 2.9 4.7 10.5 13.3 10.3 8.6-.2 15.1-3.5 19.3-9.6 4.5-6.5 7.3-14.1 6.8-17zM93 99.2c-2.7 4.5-6.2 8.7-14.6 7.4-7.2-1.1-13.6-7.5-15.9-12.5-2.5-5.1-4.4-14 9.7-13.8 14.1.3 19 4.5 21.7 7.1 2.2 2.2 1.5 7.8-.9 11.8zm44.8-5.1c-2.7 5-9.5 11.5-16.8 12.6-8.6 1.3-11.8-3-14.3-7.5-2.2-4-2.6-9.6-.2-11.8 2.8-2.6 8-6.9 22.2-7.2 14.3-.4 11.9 8.6 9.1 13.9z" fill="#26120b" stroke-width="none" opacity="1"></path><path id="SvgjsPath17837" d="M143.7 81.4c-.3-1.2-1.5-1.7-2.6-2.1-1.2-.3-2.4-.5-3.7-.7-1.3-.1-2.5-.2-3.8-.2-1.3-.1-2.6-.1-3.9-.1-5.2 0-10.4.6-15.4 2.3-.6.2-1.2.5-1.8.7-.6.3-1.2.6-1.7.9-1.1.7-2.1 1.4-3 2.3-.9.8-1.9 1.7-2.9 2.4s-2 1.5-3.3 1.9c-.3.1-.7.1-1 .1h-.9c-.7 0-1.3-.2-1.9-.4-1.1-.5-2.1-1.3-3-2.1-.9-.8-1.8-1.6-2.7-2.5-.9-.8-1.9-1.6-3-2.1-2.2-1.2-4.7-1.9-7.2-2.4s-5.1-.8-7.6-.9c-2.6-.2-5.1 0-7.6.1-2.5.2-5.1.3-7.3 1.2-.5.2-1 .5-1.4.9-.4.4-.5 1-.5 1.6-.1 1.2.2 2.4.4 3.6.5 2.3 1.4 4.6 2.4 6.8 1 2.1 2.1 4.2 3.3 6.1 1.3 1.9 2.8 3.6 4.7 4.9 1.8 1.3 3.9 2.3 6.1 2.9 2.2.6 4.4.9 6.6 1 2.2.1 4.4-.2 6.3-1.1s3.6-2.3 4.9-3.9c1.3-1.6 2.4-3.5 3.2-5.4l1.2-3.1c.2-.5.5-1.1.8-1.6.3-.5.7-1 1.3-1.3.3-.2.7-.2 1-.2h.9c.7-.1 1.4.3 1.8.8.8.9 1.1 2 1.5 3.1.3 1 .7 2.1 1.1 3 .4 1 .8 1.9 1.4 2.8 1 1.8 2.3 3.3 4 4.6 1.6 1.2 3.6 2 5.8 2.3 1.1.1 2.2.1 3.3.1l1.7-.1c.6-.1 1.1-.1 1.7-.2 2.2-.4 4.5-1.1 6.6-2.1 2.1-1.1 4-2.5 5.6-4.2 1.7-1.7 2.9-3.7 4.2-5.8 1.2-2.1 2.3-4.3 3.2-6.6.4-1.2.9-2.3 1.2-3.5-.1-1.3.2-2.6 0-3.8zm.1 0c.2 1.2-.1 2.4-.4 3.7-.3 1.2-.7 2.4-1.1 3.6-.9 2.3-2 4.5-3.2 6.6-1.2 2.1-2.5 4.1-4.1 5.8-1.6 1.8-3.6 3.2-5.7 4.3-2.1 1.1-4.4 1.8-6.7 2.2-.6.1-1.1.2-1.7.3l-1.7.2c-1.1.1-2.3.1-3.4 0-2.2-.2-4.3-1.1-6-2.4-1.7-1.3-3-2.9-4.1-4.7-.5-.9-1-1.9-1.4-2.9-.4-1-.7-2-1.1-3.1-.4-1-.7-2.1-1.4-2.9-.4-.4-.8-.6-1.4-.6h-.9c-.3 0-.5.1-.8.2-.9.5-1.4 1.7-1.8 2.6l-1.2 3.1c-.8 2-1.9 3.9-3.3 5.5-1.3 1.6-3.1 3-5 4-2 .9-4.3 1.2-6.5 1.1-2.2-.1-4.5-.4-6.7-1.1-2.2-.7-4.3-1.7-6.2-3-1.9-1.4-3.5-3.1-4.7-5-1.3-1.9-2.4-4-3.3-6.1-1-2.2-1.8-4.5-2.3-6.8-.3-1.2-.5-2.4-.4-3.6 0-.6.1-1.3.6-1.7.4-.4.9-.8 1.5-1 2.3-.9 4.8-1.1 7.4-1.3 2.5-.2 5.1-.3 7.7-.2 2.6.1 5.2.3 7.7.8s5.1 1.2 7.3 2.4c1.2.6 2.2 1.3 3.1 2.2.9.8 1.8 1.7 2.7 2.4.9.8 1.9 1.5 2.9 2 .5.2 1.1.4 1.7.4.6 0 1.2.1 1.8-.1 1.1-.3 2.2-1.1 3.2-1.8s2-1.6 2.9-2.4c.9-.9 2-1.7 3.1-2.3l1.8-.9c.6-.2 1.2-.5 1.8-.7 2.5-.9 5.1-1.4 7.7-1.7 2.6-.3 5.2-.5 7.8-.5 1.3 0 2.6.1 3.9.2 1.3.1 2.6.1 3.8.3 1.3.1 2.5.3 3.7.7.9.5 2.1 1 2.4 2.2zM93 99.2c-.9 1.6-2 3.1-3.3 4.4-1.3 1.3-2.9 2.3-4.7 2.9-1.8.6-3.8.6-5.8.4-2-.2-3.9-.8-5.7-1.6-3.6-1.8-6.7-4.5-9.1-7.7-1.2-1.6-2.2-3.4-2.9-5.3-.7-1.9-1.1-4-.9-6 .3-2 1.6-3.8 3.5-4.8s4.1-1.3 6.3-1.4c4.4-.1 8.8.2 13.2 1.4 2.1.6 4.2 1.3 6.1 2.4.9.6 1.8 1.2 2.7 1.9.4.3.8.7 1.2 1.1.4.4.8.7 1 1.2.5.9.7 1.9.8 2.9 0 1-.1 2-.3 2.9-.4 1.9-1.1 3.7-2.1 5.3zm0 0c.9-1.6 1.6-3.4 1.9-5.3.2-.9.2-1.9.2-2.9-.1-1-.3-2-.8-2.8-.2-.4-.6-.8-1-1.1-.4-.3-.8-.7-1.2-1-.8-.7-1.7-1.2-2.6-1.8-1.9-1-3.9-1.8-6-2.3-4.2-1.1-8.7-1.5-13-1.4-2.1.1-4.3.4-6.1 1.3-1.8.9-3 2.5-3.4 4.5-.3 1.9.1 3.9.8 5.8.3.9.7 1.9 1.2 2.8.5.9 1 1.7 1.7 2.5 2.4 3.1 5.5 5.8 9.1 7.5 1.8.8 3.6 1.3 5.6 1.6 1.9.2 3.8.2 5.7-.3 1.8-.5 3.4-1.4 4.7-2.7 1.2-1.3 2.2-2.8 3.2-4.4zm44.8-5.1c-2 3.6-4.9 6.8-8.4 9.2-1.7 1.2-3.5 2.2-5.5 2.8-1.9.7-4 .9-5.9 1-2 0-3.9-.4-5.6-1.2-1.7-.8-3-2.1-4-3.6-.6-.7-1-1.5-1.5-2.3-.5-.8-.9-1.6-1.2-2.4-.7-1.7-1.1-3.6-1.1-5.6 0-1 .1-2 .5-3 .2-.5.4-1 .8-1.4.4-.4.8-.8 1.2-1.1 1.7-1.5 3.6-2.7 5.7-3.6 4.2-1.9 8.8-2.6 13.2-2.9 1.1 0 2.2-.1 3.4-.1h1.7c.6 0 1.1.1 1.6.2 2.1.3 4.2 1 5.7 2.5.7.7 1.2 1.6 1.4 2.6.2 1 .3 2 .1 3-.3 2-1.1 4-2.1 5.9zm0 0c.9-1.9 1.8-3.8 2-5.8.1-1 0-2-.2-2.9-.3-.9-.7-1.8-1.4-2.4-1.4-1.3-3.4-2-5.5-2.2-2.1-.3-4.3-.2-6.6-.1-4.4.3-8.9 1-13 2.8-2 .9-3.9 2-5.6 3.4-.8.7-1.6 1.4-1.9 2.3-.4.8-.6 1.8-.6 2.8 0 1.9.3 3.8 1 5.5.7 1.7 1.6 3.2 2.7 4.7 1.1 1.4 2.4 2.6 4 3.4 1.6.8 3.5 1.1 5.4 1.1 1.9 0 3.9-.3 5.8-1 1.9-.6 3.7-1.6 5.4-2.7 3.4-2.3 6.5-5.3 8.5-8.9z" fill="#070201" stroke-width="none" opacity="1"></path></g></g></g></g></g><rect id="svga-credit-rect" width="200" height="15" x="0" y="185" fill="#ecf0f1" opacity="0.5" style="display: none;"></rect><text id="svga-credit-text" font-family="Avenir Next, Roboto, Helvetica, Arial, sans-serif" font-size="10px" text-anchor="start" font-weight="400" size="10px" anchor="start" weight="400" fill="#333333" x="33.40447998046875" y="182.60824704170227" style="display: none;"><tspan id="SvgjsTspan16137" dy="13" x="33.40447998046875">Created on AvatarMaker.com</tspan></text></g><defs id="SvgjsDefs16089"><linearGradient id="SvgjsLinearGradient17819" x1="77.9026" y1="122.6494" x2="77.9026" y2="94.7406" gradientTransform="matrix(1 0 0 -1 0 202)" gradientUnits="userSpaceOnUse" class="svga-on-canvas-glasses-gradient-single-0-null"><stop id="SvgjsStop17820" stop-opacity="1" stop-color="#211810" offset="0" ></stop><stop id="SvgjsStop17821" stop-opacity="0.7372" stop-color="#231b13" offset="0.2628" ></stop><stop id="SvgjsStop17822" stop-opacity="0.5527" stop-color="#2b231c" offset="0.4473" ></stop><stop id="SvgjsStop17823" stop-opacity="0.3921" stop-color="#38312c" offset="0.6079" ></stop><stop id="SvgjsStop17824" stop-opacity="0.2453" stop-color="#4b4641" offset="0.7547" ></stop><stop id="SvgjsStop17825" stop-opacity="0.1091" stop-color="#62605e" offset="0.8909" ></stop><stop id="SvgjsStop17826" stop-opacity="0" stop-color="#7a7a7a" offset="1" ></stop></linearGradient><linearGradient id="SvgjsLinearGradient17828" x1="-1740.4807" y1="122.8294" x2="-1740.4807" y2="94.7364" gradientTransform="matrix(-1 0 0 -1 -1618 202)" gradientUnits="userSpaceOnUse" class="svga-on-canvas-glasses-gradient-single-1-null"><stop id="SvgjsStop17829" stop-opacity="1" stop-color="#211810" offset="0" ></stop><stop id="SvgjsStop17830" stop-opacity="0.7372" stop-color="#231b13" offset="0.2628" ></stop><stop id="SvgjsStop17831" stop-opacity="0.5527" stop-color="#2b231c" offset="0.4473" ></stop><stop id="SvgjsStop17832" stop-opacity="0.3921" stop-color="#38312c" offset="0.6079" ></stop><stop id="SvgjsStop17833" stop-opacity="0.2453" stop-color="#4b4641" offset="0.7547" ></stop><stop id="SvgjsStop17834" stop-opacity="0.1091" stop-color="#62605e" offset="0.8909" ></stop><stop id="SvgjsStop17835" stop-opacity="0" stop-color="#7a7a7a" offset="1" ></stop></linearGradient></defs></svg>