<svg xmlns="http://www.w3.org/2000/svg" version="1.1" width="600px" height="600px" viewBox="0 0 200 200" style="overflow:hidden!important;"><g id="svga-group-wrapper"><g id="svga-group-backs-single"></g><g id="svga-group-humanwrap-move" transform="matrix(1,0,0,1,0,0)"><g id="svga-group-humanwrap"><g id="svga-group-hair-back-move" transform="matrix(1,0,0,1,0,0)"><g id="svga-group-hair-back"></g></g><g id="svga-group-humanbody-back"><path id="SvgjsPath16206" d="M77.8 105.9s4.8 37.7 10 55.8c0 0-6.4 8.8-14.5 11.9-28.7 11.2-35 11.2-39.6 15.2-2.4 2.1.2 11.1 1.8 17.2 1.3 5 1.7 13.2 1.7 13.2h132.2s1.6-33-.6-39.8-7.1-2.9-21.9-4.5c-14.8-1.6-28.7-10.3-31-13.2l.3-60-38.4 4.2z" fill="#f3d4cf" stroke-width="none" opacity="1" stroke="none"></path></g><g id="svga-group-chinshadow-single"><path id="SvgjsPath18369" d="M85 151.5c7.8 1 24.3.7 26.6-1 2-1.4 1.1-2.4 4-7l.2-41.9-38.4 4.2c.1 0 3.5 26.5 7.6 45.7z" fill="#d4958a" stroke-width="none" opacity="1" stroke="none"></path></g><g id="svga-group-humanbody-front"><path id="SvgjsPath16207" d="M72.1 183.1s14.6-.2 20.4 2.6c5.8 2.9 12.7 2.4 16.1-1s21.6-7 21.6-7-19.7 1.9-25 4.6c-5.3 2.7-22.3-2.8-33.1.8z" fill="#d4958a" stroke-width="none" opacity="1" stroke="none"></path><path id="SvgjsPath16208" d="M74.2 173.2c6.7-1.3 14.7-6.4 14.7-6.4l6.2 5.5c-4.3-7.9-12.7-41.1-12.7-41.1l-.7.7c1.7 10.5 3.9 21.9 6.1 29.7 0 0-6 8.2-13.6 11.6z" fill="#d4958a" stroke-width="none" opacity="1" stroke="none"></path><path id="SvgjsPath16209" d="M170.7 188.5c-.1-2.1-.2-4.1-.4-6.2-.1-1-.3-2.1-.6-3.2-.2-.5-.4-1-.6-1.6-.2-.5-.6-1-1-1.5s-.9-.9-1.5-1.1c-.6-.3-1.1-.4-1.7-.6-1.1-.2-2.2-.2-3.2-.2-2.1 0-4.1.1-6.1.1s-4-.1-6-.2-4-.4-6-.7c-1-.2-2-.4-2.9-.6l-1.5-.4c-.5-.1-1-.3-1.4-.4-3.8-1.1-7.6-2.6-11.2-4.4l-1.3-.7-1.3-.7c-.4-.2-.9-.5-1.3-.8s-.9-.5-1.3-.8-.8-.5-1.3-.8l-1.2-.9-.6-.5-.3-.2-.3-.2c-.2-.2-.4-.3-.5-.5l-.2-.3v-44.6l-.1-15v-.6l-.6.1c-6.4.8-12.9 1.5-19.3 2.3l-19.1 2.3v.5l.1.4.1.9.2 1.8c.1 1.2.3 2.3.4 3.5l.9 7c.6 4.7 1.3 9.4 2.1 14 .8 4.7 1.5 9.3 2.5 14 .9 4.5 1.8 9 3 13.5-1.1 1.4-2.3 2.7-3.6 4-1.3 1.3-2.8 2.6-4.3 3.8-1.5 1.1-3.1 2.2-4.8 3l-1.3.6c-.4.2-.9.3-1.3.5l-2.7 1c-7.2 2.7-14.5 5.3-21.8 7.7l-5.5 1.8c-1.8.6-3.7 1.3-5.5 2.2-.4.2-.9.5-1.3.7-.4.3-.9.5-1.3.9l-.6.5c-.2.2-.5.5-.6.8-.3.5-.4 1.1-.5 1.6-.2 1.1-.1 2.1 0 3.1s.3 2 .4 2.9c.4 1.9.8 3.8 1.3 5.7l.8 2.8c.3.9.5 1.8.7 2.8.4 1.9.7 3.8.9 5.7s.4 3.8.5 5.7v.8h133.4v-.8c.2-4.1.4-8.2.5-12.3s.2-8.2.2-12.3c0-1.8-.1-3.8-.1-5.9zm-67.4 30.3H70.2l-16.5-.1-16-.1c-.1-1.8-.2-3.5-.4-5.3-.2-1.9-.4-3.9-.8-5.8-.2-1-.4-1.9-.7-2.9l-.7-2.8c-.5-1.9-.9-3.7-1.2-5.6-.2-.9-.3-1.9-.4-2.8-.1-.9-.1-1.9 0-2.7.1-.4.2-.8.4-1.1.1-.2.2-.3.3-.4l.5-.4c.3-.3.7-.5 1.1-.8.4-.2.8-.5 1.2-.7 1.7-.8 3.5-1.4 5.3-2l5.5-1.8c7.3-2.4 14.6-5 21.8-7.8l2.7-1c.5-.2.9-.3 1.4-.5l1.4-.6c1.8-.9 3.4-2 5-3.2s3-2.5 4.4-3.9 2.7-2.9 3.8-4.5l.2-.3-.1-.3c-1.3-4.5-2.3-9.1-3.3-13.7s-1.9-9.3-2.7-13.9c-.8-4.6-1.6-9.3-2.4-14l-2.2-13.9 19.3-1.8c6.2-.6 12.3-1.2 18.5-1.8l-.2 14.4-.2 15-.3 30v.4l.2.2.6.7.6.6.3.3.3.2.6.5c.4.3.9.6 1.3.9.4.3.9.6 1.3.9.4.3.9.5 1.3.8s.9.5 1.3.8l1.4.8 1.4.7c.5.2.9.5 1.4.7l1.4.7c1 .4 1.9.8 2.9 1.2s1.9.8 2.9 1.1l1.5.5c.5.2 1 .3 1.5.4.5.1 1 .3 1.5.4l1.5.4c1 .3 2 .4 3 .6 2 .4 4.1.6 6.2.8 2.1.2 4.1.2 6.2.2 2.1 0 4.1-.1 6.1-.1s4 .1 5 1.3c.5.6.9 1.4 1.2 2.3.3.9.4 1.9.6 2.8.3 2 .4 4 .5 6s.1 4.1.2 6.1c.1 7.9-.1 15.8-.4 23.7-10.8.1-21.5.1-32.3.2h-33.1z" fill="#c5796d" stroke-width="none" opacity="1" stroke="none"></path><path id="SvgjsPath16210" d="M150.7 219.2 147 198l-.4 21.2z" fill="#d4958a" stroke-width="none" opacity="1" stroke="none"></path><path id="SvgjsPath16211" d="M47.3 203.5s2.2 11.5 2.9 15.7h3.5l-6.4-15.7z" fill="#d4958a" stroke-width="none" opacity="1" stroke="none"></path></g><g id="svga-group-clothes-single"><path id="SvgjsPath19423" d="M31.7 194.7c0 2.7-1.2 11.2-5.1 15.7 0 0 5.4-2 7.2.5 1.8 2.5 2.1 4.8 5.9 2.4 3.8-2.3 4.9-.3 5.8.4.9.7 3.3 1.4 5 .1s3.2-.5 4.3.9 3.9 2.1 7.7.5 6 .5 9.8 1c3.9.5 7.8.4 8.6-.1s2.8-2 4.3-1.9 2.8 1.9 4 2.5 3.1-.8 3.9-1.3 2.2-.1 3.6.5 8.9-.2 8.9-.2.3 1.6 1.8 1.6 2.4-2 2.4-2 .3.8 2.9.3 6.8-2.7 8-2.7 2.6-.1 3.3.9.4 2 1.9 2.3 2.5.5 4.9-.7 4-2.5 6.4-.8c0 0 1.2 3.1 4.7 2.2s2.5-2.4 4.4-2.4 4.7 1.4 6.1 1.1 2.5-1.5 2.9-2.4c.4-.9 1.1-3.1 3.5-3.3 0 0 2.5 1.1 4.2-.2s2.6-2.6 4.5-3.7 4.9.3 6 0 2.6-1.4 2.8-2.9.7-2.6 1-3.4c.3-.9 2-1.4 2-1.4s-5.6-8.4-6.4-9.8-2.3-4.3-2.3-4.3-5.2 6.4-26.4 9.3c-13.2 1.8-33.6 3.8-47.6 4.3s-43.4 1.4-52.5-.1c-8.8-1.5-12.4-2.9-12.4-2.9z" fill="#525252" stroke-width="none" opacity="1" stroke="none"></path><path id="SvgjsPath19424" d="M137.2 193.6c-11.7 1.3-23.5 2.4-35.2 3.1-11.8.7-23.5 1.1-35.3 1.3-5.9.1-11.8.1-17.7-.3-5.9-.3-11.7-1.3-17.3-3.1 5.5 2.2 11.4 3.4 17.2 4 5.9.6 11.8.8 17.7.9 11.8.2 23.7-.1 35.5-.8 11.8-.7 23.6-1.9 35.3-3.5 5.8-.8 11.7-1.6 17.5-3.1 5.7-1.5 11.4-3.9 15.7-8-4.6 3.7-10.2 5.9-15.9 7.1-5.7 1.2-11.6 1.7-17.5 2.4zm-107.9 9.3c-.5 1.3-1 2.6-1.5 4s-1.1 2.6-1.7 4.1c1.2-.9 2.2-2.1 3-3.3.8-1.2 1.5-2.6 2-4s.8-2.9.9-4.4c.1-1.5 0-3-.5-4.5-.4 1.5-.7 2.9-1.1 4.2-.2 1.2-.6 2.5-1.1 3.9zm.2 7.7c1.1.1 2.1.3 3 .8.4.2.8.6 1.1.9.3.4.5.7.7 1.3.3.5.6 1.2 1.4 1.7s1.8.5 2.5.2c.7-.2 1.3-.6 1.8-1s.9-.7 1.3-1c.4-.3.7-.4 1.1-.4.4 0 .9.1 1.3.3.9.4 1.9 1.1 3.2 1.5.6.2 1.3.2 1.9 0 .6-.2 1.1-.6 1.3-1.2-.8.9-2 .8-2.9.3-.9-.5-1.7-1.3-2.8-1.9-.5-.3-1.2-.6-2-.7-.8-.1-1.6.2-2.2.5-.6.3-1.1.7-1.5 1.1-.4.3-.8.5-1.2.6-.4.1-.7.1-.8 0-.2-.1-.5-.4-.7-.9-.3-.5-.7-1.1-1.2-1.6s-1.1-.9-1.7-1.1c-.6-.2-1.2-.4-1.9-.4s-1.2 0-1.8.1c-1.2.2-2.4.6-3.3 1.3 1.2-.4 2.3-.6 3.4-.4zM52 209c.1-.9.1-1.7 0-2.6-.1-.9-.2-1.8-.6-2.6-.5.8-.8 1.7-1 2.5-.2.9-.4 1.7-.4 2.6s-.1 1.7 0 2.6c.1.8.2 1.6.5 2.4 0 .1-.1.1-.1.2 0-.1.1-.1.1-.1v.1c.1-.1.2-.3.2-.4.4-.3.9-.3 1.3-.2.6.1 1.2.4 1.6.8.5.4.9.9 1.4 1.4.5.5 1.1 1 1.9 1.3.8.3 1.6.3 2.3.2.8-.1 1.5-.3 2.1-.5.7-.2 1.3-.4 1.9-.6.6-.1 1.2-.2 1.8-.2 2.4 0 5 1 7.9 1.3 2.8.3 5.7.1 8.3-.6l.6-.2-.1-.6c-.5-2.4-1.1-4.7-1.8-7 .1 2.2.3 4.4.5 6.6-1.1.1-2.2.2-3.4.2-1.3 0-2.6-.1-3.9-.3-2.6-.3-5.1-1.4-8.2-1.3-3.2.1-5.5 2.3-7.7 1.8-1.1-.2-2-1.3-3.2-2.1-.6-.4-1.4-.6-2.1-.6-.4 0-.8.1-1.2.4.3-.6.5-1.2.6-1.8.4-1 .6-1.8.7-2.7zm123.5-18.2c-.7-1.1-1.5-2.3-2.3-3.4s-1.6-2.2-2.5-3.3c.2 1.4.6 2.8 1.2 4.1s1.2 2.6 2 3.7c.8 1.2 1.6 2.3 2.5 3.4.9 1.1 1.9 2.1 3 2.9-.5-1.4-1.1-2.6-1.8-3.8-.7-1.3-1.4-2.4-2.1-3.6zm3 7.5c-.3.1-.6.3-.8.4-.5.4-.8.9-1.1 1.4-.6 1-.9 2.2-1.4 3.1-.5.9-1 1.5-1.8 1.5-.7.1-1.8-.3-3-.5-.6-.1-1.4-.1-2.1.1-.7.2-1.3.5-1.8.9-1 .7-1.8 1.6-2.5 2.5-.7.8-1.4 1.6-2.3 2-.8.4-1.8.6-2.8.3-.2-1.2-.5-2.3-.9-3.4-.3-1.1-.7-2.2-1.1-3.2s-.8-2.1-1.2-3.2c-.4-1.1-.9-2.1-1.4-3.2-.2 1.2-.2 2.4-.1 3.6.1 1.2.4 2.4.8 3.5s.9 2.2 1.5 3.2 1.3 1.9 2.2 2.7c-.1 0-.1 0-.2-.1.8.9 2.2 1 3.4.7 1.2-.3 2.2-1.1 3.1-1.9 1.7-1.5 3.2-2.9 5-2.6.5.1 1 .2 1.6.3.6.1 1.2.2 2 .1.7-.1 1.5-.5 1.9-1.1.5-.5.8-1.2.9-1.7.4-1.2.5-2.3.8-3.2.3-1 .8-2.1 1.9-2.3 0-.1-.3 0-.6.1zm-21.7 12.2c-.6.3-1.1.8-1.5 1.4-.7 1.1-1.3 2.3-2.1 2.6-.8.4-1.8.1-3-.4-.6-.2-1.2-.4-1.9-.6-.7-.1-1.6-.2-2.3 0-1.5.4-2.5 1.3-3.5 1.9-1 .6-1.9.8-2.8.4-.9-.4-1.8-1.3-2.2-2.3-.5-1.1-.8-2.3-1.1-3.6-.1 1.3-.1 2.6.2 3.9v.1c-.2-.1-.4-.2-.6-.2-.7-.2-1.4-.2-2 0-1.4.3-2.5 1.1-3.6 1.6-.6.3-1.1.5-1.6.6-.6.1-1.1.1-1.6 0s-.8-.4-1.1-.8c-.3-.4-.5-1.1-1-1.7-.5-.6-1.3-1.1-2-1.3-.8-.2-1.5-.3-2.3-.2-1.5.1-2.8.8-3.9 1.4-1.2.6-2.2 1.2-3.3 1.4-1.1.2-2.2.1-2.9-.4l-.9-.7-.6.9c-.4.6-.8 1.2-1.3 1.6-.5.3-.8.3-1.1-.1-.3-.4-.6-1.2-.9-2l-.8-2.4c-1.2-3.1-2.4-6.2-3.7-9.3.7 3.3 1.6 6.5 2.4 9.7l.7 2.4.3 1.1c-1.8-.2-3.6-.3-5.3-.4-1.1-.1-2.2 0-2.8-.3-.3-.1-.8-.4-1.5-.7-.3-.1-.8-.2-1.2-.1-.4.1-.8.2-1.1.3-.6.3-1.1.6-1.5.9-.4.3-.8.5-1 .5-.2 0-.3 0-.6-.3s-.8-.9-1.3-1.2c-1.1-.7-2.4-.8-3.6-.5-1.2.3-2.2 1-2.7 2 1.7-1.4 4-1.3 5.3-.2.3.3.5.6.9 1.1.2.2.4.5.8.8.4.2.8.3 1.3.3.9-.1 1.4-.5 1.9-.8.5-.3.9-.6 1.2-.8.4-.2.6-.2.8-.1.3.1.8.4 1.4.6.7.2 1.3.2 1.9.2.6 0 1.1-.1 1.6-.1 1.8-.2 3.6-.4 5.4-.8.1.4.3.8.6 1.2.3.5.9.9 1.6 1 .7.1 1.3-.1 1.8-.4.6-.4 1.1-.8 1.4-1.3.4.2.9.4 1.3.4.8.1 1.5.1 2.2-.1 1.5-.3 2.7-1 3.8-1.6 1.1-.6 2.2-1.1 3.2-1.3 1.1-.1 2.2.1 2.8.7.3.3.5.9 1 1.5.5.7 1.3 1.1 2.1 1.2 1.5.3 3-.4 4.1-1.1 1.1-.7 2.1-1.5 3.2-1.9.8-.3 1.7-.4 2.6-.1.4 1.2 1.1 2.3 2.3 3 .6.4 1.5.6 2.3.5.8-.1 1.5-.3 2.1-.6 1.2-.6 2.2-1.4 3.2-1.6.3-.1.7-.1 1.1-.1l.4 3.2c-7.9.1-15.8.2-23.7.2-8.1 0-16.2-.3-24.3-.4-8.1-.2-16.2-.1-24.3-.1-8 .1-16 .2-24 .4l-1.4-5.1c-.1.1-.2.1-.3.2l1.1 5.4.1.3h.3c8.1.2 16.2.4 24.3.5 8.1.1 16.2.1 24.3-.1 8.1-.1 16.2-.4 24.3-.4s16.2 0 24.3.2h.6l-.1-.6-.3-3.4c.3.1.5.2.8.2.6.2 1.3.4 2 .5.7.1 1.6 0 2.3-.5.7-.4 1.2-1.1 1.4-1.7.3-.6.5-1.2.7-1.8.2-.5.6-1 1-1.4.4-.4 1-.7 1.6-.5-.3-.3-1.1-.2-1.7.1z" fill="#333333" stroke-width="none" opacity="1" stroke="none"></path><path id="SvgjsPath19425" d="M176.4 198.5c-2.7-3.3-4.9-6.3-6.5-10.3-.1-.1-.3-.1-.2.1.9 3.9 3 8.2 6.3 10.7.2.2.6-.2.4-.5zm-1.5.3c-.9.4-.9.8-1.4 1.5-1.2 1.7-2.9.7-4.6 1-2.5.4-5 3.1-6.4 5-.2.3.2.6.5.5 1.2-.7 2.2-1.6 3.2-2.5 1-.9 2.1-1.8 3.5-1.9.4 0 1.6.3 2.1.3 2.5-.2 1.6-2.2 3.3-3.4.3-.1.1-.7-.2-.5zm-20.1 9.9c-1.1-3.5-2.3-6.8-3.1-10.3-.1-.3-.7-.3-.6.1.4 3.6 1.4 7.4 3.3 10.4 0 .3.5.1.4-.2zm-.2.8c-.9.3-.4.6-1.2 1-3.6 1.8-3.1 0-5.7 0-.9 0-1.6.4-2.4.9-.4.3-1.6 1.3-1.8 1.4-1.7.6-3.4-.4-4.5-1.5-.3-.3-.7.1-.5.4 1.7 3.7 4.2 3.3 7.1 1.3 1.9-1.3 2.8-.7 4.9-.1.6.2 1.2.4 1.9.3 2.1-.4 1.3-1.9 2.6-3 .2-.3-.1-.8-.4-.7zm-21.7-6.6c-.3 1.8.5 3.9.2 5.5-1.4 7-4.9 3.6-7.2 2.4-.7-.4-1.4-.7-2.2-.9-4.9-1.4-8.1 2.7-12.8 1.8-.4-.1-.6.5-.2.6 3.8 1.4 4.2-.4 7.9-1.4 5-1.4 7.2 3.2 11.4 2.9 5.4-.3 3.1-7.8 3.1-10.9.1-.1-.2-.1-.2 0zm-29.3 1.5c.5 2.9 1.4 5.7 2.9 8.2.1.2.5.1.4-.2-1-2.7-2-5.4-2.9-8.2-.2-.2-.5-.1-.4.2zm-3.4 7.7c-2.6.7-4.3-1.5-6.7-1-.3.1-.7.3-1 .4-1.4.3-2 .2-3.5-.2-2.5-.7-4.6-.5-6.5 1.4-.2.2.1.6.3.4 1.4-1 3.1-1.7 4.9-1.2.9.2 1.6 1.1 2.4 1.3.6.2 1 .2 1.7.1 1.1-.3 1.3-.7 2.6-.9 1.3-.1 2 .4 3.2.6 1.2.2 1.8.3 2.8-.5.4-.1.2-.5-.2-.4zm-23-6.7c0 1.2.8 6.2-.2 6.6-.5.2-4.7-1.4-5.6-1.5-5.4-.5-10.5 3.4-15.4 1.2-.6-.3-1.1.5-.5.9 2.5 1.8 4 2 6.9 1 5.5-2 9.9-2.7 15.4 0 .3.2.9 0 .9-.5-.3-2.6-.4-5.3-.8-7.9-.2-.2-.7-.1-.7.2zm-29.3-.6c-.2 2-.5 3.9-.7 5.9-1.6-2-4.3-3-6.9-2.1-.6.2-1.3.9-1.9 1.1-2.4.5-1.5-.4-2.6-1-.7-.4-4.1-1.9-4.1-2.3 0-.3-.3-.5-.5-.2-.4.8-.6 1.1.1 1.9.4.4.9.4 1.3.6 1.2.6 2 1.5 3 2.2 1 .7 1.1 1.1 2.5.6.6-.2 1.6-1.2 1.7-1.3 2.8-1.6 5.7-.5 7.3 2 .2.4.8.2.8-.2.1-2.4.3-4.8.4-7.1.1-.4-.3-.4-.4-.1z" fill="#616161" stroke-width="none" opacity="1" stroke="none"></path></g><g id="svga-group-head" transform="matrix(1,0,0,1,0,0)"><g id="svga-group-ears-left-move" transform="matrix(1,0,0,1,0,0)"><g id="svga-group-ears-left" transform="matrix(0.9499999,0,0,0.9499999,2.690397779619026,4.832686743601229)"><path id="SvgjsPath18515" d="M64.41 94.17s-2.58-5.02-4.51-7.21-6.82-5.79-7.98-5.54-6.31 14.04-6.82 16.1c-.52 2.06 6.18 8.63 6.82 9.79.64 1.16.52 3.99.39 4.76s5.15 2.83 7.85 2.19c2.71-.65 10.05-9.54 4.25-20.09z" fill="#f3d4cf" stroke-width="none" opacity="1" stroke="none"></path><path id="SvgjsPath18516" d="M64.03 100.6s-5.92-8.11-9.91-10.82c-3.99-2.7-5.67 7.73-5.41 8.76s4.64 6.31 6.31 7.08 7.33-.64 9.01-5.02z" fill="#e4b3ab" stroke-width="none" opacity="1" stroke="none"></path><path id="SvgjsPath18517" d="M45.09 97.02c-.06.22-.14.41-.16.67 0 .24.03.48.11.7.29.87.78 1.62 1.26 2.35.49.73 1.03 1.43 1.58 2.12 1.09 1.38 2.25 2.71 3.34 4.05.13.17.27.34.36.49.09.15.15.33.21.52.11.38.16.8.19 1.22.06.84.05 1.71-.04 2.55l-.04.31c-.02.4.16.52.24.63.21.22.41.34.61.47.41.25.82.44 1.24.61.84.35 1.69.62 2.57.82.88.2 1.78.33 2.72.29.47-.02.95-.08 1.43-.3.26-.08.43-.23.64-.35.21-.12.39-.27.57-.42 2.81-2.39 4.39-5.88 4.78-9.42.13-.89.07-1.78.07-2.67-.12-.88-.17-1.77-.43-2.62-.36-1.73-1.1-3.35-1.9-4.91-.79-1.57-1.65-3.09-2.54-4.6-.45-.76-.92-1.5-1.44-2.22-.53-.72-1.15-1.36-1.79-1.97a28.138 28.138 0 0 0-4.17-3.28c-.38-.24-.76-.48-1.18-.67-.2-.1-.43-.18-.65-.27-.24-.06-.49-.15-.87-.07-.46.23-.48.42-.65.62-.13.2-.25.39-.36.59-.22.39-.42.79-.61 1.19-1.46 3.22-2.59 6.54-3.8 9.83l-.87 2.48-.42 1.26zm.13.69c.01-.17.09-.4.14-.6l.4-1.25c.28-.83.59-1.65.9-2.47.61-1.64 1.28-3.26 1.97-4.86.69-1.6 1.41-3.2 2.19-4.75.19-.39.39-.77.6-1.14.11-.18.22-.36.33-.53.06-.09.12-.15.17-.23.03-.04.08-.07.09-.08.03 0 .08 0 .14.01.09.02.17.04.26.07.18.07.37.14.56.24.37.18.75.39 1.12.6 1.47.89 2.86 1.95 4.2 3.05.66.56 1.3 1.14 1.85 1.8.55.66 1.06 1.38 1.55 2.1.97 1.45 1.83 2.98 2.66 4.52 1.61 3.08 2.43 6.67 1.76 10.07-.3 1.69-.84 3.33-1.65 4.84-.81 1.49-1.83 2.91-3.12 3.96-.16.14-.32.26-.49.36-.17.09-.34.24-.51.28-.31.16-.72.21-1.12.22-.81.03-1.66-.09-2.49-.26-.83-.18-1.65-.42-2.44-.73a9.77 9.77 0 0 1-1.13-.53c-.17-.1-.34-.22-.44-.31l-.03-.03.03-.26c.07-.91.08-1.8-.01-2.7a7.4 7.4 0 0 0-.26-1.36c-.08-.23-.16-.46-.31-.69a5 5 0 0 0-.43-.55c-1.16-1.35-2.37-2.59-3.51-3.92-.57-.66-1.12-1.33-1.64-2.03-.51-.7-1.01-1.43-1.28-2.23-.03-.22-.06-.42-.06-.61z" fill="#e4b3ab" stroke-width="none" opacity="1" stroke="none"></path><path id="SvgjsPath18518" d="M50.5 92.01c.34-.68.71-1.4 1.37-1.89.31-.25.82-.37 1.21-.16.39.19.65.53.87.83.92 1.24 1.7 2.57 2.38 3.94 1.31 2.76 2.4 5.61 3.21 8.56l-.08.03c-1.35-2.74-2.56-5.51-3.83-8.25-.62-1.37-1.2-2.78-1.98-4.06-.19-.33-.41-.61-.7-.78-.29-.16-.64-.09-.93.11-.56.44-.91 1.14-1.21 1.81-.55 1.39-.85 2.89-.94 4.35-.02.36-.02.73.04 1.06.02.17.06.31.11.43.09.16.16.32.26.47.37.63.8 1.24 1.25 1.84.45.6.9 1.2 1.38 1.78l.71.87c.06.07.12.13.18.2.2-.53.34-1.18.48-1.78l.43-2.13c-.6-.94-1.19-1.89-1.75-2.86l.07-.05c.75.89 1.48 1.79 2.19 2.7l.06.07-.01.12a29.5 29.5 0 0 1-.27 2.28c-.14.77-.2 1.49-.53 2.33-.04.07-.05.11-.12.2-.03.04-.05.07-.13.13-.03.03-.07.05-.1.07-.06.03-.14.05-.21.05-.13.02-.29-.07-.35-.11l-.07-.06a.769.769 0 0 1-.13-.12c-.15-.15-.28-.29-.41-.43-.26-.29-.51-.58-.76-.88-.48-.6-.96-1.2-1.39-1.84-.44-.63-.86-1.28-1.24-1.97-.1-.17-.18-.36-.27-.54-.09-.24-.14-.46-.16-.67-.04-.42-.01-.82.03-1.21.18-1.57.68-3.04 1.34-4.44z" fill="#c5796d" stroke-width="none" opacity="1" stroke="none"></path></g></g><g id="svga-group-ears-right-move" transform="matrix(1,0,0,1,0,0)"><g id="svga-group-ears-right" transform="matrix(0.9499999,0,0,0.9499999,7.310373812612909,4.832827696947092)"><path id="SvgjsPath18519" d="M135.59 94.17s2.58-5.02 4.51-7.21 6.82-5.79 7.98-5.54 6.31 14.04 6.82 16.1c.52 2.06-6.18 8.63-6.82 9.79-.64 1.16-.52 3.99-.39 4.76.13.77-5.15 2.83-7.85 2.19-2.71-.65-10.05-9.54-4.25-20.09z" fill="#f3d4cf" stroke-width="none" opacity="1" stroke="none"></path><path id="SvgjsPath18520" d="M135.97 100.6s5.92-8.11 9.91-10.82c3.99-2.7 5.67 7.73 5.41 8.76-.26 1.03-4.64 6.31-6.31 7.08s-7.33-.64-9.01-5.02z" fill="#e4b3ab" stroke-width="none" opacity="1" stroke="none"></path><path id="SvgjsPath18521" d="m154.49 95.77-.87-2.48c-1.22-3.29-2.34-6.61-3.8-9.83-.19-.4-.39-.8-.61-1.19-.11-.2-.22-.39-.36-.59-.17-.2-.19-.39-.65-.62-.38-.08-.63.01-.87.07-.23.08-.45.16-.65.27-.42.19-.8.43-1.18.67-1.5.97-2.89 2.06-4.17 3.28-.64.61-1.26 1.25-1.79 1.97-.53.71-.99 1.46-1.44 2.22-.89 1.51-1.76 3.04-2.54 4.6-.8 1.56-1.54 3.17-1.9 4.91-.26.85-.3 1.74-.43 2.62 0 .89-.06 1.78.07 2.67.38 3.54 1.96 7.03 4.78 9.42.17.15.36.3.57.42.21.12.38.27.64.35.49.23.96.28 1.43.3.94.04 1.84-.09 2.72-.29.88-.2 1.74-.47 2.57-.82.42-.18.83-.37 1.24-.61.2-.13.4-.25.61-.47.08-.12.26-.23.24-.63l-.04-.31c-.09-.84-.09-1.71-.04-2.55.03-.42.09-.84.19-1.22.06-.19.12-.37.21-.52.1-.15.23-.33.36-.49 1.1-1.34 2.26-2.67 3.34-4.05.55-.69 1.08-1.39 1.58-2.12.49-.74.97-1.48 1.26-2.35.07-.22.11-.45.11-.7-.02-.27-.1-.45-.16-.67l-.42-1.26zm.19 2.53c-.27.8-.77 1.53-1.28 2.23s-1.07 1.37-1.64 2.03c-1.14 1.33-2.36 2.57-3.51 3.92-.14.17-.29.34-.43.55-.14.23-.23.46-.31.69a7.4 7.4 0 0 0-.26 1.36c-.09.9-.09 1.79-.01 2.7l.03.26c-.01.01-.01.02-.03.03-.1.1-.27.22-.44.31-.35.2-.73.38-1.13.53-.79.31-1.61.55-2.44.73-.83.17-1.67.29-2.49.26-.4-.01-.81-.07-1.12-.22-.17-.04-.34-.18-.51-.28-.17-.09-.33-.22-.49-.36-1.29-1.05-2.31-2.47-3.12-3.96-.81-1.5-1.35-3.15-1.65-4.84-.67-3.4.14-6.99 1.76-10.07.83-1.54 1.69-3.07 2.66-4.52.49-.72 1-1.43 1.55-2.1.55-.66 1.19-1.24 1.85-1.8 1.34-1.1 2.73-2.16 4.2-3.05.37-.22.74-.43 1.12-.6.19-.1.37-.17.56-.24.09-.03.17-.04.26-.07.07-.01.11-.01.14-.01.01.01.06.05.09.08.06.08.12.14.17.23.12.16.22.35.33.53.21.37.41.75.6 1.14.78 1.55 1.5 3.15 2.19 4.75.7 1.6 1.36 3.22 1.97 4.86.31.82.62 1.64.9 2.47l.4 1.25c.06.2.13.43.14.6.04.21.01.41-.06.61z" fill="#e4b3ab" stroke-width="none" opacity="1" stroke="none"></path><path id="SvgjsPath18522" d="M149.5 92.01c-.34-.68-.71-1.4-1.37-1.89-.31-.25-.82-.37-1.21-.16-.39.19-.65.53-.87.83-.92 1.24-1.7 2.57-2.38 3.94-1.31 2.76-2.4 5.61-3.21 8.56l.08.03c1.35-2.74 2.56-5.51 3.83-8.25.62-1.37 1.2-2.78 1.98-4.06.19-.33.41-.61.7-.78.29-.16.64-.09.93.11.56.44.91 1.14 1.21 1.81.55 1.39.85 2.89.94 4.35.02.36.01.73-.04 1.06-.02.17-.06.31-.11.43-.09.16-.16.32-.26.47-.37.63-.8 1.24-1.25 1.84-.45.6-.9 1.2-1.38 1.78l-.71.87c-.06.07-.12.13-.18.2-.2-.53-.34-1.18-.48-1.78l-.43-2.13c.6-.94 1.19-1.89 1.75-2.86l-.07-.05c-.75.89-1.48 1.79-2.19 2.7l-.06.07.01.12c.06.76.15 1.52.27 2.28.14.77.2 1.49.53 2.33.04.07.05.11.12.2.03.04.05.07.13.13.03.03.07.05.1.07.06.03.14.05.21.05.13.02.29-.07.35-.11l.07-.06c.05-.04.1-.08.13-.12.15-.15.28-.29.41-.43.26-.29.51-.58.76-.88.48-.6.96-1.2 1.39-1.84.44-.63.86-1.28 1.24-1.97.1-.17.18-.36.27-.54.09-.24.14-.46.16-.67.04-.42.01-.82-.03-1.21-.18-1.57-.68-3.04-1.34-4.44z" fill="#c5796d" stroke-width="none" opacity="1" stroke="none"></path></g></g><g id="svga-group-faceshape-wrap"><g id="svga-group-faceshape-single"><path id="SvgjsPath18359" d="M145.4 78.8s-2.4-21.2-9.5-29c-6.7-7.4-11.3-13.2-28.8-17.3-1.8-.4-12.3-.4-14.1 0-17.5 4.1-22.1 9.9-28.8 17.3-7.1 7.8-9.5 29-9.5 29-.2 9.4 1.2 23.4 1.9 30 .2 2 1.4 3.9 3.2 4.8 2.7 1.4 7.2 4.7 13.9 12.4 11.4 13.2 8.2 14.3 11.1 16.4s27.6 2.1 30.5 0-.3-3.2 11.1-16.4c6.6-7.7 11.2-11 13.9-12.4 1.8-1 3-2.8 3.2-4.8.7-6.6 2.1-20.6 1.9-30z" fill="#f3d4cf" stroke-width="none" opacity="1" stroke="none"></path><path id="SvgjsPath18360" d="M145.61 78.96s-2.6-21.49-9.7-29.29c-6.7-7.4-11.31-13.08-28.81-17.18-1.8-.4-12.3-.4-14.1 0-17.5 4.1-22.1 9.9-28.8 17.3-7.1 7.8-9.5 29-9.5 29-.2 9.4 1.2 23.4 1.9 30 .2 2 1.4 3.9 3.2 4.8 2.7 1.4 7.2 4.7 13.9 12.4 11.4 13.2 8.2 14.3 11.1 16.4s27.6 2.1 30.5 0-.3-3.2 11.1-16.4c6.6-7.7 11.2-11 13.9-12.4 1.8-1 3.08-2.91 3.28-4.91 1.43-9.69 1.69-22.37 2.03-29.72zm-.93 11c-.1 1.9-.3 3.47-.4 5.67-.09 1.91-.28 3.67-.48 5.57-.2 1.9-.5 3.7-.7 5.6l-.2 1.4c-.1.5-.1.9-.2 1.3-.2.8-.6 1.5-1.2 2.1-.3.3-.6.6-.9.8-.3.2-.7.4-1.1.6-.9.5-1.7 1-2.5 1.5-1.6 1.1-3.1 2.3-4.6 3.5-1.5 1.3-2.8 2.6-4.2 4l-3.9 4.2-.9 1.1-1.8 2.2s-2.1 2.6-2.6 3.4l-.8 1.2c-.3.4-2.8 5.9-3.1 6.3 0 0-.44.61-1.2.9-.8.2-1.6.3-2.5.4-1.8.2-3.6.3-5.5.4-1.8.1-3.7.1-5.6.1s-3.7 0-5.6-.1c-1.8-.1-3.7-.2-5.5-.4-.9-.1-1.8-.2-2.5-.4-.67-.14-1.2-.9-1.2-.9-.3-.4-1.4-3.2-1.6-3.7-.2-.4-2.3-3.8-2.3-3.8-.6-.8-1.1-1.6-1.7-2.3l-3.6-4.4c-2.5-2.9-5.1-5.7-7.9-8.3-1.4-1.3-2.9-2.5-4.5-3.7-.8-.6-1.6-1.1-2.5-1.6-.5-.3-.8-.4-1.1-.6s-.6-.5-.8-.7c-.5-.6-.9-1.2-1.1-2-.1-.4-.4-2.6-.4-2.6-.2-1.9-.5-3.7-.7-5.6-.4-3.7-.8-7.5-1.1-11.2s-.5-7.5-.5-11.2c.3-3 .8-5.9 1.4-8.8.6-2.9 1.3-5.9 2.3-8.7.9-2.8 2-5.6 3.6-8.2l.9-1.5s.8-1 1-1.2c.2-.3 2.9-3 3.9-4.1 2.1-2.1 4.3-4.1 6.8-5.7 2.5-1.6 5.1-2.9 7.9-3.9.7-.2 5.6-1.8 6.3-2 .7-.2 5.8-1.2 6.5-1.3 1.4-.1 2.9-.2 4.3-.2 1.5 0 2.9.1 4.3.3l2.1.3c.7.2 1.4.3 2.1.5l1.1.3c.4.1.7.2 1.1.3l2.1.6 2.1.7 2.1.7c2.7 1 5.4 2.3 7.8 3.9 2.4 1.6 4.7 3.5 6.8 5.6 2.77 2.45 5.69 6.75 5.69 6.75.8 1.2 1.39 2.48 1.99 3.78.6 1.4 1.04 3.1 1.54 4.5 1.9 5.7 2.94 11.57 3.64 17.57-.14 4.54-.08 7.36-.38 11.06z" fill="#c5796d" stroke-width="none" opacity="1" stroke="none"></path></g></g><g id="svga-group-mouth-single-move" transform="matrix(1,0,0,1,0,0)"><g id="svga-group-mouth-single"><path id="SvgjsPath18574" d="M90.88 126.51s-.27 1.69.86 2.88c1.14 1.19 11.47 2.31 17.34.11 5.87-2.2 6.74-5.28 6.74-5.28s-5.39.45-7.07.11c-1.69-.34-7.66-1.1-8.9-1s-3.37.96-4.36 1.36-4.61 1.82-4.61 1.82z" fill="#a0081a" stroke-width="none" opacity="1" stroke="none"></path><path id="SvgjsPath18575" d="M87.57 126.62s1.87 1.37 4.84.17c2.96-1.19 6.58-2.22 8.13-2.32s7.17 1.35 10.39 1.07c3.22-.29 6.81-1.1 8.21-3.3s.26-3.18-.22-2.66c-.48.51-.69 4.46-3.65 4.22-2.96-.24-6.51-2.62-9.97-3.46-3.46-.83-4.82.93-5.53 1.53s-1.58.42-3.12.41c-1.54-.02-4.73.33-5.43 2.15-.71 1.82-2.27 2.85-3.65 2.19z" fill="#980012" stroke-width="none" opacity="1" stroke="none"></path></g></g><g id="svga-group-eyes-left-move" transform="matrix(1,0,0,1,0,2)"><g id="svga-group-eyes-left"><g id="svga-group-eyesback-left"><path id="SvgjsPath19030" d="M80.2 77.2c7.5 0 13.5 5.8 13.5 13s-6 13-13.5 13-13.5-5.8-13.5-13 6-13 13.5-13z" fill="#ffffff" stroke-width="none" opacity="1"></path></g><g id="svga-group-eyesiriswrapper-left" transform="matrix(1,0,0,1,0,0)"><g id="svga-group-eyesiriscontrol-left" transform="matrix(1,0,0,1,0,0)"><g id="svga-group-eyesiris-left"><path id="SvgjsPath19248" d="M80.2 84.9c2.9 0 5.3 2.4 5.3 5.3s-2.4 5.3-5.3 5.3-5.3-2.4-5.3-5.3 2.4-5.3 5.3-5.3z" fill="#6d9fa5" stroke-width="none" opacity="1" stroke="none"></path><path id="SvgjsPath19249" d="M80.2 85.2c2.8 0 5.1 2.3 5.1 5.1s-2.3 5.1-5.1 5.1-5.1-2.3-5.1-5.1 2.3-5.1 5.1-5.1m0-.6c-3.1 0-5.6 2.5-5.6 5.6s2.5 5.6 5.6 5.6 5.6-2.5 5.6-5.6-2.5-5.6-5.6-5.6z" fill="#3e7f86" stroke-width="none" opacity="1" stroke="none"></path><path id="SvgjsPath19250" d="M77.4 91.7c0 1.3.5 2.5 1.3 3.3.5.1 1 .2 1.5.2 2.8 0 5.1-2.3 5.1-5.1 0-1-.3-2-.8-2.8-.7-.3-1.4-.5-2.2-.5-2.8.1-4.9 2.3-4.9 4.9z" fill="#89b0b4" stroke-width="none" opacity="1" stroke="none"></path><path id="SvgjsPath19251" d="M80.2 87.5c1.5 0 2.7 1.2 2.7 2.7s-1.2 2.7-2.7 2.7-2.7-1.2-2.7-2.7 1.2-2.7 2.7-2.7z" fill="#000000" stroke-width="none" opacity="1"></path><path id="SvgjsPath19252" d="M79 87.5c.5 0 .9.4.9.9s-.4.9-.9.9-1-.4-1-.9.5-.9 1-.9zm3.1 4.3c.2 0 .4.2.4.4s-.2.4-.4.4-.4-.2-.4-.4.2-.4.4-.4z" fill="#ffffff" stroke-width="none" opacity="1"></path><path id="SvgjsPath19253" d="M80.2 95.3c.3 0 .5 0 .8-.1-.2 0-.3-.2-.4-.3-.1.2-.3.4-.4.4-.3 0-.5-.2-.5-.4-.1.2-.4.3-.6.2-.2-.1-.4-.3-.4-.5-.2.2-.4.2-.6.1s-.3-.3-.3-.5c-.2.1-.5.1-.7 0s-.2-.5-.1-.7c-.2.2-.5.1-.7 0-.2-.2-.2-.5 0-.7-.2 0-.5-.1-.7-.3.9 1.7 2.6 2.8 4.6 2.8zm-4.6-3zm8.8.7c-.1.1-.3.2-.5.1.1.4-.3.8-.8.7.1.2 0 .4-.2.6-.2.1-.4.1-.6 0 0 .2-.1.4-.3.5s-.4 0-.6-.2c0 .2-.1.4-.2.5 1.4-.3 2.5-1.1 3.2-2.2zm-1.8-7.1c.3-.1.6.2.5.5.3-.2.8.3.6.6.2-.1.4 0 .4.2s.1.3-.1.5c.2 0 .5.1.6.3.1.2.1.5-.1.7.2 0 .4.2.5.4.1.2 0 .5-.2.6.2.1.3.3.3.5s-.1.4-.3.5c.2.1.3.3.3.5s-.2.4-.4.4c.3.2.1.8-.2.8.1.1.1.3.1.5.4-.8.7-1.6.7-2.6 0-2-1.2-3.8-2.9-4.6.1 0 .2.1.2.2zm-.6-.2c.1-.1.2-.1.3 0-.5-.2-1-.4-1.5-.4v.1c.4-.2.9 0 1.2.3zm-5.5 7c.2 0 .3-.1.4-.2.2-.1.3-.2.4-.3v-.1c-.2.1-.3.1-.4.2-.1.2-.3.2-.4.4 0-.1 0 0 0 0zm-1.2-1.5c.1 0 .3 0 .4-.1.2 0 .3-.1.5-.1v-.1c-.2 0-.3 0-.5.1s-.3 0-.4.2c0-.1 0 0 0 0zm.5-2.5c.4.1.8.3 1.2.4 0 0 .1 0 0-.1-.4-.1-.8-.3-1.2-.3 0-.1 0 0 0 0zm.2-.7c.2.2.4.3.7.4 0 0 .1 0 0-.1-.2-.2-.5-.3-.7-.3-.1-.1-.1-.1 0 0zm3.7 6.5c.1-.3.2-.7.2-1 0 0-.1-.1-.1 0-.1.3-.1.7-.1 1zm3.5-4c.3.1.7.1 1.1.1v-.1h-1.1zm.2-.7c.3 0 .7.1 1 0v-.1c-.3 0-.6 0-1 .1zm.2-2.7c-.3.2-.6.5-.9.8 0 0 0 .1 0 0 .3-.2.6-.5.9-.8.1 0 0 0 0 0zm-2.8-1.3c-.1.3-.2.5-.2.8 0 .1.1.1.1 0 .1-.2.1-.5.1-.8zm-2.9.3c.1.2.2.5.3.7h.1c-.1-.2-.3-.4-.4-.7z" fill="#3e7f86" stroke-width="none" opacity="1" stroke="none"></path></g></g></g><g id="svga-group-eyesfront-left"><path id="SvgjsPath19038" d="M80.2 76.7c-7.8 0-14.1 6.1-14.1 13.6s6.3 13.6 14.1 13.6 14.1-6.1 14.1-13.6S88 76.7 80.2 76.7zm-9 16.3c-5.8-3.4-4.7-12.6 6.7-8.9 8.5 2.8 14.4 10.4 14.4 10.4C82 95.8 76.9 96.4 71.2 93z" fill="#f3d4cf" stroke-width="none" opacity="1" stroke="none"></path><path id="SvgjsPath19039" d="M93.2 95.3s-3.9-3.3-6.5-4.7c-2.6-1.4-6.6-5.5-11.2-5.6-4.6-.1-9.4 3.8-9.4 3.8s.9-5.2 4.1-7.8c3.2-2.6 6.2-1.3 10.3 1.1s10.9 8.5 12.7 13.2z" fill="#ebc3bd" stroke-width="none" opacity="1" stroke="none"></path><path id="SvgjsPath19040" d="M93.2 95.3c-1.8-1.8-3.8-3.5-5.9-5.1-1-.8-2.1-1.5-3.2-2.2l-1.6-1c-.6-.3-1.1-.7-1.7-1-1.2-.7-2.5-1.2-3.9-1.4-1.4-.2-2.8-.1-4.1.2-.5.1-1 .3-1.5.5-.5-.2-1.8-.7-3.2-1.3.7-1.2 1.6-2.4 2.8-3.2.6-.4 1.3-.8 2.1-.9.8-.1 1.5-.1 2.3.1 1.5.4 2.9 1.1 4.3 1.9 2.8 1.6 5.3 3.6 7.7 5.8 1.2 1.1 2.3 2.3 3.3 3.5 1 1.3 2 2.6 2.6 4.1-.6-1.5-1.5-2.9-2.4-4.2-1-1.3-2.1-2.5-3.2-3.6-1.2-1.1-2.4-2.2-3.6-3.2-1.3-1-2.6-2-4-2.8-1.4-.8-2.8-1.6-4.5-2-.8-.2-1.7-.2-2.5-.1s-1.6.5-2.3 1c-1.3.9-2.3 2.1-3 3.4-.9-.4-1.8-.9-2.6-1.4-.1-.1-.3-.1-.4.1-.1.1-.1.3.1.4.7.5 1.7 1 2.6 1.4-.3.5-.5 1-.7 1.6-1.6-.4-3.5-1-4.8-1.7-.1-.1-.3 0-.4.1s0 .3.1.4c1.3.7 3.2 1.3 4.9 1.7-.1.3-.2.7-.3 1-1.7.1-4.3 0-6.5-.9-.2-.1-.3 0-.4.2s0 .3.2.4c2 .8 4.2 1 5.9 1h.6c-.1.2-.1.5-.2.7 0 .1 0 .2.1.2.1.1.3.1.4.1.5-.3.9-.7 1.4-1 .1.7.2 1.4.6 2.1.5 1.2 1.4 2.1 2.4 2.8 2.1 1.4 4.5 2.3 6.9 2.6 1.2.2 2.5.2 3.7.2 1.2 0 2.5-.1 3.7-.2 2.4-.2 4.7-.6 7.1-.9.3.2.7.4 1.1.6zM67.8 84.6c1 .5 2 .9 2.7 1.1-.5.2-1 .5-1.4.8-.4-.1-1.1-.2-1.9-.4.1-.5.4-1 .6-1.5zm-.9 2c.5.1 1 .2 1.4.3-.1.1-.2.2-.3.2-.1.1-.3.2-.4.2-.1 0-.4.1-1 .1.2-.2.2-.5.3-.8zm-.3 1.4c-.1 0-.1.1-.2.1V88h.2zm18.3 7.1c-2.4.2-4.9.2-7.3-.1-2.4-.4-4.7-1.2-6.7-2.5-1-.7-1.8-1.6-2.4-2.6-.3-.7-.5-1.4-.6-2.1 1.7-.8 3.4-1.4 5.1-1.7 1.2-.2 2.4-.2 3.6.1 1.2.2 2.3.7 3.3 1.2 1.1.6 2.2 1.3 3.3 1.9 1.1.6 2.2 1.3 3.3 1.9l5.4 3.3c-2.3.3-4.6.5-7 .6z" fill="#590000" stroke-width="none" opacity="1" stroke="none"></path></g></g></g><g id="svga-group-eyes-right-move" transform="matrix(1,0,0,1,0,2)"><g id="svga-group-eyes-right"><g id="svga-group-eyesback-right"><path id="SvgjsPath19031" d="M119.8 77.2c7.5 0 13.5 5.8 13.5 13s-6 13-13.5 13-13.5-5.8-13.5-13 6-13 13.5-13z" fill="#ffffff" stroke-width="none" opacity="1"></path></g><g id="svga-group-eyesiriswrapper-right" transform="matrix(1,0,0,1,0,0)"><g id="svga-group-eyesiriscontrol-right" transform="matrix(1,0,0,1,0,0)"><g id="svga-group-eyesiris-right"><path id="SvgjsPath19254" d="M119.8 85.5c2.6 0 4.7 2.1 4.7 4.7s-2.1 4.7-4.7 4.7-4.7-2.1-4.7-4.7 2.1-4.7 4.7-4.7z" fill="#6d9fa5" stroke-width="none" opacity="1" stroke="none"></path><path id="SvgjsPath19255" d="M119.8 85.8c2.4 0 4.4 2 4.4 4.4s-2 4.4-4.4 4.4-4.4-2-4.4-4.4 1.9-4.4 4.4-4.4m0-.5c-2.7 0-4.9 2.2-4.9 4.9s2.2 4.9 4.9 4.9 4.9-2.2 4.9-4.9-2.2-4.9-4.9-4.9z" fill="#3e7f86" stroke-width="none" opacity="1" stroke="none"></path><path id="SvgjsPath19256" d="M117.3 91.5c0 1.1.4 2.2 1.2 2.9.4.1.8.2 1.3.2 2.4 0 4.4-2 4.4-4.4 0-.9-.3-1.8-.7-2.4-.6-.3-1.2-.5-1.9-.5-2.4 0-4.3 1.9-4.3 4.2z" fill="#89b0b4" stroke-width="none" opacity="1" stroke="none"></path><path id="SvgjsPath19257" d="M119.8 87.8c1.3 0 2.4 1.1 2.4 2.4s-1.1 2.4-2.4 2.4-2.4-1.1-2.4-2.4 1.1-2.4 2.4-2.4z" fill="#000000" stroke-width="none" opacity="1"></path><path id="SvgjsPath19258" d="M118.7 87.8c.5 0 .8.4.8.8s-.4.8-.8.8-.8-.4-.8-.8.4-.8.8-.8zm2.8 3.8c.2 0 .3.1.3.3s-.1.3-.3.3-.3-.1-.3-.3.1-.3.3-.3z" fill="#ffffff" stroke-width="none" opacity="1"></path><path id="SvgjsPath19259" d="M119.8 94.7c.2 0 .4 0 .7-.1-.2 0-.3-.2-.3-.3-.1.2-.3.3-.4.4-.2 0-.4-.2-.5-.3-.1.2-.3.3-.5.2-.2-.1-.3-.2-.3-.4-.1.1-.4.2-.5.1s-.3-.3-.3-.4c-.2.1-.4.1-.6 0s-.2-.4-.1-.6c-.2.1-.4.1-.6 0-.2-.2-.2-.4 0-.6-.2 0-.4-.1-.6-.2.8 1.2 2.3 2.2 4 2.2zm-4-2.6s0-.1 0 0c-.1-.1 0 0 0 0zm7.7.6c-.1.1-.3.2-.4.1.1.4-.3.7-.7.7.1.2 0 .4-.2.5s-.4.1-.5 0c0 .2-.1.4-.3.4s-.4 0-.5-.2c0 .2-.1.3-.2.4 1.2-.3 2.2-1 2.8-1.9zm-1.6-6.2c.2-.1.5.2.4.4.3-.1.7.2.5.5.1 0 .3 0 .4.2.1.1 0 .3-.1.4.2 0 .4.1.5.3.1.2.1.4-.1.6.2 0 .4.1.4.3s0 .4-.2.5c.2.1.3.2.3.4s-.1.4-.3.4c.2.1.3.3.2.5s-.2.3-.4.4c.2.2.1.7-.2.7.1.1.1.3.1.4.4-.7.6-1.4.6-2.3 0-1.8-1-3.3-2.5-4 .3.1.4.2.4.3zm-.5-.3c.1-.1.2-.1.3 0-.4-.2-.8-.3-1.3-.4v.1c.3-.1.7.1 1 .3zm-4.8 6.2c.1 0 .2-.1.4-.2.1-.1.3-.1.4-.2v-.1c-.1.1-.3.1-.4.2s-.3.1-.4.3c-.1-.1 0 0 0 0zm-1.1-1.4c.1 0 .2 0 .4-.1.1 0 .3-.1.4-.1v-.1c-.1 0-.3 0-.4.1s-.3.1-.4.2zm.5-2.1c.3.1.7.2 1 .3 0 0 .1 0 0 0-.3-.2-.7-.3-1-.3-.1-.1-.1 0 0 0zm.1-.7c.2.1.4.3.6.4 0 0 .1 0 0-.1l-.6-.3zm3.3 5.8c.1-.3.2-.6.2-.9 0 0-.1-.1-.1 0-.1.2-.1.6-.1.9-.1 0 0 0 0 0zm3-3.5c.3.1.6.1.9.1-.2-.1-.6-.1-.9-.1zm.2-.6h.8v-.1c-.2 0-.5 0-.8.1 0-.1 0 0 0 0zm.2-2.4c-.3.2-.6.4-.8.7.2-.2.5-.4.8-.7zm-2.5-1.1c-.1.2-.1.5-.1.7h.1v-.7zm-2.5.2.3.6h.1c-.2-.2-.3-.4-.4-.6z" fill="#3e7f86" stroke-width="none" opacity="1" stroke="none"></path></g></g></g><g id="svga-group-eyesfront-right"><path id="SvgjsPath19041" d="M119.8 76.7c-7.8 0-14.1 6.1-14.1 13.6s6.3 13.6 14.1 13.6 14.1-6.1 14.1-13.6-6.3-13.6-14.1-13.6zm9.9 14.5c-5.8 3.4-11.2 5.4-21.5 4.2 0 0 6.2-6.8 15-8.6s12.2 1 6.5 4.4z" fill="#f3d4cf" stroke-width="none" opacity="1" stroke="none"></path><path id="SvgjsPath19044" d="M107.3 96.1s3.9-3.3 6.5-4.7c2.6-1.4 7.5-4.4 12.1-4.5 4.6-.1 7.3 2.1 7.3 2.1s-2.7-4.8-5.9-7.4-5-.8-9.1 1.6c-4.1 2.5-9.1 8.2-10.9 12.9z" fill="#ebc3bd" stroke-width="none" opacity="1" stroke="none"></path><path id="SvgjsPath19045" d="M139.7 88.3c-2.7.2-5.5-.1-6.9-.3l-.6-.9h.4c1.9 0 4.2-.2 5.9-.8.1-.1.2-.2.2-.4s-.2-.2-.4-.2c-1.8.7-4.5.8-6.4.7-.2-.4-.5-.7-.8-1.1 1.3-.3 2.5-.7 3-1 .1-.1.2-.2.1-.4s-.2-.2-.4-.1c-.5.3-1.7.6-3.1 1-.9-1.2-1.9-2.3-3.1-3.3-.6-.5-1.2-1-2-1.3-.8-.3-1.6-.3-2.4-.1-.8.2-1.5.6-2.2.9-.7.4-1.3.8-2 1.2-2.7 1.5-5 3.6-7 6-1 1.2-1.9 2.4-2.7 3.7-.8 1.3-1.6 2.7-2.1 4.1 1.2-2.8 3-5.3 5.1-7.6 2-2.3 4.3-4.3 7-5.8.7-.4 1.3-.8 2-1.2.7-.4 1.3-.7 2-.9.7-.2 1.4-.1 2.1.1s1.3.7 1.8 1.2c1 .9 2 1.9 2.8 3-1 .3-2 .5-2.8.7-.2 0-.5 0-.7-.1-1.3-.1-2.6.2-3.8.4-1.2.3-2.4.7-3.6 1.2-1.1.5-2.3 1.1-3.3 1.7-1.1.7-2.1 1.3-3.1 2.1-2 1.5-3.9 3.1-5.5 5 .4-.2.7-.5 1.1-.7 2.2.4 4.4.5 6.6.5 2.3 0 4.6-.3 6.8-.9 2.2-.6 4.3-1.5 6.3-2.6.5-.3 1-.6 1.5-.8.5-.3 1-.6 1.4-1 .5-.4.9-.8 1.2-1.2.1-.1.2-.3.2-.4.2.1.4.2.5.3.1.1.2.1.3 0 .1-.1.2-.2.1-.4-.1-.1-.1-.2-.2-.3 1.1.1 2.8.3 4.6.3.6 0 1.3 0 1.9-.1.2 0 .3-.2.3-.3.2.2.1 0-.1.1zm-7.6-.6c-.3-.2-.5-.4-.8-.7h.4c.1.3.2.5.4.7zm-1.6-2.1c.2.3.5.6.7.9-.5 0-.9 0-1.2-.1-.4-.2-.8-.3-1.2-.4.6-.1 1.1-.3 1.7-.4zm1.4 3.5c-.3.4-.8.8-1.2 1.1s-.9.6-1.4.9-1 .6-1.5.8c-2 1.1-4.1 1.9-6.2 2.6-2.2.6-4.4.9-6.6 1.1-2.2.1-4.4 0-6.5-.1 1.7-1.1 3.4-2.1 5.1-3.1 2.1-1.2 4.2-2.4 6.4-3.3 1.1-.5 2.2-.9 3.3-1.2l2.4-.6h.8c1.2 0 2.4.2 3.5.5.8.2 1.6.6 2.3 1-.2 0-.3.1-.4.3z" fill="#590000" stroke-width="none" opacity="1" stroke="none"></path></g></g></g><g id="svga-group-facehighlight-single"></g><g id="svga-group-eyebrows-left-move" transform="matrix(1,0,0,1,0,0)"><g id="svga-group-eyebrows-left-rotate" transform="matrix(0.991444860918188,0.13052619568084697,-0.13052619568084697,0.991444860918188,10.81501654404731,-9.487593064404507)"><g id="svga-group-eyebrows-left" transform="matrix(1.0500001,0,0,1.0500001,-3.9195079992176147,-3.8650702530132435)"><path id="SvgjsPath19374" d="M64.67 79.76c2.13-1.22 4.29-2.43 6.52-3.32.55-.23 1.11-.42 1.66-.55l.4-.08c.11 0 .2-.01.34 0 .13 0 .26.02.4.04.14.01.28.04.42.07 1.15.2 2.32.52 3.48.86 1.17.34 2.32.75 3.47 1.15 1.15.4 2.32.76 3.51 1.05 1.19.29 2.38.56 3.6.77 1.21.22 2.43.41 3.69.49l.07-.22c-1.07-.71-2.19-1.28-3.31-1.81-1.13-.54-2.28-1-3.44-1.43-1.16-.42-2.35-.77-3.56-1.04-1.21-.26-2.42-.5-3.64-.75-1.22-.24-2.44-.47-3.72-.59l-.49-.03c-.16-.01-.33-.01-.51 0-.17 0-.38.03-.57.07l-.49.15c-.63.22-1.21.49-1.76.79-1.11.6-2.16 1.27-3.19 1.97a50.2 50.2 0 0 0-3 2.2l.12.21z" fill="#2a232b" stroke-width="none" opacity="1" stroke="none"></path></g></g></g><g id="svga-group-eyebrows-right-move" transform="matrix(1,0,0,1,0,0)"><g id="svga-group-eyebrows-right-rotate" transform="matrix(0.9978589230103034,0.06540313271332772,-0.06540313271332772,0.9978589230103034,5.209662123746753,-8.01579491161445)"><g id="svga-group-eyebrows-right" transform="matrix(1.0500001,0,0,1.0500001,-6.115262436494078,-3.9094037996269293)"><path id="SvgjsPath19375" d="M134.94 78.92c-2.06-.91-4.15-1.81-6.28-2.42-.53-.16-1.06-.28-1.57-.35l-.37-.04c-.1.01-.19.01-.31.03-.11.01-.24.04-.37.07-.12.02-.25.06-.38.09-1.04.27-2.1.64-3.14 1.03-1.05.39-2.08.84-3.11 1.29-1.03.45-2.08.85-3.15 1.2-1.07.35-2.15.68-3.25.96-1.1.29-2.21.55-3.36.72l-.08-.19c.93-.71 1.91-1.3 2.91-1.86 1-.56 2.02-1.06 3.05-1.53 1.04-.46 2.1-.86 3.19-1.19 1.09-.33 2.19-.63 3.29-.94 1.1-.31 2.21-.61 3.38-.81.15-.02.29-.05.45-.06.15-.02.31-.03.47-.04.15-.01.35 0 .53.01l.46.09c.6.15 1.15.34 1.69.56 1.07.44 2.09.95 3.1 1.49 1 .54 1.98 1.11 2.95 1.71l-.1.18z" fill="#2a232b" stroke-width="none" opacity="1" stroke="none"></path></g></g></g><g id="svga-group-nose-single-move" transform="matrix(1,0,0,1,0,0)"><g id="svga-group-nose-single"><path id="SvgjsPath18553" d="M109.52 109.12c-.37-.88-.94-1.63-1.59-2.29.5.77.95 1.58 1.22 2.42.13.42.21.86.14 1.25-.04.2-.1.36-.23.53-.12.17-.25.34-.41.47-.61.58-1.49.8-2.35.68-.43-.05-.87-.17-1.28-.35-.39-.14-.76-.35-1.13-.54.33-.49.63-1.01.89-1.55-.86.8-1.66 1.61-2.52 2.32-.43.35-.86.7-1.32.96-.45.27-.94.48-1.33.46-.1.01-.18-.02-.27-.03-.08-.05-.15-.05-.26-.14-.21-.13-.43-.31-.65-.48-.44-.34-.87-.72-1.31-1.08-.87-.74-1.75-1.48-2.69-2.17.44.7.95 1.34 1.47 1.97-.44.2-.89.36-1.34.46-.56.11-1.15.13-1.62-.09-.95-.47-1.51-1.61-1.35-2.58.04-.25.12-.44.26-.65.15-.23.32-.46.49-.69.35-.45.72-.9 1.11-1.33l.58-.65c.23-.25.4-.49.58-.74.36-.5.68-1.03.94-1.61.26-.57.42-1.23.52-1.81.1-.59.2-1.18.26-1.77.13-1.18.24-2.36.27-3.55.08-2.37.02-4.76-.45-7.08.05 2.36-.12 4.7-.35 7.03-.13 1.16-.26 2.33-.44 3.48-.09.58-.18 1.15-.28 1.72-.11.58-.23 1.07-.47 1.57-.22.5-.5.99-.82 1.45-.16.23-.33.47-.5.65-.2.23-.39.45-.58.68-.38.46-.74.94-1.09 1.43-.17.25-.35.5-.5.77-.18.29-.3.67-.32 1-.11 1.38.74 2.67 1.98 3.12.64.2 1.29.1 1.86-.1.47-.16.9-.4 1.31-.67.21.25.41.5.63.74.39.44.8.84 1.24 1.25.22.2.45.39.72.57.11.09.32.19.5.27.19.05.39.1.58.1.77 0 1.36-.33 1.88-.66.51-.36.96-.75 1.36-1.2.39-.42.74-.87 1.06-1.34.66.58 1.44 1.09 2.36 1.27.47.1.98.11 1.46 0 .48-.12.94-.36 1.31-.7.19-.17.34-.37.48-.57.15-.2.26-.48.28-.73.03-.54-.1-1.03-.29-1.47z" fill="#c5796d" stroke-width="none" opacity="1" stroke="none"></path></g></g><g id="svga-group-hair-front"><path id="SvgjsPath18279" d="M140.4 54.5C139.3 51.2 131 43 127 39.8c2.2-1.1 5.1-3 5.8-4.8 1.1-2.8-1.1-18.2-1.9-19.5-.8-1.3-15.5-10.4-24.1-11.6-8.5-1.1-30.7 3.6-31.2 4-.6.4-10 15-8.9 22 .8 5.2 5.7 7.9 8.2 8.9-2.7 1.8-5.2 3.5-6.7 4.8-3.3 3-8.3 10.4-8.3 10.4s-4.5 12.2-4.8 15.2c-.3 3.1-.9 14.1-.9 14.1l.7 1.5s1.6 5.1 1.8 6.2c.4 2 .7 5.7.7 5.7s2.6-17.1 4.1-22.1 6.9-13.7 11.6-17.5c4.8-3.8 19.7-9.6 27.1-9.9 7.4-.3 17.1 3.9 21.4 6.7 4.3 2.7 9.8 10.8 12.3 14.9 2.6 4.1 3.4 10.1 4.4 13.4s3.4 14.6 3.6 15.3 1.6-4.4 1.6-4.4.8-7 1-7.7c.2-.7 1.4-5.7 1.4-7s-4.3-20.3-5.5-23.9z" fill="#462e2e" stroke-width="none" opacity="1" stroke="none"></path><path id="SvgjsPath18280" d="M140.4 54.5c-.6-1.5-1.7-2.8-2.7-4.1-1.1-1.3-2.2-2.5-3.4-3.7-2.3-2.4-4.7-4.7-7.3-6.8l-.1-.1.1-.1c1.1-.6 2.2-1.3 3.2-2 1-.8 2-1.6 2.5-2.7.3-1.2.3-2.5.2-3.8-.1-1.3-.1-2.5-.3-3.8-.3-2.5-.6-5.1-1-7.6-.2-1.2-.4-2.5-.8-3.7 0-.2-.1-.3-.1-.4-.1-.1-.2-.2-.2-.3-.2-.2-.5-.4-.7-.6-.5-.4-1-.7-1.6-1.1-2.1-1.4-4.4-2.6-6.6-3.8-2.2-1.2-4.6-2.3-6.9-3.2-2.3-.9-4.8-1.8-7.2-2.2-2.5-.4-5-.2-7.5-.1-5.1.3-10.1 1.1-15.2 2-2.5.4-5 .9-7.5 1.5l-.9.2c-.3.1-.5.1-.6.3-.4.6-.8 1.1-1.1 1.6-.7 1.1-1.3 2.2-2 3.3-1.3 2.2-2.4 4.5-3.4 6.8s-1.9 4.7-2.2 7.2c0 .6-.2 1.2-.1 1.9 0 .6.1 1.2.3 1.8.3 1.2.9 2.3 1.7 3.3 1.6 2 3.7 3.4 6.1 4.4l.4.2-.3.2c-1.5 1-3 2-4.4 3-1.4 1-2.8 2.2-4 3.5-2.4 2.6-4.6 5.5-6.6 8.5-.8 2.4-1.7 4.7-2.5 7.1-.8 2.4-1.6 4.8-2.1 7.2-.1.3-.1.6-.2.9l-.1.9-.1 1.9-.2 3.8-.4 7.5v-.1l.7 1.5c.6 1.9 1.2 3.8 1.8 5.8.2 1 .3 2 .4 3l.4 3h-.6c.9-6.2 1.9-12.3 3.2-18.5.3-1.5.7-3.1 1.2-4.6.5-1.5 1.2-2.9 1.9-4.3 1.4-2.8 3.2-5.4 5.1-7.9 1-1.2 2-2.4 3.2-3.5 1.2-1.1 2.5-2 3.9-2.8 2.7-1.6 5.6-2.9 8.5-4 2.9-1.2 5.9-2.2 8.9-3 1.5-.4 3.1-.8 4.6-1 1.6-.3 3.2-.4 4.8-.3 1.6.1 3.2.3 4.7.7 1.6.3 3.1.8 4.6 1.3 3 1 5.9 2.3 8.7 3.8 1.4.7 2.8 1.7 3.9 2.8 1.2 1.1 2.2 2.2 3.2 3.5 2 2.4 3.8 5 5.6 7.6.8 1.3 1.7 2.6 2.4 4.1.7 1.4 1.2 2.9 1.6 4.5.4 1.5.8 3 1.1 4.6.2.8.4 1.5.6 2.2.2.7.4 1.5.6 2.3.8 3 1.4 6.1 2.1 9.1l.5 2.3.2 1.1.1.6.1.3v.1c0-.1-.2-.1-.2-.1-.1 0-.1.1-.1.1.1-.2.3-.6.4-1l.4-1.1c.2-.7.5-1.5.7-2.2l.6-4.9c.1-.8.2-1.6.4-2.4l.6-2.4c.4-1.6.8-3.2.9-4.8-.1-1.6-.6-3.2-.9-4.8-.7-3.2-1.4-6.4-2.2-9.6-1.1-3.6-1.9-6.7-2.8-9.9zm.1 0c1 3.1 1.7 6.3 2.5 9.5s1.6 6.4 2.3 9.6c.3 1.6.8 3.2.9 4.9-.1 1.7-.5 3.3-.9 4.9-.2.8-.4 1.6-.5 2.4l-.3 2.4-.5 4.8c-.2.8-.4 1.5-.6 2.3l-.4 1.1c-.1.4-.2.7-.5 1.2l-.1.1s-.1.1-.2.1-.2-.1-.3-.1c0 0 0-.1-.1-.1 0-.1 0-.1-.1-.2l-.1-.3-.1-.6-.3-1.1-.5-2.3c-.7-3-1.4-6.1-2.2-9.1-.2-.8-.4-1.5-.6-2.2-.2-.8-.4-1.5-.6-2.3l-1.2-4.5c-.4-1.5-1-2.9-1.6-4.3-.6-1.4-1.5-2.6-2.4-3.9-1.7-2.6-3.5-5.1-5.5-7.5-2-2.4-4.1-4.6-6.9-6-2.7-1.5-5.6-2.7-8.5-3.7-1.5-.5-2.9-.9-4.4-1.2-1.5-.3-3-.6-4.5-.7-1.5-.1-3 0-4.5.3-1.5.2-3 .6-4.5 1-3 .8-5.9 1.8-8.8 2.9-2.9 1.1-5.7 2.4-8.4 3.9s-4.9 3.6-6.8 6.1c-1.9 2.4-3.6 5-5.1 7.8-.7 1.4-1.4 2.8-1.9 4.2-.5 1.4-.9 2.9-1.2 4.5-1.3 6.1-2.3 12.2-3.3 18.4l-.3 2.2-.3-2.2-.4-3c-.1-1-.2-2-.4-3-.5-1.9-1.1-3.9-1.7-5.8l-.7-1.6v-.2l.5-7.5.3-3.8.1-1.9.1-.9c.1-.3.1-.6.2-.9.6-2.5 1.4-4.8 2.2-7.2.8-2.4 1.6-4.7 2.5-7.1 1-1.5 2.1-2.9 3.2-4.4 1.1-1.4 2.2-2.8 3.4-4.2 1.2-1.4 2.6-2.5 4.1-3.6 1.4-1.1 2.9-2.1 4.4-3.1v.4c-2.4-1-4.6-2.4-6.3-4.5-.8-1-1.5-2.2-1.8-3.4-.2-.6-.3-1.3-.3-1.9-.1-.7 0-1.3.1-2 .3-2.6 1.2-5 2.2-7.4 1-2.4 2.2-4.7 3.4-6.9.6-1.1 1.3-2.2 2-3.3.3-.5.7-1.1 1.1-1.6.1-.1.3-.4.5-.4l.3-.1.2-.1.9-.2c2.5-.6 5-1.1 7.5-1.5 5-.9 10.1-1.7 15.2-2.1 2.6-.2 5.2-.3 7.8.1 2.6.5 5 1.3 7.4 2.3 4.7 2 9.3 4.4 13.6 7.3.5.4 1.1.7 1.6 1.1.3.2.5.4.8.6l.4.4c.1.2.1.4.2.5.3 1.3.6 2.5.8 3.8.4 2.5.7 5.1.9 7.6.1 1.3.2 2.6.2 3.8 0 1.3.1 2.6-.3 3.9-.6 1.2-1.6 2.1-2.6 2.8-1.1.8-2.2 1.4-3.3 2v-.2c2.6 2.1 5 4.4 7.3 6.8 1.1 1.2 2.3 2.4 3.3 3.7.7 1.5 1.8 2.8 2.4 4.4z" fill="#371e1e" stroke-width="none" opacity="1" stroke="none"></path><path id="SvgjsPath18281" d="M55.3 70.9c-1 3.4-1.2 7.1-.7 10.7.5 3.6 1.6 7.1 3.5 10.1-1.2-3.4-2.1-6.7-2.5-10.2-.5-3.6-.5-7.1-.3-10.6zm3.9 7.9-.4-1.6-.3-1.6c-.4-2.1-.6-4.3-.7-6.5-.1-2.2 0-4.3.3-6.5s.7-4.3 1.3-6.4c-1 2-1.6 4.1-2 6.3-.4 2.2-.6 4.4-.5 6.6.1 2.2.4 4.4.9 6.6l.5 1.6.5 1.6.7 1.5c.2.5.5 1 .7 1.5-.2-.5-.3-1.1-.5-1.6l-.5-1.5zm2.5-26.7c-1.2 3.1-1.6 6.5-1.5 9.8.1 3.3.8 6.7 2.2 9.7-.6-3.2-1.1-6.5-1.2-9.7-.2-3.3.1-6.5.5-9.8zm6.4-1.4c.4-3.3 1.5-6.4 3.2-9.3-2.3 2.5-3.8 5.8-4.2 9.2-.4 3.4.1 7 1.7 10-.8-3.4-1.1-6.7-.7-9.9zm4-9.1c-1.3 2.1-2 4.5-2.2 6.9-.2 2.4.2 5 1.2 7.2-.2-2.4-.3-4.8-.2-7.1.2-2.3.6-4.6 1.2-7zm4.2 4.1c-.1 3 .6 6.1 2.3 8.5-1-2.8-1.4-5.6-1.3-8.5.1-2.8.8-5.6 1.9-8.3-1.8 2.3-2.8 5.3-2.9 8.3zm7.2-9.8c-1.1 2.1-1.7 4.6-1.7 7-.1 2.4.3 4.9 1.4 7.1-.3-2.4-.5-4.7-.4-7.1 0-2.3.3-4.6.7-7zm13.9-2.2c-.7 2-.9 4.2-.8 6.3.1 2.1.6 4.3 1.5 6.2-.1-2.1-.4-4.2-.5-6.2-.1-2.1-.1-4.2-.2-6.3zm23 3-3.1-1.2-3.2-1c-4.3-1.3-8.8-1.9-13.3-2.1-4.5-.1-9 .3-13.4 1.3l-3.4.8-3.2 1.1-3.1 1.3-3 1.5c1-.4 2.1-.8 3.1-1.3L81 36l3.2-.9 3.2-.7c4.4-.9 8.8-1.3 13.2-1.1 4.4.1 8.9.7 13.2 1.8s8.5 2.7 12.5 4.7c-1-.6-1.9-1.1-2.9-1.7l-3-1.4zm-42.7-.3c-1.1-2-1.9-4.1-2.7-6.3-.8-2.1-1.4-4.2-1.9-6.4 1.1-1.5 2.3-3 3.6-4.4 1.3-1.4 2.8-2.8 4.3-4 1.5-1.2 3.1-2.4 4.7-3.4 1.6-1.1 3.3-1.9 5.1-2.7 4.9 0 9.8.1 14.8.4 2.5.2 4.9.4 7.4.8 2.4.4 4.9.9 7.2 1.7 1.2.4 2.3.9 3.1 1.7.9.8 1.2 1.9 1.3 3.1l.4 7.4.2 3.7c.1 1.2.2 2.5-.1 3.6-.4 1.1-1.3 1.9-2.3 2.6-1.1.6-2.2 1-3.4 1.4v.1c1.2-.3 2.4-.6 3.6-1.1 1.1-.5 2.2-1.4 2.7-2.7.5-1.3.3-2.6.3-3.8l-.2-3.7c-.1-2.5-.2-4.9-.4-7.5-.1-.6-.2-1.3-.5-1.9-.3-.6-.7-1.2-1.2-1.6-1-.9-2.3-1.3-3.5-1.6-2.4-.7-4.9-1.1-7.3-1.5-2.5-.3-4.9-.6-7.4-.9-4.9-.5-9.9-.8-14.9-.9h-.2c-1.8.8-3.6 1.6-5.3 2.7-.9.5-1.7 1.1-2.5 1.6l-2.4 1.8c-1.5 1.3-3 2.6-4.3 4.1-1.3 1.5-2.6 3-3.7 4.7l-.1.1v.2c.6 2.2 1.3 4.4 2.2 6.5.9 2.1 1.9 4.2 3.1 6.1l.3.1zm24.4-13.8c.5.6.7 1.4.8 2.2.1.8 0 1.6.2 2.4.1.8.4 1.7 1.1 2.4.3.3.8.6 1.3.6.5.1.9 0 1.4-.1 1.6-.5 3.1-1.1 4.6-1.6l2.3-.9.6-.2c.2-.1.4-.2.6-.4.4-.3.7-.5 1-.8l.2-.2v-.2c0-.6-.1-1.1-.2-1.7-.2-.7-.4-1.1-.6-1.5l-1.3-2.9-.7-1.4c-.2-.5-.5-1-.8-1.4-.6-.9-1.3-1.7-2.1-2.4l-.1-.1h-.1c-1.6-.2-3.3-.3-4.9-.2-1.6.3-3.2.7-4.8 1.1-1.6.4-3.1.8-4.7 1.5-1.5.8-2.7 1.9-3.9 3.1l-.2.1v.1c-.3 1-.5 2-.7 3-.2 1-.3 2-.1 3.1.5 2 1.4 3.8 2.4 5.5h.1c-.7-1.8-1.5-3.7-1.8-5.6-.1-.9 0-1.9.2-2.8.2-.9.4-1.8.7-2.7 1.1-1 2.3-2.1 3.6-3 1.3-.8 2.9-1.3 4.4-1.8.8-.2 1.6-.5 2.3-.7.8-.2 1.6-.4 2.4-.5 1.6-.1 3.1.1 4.7.4l1.8 2.4c.3.4.5.9.7 1.3l.6 1.5 1.3 2.9c.2.5.5 1 .5 1.4.1.4.1.8.1 1.2-.2.2-.5.4-.7.6-.2.1-.3.2-.4.2l-.6.2-2.3.9-2.2.9c-.8.3-1.5.6-2.2.9-.7.2-1.4.2-1.9-.3-.5-.4-.8-1.2-1-1.9-.2-.8-.2-1.6-.3-2.4-.3-.8-.6-1.7-1.3-2.2zm2.1-1.6c-.8.3-1.5.8-2.1 1.4.8-.3 1.5-.7 2.3-1l1.8-.6c.1.5.2 1 .4 1.4.2.5.5 1 .8 1.4 0-.6-.2-1.1-.4-1.6s-.4-.9-.8-1.3c.1 0 .3-.1.4-.1-.7 0-1.6.2-2.4.4zm22.5 29.7c-.1 2.3-.3 4.7-.4 7 .9-2.2 1.3-4.6 1.4-7 .1-2.4-.1-4.8-.9-7.1 0 2.4 0 4.8-.1 7.1zm2 2.8c-.2 2.4-.4 4.7-.4 7.1.8-2.3 1.2-4.7 1.4-7.1.2-2.4.1-4.8-.3-7.2-.4 2.5-.5 4.9-.7 7.2zm6.1 8c.1 2.7-.1 5.4-.2 8.2.9-2.6 1.2-5.4 1.2-8.2-.1-2.8-.5-5.6-1.5-8.2.3 2.7.5 5.4.5 8.2zm2.1 8.2c-.2 1.6-.5 3.2-.5 4.8.8-1.5 1.2-3.1 1.5-4.7.2-1.6.3-3.3 0-4.9-.4 1.7-.7 3.2-1 4.8zm5.5.7c-.4 3.3-.6 6.5-.9 9.8-.3 3.2-.7 6.5-1 9.8 1.1-3.1 1.7-6.4 2-9.7.3-3.3.4-6.6-.1-9.9z" fill="#371e1e" stroke-width="none" opacity="1" stroke="none"></path></g><g id="svga-group-glasses-single-move" transform="matrix(1,0,0,1,0,-2)"><g id="svga-group-glasses-single" transform="matrix(1.0000001,0,0,1.0000001,-0.000010048520280747653,-0.000009308749781666847)"></g></g></g></g></g><rect id="svga-credit-rect" width="200" height="15" x="0" y="185" fill="#ecf0f1" opacity="0.5" style="display: none;"></rect><text id="svga-credit-text" font-family="Avenir Next, Roboto, Helvetica, Arial, sans-serif" font-size="10px" text-anchor="start" font-weight="400" size="10px" anchor="start" weight="400" fill="#333333" x="33.40447998046875" y="182.60824704170227" style="display: none;"><tspan id="SvgjsTspan16137" dy="13" x="33.40447998046875">Created on AvatarMaker.com</tspan></text></g><defs id="SvgjsDefs16089"><linearGradient id="SvgjsLinearGradient17819" x1="77.9026" y1="122.6494" x2="77.9026" y2="94.7406" gradientTransform="matrix(1 0 0 -1 0 202)" gradientUnits="userSpaceOnUse" class="svga-on-canvas-glasses-gradient-single-0-null"><stop id="SvgjsStop17820" stop-opacity="1" stop-color="#211810" offset="0" ></stop><stop id="SvgjsStop17821" stop-opacity="0.7372" stop-color="#231b13" offset="0.2628" ></stop><stop id="SvgjsStop17822" stop-opacity="0.5527" stop-color="#2b231c" offset="0.4473" ></stop><stop id="SvgjsStop17823" stop-opacity="0.3921" stop-color="#38312c" offset="0.6079" ></stop><stop id="SvgjsStop17824" stop-opacity="0.2453" stop-color="#4b4641" offset="0.7547" ></stop><stop id="SvgjsStop17825" stop-opacity="0.1091" stop-color="#62605e" offset="0.8909" ></stop><stop id="SvgjsStop17826" stop-opacity="0" stop-color="#7a7a7a" offset="1" ></stop></linearGradient><linearGradient id="SvgjsLinearGradient17828" x1="-1740.4807" y1="122.8294" x2="-1740.4807" y2="94.7364" gradientTransform="matrix(-1 0 0 -1 -1618 202)" gradientUnits="userSpaceOnUse" class="svga-on-canvas-glasses-gradient-single-1-null"><stop id="SvgjsStop17829" stop-opacity="1" stop-color="#211810" offset="0" ></stop><stop id="SvgjsStop17830" stop-opacity="0.7372" stop-color="#231b13" offset="0.2628" ></stop><stop id="SvgjsStop17831" stop-opacity="0.5527" stop-color="#2b231c" offset="0.4473" ></stop><stop id="SvgjsStop17832" stop-opacity="0.3921" stop-color="#38312c" offset="0.6079" ></stop><stop id="SvgjsStop17833" stop-opacity="0.2453" stop-color="#4b4641" offset="0.7547" ></stop><stop id="SvgjsStop17834" stop-opacity="0.1091" stop-color="#62605e" offset="0.8909" ></stop><stop id="SvgjsStop17835" stop-opacity="0" stop-color="#7a7a7a" offset="1" ></stop></linearGradient></defs></svg>