<svg xmlns="http://www.w3.org/2000/svg" version="1.1" width="600px" height="600px" viewBox="0 0 200 200" style="overflow:hidden!important;"><defs id="SvgjsDefs18799"></defs><g id="svga-group-wrapper"><g id="svga-group-backs-single"></g><g id="svga-group-humanwrap-move" transform="matrix(1,0,0,1,0,0)"><g id="svga-group-humanwrap" transform="matrix(1,0,0,1,0,0)"><g id="svga-group-hair-back-move" transform="matrix(1,0,0,1,0,0)"><g id="svga-group-hair-back" transform="matrix(1,0,0,1,0,0)"><path id="SvgjsPath20326" d="M120 28.1s3.7-7.1-5.6-12.8-20.7-6.6-25.1-3.7c0 0-22.9-7.6-40 21.2 0 0-7.1 3.2-11 17.3s8 38.3 8 38.3 11.2 25.9 4.2 38.8-12.9 19.5-12.5 28.6c.5 9 4.6 14.9 13.9 21.7s10.5 19.8 10.5 19.8 11.2-3.2 12.7-8.8c1.5-5.6-1-18.3.5-24.2 1.5-5.9 4.6-12.2 6.8-19.8C84.7 137.1 120 28.1 120 28.1z" fill="#6b4e40" stroke-width="none" opacity="1" stroke="none"></path><path id="SvgjsPath20327" d="M120.4 22.5c-.5-1.6-1.4-3-2.5-4.2-2.2-2.5-4.8-4.5-7.7-5.9-1.5-.7-3-1.3-4.6-1.7-1.6-.4-3.2-.7-4.8-.8-3.2-.3-6.5.2-9.5 1.3 3.2-.5 6.3-.6 9.4-.1 3.1.4 6.1 1.3 8.8 2.7 1.4.7 2.7 1.4 4 2.4 1.3.9 2.4 1.9 3.6 3 1.1 1.1 2 2.3 2.7 3.7.7 1.4.9 3 .5 4.5.7-1.6.6-3.4.1-4.9zM89.9 11.6c-4.1-1.3-8.5-1.4-12.7-.6-4.2.8-8.2 2.4-11.9 4.6-1.8 1.1-3.6 2.3-5.3 3.7-1.7 1.3-3.2 2.8-4.7 4.4-2.7 3-5 6.5-6.8 10.2-2.4 1.5-4.4 3.5-6 5.8-1.8 2.6-3.2 5.6-4.1 8.7-1.7 6.2-1.7 12.8-.4 19.1 2.6 12.7 9.2 23.9 12.2 36.1 1.5 6.1 2.2 12.5 1.2 18.6-.5 3.1-1.6 6-3.1 8.8-1.5 2.8-3.3 5.3-5 8-1.7 2.7-3.3 5.5-4.3 8.6-1 3.1-1.4 6.5-.5 9.6.9 3.2 3 5.8 5.4 7.9 2.4 2.1 5.1 3.8 7.8 5.4-2.7-1.8-5.3-3.6-7.6-5.7-2.3-2.2-4.2-4.8-5-7.8-.8-3-.4-6.2.7-9.1 1-3 2.6-5.7 4.4-8.3s3.7-5.2 5.2-8.1c1.6-2.8 2.7-5.9 3.3-9.1 1.2-6.4.5-13-1-19.2-1.6-6.2-4-12.2-6.4-18.1-2.4-5.9-4.7-11.8-6.1-17.9-1.4-6.1-1.6-12.6 0-18.7.8-3.1 2-6 3.7-8.6 1.5-2.3 3.4-4.3 5.7-6-1.9 4-3.2 8.2-3.8 12.6-.5 4.2-.4 8.5.3 12.7.8 4.2 2.1 8.2 4 12-.8-1.9-1.5-3.9-2.1-5.9-.5-2-1-4.1-1.2-6.2-.5-4.1-.5-8.3.2-12.4s1.8-8.1 3.7-11.8c.9-1.9 1.9-3.7 3.1-5.4 1.2-1.7 2.5-3.3 3.8-4.9 5.5-6.1 12.8-10.8 20.9-12.6 4-.9 8.3-.9 12.3.2s7.7 3.3 10.4 6.5c-2.5-3.3-6.3-5.8-10.3-7.1zM69 26.8c-3.3 1.4-6.3 3.5-8.9 6-2.5 2.5-4.7 5.5-6.3 8.8-1.6 3.3-2.7 6.7-3.3 10.3-1.3 7.1-.8 14.4.3 21.5 1.2 7.1 3.1 14 4.8 20.9 1.7 6.9 3.3 13.8 3.8 20.9.4 7-.2 14.2-2.8 20.8-.6 1.6-1.4 3.2-2.2 4.8-.5.7-.9 1.5-1.4 2.2-.5.7-1 1.4-1.6 2.1-2.2 2.8-4.6 5.6-6 8.9-.7 1.7-1.2 3.5-1.2 5.3-.1 1.8.4 3.7 1.3 5.2.9 1.6 2.2 2.9 3.6 4s2.9 2 4.5 2.9c-1.5-1-3-2-4.3-3.1-1.3-1.1-2.6-2.4-3.4-4-.8-1.5-1.2-3.3-1.1-5 .1-1.7.6-3.4 1.3-5 1.5-3.2 3.9-5.9 6.1-8.6.6-.7 1.1-1.4 1.6-2.1s1-1.5 1.5-2.3c.9-1.6 1.8-3.2 2.4-4.9 1.4-3.4 2.2-6.9 2.7-10.5.5-3.6.5-7.2.3-10.8-.4-7.2-2-14.3-3.7-21.2-1.8-6.9-3.7-13.8-4.9-20.8-1.2-7-1.6-14.1-.5-21.1.5-3.5 1.5-6.9 3-10.1 1.5-3.2 3.5-6.1 6-8.7 2.4-2.6 5.4-4.7 8.5-6.2 3.2-1.5 6.8-2.2 10.3-2.1-3.4-.1-7.1.5-10.4 1.9z" fill="#4c2d1e" stroke-width="none" opacity="1" stroke="none"></path><path id="SvgjsPath20328" d="m76.2 26.7 4.5-3.6s4-4 13.6-4.9c5.9-.5 15 .1 21.4 4.1 2.6 1.6 4.5 4.8 4.5 4.8s-8.5-4.9-21-4.6c-12.4.4-17.8 1.6-23 4.2z" fill="#000000" stroke-width="none" opacity="1"></path></g></g><g id="svga-group-humanbody-back"><path id="SvgjsPath19104" d="M77.8 105.9s4.8 37.7 10 55.8c0 0-6.4 8.8-14.5 11.9-28.7 11.2-35 11.2-39.6 15.2-2.4 2.1.2 11.1 1.8 17.2 1.3 5 1.7 13.2 1.7 13.2h132.2s1.6-33-.6-39.8-7.1-2.9-21.9-4.5c-14.8-1.6-28.7-10.3-31-13.2l.3-60-38.4 4.2z" fill="#ffd0bc" stroke-width="none" opacity="1" stroke="none"></path></g><g id="svga-group-chinshadow-single"><path id="SvgjsPath19923" d="M86.3 155.9c6.3 1 20.4.7 22.8-.7 1.3-.8 3.8-3.1 6.8-6.3l.3-47.2-38.4 4.2s3.9 30.7 8.5 50z" fill="#e09879" stroke-width="none" opacity="1" stroke="none"></path></g><g id="svga-group-humanbody-front"><path id="SvgjsPath19105" d="M72.1 183.1s14.6-.2 20.4 2.6c5.8 2.9 12.7 2.4 16.1-1s21.6-7 21.6-7-19.7 1.9-25 4.6c-5.3 2.7-22.3-2.8-33.1.8z" fill="#e09879" stroke-width="none" opacity="1" stroke="none"></path><path id="SvgjsPath19106" d="M74.2 173.2c6.7-1.3 14.7-6.4 14.7-6.4l6.2 5.5c-4.3-7.9-12.7-41.1-12.7-41.1l-.7.7c1.7 10.5 3.9 21.9 6.1 29.7 0 0-6 8.2-13.6 11.6z" fill="#e09879" stroke-width="none" opacity="1" stroke="none"></path><path id="SvgjsPath19107" d="M170.7 188.5c-.1-2.1-.2-4.1-.4-6.2-.1-1-.3-2.1-.6-3.2-.2-.5-.4-1-.6-1.6-.2-.5-.6-1-1-1.5s-.9-.9-1.5-1.1c-.6-.3-1.1-.4-1.7-.6-1.1-.2-2.2-.2-3.2-.2-2.1 0-4.1.1-6.1.1s-4-.1-6-.2-4-.4-6-.7c-1-.2-2-.4-2.9-.6l-1.5-.4c-.5-.1-1-.3-1.4-.4-3.8-1.1-7.6-2.6-11.2-4.4l-1.3-.7-1.3-.7c-.4-.2-.9-.5-1.3-.8s-.9-.5-1.3-.8-.8-.5-1.3-.8l-1.2-.9-.6-.5-.3-.2-.3-.2c-.2-.2-.4-.3-.5-.5l-.2-.3v-44.6l-.1-15v-.6l-.6.1c-6.4.8-12.9 1.5-19.3 2.3l-19.1 2.3v.5l.1.4.1.9.2 1.8c.1 1.2.3 2.3.4 3.5l.9 7c.6 4.7 1.3 9.4 2.1 14 .8 4.7 1.5 9.3 2.5 14 .9 4.5 1.8 9 3 13.5-1.1 1.4-2.3 2.7-3.6 4-1.3 1.3-2.8 2.6-4.3 3.8-1.5 1.1-3.1 2.2-4.8 3l-1.3.6c-.4.2-.9.3-1.3.5l-2.7 1c-7.2 2.7-14.5 5.3-21.8 7.7l-5.5 1.8c-1.8.6-3.7 1.3-5.5 2.2-.4.2-.9.5-1.3.7-.4.3-.9.5-1.3.9l-.6.5c-.2.2-.5.5-.6.8-.3.5-.4 1.1-.5 1.6-.2 1.1-.1 2.1 0 3.1s.3 2 .4 2.9c.4 1.9.8 3.8 1.3 5.7l.8 2.8c.3.9.5 1.8.7 2.8.4 1.9.7 3.8.9 5.7s.4 3.8.5 5.7v.8h133.4v-.8c.2-4.1.4-8.2.5-12.3s.2-8.2.2-12.3c0-1.8-.1-3.8-.1-5.9zm-67.4 30.3H70.2l-16.5-.1-16-.1c-.1-1.8-.2-3.5-.4-5.3-.2-1.9-.4-3.9-.8-5.8-.2-1-.4-1.9-.7-2.9l-.7-2.8c-.5-1.9-.9-3.7-1.2-5.6-.2-.9-.3-1.9-.4-2.8-.1-.9-.1-1.9 0-2.7.1-.4.2-.8.4-1.1.1-.2.2-.3.3-.4l.5-.4c.3-.3.7-.5 1.1-.8.4-.2.8-.5 1.2-.7 1.7-.8 3.5-1.4 5.3-2l5.5-1.8c7.3-2.4 14.6-5 21.8-7.8l2.7-1c.5-.2.9-.3 1.4-.5l1.4-.6c1.8-.9 3.4-2 5-3.2s3-2.5 4.4-3.9 2.7-2.9 3.8-4.5l.2-.3-.1-.3c-1.3-4.5-2.3-9.1-3.3-13.7s-1.9-9.3-2.7-13.9c-.8-4.6-1.6-9.3-2.4-14l-2.2-13.9 19.3-1.8c6.2-.6 12.3-1.2 18.5-1.8l-.2 14.4-.2 15-.3 30v.4l.2.2.6.7.6.6.3.3.3.2.6.5c.4.3.9.6 1.3.9.4.3.9.6 1.3.9.4.3.9.5 1.3.8s.9.5 1.3.8l1.4.8 1.4.7c.5.2.9.5 1.4.7l1.4.7c1 .4 1.9.8 2.9 1.2s1.9.8 2.9 1.1l1.5.5c.5.2 1 .3 1.5.4.5.1 1 .3 1.5.4l1.5.4c1 .3 2 .4 3 .6 2 .4 4.1.6 6.2.8 2.1.2 4.1.2 6.2.2 2.1 0 4.1-.1 6.1-.1s4 .1 5 1.3c.5.6.9 1.4 1.2 2.3.3.9.4 1.9.6 2.8.3 2 .4 4 .5 6s.1 4.1.2 6.1c.1 7.9-.1 15.8-.4 23.7-10.8.1-21.5.1-32.3.2h-33.1z" fill="#d17f5b" stroke-width="none" opacity="1" stroke="none"></path><path id="SvgjsPath19108" d="M150.7 219.2 147 198l-.4 21.2z" fill="#e09879" stroke-width="none" opacity="1" stroke="none"></path><path id="SvgjsPath19109" d="M47.3 203.5s2.2 11.5 2.9 15.7h3.5l-6.4-15.7z" fill="#e09879" stroke-width="none" opacity="1" stroke="none"></path></g><g id="svga-group-clothes-single"><path id="SvgjsPath19556" d="M83.3 143.2c-.5.1-14.9 3.7-17.3 4.9-2.5 1.2-1.2 6.9-2.2 7.8-.9.9-12 12.7-11.3 14s6.1 4 5.8 5.5c-.3 1.5-.9 2-.9 2s-22.5 5.4-24.7 7.5c-2.1 2.1-3.5 6.9-2.1 9.8 0 0-.8 4.8.1 10s1.8 9.4 1.8 9.4l.2 5.8h140.9s-.6-15-.4-17.9 1.8-13.7.7-16.2-1.6-5.1-1.6-5.1-1.6-7.5-5.5-8.9c-4-1.3-20.1.7-23 0s-.2-.9-.2-.9 2.2-1.6 2-3.1-4.9-4.4-6-7.3 0-6.4-2.4-7.5-5.1-3.1-8-6c-2.9-2.9-12.2-4-12.2-4s0 12.2-.2 14.2.2 8-.2 11.1c-.4 3.1-14.6 15.7-15.7 16.8S88 173.6 86 170.9c-2-2.7 1.3-6 1.3-9.1S84 148.8 84 147s-.7-3.8-.7-3.8z" fill="#9d69bc" stroke-width="none" opacity="1" stroke="none"></path><path id="SvgjsPath19557" d="M57.6 175.2zm116.6 25.7c.4-3.1.8-6.3.9-9.5.1-1.6.2-3.2-.1-5 0-.4-.3-1.1-.4-1.3-.1-.3-.3-.7-.4-1.1-.2-.7-.5-1.4-.6-2.2-.1-.4-.2-.7-.2-1.1l-.3-1.2c-.2-.8-.5-1.6-.8-2.4-.6-1.5-1.3-3.1-2.5-4.4-.6-.7-1.3-1.3-2.2-1.7-.4-.2-.9-.3-1.3-.4-.4-.1-.8-.1-1.3-.2-1.6-.1-3.3-.1-4.9-.1-3.2.1-6.4.2-9.5.4-1.6.1-3.2.1-4.7.1h-.6a5 5 0 0 0 1.1-1.6c.2-.6.4-1.4.1-2.2-.3-.7-.7-1-1-1.4-1.4-1.4-2.8-2.6-3.9-3.9-.3-.3-.5-.7-.7-1-.2-.3-.3-.7-.4-1.1-.2-.8-.3-1.6-.4-2.6-.1-.9-.1-1.9-.5-3-.2-.5-.6-1.1-1.1-1.6-.2-.2-.5-.4-.8-.5l-.6-.3c-1.6-.8-3-1.9-4.4-3-.7-.6-1.4-1.2-2-1.8-.6-.6-1.5-1.4-2.4-1.9-1.8-1-3.6-1.5-5.5-2-1.8-.5-3.7-.8-5.6-1.1l-1.1-.1v1.1c0 4.1 0 8.1-.1 12.2 0 .5 0 1-.1 1.5l-.1.8V161.2c0 2 .1 4.1-.1 6 0 .2-.1.5-.1.7l-.1.2-.1.3c-.2.4-.4.8-.7 1.2-.6.8-1.2 1.6-1.9 2.3-1.3 1.5-2.7 3-4.2 4.4s-2.9 2.9-4.4 4.2l-2.2 2.1-1.1 1.1-.6.5c-.3-.1-.7-.4-1.1-.7l-1.2-.9c-.8-.6-1.5-1.3-2.2-2-1.5-1.4-2.9-2.8-4.3-4.3s-2.8-2.9-4.1-4.5c-.7-.8-1.4-1.5-1.6-2.3-.2-.8-.1-1.8.3-2.7.3-.9.7-1.9 1.1-2.9.3-1 .5-2.1.3-3.2-.3-2.1-.9-4-1.4-6-.5-1.7-.9-3.3-1.4-5-.1-.3-.2-.6-.2-.9l-.3-1.5c-.1-.5-.1-1-.2-1.5l-.3-1.5-.2-.7-.1-.4-.1-.2v-.2s0-.1-.1-.1c-.4.1-.6.1-.9.2l-.8.2-1.7.4-3.3.8c-2.2.6-4.4 1.1-6.7 1.7-1.1.3-2.2.6-3.3 1-.3.1-.6.2-.8.3-.3.2-.6.4-.8.6-.4.5-.7 1.1-.8 1.7-.3 1.2-.3 2.4-.4 3.5 0 .6-.1 1.1-.2 1.6 0 .1-.1.2-.1.3v.1s-.1.1-.2.1l-.6.6c-3.2 3.3-6.3 6.7-9.2 10.3-.4.5-.7.9-1 1.4-.2.2-.3.5-.5.8-.1.1-.2.3-.2.5v.5c0 .1.1.3.1.3l.1.1c.5.7 1 .9 1.4 1.3l1.4 1c.9.7 1.9 1.4 2.5 2.1.2.2.2.4.3.4v.1c0 .1-.1.2-.1.4-.1.2-.2.5-.3.7 0 .1-.1.2-.2.3v.1c-5.8 1.4-11.7 2.9-17.5 4.6-1.5.4-2.9.9-4.4 1.4l-1.1.4-1.1.5c-.4.2-.9.5-1.1.9-.3.3-.5.6-.8 1-.9 1.4-1.5 2.9-1.8 4.5-.2 1.5-.3 3.2.4 4.7-.2 1.6-.3 3.2-.3 4.8 0 1.7.2 3.3.4 5l1.9 9.5.2 5.7v.8h.8l35.2-.3c11.7-.1 23.5-.2 35.2-.2 11.7 0 23.5 0 35.2.1l35.2.3h.7v-.7l-.2-9.5-.1-4.7v-2.4c.4-.1.4-.8.5-1.6zm-68.7-19.1c1.5-1.4 3-2.8 4.4-4.2 1.5-1.4 2.9-2.9 4.3-4.4.7-.8 1.4-1.6 2-2.4.3-.4.6-.9.9-1.4l.2-.4c0-.1.1-.2.1-.3.3-.3.6-.5.9-.8.8-.7 1.7-1.3 2.6-2 1.7-1.4 3.4-3.2 4.3-5.5.4-1.1.6-2.5.3-3.7-.3-1.2-.8-2.3-1.6-3.2-1.4-1.8-3.3-3.2-5.3-4.1 1.6 1.6 3 3.2 4 5 .5.9.9 1.8 1 2.7.1.9 0 1.8-.3 2.7-.7 1.8-2 3.4-3.5 5-.7.8-1.5 1.6-2.2 2.5l-.1.1c.2-2 .1-3.9.1-5.9v-3.7l.1-.8c0-.5.1-1.1.1-1.6.1-3.7.2-7.4.2-11.1 1.4.2 2.8.5 4.2.8 1.8.4 3.5 1 5 1.8.8.4 1.2.9 1.9 1.6.7.7 1.4 1.3 2.1 1.9.2.2.5.4.7.6.4 1.1.8 2.2 1.1 3.3.4 1.6.7 3.2.6 4.7 0 .4-.1.7-.2 1.1-.1.3-.3.5-.6.9-.5.6-1.1 1.2-1.6 1.9-1.1 1.2-2.1 2.5-3.1 3.9 1.3-1.1 2.5-2.2 3.6-3.3.6-.6 1.2-1.2 1.7-1.8.3-.2.6-.7.8-1.1.2-.4.2-.9.3-1.3.1-1.8-.3-3.4-.9-5-.3-.9-.7-1.8-1.2-2.6 1.1.8 2.2 1.6 3.5 2.2.2.1.4.2.7.3.1.1.3.1.4.2.2.2.4.4.5.7.2.6.3 1.5.4 2.5.1.9.2 1.9.5 2.9.1.5.4 1 .6 1.5 0 .1.1.1.1.1v.3c0 1.2-.2 2.4-.7 3.4-.5 1-1.3 1.9-2.2 2.5-1.9 1.4-4.1 2.6-6.3 3.8l-6.5 3.6c-4.3 2.4-8.7 4.8-12.9 7.5-1.1.7-2.1 1.4-3.1 2.1l-1.5 1.2-.4.4c-.1.1-.2.3-.3.4l-.5.8c-1.2 1.9-2.3 3.9-3.4 5.8-1.4-1.1-2.8-2.2-4.3-3.1.4-.4.8-.8 1.1-1.2.7-.7 1.3-1.4 1.9-2.1.5-.6 1.1-1.3 1.6-2l.4-.3 1.1-1 2.4-2.4zm-2.4 14.5c0 .1 0 .1 0 0zm-2.7-11.7zm-36.2-28.4c.1-.1.1-.2.2-.3.1-.2.1-.4.2-.5.1-.6.1-1.2.2-1.8 0-1.1.1-2.3.3-3.3.1-.5.3-1 .6-1.4.1-.2.3-.3.5-.5.2-.1.5-.2.8-.3 1.1-.4 2.1-.8 3.2-1.1 2.2-.7 4.4-1.3 6.6-1.9l3.3-.9 1.7-.5.8-.2c.2-.1.6-.1.7-.2v.1l.1.2.1.4.2.7c.1.5.2 1 .2 1.5.1.5 0 1 .1 1.5l.3 1.5c.1.3.2.6.2.9-1.8.7-3.6 1.4-5.2 2.3-.9.5-1.8 1.1-2.5 1.9-.7.8-1.4 1.7-1.7 2.7-.3 1-.3 2.2-.1 3.2.1 1 .3 2.1.6 3.1.5 2 1.1 4 1.8 5.9l1.1 2.9c.2.5.3.9.5 1.4.2.6.6 1.1 1 1.4 1.6 1.4 3.4 2.4 5.2 3.4 1.8 1 3.7 1.9 5.5 2.7 1.8.9 3.8 1.6 5.5 2.6-3.4-2.2-7.2-3.9-10.7-6-1.7-1.1-3.5-2.1-5-3.4-.3-.3-.6-.7-.7-1.1-.2-.5-.3-1-.5-1.5l-1.1-2.9c-.7-1.9-1.4-3.8-1.8-5.8l-.6-3c-.2-1-.2-1.9 0-2.9.4-1.9 2-3.3 3.7-4.4 1.6-1 3.3-1.8 5-2.7.4 1.6.8 3.3 1.2 4.9.5 2 1 4 1.2 5.9.3 1.9-.8 3.7-1.5 5.7-.2.6-.4 1.2-.4 1.9l-.6-1.2c-.6-1.1-1.1-2.3-1.5-3.4-.4-1.1-.6-2.2-.6-3.4 0-1.2.1-2.5.2-3.8-.9 1-1.5 2.3-1.8 3.7-.3 1.4-.2 2.9.3 4.3.5 1.3 1.3 2.5 2.1 3.5.6.8 1.3 1.5 2.1 2.1.2.5.4.9.7 1.2.3.4.7.8 1 1.2 1.3 1.6 2.7 3.1 4.1 4.6 1.4 1.5 2.8 3 4.3 4.4.7.7 1.5 1.4 2.3 2.1.4.3.8.7 1.2 1 .4.3.8.6 1.5.9-.2.3-.5.6-.8.9-.6.7-1.2 1.5-1.7 2.3-.3.5-.6.9-.9 1.4l-1.5-.9c-1.1-.6-2.2-1.2-3.5-1.6-1.2-.4-2.3-.7-3.5-1.1-2.3-.7-4.7-1.4-7-2.2-2.3-.8-4.6-1.6-6.6-2.8-.5-.3-1-.6-1.3-.9-.2-.1-.3-.3-.4-.4v-.2l-.1-.5c-.4-1.3-.8-2.4-1.3-3.6-1-2.3-2-4.5-3.1-6.7-.6-1.1-1.1-2.2-1.8-3.3-.3-.6-.6-1-.8-1.6-.2-.5-.4-1.1-.5-1.7-.5-2.2-.7-4.5-1.3-6.7-.1.4 0 .4 0 .3zm-8.6 15.3-1.4-1c-.4-.3-.9-.7-1.1-.9 0-.1 0-.1.1-.2.1-.2.2-.4.4-.7.3-.5.6-.9 1-1.4 2.7-3.6 5.8-7 8.9-10.4l.3-.4c.2 2.2.2 4.4.6 6.6.1.6.2 1.2.4 1.9.2.6.5 1.3.7 1.8l1.5 3.3c1 2.2 1.9 4.5 2.8 6.8.4 1.1.8 2.3 1.1 3.4l.1.4.1.3c0 .1.1.3.2.4.2.4.5.8.8 1 .6.5 1.1.9 1.7 1.2 2.3 1.3 4.6 2.1 7 2.9 2.4.8 4.7 1.4 7.1 2.1l3.6.9c1.1.3 2.2.8 3.2 1.3 2 1 3.9 2.2 5.8 3.5-.2-.1-.5-.1-.7-.2-2.4-.6-4.8-1.1-7.2-1.5-4.8-.8-9.7-1.5-14.6-2.1-2.4-.3-4.9-.5-7.3-.8-.3 0-.6-.1-.8-.1H69.6c-.1 0-.1-.1-.2-.1-.3-.3-.7-.8-1-1.2-.6-1-1.2-2.1-1.7-3.1-.5-1.1-1.1-2.2-1.7-3.3-.7-1.2-1.5-2.1-2.3-3-1.1-1.3-2.3-2.5-3.6-3.7v-.3c-.2-.5-.4-.8-.6-1-1-1.1-1.9-1.7-2.9-2.4zm47.6 48c-11.7-.1-23.5-.1-35.2-.2l-34.5-.3-.1-5v-.2l-1.8-9.6c-.2-1.6-.4-3.1-.4-4.7s.1-3.2.3-4.7v-.3l-.1-.2c-.5-1.1-.6-2.6-.3-3.9.2-1.4.7-2.7 1.5-3.9.2-.3.4-.6.6-.8l.3-.3c.1-.1.2-.1.3-.2l1-.5 1-.4c1.4-.5 2.8-1 4.3-1.4 5.8-1.8 11.7-3.3 17.5-4.8h.2l.1-.1c.3-.2.3-.3.5-.5.1-.1.2-.3.3-.5.2-.3.3-.6.3-.9v-.2c1 1.2 1.9 2.4 2.8 3.6.3.5.7 1 1 1.5l.5.8c.1.2.3.5.4.8l1.5 3.3c.5 1.1 1 2.3 1.7 3.4.3.6.7 1.1 1.3 1.7.2.1.3.3.5.4.1.1.2.1.4.1l.3.1c.4.1.7.1 1 .2 2.5.4 4.9.5 7.4.7 4.9.3 9.8.4 14.6 1 2.4.3 4.8.8 7.2 1.4 1.2.4 2.3.8 3.3 1.4.1.1.2.1.4.2h.1l.2.1c.6.3.6-.9.5-.7 0-.1-.1-.1-.1-.1l-.1-.1-.2-.2-.7-.6c-.4-.4-.9-.8-1.3-1.1 1.4-1.8 2.8-3.5 4.1-5.3l.6-.8.2-.3.3-.3c.5-.4 1-.7 1.5-1 1-.6 2.1-1.3 3.2-1.9l13.1-7.1c2.2-1.2 4.3-2.4 6.5-3.7 2.1-1.3 4.3-2.6 6.3-4.2 1-.8 1.9-1.9 2.4-3.2.4-.9.5-1.9.5-2.8 1.2 1.4 2.6 2.6 3.7 3.8.3.3.6.6.6.8 0 0 0 .3-.1.5-.2.4-.6.9-1.1 1.3-.2.1-.4.1-.6.2-.1 0-.2.1-.4.1-.1 0-.1 0-.2.1-.1 0-.2.1-.3.1-1.2.4-2.1 1-3 1.6-3.7 2.4-7 5.2-10.5 7.6-.9.6-1.7 1.2-2.6 1.7-.4.2-.9.5-1.3.6-.5.2-1.1.3-1.6.5-2.1.8-4.1 1.6-6 2.6-2 1-3.9 2-5.7 3.2-.9.6-1.8 1.2-2.7 1.9-.8.7-1.7 1.5-2.1 2.5.6-.9 1.6-1.5 2.5-2 .9-.6 1.9-1.1 2.8-1.5 1.9-1 3.9-1.8 5.9-2.7 2-.8 4-1.6 6-2.3l1.5-.5c.6-.2 1.2-.5 1.7-.7 1-.6 1.9-1.2 2.8-1.8 3.6-2.6 6.8-5.4 10.2-7.9.6-.4 1.2-.9 1.9-1.2.1.1.1.2.2.3.1.1.2.1.2.1l.1.1c.2.1.3.1.4.2.2.1.5.1.7.2.4.1.9.2 1.4.2h1.2c1.6 0 3.2-.1 4.8-.2 3.2-.2 6.3-.4 9.5-.5 1.6 0 3.1 0 4.6.1 1.6.1 2.6.5 3.6 1.6.9 1 1.6 2.4 2.2 3.8.3.7.5 1.4.7 2.2.1.4.2.7.3 1.1l.3 1.2c.2.8.4 1.6.7 2.4.1.4.3.8.5 1.2.1.2.2.4.2.5 0 .1.1.2.1.4.2 1.4.2 3 .1 4.5-.1 3.1-.5 6.3-.8 9.4-.1.8-.1 1.6-.1 2.4v2.4l.1 4.8.4 8.8-19.9.1c.2-1.6.5-3.1.8-4.7.3-1.7.6-3.4.8-5.1.3-1.7.5-3.4.7-5.1.1-.9.2-1.7.3-2.6l.1-1.3c0-.4.1-.9.1-1.2.2-1.4 1.1-2.9 2-4.2.9-1.4 2-2.7 3.1-4 2.2-2.6 4.6-5.1 7-7.6-2.9 1.9-5.6 4.1-8.1 6.6-1.2 1.2-2.4 2.6-3.5 4-1 1.5-2.1 3-2.4 5.1l-.8 10.4c-.1 1.7-.2 3.5-.3 5.2 0 1.6-.1 3.2.1 4.8l-14.5.1c-12 .1-23.8.1-35.5.1zM47 202.6c-.3-.6-.7-1.4-1.2-2-.2-.3-.5-.6-.8-.9l-.8-.8c-1.1-.9-2.3-1.8-3.6-2.4-1.2-.7-2.6-1.2-3.9-1.7-1.3-.5-2.7-.9-4.1-1 2.5 1.2 4.9 2.6 7.2 4.1 1.1.8 2.2 1.6 3.1 2.5.2.2.5.4.7.7.2.2.4.5.6.7.2.2.3.5.5.8.2.2.3.6.4.9 1.1 2.5 1.9 5.1 2.9 7.7 1 2.6 1.9 5.2 3 7.8-.3-2.8-.9-5.5-1.5-8.2-.6-2.9-1.4-5.6-2.5-8.2z" fill="#78389d" stroke-width="none" opacity="1" stroke="none"></path><path id="SvgjsPath19558" d="M110.3 203.4c0-.6-.1-1.3-.3-1.9-.3-1.2-.8-2.4-1.4-3.4-.6-1.1-1.3-2.1-2-3-.8-.9-1.6-1.8-2.5-2.6-.5-.4-.9-.8-1.5-1.1l-.6-.3c.1-.4-.1-.9-.5-1.1-.5-.3-1.1-.1-1.3.4 0 .1-.1.1-.1.2H99c-.7.1-1.3.2-2 .4-1.3.3-2.6.8-3.7 1.5-1.2.7-2.3 1.5-3.2 2.7-.9 1.1-1.4 2.7-1.4 4.1 0 2.3-.9 4.8-2.1 7.1l-.9 1.7c-.3.6-.6 1.2-.7 1.9-.1.4-.1.8.1 1.2.2.4.5.7.8.9.7.3 1.2.5 1.8.8.6.3 1.2.5 1.9.7.7.2 1.4.4 2.2.3.4-.1.9-.2 1.3-.6.4-.3.6-.8.8-1.2.3-.8.3-1.6.3-2.3-.1-2.7-.6-5.2-.8-7.7-.2-1.2-.2-2.4 0-3.5.1-.5.3-1 .6-1.5s.7-.9 1.1-1.4c.8-.9 1.8-1.7 2.8-2.5.5-.4.9-.7 1.4-1.1-.8 1.6-1.5 3.1-2.1 4.8-.4 1.1-.8 2.3-1.1 3.5-.1.6-.2 1.2-.3 1.9-.1.6 0 1.3 0 1.9.1 2.3 0 4.6-.5 6.9-.4 2.3-1.2 4.5-2.3 6.6 1.5-1.9 2.5-4.1 3.2-6.4.7-2.3 1.1-4.7 1.1-7.2 0-.6 0-1.1.1-1.7.1-.5.2-1.1.3-1.6.3-1.1.7-2.2 1.1-3.2.1-.2.2-.4.2-.6v.7c0 2.4.4 4.8.8 7 .4 2.3.9 4.5 1 6.8 0 1.1-.3 2.2-.4 3.3l-.7 3.4 1.2-3.3c.3-1.1.8-2.2.9-3.4.2-2.4-.2-4.7-.4-7s-.6-4.6-.4-6.8c.1-1.8.3-3.6.7-5.4l.9 1.5c.3.5.5 1 .6 1.5.1.5.1 1.1.1 1.6.1 2.3 0 4.6 0 7 0 2.3 0 4.6-.1 7 0 .6 0 1.2.1 1.9.1.6.1 1.3.5 2.1.2.4.8.8 1.2.9.5.1.8 0 1.1-.1.6-.1 1.1-.2 1.6-.2.3 0 .8 0 1.2-.2s.6-.6.7-.9c.2-.7.2-1.3.2-1.9v-3.6c0-1.2.1-2.3.3-3.5.1-.6.2-1.3.2-2zm-11.2-11.9-1.8.9c-1.2.6-2.3 1.3-3.3 2.2-.5.4-1 .9-1.5 1.5s-.8 1.3-1 2c-.4 1.4-.4 2.8-.3 4.2.2 2.7.8 5.2 1.1 7.7.1.6.1 1.1-.1 1.6-.1.4-.3.6-.7.7-.4.1-1 .1-1.6 0-.6-.1-1.2-.3-1.8-.4-.6-.2-1.3-.4-1.8-.6-.5-.2-.7-.6-.7-1.2.2-1.2.9-2.3 1.5-3.4 1.3-2.2 2.9-4.5 3.2-7.3.1-.6.2-1.1.3-1.6.2-.5.5-1 .8-1.5.7-.9 1.6-1.7 2.6-2.4s2.1-1.3 3.3-1.8c.6-.2 1.2-.5 1.8-.7.2-.1.5-.1.7-.2 0 .1-.1.1-.1.1l-.6.2zm10.1 20.8c-.1.6-.2 1.1-.4 1.6-.1.2-.2.4-.4.4-.1.1-.2 0-.5 0-.7-.1-1.3-.1-1.9 0h-.7c-.1-.1-.1 0-.1-.2-.1-.3-.2-.8-.2-1.4 0-.5 0-1.1.1-1.7.2-2.3.4-4.7.3-7.1-.1-2.4-.2-4.7-.6-7.1-.1-.6-.2-1.2-.4-1.8-.1-.3-.2-.5-.3-.7.4.6.8 1.1 1.2 1.8 1.2 1.9 2.3 3.9 3.1 6 .4 1.1.7 2 .6 3.2 0 1.2.1 2.4.2 3.6 0 1.1.1 2.3 0 3.4z" fill="#67258e" stroke-width="none" opacity="1" stroke="none"></path><path id="SvgjsPath19559" d="M131.3 152.1c-1.2-3.3-3-2.5-4.6-4.1s-2.9-1.1-5.3-1.9c0 0 2.9 2.1 3.8 2.5s2.8 6.9 2.5 9.5c-.3 2.6-5.6 8.1-7.3 10.6-1.7 2.5-9.1 9.4-12.4 11.8-3.3 2.4-7 8.3-7 8.3s10.8-9.9 13.9-11.2c3-1.3 12.2-10.2 12.6-12.3.4-2.1 4-4.5 5.3-6.3s-.3-3.6-1.5-6.9zm34.9 29.5c1.1 1.7 3-.5 2.2-.9s-1.1-5.8-2.6-6.7-17.8.7-21.8.7-5.6 3.3-11.2 6.2c0 0 5.8-1.3 10-3s10.8-.9 15.3-.7c4.5.2 7 2.7 8.1 4.4zm4.5 19c.4-5.8.8-14.1.8-14.1s-1.4-.4-3.4.4-3.8 2.9-7.7 7.8c0 0 5-2.2 6.9-1.6 1.9.7 1.1 11 1.2 15.7.1 4.8 1.9 8.3 2.6 9.1.8.8-.8-11.5-.4-17.3zm-94.9-23.9c-1.1-1.3-7.1-16.1-7.5-19s.4-8.2.1-8.3c-3.8-1.9-4.6 7.8-.9 13.9 3.7 6.1 5.3 15.1 6.7 16.4 1.4 1.3 21.8 8.6 19.8 7.4-2-1.3-17.2-9.1-18.2-10.4zm-4.6 8.9c-.9-1.4-6.6-11.1-9-12.7-2.4-1.6-5.7-3.4-5.7-3.4 2.4 1.1 9.1 9.9 11.1 13.2s1.2 5.1 2.9 5.4c1.7.3 11.8 2.1 11.8 2.1s-10.2-3.2-11.1-4.6z" fill="#b186cb" stroke-width="none" opacity="1" stroke="none"></path></g><g id="svga-group-head" transform="matrix(1,0,0,1,0,0)"><g id="svga-group-ears-left-move" transform="matrix(1,0,0,1,0,0)"><g id="svga-group-ears-left" transform="matrix(1,0,0,1,0,0)"><path id="SvgjsPath19954" d="M61.04 91.08s-5.83-5.5-11.22-8.06c0 0-2.8.42-6.02 3.31 0 0 2.24 4.78 4.24 7.15s4.83 10.33 5.06 12.61c.23 2.28-.7 6.43-.57 7.76.13 1.34 3.12 1.44 3.12 1.44s5.5-3.12 8.94-7.93c-.01-.01-1.05-8.96-3.55-16.28z" fill="#ffd0bc" stroke-width="none" opacity="1" stroke="none"></path><path id="SvgjsPath19955" d="M61.34 97.94c.04-.27-8.21-9.91-14.16-11.02 0 0 1.66 5.41 2.79 7.19 1.12 1.78 4.76 10.6 4.44 15.1 0 0 3.82-2.19 5.96-3.95-.01 0 .52-4.18.97-7.32z" fill="#f0b399" stroke-width="none" opacity="1" stroke="none"></path><path id="SvgjsPath19956" d="m43.59 86.1-.17.15.1.2c.63 1.26 1.3 2.48 2.02 3.69.72 1.2 1.5 2.38 2.41 3.45.85 1.07 1.48 2.33 2.06 3.59.56 1.27 1.07 2.57 1.53 3.88.44 1.32.85 2.65 1.15 4 .34 1.33.15 2.7 0 4.08-.16 1.38-.42 2.74-.52 4.18-.01.18-.01.37.01.57.04.24.13.47.27.65.29.35.66.54 1.01.68.72.27 1.42.38 2.16.43l.1.01.09-.05c1.76-1.03 3.4-2.22 4.93-3.56.77-.66 1.49-1.37 2.19-2.12.7-.74 1.33-1.54 1.94-2.36l.09-.12-.02-.14a95.27 95.27 0 0 0-1.51-8.23 92.39 92.39 0 0 0-1.04-4.05c-.39-1.33-.84-2.66-1.32-3.97-.83-.84-1.68-1.6-2.55-2.37-.87-.77-1.77-1.49-2.69-2.2-1.84-1.42-3.78-2.71-5.88-3.75l-.09-.04-.09.02c-.63.11-1.17.3-1.73.52-.55.22-1.09.48-1.6.78-.51.3-1.01.62-1.48.98-.48.33-.93.71-1.37 1.1zm.59.31c.38-.32.76-.63 1.16-.92.46-.34.94-.64 1.43-.92.5-.27 1-.53 1.52-.74.49-.2 1.01-.38 1.5-.48.99.48 1.96 1.02 2.91 1.6.97.62 1.94 1.24 2.87 1.9.94.67 1.85 1.37 2.77 2.07.91.7 1.81 1.45 2.68 2.18.39 1.33.75 2.66 1.06 4.02.32 1.35.62 2.7.87 4.07.51 2.67.94 5.37 1.25 8.06-.56.75-1.15 1.48-1.81 2.16-.68.72-1.39 1.41-2.14 2.05-1.47 1.26-3.04 2.45-4.69 3.45-.62-.04-1.27-.13-1.83-.34-.29-.11-.57-.26-.72-.45a.69.69 0 0 1-.14-.3c-.01-.14-.02-.31-.01-.47.06-1.35.28-2.75.41-4.14.11-1.38.24-2.85-.16-4.24-.35-1.36-.81-2.69-1.3-4-.48-1.31-1-2.61-1.59-3.88-.58-1.27-1.17-2.55-2.04-3.68-.86-1.08-1.57-2.28-2.24-3.49-.63-1.15-1.21-2.33-1.76-3.51z" fill="#f0b399" stroke-width="none" opacity="1" stroke="none"></path><path id="SvgjsPath19957" d="M52.51 91.07c.88.94 1.65 1.98 2.36 3.05.71 1.07 1.38 2.16 1.98 3.3.61 1.13 1.17 2.28 1.65 3.46l-.07.03c-.65-1.1-1.32-2.18-1.99-3.26-.69-1.07-1.36-2.14-2.1-3.17-.74-1.03-1.48-2.05-2.28-3.02-.67-.82-1.38-1.61-2.19-2.29l1.66 3.8a76.96 76.96 0 0 1 1.81 4.41c.56 1.49 1.02 3.02 1.38 4.59.25 1.1.46 2.22.51 3.37a7.534 7.534 0 0 0 .84-3c-.44-1.61-.88-3.21-1.27-4.84l.07-.02c.62 1.57 1.18 3.17 1.75 4.76l.01.04v.05c-.01.82-.15 1.65-.41 2.43-.12.39-.28.78-.46 1.15-.18.38-.38.72-.64 1.09l-.77 1.07.09-1.34c.1-1.51-.17-3.07-.47-4.6-.31-1.53-.74-3.05-1.21-4.56-.46-1.51-.95-3.01-1.51-4.5-.58-1.47-1.18-2.94-1.91-4.34l-.25-.48.47.3c1.12.69 2.07 1.58 2.95 2.52z" fill="#d17f5b" stroke-width="none" opacity="1" stroke="none"></path></g></g><g id="svga-group-ears-right-move" transform="matrix(1,0,0,1,0,0)"><g id="svga-group-ears-right" transform="matrix(1,0,0,1,0,0)"><path id="SvgjsPath19958" d="M138.96 91.08s5.83-5.5 11.22-8.06c0 0 2.8.42 6.02 3.31 0 0-2.24 4.78-4.24 7.15s-4.83 10.33-5.06 12.61c-.23 2.28.7 6.43.57 7.76-.13 1.34-3.12 1.44-3.12 1.44s-5.5-3.12-8.94-7.93c.01-.01 1.05-8.96 3.55-16.28z" fill="#ffd0bc" stroke-width="none" opacity="1" stroke="none"></path><path id="SvgjsPath19959" d="M138.66 97.94c-.04-.27 8.21-9.91 14.16-11.02 0 0-1.66 5.41-2.79 7.19-1.12 1.78-4.76 10.6-4.44 15.1 0 0-3.82-2.19-5.96-3.95.01 0-.52-4.18-.97-7.32z" fill="#f0b399" stroke-width="none" opacity="1" stroke="none"></path><path id="SvgjsPath19960" d="M155.04 84.98c-.47-.35-.97-.67-1.48-.98-.51-.3-1.05-.56-1.6-.78-.56-.22-1.11-.41-1.73-.52l-.09-.02-.09.04c-2.1 1.04-4.05 2.33-5.88 3.75-.92.71-1.82 1.43-2.69 2.2-.87.77-1.72 1.54-2.55 2.37-.48 1.31-.93 2.64-1.32 3.97-.38 1.34-.73 2.69-1.04 4.05-.62 2.72-1.12 5.46-1.51 8.23l-.02.14.09.12c.61.82 1.24 1.62 1.94 2.36.7.74 1.42 1.45 2.19 2.12 1.53 1.34 3.16 2.53 4.93 3.56l.09.05.1-.01c.74-.05 1.45-.16 2.16-.43.35-.14.72-.33 1.01-.68.14-.18.24-.41.27-.65.02-.2.02-.39.01-.57-.09-1.44-.36-2.8-.52-4.18-.15-1.38-.34-2.75 0-4.08.3-1.35.71-2.68 1.15-4 .46-1.31.97-2.61 1.53-3.88.58-1.26 1.21-2.52 2.06-3.59.91-1.08 1.68-2.25 2.41-3.45.72-1.2 1.39-2.43 2.02-3.69l.1-.2-.17-.15c-.44-.37-.89-.75-1.37-1.1zm-.97 4.94c-.67 1.21-1.37 2.42-2.24 3.49-.87 1.13-1.47 2.41-2.04 3.68-.58 1.27-1.11 2.57-1.59 3.88-.49 1.31-.94 2.63-1.3 4-.4 1.39-.27 2.85-.16 4.24.13 1.39.35 2.79.41 4.14.01.17 0 .33-.01.47-.02.11-.06.21-.14.3-.15.19-.43.34-.72.45-.56.21-1.21.3-1.83.34-1.65-1-3.22-2.19-4.69-3.45-.75-.64-1.46-1.33-2.14-2.05-.65-.68-1.24-1.41-1.81-2.16.31-2.69.74-5.39 1.25-8.06.25-1.36.55-2.72.87-4.07.31-1.36.67-2.69 1.06-4.02.87-.73 1.77-1.48 2.68-2.18.91-.7 1.83-1.41 2.77-2.07.94-.67 1.91-1.29 2.87-1.9.95-.58 1.92-1.12 2.91-1.6.49.1 1.01.28 1.5.48.52.22 1.02.47 1.52.74.49.28.97.58 1.43.92.4.29.78.6 1.16.92-.56 1.18-1.14 2.36-1.76 3.51z" fill="#f0b399" stroke-width="none" opacity="1" stroke="none"></path><path id="SvgjsPath19961" d="M147.49 91.07c-.88.94-1.65 1.98-2.36 3.05-.71 1.07-1.38 2.16-1.98 3.3-.61 1.13-1.17 2.28-1.65 3.46l.07.03c.65-1.1 1.32-2.18 1.99-3.26.69-1.07 1.36-2.14 2.1-3.17.74-1.03 1.48-2.05 2.28-3.02.67-.82 1.38-1.61 2.19-2.29l-1.66 3.8a76.96 76.96 0 0 0-1.81 4.41c-.56 1.49-1.02 3.02-1.38 4.59-.25 1.1-.46 2.22-.51 3.37a7.534 7.534 0 0 1-.84-3c.44-1.61.88-3.21 1.27-4.84l-.07-.02c-.62 1.57-1.18 3.17-1.75 4.76l-.01.04v.05c.01.82.15 1.65.41 2.43.12.39.28.78.46 1.15.18.38.38.72.64 1.09l.77 1.07-.09-1.34c-.1-1.51.17-3.07.47-4.6.31-1.53.74-3.05 1.21-4.56.46-1.51.95-3.01 1.51-4.5.58-1.47 1.18-2.94 1.91-4.34l.25-.48-.47.3c-1.12.69-2.07 1.58-2.95 2.52z" fill="#d17f5b" stroke-width="none" opacity="1" stroke="none"></path></g></g><g id="svga-group-faceshape-wrap" transform="matrix(1,0,0,1,0,0)"><g id="svga-group-faceshape-single"><path id="SvgjsPath19913" d="M135.9 49.8c-6.7-7.4-11.3-13.2-28.8-17.3-1.8-.4-12.3-.4-14.1 0-17.5 4.1-22.1 9.9-28.8 17.3-7.1 7.8-9.5 29-9.5 29 1.1 10.8 4.4 36.3 6.4 39 10.8 14 22.5 27 26.2 29.2 2.9 1.8 22.6 1.8 25.5 0 3.7-2.2 15.3-15.2 26.2-29.2 2.1-2.7 5.4-28.2 6.4-39 0 0-2.4-21.2-9.5-29z" fill="#ffd0bc" stroke-width="none" opacity="1" stroke="none"></path><path id="SvgjsPath19914" d="M107.1 32.5c-1.8-.4-12.3-.4-14.1 0-17.5 4.1-22.1 9.9-28.8 17.3-7.1 7.8-9.5 29-9.5 29 1.1 10.8 4.4 36.3 6.4 39 10.8 14 22.5 27 26.2 29.2 2.9 1.8 22.6 1.8 25.5 0 3.7-2.2 15.3-15.2 26.2-29.2 2.1-2.7 5.4-28.2 6.4-39 0 0-2.4-21.2-9.5-29-6.7-7.4-11.3-13.2-28.8-17.3zm35 31.2c.7 2.5 1.2 5 1.6 7.5.4 2.5.8 5 1 7.5-.5 3.8-1.1 7.5-1.7 11.3l-.9 5.7c-.3 1.9-.6 3.8-1 5.6-.7 3.7-1.3 7.5-2.2 11.2-.2.9-.4 1.8-.7 2.7-.1.4-.3.8-.4 1.2l-.1.2v.1l-.1.1-.2.3-1.8 2.2-1.8 2.2c-4.8 5.9-9.7 11.8-14.9 17.3-1.3 1.4-2.6 2.8-3.9 4-.3.3-.7.6-1 .9l-.5.5-.5.4c-.3.3-.7.5-1 .7 0 0-.1 0-.1.1l-.2.1c-.1 0-.2.1-.3.1-.1 0-.2.1-.3.1-.8.2-1.7.3-2.6.4-.9.1-1.8.2-2.8.3-1.9.1-3.8.2-5.6.2-1.9 0-3.8 0-5.6-.1-.9 0-1.9-.1-2.8-.2-.9-.1-1.8-.2-2.7-.4-.2 0-.4-.1-.6-.2l-.2-.1s-.1 0-.1-.1c-.3-.2-.7-.4-1-.7l-.5-.4-.5-.5c-.3-.3-.7-.6-1-.9-1.4-1.3-2.7-2.6-4-4-5.3-5.5-10.4-11.2-15.3-17.1l-1.8-2.2-1.8-2.2-.2-.3-.1-.1-.1-.1-.1-.1s0-.1-.1-.1l-.1-.3c-.2-.4-.3-.8-.5-1.3-.3-.9-.5-1.8-.7-2.7-.8-3.7-1.5-7.5-2.1-11.3-.3-1.9-.6-3.8-.8-5.7-.3-1.9-.5-3.8-.7-5.7-.5-3.8-.8-7.5-1.2-11.3.7-4.6 1.7-9.2 3-13.7.7-2.2 1.4-4.5 2.3-6.6.4-1.1.9-2.1 1.4-3.1s1.1-2 1.7-2.9c.2-.2.3-.4.5-.7.2-.2.3-.4.5-.6.3-.4.8-.8 1.2-1.3.8-.9 1.6-1.7 2.4-2.6l1.2-1.2 1.2-1.2c.4-.4.8-.8 1.3-1.2.4-.4.9-.7 1.3-1.1 3.5-2.8 7.7-4.9 12-6.5l1.6-.6c.5-.2 1.1-.4 1.7-.5.6-.2 1.1-.4 1.7-.5l1.7-.5.8-.2.2-.1h.2c.1 0 .2 0 .3-.1.5-.1 1.1-.1 1.7-.2 1.2-.1 2.3-.1 3.5-.2 2.3-.1 4.7-.1 7-.1h.8c.2 0 .5.1.8.2l1.7.4.9.2.9.2 1.7.4c2.3.6 4.5 1.3 6.7 2.3.3.1.5.2.8.3l.8.4c.5.3 1.1.5 1.6.8l1.5.9 1.5.9c2 1.3 3.8 2.8 5.4 4.5 1.7 1.7 3.3 3.4 4.9 5.2 1.7 1.9 2.9 4.2 3.9 6.6.9 2.7 1.7 5.2 2.3 7.6z" fill="#d17f5b" stroke-width="none" opacity="1" stroke="none"></path></g></g><g id="svga-group-mouth-single-move" transform="matrix(1,0,0,1,0,0)"><g id="svga-group-mouth-single" transform="matrix(1,0,0,1,0,0)"><path id="SvgjsPath19943" d="M89.02 123.83s-.6 5.18-.37 5.77c.23.6.64 1.05 1.24 1.24s8.06-.96 10.72-.96 9.39.55 10.54.69 1.6-.78 1.47-1.97c-.14-1.19-1.33-5.22-1.51-5.73l-4.58-1.7-6.37 2.47-5.32-2.61-5.82 2.8z" fill="#cb2e2e" stroke-width="none" opacity="1" stroke="none"></path><path id="SvgjsPath19944" d="M90.14 131.04c-.14 0-.24-.01-.3-.03-.62-.19-1.09-.66-1.35-1.34-.24-.62.29-5.32.36-5.86l.01-.1 5.99-2.88 5.32 2.62 6.36-2.47 4.72 1.75.03.08c.18.49 1.38 4.56 1.52 5.77.09.79-.07 1.43-.45 1.81-.3.29-.71.42-1.21.36-1.12-.13-7.88-.69-10.52-.69-1.38 0-4.08.31-6.45.59-2.08.23-3.43.39-4.03.39zm-.95-7.09c-.23 1.99-.52 5.19-.37 5.59.16.41.48.93 1.12 1.13.25.08 2.34-.17 4.18-.38 2.38-.28 5.09-.59 6.49-.59 2.65 0 9.43.55 10.56.69.39.05.7-.04.92-.26.3-.3.43-.84.35-1.52-.13-1.14-1.23-4.88-1.48-5.61l-4.44-1.64-6.38 2.48-5.31-2.61-5.64 2.72z" fill="#ac0505" stroke-width="none" opacity="1" stroke="none"></path><path id="SvgjsPath19945" d="M83.95 123.31s2 1.06 4.59.81c2.33-.22 5.23-1.74 5.81-1.8 1.23-.13 5.23 2.58 5.88 2.65.65.06 5.81-2.97 6.39-3.17.31-.1 3.22 1.23 5.86 1.73 2.36.44 4.48.05 4.48.05s-2.33-.64-4.65-1.62c-2.5-1.05-5.03-2.44-5.85-2.46-.9-.03-5.92 2.76-6.38 2.76-.45 0-3.5-2.98-4.71-2.97-.72.01-3.87 1.81-6.68 2.83-2.14.79-4.07.77-4.74 1.19z" fill="#bc1818" stroke-width="none" opacity="1" stroke="none"></path></g></g><g id="svga-group-eyes-left-move" transform="matrix(1,0,0,1,0,0)"><g id="svga-group-eyes-left" transform="matrix(1,0,0,1,0,0)"><g id="svga-group-eyesback-left"><path id="SvgjsPath20447" d="M80.2 77.2c7.5 0 13.5 5.8 13.5 13s-6 13-13.5 13-13.5-5.8-13.5-13 6-13 13.5-13z" fill="#ffffff" stroke-width="none" opacity="1"></path></g><g id="svga-group-eyesiriswrapper-left" transform="matrix(1,0,0,1,0,0)"><g id="svga-group-eyesiriscontrol-left" transform="matrix(1,0,0,1,0,0)"><g id="svga-group-eyesiris-left" transform="matrix(1,0,0,1,0,0)"><path id="SvgjsPath20675" d="M80.2 84.9c2.9 0 5.3 2.4 5.3 5.3s-2.4 5.3-5.3 5.3-5.3-2.4-5.3-5.3 2.4-5.3 5.3-5.3z" fill="#ad6d4d" stroke-width="none" opacity="1" stroke="none"></path><path id="SvgjsPath20676" d="M84.7 87.3c.4.6.7 1.2.8 1.9s.2 1.4.1 2.2-.4 1.4-.8 2.1c-.4.6-1 1.1-1.6 1.5s-1.3.6-2.1.7c-.7.1-1.4.1-2.2-.1-1.4-.3-2.7-1.1-3.5-2.3-.4-.6-.7-1.3-.9-2-.2-.7-.2-1.5 0-2.2.1-.7.4-1.4.8-2.1.4-.6 1-1.2 1.6-1.6s1.3-.7 2.1-.8c.7-.1 1.5-.1 2.2.1 1.6.5 2.7 1.4 3.5 2.6zm0 0-.3-.4c-.1-.1-.2-.3-.3-.4-.1-.1-.3-.2-.4-.3-.1-.1-.3-.2-.4-.3-.6-.4-1.2-.6-1.9-.7-1.3-.2-2.7.1-3.8.8-1.1.7-1.9 1.8-2.2 3.1-.3 1.3-.1 2.7.6 3.8.3.6.8 1.1 1.4 1.5s1.2.7 1.9.8c.7.1 1.4.1 2-.1.7-.2 1.3-.4 1.8-.8s1-.8 1.4-1.4.7-1.1.9-1.8c.2-.6.2-1.3.2-2-.3-.5-.6-1.2-.9-1.8z" fill="#8e4723" stroke-width="none" opacity="1" stroke="none"></path><path id="SvgjsPath20677" d="M80.2 88.3c1 0 1.9.9 1.9 1.9s-.9 1.9-1.9 1.9-1.9-.9-1.9-1.9.9-1.9 1.9-1.9z" fill="#000000" stroke-width="none" opacity="1"></path><path id="SvgjsPath20678" d="M80.2 92.3c-1.2 0-2.1-.9-2.1-2.1s.9-2.1 2.1-2.1 2.1.9 2.1 2.1-1 2.1-2.1 2.1zm0-3.8c-.9 0-1.7.8-1.7 1.7 0 .9.8 1.7 1.7 1.7.9 0 1.7-.8 1.7-1.7s-.7-1.7-1.7-1.7z" fill="#8e4723" stroke-width="none" opacity="1" stroke="none"></path><path id="SvgjsPath20679" d="M77.7 86.2c.4-.2 1.2.3 1.7 1.1.5.9.6 1.8.1 2s-1.2-.3-1.7-1.1c-.4-.8-.5-1.7-.1-2zm3.7 5c.4 0 .6.3.6.6s-.3.6-.6.6-.6-.3-.6-.6.3-.6.6-.6z" fill="#ffffff" stroke-width="none" opacity="1"></path></g></g></g><g id="svga-group-eyesfront-left"><path id="SvgjsPath20455" d="M80.2 76.7c-7.8 0-14.1 6.1-14.1 13.6s6.3 13.6 14.1 13.6 14.1-6.1 14.1-13.6S88 76.7 80.2 76.7zM87.8 94c-2.5 2.1-13 4.4-16 3.5s-3.2-7.4-4-9.2c0 0 25.5-3.9 24.1-1.4-.2.4-1.6 4.9-4.1 7.1z" fill="#ffd0bc" stroke-width="none" opacity="1" stroke="none"></path><path id="SvgjsPath20456" d="M89.1 97.9c-1.1 1.3-4.4 2-6.3 2.2-6.3.6-9.7.5-9.7.5s10.2 2.5 16.6-2.3c1.4-1.1 2.7-8.5 2.7-8.5s-1.4 6-3.3 8.1z" fill="#f0b399" stroke-width="none" opacity="1" stroke="none"></path><path id="SvgjsPath20457" d="M75.5 97.9c.8-.1 1.6-.3 2.4-.5.4-.1.7-.1 1.1-.2 1.4-.2 2.9-.6 4.3-1 .7-.2 1.4-.4 2.1-.7.7-.3 1.4-.6 2-1 .7-.4 1.1-1 1.6-1.6.4-.6.8-1.2 1.2-1.9.7-1.3 1.2-2.7 1.8-4.1.1-.1.1-.3 0-.4l-.1-.1c-.1-.1-.1-.1-.2-.1-.2-.1-.5-.1-.8-.2-.3 0-.6-.1-.8-.1-1.7-.3-3.4-.4-5.1-.4-1.2 0-2.4.1-3.5.2-.6.1-1.2.2-1.7.2l-1.7.2-1.3.2h-1.6c-.2 0-.5-.1-.7-.1-.5-.1-1-.2-1.4-.4-1-.3-1.9-.7-2.9-1.1.8.7 1.6 1.3 2.6 1.8.2.1.5.2.7.3l-2.2-.3-2.1-.3c-.7-.1-1.4-.3-2.1-.5.5.6 1.2.9 1.9 1.2.4.2.9.3 1.3.4l-2.7.6c-1.1.2-2.3.4-3.4.5 1.2.2 2.3.2 3.5.2h.1c.2.6.3 1.2.5 1.8.2.7.3 1.4.5 2.2s.4 1.4.7 2.1c.3.7.6 1.4 1.1 1.9.2.3.5.5.9.7.2.1.4.2.6.2-.3.1-.6.3-.8.5-.5.4-.8.9-1 1.5.4-.4.8-.9 1.2-1.2.2-.2.5-.3.7-.3.2-.1.5-.1.8-.1.2 0 .4 0 .7-.1 0 0-.1 0-.1.1-.3.2-.6.4-.8.6-.2.2-.4.6-.5.9.3-.6.9-.9 1.5-1.2.4-.2 1-.3 1.7-.4zm16.1-11.5c-.2 0-.4-.1-.7-.2.2.1.4.1.7.2zm-21 10.2c-.9-1.1-1.3-2.6-1.6-4-.2-.7-.3-1.4-.4-2.2-.1-.6-.2-1.2-.4-1.7 1 0 2-.1 3-.2 1.2-.1 2.3-.2 3.5-.3 1.2-.1 2.3-.3 3.4-.5l2.6-.4 11-.8c.1 0 .1.1.2.1.1.1.1.2 0 .3-.6 1.4-1.1 2.7-1.8 4l-1.2 1.8c-.5.6-1 1.1-1.6 1.4-1.2.8-2.6 1.2-4 1.7-1.4.4-2.8.8-4.2 1.1-.5.1-.8.1-1.1.2-.2 0-.4.1-.6.1-.7.1-1.3.2-2 .3h-3.1c-.3-.1-.7-.1-.9-.3-.3-.1-.6-.3-.8-.6z" fill="#000000" stroke-width="none" opacity="1" stroke="none"></path></g></g></g><g id="svga-group-eyes-right-move" transform="matrix(1,0,0,1,0,0)"><g id="svga-group-eyes-right" transform="matrix(1,0,0,1,0,0)"><g id="svga-group-eyesback-right"><path id="SvgjsPath20448" d="M119.8 77.2c7.5 0 13.5 5.8 13.5 13s-6 13-13.5 13-13.5-5.8-13.5-13 6-13 13.5-13z" fill="#ffffff" stroke-width="none" opacity="1"></path></g><g id="svga-group-eyesiriswrapper-right" transform="matrix(1,0,0,1,0,0)"><g id="svga-group-eyesiriscontrol-right" transform="matrix(1,0,0,1,0,0)"><g id="svga-group-eyesiris-right" transform="matrix(1,0,0,1,0,0)"><path id="SvgjsPath20680" d="M119.8 85.5c2.6 0 4.7 2.1 4.7 4.7s-2.1 4.7-4.7 4.7-4.7-2.1-4.7-4.7 2.1-4.7 4.7-4.7z" fill="#ad6d4d" stroke-width="none" opacity="1" stroke="none"></path><path id="SvgjsPath20681" d="M123.8 87.7c.3.5.6 1.1.7 1.7s.2 1.2.1 1.9c-.1.6-.3 1.2-.7 1.8s-.8 1-1.4 1.3-1.2.5-1.8.6-1.3.1-1.9-.1c-1.2-.3-2.3-1-3.1-2-.4-.5-.6-1.1-.8-1.7s-.1-1.3 0-1.9.4-1.2.7-1.8.8-1 1.4-1.4c.6-.3 1.2-.6 1.8-.7.6-.1 1.3-.1 1.9.1 1.4.3 2.4 1.1 3.1 2.2zm-.1 0-.3-.4-.3-.3-.3-.3c-.1-.1-.2-.2-.4-.3-.5-.3-1.1-.5-1.7-.6-1.2-.2-2.3.1-3.3.7-.9.6-1.7 1.6-1.9 2.7-.3 1.1-.1 2.3.5 3.4.3.5.7 1 1.2 1.3s1.1.6 1.6.7c.6.1 1.2.1 1.8-.1.6-.1 1.1-.4 1.6-.7s.9-.7 1.2-1.2.6-1 .8-1.6c.2-.6.2-1.2.1-1.8-.1-.4-.3-1-.6-1.5z" fill="#8e4723" stroke-width="none" opacity="1" stroke="none"></path><path id="SvgjsPath20682" d="M119.8 88.5c.9 0 1.7.8 1.7 1.7s-.8 1.7-1.7 1.7-1.7-.8-1.7-1.7.8-1.7 1.7-1.7z" fill="#000000" stroke-width="none" opacity="1"></path><path id="SvgjsPath20683" d="M119.8 92.1c-1 0-1.8-.8-1.8-1.8s.8-1.8 1.8-1.8 1.8.8 1.8 1.8-.8 1.8-1.8 1.8zm0-3.4c-.8 0-1.5.7-1.5 1.5s.7 1.5 1.5 1.5 1.5-.7 1.5-1.5-.7-1.5-1.5-1.5z" fill="#8e4723" stroke-width="none" opacity="1" stroke="none"></path><path id="SvgjsPath20684" d="M117.6 86.7c.4-.2 1 .2 1.5 1 .4.8.5 1.5.1 1.8-.4.2-1-.2-1.5-1-.4-.8-.4-1.6-.1-1.8zm3.3 4.4c.3 0 .6.3.6.6s-.3.6-.6.6-.6-.3-.6-.6.3-.6.6-.6z" fill="#ffffff" stroke-width="none" opacity="1"></path></g></g></g><g id="svga-group-eyesfront-right"><path id="SvgjsPath20458" d="M119.8 76.7c-7.8 0-14.1 6.1-14.1 13.6s6.3 13.6 14.1 13.6 14.1-6.1 14.1-13.6-6.3-13.6-14.1-13.6zm9.5 18.7c-3 .8-14.5.8-17-1.1s-3.9-5.9-4.1-6.2c-1.4-2.2 24.1 1.2 24.1 1.2-.8 1.6 0 5.3-3 6.1z" fill="#ffd0bc" stroke-width="none" opacity="1" stroke="none"></path><path id="SvgjsPath20461" d="M131.6 93.3c.2-.7.3-1.3.4-2 .1-.6.2-1.3.4-1.8h2.9c-1.7-.4-3.4-.7-5.1-1 .6-.1 1.1-.3 1.7-.5.9-.3 1.8-.8 2.4-1.5-.9.4-1.8.6-2.7.8-.9.2-1.8.3-2.7.4-.8.1-1.6.2-2.3.2h-.1c.4-.1.8-.3 1.2-.5 1-.5 2-1.1 2.8-1.9-1.1.4-2.1.8-3.1 1.2-.5.2-1 .3-1.6.5-.5.1-1 .2-1.6.3h-1l-1.9-.2-3.5-.3c-1.2-.1-2.4-.2-3.6-.2-2.4 0-4.8.2-7.1.8l1.3.1c-.1 0-.2.1-.3.2-.1.1-.1.3 0 .4.3.6.5 1.2.8 1.8.3.6.6 1.2 1 1.8.3.6.7 1.1 1.2 1.6.2.3.5.5.7.7l.4.3c.1.1.3.2.4.3.6.3 1.3.5 1.9.7.7.2 1.3.3 2 .4 1.3.2 2.7.3 4 .3 1.3 0 2.7 0 4-.1.4 0 .7 0 1.1-.1.7.1 1.5.1 2.2 0H128.5c.2 0 .4.1.7.2.5.2.9.3 1.3.7-.3-.4-.7-.8-1.2-1-.1 0-.1-.1-.2-.1.1 0 .2 0 .4-.1.1 0 .2-.1.3-.1.1 0 .2-.1.2-.1.3-.1.7-.1 1-.1s.7 0 1.1.1c-.3-.2-.7-.4-1.1-.5-.2 0-.4-.1-.7 0 .8-.5 1.1-1.1 1.3-1.7zm-1.2 1.5c-.1.1-.1.1-.2.1h-.2c-.1 0-.2.1-.3.1s-.2.1-.2.1c-.2.1-.3.1-.5.2-.1 0-.3.1-.4.1H127.9c-.9 0-1.8.1-2.7.3-1.5 0-3.1 0-4.6-.1-1.3-.1-2.7-.2-4-.4-1.3-.2-2.6-.4-3.8-.9-.2-.1-.3-.2-.4-.2l-.4-.3c-.2-.2-.5-.4-.7-.7-.4-.5-.9-1-1.2-1.6-.8-1.1-1.3-2.3-1.9-3.5-.1-.1-.1-.2 0-.3.1-.1.2-.1.3-.2.1 0 .2 0 .2-.1l8.5.6c.2 0 .3 0 .5.1l3.5.4 3.5.3c1.2.1 2.3.2 3.5.3 1.2.1 2.3.1 3.5.2h.3c-.2.6-.3 1.2-.3 1.8-.1.7-.1 1.3-.3 1.9-.2.8-.5 1.4-1 1.8z" fill="#000000" stroke-width="none" opacity="1" stroke="none"></path><path id="SvgjsPath20462" d="M119 99.1c-1.3-.3-5.4-1.2-6.6-2.4-2-1.8-4.3-6.1-4.3-6.1s1.9 5.7 3 7c1 1.3 12 2.9 13.1 2.7 1.1-.2-3.9-.9-5.2-1.2zm-12.1-16.7-1.1.7 19.2 1.2-18.1-1.9z" fill="#f0b399" stroke-width="none" opacity="1" stroke="none"></path></g></g></g><g id="svga-group-facehighlight-single"></g><g id="svga-group-eyebrows-left-move" transform="matrix(1,0,0,1,0,0)"><g id="svga-group-eyebrows-left-rotate" transform="matrix(0.9914448609181881,0.1305261956808469,-0.1305261956808469,0.9914448609181881,10.234315260593306,-9.599299653379632)"><g id="svga-group-eyebrows-left" transform="matrix(1,0,0,1,0,0)"><path id="SvgjsPath20166" d="M70.59 78.25s8.95.22 15.52-1.79c6.56-2.01 5.47-6.31 4.9-7.59-.57-1.28-2.54-.2-5.41 1.43-3.98 2.27-17.4 5.64-19.33 6.33-3.84 1.36 4.32 1.62 4.32 1.62z" fill="#504543" stroke-width="none" opacity="1" stroke="none"></path><path id="SvgjsPath20167" d="M70.58 78.58c-3.66-.11-5.56-.52-5.67-1.21-.08-.52.58-.83 1.24-1.06.52-.18 1.78-.54 3.52-1.03 4.81-1.35 12.85-3.62 15.76-5.28 2.53-1.44 4.13-2.31 5.15-1.97.34.11.59.34.74.7.23.52.91 2.37.03 4.3-.77 1.69-2.5 2.95-5.14 3.76-1.28.39-2.66.7-4.05.94-5.68.98-11.51.86-11.58.85zm15.18-7.99c-2.98 1.69-11.07 3.98-15.91 5.34-1.67.47-2.98.84-3.48 1.02-.42.15-.62.26-.72.33.56.3 2.9.56 4.94.63.13 0 8.99.19 15.41-1.77 2.45-.75 4.04-1.89 4.72-3.39.76-1.67.17-3.29-.04-3.74-.08-.17-.18-.28-.33-.33-.15-.05-.33-.05-.55-.01-.94.16-2.51 1.05-4.04 1.92z" fill="#413230" stroke-width="none" opacity="1" stroke="none"></path></g></g></g><g id="svga-group-eyebrows-right-move" transform="matrix(1,0,0,1,0,0)"><g id="svga-group-eyebrows-right-rotate" transform="matrix(0.9914448613738104,-0.13052619222005174,0.13052619222005174,0.9914448613738104,-8.845642168151613,16.697029138183765)"><g id="svga-group-eyebrows-right" transform="matrix(1,0,0,1,0,0)"><path id="SvgjsPath20168" d="M130.7 78.5s-8.12 1.75-14.41.9c-6.29-.85-5.98-5.28-5.66-6.64.31-1.36 2.28-.64 5.15.48 3.99 1.55 16.74 2.58 18.61 2.92 3.69.69-3.69 2.34-3.69 2.34z" fill="#504543" stroke-width="none" opacity="1" stroke="none"></path><path id="SvgjsPath20169" d="M120.08 79.97c-1.3 0-2.6-.07-3.83-.23-2.53-.34-4.31-1.29-5.28-2.82-1.11-1.75-.78-3.69-.65-4.24.09-.37.28-.65.56-.81.87-.5 2.47.07 5 1.06 2.91 1.13 10.59 1.98 15.18 2.5 1.67.19 2.87.32 3.37.41.64.12 1.29.31 1.3.83.01.7-1.66 1.43-4.97 2.17-.07.01-5.35 1.13-10.68 1.13zm-8.4-7.61c-.21 0-.38.03-.5.11-.13.07-.21.2-.25.38-.11.48-.4 2.17.56 3.69.86 1.36 2.49 2.21 4.84 2.53 6.15.83 14.19-.87 14.31-.9 1.85-.41 3.94-1.07 4.4-1.46-.1-.05-.31-.13-.71-.2-.48-.09-1.74-.23-3.33-.41-4.62-.51-12.35-1.37-15.33-2.53-1.53-.6-3.1-1.21-3.99-1.21z" fill="#413230" stroke-width="none" opacity="1" stroke="none"></path></g></g></g><g id="svga-group-nose-single-move" transform="matrix(1,0,0,1,0,0)"><g id="svga-group-nose-single" transform="matrix(1,0,0,1,0,0)"><path id="SvgjsPath19927" d="M96.3 94.66c-1.02 4.05-2.23 8.04-3.28 12.05-.13.5-.27 1-.37 1.5-.05.25-.09.5-.12.74-.01.12-.02.24-.01.34 0 .1.04.24.07.35.12.47.33.94.79.87.45-.05.91-.34 1.36-.6.23-.15.51-.24.79-.26.29-.03.57.05.82.16.51.23.89.62 1.26 1 .36.39.68.81 1 1.22.31.41.65.77 1.07.98.42.2.9.24 1.31.06.42-.16.78-.49 1.05-.87.26-.37.49-.87.76-1.33.27-.46.56-.93 1.02-1.34.23-.2.54-.39.92-.42.39-.03.73.14.98.31l.19.14.14.11c.09.08.2.14.29.21.2.13.41.25.62.34.21.09.43.16.63.19s.35-.01.4-.06c.06-.05.12-.18.12-.39.01-.21-.02-.47-.04-.71-.23-2.03-.63-4.09-1.01-6.13-.39-2.04-.81-4.08-1.29-6.11l.08-.02c.74 1.96 1.32 3.97 1.84 6 .51 2.03.97 4.06 1.25 6.17.03.27.06.53.05.85-.01.3-.09.72-.44 1.02-.35.29-.77.3-1.08.25-.32-.05-.6-.15-.86-.27-.26-.12-.5-.27-.74-.43-.11-.08-.23-.16-.34-.25l-.16-.13-.13-.1c-.34-.25-.59-.25-.94.03-.33.27-.62.7-.89 1.12-.28.43-.5.88-.86 1.35-.35.45-.81.84-1.39 1.01-.57.2-1.22.09-1.71-.2-.5-.29-.86-.74-1.15-1.18-.28-.43-.58-.85-.92-1.24-.33-.38-.71-.75-1.15-.95-.44-.23-.96-.16-1.37.1-.44.27-.87.6-1.46.71-.15.03-.31.01-.47-.04a.933.933 0 0 1-.39-.28c-.2-.24-.31-.5-.4-.76-.04-.14-.08-.25-.11-.41-.03-.17-.02-.3-.03-.44.01-.27.04-.54.07-.81.07-.53.16-1.05.27-1.56.44-2.05 1.06-4.05 1.71-6.04.65-1.98 1.36-3.95 2.16-5.88l.09.03z" fill="#d17f5b" stroke-width="none" opacity="1" stroke="none"></path><path id="SvgjsPath19928" d="M97.96 101.36c.54-.31 1.16-.46 1.79-.5.63-.04 1.26.04 1.87.22.6.2 1.18.46 1.69.83.26.17.49.39.73.58.22.22.43.44.63.68-.26-.16-.5-.35-.76-.52-.26-.15-.51-.33-.78-.47-.27-.14-.52-.29-.8-.39-.27-.13-.55-.21-.83-.31a6.89 6.89 0 0 0-1.75-.29 5.76 5.76 0 0 0-1.79.17z" fill="#d17f5b" stroke-width="none" opacity="1" stroke="none"></path><path id="SvgjsPath19929" d="M105.26 104.41c-1.21-1.82-4.55-2.57-6.6-2.32-.67.08-1.21 1.12-.4 1.48 1.02.45 2.07.75 3.12 1.11 1.04.36 2.02 1 3.14 1.01.63.01 1.1-.74.74-1.28z" fill="#ffd9c9" stroke-width="none" opacity="1" stroke="none"></path></g></g><g id="svga-group-hair-front" transform="matrix(1,0,0,1,0,0)"><path id="SvgjsPath20324" d="M39.7 160.7c-.4-.9-.6-1.5-.6-1.5s.2.6.6 1.5zm40.4-10.1s-.7-3.8-5.2-4.6c-3.9-.8-6.9 1.7-7.7 2.6-1.5.2-4.9-1.9-11 4.8-7.3 7.9-3.1 18.8-3.1 18.8-8.5-2.2-12.1-8.5-13.4-11.3 1.5 3.8 5.6 13.8 9.2 15.5 4.4 2.1 12.3 7.8 12.7 13.8.3 6-5.2 8.3-5.2 8.3 11.8.3 16.4-4.9 17.8-7.1s2.9-6.8 2.3-11.5-1.3-17.1 1.7-24.3c1.1-3.2 1.9-5 1.9-5zM55.8 88.8l2 1.7s-.3-15.4 9.4-27.8 18-10.7 18-10.7S97 56.7 108 55c0 0 7.4 0 9.4 9 0 0 4-5.7-3.7-10.7 0 0 8.4-.3 13.4 2.3 5 2.7 9.4 9.7 12 18.4 2.7 8.7 2.3 18.1 2.3 18.1l2-2s3.7-13.7 1-25.4-7.3-18.7-7.3-18.7-1.3-4.3-5.7-7c0 0-3.7-8-10-10 0 0-.7-4-8-5.4 0 0-4.7-2.7-11-1.7 0 0-5-1.7-9.4 0 0 0-6-1.7-10 1.7 0 0-7.7 3.7-11.4 6.4s-4 9.7-4 9.7-1.4.9-2.1 1.9c-.7 1-1.4 3.7-1.4 3.7s-3.4 4.1-4.2 8.7c0 0-2.8 1-3.5 10.9 0 0-1 2.3-1.1 8.5 0 0-1.2 3.2-.8 7.3.4 3.9 1.3 8.1 1.3 8.1z" fill="#6b4e40" stroke-width="none" opacity="1" stroke="none"></path><path id="SvgjsPath20325" d="M79.7 38.2c-.2-2.5.1-5.1.7-7.6.7-2.5 1.7-4.9 3.2-7.2-1.9 1.9-3.4 4.2-4.3 6.8-.9 2.6-1.3 5.3-1.1 8.1.2 2.7 1 5.4 2.3 7.8 1.3 2.4 3.1 4.5 5.2 6.1-1.8-2-3.2-4.2-4.2-6.6-1-2.3-1.7-4.9-1.8-7.4zm-6.2.2c.2-2.8 1.2-5.6 2.6-8.1 1.5-2.5 3.4-4.7 5.9-6.3-.6.2-1.1.5-1.6.8-3.2.6-6.2 2.4-8.6 4.8-2.4 2.5-4.1 5.8-4.8 9.2-.7 3.5-.3 7.1.8 10.4 1.2 3.3 3.3 6.3 6.1 8.2-2.4-2.4-4-5.5-5-8.6-.9-3.2-1.1-6.5-.5-9.8.6-3.2 2.1-6.2 4.2-8.8 1.9-2.3 4.4-4.2 7.2-5.3-1.9 1.2-3.6 2.8-4.8 4.7-1.7 2.5-2.8 5.5-3.1 8.6-.3 3.1.2 6.2 1.5 9 1.2 2.8 3.2 5.3 5.6 7-2.1-2.1-3.6-4.7-4.5-7.4-.8-2.7-1.3-5.6-1-8.4zm-8.9 32.9c-1.2-2-2.2-4.1-2.9-6.3-.7-2.2-1.1-4.4-1.1-6.7-.1-2.2.2-4.5.7-6.7.5-2.2 1.4-4.3 2.5-6.3 0 .1-.1.2-.1.3-.6 2.1-.7 4.3-.6 6.4.2 2.2.7 4.3 1.7 6.2.9 2 2.2 3.7 3.8 5.1-2.3-3.6-3.6-7.5-3.9-11.5-.2-2-.1-4 .2-6 .3-2 .9-4 1.7-5.9-1.3 1.5-2.2 3.4-2.7 5.3-1.6 1.7-2.8 3.8-3.6 6.1-.8 2.3-1.2 4.7-1.1 7.1.1 2.4.6 4.8 1.5 7s2.2 4.3 3.9 5.9zm-6.5 2c1 2 2.3 3.8 3.9 5.2-2.4-3.6-3.8-7.5-4.3-11.6-.3-2.1-.3-4.1-.1-6.2.2-2.1.7-4.1 1.4-6.2-1.2 1.8-2.1 3.8-2.5 6-.5 2.2-.5 4.4-.3 6.6.3 2.1.9 4.2 1.9 6.2zM57 81.4c.8 1.6 2 3 3.4 4-1-1.4-1.8-2.9-2.3-4.5-.6-1.6-1-3.2-1.2-4.8-.3-1.6-.4-3.3-.5-5-.1-1.7-.2-3.4-.4-5.2-.4 1.7-.6 3.4-.7 5.2-.1 1.7 0 3.5.2 5.2.1 1.8.7 3.5 1.5 5.1zm-1.3 5.3c.7 1.3 1.6 2.6 2.7 3.6-.6-1.4-1.2-2.7-1.6-4.1-.5-1.4-.8-2.8-1.1-4.2-.3-1.4-.5-2.8-.6-4.3-.1-1.4-.1-2.8-.1-4.3-.6 1.4-1 2.9-1.1 4.4-.1 1.5 0 3.1.3 4.6.3 1.4.8 2.9 1.5 4.3zm34.2-47.6c-.4-2.8-.4-5.7.2-8.5.5-2.8 1.5-5.6 2.9-8.2-1.9 2.3-3.3 5-4 7.9-.8 2.9-.9 6-.5 9 .5 3 1.5 5.9 3.2 8.4 1.6 2.5 3.7 4.8 6.2 6.3-2.1-2-3.9-4.4-5.2-6.9-1.4-2.4-2.3-5.2-2.8-8zm10.9-2.6c-.5-2.4-1.1-4.7-2-6.9-.8-2.2-1.8-4.4-3.1-6.5.7 2.3 1.4 4.6 2 6.8.6 2.3 1.2 4.6 1.6 6.9.5 2.3.9 4.6 1.2 7 .3 2.3.6 4.7.9 7.1.3-2.4.4-4.8.3-7.2-.1-2.5-.4-4.8-.9-7.2zm13 1.3c.7 2.6 1.1 5.3 1.1 8 0 1.3-.1 2.7-.4 4-.3 1.3-.9 2.5-2 3.5 1.3-.6 2.1-1.9 2.7-3.2.5-1.3.8-2.8.9-4.2.2-2.8-.2-5.7-.8-8.4-.7-2.7-1.8-5.4-3.3-7.8-1.5-2.4-3.4-4.5-5.6-6.2 1.8 2.1 3.3 4.4 4.6 6.8 1.2 2.3 2.1 4.9 2.8 7.5zm8.1-6.9c-.7-1.2-1.6-2.2-2.5-3.2-2.1-2-4.6-3.6-7.4-4.2 2.6 1.2 4.8 3 6.6 5 1.8 2.1 3.1 4.5 3.9 7.1.8 2.6 1.1 5.3.9 8.1-.2 2.7-.9 5.5-2.1 8 1.7-2.2 2.8-5 3.3-7.9.5-2.9.3-5.8-.6-8.7-.3-.9-.7-1.8-1.1-2.6.8 1 1.6 2.1 2.3 3.2 1.3 2 2.4 4.2 3.2 6.4.8 2.2 1.5 4.6 1.5 6.9 0 1.2-.2 2.3-.8 3.4-.5 1.1-1.3 2-2.4 2.6 1.2-.3 2.3-1.2 3-2.2.7-1.1 1.2-2.4 1.3-3.7.3-2.6-.4-5.1-1.2-7.5-1.6-4.2-4.3-8-7.9-10.7zm12.3 11.5c-1-1.8-2.4-3.5-4-4.7 1.2 1.6 2.2 3.4 3 5.2.7 1.8 1.2 3.7 1.4 5.7.2 1.9 0 3.9-.4 5.8s-1.1 3.8-2.1 5.6c1.5-1.5 2.5-3.3 3.2-5.3.7-2 .9-4.1.8-6.3-.3-2.1-.9-4.1-1.9-6zm7.9 20.6c.2-1.7.1-3.3-.3-5-.3-1.4-.9-2.8-1.6-4v-.4c-.2-2-.7-4-1.6-5.8-.9-1.8-2.2-3.4-3.7-4.6 1.1 1.6 2 3.3 2.6 5.1.6 1.8 1.1 3.6 1.2 5.5.1 1.9 0 3.7-.4 5.6-.4 1.8-1.1 3.7-1.9 5.4 1.4-1.4 2.4-3.2 3-5.1.5-1.5.8-3 .8-4.6.5 2.6.7 5.2.4 7.8-.3 3.1-1.3 6-2.8 8.9 1.2-1.1 2.2-2.4 2.9-3.9.7-1.6 1.2-3.3 1.4-4.9zm2.5 7.5c.3-1.5.5-3.1.3-4.6-.1-1.5-.5-3.1-1.2-4.4.1 1.5.1 3 0 4.5-.1 1.4-.3 2.9-.6 4.3s-.8 2.8-1.3 4.1c-.6 1.3-1.2 2.7-2 4 1.2-.9 2.2-2.1 3-3.4.8-1.5 1.4-3 1.8-4.5zm.5 2.4c-.4 1-.7 2-1 2.9-.3 1-.6 1.9-1 2.8-.4.9-.7 1.9-1.1 2.8-.4.9-.8 1.9-1.2 2.9.9-.6 1.6-1.4 2.2-2.3.6-.9 1.1-1.8 1.5-2.8.4-1 .6-2.1.7-3.1.1-1.1.1-2.2-.1-3.2zm-1.2 9.3-.8 2.9-.9 2.9c-.3 1-.6 1.9-.9 3 .8-.7 1.4-1.6 1.9-2.5.5-.9.9-1.9 1.2-2.9s.5-2.1.6-3.1c.1-1.1 0-2.1-.2-3.2-.4 1-.6 2-.9 2.9zM79 153.1c-2.1 4.1-3.4 8.6-3.8 13.1-.2 2.3-.3 4.6-.1 6.9.2 2.3.5 4.6.7 6.8.2 2.2.2 4.4-.4 6.5-.5 2.1-1.6 4-3 5.7-2.8 3.4-7 5.7-11.6 5.9 2.3.2 4.6-.2 6.8-1.1 2.1-.9 4.1-2.3 5.7-4s2.8-3.8 3.5-6.1c.7-2.3.7-4.7.5-7-.2-2.3-.6-4.6-.8-6.8-.2-2.2-.2-4.5-.2-6.7.2-4.5 1.1-8.9 2.7-13.2zm-17.2 37.6c0-1.3-.3-2.5-.7-3.7-.9-2.4-2.5-4.4-4.3-6.1-1.8-1.7-3.9-3-5.9-4.4-1-.7-2-1.3-2.9-2.1-.9-.7-1.8-1.5-2.5-2.4-1.5-1.8-2.8-3.8-3.9-5.9-1-2.1-1.9-4.4-2.5-6.7-.6-2.3-.9-4.7-.9-7.1-.6 4.8.4 9.8 2.4 14.3 1 2.2 2.2 4.4 3.8 6.3.8.9 1.7 1.8 2.7 2.6 1 .8 2 1.4 3 2.1 2 1.4 4 2.7 5.8 4.2 1.8 1.5 3.3 3.4 4.2 5.5.9 2.1 1.2 4.5.3 6.6-.8 2.1-2.7 4-5.1 4.4 1.2 0 2.4-.4 3.4-1.2 1-.7 1.8-1.8 2.4-2.9.4-.9.7-2.2.7-3.5zm6.4-2.2c.7-2.1.9-4.4.2-6.5-.7-2.2-2.1-3.9-3.5-5.4-1.4-1.5-2.8-3-3.7-4.8-1-1.7-1.5-3.7-1.7-5.7-.4-4 .6-8.2 3.1-11.5-1.5 1.5-2.6 3.3-3.3 5.3-.7 2-1 4.2-.9 6.3.1 2.1.7 4.3 1.6 6.2 1 2 2.5 3.6 3.8 5.1 1.4 1.5 2.7 3.1 3.3 4.9.6 1.8.5 3.9 0 5.7-.5 1.9-1.6 3.7-2.9 5.2-1.3 1.6-3 2.8-4.7 4 1.9-.9 3.7-2.1 5.2-3.5s2.8-3.2 3.5-5.3zM123 13.6c.8 1.4 1.4 3 1.5 4.7.1 1.6-.2 3.3-.8 4.8-.6 1.5-1.6 3-2.8 4.3 1.6-.8 3-2.1 3.9-3.8.9-1.6 1.3-3.5 1.2-5.4-.2-1.9-.9-3.7-2-5.2s-2.7-2.6-4.4-3.2c1.4 1.1 2.5 2.4 3.4 3.8zm-10.1 39.8c1.6.7 2.7 1.8 3.4 3.2.7 1.4 1.1 2.9 1.2 4.4 0 .5 0 .9-.1 1.4-.3-1-.7-2-1.3-2.9-1-1.4-2.4-2.6-3.9-3.4-1.5-.8-3.1-1.4-4.8-1.6 1.4.8 2.8 1.6 4.1 2.6 1.3 1 2.4 2 3.3 3.3.9 1.2 1.4 2.7 1.7 4.2.1.6.1 1.1.1 1.7l-1.2 4.2c1-1.4 1.8-2.8 2.4-4.4.6-1.6 1-3.3 1-5.1-.1-1.8-.6-3.6-1.7-5-.9-1.5-2.5-2.6-4.2-2.6zm-39 101c-.2 2.5-.8 5.1-1.6 7.5-.4 1.2-.9 2.4-1.6 3.6-.6 1.2-1.3 2.3-2 3.4-.8 1.1-1.7 2.3-1.9 3.7-.1.7 0 1.4.3 2 .3.6.9 1.2 1.7 1.4-1.3-.7-1.6-2.2-1.3-3.3.4-1.2 1.3-2.2 2.2-3.3 1.7-2.2 3.1-4.6 4-7.1.5-1.3.8-2.6 1-3.9.2-1.3.4-2.6.3-3.9 0-2.6-.5-5.2-1.4-7.7.4 2.5.5 5.1.3 7.6z" fill="#4c2d1e" stroke-width="none" opacity="1" stroke="none"></path></g><g id="svga-group-glasses-single-move" transform="matrix(1,0,0,1,0,0)"><g id="svga-group-glasses-single" transform="matrix(1,0,0,1,0,0)"></g></g></g></g></g><rect id="svga-credit-rect" width="200" height="15" x="0" y="185" fill="#ecf0f1" opacity="0.5" style="display: none;"></rect><text id="svga-credit-text" font-family="Avenir Next, Roboto, Helvetica, Arial, sans-serif" font-size="10px" text-anchor="start" font-weight="400" size="10px" anchor="start" weight="400" fill="#333333" x="33.40447998046875" y="182.60824704170227" style="display: none;"><tspan id="SvgjsTspan18847" dy="13" x="33.40447998046875">Created on AvatarMaker.com</tspan></text></g></svg>