<svg xmlns="http://www.w3.org/2000/svg" version="1.1" width="600px" height="600px" viewBox="0 0 200 200" style="overflow:hidden!important;"><defs id="SvgjsDefs21381"></defs><g id="svga-group-wrapper"><g id="svga-group-backs-single"></g><g id="svga-group-humanwrap-move" transform="matrix(1,0,0,1,0,0)"><g id="svga-group-humanwrap" transform="matrix(1,0,0,1,0,0)"><g id="svga-group-hair-back-move" transform="matrix(1,0,0,1,0,0)"><g id="svga-group-hair-back" transform="matrix(1,0,0,1,0,0)"><path id="SvgjsPath22129" d="M104 26.7s-7-6.5-22.7-7.3S47.7 24.5 36 45.6s-6 45.2 5.4 59.6 19.2 17.1 16.8 26.8c-2.4 9.8-12.2 6.8-14.9 5.1 0 0-1.9 7 12.2 7.9 0 0-2.2 4.6 5.7 4.3 0 0 .8 5.1 13 3.5 0 0 1.6 5.7 14.3 1.9 0 0 4.9 5.1 11.6 3 6.8-2.2 15.7 1.9 20-3.5 0 0 8.9 2.7 11.6-1.6 0 0 8.4 4.3 13-.5 0 0 5.7 2.2 12.2-4.1 0 0-12.4 2.2-12.4-6.8s6.8-14.1 10.3-16.5c3.5-2.4 12.4-15.2 14.4-29.5s.5-29.2-4.1-39S155.6 34.8 144 28c-11.6-6.7-24.6-11.1-40-1.3z" fill="#dcbb93" stroke-width="none" opacity="1" stroke="none"></path><path id="SvgjsPath22130" d="M104.1 25.7C78.4 9.2 45 22.8 33.6 49.9c-5.8 13.8-5.3 29.3.4 43 2.9 7 7.2 13.5 12.4 19 3.2 3.4 7 6.4 9.4 10.5 3.6 6.2 2.2 17.3-7.3 15.6-.6-.1-.9.8-.3.9 4.6 1.4 9.1-1.6 10.5-6.1 1.9-6-2-12-5.9-16.3-5.9-6.4-11.8-12.1-15.8-20-4.1-8.1-6.4-17.1-6.4-26.1 0-16.6 8.3-33.2 22-42.7 15.1-10.4 35.3-10.7 50.9-1.4.7.6 1.1-.3.6-.6zm61.7 30.1c-4.8-12.4-13.5-23.6-25.1-30.2-10.9-6.1-25.5-8-35.8.2-.3.2.1.7.4.5 14.7-10.7 34-3.2 45.7 8.4 12 11.9 17.8 28.5 18.1 45.3.2 8.6-.9 17.3-3.4 25.6-2.8 9.1-7.8 14.9-14.6 21.2-3.9 3.6-8.1 8.6-7.2 14.4.7 4.7 4.8 8 9.4 7.1.5-.1.4-1-.1-.9-4.7.5-8.2-3.4-8.1-7.9.1-3.5 2.1-6.7 4.4-9.3 2.8-3.1 6.3-5.5 9.1-8.6 4.8-5.3 7.5-11.9 9.2-18.8 3.8-15.4 3.7-32.1-2-47zm-97.1 81.4c.2-.4-.4-.8-.7-.4-5.7 8.1-15.5 10-23.3 3.7-.3-.2-.6.1-.4.4 7.4 6.9 19.5 5.5 24.4-3.7zm4.8 1.9c-2.4 5.4-6.5 9.5-12.7 10-.5 0-.5.8 0 .8 5.9-.3 12.2-4.4 13.4-10.5.1-.4-.5-.7-.7-.3zm8.8 3c-.2 5.3-3.2 10.1-8.8 10.9-.3 0-.2.5.1.5 5.4-.4 10.6-5.8 9.3-11.4-.1-.4-.6-.3-.6 0zm62.7 9.3c-9.1-1.9-13.3-10.2-8.7-18.6.2-.3-.2-.6-.5-.4-6.1 7.4-.9 19.7 9 19.6.5.1.6-.6.2-.6zm-13.9 0c-5.1-3.2-6.2-9-4.6-14.4.1-.4-.4-.6-.6-.2-3.1 5.3-.2 12.3 4.9 15.1.3.1.6-.3.3-.5zm-10.7 2.2c-5.2-3-7.1-8.8-5.4-14.4.1-.4-.5-.6-.7-.3-3.1 5.6.1 13 5.8 15.4.4.2.7-.5.3-.7zm38.5-92.3c7.4 18.9 4.8 39.3-8.5 54.8-.3.4.2.9.5.5 15.4-14.9 16.1-39.4 7.9-58-7.1-16.2-27-42.7-47.7-31.9-.2.1-.1.4.1.3 21.9-8.8 40.8 16.7 47.7 34.3zM86.8 25.2c-31.1-5.5-58.3 25.9-50 55.9.1.3.5.2.5-.1-2.8-14.8.6-30.6 11.2-41.7 10.1-10.5 24-14.5 38.2-13.7.2 0 .3-.4.1-.4z" fill="#d5b083" stroke-width="none" opacity="1" stroke="none"></path></g></g><g id="svga-group-humanbody-back"><path id="SvgjsPath21686" d="M77.8 105.9s4.8 37.7 10 55.8c0 0-6.4 8.8-14.5 11.9-28.7 11.2-35 11.2-39.6 15.2-2.4 2.1.2 11.1 1.8 17.2 1.3 5 1.7 13.2 1.7 13.2h132.2s1.6-33-.6-39.8-7.1-2.9-21.9-4.5c-14.8-1.6-28.7-10.3-31-13.2l.3-60-38.4 4.2z" fill="#ffd0bc" stroke-width="none" opacity="1" stroke="none"></path></g><g id="svga-group-chinshadow-single"><path id="SvgjsPath21969" d="M86.1 156.4c4.7.8 10.3 1 10.3 1s11.6-.6 15.5-2.3c.7-.3 2.1-1.4 3.7-2.8l.3-50.7-38.4 4.2s4 31.4 8.6 50.6z" fill="#e09879" stroke-width="none" opacity="1" stroke="none"></path></g><g id="svga-group-humanbody-front"><path id="SvgjsPath21687" d="M72.1 183.1s14.6-.2 20.4 2.6c5.8 2.9 12.7 2.4 16.1-1s21.6-7 21.6-7-19.7 1.9-25 4.6c-5.3 2.7-22.3-2.8-33.1.8z" fill="#e09879" stroke-width="none" opacity="1" stroke="none"></path><path id="SvgjsPath21688" d="M74.2 173.2c6.7-1.3 14.7-6.4 14.7-6.4l6.2 5.5c-4.3-7.9-12.7-41.1-12.7-41.1l-.7.7c1.7 10.5 3.9 21.9 6.1 29.7 0 0-6 8.2-13.6 11.6z" fill="#e09879" stroke-width="none" opacity="1" stroke="none"></path><path id="SvgjsPath21689" d="M170.7 188.5c-.1-2.1-.2-4.1-.4-6.2-.1-1-.3-2.1-.6-3.2-.2-.5-.4-1-.6-1.6-.2-.5-.6-1-1-1.5s-.9-.9-1.5-1.1c-.6-.3-1.1-.4-1.7-.6-1.1-.2-2.2-.2-3.2-.2-2.1 0-4.1.1-6.1.1s-4-.1-6-.2-4-.4-6-.7c-1-.2-2-.4-2.9-.6l-1.5-.4c-.5-.1-1-.3-1.4-.4-3.8-1.1-7.6-2.6-11.2-4.4l-1.3-.7-1.3-.7c-.4-.2-.9-.5-1.3-.8s-.9-.5-1.3-.8-.8-.5-1.3-.8l-1.2-.9-.6-.5-.3-.2-.3-.2c-.2-.2-.4-.3-.5-.5l-.2-.3v-44.6l-.1-15v-.6l-.6.1c-6.4.8-12.9 1.5-19.3 2.3l-19.1 2.3v.5l.1.4.1.9.2 1.8c.1 1.2.3 2.3.4 3.5l.9 7c.6 4.7 1.3 9.4 2.1 14 .8 4.7 1.5 9.3 2.5 14 .9 4.5 1.8 9 3 13.5-1.1 1.4-2.3 2.7-3.6 4-1.3 1.3-2.8 2.6-4.3 3.8-1.5 1.1-3.1 2.2-4.8 3l-1.3.6c-.4.2-.9.3-1.3.5l-2.7 1c-7.2 2.7-14.5 5.3-21.8 7.7l-5.5 1.8c-1.8.6-3.7 1.3-5.5 2.2-.4.2-.9.5-1.3.7-.4.3-.9.5-1.3.9l-.6.5c-.2.2-.5.5-.6.8-.3.5-.4 1.1-.5 1.6-.2 1.1-.1 2.1 0 3.1s.3 2 .4 2.9c.4 1.9.8 3.8 1.3 5.7l.8 2.8c.3.9.5 1.8.7 2.8.4 1.9.7 3.8.9 5.7s.4 3.8.5 5.7v.8h133.4v-.8c.2-4.1.4-8.2.5-12.3s.2-8.2.2-12.3c0-1.8-.1-3.8-.1-5.9zm-67.4 30.3H70.2l-16.5-.1-16-.1c-.1-1.8-.2-3.5-.4-5.3-.2-1.9-.4-3.9-.8-5.8-.2-1-.4-1.9-.7-2.9l-.7-2.8c-.5-1.9-.9-3.7-1.2-5.6-.2-.9-.3-1.9-.4-2.8-.1-.9-.1-1.9 0-2.7.1-.4.2-.8.4-1.1.1-.2.2-.3.3-.4l.5-.4c.3-.3.7-.5 1.1-.8.4-.2.8-.5 1.2-.7 1.7-.8 3.5-1.4 5.3-2l5.5-1.8c7.3-2.4 14.6-5 21.8-7.8l2.7-1c.5-.2.9-.3 1.4-.5l1.4-.6c1.8-.9 3.4-2 5-3.2s3-2.5 4.4-3.9 2.7-2.9 3.8-4.5l.2-.3-.1-.3c-1.3-4.5-2.3-9.1-3.3-13.7s-1.9-9.3-2.7-13.9c-.8-4.6-1.6-9.3-2.4-14l-2.2-13.9 19.3-1.8c6.2-.6 12.3-1.2 18.5-1.8l-.2 14.4-.2 15-.3 30v.4l.2.2.6.7.6.6.3.3.3.2.6.5c.4.3.9.6 1.3.9.4.3.9.6 1.3.9.4.3.9.5 1.3.8s.9.5 1.3.8l1.4.8 1.4.7c.5.2.9.5 1.4.7l1.4.7c1 .4 1.9.8 2.9 1.2s1.9.8 2.9 1.1l1.5.5c.5.2 1 .3 1.5.4.5.1 1 .3 1.5.4l1.5.4c1 .3 2 .4 3 .6 2 .4 4.1.6 6.2.8 2.1.2 4.1.2 6.2.2 2.1 0 4.1-.1 6.1-.1s4 .1 5 1.3c.5.6.9 1.4 1.2 2.3.3.9.4 1.9.6 2.8.3 2 .4 4 .5 6s.1 4.1.2 6.1c.1 7.9-.1 15.8-.4 23.7-10.8.1-21.5.1-32.3.2h-33.1z" fill="#d17f5b" stroke-width="none" opacity="1" stroke="none"></path><path id="SvgjsPath21690" d="M150.7 219.2 147 198l-.4 21.2z" fill="#e09879" stroke-width="none" opacity="1" stroke="none"></path><path id="SvgjsPath21691" d="M47.3 203.5s2.2 11.5 2.9 15.7h3.5l-6.4-15.7z" fill="#e09879" stroke-width="none" opacity="1" stroke="none"></path></g><g id="svga-group-clothes-single"><path id="SvgjsPath22098" d="M65.8 172.7c-3.8 1.5-13.8 4.8-17.9 5.2s-15.6 4.2-15.8 6.3c0 0-2.3.4-3.1 4.2s2.3 13.2 3.7 17.7c1.3 4.4 1.5 13.1 1.5 13.1h136.5s2.1-14.8 1.9-25.7 1.9-15.4-3.3-18.8c0 0-.2-3.3-8.4-3.1-8.3.2-26.7-1.5-28.6-2.7 0 0-8.4 15.9-29.2 16.7s-37.3-12.9-37.3-12.9z" fill="#5d3181" stroke-width="none" opacity="1" stroke="none"></path><path id="SvgjsPath22099" d="M85.6 154s-7.3-1.3-13.4-.1c.6.1 1.7.5 2.7 1.5 1.2 1.1 1.6 2.4 1.8 3-1.3-.8-3-1.6-5.1-2.2-3-.9-7-1.4-10.9.1 0 0 3.8.7 5.5 1.6s-7.5 1.9-11.5.2c0 0 3.2 4 8.3 3.8 0 0-6.3 3.3-7.3 6.1l8.1-2s-5.1 3.9-4.9 9.2c0 0 2.2-3.5 4.5-4.6 0 0-4.2 7.8.7 15.4 0 0-.2-4.4.8-6.6 0 0 0 12.7 10.4 19.1 0 0-1.7-4.2-1.5-6.1 0 0 6.2 11.6 17.6 14.9l-1.9-6.1s3.7 1.3 7.3 4.3c3.6 3 5.4 8.4 5.4 8.4s1.3-6.5-.6-10.1c0 0 3.8 4 4.9 7.4 0 0 1.3-5.4.5-7.5l5.7 7s-1.3-5.3.8-6.8 6.6-5.3 6.6-5.3l-1.3 4.2s4-2.5 6.6-8.1c0 0 .4 2.1 1.3 3.8 0 0 .4-6.2 1.9-8.5s5.9-6.4 6.6-9.3c0 0 .4 4-1.9 7.8 0 0 4.4-3.4 5.1-6.8.8-3.4 1.3-7.4-1.5-11.9 0 0 2.9.4 4.8 3.3 0 0 1.4-5.7-7.1-8.3 0 0 5.1-1.8 5.7-5.9 0 0-4.4 2.9-7.3 2.3s-5.5-.8-5.5-.8 4.5-3.4 6.2-5.5c0 0-7.9 2.8-9.7 1.5l2.4-3s-6.1 1.3-9.5 0c0 0-1.5 2.4-1.8 7.5-.3 5.1-7.8 8.9-7.8 8.9l5.7-.3s-.6 1.6-3.3 3.1c-2.7 1.5-5.3 1.4-5.3 1.4s2.1 1.8 3.9 2.2c0 0-5.4 1.9-6.5 4.5 0 0-2.4-6.9-7.2-8.4 0 0 3.2-.4 4.9-.2 0 0-6.1-4.4-10.4-4.4-.4 0 4.6-1.3 5.1-1.9 0 0-4.9-.1-5.8-2.8l3-.6-1.6-.8c-1.9-.9-3.3-2-3.8-4l-.4-3.6z" fill="#815da0" stroke-width="none" opacity="1" stroke="none"></path><path id="SvgjsPath22100" d="M85.6 154s-7.3-1.3-13.4-.1c.6.1 1.7.5 2.7 1.5 1.2 1.1 1.6 2.4 1.8 3-1.3-.8-3-1.6-5.1-2.2-3-.9-7-1.4-10.9.1 0 0 3.8.7 5.5 1.6s-7.5 1.9-11.5.2c0 0 3.2 4 8.3 3.8 0 0-6.3 3.3-7.3 6.1l8.1-2s-5.1 3.9-4.9 9.2c0 0 2.2-3.5 4.5-4.6 0 0-4.2 7.8.7 15.4 0 0-.2-4.4.8-6.6 0 0 0 12.7 10.4 19.1 0 0-1.7-4.2-1.5-6.1 0 0 6.2 11.6 17.6 14.9l-1.9-6.1s3.7 1.3 7.3 4.3c3.6 3 5.4 8.4 5.4 8.4s1.3-6.5-.6-10.1c0 0 3.8 4 4.9 7.4 0 0 1.3-5.4.5-7.5l5.7 7s-1.3-5.3.8-6.8 6.6-5.3 6.6-5.3l-1.3 4.2s4-2.5 6.6-8.1c0 0 .4 2.1 1.3 3.8 0 0 .4-6.2 1.9-8.5s5.9-6.4 6.6-9.3c0 0 .4 4-1.9 7.8 0 0 4.4-3.4 5.1-6.8.8-3.4 1.3-7.4-1.5-11.9 0 0 2.9.4 4.8 3.3 0 0 1.4-5.7-7.1-8.3 0 0 5.1-1.8 5.7-5.9 0 0-4.4 2.9-7.3 2.3s-5.5-.8-5.5-.8 4.5-3.4 6.2-5.5c0 0-7.9 2.8-9.7 1.5l2.4-3s-6.1 1.3-9.5 0c0 0-1.5 2.4-1.8 7.5-.3 5.1-7.8 8.9-7.8 8.9l5.7-.3s-.6 1.6-3.3 3.1c-2.7 1.5-5.3 1.4-5.3 1.4s2.1 1.8 3.9 2.2c0 0-5.4 1.9-6.5 4.5 0 0-2.4-6.9-7.2-8.4 0 0 3.2-.4 4.9-.2 0 0-6.1-4.4-10.4-4.4-.4 0 4.6-1.3 5.1-1.9 0 0-4.9-.1-5.8-2.8l3-.6-1.6-.8c-1.9-.9-3.3-2-3.8-4l-.4-3.6z" fill="#ffffff" stroke-width="none" opacity=".85"></path><path id="SvgjsPath22101" d="M69.5 174.1c.1 2.9 1.6 5.7 3.9 7.3-1.8-2.1-2.8-4.7-2.9-7.3s.8-5.2 2.4-7.5c-2.2 1.7-3.5 4.6-3.4 7.5zM85 191c.3 1.2.2 2.5-.2 3.7-.4 1.2-1.3 2.3-2.5 2.9 1.3-.3 2.5-1.3 3.2-2.6.7-1.3.8-2.8.5-4.2-.3-1.4-1-2.7-1.8-3.8-.9-1.1-1.9-2-3.1-2.7.9 1.1 1.7 2.1 2.4 3.2s1.2 2.3 1.5 3.5zm11.8 5.9c1.3.9 3 1.3 4.6.9-1.5-.4-2.8-.9-4-1.7-1.2-.8-2.3-1.7-3.3-2.9.3 1.5 1.4 2.9 2.7 3.7zm-29.4-34.1c.7.2 1.4.1 2.1-.1.7-.2 1.2-.5 1.8-.9.5-.4 1-.9 1.3-1.4-1.2.5-2.2 1.1-3.3 1.4-.5.2-1.1.3-1.6.2-.6 0-1.1-.2-1.7-.5.2.7.7 1.1 1.4 1.3zm8 27.4c.6 0 1.2-.1 1.7-.5s1-.9 1.1-1.6c.1-.7 0-1.3-.2-1.9l-.3-.9-.3-.8c-.4-1-.8-2.1-1-3.1-.2-1.1-.2-2.2.4-3.2-.5.3-.8.9-1 1.5-.2.6-.2 1.2-.2 1.8 0 1.2.4 2.4.8 3.4.1.3.2.5.4.8l.3.7c.2.5.3 1 .3 1.5 0 1.1-.9 1.9-2 2.3zm56.7-21.8c.1 1.2 0 2.5-.1 3.9.4-.6.7-1.2.9-1.9.2-.7.2-1.4.2-2.1 0-.7-.2-1.4-.5-2-.3-.6-.7-1.2-1.3-1.6.2.7.4 1.3.5 1.9.2.6.3 1.2.3 1.8zm-7.3 13c.2-.8.4-1.5.7-2.2.3-.7.6-1.3 1.1-1.9.5-.6 1.1-1 1.9-1.2-.8-.2-1.7.1-2.4.7s-1.2 1.3-1.5 2.1c-.2.4-.3.8-.4 1.2-.1.4-.2.8-.2 1.2-.1.8 0 1.6.2 2.4.3-.8.4-1.5.6-2.3zm48.9-2.4c-.2-1-.7-2.1-1.3-3-.6-.8-1.3-1.4-2-1.9-.1-.1-.1-.3-.2-.4-.1-.3-.3-.5-.5-.7-.4-.4-.8-.7-1.2-1-.8-.5-1.7-.8-2.5-1-1.7-.4-3.4-.4-5-.4-3.1.1-6.3-.1-9.5-.3-2.6-.2-7.7-.6-9.6-.8-.4-.9-.9-1.7-1.6-2.4-.7-.8-1.6-1.3-2.5-1.8-.5-.2-.9-.4-1.4-.6l-.3-.1c.3-.1.6-.3.9-.5.6-.4 1.2-.8 1.8-1.3.6-.5 1-1.1 1.4-1.8.4-.7.6-1.4.8-2.2l.2-1-.9.6c-.9.6-1.9 1.1-2.9 1.5-1 .4-2 .7-3.1.8-.5 0-.9 0-1.5-.2l-1.7-.3c-.7-.1-1.5-.2-2.2-.3.8-.6 1.6-1.2 2.3-1.9 1.1-.9 2.1-1.8 3-2.9l1.1-1.3-1.7.6c-1.6.5-3.1 1-4.7 1.4-.8.2-1.6.3-2.4.4-.5.1-1.1.1-1.6 0l2-2.5.9-1.1-1.3.3c-1.5.3-3.1.5-4.7.6-1.6.1-3.1 0-4.5-.5l-.4-.1-.2.4c-.9 1.6-1.3 3.2-1.6 4.9-.1.8-.2 1.7-.3 2.5 0 .4-.1.8-.2 1.2-.1.4-.2.8-.4 1.1-.7 1.4-1.8 2.7-3 3.7-1.2 1.1-2.6 2-4 2.8l-1.7.9 1.9-.1 4.9-.2c-.3.4-.7.8-1.1 1.2-.6.5-1.3 1-2 1.4-.7.4-1.5.6-2.3.8-.8.2-1.6.3-2.4.3h-1.1l.8.7c.6.5 1.2.9 1.9 1.4l1.2.6c-1 .4-1.9.8-2.8 1.4-.6.4-1.2.8-1.7 1.2-.3.3-.7.7-1 1.1-.3-.7-.6-1.4-.9-2-.5-.8-1-1.7-1.6-2.4-.6-.8-1.3-1.5-2-2.1-.5-.4-1-.7-1.5-1 .4 0 .9-.1 1.3-.1.8 0 1.6-.1 2.4 0l1 .1-.8-.6c-1.2-.8-2.4-1.5-3.7-2.2-1.3-.6-2.6-1.2-3.9-1.6-.6-.2-1.2-.3-1.9-.4l.2-.1 2-.7c.3-.1.7-.2 1-.4.3-.1.7-.2 1-.5l.4-.3h-.5c-1.1-.1-2.2-.2-3.3-.6-1-.3-1.9-1-2.3-1.9l2.8-.6.3-.1-.3-.2c-1.6-.8-3.4-1.5-4.5-2.9-.6-.7-.9-1.5-1-2.4l-.5-2.7c-1.2-.2-2.2-.3-3.4-.5-1.1-.1-2.2-.2-3.4-.2-2.2-.1-4.5 0-6.7.4l-.7.1.6.2c2 .5 3.6 2.1 4.2 4-1.1-.6-2.2-1.1-3.3-1.6-1.3-.5-2.7-.9-4.1-1.1-2.8-.5-5.7-.4-8.3.7l-.9.3.9.2c1.5.3 2.9.6 4.3 1.1.3.1.7.3 1 .4h.1c-.1 0-.2.1-.2.1-.7.2-1.4.3-2.2.4-1.5.1-3 .2-4.5.1s-3-.3-4.3-.9l-1.3-.5.9 1c.5.6 1.1 1.2 1.8 1.7s1.3.9 2.1 1.2c.7.4 1.5.6 2.3.8.4.1.8.1 1.2.2-1.1.6-2.1 1.2-3.1 2-.7.5-1.3 1-1.9 1.6-.6.6-1.2 1.2-1.5 2.1l-.2.6.7-.2 6.6-1.6c-.3.3-.5.6-.8.8-.6.7-1.2 1.4-1.6 2.2-.5.8-.8 1.7-1.1 2.6-.2.8-.3 1.6-.3 2.4-.7.2-1.3.4-1.4.4-2.9.8-5.8 1.6-8.7 2-1.5.1-3 .4-4.5.8s-2.9.8-4.3 1.3-2.9 1-4.2 1.6c-.7.3-1.4.6-2.1 1.1-.3.2-.7.4-1 .7-.2.2-.5.4-.7.9-.4.1-.6.3-.9.5-.4.3-.7.6-1 .9-.5.7-.9 1.5-1.1 2.3-.2.8-.4 1.7-.4 2.5s.1 1.6.2 2.4c.4 3.1 1.2 6.1 2.1 9.1l1.3 4.4c.5 1.4.7 2.9.9 4.4.4 3 .6 6.1.7 9.1v.9h.9c11.4 0 22.8-.1 34.1-.2 11.4-.1 22.8-.3 34.1-.3 5.7-.1 11.4 0 17.1 0 5.7 0 11.4 0 17.1.1l34.1.4h.7l.1-.7c.6-3.8 1-7.6 1.4-11.4.4-3.8.6-7.7.7-11.5v-5.7c0-1.9.1-3.8.2-5.7.2-2.4.3-4.3-.1-6.4zm-114-6.3c.2-.8.6-1.6 1-2.4s1-1.5 1.5-2.1c.6-.7 1.2-1.3 1.9-1.8l1.4-1.1-1.8.4-7.3 1.8c.2-.4.6-.8.9-1.1.5-.6 1.2-1.1 1.8-1.5 1.3-.9 2.6-1.8 4-2.6l1.2-.7H63c-.8 0-1.5 0-2.3-.2-.7-.1-1.5-.4-2.2-.7s-1.3-.7-2-1.2c-.3-.2-.5-.4-.8-.6 1.1.3 2.2.4 3.2.5 1.5.1 3 .1 4.6-.1.8-.1 1.5-.2 2.3-.4.2-.1.4-.1.6-.4.1-.1.1-.2.1-.4s-.1-.2-.2-.3c-.1-.1-.2-.2-.3-.2-.3-.2-.7-.3-1.1-.5-1.1-.4-2.3-.7-3.5-.9 2.3-.7 4.8-.8 7.1-.4 1.3.2 2.7.6 4 1s2.6 1 3.7 1.7l.4.2-.1-.5c-.3-1.1-.9-2.1-1.7-2.9-.7-.7-1.5-1.2-2.4-1.5 2-.3 4.1-.5 6.1-.4 1.1 0 2.2.1 3.4.2 1.1.1 2.3.2 3.3.4l.5 2.6c.1.9.5 1.8 1 2.5.6.7 1.3 1.3 2.1 1.8.7.4 1.4.8 2.1 1.1l-2.6.5h-.2l.1.2c.4 1.1 1.5 1.9 2.6 2.2.9.3 1.8.5 2.7.6-.4.2-.9.4-1.4.5l-2 .6-1 .3-.1.1h-.1l-.1.1c-.1 0-.1.2-.1.2 0 .1 0 .1.1.1s.1.1.2.1h.8c.7.1 1.4.2 2 .4 2.3.8 4.5 1.9 6.6 3.3h-1.5c-.8 0-1.7.1-2.5.2l-1.3.1 1.2.4c.9.3 1.7.8 2.4 1.4.7.6 1.3 1.3 1.9 2 1.1 1.5 2 3.2 2.7 4.9l.3.8.3-.8c.2-.6.7-1 1.2-1.5.5-.4 1-.8 1.6-1.1 1.1-.7 2.4-1.2 3.6-1.7l1.2-.4-1.2-.3c-1.1-.2-2.1-.8-3-1.5.5-.1 1-.1 1.6-.2.8-.2 1.7-.5 2.5-.9s1.5-.9 2.2-1.4c.7-.6 1.3-1.2 1.7-2.1l.3-.6h-.7l-3.9.2c.9-.6 1.8-1.2 2.7-2 1.3-1.1 2.5-2.4 3.2-4 .2-.4.3-.8.5-1.3.1-.4.2-.9.2-1.3l.3-2.4c.3-1.5.7-3 1.3-4.3 1.5.4 3 .5 4.5.5 1.2-.1 2.4-.2 3.5-.4l-1.6 2-.3.4.4.3c.5.3 1 .4 1.4.4h1.3c.9-.1 1.7-.2 2.5-.4 1-.2 2-.5 3-.8-.5.5-1.1 1-1.6 1.5-1 .9-2.1 1.8-3.2 2.6l-1 .8 1.2.1c1.1.1 2.2.2 3.3.4l1.6.3c.5.1 1.2.2 1.8.2 1.2-.1 2.3-.4 3.4-.9.7-.3 1.4-.6 2-1-.1.3-.2.5-.4.8-.3.6-.8 1.1-1.3 1.5-.5.5-1.1.9-1.6 1.2-.6.4-1.2.7-1.8.9l-1.2.4 1.2.4 1.4.5c.4.2.9.4 1.3.6.8.5 1.7 1 2.3 1.7.7.7 1.2 1.4 1.5 2.3.2.5.3 1 .3 1.5-.4-.5-.9-.9-1.4-1.2-.4-.3-.9-.6-1.4-.8-.5-.2-1-.4-1.5-.5l-1-.2.5.9c.9 1.4 1.6 3 1.9 4.7.3 1.7.2 3.4-.1 5.1-.1.8-.3 1.7-.6 2.5s-.7 1.5-1.2 2.2c-.6.8-1.2 1.5-1.9 2.2.2-.6.4-1.2.5-1.8.2-.7.3-1.4.3-2.1.1-.7.1-1.4 0-2.1l-.2-2.4-.7 2.3c-.4 1.5-1.5 2.9-2.5 4.2-1 1.3-2.2 2.6-3.2 3.9-.3.3-.5.7-.8 1l-.6 1.2c-.3.8-.5 1.7-.7 2.5-.2 1.2-.4 2.5-.5 3.8-.3-.8-.6-1.7-.8-2.5l-.2-1-.4.9c-.7 1.6-1.7 3.1-2.7 4.4-.5.7-1.1 1.3-1.8 1.9-.4.4-.8.8-1.3 1.1l1-3.3.3-.9-.8.6-6.1 4.9c-.3.2-.5.4-.8.6-.3.2-.5.6-.6.9-.3.6-.4 1.3-.4 2-.1 1 0 2 .2 3l-5.1-6.2-.8-1 .4 1.2c.2.6.2 1.2.2 1.8 0 .6 0 1.2-.1 1.9-.1 1-.3 2.1-.5 3.1-.5-1.2-1.2-2.3-1.9-3.3-.9-1.2-1.8-2.4-2.8-3.5l-.9-.9.6 1.1c.8 1.5 1 3.2 1 4.9 0 1.5-.1 3-.3 4.5-.5-1.3-1.1-2.5-1.8-3.7-.8-1.4-1.7-2.6-2.8-3.7-1.2-1.1-2.4-2-3.8-2.8-1.3-.8-2.7-1.5-4.2-2.1l-.4-.1.1.4 1.7 5.7c-1.7-.6-3.4-1.2-4.9-2.2-1.7-1-3.3-2.1-4.7-3.4-1.4-1.3-2.8-2.7-4-4.2-1.2-1.5-2.4-3.1-3.3-4.8l-.5-.8-.1.9c-.1.6 0 1.1.1 1.6s.2 1.1.4 1.6c.2.7.4 1.4.7 2.1-1.2-.9-2.4-1.8-3.4-3-1.2-1.4-2.3-2.9-3.2-4.6-.8-1.6-1.5-3.4-2-5.2-.5-1.8-.8-3.7-.8-5.5l-.1-1.9-.7 1.7c-.4 1.1-.6 2.3-.7 3.4 0 .6-.1 1.2-.1 1.8-.4-.7-.7-1.4-.9-2.2-.2-.6-.3-1.3-.5-1.9-.1-.6-.2-1.3-.2-1.9 0-1.3.1-2.6.4-3.9.3-1.3.7-2.5 1.3-3.7l.6-1.2-1.2.6c-1.1.6-1.9 1.3-2.6 2.1-.4.4-.8.9-1.1 1.4.8.1.9-.2 1-.6zm1.6.3c.4-.4.8-.8 1.2-1.1-.2.7-.4 1.3-.6 2-.4.1-1.1.3-1.8.6.4-.6.7-1.1 1.2-1.5zm7.1 45.5c-4.7-.1-9.4-.1-14.2-.1 0-3-.1-6.1-.5-9.1-.1-.8-.2-1.7-.4-2.5l-.1-.6-.2-.7c-.1-.5-.3-.8-.5-1.2-.8-1.6-1.7-3-2.7-4.4-2-2.8-4.2-5.3-6.6-7.7-1.2-1.2-2.5-2.3-3.8-3.4-1.3-1-2.8-2.1-4.4-2.6 1.4.9 2.6 2.1 3.7 3.3 1.2 1.2 2.2 2.4 3.3 3.7 2.1 2.5 4.2 5.1 6.1 7.8 1 1.3 1.9 2.7 2.6 4.1.2.3.4.7.5 1l.2.5.2.6.6 2.4 1.8 8.8c-6.3 0-12.6-.1-18.9-.1-.1-2.8-.3-5.6-.8-8.4-.2-1.5-.5-3.1-1-4.6l-1.4-4.4c-.9-2.9-1.7-5.9-2.1-8.8-.1-.7-.2-1.5-.2-2.2 0-.7.1-1.4.3-2.1.2-.7.5-1.3.9-1.8.2-.3.4-.5.7-.7.2-.2.6-.3.7-.4l.6-.6s.2-.3.4-.5.5-.4.8-.6c.6-.4 1.2-.7 1.9-1 1.3-.6 2.7-1.2 4.1-1.7 2.8-1 5.6-1.9 8.6-2.2 3-.5 5.9-1.4 8.7-2.4.3-.1.7-.2 1.2-.4v1.1l.8-1.2c.1-.1.1-.2.2-.3.8-.3 1.6-.5 2.2-.7-.3 1.3-.4 2.6-.3 4 0 .7.1 1.4.2 2.1.2.7.3 1.4.5 2 .4 1.3 1 2.6 1.8 3.7l.8 1.3-.1-1.6c0-1.1 0-2.2.1-3.3 0-.3.1-.6.1-1 .2 1.1.4 2.2.7 3.4.5 1.9 1.2 3.6 2.1 5.4.9 1.7 2 3.3 3.3 4.7 1.3 1.5 2.8 2.6 4.4 3.7l.8.6-.4-1c-.4-1-.7-1.9-1-2.9-.2-.5-.3-1-.4-1.5 0-.1 0-.2-.1-.3.8 1.3 1.8 2.6 2.8 3.8 1.3 1.5 2.6 2.9 4.1 4.3 1.5 1.3 3.1 2.5 4.8 3.5 1.7 1 3.6 1.7 5.5 2.3l.4.1-.1-.4-1.8-5.7c1.3.5 2.6 1.2 3.8 1.9 1.3.8 2.6 1.7 3.7 2.8.4.4.8.9 1.2 1.4l1.5 11.4c-10.6-.3-21.2-.4-31.7-.6zm103.5-33.6c-.1 1.9-.2 3.8-.2 5.8v5.7c0 3.8-.3 7.6-.6 11.4-.3 3.6-.7 7.1-1.1 10.7l-18.4.2c1-3.6 1.9-7.2 2.7-10.8.9-3.9 1.7-7.7 2.7-11.6.4-1.9.9-3.9 1.5-5.6.6-1.8 1.5-3.5 2.5-5.2 1-1.6 2.1-3.2 3.4-4.8 1.2-1.5 2.5-3 4-4.4-1.7 1-3.2 2.4-4.7 3.8-1.4 1.4-2.8 2.9-3.9 4.6-1.2 1.6-2.2 3.4-3 5.4-.8 2-1.2 3.9-1.7 5.8-.9 3.9-1.6 7.8-2.2 11.7-.6 3.7-1 7.3-1.3 11.1l-14.9.1c-5.7.1-11.4.1-17.1.1h-12.3l-.6-7.2.1-.5c.3-1.2.5-2.5.7-3.8.1-.6.1-1.3.1-1.9 0-.3 0-.7-.1-1l5.1 6.3.7.8-.2-1c-.3-1.2-.4-2.5-.4-3.8 0-.6.1-1.3.4-1.8.2-.6.7-.9 1.2-1.3l5.4-4.3-1.1 3.2-.3.8.7-.5c.8-.5 1.4-1.1 2.1-1.7.7-.6 1.3-1.3 1.8-2 .9-1.1 1.7-2.4 2.4-3.7.3 1 .6 2 1.1 3l.6 1.1.1-1.2c.1-1.7.3-3.3.7-5 .2-.8.4-1.6.7-2.4.1-.4.3-.7.5-1.1.2-.3.5-.7.7-1 1.1-1.3 2.2-2.6 3.2-3.9.6-.8 1.2-1.6 1.8-2.5-.1.6-.2 1.2-.3 1.9-.3 1.3-.8 2.5-1.5 3.6l-1.3 2.2 1.9-1.6c1.4-1.1 2.6-2.4 3.7-3.9.5-.7 1-1.5 1.3-2.4.3-.9.4-1.8.6-2.6.3-1.8.4-3.6.1-5.4-.2-1.4-.8-2.8-1.4-4 .1 0 .2.1.3.1.4.2.8.4 1.2.7.8.5 1.4 1.2 1.9 2l.6 1 .2-1.1c.1-.5.1-.9.1-1.4 1.7.2 6.3.6 9 .8 3.2.2 6.4.4 9.7.3 1.5 0 3.1.1 4.5.4.7.2 1.4.4 1.9.7.3.2.5.4.7.5.1.1.2.2.2.3 0 .1 0 .1.1.1 0 0 0 .1 0 0l.5.8c.7.5 1.4 1 1.8 1.7.5.6.8 1.4 1 2.2.6 1.7.5 3.6.4 5.5z" fill="#3e1262" stroke-width="none" opacity="1" stroke="none"></path></g><g id="svga-group-head" transform="matrix(1,0,0,1,0,0)"><g id="svga-group-ears-left-move" transform="matrix(1,0,0,1,0,0)"><g id="svga-group-ears-left" transform="matrix(1,0,0,1,0,0)"><path id="SvgjsPath21923" d="M61.04 91.08s-5.83-5.5-11.22-8.06c0 0-2.8.42-6.02 3.31 0 0 2.24 4.78 4.24 7.15s4.83 10.33 5.06 12.61c.23 2.28-.7 6.43-.57 7.76.13 1.34 3.12 1.44 3.12 1.44s5.5-3.12 8.94-7.93c-.01-.01-1.05-8.96-3.55-16.28z" fill="#ffd0bc" stroke-width="none" opacity="1" stroke="none"></path><path id="SvgjsPath21924" d="M61.34 97.94c.04-.27-8.21-9.91-14.16-11.02 0 0 1.66 5.41 2.79 7.19 1.12 1.78 4.76 10.6 4.44 15.1 0 0 3.82-2.19 5.96-3.95-.01 0 .52-4.18.97-7.32z" fill="#f0b399" stroke-width="none" opacity="1" stroke="none"></path><path id="SvgjsPath21925" d="m43.59 86.1-.17.15.1.2c.63 1.26 1.3 2.48 2.02 3.69.72 1.2 1.5 2.38 2.41 3.45.85 1.07 1.48 2.33 2.06 3.59.56 1.27 1.07 2.57 1.53 3.88.44 1.32.85 2.65 1.15 4 .34 1.33.15 2.7 0 4.08-.16 1.38-.42 2.74-.52 4.18-.01.18-.01.37.01.57.04.24.13.47.27.65.29.35.66.54 1.01.68.72.27 1.42.38 2.16.43l.1.01.09-.05c1.76-1.03 3.4-2.22 4.93-3.56.77-.66 1.49-1.37 2.19-2.12.7-.74 1.33-1.54 1.94-2.36l.09-.12-.02-.14a95.27 95.27 0 0 0-1.51-8.23 92.39 92.39 0 0 0-1.04-4.05c-.39-1.33-.84-2.66-1.32-3.97-.83-.84-1.68-1.6-2.55-2.37-.87-.77-1.77-1.49-2.69-2.2-1.84-1.42-3.78-2.71-5.88-3.75l-.09-.04-.09.02c-.63.11-1.17.3-1.73.52-.55.22-1.09.48-1.6.78-.51.3-1.01.62-1.48.98-.48.33-.93.71-1.37 1.1zm.59.31c.38-.32.76-.63 1.16-.92.46-.34.94-.64 1.43-.92.5-.27 1-.53 1.52-.74.49-.2 1.01-.38 1.5-.48.99.48 1.96 1.02 2.91 1.6.97.62 1.94 1.24 2.87 1.9.94.67 1.85 1.37 2.77 2.07.91.7 1.81 1.45 2.68 2.18.39 1.33.75 2.66 1.06 4.02.32 1.35.62 2.7.87 4.07.51 2.67.94 5.37 1.25 8.06-.56.75-1.15 1.48-1.81 2.16-.68.72-1.39 1.41-2.14 2.05-1.47 1.26-3.04 2.45-4.69 3.45-.62-.04-1.27-.13-1.83-.34-.29-.11-.57-.26-.72-.45a.69.69 0 0 1-.14-.3c-.01-.14-.02-.31-.01-.47.06-1.35.28-2.75.41-4.14.11-1.38.24-2.85-.16-4.24-.35-1.36-.81-2.69-1.3-4-.48-1.31-1-2.61-1.59-3.88-.58-1.27-1.17-2.55-2.04-3.68-.86-1.08-1.57-2.28-2.24-3.49-.63-1.15-1.21-2.33-1.76-3.51z" fill="#f0b399" stroke-width="none" opacity="1" stroke="none"></path><path id="SvgjsPath21926" d="M52.51 91.07c.88.94 1.65 1.98 2.36 3.05.71 1.07 1.38 2.16 1.98 3.3.61 1.13 1.17 2.28 1.65 3.46l-.07.03c-.65-1.1-1.32-2.18-1.99-3.26-.69-1.07-1.36-2.14-2.1-3.17-.74-1.03-1.48-2.05-2.28-3.02-.67-.82-1.38-1.61-2.19-2.29l1.66 3.8a76.96 76.96 0 0 1 1.81 4.41c.56 1.49 1.02 3.02 1.38 4.59.25 1.1.46 2.22.51 3.37a7.534 7.534 0 0 0 .84-3c-.44-1.61-.88-3.21-1.27-4.84l.07-.02c.62 1.57 1.18 3.17 1.75 4.76l.01.04v.05c-.01.82-.15 1.65-.41 2.43-.12.39-.28.78-.46 1.15-.18.38-.38.72-.64 1.09l-.77 1.07.09-1.34c.1-1.51-.17-3.07-.47-4.6-.31-1.53-.74-3.05-1.21-4.56-.46-1.51-.95-3.01-1.51-4.5-.58-1.47-1.18-2.94-1.91-4.34l-.25-.48.47.3c1.12.69 2.07 1.58 2.95 2.52z" fill="#d17f5b" stroke-width="none" opacity="1" stroke="none"></path></g></g><g id="svga-group-ears-right-move" transform="matrix(1,0,0,1,0,0)"><g id="svga-group-ears-right" transform="matrix(1,0,0,1,0,0)"><path id="SvgjsPath21927" d="M138.96 91.08s5.83-5.5 11.22-8.06c0 0 2.8.42 6.02 3.31 0 0-2.24 4.78-4.24 7.15s-4.83 10.33-5.06 12.61c-.23 2.28.7 6.43.57 7.76-.13 1.34-3.12 1.44-3.12 1.44s-5.5-3.12-8.94-7.93c.01-.01 1.05-8.96 3.55-16.28z" fill="#ffd0bc" stroke-width="none" opacity="1" stroke="none"></path><path id="SvgjsPath21928" d="M138.66 97.94c-.04-.27 8.21-9.91 14.16-11.02 0 0-1.66 5.41-2.79 7.19-1.12 1.78-4.76 10.6-4.44 15.1 0 0-3.82-2.19-5.96-3.95.01 0-.52-4.18-.97-7.32z" fill="#f0b399" stroke-width="none" opacity="1" stroke="none"></path><path id="SvgjsPath21929" d="M155.04 84.98c-.47-.35-.97-.67-1.48-.98-.51-.3-1.05-.56-1.6-.78-.56-.22-1.11-.41-1.73-.52l-.09-.02-.09.04c-2.1 1.04-4.05 2.33-5.88 3.75-.92.71-1.82 1.43-2.69 2.2-.87.77-1.72 1.54-2.55 2.37-.48 1.31-.93 2.64-1.32 3.97-.38 1.34-.73 2.69-1.04 4.05-.62 2.72-1.12 5.46-1.51 8.23l-.02.14.09.12c.61.82 1.24 1.62 1.94 2.36.7.74 1.42 1.45 2.19 2.12 1.53 1.34 3.16 2.53 4.93 3.56l.09.05.1-.01c.74-.05 1.45-.16 2.16-.43.35-.14.72-.33 1.01-.68.14-.18.24-.41.27-.65.02-.2.02-.39.01-.57-.09-1.44-.36-2.8-.52-4.18-.15-1.38-.34-2.75 0-4.08.3-1.35.71-2.68 1.15-4 .46-1.31.97-2.61 1.53-3.88.58-1.26 1.21-2.52 2.06-3.59.91-1.08 1.68-2.25 2.41-3.45.72-1.2 1.39-2.43 2.02-3.69l.1-.2-.17-.15c-.44-.37-.89-.75-1.37-1.1zm-.97 4.94c-.67 1.21-1.37 2.42-2.24 3.49-.87 1.13-1.47 2.41-2.04 3.68-.58 1.27-1.11 2.57-1.59 3.88-.49 1.31-.94 2.63-1.3 4-.4 1.39-.27 2.85-.16 4.24.13 1.39.35 2.79.41 4.14.01.17 0 .33-.01.47-.02.11-.06.21-.14.3-.15.19-.43.34-.72.45-.56.21-1.21.3-1.83.34-1.65-1-3.22-2.19-4.69-3.45-.75-.64-1.46-1.33-2.14-2.05-.65-.68-1.24-1.41-1.81-2.16.31-2.69.74-5.39 1.25-8.06.25-1.36.55-2.72.87-4.07.31-1.36.67-2.69 1.06-4.02.87-.73 1.77-1.48 2.68-2.18.91-.7 1.83-1.41 2.77-2.07.94-.67 1.91-1.29 2.87-1.9.95-.58 1.92-1.12 2.91-1.6.49.1 1.01.28 1.5.48.52.22 1.02.47 1.52.74.49.28.97.58 1.43.92.4.29.78.6 1.16.92-.56 1.18-1.14 2.36-1.76 3.51z" fill="#f0b399" stroke-width="none" opacity="1" stroke="none"></path><path id="SvgjsPath21930" d="M147.49 91.07c-.88.94-1.65 1.98-2.36 3.05-.71 1.07-1.38 2.16-1.98 3.3-.61 1.13-1.17 2.28-1.65 3.46l.07.03c.65-1.1 1.32-2.18 1.99-3.26.69-1.07 1.36-2.14 2.1-3.17.74-1.03 1.48-2.05 2.28-3.02.67-.82 1.38-1.61 2.19-2.29l-1.66 3.8a76.96 76.96 0 0 0-1.81 4.41c-.56 1.49-1.02 3.02-1.38 4.59-.25 1.1-.46 2.22-.51 3.37a7.534 7.534 0 0 1-.84-3c.44-1.61.88-3.21 1.27-4.84l-.07-.02c-.62 1.57-1.18 3.17-1.75 4.76l-.01.04v.05c.01.82.15 1.65.41 2.43.12.39.28.78.46 1.15.18.38.38.72.64 1.09l.77 1.07-.09-1.34c-.1-1.51.17-3.07.47-4.6.31-1.53.74-3.05 1.21-4.56.46-1.51.95-3.01 1.51-4.5.58-1.47 1.18-2.94 1.91-4.34l.25-.48-.47.3c-1.12.69-2.07 1.58-2.95 2.52z" fill="#d17f5b" stroke-width="none" opacity="1" stroke="none"></path></g></g><g id="svga-group-faceshape-wrap" transform="matrix(1,0,0,1,0,0)"><g id="svga-group-faceshape-single"><path id="SvgjsPath21959" d="M135.9 49.8c-6.7-7.4-11.3-13.2-28.8-17.3-1.8-.4-12.3-.4-14.1 0-17.5 4.1-22.1 9.9-28.8 17.3-7.1 7.8-9.5 29-9.5 29 0 21.4 2.7 35.2 5 41.3 2.3 6.2 21.1 25.2 24.9 27s15.5 2.3 15.5 2.3 11.6-.6 15.5-2.3c3.8-1.8 22.6-20.8 24.9-27s5.1-19.9 5-41.3c-.1 0-2.5-21.2-9.6-29z" fill="#ffd0bc" stroke-width="none" opacity="1" stroke="none"></path><path id="SvgjsPath21960" d="M107.1 32.5c-1.8-.4-12.3-.4-14.1 0-17.5 4.1-22.1 9.9-28.8 17.3-7.1 7.8-9.5 29-9.5 29 0 21.4 2.7 35.2 5 41.3 2.3 6.2 21.1 25.2 24.9 27s15.5 2.3 15.5 2.3 11.6-.6 15.5-2.3c3.8-1.8 22.6-20.8 24.9-27s5.1-19.9 5-41.3c0 0-2.4-21.2-9.5-29-6.8-7.4-11.4-13.2-28.9-17.3zm35 31.2c.7 2.5 1.2 5 1.6 7.5.4 2.5.8 5 1 7.5-.1 3.9-.3 7.8-.7 11.7l-.3 2.9-.3 2.9-.3 2.9-.4 2.9c-.6 3.9-1.2 7.7-2.1 11.4-.5 1.9-1 3.7-1.6 5.5-.81 1.95-2.2 3.8-2.7 4.6-1.2 1.5-2.4 3-3.7 4.5-1.3 1.5-2.6 2.9-3.9 4.4-2.6 2.9-5.4 5.6-8.2 8.3-1.4 1.3-2.8 2.7-4.3 3.8-.4.3-1.22.92-2.1 1.3-.8.3-1.7.5-2.6.7-1.8.4-3.8.6-5.7.9-1.9.2-3.8.4-5.7.5-1.9-.1-3.8-.2-5.7-.4-1.9-.2-3.9-.4-5.7-.7-.9-.2-2.76-.53-4.8-1.9-1.5-1.1-3-2.4-4.4-3.7-2.9-2.6-5.7-5.3-8.4-8.2-2.7-2.8-5.4-5.7-7.8-8.8-.6-.8-1.2-1.5-1.7-2.3-.3-.4-.5-.8-.7-1.2l-.3-.6c-.1-.2-.2-.4-.3-.7-.7-1.8-1.2-3.7-1.7-5.6s-.9-3.8-1.2-5.7c-.2-1-.3-1.9-.5-2.9l-.4-2.9c-1-7.8-1.2-15.6-1.1-23.4.7-4.6 1.7-9.3 3-13.7.7-2.2 1.4-4.5 2.3-6.6.4-1.1.9-2.1 1.4-3.1s1.1-2 1.7-2.9c1.87-2.75 3.8-4.3 4.6-5.2 1.6-1.7 3.3-3.3 5-4.7 1.8-1.4 3.7-2.6 5.7-3.7s4.1-2 6.3-2.8l1.6-.6c.5-.2 5.91-1.79 8.3-2.1 1.2-.1 2.3-.1 3.5-.2 2.3-.1 4.65-.14 6.95-.14.1 0 3.35.64 3.35.64l1.8.4 1.7.4c2.3.6 4.5 1.3 6.7 2.3.3.1.5.2.8.3l.8.4c.5.3 1.1.5 1.6.8l1.5.9 1.5.9c2 1.3 3.8 2.8 5.4 4.5 1.7 1.7 3.3 3.4 4.9 5.2 1.7 1.9 2.9 4.2 3.9 6.6 1 2.3 1.8 4.8 2.4 7.2z" fill="#d17f5b" stroke-width="none" opacity="1" stroke="none"></path></g></g><g id="svga-group-mouth-single-move" transform="matrix(1,0,0,1,0,0)"><g id="svga-group-mouth-single" transform="matrix(1,0,0,1,0,0)"><path id="SvgjsPath21912" d="M89.02 123.83s-.6 5.18-.37 5.77c.23.6.64 1.05 1.24 1.24s8.06-.96 10.72-.96 9.39.55 10.54.69 1.6-.78 1.47-1.97c-.14-1.19-1.33-5.22-1.51-5.73l-4.58-1.7-6.37 2.47-5.32-2.61-5.82 2.8z" fill="#A06B59" stroke-width="none" opacity="1" stroke="none"></path><path id="SvgjsPath21913" d="M90.14 131.04c-.14 0-.24-.01-.3-.03-.62-.19-1.09-.66-1.35-1.34-.24-.62.29-5.32.36-5.86l.01-.1 5.99-2.88 5.32 2.62 6.36-2.47 4.72 1.75.03.08c.18.49 1.38 4.56 1.52 5.77.09.79-.07 1.43-.45 1.81-.3.29-.71.42-1.21.36-1.12-.13-7.88-.69-10.52-.69-1.38 0-4.08.31-6.45.59-2.08.23-3.43.39-4.03.39zm-.95-7.09c-.23 1.99-.52 5.19-.37 5.59.16.41.48.93 1.12 1.13.25.08 2.34-.17 4.18-.38 2.38-.28 5.09-.59 6.49-.59 2.65 0 9.43.55 10.56.69.39.05.7-.04.92-.26.3-.3.43-.84.35-1.52-.13-1.14-1.23-4.88-1.48-5.61l-4.44-1.64-6.38 2.48-5.31-2.61-5.64 2.72z" fill="#81432e" stroke-width="none" opacity="1" stroke="none"></path><path id="SvgjsPath21914" d="M83.95 123.31s2 1.06 4.59.81c2.33-.22 5.23-1.74 5.81-1.8 1.23-.13 5.23 2.58 5.88 2.65.65.06 5.81-2.97 6.39-3.17.31-.1 3.22 1.23 5.86 1.73 2.36.44 4.48.05 4.48.05s-2.33-.64-4.65-1.62c-2.5-1.05-5.03-2.44-5.85-2.46-.9-.03-5.92 2.76-6.38 2.76-.45 0-3.5-2.98-4.71-2.97-.72.01-3.87 1.81-6.68 2.83-2.14.79-4.07.77-4.74 1.19z" fill="#915642" stroke-width="none" opacity="1" stroke="none"></path></g></g><g id="svga-group-eyes-left-move" transform="matrix(1,0,0,1,0,0)"><g id="svga-group-eyes-left" transform="matrix(1,0,0,1,0,0)"><g id="svga-group-eyesback-left"><path id="SvgjsPath22017" d="M80.2 77.2c7.5 0 13.5 5.8 13.5 13s-6 13-13.5 13-13.5-5.8-13.5-13 6-13 13.5-13z" fill="#ffffff" stroke-width="none" opacity="1"></path></g><g id="svga-group-eyesiriswrapper-left" transform="matrix(1,0,0,1,0,0)"><g id="svga-group-eyesiriscontrol-left" transform="matrix(1,0,0,1,0,0)"><g id="svga-group-eyesiris-left" transform="matrix(1,0,0,1,0,0)"><path id="SvgjsPath21973" d="M80.2 84.9c2.9 0 5.3 2.4 5.3 5.3s-2.4 5.3-5.3 5.3-5.3-2.4-5.3-5.3 2.4-5.3 5.3-5.3z" fill="#33597b" stroke-width="none" opacity="1" stroke="none"></path><path id="SvgjsPath21974" d="M80.2 95.8c-3.1 0-5.6-2.5-5.6-5.6s2.5-5.6 5.6-5.6 5.6 2.5 5.6 5.6c0 3.1-2.5 5.6-5.6 5.6zm0-10.6c-2.8 0-5.1 2.3-5.1 5.1s2.3 5.1 5.1 5.1 5.1-2.3 5.1-5.1c-.1-2.9-2.3-5.1-5.1-5.1z" fill="#143a5c" stroke-width="none" opacity="1" stroke="none"></path><path id="SvgjsPath21975" d="M85.3 90.2c-.7 0-1.3-.1-2 0 0-.3 0-.6-.1-.8.8-.1 1.5-.3 2.2-.6.2-.1.1-.3-.1-.3-.7.2-1.5.4-2.2.7 0-.1-.1-.2-.1-.3.3-.1.6-.3.9-.4.4-.2.8-.3 1.1-.4.1-.1.1-.3-.1-.2-.7.1-1.5.4-2.1.9 0-.1-.1-.1-.1-.2.2-.2.5-.3.7-.5.3-.3.7-.5 1-.8.1-.1 0-.3-.2-.2-.3.3-.7.6-1 .8-.2.2-.4.3-.7.5l-.3-.3c.5-.6.9-1.3 1.3-1.9.1-.1-.1-.2-.2-.1-.5.6-1 1.2-1.4 1.9-.1-.1-.2-.1-.3-.2.2-.8.3-1.6.3-2.3 0-.2-.3-.2-.3 0-.1.6-.2 1.1-.3 1.7 0 .2-.1.3-.1.5-.2-.1-.4-.1-.6-.1 0-.8-.1-1.5-.3-2.2 0-.1-.1 0-.1 0-.1.7-.1 1.4-.1 2.2h-.4c0-.2-.1-.4-.1-.6-.1-.5-.1-1-.2-1.4 0-.1-.2-.1-.2 0-.1.6 0 1.4.2 2.1-.1 0-.2 0-.2.1-.2-.7-.4-1.5-.7-2.1 0-.1-.2-.1-.2.1.1.7.3 1.5.6 2.2 0 0-.1 0-.1.1-.3-.7-.9-1.3-1.3-1.9-.1-.1-.2 0-.1.1.4.7.7 1.4 1.2 2-.1.1-.2.1-.2.2-.1-.1-.2-.3-.3-.4-.3-.4-.7-.9-1.1-1.2-.1-.1-.2 0-.2.1.2.4.6.8.9 1.2.1.2.3.4.4.5l-.4.4c-.6-.5-1.2-.9-1.8-1.2-.1 0-.1.1-.1.1.5.5 1.1 1 1.7 1.4-.1.2-.2.3-.3.5-.1 0-.2-.1-.3-.1-.6-.2-1.2-.5-1.8-.7-.2-.1-.2.2-.1.2.5.3 1.1.5 1.6.7.2.1.3.2.5.2 0 .1 0 .2-.1.3-.2 0-.3-.1-.5-.1-.5-.1-1.1-.2-1.7-.1-.1 0-.1.2 0 .2.6.2 1.4.3 2.1.4v.5c-.3.1-.6.2-.9.4-.4.2-.8.2-1.2.5-.1.1-.1.3.1.3.5 0 .9-.2 1.4-.4.2-.1.5-.2.7-.3 0 .2.1.3.1.5-.1.1-.2.1-.3.2-.5.3-1 .6-1.5 1-.1.1 0 .3.2.2.6-.3 1.1-.7 1.6-1 .1 0 .1-.1.2-.1.1.1.2.3.3.4-.6.5-1 1.1-1.5 1.6-.1.1 0 .2.1.1.5-.4 1.1-.9 1.6-1.4l.3.3c-.2.2-.3.4-.4.6-.3.4-.7.9-.9 1.3-.1.1.1.2.2.1.3-.4.7-.8 1-1.2.2-.2.3-.4.5-.6.1 0 .1.1.2.1-.1.2-.2.3-.2.4-.2.5-.5.9-.7 1.4 0-.8.2-.7.3-.8.3-.4.5-1 .8-1.5.1-.1.1-.3.2-.4h.1c-.3.7-.5 1.4-.6 2.2 0 .1.2.1.2 0 .2-.7.5-1.4.7-2.1.1 0 .2 0 .3.1-.2.7-.2 1.6-.3 2.3 0 .2.3.2.3 0 0-.8.2-1.5.2-2.3h.2c-.1.7-.1 1.5 0 2.2 0 .2.3.2.3 0-.1-.7 0-1.5-.1-2.2.2 0 .4-.1.7-.2.1.3.3.7.4 1 .2.3.3.8.6 1 .1 0 .1 0 .1-.1 0-.3-.2-.7-.4-1-.2-.3-.3-.7-.5-1 .1 0 .1-.1.2-.1.1.3.3.6.5.9s.3.8.6 1c.1.1.2 0 .2-.1-.1-.4-.4-.8-.6-1.1-.2-.3-.3-.6-.5-.8.1-.1.2-.1.3-.2.4.6.8 1.2 1.3 1.7.2.2.4-.1.2-.2-.5-.5-.9-1.1-1.4-1.6.2-.2.4-.4.5-.6.6.4 1.2.9 1.8 1.3.1.1.3-.1.2-.2-.6-.5-1.2-.9-1.8-1.2 0-.1.1-.1.1-.2.6.4 1.3.7 1.9.9.2.1.2-.2.1-.2-.6-.3-1.3-.7-2-.9.1-.2.2-.5.2-.8.7.1 1.4.1 2 .1.5 0 .5-.5.2-.5z" fill="#143a5c" stroke-width="none" opacity="1" stroke="none"></path><path id="SvgjsPath21976" d="M80.2 87.3c1.6 0 2.9 1.3 2.9 2.9s-1.3 2.9-2.9 2.9-2.9-1.3-2.9-2.9 1.3-2.9 2.9-2.9z" fill="#000000" stroke-width="none" opacity="1"></path><path id="SvgjsPath21977" d="M78.6 87.7c.6 0 1.1.5 1.1 1.1s-.5 1.2-1.1 1.2-1.1-.5-1.1-1.1.5-1.2 1.1-1.2zm3.5 4.1c.3 0 .6.3.6.6s-.2.6-.6.6-.6-.3-.6-.6.3-.6.6-.6z" fill="#ffffff" stroke-width="none" opacity="1"></path></g></g></g><g id="svga-group-eyesfront-left"><path id="SvgjsPath22025" d="M80.2 76.7c-7.8 0-14.1 6.1-14.1 13.6s6.3 13.6 14.1 13.6 14.1-6.1 14.1-13.6S88 76.7 80.2 76.7zM68.5 95.3s3.6-5.3 5.3-6.9c1.7-1.6 3.2-1.7 6.3-1.8s6.5.1 8.2 2.3c1.7 2.2 2.8 6 2.8 6-7.7-3.1-22.6.4-22.6.4z" fill="#ffd0bc" stroke-width="none" opacity="1" stroke="none"></path><path id="SvgjsPath22026" d="M76.5 98.7c-3.5-.3-7.9-1.9-7.9-1.9 4.5 2.9 7.9 1.9 7.9 1.9z" fill="#f0b399" stroke-width="none" opacity="1" stroke="none"></path><path id="SvgjsPath22027" d="M91 94.8c-.2-1.2-.5-2.4-1-3.6s-1.1-2.4-2.2-3.4c-.4-.4-.9-.7-1.4-1l.1-.2c.1-.1 0-.3-.1-.3s-.3 0-.3.1l-.1.2c-.3-.2-.7-.2-1-.4-.1 0-.2-.1-.3-.1l.2-.7c0-.1 0-.3-.2-.3-.1 0-.3 0-.3.2l-.1.7c-.1 0-.2 0-.3-.1-.5-.1-.9-.1-1.4-.1l.1-1.3c0-.1-.1-.2-.2-.2s-.2.1-.3.2l-.1 1.3H80c0-.2-.1-.3-.1-.4-.1-.3-.2-.5-.2-.9 0-.1-.2-.2-.3-.2-.1 0-.2.2-.2.3.1.4.2.7.2.9 0 .1.1.2.1.3-.5 0-1.1.1-1.6.1-.2 0-.4.1-.6.1-.1-.2-.1-.4-.2-.5-.1-.2-.2-.5-.3-.8 0-.1-.2-.2-.3-.2s-.2.2-.2.3c.1.3.2.6.3.8.1.1.1.3.2.4-.3.1-.7.1-1 .2s-.7.3-1 .5l-.9-1c-.1-.1-.2-.1-.3 0s-.1.2 0 .3l.9 1c-.2.1-.3.3-.5.4-.2.2-.5.4-.7.7-.2-.2-.3-.3-.4-.5 0-.1-.2-.2-.3-.2s-.2.2-.2.3c.1.3.3.5.5.8-.1.2-.3.3-.4.5-1.3 1.8-2.6 3.6-3.8 5.4-.1.2-.3.4-.4.6l-.3.6.5-.1c1.8-.4 3.7-.7 5.6-.9 1.9-.3 3.8-.5 5.7-.6 1.9-.1 3.8-.2 5.7 0 .9.1 1.9.2 2.8.3.9.2 1.8.4 2.8.7-.1-.1-.1-.2-.1-.2zm-2.7-.7c-.9-.2-1.9-.3-2.8-.4-1.9-.2-3.8-.2-5.7-.1-1.9.1-3.8.3-5.7.6l-5.1.9c.2-.3.4-.7.7-1 1.3-1.4 2.6-2.7 3.8-4.1.4-.4.9-.9 1.3-1.2.5-.4 1-.7 1.5-.8.2-.1.5-.1.8-.2s.6-.1.9-.1c.6-.1 1.3-.1 1.9-.1 1.3-.1 2.6-.1 3.8 0 .5 0 1.2.2 1.7.4.6.2 1.1.5 1.5.9s.9.8 1.2 1.3c.4.5.7 1 1 1.6.6 1 1.1 2.1 1.6 3.2 0 .1.1.1.1.2-.6-.7-1.6-.9-2.5-1.1z" fill="#000000" stroke-width="none" opacity="1" stroke="none"></path></g></g></g><g id="svga-group-eyes-right-move" transform="matrix(1,0,0,1,0,0)"><g id="svga-group-eyes-right" transform="matrix(1,0,0,1,0,0)"><g id="svga-group-eyesback-right"><path id="SvgjsPath22018" d="M119.8 77.2c7.5 0 13.5 5.8 13.5 13s-6 13-13.5 13-13.5-5.8-13.5-13 6-13 13.5-13z" fill="#ffffff" stroke-width="none" opacity="1"></path></g><g id="svga-group-eyesiriswrapper-right" transform="matrix(1,0,0,1,0,0)"><g id="svga-group-eyesiriscontrol-right" transform="matrix(1,0,0,1,0,0)"><g id="svga-group-eyesiris-right" transform="matrix(1,0,0,1,0,0)"><path id="SvgjsPath21978" d="M119.8 85.5c2.6 0 4.7 2.1 4.7 4.7s-2.1 4.7-4.7 4.7-4.7-2.1-4.7-4.7 2.1-4.7 4.7-4.7z" fill="#33597b" stroke-width="none" opacity="1" stroke="none"></path><path id="SvgjsPath21979" d="M119.8 95.1c-2.7 0-4.9-2.2-4.9-4.9s2.2-4.9 4.9-4.9 4.9 2.2 4.9 4.9-2.2 4.9-4.9 4.9zm0-9.3c-2.4 0-4.4 2-4.4 4.4s2 4.4 4.4 4.4 4.4-2 4.4-4.4c0-2.4-2-4.4-4.4-4.4z" fill="#143a5c" stroke-width="none" opacity="1" stroke="none"></path><path id="SvgjsPath21980" d="M124.2 90.2c-.6 0-1.2-.1-1.8 0 0-.2 0-.5-.1-.7.7-.1 1.3-.3 2-.5.2-.1.1-.3-.1-.3-.7.1-1.3.3-2 .6 0-.1-.1-.2-.1-.3.3-.1.5-.2.8-.3.3-.1.7-.2 1-.4.1-.1.1-.2-.1-.2-.6.1-1.3.4-1.8.8 0-.1-.1-.1-.1-.2.2-.1.4-.3.6-.4.3-.2.6-.4.9-.7.1-.1 0-.3-.2-.2-.3.2-.6.5-.9.7-.2.1-.4.3-.6.4l-.3-.3c.4-.5.8-1.1 1.1-1.7 0-.1-.1-.2-.1-.1-.4.5-.9 1.1-1.2 1.6-.1-.1-.2-.1-.3-.2.2-.7.2-1.4.2-2 0-.1-.2-.2-.3 0-.1.5-.1 1-.2 1.5 0 .1-.1.3-.1.4-.2-.1-.3-.1-.5-.1 0-.7-.1-1.3-.2-1.9 0-.1-.1 0-.1 0-.1.6-.1 1.3-.1 1.9h-.4c0-.2-.1-.3-.1-.5-.1-.4-.1-.8-.2-1.3 0-.1-.2-.1-.2 0-.1.5 0 1.2.2 1.8-.1 0-.1 0-.2.1-.2-.6-.4-1.3-.6-1.9 0-.1-.2-.1-.2 0 .1.6.3 1.3.5 1.9h-.1c-.3-.6-.8-1.2-1.2-1.7-.1-.1-.2 0-.1.1.3.6.7 1.2 1.1 1.7-.1 0-.2.1-.2.1-.1-.1-.2-.2-.3-.4-.3-.4-.6-.8-1-1.1-.1-.1-.2 0-.1.1.2.4.5.7.8 1.1.1.2.2.3.4.5l-.3.3c-.5-.4-1.1-.8-1.6-1.1-.1 0-.1 0-.1.1l1.5 1.2c-.1.1-.2.3-.2.4-.1 0-.2-.1-.3-.1-.5-.2-1-.4-1.6-.6-.1 0-.2.2-.1.2.4.2.9.4 1.4.6.1.1.3.1.4.2 0 .1 0 .2-.1.2-.2 0-.3 0-.4-.1-.5-.1-1-.2-1.4-.1-.1 0-.1.1 0 .2.5.2 1.2.3 1.9.3v.4c-.3.1-.5.2-.8.3-.3.1-.7.2-1 .4-.1.1-.1.2.1.2.4 0 .8-.2 1.2-.4l.6-.3c0 .1.1.3.1.4-.1.1-.2.1-.3.2-.4.3-.9.6-1.3.9-.1.1 0 .2.1.2.5-.2.9-.6 1.4-.9.1 0 .1-.1.2-.1.1.1.1.2.2.3-.5.4-.9.9-1.3 1.4-.1.1 0 .2.1.1.5-.4 1-.8 1.4-1.3l.3.3c-.1.2-.3.3-.4.5-.3.4-.6.8-.8 1.2-.1.1.1.2.2.1.3-.3.6-.7.9-1.1.1-.2.3-.3.4-.5.1 0 .1.1.1.1-.1.1-.1.3-.2.4-.2.4-.4.8-.6 1.3 0 .1.1.2.2.1.3-.4.5-.8.7-1.3.1-.1.1-.2.2-.3h.1c-.3.6-.5 1.3-.5 1.9 0 .1.1.1.2 0 .2-.6.4-1.2.7-1.8h.3c-.2.6-.2 1.4-.2 2 0 .2.3.2.3 0 0-.7.2-1.3.2-2h.2c-.1.6-.1 1.3 0 1.9 0 .2.3.2.3 0-.1-.6 0-1.3-.1-1.9.2 0 .4-.1.6-.1.1.3.2.6.4.9.1.3.2.7.5.9.1 0 .1 0 .1-.1 0-.3-.2-.6-.3-.9-.1-.3-.3-.6-.4-.9.1 0 .1-.1.2-.1.1.3.3.5.4.8.2.3.3.7.6.9.1.1.2 0 .2-.1-.1-.3-.3-.7-.5-.9-.2-.2-.3-.5-.5-.7.1-.1.2-.1.3-.2.3.6.7 1.1 1.1 1.5.1.1.3-.1.2-.2-.4-.5-.8-.9-1.2-1.4.2-.2.3-.3.4-.5.5.4 1 .8 1.6 1.1.1.1.2-.1.2-.2-.5-.4-1-.8-1.6-1.1 0-.1.1-.1.1-.2.5.3 1.2.6 1.7.8.1.1.2-.2.1-.2-.5-.3-1.1-.6-1.7-.8.1-.2.1-.4.2-.7.6.1 1.2.1 1.8.1 0 .4 0 0-.3 0z" fill="#143a5c" stroke-width="none" opacity="1" stroke="none"></path><path id="SvgjsPath21981" d="M119.8 87.7c1.4 0 2.5 1.1 2.5 2.5s-1.1 2.5-2.5 2.5-2.5-1.1-2.5-2.5 1.1-2.5 2.5-2.5z" fill="#000000" stroke-width="none" opacity="1"></path><path id="SvgjsPath21982" d="M118.4 88c.5 0 1 .4 1 1s-.4 1-1 1-1-.4-1-1 .4-1 1-1zm3.1 3.6c.3 0 .5.2.5.5s-.2.5-.5.5-.5-.2-.5-.5.2-.5.5-.5z" fill="#ffffff" stroke-width="none" opacity="1"></path></g></g></g><g id="svga-group-eyesfront-right"><path id="SvgjsPath22028" d="M119.8 76.7c-7.8 0-14.1 6.1-14.1 13.6s6.3 13.6 14.1 13.6 14.1-6.1 14.1-13.6-6.3-13.6-14.1-13.6zM110 94.5s.6-2.6 2.2-4.6 4.9-2.2 7.9-2.1 4.4.3 6 1.7 5 6.3 5 6.3c-1.6-.1-13-6.1-21.1-1.3z" fill="#ffd0bc" stroke-width="none" opacity="1" stroke="none"></path><path id="SvgjsPath22031" d="m111.6 97 14.3.7c.1.1-7.9 1.4-14.3-.7z" fill="#f0b399" stroke-width="none" opacity="1" stroke="none"></path><path id="SvgjsPath22032" d="M131.3 95.9c-.6-.9-1.2-1.7-1.8-2.5-.1-.1-.1-.2-.1-.2-.3-.5-.6-1.1-.9-1.6l-.4-.8c-.2-.3-.3-.6-.5-.8-.2-.2-.3-.4-.5-.6l.6-.4c.1-.1.1-.2.1-.4-.1-.1-.2-.2-.3-.1l-.7.5c-.4-.4-1-.8-1.5-1.1l.4-1c.1-.1 0-.3-.1-.3s-.3 0-.3.1l-.4 1c-.1 0-.2-.1-.2-.1-.5-.2-.9-.3-1.4-.4l.1-1c0-.1-.1-.3-.2-.3s-.2.1-.3.2l-.1 1c-.6-.1-1.2-.1-1.7-.2h-.2V86c0-.2-.1-.3-.2-.3s-.2.1-.2.2v.9c-.4 0-.7-.1-1.1-.1h-.6c-.1-.3-.1-.7-.2-1 0-.2-.1-.3-.2-.3s-.2.1-.2.3c0 .4.1.7.1 1.1-.2 0-.5.1-.7.1s-.5.1-.7.2l-.3-1.3c0-.1-.2-.2-.3-.2-.1 0-.2.2-.2.3l.3 1.3c-.4.1-.9.3-1.3.4-.1-.3-.1-.6-.1-1 0-.2-.1-.3-.2-.3s-.2.1-.3.2c0 .4 0 .8.2 1.2l-.6.3c-.1 0-.1.1-.2.1-.2-.2-.3-.4-.4-.6-.1-.1-.2-.2-.3-.1-.1.1-.2.2-.1.3.1.2.2.4.4.6-.3.2-.7.4-1 .8-.5.5-.8 1.1-1.1 1.7-.5 1.2-1 3.5-1 3.5v.3c1.7-.9 3.4-1.4 5.2-1.6 1.8-.2 3.6-.1 5.4.2s3.5.8 5.3 1.3c.9.3 1.7.6 2.6.9l1.3.5c.4.2.9.3 1.4.4l.5.1-.8-.5zm-2.7-1c-.9-.3-1.7-.7-2.6-1-1.8-.6-3.5-1-5.4-1.3-1.8-.2-3.7-.3-5.5 0-.9.1-1.8.3-2.7.7-.9.3-1.7.7-2.5 1.3.2-.5.3-1 .6-1.5.3-.6.7-1.3 1-1.8s.7-1 1.1-1.3.9-.6 1.4-.8c1-.4 2.1-.7 3.2-.8.6-.1 1.1-.1 1.6-.1s1.1.1 1.7.1c1.2.1 2.3.2 3.2.5 1 .3 1.9 1 2.6 1.8.2.2.3.5.5.7s.3.5.5.8c.4.5.8 1 1.1 1.5.5.6 1.1 1.3 1.7 1.8.1.1.1.2.1.2-.2-.1-.5-.2-.7-.3l-.9-.5z" fill="#000000" stroke-width="none" opacity="1" stroke="none"></path></g></g></g><g id="svga-group-facehighlight-single"></g><g id="svga-group-eyebrows-left-move" transform="matrix(1,0,0,1,0,0)"><g id="svga-group-eyebrows-left-rotate" transform="matrix(1,0,0,1,0,0)"><g id="svga-group-eyebrows-left" transform="matrix(1,0,0,1,0,0)"><path id="SvgjsPath22084" d="M64.67 79.76c2.13-1.22 4.29-2.43 6.52-3.32.55-.23 1.11-.42 1.66-.55l.4-.08c.11 0 .2-.01.34 0 .13 0 .26.02.4.04.14.01.28.04.42.07 1.15.2 2.32.52 3.48.86 1.17.34 2.32.75 3.47 1.15 1.15.4 2.32.76 3.51 1.05 1.19.29 2.38.56 3.6.77 1.21.22 2.43.41 3.69.49l.07-.22c-1.07-.71-2.19-1.28-3.31-1.81-1.13-.54-2.28-1-3.44-1.43-1.16-.42-2.35-.77-3.56-1.04-1.21-.26-2.42-.5-3.64-.75-1.22-.24-2.44-.47-3.72-.59l-.49-.03c-.16-.01-.33-.01-.51 0-.17 0-.38.03-.57.07l-.49.15c-.63.22-1.21.49-1.76.79-1.11.6-2.16 1.27-3.19 1.97a50.2 50.2 0 0 0-3 2.2l.12.21z" fill="#7a4400" stroke-width="none" opacity="1" stroke="none"></path></g></g></g><g id="svga-group-eyebrows-right-move" transform="matrix(1,0,0,1,0,0)"><g id="svga-group-eyebrows-right-rotate" transform="matrix(1,0,0,1,0,0)"><g id="svga-group-eyebrows-right" transform="matrix(1,0,0,1,0,0)"><path id="SvgjsPath22085" d="M134.94 78.92c-2.06-.91-4.15-1.81-6.28-2.42-.53-.16-1.06-.28-1.57-.35l-.37-.04c-.1.01-.19.01-.31.03-.11.01-.24.04-.37.07-.12.02-.25.06-.38.09-1.04.27-2.1.64-3.14 1.03-1.05.39-2.08.84-3.11 1.29-1.03.45-2.08.85-3.15 1.2-1.07.35-2.15.68-3.25.96-1.1.29-2.21.55-3.36.72l-.08-.19c.93-.71 1.91-1.3 2.91-1.86 1-.56 2.02-1.06 3.05-1.53 1.04-.46 2.1-.86 3.19-1.19 1.09-.33 2.19-.63 3.29-.94 1.1-.31 2.21-.61 3.38-.81.15-.02.29-.05.45-.06.15-.02.31-.03.47-.04.15-.01.35 0 .53.01l.46.09c.6.15 1.15.34 1.69.56 1.07.44 2.09.95 3.1 1.49 1 .54 1.98 1.11 2.95 1.71l-.1.18z" fill="#7a4400" stroke-width="none" opacity="1" stroke="none"></path></g></g></g><g id="svga-group-nose-single-move" transform="matrix(1,0,0,1,0,0)"><g id="svga-group-nose-single" transform="matrix(1,0,0,1,0,0)"><path id="SvgjsPath22063" d="M94.67 92.35c.49.56.83 1.22 1.1 1.91.26.69.43 1.43.49 2.17.07.75-.01 1.5-.19 2.23-.16.73-.52 1.41-.95 1.99.14-.73.31-1.4.35-2.1.06-.69.07-1.38.01-2.06-.05-.69-.15-1.37-.29-2.06-.14-.69-.32-1.37-.52-2.08z" fill="#d17f5b" stroke-width="none" opacity="1" stroke="none"></path><path id="SvgjsPath22064" d="M105.22 110.32c.78.09 1.59.12 2.3-.07.09-.02.17-.06.25-.09.08-.03.13-.07.19-.12.12-.11.24-.25.34-.4.2-.3.35-.65.48-1 .49-1.41.48-3.03-.28-4.29-.19-.32-.38-.59-.68-.81-.28-.23-.62-.41-.97-.57-.7-.32-1.46-.54-2.23-.7-1.54-.31-3.13-.37-4.7-.32-1.57.06-3.15.17-4.69.38-.78.11-1.48.28-2.15.62-.66.33-1.27.77-1.77 1.31-.5.53-.88 1.18-1.03 1.86a2.6 2.6 0 0 0-.01 1.04c.07.37.18.73.32 1.07.28.68.73 1.31 1.37 1.69.32.18.68.32 1.05.39.38.07.77.06 1.16.03l.01.08c-.77.2-1.64.2-2.41-.15-.77-.35-1.37-1.03-1.74-1.78-.18-.38-.33-.77-.44-1.17-.11-.43-.13-.88-.06-1.32.13-.88.59-1.65 1.15-2.29.57-.63 1.26-1.14 2.03-1.49a7 7 0 0 1 1.19-.42c.41-.1.82-.15 1.22-.2 1.6-.17 3.2-.16 4.79-.07 1.59.1 3.17.25 4.74.48.79.12 1.58.26 2.35.52.39.13.77.29 1.13.53.18.12.36.25.51.41.16.17.27.33.39.52.47.71.71 1.57.73 2.41.03.84-.14 1.68-.46 2.45-.16.39-.36.75-.62 1.09-.13.17-.28.33-.47.47-.09.07-.21.13-.33.16-.11.03-.21.06-.32.07-.42.08-.83.05-1.23 0s-.79-.13-1.18-.26l.07-.06z" fill="#d17f5b" stroke-width="none" opacity="1" stroke="none"></path><path id="SvgjsPath22065" d="M92.72 109.72c.13-.42.52-.78 1-.86.23-.04.48-.05.72.06.25.1.43.32.54.53.22.44.28.9.37 1.33.08.43.14.86.26 1.25s.31.72.59.89c.13.08.33.15.52.22.2.06.39.12.6.16.82.17 1.67.24 2.52.2.84-.03 1.69-.15 2.45-.44.38-.14.71-.34.98-.61.26-.27.45-.61.57-1 .12-.39.17-.81.23-1.24.03-.22.06-.44.13-.68.04-.12.09-.25.18-.38.05-.06.11-.1.17-.15.06-.03.12-.07.18-.09.24-.09.48-.11.71-.11.23 0 .47.03.69.11.22.07.44.18.59.38.15.2.12.47.02.66.07-.21.04-.45-.11-.58-.14-.14-.35-.21-.55-.24-.4-.07-.85-.02-1.19.14-.18.09-.21.17-.25.37-.04.18-.04.4-.05.62-.02.44-.05.9-.16 1.36-.11.46-.32.93-.66 1.3-.33.38-.77.65-1.2.84-.88.36-1.79.5-2.7.54-.91.03-1.82-.04-2.72-.26-.22-.06-.45-.12-.67-.2-.22-.09-.44-.16-.67-.33-.46-.32-.68-.84-.79-1.29-.11-.46-.15-.91-.19-1.35-.04-.43-.07-.87-.21-1.23-.07-.18-.17-.33-.33-.42-.15-.09-.36-.12-.57-.11-.38-.02-.78.23-1 .61z" fill="#d17f5b" stroke-width="none" opacity="1" stroke="none"></path><path id="SvgjsPath22066" d="M106.6 103.67c-1.43-.97-3.39-1.03-5.06-1.12-2.15-.12-4.6-.26-6.64.51-.09.03-.07.15.02.16 2.34.24 4.72-.19 7.09.05 1.86.19 3.76.34 4.92 2.04 1.01 1.48.47 2.83.26 4.38-.03.19.17.32.33.19 1.93-1.63.96-4.94-.92-6.21z" fill="#ffd9c9" stroke-width="none" opacity="1" stroke="none"></path></g></g><g id="svga-group-hair-front" transform="matrix(1,0,0,1,0,0)"><path id="SvgjsPath22127" d="M106.8 43.7s-2.2 14.7-11.4 19.2c-9.1 4.5-19.4 3.2-27.7 5.8S54.8 78.9 60.2 86c0 0-4.3-1.5-3.7-8.2 0 0-3 9.1 5.2 15.8 0 0-6.9-1.5-9.7-11.4S49.4 61.7 57.6 50s20.3-24.6 48.6-20.9 39.1 31.3 39.7 34.8c.6 3.5 7.3 24.2-6.3 35.4 0 0 5-8.2 1.1-16.6s-13.8-14-17.1-15.3c-3.3-1.3-11.9-7.8-14.2-12.7s-3-8.2-2.6-11z" fill="#e4c7a3" stroke-width="none" opacity="1" stroke="none"></path><path id="SvgjsPath22128" d="M105.7 36.9c-.1-.4-.7-.2-.6.2 1.6 8.4-.7 16.9-7.1 22.8-6.8 6.3-15.6 5.6-24.2 6.8-5.4.8-11.4 2.5-14.5 7.4-2.4 3.8-2.7 8.8.5 12.2.3.3.8-.1.6-.4-7.1-10.7 6.4-17.2 15-18.1 6.4-.7 13.2-.6 18.9-3.9 9.2-5.3 14.4-16.9 11.4-27zM59.1 48.4c10.5-15.7 28-20.9 46-19.1.3 0 .3-.4.1-.5C86.8 24 66.5 34 57 49.8c-7 11.7-12.3 37.4 3.9 44.6.2.1.4-.2.2-.3-14.7-10.5-10.8-32.6-2-45.7zm39.2-11.8c-6.7 16.7-25.3 17.8-37.2 29-7 6.6-10.8 19.3-1.6 26 .3.2.7-.3.4-.6-5.7-5.2-6.1-13.2-2.2-19.7 3.8-6.2 10.3-9.9 16.6-13.1 9.4-4.8 22-10 24.4-21.6.1-.2-.3-.3-.4 0zM145 60.5c-5.8-15.2-20-28.1-36.4-30.6-.3 0-.4.4-.1.5 15 4.4 27.7 12.9 34.4 27.5 5.3 11.6 7.6 29.7-1.9 39.5 3.2-5.4 1.7-13.6-2.2-18.6C129 66.1 103 61.4 108 40.9c.1-.3-.3-.3-.4-.1-4.6 11.1 5.8 20.5 14.2 26 6.1 4 12.8 7.6 17 13.8 4.6 7 4.1 17.8-4.9 21-.4.1-.2.8.2.6.8-.2 1.6-.5 2.3-.8.1.1.3.2.5.1 14.4-7 12.9-28.5 8.1-41zm-24.6-6c7.3 6.7 15.8 11.5 19.6 21.2.1.2.4.2.4-.1-4.1-17-28.6-20.4-28.4-39.6 0-.4-.5-.3-.5 0-.8 7.5 3.6 13.7 8.9 18.5z" fill="#d5b083" stroke-width="none" opacity="1" stroke="none"></path></g><g id="svga-group-glasses-single-move" transform="matrix(1,0,0,1,0,0)"><g id="svga-group-glasses-single" transform="matrix(1,0,0,1,0,0)"></g></g></g></g></g><rect id="svga-credit-rect" width="200" height="15" x="0" y="185" fill="#ecf0f1" opacity="0.5" style="display: none;"></rect><text id="svga-credit-text" font-family="Avenir Next, Roboto, Helvetica, Arial, sans-serif" font-size="10px" text-anchor="start" font-weight="400" size="10px" anchor="start" weight="400" fill="#333333" x="33.40447998046875" y="182.60824704170227" style="display: none;"><tspan id="SvgjsTspan21429" dy="13" x="33.40447998046875">Created on AvatarMaker.com</tspan></text></g></svg>