<svg xmlns="http://www.w3.org/2000/svg" version="1.1" width="600px" height="600px" viewBox="0 0 200 200" style="overflow:hidden!important;"><g id="svga-group-wrapper"><g id="svga-group-backs-single"></g><g id="svga-group-humanwrap-move" transform="matrix(1,0,0,1,0,0)"><g id="svga-group-humanwrap"><g id="svga-group-hair-back-move" transform="matrix(1,0,0,1,0,0)"><g id="svga-group-hair-back"><path id="SvgjsPath41984" d="M51.7 79.9s-5 26.3-5.9 29c-.8 2.8 4.8 13.1 4.8 13.1s-1.7 8.1-2 10.1 4.8 7.3 4.8 7.3-4.2 8.7-4.2 9.8 3.1 8.7 3.1 8.7l-5.9 7.5 7 10.3s8.4-1.7 9.2-2.2 11.7-10.3 11.4-13.4 8.4-5.9 8.4-5.9 12-10.6 14.5-10.9c2.5-.3 24.3-3.6 26-4.2 1.7-.6 18.4-12.3 18.4-12.3s10.1-31 10.1-32.1c0-1.1-3.1-28.8-3.4-29.9-.3-1.1-84.9-5.3-84.9-5.3L51.7 79.9z" fill="#bc752c" stroke-width="none" opacity="1" stroke="none"></path><path id="SvgjsPath41985" d="m152.3 93.4-.2-2.3c-.6-6.2-1.3-12.3-2-18.5l-.5-4.6-.3-2.3c0-.2 0-.4-.1-.6l-.1-.3v-.1c-.1-.2-.3-.5-.4-.6-.1 0-.1-.1-.2-.1-.1-.1-.1-.1-.2-.1h-.1c-.5-.1-.9-.2-1.3-.2-3.1-.4-6.2-.6-9.3-.8-12.4-.9-24.8-1.5-37.2-2.1L81.8 60l-18.6-1h-.3l-.1.3-11.2 20.6-4.6 21.4-1.2 5.3-.3 1.3c-.1.4-.2.8-.3 1.4-.1 1.1.2 2 .4 2.9 1 3.5 2.6 6.7 4.2 9.9l-1.8 9.1-.1.6v.8c.1.5.3.9.5 1.3.4.8.8 1.5 1.3 2.1.8 1.2 1.8 2.2 2.7 3.3-.6 1.3-1.3 2.7-1.9 4-.7 1.5-1.4 3-2 4.7-.1.2-.2.4-.2.8s0 .7.1.9c.1.5.2.9.4 1.3.3.8.5 1.6.8 2.4.5 1.4 1.1 2.8 1.7 4.2l-5.5 7.2-.4.5.3.5 5.4 7.8c.3-.4.7-.8 1.1-1.2-1.6-2.4-3.1-4.7-4.7-7.1l5.5-7 .3-.4-.2-.5c-.6-1.5-1.2-3.1-1.8-4.6l-.8-2.3c-.1-.4-.2-.8-.3-1.1 0-.2-.1-.3 0-.3 0 0 .1-.2.1-.4.5-1.5 1.2-3 1.9-4.5l2.1-4.5.2-.5-.4-.4c-1.1-1.1-2.1-2.3-3-3.6-.5-.6-.9-1.3-1.2-1.9-.2-.3-.3-.6-.3-.9V132.1l.1-.6 1.8-9.3v-.3l-.1-.2c-1.7-3.2-3.3-6.4-4.5-9.8-.2-.8-.5-1.7-.4-2.4 0-.3.2-.8.3-1.3l.3-1.3 1.1-5.4c.7-3.6 1.3-7.2 2-10.8.6-3.6 1.3-7.2 1.9-10.8L63.4 60l36.8 2.3 18.6 1.2 18.6 1.2c3.1.2 6.2.5 9.2.8.2 0 .4.1.5.1v.2l.3 2.3.6 4.6c.7 6.2 1.4 12.3 2.1 18.5l.2 2.3.1 1.1c0 .1-.1.2-.1.3l-.1.5c-.4 1.5-.9 2.9-1.3 4.4l-2.7 8.9-5.5 17.5c-4.5 3.2-8.9 6.3-13.4 9.4-1.2.8-2.3 1.6-3.5 2.3-.6.4-1.1.6-1.7.8l-2 .4c-2.7.5-5.5 1-8.2 1.4s-5.5.9-8.2 1.3l-4.1.6-2.1.3-.5.1-.6.2c-.3.1-.7.3-1 .5-2.4 1.4-4.6 3.2-6.8 5-2.2 1.7-4.3 3.5-6.4 5.3-.4.1-.8.3-1.2.4 0 .3 0 .5-.1.8l1.5-.6h.1l.1-.1 6.3-5.4c2.2-1.7 4.3-3.5 6.7-4.9.3-.1.6-.3.9-.4l.4-.1.5-.1 2.1-.3 4.1-.6 8.2-1.2c2.8-.4 5.5-.8 8.2-1.3l2.1-.4c.2 0 .3-.1.5-.1s.4-.1.6-.2c.4-.2.6-.4 1-.5 1.2-.7 2.4-1.5 3.6-2.2 4.7-3 9.3-6.1 13.9-9.3l.2-.1.1-.2 5.8-17.7 2.8-8.9c.5-1.5.9-3 1.4-4.5l.2-.6c.1-.3.1-.6.1-.8v-1.1z" fill="#9d5205" stroke-width="none" opacity="1" stroke="none"></path></g></g><g id="svga-group-humanbody-back"><path id="SvgjsPath40611" d="M77.8 105.9s4.8 37.7 10 55.8c0 0-6.4 8.8-14.5 11.9-28.7 11.2-35 11.2-39.6 15.2-2.4 2.1.2 11.1 1.8 17.2 1.3 5 1.7 13.2 1.7 13.2h132.2s1.6-33-.6-39.8-7.1-2.9-21.9-4.5c-14.8-1.6-28.7-10.3-31-13.2l.3-60-38.4 4.2z" fill="#f3d4cf" stroke-width="none" opacity="1" stroke="none"></path></g><g id="svga-group-chinshadow-single"><path id="SvgjsPath41016" d="M83.2 142.3c7.5 6.2 13.2 9.4 13.2 9.4s9-5 19.3-14.7l.2-35.4-38.4 4.2s2.4 19 5.7 36.5z" fill="#d4958a" stroke-width="none" opacity="1" stroke="none"></path></g><g id="svga-group-humanbody-front"><path id="SvgjsPath40612" d="M72.1 183.1s14.6-.2 20.4 2.6c5.8 2.9 12.7 2.4 16.1-1s21.6-7 21.6-7-19.7 1.9-25 4.6c-5.3 2.7-22.3-2.8-33.1.8z" fill="#d4958a" stroke-width="none" opacity="1" stroke="none"></path><path id="SvgjsPath40613" d="M74.2 173.2c6.7-1.3 14.7-6.4 14.7-6.4l6.2 5.5c-4.3-7.9-12.7-41.1-12.7-41.1l-.7.7c1.7 10.5 3.9 21.9 6.1 29.7 0 0-6 8.2-13.6 11.6z" fill="#d4958a" stroke-width="none" opacity="1" stroke="none"></path><path id="SvgjsPath40614" d="M170.7 188.5c-.1-2.1-.2-4.1-.4-6.2-.1-1-.3-2.1-.6-3.2-.2-.5-.4-1-.6-1.6-.2-.5-.6-1-1-1.5s-.9-.9-1.5-1.1c-.6-.3-1.1-.4-1.7-.6-1.1-.2-2.2-.2-3.2-.2-2.1 0-4.1.1-6.1.1s-4-.1-6-.2-4-.4-6-.7c-1-.2-2-.4-2.9-.6l-1.5-.4c-.5-.1-1-.3-1.4-.4-3.8-1.1-7.6-2.6-11.2-4.4l-1.3-.7-1.3-.7c-.4-.2-.9-.5-1.3-.8s-.9-.5-1.3-.8-.8-.5-1.3-.8l-1.2-.9-.6-.5-.3-.2-.3-.2c-.2-.2-.4-.3-.5-.5l-.2-.3v-44.6l-.1-15v-.6l-.6.1c-6.4.8-12.9 1.5-19.3 2.3l-19.1 2.3v.5l.1.4.1.9.2 1.8c.1 1.2.3 2.3.4 3.5l.9 7c.6 4.7 1.3 9.4 2.1 14 .8 4.7 1.5 9.3 2.5 14 .9 4.5 1.8 9 3 13.5-1.1 1.4-2.3 2.7-3.6 4-1.3 1.3-2.8 2.6-4.3 3.8-1.5 1.1-3.1 2.2-4.8 3l-1.3.6c-.4.2-.9.3-1.3.5l-2.7 1c-7.2 2.7-14.5 5.3-21.8 7.7l-5.5 1.8c-1.8.6-3.7 1.3-5.5 2.2-.4.2-.9.5-1.3.7-.4.3-.9.5-1.3.9l-.6.5c-.2.2-.5.5-.6.8-.3.5-.4 1.1-.5 1.6-.2 1.1-.1 2.1 0 3.1s.3 2 .4 2.9c.4 1.9.8 3.8 1.3 5.7l.8 2.8c.3.9.5 1.8.7 2.8.4 1.9.7 3.8.9 5.7s.4 3.8.5 5.7v.8h133.4v-.8c.2-4.1.4-8.2.5-12.3s.2-8.2.2-12.3c0-1.8-.1-3.8-.1-5.9zm-67.4 30.3H70.2l-16.5-.1-16-.1c-.1-1.8-.2-3.5-.4-5.3-.2-1.9-.4-3.9-.8-5.8-.2-1-.4-1.9-.7-2.9l-.7-2.8c-.5-1.9-.9-3.7-1.2-5.6-.2-.9-.3-1.9-.4-2.8-.1-.9-.1-1.9 0-2.7.1-.4.2-.8.4-1.1.1-.2.2-.3.3-.4l.5-.4c.3-.3.7-.5 1.1-.8.4-.2.8-.5 1.2-.7 1.7-.8 3.5-1.4 5.3-2l5.5-1.8c7.3-2.4 14.6-5 21.8-7.8l2.7-1c.5-.2.9-.3 1.4-.5l1.4-.6c1.8-.9 3.4-2 5-3.2s3-2.5 4.4-3.9 2.7-2.9 3.8-4.5l.2-.3-.1-.3c-1.3-4.5-2.3-9.1-3.3-13.7s-1.9-9.3-2.7-13.9c-.8-4.6-1.6-9.3-2.4-14l-2.2-13.9 19.3-1.8c6.2-.6 12.3-1.2 18.5-1.8l-.2 14.4-.2 15-.3 30v.4l.2.2.6.7.6.6.3.3.3.2.6.5c.4.3.9.6 1.3.9.4.3.9.6 1.3.9.4.3.9.5 1.3.8s.9.5 1.3.8l1.4.8 1.4.7c.5.2.9.5 1.4.7l1.4.7c1 .4 1.9.8 2.9 1.2s1.9.8 2.9 1.1l1.5.5c.5.2 1 .3 1.5.4.5.1 1 .3 1.5.4l1.5.4c1 .3 2 .4 3 .6 2 .4 4.1.6 6.2.8 2.1.2 4.1.2 6.2.2 2.1 0 4.1-.1 6.1-.1s4 .1 5 1.3c.5.6.9 1.4 1.2 2.3.3.9.4 1.9.6 2.8.3 2 .4 4 .5 6s.1 4.1.2 6.1c.1 7.9-.1 15.8-.4 23.7-10.8.1-21.5.1-32.3.2h-33.1z" fill="#c5796d" stroke-width="none" opacity="1" stroke="none"></path><path id="SvgjsPath40615" d="M150.7 219.2 147 198l-.4 21.2z" fill="#d4958a" stroke-width="none" opacity="1" stroke="none"></path><path id="SvgjsPath40616" d="M47.3 203.5s2.2 11.5 2.9 15.7h3.5l-6.4-15.7z" fill="#d4958a" stroke-width="none" opacity="1" stroke="none"></path></g><g id="svga-group-clothes-single"><path id="SvgjsPath42017" d="M171 186.3c-.6-10.9-3.4-11.4-5.5-12.3-2.1-1-11 .6-17-.5s-20.3-2.9-31.4-12.3l-.2-17.1s-13.7 9.1-32.8 1.4c0 0 1.2 9.5 2.5 15.2 0 0-5.8 7-9.4 9.4S55.6 178.9 50 181s-14.4 3.9-16.2 5.7-3.2 3.9-1.8 8.4c1.5 4.5 4.8 19.4 4.8 24.8h133.4c-.1-.1 1.4-22.8.8-33.6zm-66.3 15.9c-6.9 1.7-16.1-5-14.2-17.1s3.2-23.6 3.2-23.6 8.2 1 14.7 0c0 0 3 15.1 4.5 21.4 1.5 6.2-1.3 17.6-8.2 19.3z" fill="#0e0932" stroke-width="none" opacity="1" stroke="none"></path><path id="SvgjsPath42018" d="M171.1 186.3c-.2-2.7-.4-5.5-1.3-8.1-.4-1.3-1.2-2.6-2.4-3.4-.6-.4-1.2-.7-1.9-.9-.7-.3-1.4-.3-2.1-.4-5.5 0-11 .7-16.3-.6-5.4-1-10.7-2.2-15.8-4.2-4.9-1.9-9.6-4.5-13.6-7.9 0-5.6 0-11.2-.1-16.8v-1.6l-1.3.8c-2.3 1.4-4.9 2.4-7.6 3.1-2.7.7-5.4 1.1-8.2 1.2-2.8.1-5.6-.1-8.3-.5-2.7-.5-5.4-1.2-8.1-2.2l-1-.4.2 1c.8 5 1.5 10 2.7 15-1.2 1.4-2.5 2.9-3.8 4.2-1.3 1.4-2.7 2.8-4.2 4.1-1.4 1.3-3.2 2-5 2.9-1.8.8-3.6 1.5-5.4 2.3-3.7 1.4-7.3 2.8-11 4.1l-5.5 2c-1.8.7-3.7 1.3-5.6 1.9l-5.7 1.6c-1.9.6-3.8 1.1-5.6 2.1-.5.2-.9.7-1.2 1-.3.4-.7.8-1 1.2-.6.9-1 1.9-1.1 3-.1 1.1 0 2.1.2 3.1s.5 1.9.8 2.9c1 3.8 1.8 7.6 2.5 11.5.4 1.9.7 3.9 1 5.8.3 1.9.5 3.9.5 5.7v.8h.8l33.3.2 16.7.1h16.7c11.1 0 22.2 0 33.3-.1 11.1-.1 22.2-.3 33.4-.5h.4v-.4c.3-5.6.5-11.2.6-16.8.1-2.8.1-5.6.1-8.4.1-2.8.1-5.6-.1-8.4zm-.1 8.3c0 2.8-.1 5.6-.2 8.4-.2 5.5-.6 10.9-1 16.4l-21.2-.3c.6-4 1.1-7.9 1.6-11.9.3-2.1.6-4.1.9-6.2.3-2.1.7-4.1 1.1-6.1.4-2 1-3.9 1.9-5.7.9-1.8 2-3.6 3.1-5.3 1.2-1.7 2.5-3.3 3.9-4.8s2.9-3 4.7-4.1c-1 .4-1.9.9-2.8 1.5-.9.6-1.7 1.3-2.5 1.9-1.6 1.4-3.1 2.9-4.4 4.6-1.4 1.6-2.6 3.4-3.6 5.4-1 1.9-1.7 4.1-2.2 6.1-.9 4.2-1.3 8.4-1.6 12.6-.3 4-.3 8-.2 12-3.9-.1-7.8-.1-11.6-.1-11.1-.1-22.2-.1-33.3-.1H86.9l-16.7.1-18.5.1c-.1-3-.5-5.9-.9-8.8-.5-3.1-1-6.2-1.9-9.3-.5-1.7-1.5-3.1-2.5-4.4-1-1.3-2.1-2.4-3.3-3.5-2.3-2.2-4.8-4.1-7.5-5.7 2.2 2.2 4.4 4.4 6.5 6.8 1 1.2 2 2.3 2.9 3.6.8 1.2 1.7 2.5 2 3.8.7 3 1.4 6 2.2 9.1.7 2.8 1.5 5.7 2.4 8.5l-14 .1c-.1-1.8-.3-3.4-.6-5.1-.3-2-.7-3.9-1.1-5.8-.8-3.9-1.7-7.7-2.8-11.5-.3-1-.6-1.9-.8-2.8-.2-.9-.3-1.8-.2-2.7.1-.9.4-1.7.9-2.5.2-.4.5-.7.9-1.1.3-.4.6-.6 1-.9 1.6-.9 3.5-1.5 5.4-2.1l5.6-1.7c1.9-.6 3.8-1.2 5.6-1.9l5.5-2c3.7-1.4 7.4-2.8 11-4.2 1.8-.7 3.7-1.4 5.5-2.2.9-.4 1.8-.8 2.7-1.3.9-.4 1.8-1 2.5-1.7 3.1-2.6 5.7-5.5 8.3-8.5l.1-.1-.1-.2c-1-4.7-1.6-9.4-2.2-14.2 2.4.9 4.8 1.6 7.3 2.1 2.8.6 5.7.8 8.6.8 2.9-.1 5.8-.5 8.6-1.2 2.3-.6 4.6-1.4 6.8-2.6 0 5.2.2 10.4.2 15.7v.4l.3.2c2.2 1.8 4.5 3.3 6.9 4.7 2.4 1.3 5 2.4 7.6 3.4 5.2 1.9 10.6 2.9 16.1 3.8 2.7.6 5.5.6 8.2.5 2.7-.1 5.5-.4 8.2-.3.7 0 1.4.1 1.9.3.6.3 1.3.5 1.8.9 1.1.7 1.8 2 2.3 3.2.9 2.6 1.2 5.3 1.4 8 .1 2.4 0 5.2 0 7.9zm-58.1-17-1.2-5.4-2.4-10.9-.2-.8-.8.1c-2.3.4-4.8.6-7.2.6-2.4.1-4.9 0-7.3-.2h-.4v.4c-.3 4.1-.9 8.3-1.6 12.4l-1.2 6.1-.6 3.1c-.2 1-.4 2-.5 3.1-.6 4.3.6 9 3.6 12.2 2.9 3.2 7.4 4.8 11.6 3.9 1.8-.4 3.4-1.6 4.7-3 1.3-1.4 2.2-3.1 3-4.8 1.4-3.5 2.2-7.4 1.6-11.3l-1.1-5.5zm-.6 11.2c-.1 1.8-.4 3.6-.9 5.3-.5 1.7-1.3 3.4-2.4 4.9-1.1 1.4-2.6 2.6-4.4 3.1-2 .5-4.2.2-6-.6-1.9-.9-3.5-2.2-4.6-3.8-1.2-1.6-1.9-3.5-2.4-5.4-.5-1.9-.5-3.9-.3-5.9.5-4.1.9-8.3 1.3-12.4.4-4 .9-8 1.5-12 2.3.3 4.6.5 7 .7 2.2.1 4.4.1 6.6-.1l2 10.2 1.1 5.5 1.2 5.4c.3 1.5.4 3.3.3 5.1z" fill="#020013" stroke-width="none" opacity="1" stroke="none"></path></g><g id="svga-group-head" transform="matrix(1,0,0,1,0,0)"><g id="svga-group-ears-left-move" transform="matrix(1,0,0,1,0,0)"><g id="svga-group-ears-left"><path id="SvgjsPath41144" d="M62.22 91.07s-9.85-8.65-11.43-8.8c-1.36-.13-4.73 7.07-6.22 11.62-.39 1.2-.3 2.54.22 3.7 1.43 3.16 4.6 9.75 7.44 13.05 0 0 2.4.52 3.16.29s6.69-5 7.3-6.86.74-9.97-.47-13z" fill="#f3d4cf" stroke-width="none" opacity="1" stroke="none"></path><path id="SvgjsPath41145" d="M63.07 94.44c.16 1.16.25 2.33.29 3.5.05 1.17.05 2.34-.01 3.51-.03.59-.08 1.17-.15 1.76-.05.3-.09.59-.17.9-.09.31-.25.62-.41.85-.64.98-1.41 1.72-2.18 2.48-.78.74-1.58 1.44-2.39 2.12-.41.33-.82.67-1.25.98-.21.16-.43.31-.65.46l-.35.22c-.14.07-.31.15-.47.17-.59.07-1.09-.01-1.61-.08-.51-.07-1.02-.17-1.53-.28l-.12-.03-.07-.09c-1.28-1.53-2.32-3.25-3.3-4.99-.97-1.75-1.85-3.56-2.7-5.38l-1.25-2.75c-.44-.92-.63-2.02-.48-3.05.06-.52.23-1.01.39-1.48s.33-.94.5-1.41c.35-.93.7-1.86 1.07-2.78.76-1.83 1.55-3.65 2.59-5.32.26-.42.54-.82.88-1.2.17-.19.35-.37.6-.52.12-.07.27-.14.46-.14.17.01.28.06.42.1.94.41 1.65 1 2.43 1.56 1.52 1.14 2.98 2.35 4.41 3.61 1.44 1.25 2.85 2.53 4.24 3.87.43 1.1.64 2.26.81 3.41zm-9.79-10.31c-.75-.52-1.54-1.11-2.29-1.42-.08-.02-.18-.07-.23-.07-.03 0-.1.01-.18.06-.15.08-.31.22-.45.39-.3.32-.57.7-.83 1.09-1.02 1.59-1.92 3.33-2.74 5.1-.41.89-.81 1.78-1.16 2.71-.18.46-.35.92-.52 1.39-.17.47-.34.92-.4 1.41-.13.98.06 2 .49 2.88.42.91.86 1.81 1.32 2.7.9 1.78 1.87 3.52 2.88 5.22 1.02 1.69 2.09 3.35 3.32 4.79l-.19-.11c.97.18 2.03.38 2.91.29.1-.01.16-.06.25-.1l.31-.2.62-.45c.41-.3.82-.63 1.23-.95.81-.66 1.6-1.34 2.37-2.06.75-.72 1.52-1.47 2.11-2.3.15-.22.25-.4.33-.63.07-.24.12-.51.17-.78.08-.55.15-1.12.19-1.69.08-1.14.12-2.29.13-3.45.01-1.15-.04-2.31-.13-3.46-.09-1.14-.23-2.32-.59-3.39-2.96-2.34-5.91-4.75-8.92-6.97z" fill="#e4b3ab" stroke-width="none" opacity="1" stroke="none"></path><path id="SvgjsPath41146" d="M62.45 98.39S52.96 86.4 51.18 87.4s-4.58 6.65-4.57 8.53c.02 2.77 2.95 7.4 4.42 8.8s3.25 2.25 5.6 1.71 5.82-8.05 5.82-8.05z" fill="#e4b3ab" stroke-width="none" opacity="1" stroke="none"></path><path id="SvgjsPath41147" d="M56.36 101.74c-.34-1.14-.73-2.26-1.13-3.37a93.8 93.8 0 0 0-1.28-3.3c-.45-1.09-.93-2.16-1.46-3.21-.54-1.04-1.08-2.08-1.74-3.05l-.07-.11-.07.11c-.66 1.04-1.28 2.1-1.88 3.2-.3.55-.58 1.1-.85 1.67-.28.56-.51 1.16-.74 1.75l-.04.09.04.11c.41 1.24.84 2.46 1.29 3.69.22.61.48 1.21.73 1.81.26.6.52 1.19.87 1.78l.17.27.22-.2c.3-.28.53-.58.77-.9.23-.32.43-.67.61-1.03.35-.73.56-1.57.53-2.42v-.05l-.02-.04c-.44-.87-.91-1.73-1.36-2.6l-.05.03c.37.91.74 1.83 1.13 2.73l-.02-.09c-.03.77-.26 1.51-.61 2.16-.35.65-.82 1.24-1.32 1.7l.39.07c-.3-.51-.56-1.11-.81-1.69l-.72-1.79c-.48-1.2-.93-2.41-1.38-3.62v.2c.4-1.18.85-2.35 1.38-3.47.52-1.13 1.12-2.22 1.8-3.22h-.14c.63.95 1.08 2.04 1.55 3.11l1.36 3.24 1.38 3.24c.46 1.08.92 2.16 1.41 3.23l.06-.03z" fill="#c5796d" stroke-width="none" opacity="1" stroke="none"></path></g></g><g id="svga-group-ears-right-move" transform="matrix(1,0,0,1,0,0)"><g id="svga-group-ears-right"><path id="SvgjsPath41148" d="M137.78 91.07s9.85-8.65 11.43-8.8c1.36-.13 4.73 7.07 6.22 11.62.39 1.2.3 2.54-.22 3.7-1.43 3.16-4.6 9.75-7.44 13.05 0 0-2.4.52-3.16.29s-6.69-5-7.3-6.86c-.61-1.86-.74-9.97.47-13z" fill="#f3d4cf" stroke-width="none" opacity="1" stroke="none"></path><path id="SvgjsPath41149" d="M137.75 91.04c1.4-1.34 2.8-2.62 4.24-3.87 1.43-1.26 2.9-2.47 4.41-3.61.78-.55 1.49-1.14 2.43-1.56.14-.04.25-.1.42-.1.19 0 .34.07.46.14.24.15.43.33.6.52.34.38.61.78.88 1.2 1.04 1.67 1.83 3.49 2.59 5.32.38.92.72 1.85 1.07 2.78.17.47.34.94.5 1.41.16.47.33.96.39 1.48.15 1.03-.04 2.13-.48 3.05l-1.25 2.75c-.85 1.82-1.73 3.63-2.7 5.38-.98 1.75-2.02 3.46-3.3 4.99l-.07.09-.11.02c-.51.11-1.02.2-1.53.28-.52.07-1.02.14-1.61.08-.16-.02-.32-.09-.47-.17l-.35-.22c-.22-.15-.44-.3-.65-.46-.43-.32-.84-.65-1.25-.98-.82-.67-1.62-1.38-2.39-2.12-.77-.76-1.54-1.49-2.18-2.48a3.05 3.05 0 0 1-.41-.85c-.09-.31-.13-.61-.17-.9-.07-.59-.12-1.18-.15-1.76-.06-1.17-.06-2.34-.01-3.51.05-1.17.13-2.34.29-3.5.15-1.15.36-2.31.8-3.4zm.06.05c-.35 1.07-.49 2.24-.59 3.39-.09 1.15-.14 2.31-.13 3.46.01 1.15.05 2.3.13 3.45.04.57.11 1.14.19 1.69.05.27.1.54.17.78.08.23.18.42.33.63.59.83 1.36 1.58 2.11 2.3.76.72 1.56 1.41 2.37 2.06.41.33.81.65 1.23.95l.62.45.31.2c.09.04.15.09.25.1.88.09 1.94-.11 2.91-.29l-.19.11c1.23-1.44 2.3-3.1 3.32-4.79a93.9 93.9 0 0 0 2.88-5.22c.45-.89.9-1.79 1.32-2.7.43-.88.62-1.9.49-2.88-.06-.49-.23-.94-.4-1.41-.16-.47-.34-.93-.52-1.39-.35-.92-.76-1.82-1.16-2.71-.82-1.77-1.72-3.51-2.74-5.1-.26-.39-.53-.77-.83-1.09-.15-.16-.31-.3-.45-.39a.314.314 0 0 0-.18-.06c-.05 0-.15.06-.23.07-.75.31-1.54.9-2.29 1.42-3.02 2.23-5.97 4.64-8.92 6.97z" fill="#e4b3ab" stroke-width="none" opacity="1" stroke="none"></path><path id="SvgjsPath41150" d="M137.55 98.39s9.49-11.99 11.27-10.99 4.58 6.65 4.57 8.53c-.02 2.77-2.95 7.4-4.42 8.8-1.47 1.39-3.25 2.25-5.6 1.71-2.35-.54-5.82-8.05-5.82-8.05z" fill="#e4b3ab" stroke-width="none" opacity="1" stroke="none"></path><path id="SvgjsPath41151" d="M143.64 101.74c.34-1.14.73-2.26 1.13-3.37.4-1.11.84-2.21 1.28-3.3.45-1.09.93-2.16 1.46-3.21.54-1.04 1.08-2.08 1.74-3.05l.07-.11.07.11c.66 1.04 1.28 2.1 1.88 3.2.3.55.58 1.1.85 1.67.28.56.51 1.16.74 1.75l.04.09-.04.11c-.41 1.24-.84 2.46-1.29 3.69-.22.61-.48 1.21-.73 1.81-.26.6-.52 1.19-.87 1.78l-.17.27-.22-.2c-.3-.28-.53-.58-.77-.9-.23-.32-.43-.67-.61-1.03-.35-.73-.56-1.57-.53-2.42v-.05l.02-.04c.44-.87.91-1.73 1.36-2.6l.05.03c-.37.91-.74 1.83-1.13 2.73l.02-.09c.03.77.26 1.51.61 2.16.35.65.82 1.24 1.32 1.7l-.39.07c.3-.51.56-1.11.81-1.69l.72-1.79c.48-1.2.93-2.41 1.38-3.62v.2c-.4-1.18-.85-2.35-1.38-3.47-.52-1.13-1.12-2.22-1.8-3.22h.14c-.63.95-1.08 2.04-1.55 3.11l-1.36 3.24-1.38 3.24c-.46 1.08-.92 2.16-1.41 3.23l-.06-.03z" fill="#c5796d" stroke-width="none" opacity="1" stroke="none"></path></g></g><g id="svga-group-faceshape-wrap"><g id="svga-group-faceshape-single"><path id="SvgjsPath41006" d="M135.9 49.8c-6.7-7.4-11.3-13.2-28.8-17.3-1.8-.4-12.3-.4-14.1 0-17.5 4.1-22.1 9.9-28.8 17.3-7.1 7.8-9.5 29-9.5 29 .9 15.1.9 18.7 12 34.1 14.5 20.2 33.4 30.8 33.4 30.8s18.9-10.6 33.4-30.8c11-15.4 11.1-18.9 12-34.1-.1 0-2.5-21.2-9.6-29z" fill="#f3d4cf" stroke-width="none" opacity="1" stroke="none"></path><path id="SvgjsPath41007" d="M107.1 32.5c-1.8-.4-12.3-.4-14.1 0-17.5 4.1-22.1 9.9-28.8 17.3-7.1 7.8-9.5 29-9.5 29 .9 15.1.9 18.7 12 34.1 14.5 20.2 33.4 30.8 33.4 30.8s18.9-10.6 33.4-30.8c11-15.4 11.1-18.9 12-34.1 0 0-2.4-21.2-9.5-29-6.8-7.4-11.4-13.2-28.9-17.3zm35 31.2c.6 2.5 1.1 5 1.6 7.5.4 2.5.7 5 1 7.5-.3 3.4-.6 6.8-1.1 10.2-.2 1.7-.6 3.3-1.1 4.9-.2.8-.5 1.6-.8 2.3-.3.8-.6 1.5-1 2.3-1.4 3-3.2 5.8-5.2 8.6l-1.5 2.1-1.5 2.1c-.5.7-1 1.4-1.5 2l-1.5 2c-4.2 5.3-8.9 10.2-14 14.8-2.5 2.3-5.1 4.4-7.9 6.5-.7.5-7.1 5-7.6 5.3-.5-.3-.9-.5-1.4-.8-.7-.4-5.6-3.8-6.3-4.3-2.8-2-5.4-4.1-8-6.3-5.1-4.5-10-9.3-14.4-14.6l-1.6-2c-.5-.7-1.1-1.3-1.6-2l-1.5-2.1-1.5-2.1c-1.9-2.8-3.8-5.7-5.2-8.8L56.7 94c-.4-1.6-.8-3.3-.9-5-.2-1.7-.3-3.4-.4-5.1l-.3-5.1c.6-4.6 1.6-9.3 2.9-13.8.7-2.2 1.4-4.5 2.3-6.6.4-1.1.9-2.1 1.5-3.1.5-1 2.6-4 2.8-4.2.3-.4.8-.8 1.2-1.3.8-.9 1.6-1.7 2.4-2.6 1.6-1.7 3.3-3.3 5.1-4.7 1.8-1.4 3.7-2.6 5.7-3.7s4.2-1.9 6.3-2.7l3.3-1.1c.6-.2 3.4-1 3.4-1s2.6-.5 3.2-.6c1.2-.1 2.3-.1 3.5-.2 2.3-.1 4.7-.1 7-.1.1 0 3.3.6 3.3.6l.9.2 2.6.6c4.5 1.2 9 2.9 12.9 5.5 2 1.3 3.8 2.8 5.4 4.5 1.7 1.7 3.3 3.4 4.9 5.2 1.7 1.9 2.9 4.2 3.9 6.6 1.1 2.5 1.8 5 2.5 7.4z" fill="#c5796d" stroke-width="none" opacity="1" stroke="none"></path></g></g><g id="svga-group-mouth-single-move" transform="matrix(1,0,0,1,0,-3)"><g id="svga-group-mouth-single"><path id="SvgjsPath41099" d="M86.3 122.77s3.78 5.21 6.46 6.76c2.69 1.54 6.74 2.85 11.37 1.48s9.37-6.41 9.37-6.41-5.48-2.85-7.85-3.27c-2.37-.42-6 1.66-6 1.66s-2.47-1.96-3.95-2.2-9.4 1.98-9.4 1.98z" fill="#d35a68" stroke-width="none" opacity="1" stroke="none"></path><path id="SvgjsPath41100" d="M84.89 122.33c2.54.48 5.06 1.07 7.57 1.72 1.26.32 2.5.67 3.76 1.04.65.2 1.19.39 1.81.47.61.09 1.23.12 1.86.11 1.25.01 2.52-.11 3.77-.31.31-.05.62-.1.94-.16.32-.06.65-.12.97-.16.64-.1 1.29-.17 1.93-.24 1.29-.13 2.58-.21 3.87-.25 1.29.02 2.55-.09 3.83-.34-1.21.49-2.52.76-3.79.89-1.27.17-2.54.36-3.81.57l-1.89.34c-.31.06-.62.13-.93.2l-.96.21c-1.29.24-2.59.37-3.91.38-.66-.01-1.32-.04-1.99-.15-.66-.09-1.36-.32-1.94-.53l-3.69-1.21c-2.49-.82-4.95-1.65-7.4-2.58z" fill="#c4404f" stroke-width="none" opacity="1" stroke="none"></path></g></g><g id="svga-group-eyes-left-move" transform="matrix(1,0,0,1,0,0)"><g id="svga-group-eyes-left"><g id="svga-group-eyesback-left"><path id="SvgjsPath41634" d="M80.2 77.2c7.5 0 13.5 5.8 13.5 13s-6 13-13.5 13-13.5-5.8-13.5-13 6-13 13.5-13z" fill="#ffffff" stroke-width="none" opacity="1"></path></g><g id="svga-group-eyesiriswrapper-left" transform="matrix(1,0,0,1,0,0)"><g id="svga-group-eyesiriscontrol-left" transform="matrix(1,0,0,1,0,0)"><g id="svga-group-eyesiris-left"><path id="SvgjsPath40631" d="M80.2 84.9c2.9 0 5.3 2.4 5.3 5.3s-2.4 5.3-5.3 5.3-5.3-2.4-5.3-5.3 2.4-5.3 5.3-5.3z" fill="#0e5327" stroke-width="none" opacity="1" stroke="none"></path><path id="SvgjsPath40632" d="M80.2 95.8c-3.1 0-5.6-2.5-5.6-5.6s2.5-5.6 5.6-5.6 5.6 2.5 5.6 5.6c0 3.1-2.5 5.6-5.6 5.6zm0-10.6c-2.8 0-5.1 2.3-5.1 5.1s2.3 5.1 5.1 5.1 5.1-2.3 5.1-5.1c-.1-2.9-2.3-5.1-5.1-5.1z" fill="#003413" stroke-width="none" opacity="1" stroke="none"></path><path id="SvgjsPath40633" d="M85.3 90.2c-.7 0-1.3-.1-2 0 0-.3 0-.6-.1-.8.8-.1 1.5-.3 2.2-.6.2-.1.1-.3-.1-.3-.7.2-1.5.4-2.2.7 0-.1-.1-.2-.1-.3.3-.1.6-.3.9-.4.4-.2.8-.3 1.1-.4.1-.1.1-.3-.1-.2-.7.1-1.5.4-2.1.9 0-.1-.1-.1-.1-.2.2-.2.5-.3.7-.5.3-.3.7-.5 1-.8.1-.1 0-.3-.2-.2-.3.3-.7.6-1 .8-.2.2-.4.3-.7.5l-.3-.3c.5-.6.9-1.3 1.3-1.9.1-.1-.1-.2-.2-.1-.5.6-1 1.2-1.4 1.9-.1-.1-.2-.1-.3-.2.2-.8.3-1.6.3-2.3 0-.2-.3-.2-.3 0-.1.6-.2 1.1-.3 1.7 0 .2-.1.3-.1.5-.2-.1-.4-.1-.6-.1 0-.8-.1-1.5-.3-2.2 0-.1-.1 0-.1 0-.1.7-.1 1.4-.1 2.2h-.4c0-.2-.1-.4-.1-.6-.1-.5-.1-1-.2-1.4 0-.1-.2-.1-.2 0-.1.6 0 1.4.2 2.1-.1 0-.2 0-.2.1-.2-.7-.4-1.5-.7-2.1 0-.1-.2-.1-.2.1.1.7.3 1.5.6 2.2 0 0-.1 0-.1.1-.3-.7-.9-1.3-1.3-1.9-.1-.1-.2 0-.1.1.4.7.7 1.4 1.2 2-.1.1-.2.1-.2.2-.1-.1-.2-.3-.3-.4-.3-.4-.7-.9-1.1-1.2-.1-.1-.2 0-.2.1.2.4.6.8.9 1.2.1.2.3.4.4.5l-.4.4c-.6-.5-1.2-.9-1.8-1.2-.1 0-.1.1-.1.1.5.5 1.1 1 1.7 1.4-.1.2-.2.3-.3.5-.1 0-.2-.1-.3-.1-.6-.2-1.2-.5-1.8-.7-.2-.1-.2.2-.1.2.5.3 1.1.5 1.6.7.2.1.3.2.5.2 0 .1 0 .2-.1.3-.2 0-.3-.1-.5-.1-.5-.1-1.1-.2-1.7-.1-.1 0-.1.2 0 .2.6.2 1.4.3 2.1.4v.5c-.3.1-.6.2-.9.4-.4.2-.8.2-1.2.5-.1.1-.1.3.1.3.5 0 .9-.2 1.4-.4.2-.1.5-.2.7-.3 0 .2.1.3.1.5-.1.1-.2.1-.3.2-.5.3-1 .6-1.5 1-.1.1 0 .3.2.2.6-.3 1.1-.7 1.6-1 .1 0 .1-.1.2-.1.1.1.2.3.3.4-.6.5-1 1.1-1.5 1.6-.1.1 0 .2.1.1.5-.4 1.1-.9 1.6-1.4l.3.3c-.2.2-.3.4-.4.6-.3.4-.7.9-.9 1.3-.1.1.1.2.2.1.3-.4.7-.8 1-1.2.2-.2.3-.4.5-.6.1 0 .1.1.2.1-.1.2-.2.3-.2.4-.2.5-.5.9-.7 1.4 0-.8.2-.7.3-.8.3-.4.5-1 .8-1.5.1-.1.1-.3.2-.4h.1c-.3.7-.5 1.4-.6 2.2 0 .1.2.1.2 0 .2-.7.5-1.4.7-2.1.1 0 .2 0 .3.1-.2.7-.2 1.6-.3 2.3 0 .2.3.2.3 0 0-.8.2-1.5.2-2.3h.2c-.1.7-.1 1.5 0 2.2 0 .2.3.2.3 0-.1-.7 0-1.5-.1-2.2.2 0 .4-.1.7-.2.1.3.3.7.4 1 .2.3.3.8.6 1 .1 0 .1 0 .1-.1 0-.3-.2-.7-.4-1-.2-.3-.3-.7-.5-1 .1 0 .1-.1.2-.1.1.3.3.6.5.9s.3.8.6 1c.1.1.2 0 .2-.1-.1-.4-.4-.8-.6-1.1-.2-.3-.3-.6-.5-.8.1-.1.2-.1.3-.2.4.6.8 1.2 1.3 1.7.2.2.4-.1.2-.2-.5-.5-.9-1.1-1.4-1.6.2-.2.4-.4.5-.6.6.4 1.2.9 1.8 1.3.1.1.3-.1.2-.2-.6-.5-1.2-.9-1.8-1.2 0-.1.1-.1.1-.2.6.4 1.3.7 1.9.9.2.1.2-.2.1-.2-.6-.3-1.3-.7-2-.9.1-.2.2-.5.2-.8.7.1 1.4.1 2 .1.5 0 .5-.5.2-.5z" fill="#003413" stroke-width="none" opacity="1" stroke="none"></path><path id="SvgjsPath40634" d="M80.2 87.3c1.6 0 2.9 1.3 2.9 2.9s-1.3 2.9-2.9 2.9-2.9-1.3-2.9-2.9 1.3-2.9 2.9-2.9z" fill="#000000" stroke-width="none" opacity="1"></path><path id="SvgjsPath40635" d="M78.6 87.7c.6 0 1.1.5 1.1 1.1s-.5 1.2-1.1 1.2-1.1-.5-1.1-1.1.5-1.2 1.1-1.2zm3.5 4.1c.3 0 .6.3.6.6s-.2.6-.6.6-.6-.3-.6-.6.3-.6.6-.6z" fill="#ffffff" stroke-width="none" opacity="1"></path></g></g></g><g id="svga-group-eyesfront-left"><path id="SvgjsPath41642" d="M80.2 76.7c-7.8 0-14.1 6.1-14.1 13.6s6.3 13.6 14.1 13.6 14.1-6.1 14.1-13.6S88 76.7 80.2 76.7zM68.5 95.3s3.6-5.3 5.3-6.9c1.7-1.6 3.2-1.7 6.3-1.8s6.5.1 8.2 2.3c1.7 2.2 2.8 6 2.8 6-7.7-3.1-22.6.4-22.6.4z" fill="#f3d4cf" stroke-width="none" opacity="1" stroke="none"></path><path id="SvgjsPath41643" d="M76.5 98.7c-3.5-.3-7.9-1.9-7.9-1.9 4.5 2.9 7.9 1.9 7.9 1.9z" fill="#e4b3ab" stroke-width="none" opacity="1" stroke="none"></path><path id="SvgjsPath41644" d="M91 94.8c-.2-1.2-.5-2.4-1-3.6s-1.1-2.4-2.2-3.4c-.4-.4-.9-.7-1.4-1l.1-.2c.1-.1 0-.3-.1-.3s-.3 0-.3.1l-.1.2c-.3-.2-.7-.2-1-.4-.1 0-.2-.1-.3-.1l.2-.7c0-.1 0-.3-.2-.3-.1 0-.3 0-.3.2l-.1.7c-.1 0-.2 0-.3-.1-.5-.1-.9-.1-1.4-.1l.1-1.3c0-.1-.1-.2-.2-.2s-.2.1-.3.2l-.1 1.3H80c0-.2-.1-.3-.1-.4-.1-.3-.2-.5-.2-.9 0-.1-.2-.2-.3-.2-.1 0-.2.2-.2.3.1.4.2.7.2.9 0 .1.1.2.1.3-.5 0-1.1.1-1.6.1-.2 0-.4.1-.6.1-.1-.2-.1-.4-.2-.5-.1-.2-.2-.5-.3-.8 0-.1-.2-.2-.3-.2s-.2.2-.2.3c.1.3.2.6.3.8.1.1.1.3.2.4-.3.1-.7.1-1 .2s-.7.3-1 .5l-.9-1c-.1-.1-.2-.1-.3 0s-.1.2 0 .3l.9 1c-.2.1-.3.3-.5.4-.2.2-.5.4-.7.7-.2-.2-.3-.3-.4-.5 0-.1-.2-.2-.3-.2s-.2.2-.2.3c.1.3.3.5.5.8-.1.2-.3.3-.4.5-1.3 1.8-2.6 3.6-3.8 5.4-.1.2-.3.4-.4.6l-.3.6.5-.1c1.8-.4 3.7-.7 5.6-.9 1.9-.3 3.8-.5 5.7-.6 1.9-.1 3.8-.2 5.7 0 .9.1 1.9.2 2.8.3.9.2 1.8.4 2.8.7-.1-.1-.1-.2-.1-.2zm-2.7-.7c-.9-.2-1.9-.3-2.8-.4-1.9-.2-3.8-.2-5.7-.1-1.9.1-3.8.3-5.7.6l-5.1.9c.2-.3.4-.7.7-1 1.3-1.4 2.6-2.7 3.8-4.1.4-.4.9-.9 1.3-1.2.5-.4 1-.7 1.5-.8.2-.1.5-.1.8-.2s.6-.1.9-.1c.6-.1 1.3-.1 1.9-.1 1.3-.1 2.6-.1 3.8 0 .5 0 1.2.2 1.7.4.6.2 1.1.5 1.5.9s.9.8 1.2 1.3c.4.5.7 1 1 1.6.6 1 1.1 2.1 1.6 3.2 0 .1.1.1.1.2-.6-.7-1.6-.9-2.5-1.1z" fill="#000000" stroke-width="none" opacity="1" stroke="none"></path></g></g></g><g id="svga-group-eyes-right-move" transform="matrix(1,0,0,1,0,0)"><g id="svga-group-eyes-right"><g id="svga-group-eyesback-right"><path id="SvgjsPath41635" d="M119.8 77.2c7.5 0 13.5 5.8 13.5 13s-6 13-13.5 13-13.5-5.8-13.5-13 6-13 13.5-13z" fill="#ffffff" stroke-width="none" opacity="1"></path></g><g id="svga-group-eyesiriswrapper-right" transform="matrix(1,0,0,1,0,0)"><g id="svga-group-eyesiriscontrol-right" transform="matrix(1,0,0,1,0,0)"><g id="svga-group-eyesiris-right"><path id="SvgjsPath40636" d="M119.8 85.5c2.6 0 4.7 2.1 4.7 4.7s-2.1 4.7-4.7 4.7-4.7-2.1-4.7-4.7 2.1-4.7 4.7-4.7z" fill="#0e5327" stroke-width="none" opacity="1" stroke="none"></path><path id="SvgjsPath40637" d="M119.8 95.1c-2.7 0-4.9-2.2-4.9-4.9s2.2-4.9 4.9-4.9 4.9 2.2 4.9 4.9-2.2 4.9-4.9 4.9zm0-9.3c-2.4 0-4.4 2-4.4 4.4s2 4.4 4.4 4.4 4.4-2 4.4-4.4c0-2.4-2-4.4-4.4-4.4z" fill="#003413" stroke-width="none" opacity="1" stroke="none"></path><path id="SvgjsPath40638" d="M124.2 90.2c-.6 0-1.2-.1-1.8 0 0-.2 0-.5-.1-.7.7-.1 1.3-.3 2-.5.2-.1.1-.3-.1-.3-.7.1-1.3.3-2 .6 0-.1-.1-.2-.1-.3.3-.1.5-.2.8-.3.3-.1.7-.2 1-.4.1-.1.1-.2-.1-.2-.6.1-1.3.4-1.8.8 0-.1-.1-.1-.1-.2.2-.1.4-.3.6-.4.3-.2.6-.4.9-.7.1-.1 0-.3-.2-.2-.3.2-.6.5-.9.7-.2.1-.4.3-.6.4l-.3-.3c.4-.5.8-1.1 1.1-1.7 0-.1-.1-.2-.1-.1-.4.5-.9 1.1-1.2 1.6-.1-.1-.2-.1-.3-.2.2-.7.2-1.4.2-2 0-.1-.2-.2-.3 0-.1.5-.1 1-.2 1.5 0 .1-.1.3-.1.4-.2-.1-.3-.1-.5-.1 0-.7-.1-1.3-.2-1.9 0-.1-.1 0-.1 0-.1.6-.1 1.3-.1 1.9h-.4c0-.2-.1-.3-.1-.5-.1-.4-.1-.8-.2-1.3 0-.1-.2-.1-.2 0-.1.5 0 1.2.2 1.8-.1 0-.1 0-.2.1-.2-.6-.4-1.3-.6-1.9 0-.1-.2-.1-.2 0 .1.6.3 1.3.5 1.9h-.1c-.3-.6-.8-1.2-1.2-1.7-.1-.1-.2 0-.1.1.3.6.7 1.2 1.1 1.7-.1 0-.2.1-.2.1-.1-.1-.2-.2-.3-.4-.3-.4-.6-.8-1-1.1-.1-.1-.2 0-.1.1.2.4.5.7.8 1.1.1.2.2.3.4.5l-.3.3c-.5-.4-1.1-.8-1.6-1.1-.1 0-.1 0-.1.1l1.5 1.2c-.1.1-.2.3-.2.4-.1 0-.2-.1-.3-.1-.5-.2-1-.4-1.6-.6-.1 0-.2.2-.1.2.4.2.9.4 1.4.6.1.1.3.1.4.2 0 .1 0 .2-.1.2-.2 0-.3 0-.4-.1-.5-.1-1-.2-1.4-.1-.1 0-.1.1 0 .2.5.2 1.2.3 1.9.3v.4c-.3.1-.5.2-.8.3-.3.1-.7.2-1 .4-.1.1-.1.2.1.2.4 0 .8-.2 1.2-.4l.6-.3c0 .1.1.3.1.4-.1.1-.2.1-.3.2-.4.3-.9.6-1.3.9-.1.1 0 .2.1.2.5-.2.9-.6 1.4-.9.1 0 .1-.1.2-.1.1.1.1.2.2.3-.5.4-.9.9-1.3 1.4-.1.1 0 .2.1.1.5-.4 1-.8 1.4-1.3l.3.3c-.1.2-.3.3-.4.5-.3.4-.6.8-.8 1.2-.1.1.1.2.2.1.3-.3.6-.7.9-1.1.1-.2.3-.3.4-.5.1 0 .1.1.1.1-.1.1-.1.3-.2.4-.2.4-.4.8-.6 1.3 0 .1.1.2.2.1.3-.4.5-.8.7-1.3.1-.1.1-.2.2-.3h.1c-.3.6-.5 1.3-.5 1.9 0 .1.1.1.2 0 .2-.6.4-1.2.7-1.8h.3c-.2.6-.2 1.4-.2 2 0 .2.3.2.3 0 0-.7.2-1.3.2-2h.2c-.1.6-.1 1.3 0 1.9 0 .2.3.2.3 0-.1-.6 0-1.3-.1-1.9.2 0 .4-.1.6-.1.1.3.2.6.4.9.1.3.2.7.5.9.1 0 .1 0 .1-.1 0-.3-.2-.6-.3-.9-.1-.3-.3-.6-.4-.9.1 0 .1-.1.2-.1.1.3.3.5.4.8.2.3.3.7.6.9.1.1.2 0 .2-.1-.1-.3-.3-.7-.5-.9-.2-.2-.3-.5-.5-.7.1-.1.2-.1.3-.2.3.6.7 1.1 1.1 1.5.1.1.3-.1.2-.2-.4-.5-.8-.9-1.2-1.4.2-.2.3-.3.4-.5.5.4 1 .8 1.6 1.1.1.1.2-.1.2-.2-.5-.4-1-.8-1.6-1.1 0-.1.1-.1.1-.2.5.3 1.2.6 1.7.8.1.1.2-.2.1-.2-.5-.3-1.1-.6-1.7-.8.1-.2.1-.4.2-.7.6.1 1.2.1 1.8.1 0 .4 0 0-.3 0z" fill="#003413" stroke-width="none" opacity="1" stroke="none"></path><path id="SvgjsPath40639" d="M119.8 87.7c1.4 0 2.5 1.1 2.5 2.5s-1.1 2.5-2.5 2.5-2.5-1.1-2.5-2.5 1.1-2.5 2.5-2.5z" fill="#000000" stroke-width="none" opacity="1"></path><path id="SvgjsPath40640" d="M118.4 88c.5 0 1 .4 1 1s-.4 1-1 1-1-.4-1-1 .4-1 1-1zm3.1 3.6c.3 0 .5.2.5.5s-.2.5-.5.5-.5-.2-.5-.5.2-.5.5-.5z" fill="#ffffff" stroke-width="none" opacity="1"></path></g></g></g><g id="svga-group-eyesfront-right"><path id="SvgjsPath41645" d="M119.8 76.7c-7.8 0-14.1 6.1-14.1 13.6s6.3 13.6 14.1 13.6 14.1-6.1 14.1-13.6-6.3-13.6-14.1-13.6zM110 94.5s.6-2.6 2.2-4.6 4.9-2.2 7.9-2.1 4.4.3 6 1.7 5 6.3 5 6.3c-1.6-.1-13-6.1-21.1-1.3z" fill="#f3d4cf" stroke-width="none" opacity="1" stroke="none"></path><path id="SvgjsPath41648" d="m111.6 97 14.3.7c.1.1-7.9 1.4-14.3-.7z" fill="#e4b3ab" stroke-width="none" opacity="1" stroke="none"></path><path id="SvgjsPath41649" d="M131.3 95.9c-.6-.9-1.2-1.7-1.8-2.5-.1-.1-.1-.2-.1-.2-.3-.5-.6-1.1-.9-1.6l-.4-.8c-.2-.3-.3-.6-.5-.8-.2-.2-.3-.4-.5-.6l.6-.4c.1-.1.1-.2.1-.4-.1-.1-.2-.2-.3-.1l-.7.5c-.4-.4-1-.8-1.5-1.1l.4-1c.1-.1 0-.3-.1-.3s-.3 0-.3.1l-.4 1c-.1 0-.2-.1-.2-.1-.5-.2-.9-.3-1.4-.4l.1-1c0-.1-.1-.3-.2-.3s-.2.1-.3.2l-.1 1c-.6-.1-1.2-.1-1.7-.2h-.2V86c0-.2-.1-.3-.2-.3s-.2.1-.2.2v.9c-.4 0-.7-.1-1.1-.1h-.6c-.1-.3-.1-.7-.2-1 0-.2-.1-.3-.2-.3s-.2.1-.2.3c0 .4.1.7.1 1.1-.2 0-.5.1-.7.1s-.5.1-.7.2l-.3-1.3c0-.1-.2-.2-.3-.2-.1 0-.2.2-.2.3l.3 1.3c-.4.1-.9.3-1.3.4-.1-.3-.1-.6-.1-1 0-.2-.1-.3-.2-.3s-.2.1-.3.2c0 .4 0 .8.2 1.2l-.6.3c-.1 0-.1.1-.2.1-.2-.2-.3-.4-.4-.6-.1-.1-.2-.2-.3-.1-.1.1-.2.2-.1.3.1.2.2.4.4.6-.3.2-.7.4-1 .8-.5.5-.8 1.1-1.1 1.7-.5 1.2-1 3.5-1 3.5v.3c1.7-.9 3.4-1.4 5.2-1.6 1.8-.2 3.6-.1 5.4.2s3.5.8 5.3 1.3c.9.3 1.7.6 2.6.9l1.3.5c.4.2.9.3 1.4.4l.5.1-.8-.5zm-2.7-1c-.9-.3-1.7-.7-2.6-1-1.8-.6-3.5-1-5.4-1.3-1.8-.2-3.7-.3-5.5 0-.9.1-1.8.3-2.7.7-.9.3-1.7.7-2.5 1.3.2-.5.3-1 .6-1.5.3-.6.7-1.3 1-1.8s.7-1 1.1-1.3.9-.6 1.4-.8c1-.4 2.1-.7 3.2-.8.6-.1 1.1-.1 1.6-.1s1.1.1 1.7.1c1.2.1 2.3.2 3.2.5 1 .3 1.9 1 2.6 1.8.2.2.3.5.5.7s.3.5.5.8c.4.5.8 1 1.1 1.5.5.6 1.1 1.3 1.7 1.8.1.1.1.2.1.2-.2-.1-.5-.2-.7-.3l-.9-.5z" fill="#000000" stroke-width="none" opacity="1" stroke="none"></path></g></g></g><g id="svga-group-facehighlight-single"></g><g id="svga-group-eyebrows-left-move" transform="matrix(1,0,0,1,0,0)"><g id="svga-group-eyebrows-left-rotate" transform="matrix(1,1.7453292519943295e-9,-1.7453292519943295e-9,1,1.3247347396827536e-7,-1.3740876170231786e-7)"><g id="svga-group-eyebrows-left"><path id="SvgjsPath41694" d="M65.06 82.83c.82-1.23 1.85-2.23 2.92-3.08 1.08-.84 2.23-1.51 3.42-2.02.3-.12.6-.23.9-.34.15-.05.3-.12.45-.17l.46-.13c.31-.08.61-.17.92-.25l.93-.17.46-.09c.15-.03.31-.03.47-.05l.94-.09c.31-.04.63-.03.94-.03h.94c.62.02 1.24.12 1.86.18.31.05.61.14.91.21.3.08.61.12.9.23l.88.3c.3.08.58.22.86.34.28.13.58.22.85.37l.83.43c2.18 1.23 4.19 3.12 5.68 5.79l.17-.08c-.28-1.67-.97-3.2-1.85-4.52-.88-1.32-1.98-2.43-3.19-3.27l-.93-.57c-.15-.1-.32-.16-.48-.24l-.49-.21c-.65-.31-1.33-.43-1.99-.6-.33-.08-.68-.09-1.01-.13-.34-.03-.67-.08-1.01-.1h-1.01c-.33.01-.67-.03-1 .01l-.99.08c-.33.03-.66.04-.99.11l-.99.17c-.16.03-.33.05-.49.09l-.49.13-.97.27c-.32.11-.64.24-.95.36l-.47.18c-.16.07-.31.15-.47.22-.31.15-.62.3-.92.45a17.41 17.41 0 0 0-3.41 2.51c-1.05 1-2.01 2.15-2.75 3.53l.16.18z" fill="#3a3b37" stroke-width="none" opacity="1"></path></g></g></g><g id="svga-group-eyebrows-right-move" transform="matrix(1,0,0,1,0,0)"><g id="svga-group-eyebrows-right-rotate" transform="matrix(1,1.7453292519943295e-9,-1.7453292519943295e-9,1,1.349326907984505e-7,-2.110056129822624e-7)"><g id="svga-group-eyebrows-right"><path id="SvgjsPath41695" d="M137.15 82.59c-.87-1.08-1.96-1.96-3.1-2.71a17.53 17.53 0 0 0-3.64-1.78c-.32-.11-.64-.2-.96-.3l-.48-.15-.49-.11c-.33-.07-.65-.15-.98-.22l-.99-.15-.49-.08c-.16-.03-.33-.03-.5-.05l-1-.08c-.33-.04-.67-.02-1-.03h-1c-.66.02-1.32.1-1.97.16-.33.04-.65.12-.97.18-.32.07-.65.11-.96.21l-.94.26c-.32.07-.61.19-.92.3-.3.11-.61.19-.91.33l-.89.38c-2.32 1.08-4.45 2.74-6.03 5.09l-.18-.07c.29-1.47 1.03-2.81 1.97-3.97.94-1.16 2.11-2.13 3.39-2.88l.99-.5c.16-.09.34-.14.51-.21l.52-.19c.69-.27 1.41-.38 2.12-.53.36-.07.72-.08 1.07-.12.36-.03.71-.07 1.07-.09h1.07c.35.01.71-.02 1.06.01l1.05.07c.35.03.7.04 1.05.1l1.05.15c.17.03.35.05.52.08l.52.12 1.03.24c.34.1.68.21 1.01.32l.5.16c.17.06.33.13.49.19.33.13.66.26.98.4 1.28.6 2.51 1.33 3.63 2.21 1.11.88 2.14 1.89 2.92 3.11l-.12.15z" fill="#3a3b37" stroke-width="none" opacity="1"></path></g></g></g><g id="svga-group-nose-single-move" transform="matrix(1,0,0,1,0,0)"><g id="svga-group-nose-single"><path id="SvgjsPath41041" d="M94.83 88.79c.36 1.08.71 2.16 1.04 3.24.32 1.09.63 2.18.92 3.28.29 1.1.62 2.19.77 3.33.15 1.13.25 2.28.12 3.43l-.08.01c-.29-1.11-.55-2.2-.8-3.3-.25-1.1-.39-2.22-.61-3.33-.21-1.11-.45-2.22-.69-3.32-.23-1.11-.48-2.22-.74-3.32l.07-.02z" fill="#c5796d" stroke-width="none" opacity="1" stroke="none"></path><path id="SvgjsPath41042" d="M101.1 102.15c-1.12.07-2.22.27-3.28.6-1.06.32-2.09.74-3.03 1.29-.47.27-.9.59-1.21.97-.32.38-.44.82-.3 1.24.13.42.47.83.87 1.16.41.35.86.7 1.3 1.03.88.68 1.78 1.34 2.7 1.94.23.15.46.29.7.42.23.12.48.25.68.3.1.03.18.02.28.01l.17-.04.18-.06c.24-.09.48-.22.71-.35.95-.55 1.83-1.23 2.78-1.86.12-.08.24-.15.38-.22.06-.04.15-.06.24-.08.09-.01.18-.02.26.01.33.06.57.24.79.42.44.38.79.83 1.04 1.34-.32-.46-.72-.86-1.17-1.17-.22-.15-.47-.28-.7-.3a.5.5 0 0 0-.31.08c-.1.06-.22.15-.32.23-.87.68-1.71 1.44-2.68 2.06-.25.15-.49.31-.78.43-.14.07-.29.12-.46.16-.17.03-.38.05-.55 0-.35-.08-.6-.21-.87-.34a25.2 25.2 0 0 1-.75-.42c-.97-.6-1.89-1.26-2.79-1.94-.45-.35-.88-.7-1.32-1.07-.45-.39-.88-.86-1.08-1.52-.09-.32-.11-.69 0-1.02.04-.17.12-.32.2-.46.09-.13.17-.28.28-.39.42-.47.92-.8 1.44-1.06a12.51 12.51 0 0 1 6.6-1.39z" fill="#c5796d" stroke-width="none" opacity="1" stroke="none"></path><path id="SvgjsPath41043" d="M108 104.85c.54.17 1.02.5 1.4.96.19.23.35.48.45.82.08.32.07.63.04.93-.07.59-.28 1.12-.54 1.62-.27.49-.6.95-1.05 1.3.18-.53.34-1.03.49-1.53.14-.5.27-1 .33-1.48.03-.24.04-.48.01-.68-.02-.18-.13-.42-.23-.64-.24-.44-.55-.86-.9-1.3z" fill="#c5796d" stroke-width="none" opacity="1" stroke="none"></path><path id="SvgjsPath41044" d="M92.99 106.65c-.37.37-.76.7-1.11 1.04-.17.17-.34.34-.44.51-.03.04-.04.08-.06.11-.02.04-.01.06-.03.08.01.01.01.01 0 .01v.01l.01.04c.01.05.02.1.03.16.09.46.21.96.3 1.45.09.5.17 1 .18 1.54-.32-.43-.55-.89-.76-1.36-.2-.48-.38-.95-.49-1.49l-.03-.21-.01-.06v-.09c0-.06.01-.12.02-.18.06-.2.15-.35.26-.47.21-.23.42-.4.66-.54.46-.26.95-.45 1.47-.55z" fill="#c5796d" stroke-width="none" opacity="1" stroke="none"></path><path id="SvgjsPath41045" d="M93.22 110.41c.11-.29.29-.5.5-.69.21-.18.44-.33.7-.44.26-.1.54-.17.84-.16.29.01.6.09.82.31-.29.1-.5.2-.72.29-.22.09-.43.19-.65.28-.45.17-.9.35-1.49.41z" fill="#c5796d" stroke-width="none" opacity="1" stroke="none"></path><path id="SvgjsPath41046" d="M101.51 103.66c-1.64-.67-4.02.54-5.47 1.27-1.48.74-.18 2.87 1.28 2.2.79-.36 1.61-.64 2.43-.91.78-.25 1.56-.42 2.18-.96.6-.53.19-1.35-.42-1.6z" fill="#fbe5e2" stroke-width="none" opacity="1" stroke="none"></path></g></g><g id="svga-group-hair-front"><path id="SvgjsPath41982" d="m125.2 36.6-2.9-3.2s-7.5-5.8-12.1-5.3-37.8-.5-42.2 4.4c-4.4 4.8-21.3 26.4-21.1 32.2.2 5.8 1.7 16.2 2.2 18.4s6.1 1.4 6.3 2.9c.2 1.4.7 7 .7 10.2s-4.8 4.8-5.3 6.1 2.7 13.1 3.2 16c.5 2.9 6.8 2.7 6.8 5.6 0 2.9-4.1 2.9-4.1 2.9l3.2 8s0-3.1.5-4.6 6.3-.7 6.1-3.2c-.2-2.4.5-6.3 0-9.2-.5-2.9-5.8-1.9-7.3-2.2s-.7-6.8.2-9.7c1-2.9 6.8-5.3 6.8-5.3s1.7-8.7 1.4-10.2c-.2-1.4-8.2-10.2-7.8-12.1.5-1.9 6.5-15.5 9-15.8 2.4-.2 37.3-2.4 42.4-5.3 5.1-2.9 12.8-14.3 12.8-14.3l1.2-6.3m-.5 0 7.5.8s6.8 5.8 8 8.2c1.2 2.4 8.7 15.5 8.7 19.6 0 4.1-1 17.5-1 17.5s-2.4 12.6-2.7 13.8-5.6 7.3-5.6 9.7 1.9 9.4 1.9 9.4l-4.6-5.3s-.7-5.8-.7-7.8 3.1-6.3 3.9-6.5.5-16 .5-16-8.2-12.6-10.2-16.2-6.3-14.1-6.3-14.1l-.9-6.6 1.5-6.5zM82.9 143.8s-8.7-.7-11.1-.2c-2.4.5-6.4 2.8-6.4 2.8-1.5-2.6-5.4-6.5-6.8-7.4-1.5-.9-2.5-.3-2.5-.3s-5.2 10.3-5.2 11.1 2.3 8.4 2.3 8.4l-5.8 7.4 3.3 6.2c-1.5 1.8-4 5-4.2 5.3-.4.4 1.3 10.7 2.3 12.6.9 1.9 12.8 9.3 12.8 9.3l.8 5.4s2.1-5.2 2.1-6.9-1.1-4.8-1.1-4.8 3.4 4.7 3.6 5.5c.2.9-.9 11.1-.9 11.1l3.2 4.1s-1.1-3.5-.6-5.5 9-19.6 9-19.6-3.2-13.1-7.2-15.9l-3.9-1.4c2-1.1 3.8-2.2 4.5-2.9 1.7-1.6 4.3-7.4 4.3-7.4 3.9-1.6 7.1-6.3 7.1-6.3 1.6-3.3.4-10.6.4-10.6z" fill="#bc752c" stroke-width="none" opacity="1" stroke="none"></path><path id="SvgjsPath41983" d="M109.6 47.9c-.9.7-1.8 1.3-2.7 1.9-.5.3-.9.4-1.5.5-.6.1-1.1.2-1.7.3-2.2.3-4.5.5-6.7.8-9 .9-17.9 1.9-26.9 2.9-1.1.1-2.2.3-3.4.4-.3 0-.6.1-.9.2-.3.1-.5.3-.7.6-.4.4-.7.9-1.1 1.3-1.3 1.9-2.4 3.8-3.6 5.8-2.3 3.9-4.5 7.8-6.5 11.9l-.8 1.5c-.1.3-.2.5-.4.9v.4c0 .1 0 .2.1.3.1.2.1.3.2.4.6 1.1 1.3 1.9 2 2.8 1.4 1.8 2.9 3.4 4.4 5.2.7.9 1.4 1.7 2.1 2.6.3.4.7.9.9 1.4.3.4.5.9.6 1.3.3 2 .1 4.2-.3 6.3-1.8.9-3.5 1.8-5.2 2.8-.9.5-1.8 1.1-2.6 1.8-.4.3-.8.7-1.2 1.2-.2.2-.4.5-.4 1l.1.8c.7 4.1 1.3 8.1 2.1 12.2v.2l.2.1c1.7.6 3.4 1.2 5.1 1.9l1.2.6c.1.1.2.1.2.2s.1.2.1.3c.1.2.1.4.2.7.2.9.2 1.8.3 2.7h.1c0-.9-.1-1.8-.2-2.7 0-.2-.1-.4-.1-.7 0-.1-.1-.2-.1-.3l-.3-.3c-.4-.3-.8-.5-1.2-.7-1.6-.8-3.2-1.4-4.9-2-.5-4-1.1-8-1.7-12l-.1-.8.2-.4 1-1c.8-.6 1.7-1.1 2.5-1.7 1.8-1 3.6-2 5.4-2.9l.2-.1v-.2c.4-2.3.7-4.6.4-6.9-.2-.7-.5-1.2-.8-1.7-.3-.5-.7-1-1-1.4-.7-.9-1.4-1.8-2.2-2.6-1.5-1.7-3-3.4-4.4-5.1-.7-.9-1.4-1.7-2-2.6-.1-.2-.2-.5-.2-.5 0-.1.2-.5.3-.7l.7-1.5c2-4 4-8.1 6.2-12 1.1-2 2.2-3.9 3.5-5.8.3-.5.7-.9 1-1.3.2-.2.4-.4.6-.5.3 0 .5-.1.8-.2 1.1-.2 2.2-.3 3.3-.4 9-.9 18-1.3 26.9-2.3 2.2-.3 4.5-.5 6.7-.8.6-.1 1.1-.2 1.7-.3.6-.1 1.2-.3 1.7-.6 1-.6 1.9-1.3 2.8-2 3.5-2.8 6.9-5.8 10.2-8.9l-.1-.1c-3.1 2.2-6.6 5.1-10.1 7.8zm40 15.7c-.5-2.2-1.4-4.1-2.3-6.1-1.8-3.9-3.9-7.6-5.9-11.2-.3-.5-.5-.9-.8-1.4-.3-.5-.7-.9-1-1.3-.7-.8-1.5-1.6-2.3-2.3-1.6-1.5-3.1-2.9-4.8-4.2l-.1-.1h-.1l-7-.4-2.8-3.2c-1.4-1.1-2.9-2.1-4.4-3-1.6-.9-3.2-1.7-4.9-2.2-.9-.2-1.8-.4-2.8-.4-.9.1-1.8.1-2.6.1h-5.3c-7.1 0-14.2 0-21.4.7-1.8.2-3.6.4-5.3.6-1.8.3-3.6.6-5.3 1.2-.9.3-1.8.7-2.6 1.4l-.5.5-.4.5-.9 1c-1.2 1.4-2.3 2.8-3.4 4.2-4.7 5.6-9 11.3-12.7 17.5-.9 1.5-1.8 3.1-2.5 4.8-.4.8-.7 1.7-1 2.6-.1.5-.2.9-.3 1.4v1.4c.3 3.6.7 7.1 1.2 10.6.3 1.8.5 3.5.8 5.3.1.4.2.9.3 1.3 0 .1 0 .2.1.3 0 .1.1.3.2.4.2.2.3.5.6.6.9.6 1.8.7 2.7.9.9.2 1.8.3 2.5.6l.2.1c0 .1.1.1.1.1s.1.3.1.5l.2 1.3c.2 1.8.3 3.5.4 5.3 0 .9.1 1.8.1 2.7 0 .9-.2 1.6-.7 2.3-1 1.4-2.6 2.2-4 3.3-.2.2-.4.3-.5.6-.1.1-.1.3-.1.4v.4c0 .5.1.9.1 1.4.1.9.3 1.8.5 2.6.3 1.8.8 3.5 1.1 5.2.4 1.7.8 3.5 1.1 5.2.1.4.1.8.3 1.3l.1.4.2.3c.1.2.3.4.5.6.8.7 1.6 1 2.4 1.4.8.3 1.7.7 2.3 1.1.4.2.6.5.8.7.2.3.2.6.2.9-.1 1.5-2 2.1-3.6 2.1h-.8l.4 1.1 3 8 1.3 3.3.1-3.6c0-1 .1-2 .2-2.9.1-.5.2-.9.3-1.4v-.1s.1 0 .1-.1l.2-.1.3-.1c.9-.2 1.9-.4 2.9-.6.5-.1 1.1-.3 1.7-.7.1-.1.3-.2.4-.4.1-.1.3-.3.3-.5.1-.2.2-.4.2-.6v-.5c-.1-1.8.2-3.9.2-5.9 0-1 0-2.1-.1-3.2-.1-.6-.4-1.4-1-1.8-.5-.4-1.1-.7-1.7-.8-1.1-.3-2.2-.3-3.2-.3h-1.9c-.1-.3-.2-.7-.2-1.2v-1.4c0-1 .2-1.9.3-2.9s.4-1.9.6-2.8c.2-.8.8-1.4 1.4-2 1.4-1.2 3.2-2.2 4.9-2.9l.5-.2.1-.5c.4-2.2.8-4.3 1.2-6.5.2-1.1.3-2.2.4-3.4v-.6c0-.1-.1-.3-.1-.4l-.1-.3c-.2-.3-.3-.6-.5-.8-.3-.5-.7-.9-1-1.4-1.3-1.8-2.7-3.5-4-5.2-.6-.9-1.2-1.8-1.7-2.6l-.3-.6c-.1-.2-.1-.4-.1-.3 0 0 0 .1 0 0v-.2l.1-.3.3-.7c.8-2 1.7-4 2.7-5.9 1-1.9 2-3.9 3.1-5.6.3-.4.6-.9.9-1.2.3-.4.7-.8.9-.9.1 0 0 0 0 0h.4l.8-.1 1.6-.1 6.6-.6c4.4-.4 8.8-.8 13.1-1.3 4.4-.5 8.7-1 13.1-1.8 2.2-.4 4.3-.8 6.5-1.7 1.1-.5 1.9-1.2 2.8-2 .8-.8 1.6-1.5 2.4-2.4 2.6-2.8 4.8-5.9 7-9 .2 1.7.3 3.5.5 5.2v.2c1.1 2.7 2.1 5.4 3.2 8 1.2 2.6 2.2 5.3 3.7 7.9 1.4 2.5 2.9 5 4.5 7.4 1.5 2.3 3 4.7 4.5 7l.1 7.6v3.9c0 .7 0 1.3-.1 1.9l-.1.9c0 .2-.1.5-.1.6-.2.2-.3.3-.5.4-.3.3-.5.6-.7.8-.4.6-.8 1.1-1.2 1.7s-.7 1.2-1 1.8c-.3.7-.6 1.3-.6 2.2 0 .8.1 1.4.1 2.1l.2 2c.2 1.3.3 2.6.5 3.9v.2l.1.2 4.7 5.2 1.8 2-.8-2.6c-.8-2.8-1.6-5.6-2.1-8.4 0-.3-.1-.7-.1-1 0-.3.1-.6.2-.9.2-.7.6-1.3.9-1.9.7-1.2 1.6-2.4 2.4-3.6l1.2-1.8c.2-.3.4-.6.6-1 .1-.4.1-.7.2-1.1l.9-4.3c.6-2.9 1.2-5.7 1.8-8.6.4-4.2.8-8.4 1.1-12.6l.2-3.2c0-.5.1-1.1.1-1.6.6-.7.5-1.3.4-1.8zM123 43v.1c0 .2.1.5.1.7-2.4 3.2-4.9 6.3-7.6 9.1-.8.8-1.5 1.5-2.4 2.2-.8.7-1.7 1.4-2.6 1.8-1.9.8-4.1 1.1-6.2 1.4-8.6 1.2-17.4 2-26.1 2.6l-6.6.5-1.6.1-.8.1h-.4c-.2 0-.6.1-.7.2-.8.4-1.1.9-1.5 1.4-.4.5-.7.9-1 1.4-1.3 1.9-2.3 3.9-3.3 5.8-1 2-1.9 4-2.8 6.1l-.5.8-.2.4v.3c0 .1 0 .2-.1.4 0 .6.1.9.2 1.3.1.3.3.6.4.9.6 1.1 1.2 2 1.8 2.9 1.3 1.8 2.7 3.5 4 5.3.3.4.6.9.9 1.3.1.2.3.4.4.6V91c0 .9-.2 2.1-.3 3.1-.3 2-.6 4-1 5.9-1.7.8-3.4 1.8-4.9 3.1l-1.2 1.2c-.2.2-.3.5-.5.8-.1.3-.3.6-.3.9-.3 1-.5 2.1-.7 3.1-.2 1-.3 2.1-.3 3.1v1.6c0 .6.1 1.1.3 1.8l.3.6c.2.2.4.4.8.5.5.1.7.1 1 .1h1.5c1 0 1.9 0 2.8.2.4.1.8.3 1 .5.2.2.3.4.4.8.2.9.2 1.9.2 2.8 0 2-.3 3.9-.1 6.1V127.5s0 .1-.1.1c0 0-.1.1-.2.1-.2.2-.7.3-1.1.5-.9.2-1.9.4-3 .7l-.4.1-.5.2c-.2.1-.3.2-.5.4s-.3.5-.3.6c-.2.5-.2 1-.3 1.5l-1.8-4.3c.7-.1 1.3-.3 2-.6.9-.4 1.8-1.4 1.8-2.5.1-.5-.1-1.1-.4-1.6-.3-.4-.7-.8-1.2-1-.8-.5-1.7-.8-2.5-1.1s-1.6-.7-2.2-1.2l-.4-.4-.2-.2-.1-.2c-.1-.3-.2-.9-.3-1.3l-1.2-5.2c-.4-1.7-.8-3.5-1.2-5.2-.2-.9-.4-1.7-.5-2.6-.1-.4-.1-.9-.1-1.3v-.3c0-.1 0-.2.1-.2.1-.1.2-.3.4-.4 1.3-1.1 3-1.9 4.1-3.5.3-.4.5-.8.6-1.3.2-.5.2-1 .2-1.4 0-.9 0-1.8-.1-2.7-.1-1.8-.2-3.6-.4-5.3l-.2-1.3c0-.2 0-.4-.2-.8l-.3-.3-.3-.2c-.9-.4-1.8-.4-2.7-.6-.8-.2-1.8-.3-2.3-.8-.2-.1-.2-.2-.3-.4 0-.1 0-.1-.1-.2 0-.1 0-.2-.1-.3-.1-.4-.2-.9-.2-1.3-.3-1.8-.5-3.5-.7-5.3-.4-3.5-.8-7.1-.9-10.6-.1-.9 0-1.6.2-2.4.2-.8.6-1.6 1-2.4.8-1.6 1.6-3.1 2.6-4.6 3.8-6 8-11.7 12.4-17.2 1.1-1.4 2.2-2.8 3.3-4.1l.8-1 .4-.5c.1-.2.3-.3.4-.4.5-.4 1.2-.8 2-1.1 1.6-.6 3.3-.9 5-1.2 1.7-.3 3.5-.5 5.2-.7 7-.6 14.2-.9 21.2-1.1l5.3-.1c.9 0 1.8-.1 2.7-.2.8-.1 1.7.1 2.5.2 3.3.9 6.4 2.8 9.3 4.8l2.5 2.9L123 43zm25 23.9-.1 3.1c-.1 4.2-.3 8.4-.5 12.6-.5 2.9-1 5.7-1.5 8.6l-.8 4.3c-.1.3-.1.8-.2 1s-.3.6-.5.9l-1.2 1.8c-.9 1.2-1.7 2.4-2.5 3.6-.4.6-.8 1.3-1.1 2-.1.4-.3.7-.3 1.2-.1.4 0 .8 0 1.2.2 2.1.6 4.1 1.1 6l-2.6-3.2c-.1-1.2-.2-2.5-.4-3.7l-.1-1.9c0-.6-.1-1.3-.1-1.9 0-.4.2-1 .5-1.5.3-.6.6-1.1.9-1.6.3-.5.7-1 1.1-1.5.2-.2.4-.5.6-.7l.2-.2c.1-.1-.1.1 0 0s.3-.2.4-.3c.1-.1.1-.2.1-.2v-.1c0-.1.1-.2.1-.3.1-.5.1-.8.2-1.2l.1-1c.1-.7.1-1.3.1-2 .1-1.3.1-2.7.1-4 .1-2.6 0-5.3 0-7.9v-.3l-.2-.3-4.7-7.2c-1.6-2.4-3.1-4.8-4.6-7.3-1.5-2.4-2.7-5-3.9-7.6l-3.6-7.8c-.3-2-.6-4-1-5.9.1-.2.3-.4.4-.6l1.1-6.2 6.8 1c1.5 1.4 3 2.8 4.4 4.3.7.8 1.4 1.5 2.1 2.3l.9 1.2c.2.3.5.9.7 1.4 1.9 3.8 3.9 7.5 5.6 11.3.8 1.9 1.7 3.8 2.1 5.7.1.5.2.9.2 1.4l.1 1.5zM75.5 179.5c-.6-1.4-1.2-2.7-1.9-4.1-.7-1.3-1.6-2.6-2.9-3.6h-.2l-5.3-1.8H65c-4.5.1-9 .2-13.4.4l13.3.4 5.1 2c1 .8 1.8 2.1 2.4 3.3.7 1.3 1.2 2.6 1.7 4 1 2.6 1.8 5.4 2.4 8.1-2 4-3.9 8-5.8 12-1 2.1-1.9 4.1-2.8 6.2-.2.5-.5 1.1-.6 1.8-.1.5-.1.9-.1 1.4l-.5-.6c.3-2.8.6-5.6.8-8.4l.1-1.1V198.2c0-.1-.1-.3-.2-.5l-.2-.3c-.1-.2-.2-.4-.3-.5-.2-.3-.4-.7-.6-1-.8-1.3-1.7-2.5-2.6-3.7l-4-5.5 2.3 6.4c.3.9.6 1.9.8 2.8.1.5.2.9.2 1.4v.6c0 .2-.1.4-.1.7-.2.8-.4 1.6-.7 2.5l-.3-1.9-.1-.4-.3-.2c-2.6-1.6-5.2-3.3-7.8-5-1.3-.9-2.5-1.8-3.7-2.7-.3-.2-.6-.5-.8-.7-.2-.1-.2-.2-.3-.4-.1-.1-.2-.2-.2-.4-.3-.7-.5-1.4-.6-2.2-.7-3-1.4-6-1.7-9.1v-.7l.2-.2.7-.9 1.4-1.9 2.8-3.8-3 3.6L47 176l-.8.9-.2.2c0 .1-.1.1-.1.2v.9c.2 3.1.7 6.2 1.3 9.3.2.8.3 1.5.6 2.3.1.4.5.9.7 1.2l.9.9c1.2 1.1 2.5 2 3.7 2.9 2.4 1.8 4.9 3.4 7.4 5.1l.7 5 .4 3.3 1.2-3.1c.4-1 .8-1.9 1.1-2.9.3-1 .7-2 .9-3 .1-.3.1-.6.2-.8v-.6c.1.1.2.3.2.4.1.1.2.3.2.4l.1.2v.9l-.1 1.1c-.2 2.9-.6 5.9-.9 8.8v.4l.2.3 3.2 4.1 3.3 4.3L70 213c-.3-1-.6-2.1-.7-3.1-.1-.5-.1-1 0-1.5.1-.4.2-.9.4-1.4.8-2 1.8-4.1 2.7-6.2l5.7-12.3.1-.3-.1-.3c-.6-2.8-1.5-5.6-2.6-8.4zm-13.9-36.2c.2.3.3.8.4 1.2l.4 1.3c.5 1.8 1 3.6 1.6 5.3-.2-1.9-.5-3.7-.9-5.5l-.3-1.4-.1-.7c0-.2-.1-.5-.2-.8-.5-.9-1.1-1.6-1.7-2.4-2.5-2.8-5.2-5.4-8.1-7.6 1.2 1.4 2.4 2.8 3.7 4.2 1.2 1.4 2.5 2.7 3.7 4.1.5.9 1.1 1.6 1.5 2.3zm.3 17.4-.1-.1c-.8-.7-1.5-1.4-2.3-1.9-.4-.3-.8-.6-1.3-.9-.4-.3-.9-.5-1.4-.7.8.7 1.4 1.4 2.1 2.1.7.7 1.4 1.3 2.1 2 .5 1.8 1.1 3.5 2 5.1-.2-1.9-.6-3.7-1.1-5.6zm15.9-13c-.7 1-1.3 1.9-2 2.8-.3.5-.7.9-1.1 1.3-.2.2-.4.4-.5.6l-.3.2c-.1 0-.2.1-.2.1-1.8.6-3.7 1.2-5.5 1.8l-2.8 1c-.9.4-1.8.7-2.7 1.1.9-.2 1.9-.4 2.8-.6l2.8-.7c1.8-.5 3.7-1 5.5-1.6.2-.1.3-.1.4-.2l.3-.3.6-.6c.4-.4.7-.9 1.1-1.4.7-1 1.3-2 1.9-3 1.2-2.1 2.4-4.2 3.5-6.4l-1.9 3c-.6.9-1.2 1.9-1.9 2.9zm-13.2 22.8 6-3.4 3.3-7.7s6.6-4.8 7.1-5.4c.6-.7 1.1-3.1 1.1-4.1s.2-7.7.2-7.7.4 1.8.7 3.3.7 3.8-.1 7.6-7.6 7.4-7.6 7.4-2 5.3-4.3 7.4l-4.5 2.9-1.9-.3z" fill="#9d5205" stroke-width="none" opacity="1" stroke="none"></path></g><g id="svga-group-glasses-single-move" transform="matrix(1,0,0,1,0,-2)"><g id="svga-group-glasses-single" transform="matrix(1.1500005000000004,0,0,1.1500005000000004,-14.985051895502139,-14.30337485671238)"><path id="SvgjsPath41792" d="m92.45 100.66-22.21.64c-.67.02-1.24-.5-1.28-1.16l-.45-8.42c-.04-.69.49-1.25 1.18-1.26l23.84-.39c.65-.01 1.17.52 1.17 1.19l.01 7.06c0 1.25-1.01 2.31-2.26 2.34z" fill="#ffffff" stroke-width="none" opacity="0.45"></path><path id="SvgjsPath41793" d="m109.38 99.84 20.34-.58c.58-.02 1.09-.53 1.14-1.15l.57-7.87c.05-.64-.4-1.15-.99-1.14l-21.85.35c-.63.01-1.15.55-1.17 1.21l-.17 6.97c-.03 1.26.93 2.24 2.13 2.21z" fill="#ffffff" stroke-width="none" opacity="0.45"></path><path id="SvgjsPath41794" d="M95.92 95.55c0 1.23-.32 2.24-.71 2.25-.39.01-.71-.98-.71-2.22 0-1.24.32-2.26.71-2.27.39-.01.71.99.71 2.24z" fill="#939393" stroke-width="none" opacity="1"></path><path id="SvgjsPath41795" d="M106.23 95.31c-.03 1.22.26 2.2.64 2.19.38-.01.71-1 .75-2.22.03-1.22-.26-2.22-.64-2.21-.38.01-.72 1.01-.75 2.24z" fill="#939393" stroke-width="none" opacity="1"></path><path id="SvgjsPath41796" d="m133.11 89.05-2.48.04-22.04.36c-.76.01-1.4.67-1.42 1.47l-.03 1.39c-1.95-.03-4.03-.54-5.99-.51-2.08.04-4.02.64-6.09.74v-1.41c0-.81-.64-1.46-1.43-1.45l-24.07.39-2.87.05.11 1.91 1.35-.03.45 8.25c.04.8.74 1.44 1.56 1.41l22.5-.65c1.33-.04 2.41-1.16 2.41-2.51v-4.69c2.07-.1 4.01-.7 6.08-.75 1.95-.04 4.03.47 5.98.49l-.13 4.64c-.03 1.33.99 2.38 2.27 2.34l20.6-.6c.71-.02 1.33-.65 1.38-1.4l.56-7.69 1.16-.02.14-1.77zM92.65 100.3l-22.53.64a.75.75 0 0 1-.77-.7l-.45-8.63c-.02-.41.3-.76.71-.76l24.03-.41c.39-.01.71.32.71.72l.01 7.37c-.01.95-.77 1.74-1.71 1.77zm37.96-1.75c-.03.37-.33.68-.69.69l-20.62.58c-.91.03-1.63-.72-1.61-1.66l.18-7.26c.01-.4.33-.72.7-.73l22.01-.37c.36-.01.63.3.6.69l-.57 8.06z" fill="#000000" stroke-width="none" opacity="1"></path></g></g></g></g></g><rect id="svga-credit-rect" width="200" height="15" x="0" y="185" fill="#ecf0f1" opacity="0.5" style="display: none;"></rect><text id="svga-credit-text" font-family="Avenir Next, Roboto, Helvetica, Arial, sans-serif" font-size="10px" text-anchor="start" font-weight="400" size="10px" anchor="start" weight="400" fill="#333333" x="33.40447998046875" y="182.60824704170227" style="display: none;"><tspan id="SvgjsTspan40538" dy="13" x="33.40447998046875">Created on AvatarMaker.com</tspan></text></g><defs id="SvgjsDefs40490"><linearGradient id="SvgjsLinearGradient40773" x1="79.8826" y1="80.3169" x2="79.8826" y2="107.6923" gradientUnits="userSpaceOnUse" class="svga-on-canvas-glasses-gradient-single-0-null"><stop id="SvgjsStop40774" stop-opacity="1" stop-color="#9ab4d3" offset="0" ></stop><stop id="SvgjsStop40775" stop-opacity="0.7593" stop-color="#93aed1" offset="0.2407" ></stop><stop id="SvgjsStop40776" stop-opacity="0.4009" stop-color="#7e9ecc" offset="0.5991" ></stop><stop id="SvgjsStop40777" stop-opacity="0" stop-color="#6086c4" offset="1" ></stop></linearGradient><linearGradient id="SvgjsLinearGradient40779" x1="-20.852" y1="80.3169" x2="-20.852" y2="107.6923" gradientTransform="matrix(-1 0 0 1 100 0)" gradientUnits="userSpaceOnUse" class="svga-on-canvas-glasses-gradient-single-1-null"><stop id="SvgjsStop40780" stop-opacity="1" stop-color="#9ab4d3" offset="0" ></stop><stop id="SvgjsStop40781" stop-opacity="0.7593" stop-color="#93aed1" offset="0.2407" ></stop><stop id="SvgjsStop40782" stop-opacity="0.4009" stop-color="#7e9ecc" offset="0.5991" ></stop><stop id="SvgjsStop40783" stop-opacity="0" stop-color="#6086c4" offset="1" ></stop></linearGradient><linearGradient id="SvgjsLinearGradient41736" x1="79.157" y1="118.6424" x2="79.157" y2="100.1003" gradientTransform="matrix(1 0 0 -1 0 202)" gradientUnits="userSpaceOnUse" class="svga-on-canvas-glasses-gradient-single-0-null"><stop id="SvgjsStop41737" stop-opacity="1" stop-color="#bfeaf2" offset="0" ></stop><stop id="SvgjsStop41738" stop-opacity="0.649" stop-color="#a1cae3" offset="0.351" ></stop><stop id="SvgjsStop41739" stop-opacity="0" stop-color="#6086c4" offset="1" ></stop></linearGradient><linearGradient id="SvgjsLinearGradient41741" x1="-1736.868" y1="118.4745" x2="-1736.868" y2="100.2229" gradientTransform="matrix(-1 0 0 -1 -1618 202)" gradientUnits="userSpaceOnUse" class="svga-on-canvas-glasses-gradient-single-1-null"><stop id="SvgjsStop41742" stop-opacity="1" stop-color="#bfeaf2" offset="0" ></stop><stop id="SvgjsStop41743" stop-opacity="0.649" stop-color="#a1cae3" offset="0.351" ></stop><stop id="SvgjsStop41744" stop-opacity="0" stop-color="#6086c4" offset="1" ></stop></linearGradient></defs></svg>