<svg xmlns="http://www.w3.org/2000/svg" version="1.1" width="600px" height="600px" viewBox="0 0 200 200" style="overflow:hidden!important;"><defs id="SvgjsDefs26661"><linearGradient id="SvgjsLinearGradient27303" x1="99.7789" y1="100.5259" x2="99.7789" y2="111.7225" gradientUnits="userSpaceOnUse" class="svga-on-canvas-nose-gradient-single-0-null"><stop id="SvgjsStop27304" stop-opacity="0" stop-color="#f4baa3" offset="0" ></stop><stop id="SvgjsStop27305" stop-opacity="1" stop-color="#ecac92" offset="1" ></stop></linearGradient></defs><g id="svga-group-wrapper"><g id="svga-group-backs-single"></g><g id="svga-group-humanwrap-move" transform="matrix(1,0,0,1,0,0)"><g id="svga-group-humanwrap" transform="matrix(1,0,0,1,0,0)"><g id="svga-group-hair-back-move" transform="matrix(1,0,0,1,0,0)"><g id="svga-group-hair-back" transform="matrix(1,0,0,1,0,0)"><path id="SvgjsPath27358" d="M104 26.7s-7-6.5-22.7-7.3S47.7 24.5 36 45.6s-6 45.2 5.4 59.6 19.2 17.1 16.8 26.8c-2.4 9.8-12.2 6.8-14.9 5.1 0 0-1.9 7 12.2 7.9 0 0-2.2 4.6 5.7 4.3 0 0 .8 5.1 13 3.5 0 0 1.6 5.7 14.3 1.9 0 0 4.9 5.1 11.6 3 6.8-2.2 15.7 1.9 20-3.5 0 0 8.9 2.7 11.6-1.6 0 0 8.4 4.3 13-.5 0 0 5.7 2.2 12.2-4.1 0 0-12.4 2.2-12.4-6.8s6.8-14.1 10.3-16.5c3.5-2.4 12.4-15.2 14.4-29.5s.5-29.2-4.1-39S155.6 34.8 144 28c-11.6-6.7-24.6-11.1-40-1.3z" fill="#480f0f" stroke-width="none" opacity="1" stroke="none"></path><path id="SvgjsPath27359" d="M104.1 25.7C78.4 9.2 45 22.8 33.6 49.9c-5.8 13.8-5.3 29.3.4 43 2.9 7 7.2 13.5 12.4 19 3.2 3.4 7 6.4 9.4 10.5 3.6 6.2 2.2 17.3-7.3 15.6-.6-.1-.9.8-.3.9 4.6 1.4 9.1-1.6 10.5-6.1 1.9-6-2-12-5.9-16.3-5.9-6.4-11.8-12.1-15.8-20-4.1-8.1-6.4-17.1-6.4-26.1 0-16.6 8.3-33.2 22-42.7 15.1-10.4 35.3-10.7 50.9-1.4.7.6 1.1-.3.6-.6zm61.7 30.1c-4.8-12.4-13.5-23.6-25.1-30.2-10.9-6.1-25.5-8-35.8.2-.3.2.1.7.4.5 14.7-10.7 34-3.2 45.7 8.4 12 11.9 17.8 28.5 18.1 45.3.2 8.6-.9 17.3-3.4 25.6-2.8 9.1-7.8 14.9-14.6 21.2-3.9 3.6-8.1 8.6-7.2 14.4.7 4.7 4.8 8 9.4 7.1.5-.1.4-1-.1-.9-4.7.5-8.2-3.4-8.1-7.9.1-3.5 2.1-6.7 4.4-9.3 2.8-3.1 6.3-5.5 9.1-8.6 4.8-5.3 7.5-11.9 9.2-18.8 3.8-15.4 3.7-32.1-2-47zm-97.1 81.4c.2-.4-.4-.8-.7-.4-5.7 8.1-15.5 10-23.3 3.7-.3-.2-.6.1-.4.4 7.4 6.9 19.5 5.5 24.4-3.7zm4.8 1.9c-2.4 5.4-6.5 9.5-12.7 10-.5 0-.5.8 0 .8 5.9-.3 12.2-4.4 13.4-10.5.1-.4-.5-.7-.7-.3zm8.8 3c-.2 5.3-3.2 10.1-8.8 10.9-.3 0-.2.5.1.5 5.4-.4 10.6-5.8 9.3-11.4-.1-.4-.6-.3-.6 0zm62.7 9.3c-9.1-1.9-13.3-10.2-8.7-18.6.2-.3-.2-.6-.5-.4-6.1 7.4-.9 19.7 9 19.6.5.1.6-.6.2-.6zm-13.9 0c-5.1-3.2-6.2-9-4.6-14.4.1-.4-.4-.6-.6-.2-3.1 5.3-.2 12.3 4.9 15.1.3.1.6-.3.3-.5zm-10.7 2.2c-5.2-3-7.1-8.8-5.4-14.4.1-.4-.5-.6-.7-.3-3.1 5.6.1 13 5.8 15.4.4.2.7-.5.3-.7zm38.5-92.3c7.4 18.9 4.8 39.3-8.5 54.8-.3.4.2.9.5.5 15.4-14.9 16.1-39.4 7.9-58-7.1-16.2-27-42.7-47.7-31.9-.2.1-.1.4.1.3 21.9-8.8 40.8 16.7 47.7 34.3zM86.8 25.2c-31.1-5.5-58.3 25.9-50 55.9.1.3.5.2.5-.1-2.8-14.8.6-30.6 11.2-41.7 10.1-10.5 24-14.5 38.2-13.7.2 0 .3-.4.1-.4z" fill="#410b0b" stroke-width="none" opacity="1" stroke="none"></path></g></g><g id="svga-group-humanbody-back"><path id="SvgjsPath26966" d="M77.8 105.9s4.8 37.7 10 55.8c0 0-6.4 8.8-14.5 11.9-28.7 11.2-35 11.2-39.6 15.2-2.4 2.1.2 11.1 1.8 17.2 1.3 5 1.7 13.2 1.7 13.2h132.2s1.6-33-.6-39.8-7.1-2.9-21.9-4.5c-14.8-1.6-28.7-10.3-31-13.2l.3-60-38.4 4.2z" fill="#f4baa3" stroke-width="none" opacity="1" stroke="none"></path></g><g id="svga-group-chinshadow-single"><path id="SvgjsPath27204" d="M85.6 152.8c6.6 3.5 10.7 3.5 10.7 3.5s8 0 19.6-9.5l.2-45.2-38.4 4.2c.1.1 3.6 27.7 7.9 47z" fill="#d58464" stroke-width="none" opacity="1" stroke="none"></path></g><g id="svga-group-humanbody-front"><path id="SvgjsPath26967" d="M72.1 183.1s14.6-.2 20.4 2.6c5.8 2.9 12.7 2.4 16.1-1s21.6-7 21.6-7-19.7 1.9-25 4.6c-5.3 2.7-22.3-2.8-33.1.8z" fill="#d58464" stroke-width="none" opacity="1" stroke="none"></path><path id="SvgjsPath26968" d="M74.2 173.2c6.7-1.3 14.7-6.4 14.7-6.4l6.2 5.5c-4.3-7.9-12.7-41.1-12.7-41.1l-.7.7c1.7 10.5 3.9 21.9 6.1 29.7 0 0-6 8.2-13.6 11.6z" fill="#d58464" stroke-width="none" opacity="1" stroke="none"></path><path id="SvgjsPath26969" d="M170.7 188.5c-.1-2.1-.2-4.1-.4-6.2-.1-1-.3-2.1-.6-3.2-.2-.5-.4-1-.6-1.6-.2-.5-.6-1-1-1.5s-.9-.9-1.5-1.1c-.6-.3-1.1-.4-1.7-.6-1.1-.2-2.2-.2-3.2-.2-2.1 0-4.1.1-6.1.1s-4-.1-6-.2-4-.4-6-.7c-1-.2-2-.4-2.9-.6l-1.5-.4c-.5-.1-1-.3-1.4-.4-3.8-1.1-7.6-2.6-11.2-4.4l-1.3-.7-1.3-.7c-.4-.2-.9-.5-1.3-.8s-.9-.5-1.3-.8-.8-.5-1.3-.8l-1.2-.9-.6-.5-.3-.2-.3-.2c-.2-.2-.4-.3-.5-.5l-.2-.3v-44.6l-.1-15v-.6l-.6.1c-6.4.8-12.9 1.5-19.3 2.3l-19.1 2.3v.5l.1.4.1.9.2 1.8c.1 1.2.3 2.3.4 3.5l.9 7c.6 4.7 1.3 9.4 2.1 14 .8 4.7 1.5 9.3 2.5 14 .9 4.5 1.8 9 3 13.5-1.1 1.4-2.3 2.7-3.6 4-1.3 1.3-2.8 2.6-4.3 3.8-1.5 1.1-3.1 2.2-4.8 3l-1.3.6c-.4.2-.9.3-1.3.5l-2.7 1c-7.2 2.7-14.5 5.3-21.8 7.7l-5.5 1.8c-1.8.6-3.7 1.3-5.5 2.2-.4.2-.9.5-1.3.7-.4.3-.9.5-1.3.9l-.6.5c-.2.2-.5.5-.6.8-.3.5-.4 1.1-.5 1.6-.2 1.1-.1 2.1 0 3.1s.3 2 .4 2.9c.4 1.9.8 3.8 1.3 5.7l.8 2.8c.3.9.5 1.8.7 2.8.4 1.9.7 3.8.9 5.7s.4 3.8.5 5.7v.8h133.4v-.8c.2-4.1.4-8.2.5-12.3s.2-8.2.2-12.3c0-1.8-.1-3.8-.1-5.9zm-67.4 30.3H70.2l-16.5-.1-16-.1c-.1-1.8-.2-3.5-.4-5.3-.2-1.9-.4-3.9-.8-5.8-.2-1-.4-1.9-.7-2.9l-.7-2.8c-.5-1.9-.9-3.7-1.2-5.6-.2-.9-.3-1.9-.4-2.8-.1-.9-.1-1.9 0-2.7.1-.4.2-.8.4-1.1.1-.2.2-.3.3-.4l.5-.4c.3-.3.7-.5 1.1-.8.4-.2.8-.5 1.2-.7 1.7-.8 3.5-1.4 5.3-2l5.5-1.8c7.3-2.4 14.6-5 21.8-7.8l2.7-1c.5-.2.9-.3 1.4-.5l1.4-.6c1.8-.9 3.4-2 5-3.2s3-2.5 4.4-3.9 2.7-2.9 3.8-4.5l.2-.3-.1-.3c-1.3-4.5-2.3-9.1-3.3-13.7s-1.9-9.3-2.7-13.9c-.8-4.6-1.6-9.3-2.4-14l-2.2-13.9 19.3-1.8c6.2-.6 12.3-1.2 18.5-1.8l-.2 14.4-.2 15-.3 30v.4l.2.2.6.7.6.6.3.3.3.2.6.5c.4.3.9.6 1.3.9.4.3.9.6 1.3.9.4.3.9.5 1.3.8s.9.5 1.3.8l1.4.8 1.4.7c.5.2.9.5 1.4.7l1.4.7c1 .4 1.9.8 2.9 1.2s1.9.8 2.9 1.1l1.5.5c.5.2 1 .3 1.5.4.5.1 1 .3 1.5.4l1.5.4c1 .3 2 .4 3 .6 2 .4 4.1.6 6.2.8 2.1.2 4.1.2 6.2.2 2.1 0 4.1-.1 6.1-.1s4 .1 5 1.3c.5.6.9 1.4 1.2 2.3.3.9.4 1.9.6 2.8.3 2 .4 4 .5 6s.1 4.1.2 6.1c.1 7.9-.1 15.8-.4 23.7-10.8.1-21.5.1-32.3.2h-33.1z" fill="#c66c49" stroke-width="none" opacity="1" stroke="none"></path><path id="SvgjsPath26970" d="M150.7 219.2 147 198l-.4 21.2z" fill="#d58464" stroke-width="none" opacity="1" stroke="none"></path><path id="SvgjsPath26971" d="M47.3 203.5s2.2 11.5 2.9 15.7h3.5l-6.4-15.7z" fill="#d58464" stroke-width="none" opacity="1" stroke="none"></path></g><g id="svga-group-clothes-single"><path id="SvgjsPath27334" d="M60.3 178.1s-1.2-1.6-3.2-1.3c-1.6.2-2.9 1.7-2.9 1.7s-.9-.8-2.8-.4c-2 .4-3.7 2.5-3.7 2.5s-2.3-.3-2.2 1.4c.1 1 4 9.2 5.1 14 2.5 11.7 2.2 23.3 2.2 23.3l39.9-.5s-18.5-13.1-25.5-25.6c-7.2-12.5-6.9-15.1-6.9-15.1z" fill="#cbe9ee" stroke-width="none" opacity="1"></path><path id="SvgjsPath27335" d="M147.7 173.5s-1.4-2.5-4.9-1.6c0 0-2-1.8-5.1-.7 0 0-2.9-2.9-5.4-1.3 0 0-3.6 19.2-9.5 29.7-9.7 17.4-17.1 19.5-17.1 19.5l41.8-.4s-4.6-9.6-2.3-30.5c.9-8.9 2.5-14.7 2.5-14.7z" fill="#cbe9ee" stroke-width="none" opacity="1"></path><path id="SvgjsPath27336" d="M83 209.7c-3.3-2.9-6.5-5.9-9.4-9.1-1.5-1.6-2.8-3.3-4.1-5.1-1.3-1.7-2.4-3.6-3.5-5.5s-2.2-3.8-3.2-5.8c-.5-1-1-2-1.4-3-.4-1-.9-2-1-3.1-.4-.6-.8-.9-1.4-1.2-.6-.3-1.2-.4-1.8-.4-.7 0-1.3.2-1.8.6-.4.2-.8.5-1.2.9-.5-.3-1.1-.4-1.7-.5-.7 0-1.4.1-2 .3-.6.2-1.2.6-1.8 1-.4.3-.8.7-1.2 1.1-.4 0-.8 0-1.2.1-.3.1-.6.2-.8.4s-.5.6-.6.9c-.1.4-.1.7 0 1 .1.3.1.5.2.7l.5 1.2 1.9 4.8c.6 1.6 1.2 3.2 1.7 4.8.3.8.5 1.6.7 2.4l.5 2.5c.6 3.4 1.2 6.7 1.6 10.1.4 3.4.7 6.9.6 10.3v.3h.3c3.3-.1 6.7-.1 10-.1s6.7.1 10 .1c6.7.1 13.3.2 20 .2h2.9l-2.4-1.8c-3.7-2.4-7.1-5.3-10.4-8.1zm-10.3 8.7c-3.3.1-6.7.3-10 .4-3.2.1-6.4.1-9.7.1.1-3.4 0-6.7-.1-10.1-.2-3.5-.5-6.9-1-10.4-.1-.9-.3-1.7-.5-2.6-.2-.9-.4-1.7-.7-2.6-.5-1.7-1.2-3.3-1.8-4.9-.6-1.6-1.3-3.2-2-4.8l-.5-1.2c-.1-.2-.1-.4-.2-.5v-.3c0-.1.1-.2.4-.3.3-.1.7-.1 1-.1h.3l3 8.1c1.1 2.9 2.3 5.8 3.5 8.7 1.3 2.9 2.2 5.8 3.1 8.8.5 1.5.9 3 1.3 4.5l1.2 4.5c-.4-3.1-1.1-6.2-1.8-9.2-.7-3-1.7-6.1-2.9-9-1.2-2.9-2.4-5.8-3.7-8.6-1.2-2.6-2.4-5.2-3.7-7.8l.2-.2c.3-.4.8-.8 1.2-1.2.5-.4.9-.7 1.4-.9.5-.2 1-.4 1.6-.4.5 0 1.1.1 1.4.3l.4.3.1-.1c1.3 4.6 2.9 9.2 4.7 13.7.9 2.3 2 4.6 3.1 6.8 1.2 2.2 2.5 4.4 3.9 6.5 1.4 2.1 2.9 4.1 4.3 6.1.3.5.7 1 .9 1.6.3.5.5 1.1.5 1.5 0 .4-.5.8-.9.8-.4.1-.9-.2-1.4-.6-.9-.7-1.5-1.8-2-2.9l-1.6-3.4c-1.1-2.2-2.2-4.5-3.4-6.7 1 2.3 2 4.6 2.9 6.9l1.5 3.4c.5 1.2 1.1 2.4 2.1 3.2.5.4 1.1.9 2 .8.4 0 .8-.2 1.1-.5.3-.2.5-.7.6-1.1.1-.8-.3-1.4-.5-2-.3-.6-.6-1.1-1-1.6-1.4-2.1-2.8-4.1-4.2-6.2-1.4-2.1-2.7-4.1-3.9-6.3-1.2-2.2-2.2-4.4-3.2-6.7s-2-4.6-2.9-6.9c-.9-2.1-1.7-4.3-2.5-6.5l.2-.2c.3-.4.8-.8 1.2-1.1.5-.3 1-.5 1.5-.6.5-.1 1.1 0 1.6.2s1 .6 1.4.9c0 1.1.4 2.2.7 3.2.3 1.1.8 2.1 1.2 3.1.8 2.1 1.8 4.1 2.8 6l1.5 3c.5 1 1.1 2 1.7 2.9 1.2 1.9 2.6 3.7 4 5.4 2.9 3.4 6.1 6.5 9.4 9.5 2.6 2.3 5.3 4.5 8.2 6.6-5.6.3-11.3.4-17 .7zm75.7-.1c-.7-1.6-1.2-3.4-1.6-5.2-.4-1.8-.7-3.7-.9-5.5-.4-3.7-.6-7.5-.6-11.3.1-3.8.3-7.6.7-11.4.4-3.8.9-7.5 1.7-11.3-.3-.5-.6-.8-.9-1.1-.4-.3-.8-.6-1.2-.7-.5-.2-1-.3-1.5-.3-.4 0-.9 0-1.3.1-.4-.3-.7-.5-1.1-.7-.4-.2-.9-.4-1.4-.4-.9-.1-1.7-.1-2.6.2-.3-.3-.7-.6-1-.8-.4-.3-.9-.6-1.5-.8s-1.1-.3-1.7-.3c-.6 0-1.2.2-1.7.6l-.2.1-1.1 4.7c-.3 1.4-.7 2.8-1.1 4.2-1.8 6.3-3.6 12.7-6.2 18.7-1 2.1-2.1 4.2-3.3 6.3-1.2 2.1-2.5 4.1-3.9 6-1.4 1.9-3 3.8-4.7 5.4-.9.8-1.8 1.6-2.7 2.3-.9.7-2 1.4-3 1.7l-2.3.7h2.4l10.4.2c3.5.1 7 .1 10.4.1H148.9l-.5-1.5zm-11.4-.4-10.4.2c-3.5.1-7 .2-10.4.3l-8.7.3c1.6-.9 3-2.2 4.3-3.4 1.7-1.7 3.3-3.5 4.8-5.4 2.9-3.8 5.7-7.8 8-12.1 2.2-4.3 3.8-8.9 5.2-13.6 1.3-4.5 2.4-9.1 3.2-13.8.6-.3 1.3-.4 2.1-.2.4.1.8.3 1.2.6.4.2.8.5 1.1.8l.3.2c-.4 2.3-.7 4.6-1.2 6.9-.2 1.2-.5 2.5-.9 3.7-.2.5-.5 1.2-.6 1.8-.2.6-.3 1.2-.5 1.9-1.2 5-2.1 10-3.9 14.8-.9 2.4-2 4.7-3.1 7-.5 1.2-1.1 2.4-1.3 3.7-.1.7-.1 1.4.2 2.1.2.3.4.7.7.9.4.2.8.3 1.2.2 1.6-.4 2.3-1.9 2.4-3.2l.7-3.8c.4-2.5.9-5.1 1.2-7.6-.6 2.5-1.1 5-1.7 7.5l-.8 3.8c-.1.7-.3 1.2-.6 1.6-.3.5-.8.9-1.3.9-.2 0-.4 0-.6-.1-.2-.1-.3-.3-.4-.6-.2-.5-.2-1.1-.1-1.6.2-1.2.8-2.3 1.3-3.5 1.1-2.3 2.2-4.6 3.2-7 1.7-4.9 2.6-10 3.7-15 .1-.6.3-1.2.4-1.9s.4-1.1.6-1.8c.4-1.3.6-2.5.8-3.8.3-2.3.6-4.7.8-7l.2-.1c.8-.3 1.6-.4 2.4-.4.4 0 .8.1 1.2.3.4.1.8.3 1.1.6l.2.1c-.9 4.2-1.6 8.4-2.4 12.6-.8 4.4-1.5 8.7-2.2 13.1-.2 2.3-.1 4.5 0 6.7s.1 4.4.2 6.6c0 .5 0 1.1-.1 1.6s-.1 1.1-.4 1.3c-.4.4-.8.6-1.3.7-.5.1-.9-.1-1.1-.5-.1-.3-.1-.8-.1-1.3s.1-1 .1-1.5c.2-1.2.4-2.4.6-3.7-.3 1.1-.5 2.1-.8 3.2-.1.5-.2 1.1-.3 1.6-.1.6-.2 1.1 0 1.8s1 1 1.6.9c.6-.1 1.2-.4 1.6-.8l.2-.1c.1-.1.1-.2.2-.2.1-.1.1-.3.2-.4.1-.3.1-.6.2-.9.1-.6.1-1.1.1-1.7.2-4.4-.3-8.9.1-13.2l1.9-13.1c.6-4.2 1.2-8.5 1.6-12.7h.1c.4-.1.9-.2 1.3-.2s.9 0 1.3.1.8.3 1.2.5c.4.2.7.6.9.9-.6 1.8-1 3.7-1.4 5.5-.4 1.9-.8 3.8-1.1 5.6-.6 3.8-1.1 7.6-1.3 11.4-.2 3.8-.2 7.7.2 11.6.4 3.4.9 6.7 2 10-3.1.1-6.1.2-9.1.3z" fill="#87c5cf" stroke-width="none" opacity="1"></path></g><g id="svga-group-head" transform="matrix(1,0,0,1,0,0)"><g id="svga-group-ears-left-move" transform="matrix(1,0,0,1,0,0)"><g id="svga-group-ears-left" transform="matrix(1,0,0,1,0,0)"><path id="SvgjsPath27156" d="M65.8 98.48s-4.2-8.27-8.66-11.42c-4.46-3.15-9.84-3.15-9.84-3.15s-3.02 2.1-1.97 12.6c0 0 4.46 10.76 12.47 14.7 0 0 5.77 1.31 8.66.66-.01-.01 2.09-6.18-.66-13.39z" fill="#f4baa3" stroke-width="none" opacity="1" stroke="none"></path><path id="SvgjsPath27157" d="M64.88 101.76s-3.67-7.87-6.04-9.84c-2.36-1.97-7.87-5.12-9.32-3.28-1.44 1.84-1.57 7.61-1.57 7.61s1.57 4.59 6.3 7.09c4.72 2.49 10.37 2.76 10.37 2.76l.26-4.34z" fill="#e59e82" stroke-width="none" opacity="1" stroke="none"></path><path id="SvgjsPath27158" d="M44.99 93.25c.02 1.09.09 2.19.17 3.28v.02l.01.03a39.54 39.54 0 0 0 2.2 4.42c.82 1.43 1.75 2.79 2.75 4.11 1.02 1.3 2.15 2.51 3.38 3.64 1.25 1.1 2.62 2.07 4.12 2.83l.04.02.05.01c1.45.31 2.89.55 4.36.7.73.07 1.47.13 2.22.13.74-.01 1.5-.05 2.25-.23l.19-.05.05-.17c.33-1.14.5-2.27.58-3.42.08-1.15.08-2.3-.01-3.44a23.99 23.99 0 0 0-.52-3.38c-.23-1.12-.59-2.2-.99-3.27-.94-1.86-2.02-3.63-3.13-5.4-1.14-1.74-2.35-3.46-3.85-4.95-.75-.74-1.6-1.4-2.5-1.96-.91-.56-1.88-.98-2.87-1.35-1.99-.73-4.08-1.08-6.19-1.12h-.08l-.04.04c-.89.85-1.22 1.93-1.54 2.98-.29 1.06-.45 2.16-.54 3.25-.09 1.09-.13 2.18-.11 3.28zm.33-3.27c.11-1.08.28-2.15.59-3.19.15-.52.35-1.02.59-1.49.23-.44.53-.89.86-1.18 2.01.12 4.01.6 5.9 1.29 1.9.73 3.7 1.74 5.19 3.13 1.5 1.39 2.82 2.99 4.04 4.67 1.22 1.67 2.29 3.46 3.28 5.28.37 1.07.71 2.15.91 3.27.24 1.11.32 2.24.36 3.37.04 1.13-.04 2.26-.19 3.37-.14 1.04-.35 2.09-.65 3.07-.62.1-1.26.12-1.91.1-.71-.01-1.43-.06-2.14-.14-1.41-.15-2.83-.4-4.21-.7-1.39-.74-2.72-1.62-3.93-2.66-1.2-1.07-2.33-2.24-3.35-3.49a42.391 42.391 0 0 1-2.82-3.96c-.86-1.37-1.66-2.79-2.33-4.25l-.16-1.59c-.05-.54-.06-1.09-.09-1.63-.04-1.1-.03-2.18.06-3.27z" fill="#e59e82" stroke-width="none" opacity="1" stroke="none"></path><path id="SvgjsPath27159" d="M49.2 91.53c.18-.69.39-1.36.67-2.03.07-.16.16-.33.26-.48.11-.15.23-.33.48-.37.45.02.72.22 1.06.37a18.3 18.3 0 0 1 3.48 2.44c.53.48 1.03 1.01 1.42 1.66.18.33.36.69.38 1.14.01.25-.01.36-.01.54l.01.51c.16 2.77.58 5.56.83 8.36l-.07.01c-.34-1.37-.61-2.75-.86-4.13-.26-1.39-.44-2.78-.55-4.2l-.03-.54v-.51c0-.26-.13-.56-.28-.84-.31-.57-.74-1.11-1.21-1.61-.94-1-2.01-1.94-3.22-2.61-.29-.16-.65-.33-.91-.33-.23.06-.41.43-.53.73-.26.63-.39 1.33-.52 2.01-.23 1.37-.39 2.77-.48 4.15-.02.34-.04.7-.02 1.01-.01.17.21.46.41.71.42.52.91 1.02 1.4 1.5.81.79 1.65 1.57 2.5 2.33.09-.91.18-1.82.24-2.74.04-.59.07-1.17.08-1.75.01-.53.01-1.07-.06-1.58-.15-.02-.33-.03-.5-.02a4.1 4.1 0 0 0-.69.1c-.46.1-.91.25-1.35.43l-.03-.07c.41-.25.85-.46 1.32-.62.23-.08.47-.15.72-.19.26-.04.49-.07.79-.01l.11.02.03.13c.15.61.18 1.21.22 1.81.02.6.02 1.19.01 1.79-.03 1.19-.08 2.37-.19 3.56l-.07.75-.58-.49c-1.08-.92-2.11-1.87-3.11-2.88-.49-.51-.98-1.03-1.43-1.61-.11-.15-.22-.3-.32-.47-.05-.09-.1-.18-.14-.29-.05-.11-.07-.28-.07-.37-.01-.39.03-.74.06-1.1.14-1.45.39-2.84.75-4.22z" fill="#c66c49" stroke-width="none" opacity="1" stroke="none"></path></g></g><g id="svga-group-ears-right-move" transform="matrix(1,0,0,1,0,0)"><g id="svga-group-ears-right" transform="matrix(1,0,0,1,0,0)"><path id="SvgjsPath27160" d="M134.2 98.48s4.2-8.27 8.66-11.42c4.46-3.15 9.84-3.15 9.84-3.15s3.02 2.1 1.97 12.6c0 0-4.46 10.76-12.47 14.7 0 0-5.77 1.31-8.66.66.01-.01-2.09-6.18.66-13.39z" fill="#f4baa3" stroke-width="none" opacity="1" stroke="none"></path><path id="SvgjsPath27161" d="M135.12 101.76s3.67-7.87 6.04-9.84c2.36-1.97 7.87-5.12 9.32-3.28 1.44 1.84 1.57 7.61 1.57 7.61s-1.57 4.59-6.3 7.09c-4.72 2.49-10.37 2.76-10.37 2.76l-.26-4.34z" fill="#e59e82" stroke-width="none" opacity="1" stroke="none"></path><path id="SvgjsPath27162" d="M154.91 89.96c-.09-1.09-.25-2.18-.54-3.25-.32-1.05-.65-2.13-1.54-2.98l-.04-.04h-.08c-2.11.04-4.21.39-6.19 1.12-.99.37-1.96.79-2.87 1.35-.9.56-1.75 1.22-2.5 1.96-1.5 1.49-2.71 3.21-3.85 4.95-1.11 1.77-2.18 3.54-3.13 5.4-.39 1.07-.76 2.15-.99 3.27a23.99 23.99 0 0 0-.52 3.38c-.1 1.14-.09 2.29-.01 3.44s.25 2.28.58 3.42l.05.17.19.05c.75.18 1.51.22 2.25.23.75 0 1.48-.05 2.22-.13 1.47-.15 2.91-.39 4.36-.7l.05-.01.04-.02c1.5-.76 2.87-1.73 4.12-2.83 1.23-1.12 2.36-2.34 3.38-3.64 1-1.31 1.93-2.68 2.75-4.11.82-1.43 1.57-2.89 2.2-4.42l.01-.03v-.02c.07-1.09.14-2.18.17-3.28.01-1.09-.03-2.18-.11-3.28zm-.16 3.28c-.03.54-.04 1.09-.09 1.63l-.16 1.59c-.67 1.47-1.47 2.89-2.33 4.25-.87 1.37-1.8 2.7-2.82 3.96a29.855 29.855 0 0 1-3.35 3.49 21.554 21.554 0 0 1-3.93 2.66c-1.38.3-2.8.54-4.21.7-.71.08-1.43.13-2.14.14-.64.01-1.29 0-1.91-.1-.3-.98-.51-2.03-.65-3.07-.15-1.11-.22-2.24-.19-3.37.04-1.13.12-2.26.36-3.37.2-1.12.54-2.2.91-3.27.98-1.82 2.05-3.61 3.28-5.28 1.21-1.67 2.54-3.28 4.04-4.67 1.49-1.39 3.28-2.4 5.19-3.13 1.88-.69 3.89-1.17 5.9-1.29.34.29.63.74.86 1.18.25.47.44.97.59 1.49.3 1.03.48 2.11.59 3.19.08 1.1.09 2.18.06 3.27z" fill="#e59e82" stroke-width="none" opacity="1" stroke="none"></path><path id="SvgjsPath27163" d="M150.8 91.53c-.18-.69-.39-1.36-.67-2.03-.07-.16-.16-.33-.26-.48-.11-.15-.23-.33-.48-.37-.45.02-.72.22-1.06.37a18.3 18.3 0 0 0-3.48 2.44c-.53.48-1.03 1.01-1.42 1.66-.18.33-.36.69-.38 1.14-.01.25.01.36.01.54l-.01.51c-.16 2.77-.58 5.56-.83 8.36l.07.01c.34-1.37.61-2.75.86-4.13.26-1.39.44-2.78.55-4.2l.03-.54v-.51c0-.26.13-.56.28-.84.31-.57.74-1.11 1.21-1.61.94-1 2.01-1.94 3.22-2.61.29-.16.65-.33.91-.33.23.06.41.43.53.73.26.63.39 1.33.52 2.01.23 1.37.39 2.77.48 4.15.02.34.04.7.02 1.01.01.17-.21.46-.41.71-.42.52-.91 1.02-1.4 1.5-.81.79-1.65 1.57-2.5 2.33-.09-.91-.18-1.82-.24-2.74-.04-.59-.07-1.17-.08-1.75-.01-.53-.01-1.07.06-1.58.15-.02.33-.03.5-.02.23.01.46.05.69.1.46.1.91.25 1.35.43l.03-.07c-.41-.25-.85-.46-1.32-.62a4.23 4.23 0 0 0-.72-.19c-.26-.04-.49-.07-.79-.01l-.11.02-.03.13c-.15.61-.18 1.21-.22 1.81-.02.6-.02 1.19-.01 1.79.03 1.19.08 2.37.19 3.56l.07.75.58-.49c1.08-.92 2.11-1.87 3.11-2.88.49-.51.98-1.03 1.43-1.61.11-.15.22-.3.32-.47.05-.09.1-.18.14-.29.05-.11.07-.28.07-.37.01-.39-.03-.74-.06-1.1a26.8 26.8 0 0 0-.75-4.22z" fill="#c66c49" stroke-width="none" opacity="1" stroke="none"></path></g></g><g id="svga-group-faceshape-wrap" transform="matrix(1,0,0,1,0,0)"><g id="svga-group-faceshape-single"><path id="SvgjsPath27194" d="M135.9 49.8c-6.7-7.4-11.3-13.2-28.8-17.3-1.8-.4-12.3-.4-14.1 0-17.5 4.1-22.1 9.9-28.8 17.3-7.1 7.8-9.5 29-9.5 29 0 9.6 1.3 32.3 13.3 47.2 17.8 22.2 32.1 22.3 32.1 22.3s14.2 0 32.1-22.3c12-14.9 13.3-37.6 13.3-47.2-.1 0-2.5-21.2-9.6-29z" fill="#f4baa3" stroke-width="none" opacity="1" stroke="none"></path><path id="SvgjsPath27195" d="M107.1 32.5c-1.8-.4-12.3-.4-14.1 0-17.5 4.1-22.1 9.9-28.8 17.3-7.1 7.8-9.5 29-9.5 29 0 9.6 1.3 32.3 13.3 47.2 17.8 22.2 32.1 22.3 32.1 22.3s14.2 0 32.1-22.3c12-14.9 13.3-37.6 13.3-47.2 0 0-2.4-21.2-9.5-29-6.9-7.4-11.5-13.2-28.9-17.3zM142 63.8c.7 2.5 1.1 5 1.6 7.5.4 2.5.7 5 1 7.5-.2 7.4-1.3 14.8-3 22-.9 3.6-1.9 7.1-3.3 10.5-.7 1.7-1.4 3.4-2.2 5s-1.7 3.2-2.7 4.7l-1.5 2.2c-.3.4-3.4 4.2-3.4 4.2l-3.7 4.1-6.1 5.7c-2.8 2.3-5.8 4.5-9 6.2l-1.2.6-1.2.6c-.8.4-1.6.7-2.5 1l-1.3.4c-.4.1-.8.2-1.3.3-.4.1-1.71.43-2.9.4 0 0-1.4-.2-1.9-.3-.4-.1-.9-.2-1.3-.3l-1.3-.4c-.8-.3-1.7-.6-2.5-1l-1.2-.5-1.2-.6c-3.2-1.6-6.3-3.7-9.1-6l-4.1-3.6-3.9-3.9-1-1-.9-1-1.8-2.1c-1.2-1.4-2.3-2.8-3.3-4.4-1-1.5-2-3.1-2.8-4.8-.8-1.6-1.6-3.3-2.3-5.1-.7-1.7-1.3-3.5-1.8-5.3s-1-3.6-1.4-5.4-.8-3.6-1-5.5c-.3-1.8-.5-3.7-.7-5.5-.4-3.7-.5-7.4-.5-11.1.3-2.3.8-4.6 1.2-6.9.5-2.3 1.1-4.6 1.7-6.8.7-2.2 1.4-4.5 2.3-6.6.4-1.1.9-2.1 1.4-3.1s2.59-4.47 6.3-8.1c1.6-1.7 3.3-3.3 5-4.7 3.5-2.8 7.7-4.9 12-6.5l1.6-.6c6.69-2.31 10.6-2.2 11.8-2.3 2.3-.1 4.71-.26 7-.1 3.16.22 6.8 1.4 6.8 1.4 2.3.6 4.5 1.3 6.7 2.3.3.1 1.6.7 1.6.7.5.3 2.6 1.3 3.1 1.7.5.3 5.3 3.7 6.9 5.4 1.7 1.7 3.3 3.4 4.9 5.2 1.7 1.9 2.9 4.2 3.9 6.6 1.1 2.4 1.9 4.8 2.5 7.3z" fill="#c66c49" stroke-width="none" opacity="1" stroke="none"></path></g></g><g id="svga-group-mouth-single-move" transform="matrix(1,0,0,1,0,0)"><g id="svga-group-mouth-single" transform="matrix(1,0,0,1,0,0)"><path id="SvgjsPath27137" d="M91.89 129s-1.07-.63-1.01-2.8c.06-2.17 1.52-7.03 9.04-7.22 8.23-.21 11.04 6.98 10.36 8.97 0 0-2.11 1.24-3.91.93s-2.98-.87-4.6-1.55c-1.62-.68-3.35.12-4.97.56-1.62.43-4.91 1.11-4.91 1.11z" fill="#da828c" stroke-width="none" opacity="1" stroke="none"></path><path id="SvgjsPath27138" d="M91.89 128.9s1.3 2.4 3.97 3.54c2.11.9 10.78 2.39 13.94-4.04 0 0-3.55.54-4.72.17s-3.91-1.03-5.08-1.16-3.45.61-4.38.89-3.73.6-3.73.6z" fill="#E2929B" stroke-width="none" opacity="1" stroke="none"></path><path id="SvgjsPath27139" d="M112.84 125.44c-1.44 1.81-3.53 2.68-5.82 2.78-2.42.11-4.4-.95-6.71-1.28-3.56-.52-8.56 3.93-11.08-.18-.19-.31-.7-.11-.59.25 1.5 5.1 8.65.29 11.72.82 1.36.23 2.63.85 4 1.09 1.3.22 2.63.28 3.94.06 2.05-.33 3.87-1.3 5.35-2.75.52-.51-.37-1.35-.81-.79z" fill="#d3737e" stroke-width="none" opacity="1" stroke="none"></path></g></g><g id="svga-group-eyes-left-move" transform="matrix(1,0,0,1,0,0)"><g id="svga-group-eyes-left" transform="matrix(1,0,0,1,0,0)"><g id="svga-group-eyesback-left"><path id="SvgjsPath27254" d="M80.2 77.2c7.5 0 13.5 5.8 13.5 13s-6 13-13.5 13-13.5-5.8-13.5-13 6-13 13.5-13z" fill="#ffffff" stroke-width="none" opacity="1"></path></g><g id="svga-group-eyesiriswrapper-left" transform="matrix(1,0,0,1,0,0)"><g id="svga-group-eyesiriscontrol-left" transform="matrix(1,0,0,1,0,0)"><g id="svga-group-eyesiris-left" transform="matrix(1,0,0,1,0,0)"><path id="SvgjsPath27208" d="M80.2 84.9c2.9 0 5.3 2.4 5.3 5.3s-2.4 5.3-5.3 5.3-5.3-2.4-5.3-5.3 2.4-5.3 5.3-5.3z" fill="#3e4442" stroke-width="none" opacity="1"></path><path id="SvgjsPath27209" d="M80.2 85.2c2.8 0 5.1 2.3 5.1 5.1s-2.3 5.1-5.1 5.1-5.1-2.3-5.1-5.1 2.3-5.1 5.1-5.1m0-.6c-3.1 0-5.6 2.5-5.6 5.6s2.5 5.6 5.6 5.6 5.6-2.5 5.6-5.6-2.5-5.6-5.6-5.6z" fill="#1b2522" stroke-width="none" opacity="1"></path><path id="SvgjsPath27210" d="M77.4 91.7c0 1.3.5 2.5 1.3 3.3.5.1 1 .2 1.5.2 2.8 0 5.1-2.3 5.1-5.1 0-1-.3-2-.8-2.8-.7-.3-1.4-.5-2.2-.5-2.8.1-4.9 2.3-4.9 4.9z" fill="#535353" stroke-width="none" opacity="1"></path><path id="SvgjsPath27211" d="M80.2 87.5c1.5 0 2.7 1.2 2.7 2.7s-1.2 2.7-2.7 2.7-2.7-1.2-2.7-2.7 1.2-2.7 2.7-2.7z" fill="#000000" stroke-width="none" opacity="1"></path><path id="SvgjsPath27212" d="M79 87.3c.8 0 1.4.6 1.4 1.4s-.6 1.4-1.4 1.4-1.4-.6-1.4-1.4.7-1.4 1.4-1.4zm2.7 4c.5 0 .9.4.9.9s-.4.9-.9.9-.9-.4-.9-.9.4-.9.9-.9z" fill="#ffffff" stroke-width="none" opacity="1"></path></g></g></g><g id="svga-group-eyesfront-left"><path id="SvgjsPath27262" d="M80.2 76.7c-7.8 0-14.1 6.1-14.1 13.6s6.3 13.6 14.1 13.6 14.1-6.1 14.1-13.6S88 76.7 80.2 76.7zM87.8 94c-2.5 2.1-13 4.4-16 3.5s-3.2-7.4-4-9.2c0 0 25.5-3.9 24.1-1.4-.2.4-1.6 4.9-4.1 7.1z" fill="#f4baa3" stroke-width="none" opacity="1" stroke="none"></path><path id="SvgjsPath27263" d="M89.1 97.9c-1.1 1.3-4.4 2-6.3 2.2-6.3.6-9.7.5-9.7.5s10.2 2.5 16.6-2.3c1.4-1.1 2.7-8.5 2.7-8.5s-1.4 6-3.3 8.1z" fill="#e59e82" stroke-width="none" opacity="1" stroke="none"></path><path id="SvgjsPath27264" d="M75.5 97.9c.8-.1 1.6-.3 2.4-.5.4-.1.7-.1 1.1-.2 1.4-.2 2.9-.6 4.3-1 .7-.2 1.4-.4 2.1-.7.7-.3 1.4-.6 2-1 .7-.4 1.1-1 1.6-1.6.4-.6.8-1.2 1.2-1.9.7-1.3 1.2-2.7 1.8-4.1.1-.1.1-.3 0-.4l-.1-.1c-.1-.1-.1-.1-.2-.1-.2-.1-.5-.1-.8-.2-.3 0-.6-.1-.8-.1-1.7-.3-3.4-.4-5.1-.4-1.2 0-2.4.1-3.5.2-.6.1-1.2.2-1.7.2l-1.7.2-1.3.2h-1.6c-.2 0-.5-.1-.7-.1-.5-.1-1-.2-1.4-.4-1-.3-1.9-.7-2.9-1.1.8.7 1.6 1.3 2.6 1.8.2.1.5.2.7.3l-2.2-.3-2.1-.3c-.7-.1-1.4-.3-2.1-.5.5.6 1.2.9 1.9 1.2.4.2.9.3 1.3.4l-2.7.6c-1.1.2-2.3.4-3.4.5 1.2.2 2.3.2 3.5.2h.1c.2.6.3 1.2.5 1.8.2.7.3 1.4.5 2.2s.4 1.4.7 2.1c.3.7.6 1.4 1.1 1.9.2.3.5.5.9.7.2.1.4.2.6.2-.3.1-.6.3-.8.5-.5.4-.8.9-1 1.5.4-.4.8-.9 1.2-1.2.2-.2.5-.3.7-.3.2-.1.5-.1.8-.1.2 0 .4 0 .7-.1 0 0-.1 0-.1.1-.3.2-.6.4-.8.6-.2.2-.4.6-.5.9.3-.6.9-.9 1.5-1.2.4-.2 1-.3 1.7-.4zm16.1-11.5c-.2 0-.4-.1-.7-.2.2.1.4.1.7.2zm-21 10.2c-.9-1.1-1.3-2.6-1.6-4-.2-.7-.3-1.4-.4-2.2-.1-.6-.2-1.2-.4-1.7 1 0 2-.1 3-.2 1.2-.1 2.3-.2 3.5-.3 1.2-.1 2.3-.3 3.4-.5l2.6-.4 11-.8c.1 0 .1.1.2.1.1.1.1.2 0 .3-.6 1.4-1.1 2.7-1.8 4l-1.2 1.8c-.5.6-1 1.1-1.6 1.4-1.2.8-2.6 1.2-4 1.7-1.4.4-2.8.8-4.2 1.1-.5.1-.8.1-1.1.2-.2 0-.4.1-.6.1-.7.1-1.3.2-2 .3h-3.1c-.3-.1-.7-.1-.9-.3-.3-.1-.6-.3-.8-.6z" fill="#09112e" stroke-width="none" opacity="1" stroke="none"></path></g></g></g><g id="svga-group-eyes-right-move" transform="matrix(1,0,0,1,0,0)"><g id="svga-group-eyes-right" transform="matrix(1,0,0,1,0,0)"><g id="svga-group-eyesback-right"><path id="SvgjsPath27255" d="M119.8 77.2c7.5 0 13.5 5.8 13.5 13s-6 13-13.5 13-13.5-5.8-13.5-13 6-13 13.5-13z" fill="#ffffff" stroke-width="none" opacity="1"></path></g><g id="svga-group-eyesiriswrapper-right" transform="matrix(1,0,0,1,0,0)"><g id="svga-group-eyesiriscontrol-right" transform="matrix(1,0,0,1,0,0)"><g id="svga-group-eyesiris-right" transform="matrix(1,0,0,1,0,0)"><path id="SvgjsPath27213" d="M119.8 85.5c2.6 0 4.7 2.1 4.7 4.7s-2.1 4.7-4.7 4.7-4.7-2.1-4.7-4.7 2.1-4.7 4.7-4.7z" fill="#3e4442" stroke-width="none" opacity="1"></path><path id="SvgjsPath27214" d="M119.8 85.8c2.4 0 4.4 2 4.4 4.4s-2 4.4-4.4 4.4-4.4-2-4.4-4.4 1.9-4.4 4.4-4.4m0-.5c-2.7 0-4.9 2.2-4.9 4.9s2.2 4.9 4.9 4.9 4.9-2.2 4.9-4.9-2.2-4.9-4.9-4.9z" fill="#1b2522" stroke-width="none" opacity="1"></path><path id="SvgjsPath27215" d="M117.3 91.5c0 1.1.4 2.2 1.2 2.9.4.1.8.2 1.3.2 2.4 0 4.4-2 4.4-4.4 0-.9-.3-1.8-.7-2.4-.6-.3-1.2-.5-1.9-.5-2.4 0-4.3 1.9-4.3 4.2z" fill="#535353" stroke-width="none" opacity="1"></path><path id="SvgjsPath27216" d="M119.8 87.8c1.3 0 2.4 1.1 2.4 2.4s-1.1 2.4-2.4 2.4-2.4-1.1-2.4-2.4 1.1-2.4 2.4-2.4z" fill="#000000" stroke-width="none" opacity="1"></path><path id="SvgjsPath27217" d="M118.8 87.7c.7 0 1.2.5 1.2 1.2s-.5 1.2-1.2 1.2-1.2-.5-1.2-1.2.5-1.2 1.2-1.2zm2.3 3.5c.4 0 .8.4.8.8s-.4.8-.8.8-.8-.4-.8-.8.4-.8.8-.8z" fill="#ffffff" stroke-width="none" opacity="1"></path></g></g></g><g id="svga-group-eyesfront-right"><path id="SvgjsPath27265" d="M119.8 76.7c-7.8 0-14.1 6.1-14.1 13.6s6.3 13.6 14.1 13.6 14.1-6.1 14.1-13.6-6.3-13.6-14.1-13.6zm9.5 18.7c-3 .8-14.5.8-17-1.1s-3.9-5.9-4.1-6.2c-1.4-2.2 24.1 1.2 24.1 1.2-.8 1.6 0 5.3-3 6.1z" fill="#f4baa3" stroke-width="none" opacity="1" stroke="none"></path><path id="SvgjsPath27268" d="M131.6 93.3c.2-.7.3-1.3.4-2 .1-.6.2-1.3.4-1.8h2.9c-1.7-.4-3.4-.7-5.1-1 .6-.1 1.1-.3 1.7-.5.9-.3 1.8-.8 2.4-1.5-.9.4-1.8.6-2.7.8-.9.2-1.8.3-2.7.4-.8.1-1.6.2-2.3.2h-.1c.4-.1.8-.3 1.2-.5 1-.5 2-1.1 2.8-1.9-1.1.4-2.1.8-3.1 1.2-.5.2-1 .3-1.6.5-.5.1-1 .2-1.6.3h-1l-1.9-.2-3.5-.3c-1.2-.1-2.4-.2-3.6-.2-2.4 0-4.8.2-7.1.8l1.3.1c-.1 0-.2.1-.3.2-.1.1-.1.3 0 .4.3.6.5 1.2.8 1.8.3.6.6 1.2 1 1.8.3.6.7 1.1 1.2 1.6.2.3.5.5.7.7l.4.3c.1.1.3.2.4.3.6.3 1.3.5 1.9.7.7.2 1.3.3 2 .4 1.3.2 2.7.3 4 .3 1.3 0 2.7 0 4-.1.4 0 .7 0 1.1-.1.7.1 1.5.1 2.2 0H128.5c.2 0 .4.1.7.2.5.2.9.3 1.3.7-.3-.4-.7-.8-1.2-1-.1 0-.1-.1-.2-.1.1 0 .2 0 .4-.1.1 0 .2-.1.3-.1.1 0 .2-.1.2-.1.3-.1.7-.1 1-.1s.7 0 1.1.1c-.3-.2-.7-.4-1.1-.5-.2 0-.4-.1-.7 0 .8-.5 1.1-1.1 1.3-1.7zm-1.2 1.5c-.1.1-.1.1-.2.1h-.2c-.1 0-.2.1-.3.1s-.2.1-.2.1c-.2.1-.3.1-.5.2-.1 0-.3.1-.4.1H127.9c-.9 0-1.8.1-2.7.3-1.5 0-3.1 0-4.6-.1-1.3-.1-2.7-.2-4-.4-1.3-.2-2.6-.4-3.8-.9-.2-.1-.3-.2-.4-.2l-.4-.3c-.2-.2-.5-.4-.7-.7-.4-.5-.9-1-1.2-1.6-.8-1.1-1.3-2.3-1.9-3.5-.1-.1-.1-.2 0-.3.1-.1.2-.1.3-.2.1 0 .2 0 .2-.1l8.5.6c.2 0 .3 0 .5.1l3.5.4 3.5.3c1.2.1 2.3.2 3.5.3 1.2.1 2.3.1 3.5.2h.3c-.2.6-.3 1.2-.3 1.8-.1.7-.1 1.3-.3 1.9-.2.8-.5 1.4-1 1.8z" fill="#09112e" stroke-width="none" opacity="1" stroke="none"></path><path id="SvgjsPath27269" d="M119 99.1c-1.3-.3-5.4-1.2-6.6-2.4-2-1.8-4.3-6.1-4.3-6.1s1.9 5.7 3 7c1 1.3 12 2.9 13.1 2.7 1.1-.2-3.9-.9-5.2-1.2zm-12.1-16.7-1.1.7 19.2 1.2-18.1-1.9z" fill="#e59e82" stroke-width="none" opacity="1" stroke="none"></path></g></g></g><g id="svga-group-facehighlight-single"></g><g id="svga-group-eyebrows-left-move" transform="matrix(1,0,0,1,0,0)"><g id="svga-group-eyebrows-left-rotate" transform="matrix(1,0,0,1,0,0)"><g id="svga-group-eyebrows-left" transform="matrix(1,0,0,1,0,0)"><path id="SvgjsPath27320" d="M64.17 82.74c2.07-1.67 4.13-3.36 6.24-4.96 1.05-.81 2.1-1.61 3.17-2.38l.8-.57.81-.54.4-.25c.13-.08.29-.19.35-.19.15-.08.37-.09.61-.1.49 0 1.06.16 1.62.38s1.12.49 1.68.79c1.11.6 2.22 1.24 3.36 1.88 1.14.63 2.27 1.29 3.44 1.92 1.16.64 2.33 1.28 3.57 1.86l.14-.18c-.83-1.1-1.78-2.07-2.77-2.98-.99-.92-2.05-1.77-3.17-2.55-1.12-.78-2.32-1.46-3.61-1.99-.65-.26-1.33-.49-2.03-.67-.71-.17-1.45-.33-2.29-.27-.42.05-.88.11-1.32.36-.25.12-.35.22-.5.32l-.43.31-.81.63-.78.65c-1.02.88-2 1.79-2.98 2.7-1.93 1.85-3.82 3.72-5.65 5.66l.15.17z" fill="#503200" stroke-width="none" opacity="1" stroke="none"></path></g></g></g><g id="svga-group-eyebrows-right-move" transform="matrix(1,0,0,1,0,0)"><g id="svga-group-eyebrows-right-rotate" transform="matrix(1,0,0,1,0,0)"><g id="svga-group-eyebrows-right" transform="matrix(1,0,0,1,0,0)"><path id="SvgjsPath27321" d="M133.2 82.74c-1.89-1.44-3.77-2.89-5.7-4.27-.96-.69-1.92-1.39-2.9-2.04l-.73-.48-.73-.47-.37-.21c-.12-.07-.27-.16-.32-.16-.13-.06-.33-.07-.55-.07-.44.02-.95.17-1.44.38-.5.21-.99.47-1.47.75-.98.57-1.96 1.17-2.94 1.77-1 .6-2 1.2-3.02 1.8-1.02.6-2.05 1.2-3.14 1.76l-.14-.15c.71-1 1.54-1.89 2.39-2.74.86-.85 1.78-1.63 2.76-2.36.98-.72 2.03-1.37 3.17-1.87.58-.25 1.17-.48 1.8-.66.63-.17 1.28-.33 2.05-.3.38.03.79.08 1.19.29.23.11.31.18.45.28l.39.27.73.55.71.56c.93.76 1.83 1.55 2.73 2.33 1.77 1.61 3.51 3.22 5.19 4.91l-.11.13z" fill="#503200" stroke-width="none" opacity="1" stroke="none"></path></g></g></g><g id="svga-group-nose-single-move" transform="matrix(1,0,0,1,0,0)"><g id="svga-group-nose-single" transform="matrix(1,0,0,1,0,0)"><path id="SvgjsPath27302" d="M94.71 101.62c-.22.12-4.9 2.79-5.07 6.17-.17 3.38 1.94 4.56 3.72 3.13 1.77-1.44 2.37-1.1 3.46-.17 1.1.93 4.23 1.44 5.49.42 1.27-1.01 1.86-1.44 3.3 0 1.44 1.44 5.32-.68 4.06-5.24S99.45 99 94.71 101.62z" fill="url(#SvgjsLinearGradient27303)" opacity="1"></path><path id="SvgjsPath27306" d="M94.71 101.62c-.97.58-1.89 1.25-2.7 2.03-.82.77-1.54 1.67-1.96 2.71-.12.25-.17.53-.25.8-.02.14-.03.28-.05.41-.02.14-.03.27-.02.42-.01.56.06 1.12.22 1.64.16.52.43 1.01.84 1.34.4.34.95.43 1.45.31.13-.02.24-.09.37-.12.11-.06.23-.12.34-.19l.32-.24c.11-.09.22-.18.34-.27.46-.34.96-.71 1.65-.76.34-.02.68.09.95.24.27.15.51.34.73.51.39.34.89.52 1.4.67 1.02.28 2.17.37 3.14.07.25-.07.44-.19.63-.32.22-.18.45-.36.69-.53.25-.17.52-.35.88-.43.36-.09.76-.02 1.07.12.31.15.56.34.79.54.12.1.22.2.33.31.09.09.16.14.25.2.37.21.87.21 1.33.05.94-.32 1.68-1.19 1.97-2.19.31-1 .24-2.13-.07-3.16-.32-1.01-1.04-1.9-1.9-2.59-.86-.7-1.85-1.23-2.89-1.64-1.04-.4-2.14-.7-3.25-.85-1.11-.15-2.25-.19-3.37-.05-1.12.12-2.23.43-3.23.97zm0 0c.99-.54 2.1-.86 3.22-1 1.12-.15 2.26-.15 3.39-.02 2.24.25 4.5.93 6.37 2.3.92.68 1.74 1.59 2.16 2.72.2.56.32 1.13.37 1.73.04.59.01 1.2-.16 1.78-.32 1.16-1.15 2.25-2.36 2.69-.59.21-1.32.26-1.95-.09-.08-.05-.15-.1-.22-.15a3.25 3.25 0 0 1-.19-.17c-.1-.09-.19-.19-.29-.27-.2-.18-.41-.32-.61-.42-.2-.1-.39-.12-.58-.08-.2.04-.41.16-.63.31-.22.15-.43.32-.65.49-.27.2-.57.36-.87.44-.6.19-1.21.21-1.8.18a7.96 7.96 0 0 1-1.74-.32c-.56-.18-1.14-.43-1.59-.85-.42-.36-.84-.71-1.29-.69-.46.01-.95.3-1.4.61-.11.08-.22.16-.33.25l-.37.25c-.13.07-.27.14-.41.21-.15.04-.29.11-.44.13-.6.12-1.28-.03-1.72-.45-.46-.4-.73-.96-.87-1.51-.14-.56-.2-1.14-.16-1.71 0-.14.02-.29.04-.43s.04-.29.07-.42c.09-.27.15-.56.28-.81.21-.53.55-1 .88-1.45.36-.44.74-.86 1.16-1.24.8-.78 1.72-1.45 2.69-2.01z" fill="#c66c49" stroke-width="none" opacity="1" stroke="none"></path></g></g><g id="svga-group-hair-front" transform="matrix(1,0,0,1,0,0)"><path id="SvgjsPath27356" d="M106.8 43.7s-2.2 14.7-11.4 19.2c-9.1 4.5-19.4 3.2-27.7 5.8S54.8 78.9 60.2 86c0 0-4.3-1.5-3.7-8.2 0 0-3 9.1 5.2 15.8 0 0-6.9-1.5-9.7-11.4S49.4 61.7 57.6 50s20.3-24.6 48.6-20.9 39.1 31.3 39.7 34.8c.6 3.5 7.3 24.2-6.3 35.4 0 0 5-8.2 1.1-16.6s-13.8-14-17.1-15.3c-3.3-1.3-11.9-7.8-14.2-12.7s-3-8.2-2.6-11z" fill="#501515" stroke-width="none" opacity="1" stroke="none"></path><path id="SvgjsPath27357" d="M105.7 36.9c-.1-.4-.7-.2-.6.2 1.6 8.4-.7 16.9-7.1 22.8-6.8 6.3-15.6 5.6-24.2 6.8-5.4.8-11.4 2.5-14.5 7.4-2.4 3.8-2.7 8.8.5 12.2.3.3.8-.1.6-.4-7.1-10.7 6.4-17.2 15-18.1 6.4-.7 13.2-.6 18.9-3.9 9.2-5.3 14.4-16.9 11.4-27zM59.1 48.4c10.5-15.7 28-20.9 46-19.1.3 0 .3-.4.1-.5C86.8 24 66.5 34 57 49.8c-7 11.7-12.3 37.4 3.9 44.6.2.1.4-.2.2-.3-14.7-10.5-10.8-32.6-2-45.7zm39.2-11.8c-6.7 16.7-25.3 17.8-37.2 29-7 6.6-10.8 19.3-1.6 26 .3.2.7-.3.4-.6-5.7-5.2-6.1-13.2-2.2-19.7 3.8-6.2 10.3-9.9 16.6-13.1 9.4-4.8 22-10 24.4-21.6.1-.2-.3-.3-.4 0zM145 60.5c-5.8-15.2-20-28.1-36.4-30.6-.3 0-.4.4-.1.5 15 4.4 27.7 12.9 34.4 27.5 5.3 11.6 7.6 29.7-1.9 39.5 3.2-5.4 1.7-13.6-2.2-18.6C129 66.1 103 61.4 108 40.9c.1-.3-.3-.3-.4-.1-4.6 11.1 5.8 20.5 14.2 26 6.1 4 12.8 7.6 17 13.8 4.6 7 4.1 17.8-4.9 21-.4.1-.2.8.2.6.8-.2 1.6-.5 2.3-.8.1.1.3.2.5.1 14.4-7 12.9-28.5 8.1-41zm-24.6-6c7.3 6.7 15.8 11.5 19.6 21.2.1.2.4.2.4-.1-4.1-17-28.6-20.4-28.4-39.6 0-.4-.5-.3-.5 0-.8 7.5 3.6 13.7 8.9 18.5z" fill="#410b0b" stroke-width="none" opacity="1" stroke="none"></path></g><g id="svga-group-glasses-single-move" transform="matrix(1,0,0,1,0,0)"><g id="svga-group-glasses-single" transform="matrix(1,0,0,1,0,0)"></g></g></g></g></g><rect id="svga-credit-rect" width="200" height="15" x="0" y="185" fill="#ecf0f1" opacity="0.5" style="display: none;"></rect><text id="svga-credit-text" font-family="Avenir Next, Roboto, Helvetica, Arial, sans-serif" font-size="10px" text-anchor="start" font-weight="400" size="10px" anchor="start" weight="400" fill="#333333" x="33.40447998046875" y="182.60824704170227" style="display: none;"><tspan id="SvgjsTspan26709" dy="13" x="33.40447998046875">Created on AvatarMaker.com</tspan></text></g></svg>