<svg xmlns="http://www.w3.org/2000/svg" version="1.1" width="600px" height="600px" viewBox="0 0 200 200" style="overflow:hidden!important;"><defs id="SvgjsDefs51727"></defs><g id="svga-group-wrapper"><g id="svga-group-backs-single"></g><g id="svga-group-humanwrap-move" transform="matrix(1,0,0,1,0,0)"><g id="svga-group-humanwrap" transform="matrix(1,0,0,1,0,0)"><g id="svga-group-hair-back-move" transform="matrix(1,0,0,1,0,0)"><g id="svga-group-hair-back" transform="matrix(1,0,0,1,0,0)"><path id="SvgjsPath52448" d="M104 26.7s-7-6.5-22.7-7.3S47.7 24.5 36 45.6s-6 45.2 5.4 59.6 19.2 17.1 16.8 26.8c-2.4 9.8-12.2 6.8-14.9 5.1 0 0-1.9 7 12.2 7.9 0 0-2.2 4.6 5.7 4.3 0 0 .8 5.1 13 3.5 0 0 1.6 5.7 14.3 1.9 0 0 4.9 5.1 11.6 3 6.8-2.2 15.7 1.9 20-3.5 0 0 8.9 2.7 11.6-1.6 0 0 8.4 4.3 13-.5 0 0 5.7 2.2 12.2-4.1 0 0-12.4 2.2-12.4-6.8s6.8-14.1 10.3-16.5c3.5-2.4 12.4-15.2 14.4-29.5s.5-29.2-4.1-39S155.6 34.8 144 28c-11.6-6.7-24.6-11.1-40-1.3z" fill="#000000" stroke-width="none" opacity="1" stroke="none"></path><path id="SvgjsPath52449" d="M104.1 25.7C78.4 9.2 45 22.8 33.6 49.9c-5.8 13.8-5.3 29.3.4 43 2.9 7 7.2 13.5 12.4 19 3.2 3.4 7 6.4 9.4 10.5 3.6 6.2 2.2 17.3-7.3 15.6-.6-.1-.9.8-.3.9 4.6 1.4 9.1-1.6 10.5-6.1 1.9-6-2-12-5.9-16.3-5.9-6.4-11.8-12.1-15.8-20-4.1-8.1-6.4-17.1-6.4-26.1 0-16.6 8.3-33.2 22-42.7 15.1-10.4 35.3-10.7 50.9-1.4.7.6 1.1-.3.6-.6zm61.7 30.1c-4.8-12.4-13.5-23.6-25.1-30.2-10.9-6.1-25.5-8-35.8.2-.3.2.1.7.4.5 14.7-10.7 34-3.2 45.7 8.4 12 11.9 17.8 28.5 18.1 45.3.2 8.6-.9 17.3-3.4 25.6-2.8 9.1-7.8 14.9-14.6 21.2-3.9 3.6-8.1 8.6-7.2 14.4.7 4.7 4.8 8 9.4 7.1.5-.1.4-1-.1-.9-4.7.5-8.2-3.4-8.1-7.9.1-3.5 2.1-6.7 4.4-9.3 2.8-3.1 6.3-5.5 9.1-8.6 4.8-5.3 7.5-11.9 9.2-18.8 3.8-15.4 3.7-32.1-2-47zm-97.1 81.4c.2-.4-.4-.8-.7-.4-5.7 8.1-15.5 10-23.3 3.7-.3-.2-.6.1-.4.4 7.4 6.9 19.5 5.5 24.4-3.7zm4.8 1.9c-2.4 5.4-6.5 9.5-12.7 10-.5 0-.5.8 0 .8 5.9-.3 12.2-4.4 13.4-10.5.1-.4-.5-.7-.7-.3zm8.8 3c-.2 5.3-3.2 10.1-8.8 10.9-.3 0-.2.5.1.5 5.4-.4 10.6-5.8 9.3-11.4-.1-.4-.6-.3-.6 0zm62.7 9.3c-9.1-1.9-13.3-10.2-8.7-18.6.2-.3-.2-.6-.5-.4-6.1 7.4-.9 19.7 9 19.6.5.1.6-.6.2-.6zm-13.9 0c-5.1-3.2-6.2-9-4.6-14.4.1-.4-.4-.6-.6-.2-3.1 5.3-.2 12.3 4.9 15.1.3.1.6-.3.3-.5zm-10.7 2.2c-5.2-3-7.1-8.8-5.4-14.4.1-.4-.5-.6-.7-.3-3.1 5.6.1 13 5.8 15.4.4.2.7-.5.3-.7zm38.5-92.3c7.4 18.9 4.8 39.3-8.5 54.8-.3.4.2.9.5.5 15.4-14.9 16.1-39.4 7.9-58-7.1-16.2-27-42.7-47.7-31.9-.2.1-.1.4.1.3 21.9-8.8 40.8 16.7 47.7 34.3zM86.8 25.2c-31.1-5.5-58.3 25.9-50 55.9.1.3.5.2.5-.1-2.8-14.8.6-30.6 11.2-41.7 10.1-10.5 24-14.5 38.2-13.7.2 0 .3-.4.1-.4z" fill="#000000" stroke-width="none" opacity="1" stroke="none"></path></g></g><g id="svga-group-humanbody-back"><path id="SvgjsPath52032" d="M77.8 105.9s4.8 37.7 10 55.8c0 0-6.4 8.8-14.5 11.9-28.7 11.2-35 11.2-39.6 15.2-2.4 2.1.2 11.1 1.8 17.2 1.3 5 1.7 13.2 1.7 13.2h132.2s1.6-33-.6-39.8-7.1-2.9-21.9-4.5c-14.8-1.6-28.7-10.3-31-13.2l.3-60-38.4 4.2z" fill="#f6e4e2" stroke-width="none" opacity="1" stroke="none"></path></g><g id="svga-group-chinshadow-single"><path id="SvgjsPath52296" d="M85.5 153.6c10 1 23.1.5 30.1-1.4l.3-50.5-38.4 4.2c0-.1 3.6 28.4 8 47.7z" fill="#d7a19b" stroke-width="none" opacity="1" stroke="none"></path></g><g id="svga-group-humanbody-front"><path id="SvgjsPath52033" d="M72.1 183.1s14.6-.2 20.4 2.6c5.8 2.9 12.7 2.4 16.1-1s21.6-7 21.6-7-19.7 1.9-25 4.6c-5.3 2.7-22.3-2.8-33.1.8z" fill="#d7a19b" stroke-width="none" opacity="1" stroke="none"></path><path id="SvgjsPath52034" d="M74.2 173.2c6.7-1.3 14.7-6.4 14.7-6.4l6.2 5.5c-4.3-7.9-12.7-41.1-12.7-41.1l-.7.7c1.7 10.5 3.9 21.9 6.1 29.7 0 0-6 8.2-13.6 11.6z" fill="#d7a19b" stroke-width="none" opacity="1" stroke="none"></path><path id="SvgjsPath52035" d="M170.7 188.5c-.1-2.1-.2-4.1-.4-6.2-.1-1-.3-2.1-.6-3.2-.2-.5-.4-1-.6-1.6-.2-.5-.6-1-1-1.5s-.9-.9-1.5-1.1c-.6-.3-1.1-.4-1.7-.6-1.1-.2-2.2-.2-3.2-.2-2.1 0-4.1.1-6.1.1s-4-.1-6-.2-4-.4-6-.7c-1-.2-2-.4-2.9-.6l-1.5-.4c-.5-.1-1-.3-1.4-.4-3.8-1.1-7.6-2.6-11.2-4.4l-1.3-.7-1.3-.7c-.4-.2-.9-.5-1.3-.8s-.9-.5-1.3-.8-.8-.5-1.3-.8l-1.2-.9-.6-.5-.3-.2-.3-.2c-.2-.2-.4-.3-.5-.5l-.2-.3v-44.6l-.1-15v-.6l-.6.1c-6.4.8-12.9 1.5-19.3 2.3l-19.1 2.3v.5l.1.4.1.9.2 1.8c.1 1.2.3 2.3.4 3.5l.9 7c.6 4.7 1.3 9.4 2.1 14 .8 4.7 1.5 9.3 2.5 14 .9 4.5 1.8 9 3 13.5-1.1 1.4-2.3 2.7-3.6 4-1.3 1.3-2.8 2.6-4.3 3.8-1.5 1.1-3.1 2.2-4.8 3l-1.3.6c-.4.2-.9.3-1.3.5l-2.7 1c-7.2 2.7-14.5 5.3-21.8 7.7l-5.5 1.8c-1.8.6-3.7 1.3-5.5 2.2-.4.2-.9.5-1.3.7-.4.3-.9.5-1.3.9l-.6.5c-.2.2-.5.5-.6.8-.3.5-.4 1.1-.5 1.6-.2 1.1-.1 2.1 0 3.1s.3 2 .4 2.9c.4 1.9.8 3.8 1.3 5.7l.8 2.8c.3.9.5 1.8.7 2.8.4 1.9.7 3.8.9 5.7s.4 3.8.5 5.7v.8h133.4v-.8c.2-4.1.4-8.2.5-12.3s.2-8.2.2-12.3c0-1.8-.1-3.8-.1-5.9zm-67.4 30.3H70.2l-16.5-.1-16-.1c-.1-1.8-.2-3.5-.4-5.3-.2-1.9-.4-3.9-.8-5.8-.2-1-.4-1.9-.7-2.9l-.7-2.8c-.5-1.9-.9-3.7-1.2-5.6-.2-.9-.3-1.9-.4-2.8-.1-.9-.1-1.9 0-2.7.1-.4.2-.8.4-1.1.1-.2.2-.3.3-.4l.5-.4c.3-.3.7-.5 1.1-.8.4-.2.8-.5 1.2-.7 1.7-.8 3.5-1.4 5.3-2l5.5-1.8c7.3-2.4 14.6-5 21.8-7.8l2.7-1c.5-.2.9-.3 1.4-.5l1.4-.6c1.8-.9 3.4-2 5-3.2s3-2.5 4.4-3.9 2.7-2.9 3.8-4.5l.2-.3-.1-.3c-1.3-4.5-2.3-9.1-3.3-13.7s-1.9-9.3-2.7-13.9c-.8-4.6-1.6-9.3-2.4-14l-2.2-13.9 19.3-1.8c6.2-.6 12.3-1.2 18.5-1.8l-.2 14.4-.2 15-.3 30v.4l.2.2.6.7.6.6.3.3.3.2.6.5c.4.3.9.6 1.3.9.4.3.9.6 1.3.9.4.3.9.5 1.3.8s.9.5 1.3.8l1.4.8 1.4.7c.5.2.9.5 1.4.7l1.4.7c1 .4 1.9.8 2.9 1.2s1.9.8 2.9 1.1l1.5.5c.5.2 1 .3 1.5.4.5.1 1 .3 1.5.4l1.5.4c1 .3 2 .4 3 .6 2 .4 4.1.6 6.2.8 2.1.2 4.1.2 6.2.2 2.1 0 4.1-.1 6.1-.1s4 .1 5 1.3c.5.6.9 1.4 1.2 2.3.3.9.4 1.9.6 2.8.3 2 .4 4 .5 6s.1 4.1.2 6.1c.1 7.9-.1 15.8-.4 23.7-10.8.1-21.5.1-32.3.2h-33.1z" fill="#c8837c" stroke-width="none" opacity="1" stroke="none"></path><path id="SvgjsPath52036" d="M150.7 219.2 147 198l-.4 21.2z" fill="#d7a19b" stroke-width="none" opacity="1" stroke="none"></path><path id="SvgjsPath52037" d="M47.3 203.5s2.2 11.5 2.9 15.7h3.5l-6.4-15.7z" fill="#d7a19b" stroke-width="none" opacity="1" stroke="none"></path></g><g id="svga-group-clothes-single"><path id="SvgjsPath52509" d="M171 186.3c-.6-10.9-3.4-11.4-5.5-12.3-2.1-1-11 .6-17-.5s-20.3-2.9-31.4-12.3l-.2-17.1s-13.7 9.1-32.8 1.4c0 0 1.2 9.5 2.5 15.2 0 0-5.8 7-9.4 9.4S55.6 178.9 50 181s-14.4 3.9-16.2 5.7-3.2 3.9-1.8 8.4c1.5 4.5 4.8 19.4 4.8 24.8h133.4c-.1-.1 1.4-22.8.8-33.6zm-66.3 15.9c-6.9 1.7-16.1-5-14.2-17.1s3.2-23.6 3.2-23.6 8.2 1 14.7 0c0 0 3 15.1 4.5 21.4 1.5 6.2-1.3 17.6-8.2 19.3z" fill="#111111" stroke-width="none" opacity="1" stroke="none"></path><path id="SvgjsPath52510" d="M171.1 186.3c-.2-2.7-.4-5.5-1.3-8.1-.4-1.3-1.2-2.6-2.4-3.4-.6-.4-1.2-.7-1.9-.9-.7-.3-1.4-.3-2.1-.4-5.5 0-11 .7-16.3-.6-5.4-1-10.7-2.2-15.8-4.2-4.9-1.9-9.6-4.5-13.6-7.9 0-5.6 0-11.2-.1-16.8v-1.6l-1.3.8c-2.3 1.4-4.9 2.4-7.6 3.1-2.7.7-5.4 1.1-8.2 1.2-2.8.1-5.6-.1-8.3-.5-2.7-.5-5.4-1.2-8.1-2.2l-1-.4.2 1c.8 5 1.5 10 2.7 15-1.2 1.4-2.5 2.9-3.8 4.2-1.3 1.4-2.7 2.8-4.2 4.1-1.4 1.3-3.2 2-5 2.9-1.8.8-3.6 1.5-5.4 2.3-3.7 1.4-7.3 2.8-11 4.1l-5.5 2c-1.8.7-3.7 1.3-5.6 1.9l-5.7 1.6c-1.9.6-3.8 1.1-5.6 2.1-.5.2-.9.7-1.2 1-.3.4-.7.8-1 1.2-.6.9-1 1.9-1.1 3-.1 1.1 0 2.1.2 3.1s.5 1.9.8 2.9c1 3.8 1.8 7.6 2.5 11.5.4 1.9.7 3.9 1 5.8.3 1.9.5 3.9.5 5.7v.8h.8l33.3.2 16.7.1h16.7c11.1 0 22.2 0 33.3-.1 11.1-.1 22.2-.3 33.4-.5h.4v-.4c.3-5.6.5-11.2.6-16.8.1-2.8.1-5.6.1-8.4.1-2.8.1-5.6-.1-8.4zm-.1 8.3c0 2.8-.1 5.6-.2 8.4-.2 5.5-.6 10.9-1 16.4l-21.2-.3c.6-4 1.1-7.9 1.6-11.9.3-2.1.6-4.1.9-6.2.3-2.1.7-4.1 1.1-6.1.4-2 1-3.9 1.9-5.7.9-1.8 2-3.6 3.1-5.3 1.2-1.7 2.5-3.3 3.9-4.8s2.9-3 4.7-4.1c-1 .4-1.9.9-2.8 1.5-.9.6-1.7 1.3-2.5 1.9-1.6 1.4-3.1 2.9-4.4 4.6-1.4 1.6-2.6 3.4-3.6 5.4-1 1.9-1.7 4.1-2.2 6.1-.9 4.2-1.3 8.4-1.6 12.6-.3 4-.3 8-.2 12-3.9-.1-7.8-.1-11.6-.1-11.1-.1-22.2-.1-33.3-.1H86.9l-16.7.1-18.5.1c-.1-3-.5-5.9-.9-8.8-.5-3.1-1-6.2-1.9-9.3-.5-1.7-1.5-3.1-2.5-4.4-1-1.3-2.1-2.4-3.3-3.5-2.3-2.2-4.8-4.1-7.5-5.7 2.2 2.2 4.4 4.4 6.5 6.8 1 1.2 2 2.3 2.9 3.6.8 1.2 1.7 2.5 2 3.8.7 3 1.4 6 2.2 9.1.7 2.8 1.5 5.7 2.4 8.5l-14 .1c-.1-1.8-.3-3.4-.6-5.1-.3-2-.7-3.9-1.1-5.8-.8-3.9-1.7-7.7-2.8-11.5-.3-1-.6-1.9-.8-2.8-.2-.9-.3-1.8-.2-2.7.1-.9.4-1.7.9-2.5.2-.4.5-.7.9-1.1.3-.4.6-.6 1-.9 1.6-.9 3.5-1.5 5.4-2.1l5.6-1.7c1.9-.6 3.8-1.2 5.6-1.9l5.5-2c3.7-1.4 7.4-2.8 11-4.2 1.8-.7 3.7-1.4 5.5-2.2.9-.4 1.8-.8 2.7-1.3.9-.4 1.8-1 2.5-1.7 3.1-2.6 5.7-5.5 8.3-8.5l.1-.1-.1-.2c-1-4.7-1.6-9.4-2.2-14.2 2.4.9 4.8 1.6 7.3 2.1 2.8.6 5.7.8 8.6.8 2.9-.1 5.8-.5 8.6-1.2 2.3-.6 4.6-1.4 6.8-2.6 0 5.2.2 10.4.2 15.7v.4l.3.2c2.2 1.8 4.5 3.3 6.9 4.7 2.4 1.3 5 2.4 7.6 3.4 5.2 1.9 10.6 2.9 16.1 3.8 2.7.6 5.5.6 8.2.5 2.7-.1 5.5-.4 8.2-.3.7 0 1.4.1 1.9.3.6.3 1.3.5 1.8.9 1.1.7 1.8 2 2.3 3.2.9 2.6 1.2 5.3 1.4 8 .1 2.4 0 5.2 0 7.9zm-58.1-17-1.2-5.4-2.4-10.9-.2-.8-.8.1c-2.3.4-4.8.6-7.2.6-2.4.1-4.9 0-7.3-.2h-.4v.4c-.3 4.1-.9 8.3-1.6 12.4l-1.2 6.1-.6 3.1c-.2 1-.4 2-.5 3.1-.6 4.3.6 9 3.6 12.2 2.9 3.2 7.4 4.8 11.6 3.9 1.8-.4 3.4-1.6 4.7-3 1.3-1.4 2.2-3.1 3-4.8 1.4-3.5 2.2-7.4 1.6-11.3l-1.1-5.5zm-.6 11.2c-.1 1.8-.4 3.6-.9 5.3-.5 1.7-1.3 3.4-2.4 4.9-1.1 1.4-2.6 2.6-4.4 3.1-2 .5-4.2.2-6-.6-1.9-.9-3.5-2.2-4.6-3.8-1.2-1.6-1.9-3.5-2.4-5.4-.5-1.9-.5-3.9-.3-5.9.5-4.1.9-8.3 1.3-12.4.4-4 .9-8 1.5-12 2.3.3 4.6.5 7 .7 2.2.1 4.4.1 6.6-.1l2 10.2 1.1 5.5 1.2 5.4c.3 1.5.4 3.3.3 5.1z" fill="#000000" stroke-width="none" opacity="1" stroke="none"></path></g><g id="svga-group-head" transform="matrix(1,0,0,1,0,0)"><g id="svga-group-ears-left-move" transform="matrix(1,0,0,1,0,0)"><g id="svga-group-ears-left" transform="matrix(1,0,0,1,0,0)"><path id="SvgjsPath52249" d="M61.04 91.08s-5.83-5.5-11.22-8.06c0 0-2.8.42-6.02 3.31 0 0 2.24 4.78 4.24 7.15s4.83 10.33 5.06 12.61c.23 2.28-.7 6.43-.57 7.76.13 1.34 3.12 1.44 3.12 1.44s5.5-3.12 8.94-7.93c-.01-.01-1.05-8.96-3.55-16.28z" fill="#f6e4e2" stroke-width="none" opacity="1" stroke="none"></path><path id="SvgjsPath52250" d="M61.34 97.94c.04-.27-8.21-9.91-14.16-11.02 0 0 1.66 5.41 2.79 7.19 1.12 1.78 4.76 10.6 4.44 15.1 0 0 3.82-2.19 5.96-3.95-.01 0 .52-4.18.97-7.32z" fill="#e7c1bd" stroke-width="none" opacity="1" stroke="none"></path><path id="SvgjsPath52251" d="m43.59 86.1-.17.15.1.2c.63 1.26 1.3 2.48 2.02 3.69.72 1.2 1.5 2.38 2.41 3.45.85 1.07 1.48 2.33 2.06 3.59.56 1.27 1.07 2.57 1.53 3.88.44 1.32.85 2.65 1.15 4 .34 1.33.15 2.7 0 4.08-.16 1.38-.42 2.74-.52 4.18-.01.18-.01.37.01.57.04.24.13.47.27.65.29.35.66.54 1.01.68.72.27 1.42.38 2.16.43l.1.01.09-.05c1.76-1.03 3.4-2.22 4.93-3.56.77-.66 1.49-1.37 2.19-2.12.7-.74 1.33-1.54 1.94-2.36l.09-.12-.02-.14a95.27 95.27 0 0 0-1.51-8.23 92.39 92.39 0 0 0-1.04-4.05c-.39-1.33-.84-2.66-1.32-3.97-.83-.84-1.68-1.6-2.55-2.37-.87-.77-1.77-1.49-2.69-2.2-1.84-1.42-3.78-2.71-5.88-3.75l-.09-.04-.09.02c-.63.11-1.17.3-1.73.52-.55.22-1.09.48-1.6.78-.51.3-1.01.62-1.48.98-.48.33-.93.71-1.37 1.1zm.59.31c.38-.32.76-.63 1.16-.92.46-.34.94-.64 1.43-.92.5-.27 1-.53 1.52-.74.49-.2 1.01-.38 1.5-.48.99.48 1.96 1.02 2.91 1.6.97.62 1.94 1.24 2.87 1.9.94.67 1.85 1.37 2.77 2.07.91.7 1.81 1.45 2.68 2.18.39 1.33.75 2.66 1.06 4.02.32 1.35.62 2.7.87 4.07.51 2.67.94 5.37 1.25 8.06-.56.75-1.15 1.48-1.81 2.16-.68.72-1.39 1.41-2.14 2.05-1.47 1.26-3.04 2.45-4.69 3.45-.62-.04-1.27-.13-1.83-.34-.29-.11-.57-.26-.72-.45a.69.69 0 0 1-.14-.3c-.01-.14-.02-.31-.01-.47.06-1.35.28-2.75.41-4.14.11-1.38.24-2.85-.16-4.24-.35-1.36-.81-2.69-1.3-4-.48-1.31-1-2.61-1.59-3.88-.58-1.27-1.17-2.55-2.04-3.68-.86-1.08-1.57-2.28-2.24-3.49-.63-1.15-1.21-2.33-1.76-3.51z" fill="#e7c1bd" stroke-width="none" opacity="1" stroke="none"></path><path id="SvgjsPath52252" d="M52.51 91.07c.88.94 1.65 1.98 2.36 3.05.71 1.07 1.38 2.16 1.98 3.3.61 1.13 1.17 2.28 1.65 3.46l-.07.03c-.65-1.1-1.32-2.18-1.99-3.26-.69-1.07-1.36-2.14-2.1-3.17-.74-1.03-1.48-2.05-2.28-3.02-.67-.82-1.38-1.61-2.19-2.29l1.66 3.8a76.96 76.96 0 0 1 1.81 4.41c.56 1.49 1.02 3.02 1.38 4.59.25 1.1.46 2.22.51 3.37a7.534 7.534 0 0 0 .84-3c-.44-1.61-.88-3.21-1.27-4.84l.07-.02c.62 1.57 1.18 3.17 1.75 4.76l.01.04v.05c-.01.82-.15 1.65-.41 2.43-.12.39-.28.78-.46 1.15-.18.38-.38.72-.64 1.09l-.77 1.07.09-1.34c.1-1.51-.17-3.07-.47-4.6-.31-1.53-.74-3.05-1.21-4.56-.46-1.51-.95-3.01-1.51-4.5-.58-1.47-1.18-2.94-1.91-4.34l-.25-.48.47.3c1.12.69 2.07 1.58 2.95 2.52z" fill="#c8837c" stroke-width="none" opacity="1" stroke="none"></path></g></g><g id="svga-group-ears-right-move" transform="matrix(1,0,0,1,0,0)"><g id="svga-group-ears-right" transform="matrix(1,0,0,1,0,0)"><path id="SvgjsPath52253" d="M138.96 91.08s5.83-5.5 11.22-8.06c0 0 2.8.42 6.02 3.31 0 0-2.24 4.78-4.24 7.15s-4.83 10.33-5.06 12.61c-.23 2.28.7 6.43.57 7.76-.13 1.34-3.12 1.44-3.12 1.44s-5.5-3.12-8.94-7.93c.01-.01 1.05-8.96 3.55-16.28z" fill="#f6e4e2" stroke-width="none" opacity="1" stroke="none"></path><path id="SvgjsPath52254" d="M138.66 97.94c-.04-.27 8.21-9.91 14.16-11.02 0 0-1.66 5.41-2.79 7.19-1.12 1.78-4.76 10.6-4.44 15.1 0 0-3.82-2.19-5.96-3.95.01 0-.52-4.18-.97-7.32z" fill="#e7c1bd" stroke-width="none" opacity="1" stroke="none"></path><path id="SvgjsPath52255" d="M155.04 84.98c-.47-.35-.97-.67-1.48-.98-.51-.3-1.05-.56-1.6-.78-.56-.22-1.11-.41-1.73-.52l-.09-.02-.09.04c-2.1 1.04-4.05 2.33-5.88 3.75-.92.71-1.82 1.43-2.69 2.2-.87.77-1.72 1.54-2.55 2.37-.48 1.31-.93 2.64-1.32 3.97-.38 1.34-.73 2.69-1.04 4.05-.62 2.72-1.12 5.46-1.51 8.23l-.02.14.09.12c.61.82 1.24 1.62 1.94 2.36.7.74 1.42 1.45 2.19 2.12 1.53 1.34 3.16 2.53 4.93 3.56l.09.05.1-.01c.74-.05 1.45-.16 2.16-.43.35-.14.72-.33 1.01-.68.14-.18.24-.41.27-.65.02-.2.02-.39.01-.57-.09-1.44-.36-2.8-.52-4.18-.15-1.38-.34-2.75 0-4.08.3-1.35.71-2.68 1.15-4 .46-1.31.97-2.61 1.53-3.88.58-1.26 1.21-2.52 2.06-3.59.91-1.08 1.68-2.25 2.41-3.45.72-1.2 1.39-2.43 2.02-3.69l.1-.2-.17-.15c-.44-.37-.89-.75-1.37-1.1zm-.97 4.94c-.67 1.21-1.37 2.42-2.24 3.49-.87 1.13-1.47 2.41-2.04 3.68-.58 1.27-1.11 2.57-1.59 3.88-.49 1.31-.94 2.63-1.3 4-.4 1.39-.27 2.85-.16 4.24.13 1.39.35 2.79.41 4.14.01.17 0 .33-.01.47-.02.11-.06.21-.14.3-.15.19-.43.34-.72.45-.56.21-1.21.3-1.83.34-1.65-1-3.22-2.19-4.69-3.45-.75-.64-1.46-1.33-2.14-2.05-.65-.68-1.24-1.41-1.81-2.16.31-2.69.74-5.39 1.25-8.06.25-1.36.55-2.72.87-4.07.31-1.36.67-2.69 1.06-4.02.87-.73 1.77-1.48 2.68-2.18.91-.7 1.83-1.41 2.77-2.07.94-.67 1.91-1.29 2.87-1.9.95-.58 1.92-1.12 2.91-1.6.49.1 1.01.28 1.5.48.52.22 1.02.47 1.52.74.49.28.97.58 1.43.92.4.29.78.6 1.16.92-.56 1.18-1.14 2.36-1.76 3.51z" fill="#e7c1bd" stroke-width="none" opacity="1" stroke="none"></path><path id="SvgjsPath52256" d="M147.49 91.07c-.88.94-1.65 1.98-2.36 3.05-.71 1.07-1.38 2.16-1.98 3.3-.61 1.13-1.17 2.28-1.65 3.46l.07.03c.65-1.1 1.32-2.18 1.99-3.26.69-1.07 1.36-2.14 2.1-3.17.74-1.03 1.48-2.05 2.28-3.02.67-.82 1.38-1.61 2.19-2.29l-1.66 3.8a76.96 76.96 0 0 0-1.81 4.41c-.56 1.49-1.02 3.02-1.38 4.59-.25 1.1-.46 2.22-.51 3.37a7.534 7.534 0 0 1-.84-3c.44-1.61.88-3.21 1.27-4.84l-.07-.02c-.62 1.57-1.18 3.17-1.75 4.76l-.01.04v.05c.01.82.15 1.65.41 2.43.12.39.28.78.46 1.15.18.38.38.72.64 1.09l.77 1.07-.09-1.34c-.1-1.51.17-3.07.47-4.6.31-1.53.74-3.05 1.21-4.56.46-1.51.95-3.01 1.51-4.5.58-1.47 1.18-2.94 1.91-4.34l.25-.48-.47.3c-1.12.69-2.07 1.58-2.95 2.52z" fill="#c8837c" stroke-width="none" opacity="1" stroke="none"></path></g></g><g id="svga-group-faceshape-wrap" transform="matrix(1,0,0,1,0,0)"><g id="svga-group-faceshape-single"><path id="SvgjsPath52285" d="M145.4 78.8s-2.4-21.2-9.5-29c-6.7-7.4-11.3-13.2-28.8-17.3-1.8-.4-12.3-.4-14.1 0-17.5 4.1-22.1 9.9-28.8 17.3-7.1 7.8-9.5 29-9.5 29s-3.6 28.1-1.3 37.6 17.4 24.4 26.5 27.4 31.1 3 40.2 0 24.2-17.9 26.5-27.4c2.4-9.5-1.2-37.6-1.2-37.6z" fill="#f6e4e2" stroke-width="none" opacity="1" stroke="none"></path><path id="SvgjsPath52286" d="M135.9 49.8c-6.7-7.4-11.3-13.2-28.8-17.3-1.8-.4-12.3-.4-14.1 0-17.5 4.1-22.1 9.9-28.8 17.3-7.1 7.8-9.5 29-9.5 29s-3.6 28.1-1.3 37.6 17.4 24.4 26.5 27.4 31.1 3 40.2 0 24.27-17.88 26.5-27.4c2.99-12.73-1.09-37.73-1.09-37.73S143 57.6 135.9 49.8zm10.7 60.6-.1 1.3c0 .4-.4 2.6-.4 2.6l-.3 1.2s-1.4 3.9-1.8 4.7c-1.7 3-3.8 5.7-6.1 8.3-1.2 1.3-2.4 2.5-3.6 3.7-1.2 1.2-2.5 2.3-3.9 3.4-1.3 1.1-2.7 2.1-4.1 3.1s-2.9 1.9-4.3 2.6c-.7.4-8.4 2.2-8.4 2.2s-15.2.9-22.1.5l-2.6-.2c-.9-.1-6-.8-7.6-1.3-3.28-.88-7.4-3.7-8.8-4.7-2.8-2-5.4-4.3-7.8-6.8s-4.7-5.1-6.6-7.9c-1-1.4-1.66-2.64-2.46-4.14-.49-.97-.79-1.77-1.04-2.56-.39-1.24-.89-4.54-1-7.6 0-.9-.1-1.7-.1-2.6v-2.6c0-3.5.2-7 .4-10.5.1-1.8.2-3.5.4-5.3.1-1.8.3-3.5.5-5.3s.4-3.5.6-5.2c.2-1.7.5-3.5.8-5.2s.7-3.4 1.1-5.2c.4-1.7.9-3.4 1.4-5.1.5-1.7 1.1-3.3 1.8-4.9.7-1.6 1.5-3.2 2.4-4.6.2-.4 1.3-1.7 1.6-2 .6-.6 1.2-1.3 1.8-1.9 1.2-1.3 2.4-2.5 3.7-3.7 2.5-2.4 5.3-4.4 8.4-5.9s6.3-2.7 9.7-3.6c.8-.2 1.7-.5 2.5-.7 0 0 3.56-.74 7.5-.9 6.11-.25 10.2.5 10.2.5s4.3 1 5.1 1.3c1.7.5 3.3 1.1 4.9 1.7 3.2 1.3 6.2 2.9 8.9 5 .7.5 3.3 2.8 3.9 3.4 1.3 1.2 2.5 2.5 3.7 3.8.3.3 3 3.6 3.2 4 .9 1.5 1.6 3.1 2.3 4.7 1.3 3.2 2.3 6.6 3.1 10.1.8 3.4 1.4 6.9 1.9 10.4.8 7 1.4 14.1 1.6 21.1 0 3.8 0 7.3-.3 10.8z" fill="#c8837c" stroke-width="none" opacity="1" stroke="none"></path></g></g><g id="svga-group-mouth-single-move" transform="matrix(1,0,0,1,0,0)"><g id="svga-group-mouth-single" transform="matrix(1,0,0,1,0,0)"><path id="SvgjsPath52238" d="M91.48 129.63c.86 1.78 1.72 4.79 3.93 4.85 2.21.06 3.62-.98 5.16-1.23s3.38.8 4.91 1.17c1.54.37 3.13-.43 3.68-2.21.55-1.78 3.68-8.84 3.68-8.84s-9.33 3.5-12.77 2.82c-3.44-.68-6.82-.06-8.66-1.11-1.84-1.04-3.07-1.47-3.07-1.47s1.23 1.72 1.78 2.7c.56.98 1.36 3.32 1.36 3.32z" fill="#A06B59" stroke-width="none" opacity="1" stroke="none"></path><path id="SvgjsPath52239" d="M87.61 122.87s2.52 2.82 5.1 3.75 10.56 1.41 14.37.37c3.81-1.04 6.57-4.24 6.57-4.24s-1.84.98-3.68.49c-1.14-.3-2.09-2.95-4.24-3.5-1.34-.34-3.19 1.23-3.75 2.27-.55 1.04-1.23 1.47-2.09.86s-1.84-2.82-3.93-2.89c-1.29-.04-2.52 1.41-3.13 2.46-.62 1.05-2.95 2.03-5.22.43z" fill="#915642" stroke-width="none" opacity="1" stroke="none"></path></g></g><g id="svga-group-eyes-left-move" transform="matrix(1,0,0,1,0,0)"><g id="svga-group-eyes-left" transform="matrix(1,0,0,1,0,0)"><g id="svga-group-eyesback-left"><path id="SvgjsPath52346" d="M80.2 77.2c7.5 0 13.5 5.8 13.5 13s-6 13-13.5 13-13.5-5.8-13.5-13 6-13 13.5-13z" fill="#ffffff" stroke-width="none" opacity="1"></path></g><g id="svga-group-eyesiriswrapper-left" transform="matrix(1,0,0,1,0,0)"><g id="svga-group-eyesiriscontrol-left" transform="matrix(1,0,0,1,0,0)"><g id="svga-group-eyesiris-left" transform="matrix(1,0,0,1,0,0)"><path id="SvgjsPath52300" d="M80.2 84.9c2.9 0 5.3 2.4 5.3 5.3s-2.4 5.3-5.3 5.3-5.3-2.4-5.3-5.3 2.4-5.3 5.3-5.3z" fill="#fdd70e" stroke-width="none" opacity="1"></path><path id="SvgjsPath52301" d="M80.2 85.2c2.8 0 5.1 2.3 5.1 5.1s-2.3 5.1-5.1 5.1-5.1-2.3-5.1-5.1 2.3-5.1 5.1-5.1m0-.6c-3.1 0-5.6 2.5-5.6 5.6s2.5 5.6 5.6 5.6 5.6-2.5 5.6-5.6-2.5-5.6-5.6-5.6z" fill="#debb00" stroke-width="none" opacity="1"></path><path id="SvgjsPath52302" d="M77.4 91.7c0 1.3.5 2.5 1.3 3.3.5.1 1 .2 1.5.2 2.8 0 5.1-2.3 5.1-5.1 0-1-.3-2-.8-2.8-.7-.3-1.4-.5-2.2-.5-2.8.1-4.9 2.3-4.9 4.9z" fill="#ffdd28" stroke-width="none" opacity="1"></path><path id="SvgjsPath52303" d="M80.2 87.5c1.5 0 2.7 1.2 2.7 2.7s-1.2 2.7-2.7 2.7-2.7-1.2-2.7-2.7 1.2-2.7 2.7-2.7z" fill="#000000" stroke-width="none" opacity="1"></path><path id="SvgjsPath52304" d="M79 87.3c.8 0 1.4.6 1.4 1.4s-.6 1.4-1.4 1.4-1.4-.6-1.4-1.4.7-1.4 1.4-1.4zm2.7 4c.5 0 .9.4.9.9s-.4.9-.9.9-.9-.4-.9-.9.4-.9.9-.9z" fill="#ffffff" stroke-width="none" opacity="1"></path></g></g></g><g id="svga-group-eyesfront-left"><path id="SvgjsPath52354" d="M80.2 76.7c-7.8 0-14.1 6.1-14.1 13.6s6.3 13.6 14.1 13.6 14.1-6.1 14.1-13.6S88 76.7 80.2 76.7zM75 96.2c-1.7-.1-8.1-3.7-8-4.7s7.6-9.2 10-8.5c2.5.7 16 11.3 16 11.3s-16.3 2-18 1.9z" fill="#f6e4e2" stroke-width="none" opacity="1" stroke="none"></path><path id="SvgjsPath52355" d="M94 95.9s-8.1-5.6-9.4-6.8c-1-1-6.5-4.1-10-3.3-.9.2-2.7 1.2-4 2.4S67.4 91 67.4 91s.2-.7 4-5.3c3.8-4.5 10-3.9 11.3-3.6 1.3.4 3.5 1.1 8.2 7.6l3.1 6.2z" fill="#eed2cf" stroke-width="none" opacity="1" stroke="none"></path><path id="SvgjsPath52356" d="M92.7 92.8c-.5-1.1-1-2.2-1.5-3.2-.7-1.1-1.5-2.1-2.3-3.1s-1.7-2-2.7-2.8c-.5-.4-1-.8-1.6-1.2-.6-.3-1.2-.6-1.8-.7-.7-.2-1.3-.2-1.9-.2s-1.3 0-1.9.1c-2.5.3-5.1 1.3-7 3.2l-.3.3c-.4-.1-.8-.2-1.1-.2-1.7-.4-3-.9-3-.9s.3 2.1 1.9 2.9c0 0-2.9-.1-5.1-.9 0 0 1.8 2.9 2.9 3.3 0 0-2.8-.6-4.5-1.1 0 0 2.1 3.8 4.1 3.8.2.3.4.5.7.7 1 .8 2.1 1.5 3.2 2.1s2.2 1.2 3.5 1.6c.2.1.3.1.5.1h.5c.3 0 .6 0 .9-.1.6-.1 1.2-.1 1.9-.2 2.5-.2 5-.6 7.5-.9 2-.3 4.1-.6 6.1-.9l.6.4.8.5.4.3.2.1.1.1s.1.1.2.1c-.4-1.1-.9-2.1-1.3-3.2zm-14.6 3c-.6.1-1.2.1-1.9.2h-.9c-.3 0-.6 0-.9-.1-1.2-.3-2.3-.9-3.4-1.5s-2.2-1.2-3.2-2c-.2-.2-.5-.4-.6-.7.2-.3.8-.9 1.5-1.7 1.5-1.4 3.1-2.9 4.9-3.7 1.1-.6 2.4-.4 3.6-.2 1.2.3 2.4.7 3.6 1.2s2.3 1.1 3.3 1.8c1 .9 2.1 1.6 3.2 2.4s2.2 1.5 3.3 2.2l.9.6c-4.4.5-8.9 1-13.4 1.5zm15.7-.1-.2-.2-.4-.3-.8-.6-1.6-1.2-3.2-2.4c-1-.8-2.1-1.6-3.1-2.5-.5-.5-1.1-.8-1.7-1.2-.6-.3-1.2-.7-1.8-.9-1.2-.6-2.5-1-3.8-1.2-.7-.1-1.3-.2-2-.1-.3 0-.7.1-1 .2-.6-.1-1.3-.2-2-.3 1.8-1.7 4.2-2.5 6.6-2.7.6-.1 1.2-.1 1.8 0s1.2.1 1.8.2c1.2.3 2.2.9 3.1 1.8 1.9 1.6 3.5 3.6 5.1 5.6.5 1 1 1.9 1.6 2.9s1.1 2 1.7 3l-.1-.1z" fill="#191c29" stroke-width="none" opacity="1" stroke="none"></path></g></g></g><g id="svga-group-eyes-right-move" transform="matrix(1,0,0,1,0,0)"><g id="svga-group-eyes-right" transform="matrix(1,0,0,1,0,0)"><g id="svga-group-eyesback-right"><path id="SvgjsPath52347" d="M119.8 77.2c7.5 0 13.5 5.8 13.5 13s-6 13-13.5 13-13.5-5.8-13.5-13 6-13 13.5-13z" fill="#ffffff" stroke-width="none" opacity="1"></path></g><g id="svga-group-eyesiriswrapper-right" transform="matrix(1,0,0,1,0,0)"><g id="svga-group-eyesiriscontrol-right" transform="matrix(1,0,0,1,0,0)"><g id="svga-group-eyesiris-right" transform="matrix(1,0,0,1,0,0)"><path id="SvgjsPath52305" d="M119.8 85.5c2.6 0 4.7 2.1 4.7 4.7s-2.1 4.7-4.7 4.7-4.7-2.1-4.7-4.7 2.1-4.7 4.7-4.7z" fill="#fdd70e" stroke-width="none" opacity="1"></path><path id="SvgjsPath52306" d="M119.8 85.8c2.4 0 4.4 2 4.4 4.4s-2 4.4-4.4 4.4-4.4-2-4.4-4.4 1.9-4.4 4.4-4.4m0-.5c-2.7 0-4.9 2.2-4.9 4.9s2.2 4.9 4.9 4.9 4.9-2.2 4.9-4.9-2.2-4.9-4.9-4.9z" fill="#debb00" stroke-width="none" opacity="1"></path><path id="SvgjsPath52307" d="M117.3 91.5c0 1.1.4 2.2 1.2 2.9.4.1.8.2 1.3.2 2.4 0 4.4-2 4.4-4.4 0-.9-.3-1.8-.7-2.4-.6-.3-1.2-.5-1.9-.5-2.4 0-4.3 1.9-4.3 4.2z" fill="#ffdd28" stroke-width="none" opacity="1"></path><path id="SvgjsPath52308" d="M119.8 87.8c1.3 0 2.4 1.1 2.4 2.4s-1.1 2.4-2.4 2.4-2.4-1.1-2.4-2.4 1.1-2.4 2.4-2.4z" fill="#000000" stroke-width="none" opacity="1"></path><path id="SvgjsPath52309" d="M118.8 87.7c.7 0 1.2.5 1.2 1.2s-.5 1.2-1.2 1.2-1.2-.5-1.2-1.2.5-1.2 1.2-1.2zm2.3 3.5c.4 0 .8.4.8.8s-.4.8-.8.8-.8-.4-.8-.8.4-.8.8-.8z" fill="#ffffff" stroke-width="none" opacity="1"></path></g></g></g><g id="svga-group-eyesfront-right"><path id="SvgjsPath52357" d="M119.8 76.7c-7.8 0-14.1 6.1-14.1 13.6s6.3 13.6 14.1 13.6 14.1-6.1 14.1-13.6-6.3-13.6-14.1-13.6zm3.1 18.9c-1.6.2-12.7-2-12.7-2s10.3-8.1 12.5-8.8 6.6-1.9 6.9 5.9c0 1-5.2 4.8-6.7 4.9z" fill="#f6e4e2" stroke-width="none" opacity="1" stroke="none"></path><path id="SvgjsPath52360" d="M105.7 95.7s4.6-2.4 6.1-3.2 10.4-6.3 11.2-6.7 3.6-.4 4.9.4c2.4 1.5 1.7 4.5 1.7 4.5s2.1-1.7-1.4-5.7-11.3-2.9-12.4-2.5c-1.2.4-3.7 1.1-7.8 7.2l-2.3 6z" fill="#eed2cf" stroke-width="none" opacity="1" stroke="none"></path><path id="SvgjsPath52361" d="M130.3 88.4c.4-.2 3.2-3 3.2-3-1.6.8-3.7.5-4.3.4l-.1-.1c1.1-.8 2.2-2.8 2.2-2.8-.5.5-1.8 1-3.2 1.5-.2-.2-.4-.4-.6-.5-1-.8-2.3-1.3-3.5-1.7-1.2-.3-2.5-.5-3.8-.5s-2.5.1-3.8.3c-.2 0-.3.1-.5.1-.1 0-.2.1-.3.1l-.2.1-.9.3c-.6.3-1.2.6-1.7 1-2.1 1.7-3.7 3.8-5.1 6.1-.4 1-.7 2.1-1 3.1s-.6 2-1 2.9l3.3-1.5c.4-.2.9-.4 1.3-.6 1.9.5 3.8.9 5.7 1.2 1.9.4 3.8.7 5.8 1 .2 0 .5.1.8.1.2 0 .6 0 .8-.1.5-.2.9-.4 1.4-.7.9-.5 1.7-1.1 2.5-1.7.4-.3.8-.6 1.2-1 .4-.3.8-.7 1.1-1.1 0-.1.1-.1.1-.2l.1-.1.3-.3c1-.6 3.8-2.2 4.6-2.6-1 .4-4.3.3-4.4.3zm-24.6 7.3c.4-1 .8-2 1.3-2.9l1.2-2.7c1.5-2.1 3.2-4.1 5.1-5.6.5-.4 1-.7 1.5-.9.3-.1.5-.2.8-.3l.2-.1c.1 0 .1 0 .2-.1.1 0 .3-.1.4-.1 1.2-.2 2.4-.3 3.6-.3s2.4.1 3.6.4 2.3.7 3.3 1.4c.1.1.2.1.3.2-.9.3-1.8.5-2.5.7h-1.1c-.3 0-.7.1-1 .2s-.6.3-.8.4c-1.1.6-2.2 1.2-3.3 1.9-2.2 1.3-4.3 2.6-6.4 4-1.1.6-2.1 1.2-3.2 1.8-.9.7-2 1.4-3.2 2zm23.7-4.9c0 .1-.1.2-.2.3-.6.8-1.4 1.4-2.2 2-.8.6-1.6 1.1-2.5 1.6-.4.2-.9.5-1.3.6-.2.1-.4.1-.7.1-.2 0-.5 0-.7-.1-3.8-.5-7.7-1.2-11.5-1.7.7-.3 1.4-.7 2.1-1 2.2-1.2 4.3-2.5 6.5-3.8 1.1-.7 2.1-1.3 3.2-2 .3-.2.5-.3.8-.5.2-.2.5-.2.8-.2.6-.1 1.2-.1 1.8-.1.4 0 .8.1 1.1.1 1.2.3 2 1 2.4 1.7 0 .1.1.3.1.4.1.5.2 1 .2 1.5v.8l.1.3zm5.2-2.7c.1 0 .1 0 .1-.1.2 0 .1 0-.1.1z" fill="#191c29" stroke-width="none" opacity="1" stroke="none"></path></g></g></g><g id="svga-group-facehighlight-single"></g><g id="svga-group-eyebrows-left-move" transform="matrix(1,0,0,1,0,0)"><g id="svga-group-eyebrows-left-rotate" transform="matrix(1,0,0,1,0,0)"><g id="svga-group-eyebrows-left" transform="matrix(1,0,0,1,0,0)"><path id="SvgjsPath52410" d="M64.67 79.76c2.13-1.22 4.29-2.43 6.52-3.32.55-.23 1.11-.42 1.66-.55l.4-.08c.11 0 .2-.01.34 0 .13 0 .26.02.4.04.14.01.28.04.42.07 1.15.2 2.32.52 3.48.86 1.17.34 2.32.75 3.47 1.15 1.15.4 2.32.76 3.51 1.05 1.19.29 2.38.56 3.6.77 1.21.22 2.43.41 3.69.49l.07-.22c-1.07-.71-2.19-1.28-3.31-1.81-1.13-.54-2.28-1-3.44-1.43-1.16-.42-2.35-.77-3.56-1.04-1.21-.26-2.42-.5-3.64-.75-1.22-.24-2.44-.47-3.72-.59l-.49-.03c-.16-.01-.33-.01-.51 0-.17 0-.38.03-.57.07l-.49.15c-.63.22-1.21.49-1.76.79-1.11.6-2.16 1.27-3.19 1.97a50.2 50.2 0 0 0-3 2.2l.12.21z" fill="#080806" stroke-width="none" opacity="1"></path></g></g></g><g id="svga-group-eyebrows-right-move" transform="matrix(1,0,0,1,0,0)"><g id="svga-group-eyebrows-right-rotate" transform="matrix(1,0,0,1,0,0)"><g id="svga-group-eyebrows-right" transform="matrix(1,0,0,1,0,0)"><path id="SvgjsPath52411" d="M134.94 78.92c-2.06-.91-4.15-1.81-6.28-2.42-.53-.16-1.06-.28-1.57-.35l-.37-.04c-.1.01-.19.01-.31.03-.11.01-.24.04-.37.07-.12.02-.25.06-.38.09-1.04.27-2.1.64-3.14 1.03-1.05.39-2.08.84-3.11 1.29-1.03.45-2.08.85-3.15 1.2-1.07.35-2.15.68-3.25.96-1.1.29-2.21.55-3.36.72l-.08-.19c.93-.71 1.91-1.3 2.91-1.86 1-.56 2.02-1.06 3.05-1.53 1.04-.46 2.1-.86 3.19-1.19 1.09-.33 2.19-.63 3.29-.94 1.1-.31 2.21-.61 3.38-.81.15-.02.29-.05.45-.06.15-.02.31-.03.47-.04.15-.01.35 0 .53.01l.46.09c.6.15 1.15.34 1.69.56 1.07.44 2.09.95 3.1 1.49 1 .54 1.98 1.11 2.95 1.71l-.1.18z" fill="#080806" stroke-width="none" opacity="1"></path></g></g></g><g id="svga-group-nose-single-move" transform="matrix(1,0,0,1,0,0)"><g id="svga-group-nose-single" transform="matrix(1,0,0,1,0,0)"><path id="SvgjsPath52392" d="M97 88.78c-.26 1.4-.51 2.8-.55 4.18 0 .34.01.68.07 1 .02.17.07.3.11.45l.19.5c.25.66.49 1.34.71 2.02.2.69.39 1.39.5 2.11.05.37.09.73.07 1.12 0 .38-.12.8-.29 1.13-.34.68-.8 1.24-1.28 1.77-.49.53-1 1.02-1.56 1.47.45-.56.89-1.11 1.29-1.69.41-.57.79-1.17 1.04-1.78.12-.31.18-.59.17-.92 0-.32-.05-.66-.11-1-.12-.67-.3-1.35-.51-2.01-.2-.67-.43-1.34-.66-2l-.17-.5c-.05-.19-.11-.39-.12-.58-.06-.39-.03-.75 0-1.12.07-.73.22-1.43.41-2.12.19-.7.41-1.38.69-2.03z" fill="#c8837c" stroke-width="none" opacity="1" stroke="none"></path><path id="SvgjsPath52393" d="M103.49 88.62c.46.57.85 1.19 1.18 1.84.08.16.17.33.24.49.04.09.08.16.11.27.03.1.07.21.09.31.08.41.06.78.04 1.16-.05.74-.21 1.46-.39 2.16-.18.7-.43 1.38-.67 2.07-.06-.74.04-1.46.12-2.17.08-.71.17-1.42.23-2.11.02-.34.04-.69 0-1-.02-.27-.18-.63-.28-.96-.24-.67-.48-1.35-.67-2.06z" fill="#c8837c" stroke-width="none" opacity="1" stroke="none"></path><path id="SvgjsPath52394" d="M108.69 106.34s1.21.9 1.43 1.66c.23.75-.3 2.41-1.06 2.49-.75.08-3.54-.6-3.92-.23-.38.38-.75 4.15-1.88 4.6s-5.65.53-6.18-.3c-.53-.83-1.06-3.77-1.73-3.92-.68-.15-3.54.08-4.22 0-.68-.08-1.13-1.66-.3-3.24.83-1.58 4.45-3.32 6.94-3.47 2.49-.15 6.96.58 6.96.58s2.88 1.06 3.96 1.83z" fill="#eed2cf" stroke-width="none" opacity="1" stroke="none"></path><path id="SvgjsPath52395" d="M108.69 106.34c.39.3.76.64 1.08 1.03.15.2.3.4.37.65.07.24.06.5.03.74-.07.49-.23.98-.53 1.39-.15.2-.37.38-.64.38-.25.01-.5-.02-.75-.04-.5-.05-.99-.13-1.48-.18a9.22 9.22 0 0 0-.74-.06c-.24-.01-.5-.02-.71.04-.05.02-.09.04-.11.06-.02.03-.05.09-.07.14-.04.11-.07.23-.11.34-.06.24-.11.48-.17.72-.11.48-.22.97-.35 1.46-.14.48-.29.97-.56 1.43-.14.22-.3.46-.6.6-.27.11-.51.16-.77.21-1.01.18-2.01.22-3.02.21-.51-.01-1.01-.04-1.53-.14-.26-.05-.52-.11-.79-.23-.13-.07-.28-.14-.42-.31-.11-.15-.15-.26-.21-.39-.42-.96-.64-1.93-1.01-2.81-.09-.21-.2-.43-.31-.55-.02-.03-.05-.05-.05-.05-.01-.01 0 .01.01 0l-.07-.01c-.09-.01-.21-.02-.33-.02-.47-.01-.97 0-1.46.01l-1.48.04c-.25 0-.5.01-.78-.01-.03 0-.09-.01-.14-.02-.05-.01-.1-.03-.15-.05-.1-.04-.17-.1-.24-.16-.13-.12-.23-.26-.3-.39-.27-.55-.29-1.12-.22-1.65.07-.54.25-1.05.51-1.52.29-.49.69-.84 1.1-1.16.41-.31.85-.58 1.29-.82.9-.48 1.84-.85 2.82-1.11.49-.13.98-.23 1.49-.28.51-.05 1.01-.04 1.51-.03 1 .04 1.99.14 2.98.27s1.97.26 2.95.43c.68.27 1.36.54 2.03.83.33.15.66.3.99.47.32.16.64.33.94.54zm0 0c-.3-.21-.62-.38-.95-.54-.33-.16-.66-.32-.99-.46-.67-.29-1.35-.56-2.03-.81-1.96-.28-3.95-.49-5.93-.5-.49.01-.99.02-1.47.09-.48.07-.96.19-1.43.33-.93.29-1.84.69-2.68 1.18-.42.25-.82.52-1.19.82-.37.3-.7.65-.91 1.02-.21.4-.36.85-.4 1.3-.05.44 0 .92.18 1.26.04.08.1.15.15.2.03.02.05.04.07.04.01.01.02.01.03.01h.04c.21.01.46.01.71 0l1.49-.05c.5-.02 1-.03 1.52-.01.13.01.26.01.41.04l.12.02c.06.02.14.04.18.07.11.06.17.13.23.19.22.26.32.5.42.74.2.48.35.96.5 1.44.15.47.28.95.46 1.38.04.1.1.22.13.27.02.03.09.08.18.13.18.09.41.15.64.2.46.1.95.15 1.43.18.97.06 1.97.05 2.93-.08.24-.04.48-.08.68-.15.16-.07.32-.24.44-.43.25-.39.42-.86.57-1.32.15-.47.28-.95.4-1.43.06-.24.13-.48.2-.72.04-.12.08-.24.13-.36.03-.06.05-.12.11-.19s.14-.1.21-.12c.27-.06.52-.03.77-.02.25.02.5.06.74.09l1.47.22c.25.03.49.06.74.06.24.01.45-.16.6-.34.3-.39.47-.87.54-1.36.03-.24.04-.5-.02-.74-.07-.24-.21-.45-.36-.64-.3-.36-.67-.7-1.06-1.01z" fill="#c8837c" stroke-width="none" opacity="1" stroke="none"></path></g></g><g id="svga-group-hair-front" transform="matrix(1,0,0,1,0,0)"><path id="SvgjsPath52446" d="M106.8 43.7s-2.2 14.7-11.4 19.2c-9.1 4.5-19.4 3.2-27.7 5.8S54.8 78.9 60.2 86c0 0-4.3-1.5-3.7-8.2 0 0-3 9.1 5.2 15.8 0 0-6.9-1.5-9.7-11.4S49.4 61.7 57.6 50s20.3-24.6 48.6-20.9 39.1 31.3 39.7 34.8c.6 3.5 7.3 24.2-6.3 35.4 0 0 5-8.2 1.1-16.6s-13.8-14-17.1-15.3c-3.3-1.3-11.9-7.8-14.2-12.7s-3-8.2-2.6-11z" fill="#080806" stroke-width="none" opacity="1" stroke="none"></path><path id="SvgjsPath52447" d="M105.7 36.9c-.1-.4-.7-.2-.6.2 1.6 8.4-.7 16.9-7.1 22.8-6.8 6.3-15.6 5.6-24.2 6.8-5.4.8-11.4 2.5-14.5 7.4-2.4 3.8-2.7 8.8.5 12.2.3.3.8-.1.6-.4-7.1-10.7 6.4-17.2 15-18.1 6.4-.7 13.2-.6 18.9-3.9 9.2-5.3 14.4-16.9 11.4-27zM59.1 48.4c10.5-15.7 28-20.9 46-19.1.3 0 .3-.4.1-.5C86.8 24 66.5 34 57 49.8c-7 11.7-12.3 37.4 3.9 44.6.2.1.4-.2.2-.3-14.7-10.5-10.8-32.6-2-45.7zm39.2-11.8c-6.7 16.7-25.3 17.8-37.2 29-7 6.6-10.8 19.3-1.6 26 .3.2.7-.3.4-.6-5.7-5.2-6.1-13.2-2.2-19.7 3.8-6.2 10.3-9.9 16.6-13.1 9.4-4.8 22-10 24.4-21.6.1-.2-.3-.3-.4 0zM145 60.5c-5.8-15.2-20-28.1-36.4-30.6-.3 0-.4.4-.1.5 15 4.4 27.7 12.9 34.4 27.5 5.3 11.6 7.6 29.7-1.9 39.5 3.2-5.4 1.7-13.6-2.2-18.6C129 66.1 103 61.4 108 40.9c.1-.3-.3-.3-.4-.1-4.6 11.1 5.8 20.5 14.2 26 6.1 4 12.8 7.6 17 13.8 4.6 7 4.1 17.8-4.9 21-.4.1-.2.8.2.6.8-.2 1.6-.5 2.3-.8.1.1.3.2.5.1 14.4-7 12.9-28.5 8.1-41zm-24.6-6c7.3 6.7 15.8 11.5 19.6 21.2.1.2.4.2.4-.1-4.1-17-28.6-20.4-28.4-39.6 0-.4-.5-.3-.5 0-.8 7.5 3.6 13.7 8.9 18.5z" fill="#000000" stroke-width="none" opacity="1" stroke="none"></path></g><g id="svga-group-glasses-single-move" transform="matrix(1,0,0,1,0,0)"><g id="svga-group-glasses-single" transform="matrix(1,0,0,1,0,0)"></g></g></g></g></g><rect id="svga-credit-rect" width="200" height="15" x="0" y="185" fill="#ecf0f1" opacity="0.5" style="display: none;"></rect><text id="svga-credit-text" font-family="Avenir Next, Roboto, Helvetica, Arial, sans-serif" font-size="10px" text-anchor="start" font-weight="400" size="10px" anchor="start" weight="400" fill="#333333" x="33.40447998046875" y="182.60824704170227" style="display: none;"><tspan id="SvgjsTspan51775" dy="13" x="33.40447998046875">Created on AvatarMaker.com</tspan></text></g></svg>