<svg xmlns="http://www.w3.org/2000/svg" version="1.1" width="600px" height="600px" viewBox="0 0 200 200" style="overflow:hidden!important;"><g id="svga-group-wrapper"><g id="svga-group-backs-single"></g><g id="svga-group-humanwrap-move" transform="matrix(1,0,0,1,0,0)"><g id="svga-group-humanwrap"><g id="svga-group-hair-back-move" transform="matrix(1,0,0,1,0,0)"><g id="svga-group-hair-back"></g></g><g id="svga-group-humanbody-back"><path id="SvgjsPath40611" d="M77.8 105.9s4.8 37.7 10 55.8c0 0-6.4 8.8-14.5 11.9-28.7 11.2-35 11.2-39.6 15.2-2.4 2.1.2 11.1 1.8 17.2 1.3 5 1.7 13.2 1.7 13.2h132.2s1.6-33-.6-39.8-7.1-2.9-21.9-4.5c-14.8-1.6-28.7-10.3-31-13.2l.3-60-38.4 4.2z" fill="#f3d4cf" stroke-width="none" opacity="1" stroke="none"></path></g><g id="svga-group-chinshadow-single"><path id="SvgjsPath42073" d="M84.4 148.5c1.9-.5 3.1-1 3.1-1 3.7 4.2 8.9 4 8.9 4s5.3.3 8.9-4c0 0 4.4 1.6 10.2 2.4l.3-48.3-38.4 4.2c.1 0 3.1 23.8 7 42.7z" fill="#d4958a" stroke-width="none" opacity="1" stroke="none"></path></g><g id="svga-group-humanbody-front"><path id="SvgjsPath40612" d="M72.1 183.1s14.6-.2 20.4 2.6c5.8 2.9 12.7 2.4 16.1-1s21.6-7 21.6-7-19.7 1.9-25 4.6c-5.3 2.7-22.3-2.8-33.1.8z" fill="#d4958a" stroke-width="none" opacity="1" stroke="none"></path><path id="SvgjsPath40613" d="M74.2 173.2c6.7-1.3 14.7-6.4 14.7-6.4l6.2 5.5c-4.3-7.9-12.7-41.1-12.7-41.1l-.7.7c1.7 10.5 3.9 21.9 6.1 29.7 0 0-6 8.2-13.6 11.6z" fill="#d4958a" stroke-width="none" opacity="1" stroke="none"></path><path id="SvgjsPath40614" d="M170.7 188.5c-.1-2.1-.2-4.1-.4-6.2-.1-1-.3-2.1-.6-3.2-.2-.5-.4-1-.6-1.6-.2-.5-.6-1-1-1.5s-.9-.9-1.5-1.1c-.6-.3-1.1-.4-1.7-.6-1.1-.2-2.2-.2-3.2-.2-2.1 0-4.1.1-6.1.1s-4-.1-6-.2-4-.4-6-.7c-1-.2-2-.4-2.9-.6l-1.5-.4c-.5-.1-1-.3-1.4-.4-3.8-1.1-7.6-2.6-11.2-4.4l-1.3-.7-1.3-.7c-.4-.2-.9-.5-1.3-.8s-.9-.5-1.3-.8-.8-.5-1.3-.8l-1.2-.9-.6-.5-.3-.2-.3-.2c-.2-.2-.4-.3-.5-.5l-.2-.3v-44.6l-.1-15v-.6l-.6.1c-6.4.8-12.9 1.5-19.3 2.3l-19.1 2.3v.5l.1.4.1.9.2 1.8c.1 1.2.3 2.3.4 3.5l.9 7c.6 4.7 1.3 9.4 2.1 14 .8 4.7 1.5 9.3 2.5 14 .9 4.5 1.8 9 3 13.5-1.1 1.4-2.3 2.7-3.6 4-1.3 1.3-2.8 2.6-4.3 3.8-1.5 1.1-3.1 2.2-4.8 3l-1.3.6c-.4.2-.9.3-1.3.5l-2.7 1c-7.2 2.7-14.5 5.3-21.8 7.7l-5.5 1.8c-1.8.6-3.7 1.3-5.5 2.2-.4.2-.9.5-1.3.7-.4.3-.9.5-1.3.9l-.6.5c-.2.2-.5.5-.6.8-.3.5-.4 1.1-.5 1.6-.2 1.1-.1 2.1 0 3.1s.3 2 .4 2.9c.4 1.9.8 3.8 1.3 5.7l.8 2.8c.3.9.5 1.8.7 2.8.4 1.9.7 3.8.9 5.7s.4 3.8.5 5.7v.8h133.4v-.8c.2-4.1.4-8.2.5-12.3s.2-8.2.2-12.3c0-1.8-.1-3.8-.1-5.9zm-67.4 30.3H70.2l-16.5-.1-16-.1c-.1-1.8-.2-3.5-.4-5.3-.2-1.9-.4-3.9-.8-5.8-.2-1-.4-1.9-.7-2.9l-.7-2.8c-.5-1.9-.9-3.7-1.2-5.6-.2-.9-.3-1.9-.4-2.8-.1-.9-.1-1.9 0-2.7.1-.4.2-.8.4-1.1.1-.2.2-.3.3-.4l.5-.4c.3-.3.7-.5 1.1-.8.4-.2.8-.5 1.2-.7 1.7-.8 3.5-1.4 5.3-2l5.5-1.8c7.3-2.4 14.6-5 21.8-7.8l2.7-1c.5-.2.9-.3 1.4-.5l1.4-.6c1.8-.9 3.4-2 5-3.2s3-2.5 4.4-3.9 2.7-2.9 3.8-4.5l.2-.3-.1-.3c-1.3-4.5-2.3-9.1-3.3-13.7s-1.9-9.3-2.7-13.9c-.8-4.6-1.6-9.3-2.4-14l-2.2-13.9 19.3-1.8c6.2-.6 12.3-1.2 18.5-1.8l-.2 14.4-.2 15-.3 30v.4l.2.2.6.7.6.6.3.3.3.2.6.5c.4.3.9.6 1.3.9.4.3.9.6 1.3.9.4.3.9.5 1.3.8s.9.5 1.3.8l1.4.8 1.4.7c.5.2.9.5 1.4.7l1.4.7c1 .4 1.9.8 2.9 1.2s1.9.8 2.9 1.1l1.5.5c.5.2 1 .3 1.5.4.5.1 1 .3 1.5.4l1.5.4c1 .3 2 .4 3 .6 2 .4 4.1.6 6.2.8 2.1.2 4.1.2 6.2.2 2.1 0 4.1-.1 6.1-.1s4 .1 5 1.3c.5.6.9 1.4 1.2 2.3.3.9.4 1.9.6 2.8.3 2 .4 4 .5 6s.1 4.1.2 6.1c.1 7.9-.1 15.8-.4 23.7-10.8.1-21.5.1-32.3.2h-33.1z" fill="#c5796d" stroke-width="none" opacity="1" stroke="none"></path><path id="SvgjsPath40615" d="M150.7 219.2 147 198l-.4 21.2z" fill="#d4958a" stroke-width="none" opacity="1" stroke="none"></path><path id="SvgjsPath40616" d="M47.3 203.5s2.2 11.5 2.9 15.7h3.5l-6.4-15.7z" fill="#d4958a" stroke-width="none" opacity="1" stroke="none"></path></g><g id="svga-group-clothes-single"><path id="SvgjsPath42809" d="M70.5 188.4s17.7 11.1 20.6 13.2c2.9 2.2 13.3 5.2 13.3 5.2s13.5-6.3 15.2-7.7c1.7-1.4 16.3-17.4 16.3-17.4v38H71.7l-1.2-31.3z" fill="#ffffff" stroke-width="none" opacity="1"></path><path id="SvgjsPath42810" d="M73.7 175c.4-1.1 6.3-6.7 6.3-6.7l-5.9.3-19.1 6.5 3.5 1.3s-17.8 6.5-20.2 6.7c-2.5.2-7.2 0-7 2.8 0 0-2.8 1.5-2.8 3.4s6.1 20.2 8.3 30.4h47.1s-7.1-19.1-8.2-23.6c-1.3-4.5-2.4-19.9-2-21.1zm98.9-.1c-1.2-.8-3-.3-3-.3s-.1-2.9-1.2-3-7.7.8-11.9 1.2-13.1-.3-13.1-.3l1.2-1.1c-2.9-.1-16.2-6-17.9-6.5s-5.4-.3-5.4-.3 3.6 2.6 4.2 3.8c.6 1.2 6.9 20.1 6.5 24.5s-5 26.9-5 26.9h45.5c.1 0 1.3-44.2.1-44.9z" fill="#0e0932" stroke-width="none" opacity="1"></path><path id="SvgjsPath42811" d="M173.6 177.7c0-.5 0-1-.1-1.5 0-.3 0-.5-.1-.8 0-.1 0-.3-.1-.4 0-.1-.1-.2-.1-.3 0-.1-.2-.3-.3-.3l-.1-.1c-.6-.3-1.2-.5-1.8-.5h-.8c0-.4-.1-.7-.2-1.1-.1-.3-.2-.7-.4-1-.1-.2-.3-.4-.5-.6-.2-.2-.7-.3-.8-.3-.8 0-1.3 0-1.9.1l-1.8.2-7.1.8c-2.3.3-4.6.3-7 .3-1.7-.1-3.5-.1-5.2-.2l1.1-1-1.8-.2c-.8-.1-1.8-.4-2.8-.6-1-.3-1.9-.6-2.9-.9l-5.7-2.1c-1.9-.7-3.8-1.4-5.8-2.1-1-.4-2.1-.4-3.1-.4h-3.1s-.1 0-.1.1l.1.1.1.1.2.1.3.3.7.6c.5.4.9.8 1.3 1.2.4.4.9.9 1.2 1.3.2.5.4 1.1.6 1.6.7 2.3 1.4 4.6 2.1 7 .7 2.3 1.3 4.7 1.9 7 .2 1 .5 2 .7 3-.6.6-1.2 1.3-1.8 1.9-2.4 2.4-4.7 4.9-7.1 7.3l-1.8 1.8c-.3.3-.6.5-.9.7-.3.2-.7.4-1.1.6-1.5.8-3 1.5-4.5 2.3l-8.9 4.3c-3-.9-5.9-1.9-8.8-3-1.5-.6-3-1.2-4.2-2.1-1.4-.9-2.7-1.8-4.1-2.6-2.8-1.7-5.5-3.4-8.3-5.1l-3.4-2c-.6-3.8-1-7.7-1.3-11.6-.1-1.1-.2-2.3-.2-3.4v-.8c0-.2 0-.4.2-.6.3-.4.7-.9 1-1.3.7-.9 1.5-1.7 2.3-2.6l1.2-1.3.6-.6.3-.3.2-.2.1-.1s.1-.1.1-.2h-6.1c-3.2 1-6.4 2-9.7 3-3.2 1-6.4 2-9.6 3.1l-2.1.7 2.1.8 1.3.5c-3.9 1.4-7.9 2.7-11.8 4.1-1.2.4-2.3.8-3.5 1.1-.6.2-1.2.4-1.7.5-.3.1-.5.1-.8.2l-.9.1c-1.2.1-2.5.2-3.8.5-.6.2-1.3.4-1.9.9l-.4.4-.3.6c-.1.2-.1.4-.1.6v.2c-.6.4-1.1.8-1.6 1.3-.5.6-1.1 1.4-1.1 2.3 0 .5.1.9.2 1.2.1.4.2.7.3 1.1.2.7.4 1.4.6 2.2l2.6 8.6c.9 2.9 1.7 5.8 2.5 8.7.8 2.9 1.5 5.8 2.1 8.8l.1.4 136.8.1v-.5c.1-4 0-8 .1-12l.2-12 .2-12v-6zm-5.4-5.3zm-108 46.5-8.9.1c-.2-3.1-.6-6.2-1.1-9.3-.5-3.5-1.1-7-1.7-10.4l-.5-2.6-.3-1.3c0-.2-.1-.5-.2-.8-.1-.3-.3-.5-.4-.7-.6-.9-1.4-1.5-2.1-2-.8-.6-1.5-1-2.3-1.4-3.2-1.7-6.6-2.8-10-3.6 3.2 1.6 6.3 3.1 9.3 5 1.4.9 2.9 1.9 3.7 3.1.1.1.2.3.2.4 0 .1.1.2.1.5l.2 1.3.5 2.6c.7 3.4 1.4 6.9 2.2 10.3.7 3 1.5 6 2.3 9h-2.6l-11.4.2c-.7-2.8-1.5-5.6-2.3-8.4l-2.5-8.7c-.8-2.9-1.7-5.8-2.4-8.7-.2-.7-.4-1.5-.5-2.2-.1-.4-.2-.7-.2-1.1-.1-.4-.1-.7-.1-1 0-.6.4-1.1.9-1.6s1.1-.9 1.7-1.2l.3-.2v-.4c0-.5.1-.8.5-1.1.4-.3.9-.5 1.4-.6 1.1-.2 2.3-.3 3.6-.3h1c.3-.1.7-.1 1-.2.6-.1 1.2-.3 1.8-.5 1.2-.4 2.4-.7 3.6-1.1 4.7-1.5 9.4-3.2 14-4.9l.8-.3c.1.1.2.1.4.1l2.1.6c.5.1.9.1 1.4.2-.5.4-1.1.8-1.6 1.2-1.1.9-2.2 1.7-3.2 2.6s-2.1 1.8-3.2 2.7l-.6.5.4.6c.9 1.3 1.8 2.7 2.6 4 .9 1.3 1.8 2.7 2.6 4 .4.7.8 1.4 1.1 2 .3.7.7 1.4 1 2.1l1.9 4.4c2.4 5.6 4.9 11.2 7.6 16.6-4.2.4-8.1.5-12.1.5zm12-.1c-.8-2.8-1.8-5.5-2.7-8.3-1.1-3-2.2-6.1-3.3-9.1l-1.8-4.5c-.3-.8-.6-1.5-1-2.3-.4-.8-.8-1.5-1.2-2.2-1.6-2.6-3.3-5-5-7.4.8-.8 1.6-1.5 2.4-2.3l3-2.9c2-1.9 4.1-3.7 6.1-5.7-1.6 1.1-3.2 2.2-4.8 3.4-.5-.2-1-.5-1.5-.7-.4-.2-.8-.3-1.3-.5l-.6-.2s-.1 0-.1-.1c-.1 0-.2-.1-.2-.1l-1.2-.4-1.4-.5c2.5-.9 4.9-1.8 7.4-2.7 3.2-1.1 6.3-2.3 9.4-3.5 1.8-.1 3.6-.4 5.6-.6l-.2.1-.3.3-.7.6-1.3 1.2c-.8.8-1.7 1.6-2.5 2.4-.4.4-.8.8-1.2 1.3-.1.1-.2.3-.3.4-.1.2-.1.4-.1.5 0 .3-.1.6-.1.9v3.5c.2 4.6.4 9.2 1.1 13.9.2 1.1.3 2.4.7 3.5.3 1.1.7 2.2 1 3.4.7 2.2 1.4 4.4 2.2 6.6 1.3 3.9 2.7 7.8 4.1 11.6-3.5.4-6.8.4-10.2.4zm15.6 0h-3.2L80 206.4l-2.3-6.5c-.4-1.1-.8-2.2-1.1-3.2-.3-1.1-.5-2.1-.7-3.3-.1-.4-.1-.9-.2-1.3l2.8 1.9 8.1 5.4c1.3.9 2.7 1.8 4 2.8 1.4 1 2.9 1.7 4.5 2.3 3 1.3 6.1 2.3 9.2 3.3l.3.1.3-.1c3.1-1.4 6.2-2.9 9.2-4.4l4.5-2.4c.4-.2.8-.4 1.1-.7.4-.3.8-.6 1.1-.9.6-.6 1.2-1.2 1.8-1.9 2.3-2.5 4.6-5.1 6.8-7.6l1.3-1.5c.2 1 .4 2 .5 2.9l.1.9v.8l-.3 1.8-.6 3.6-1.4 7.1-2.7 13.7c-7.4-.1-14.9-.1-22.3-.2-5.5-.2-10.9-.2-16.2-.2zm50.6 0-10.1-.1c.9-4.4 1.7-8.7 2.5-13.1.4-2.4.9-4.8 1.2-7.2l.6-3.6c.1-.6.2-1.2.2-1.9v-1l-.1-1c-.4-2.5-1-4.9-1.6-7.2-.7-2.4-1.4-4.7-2.2-7-.8-2.3-1.6-4.6-2.5-6.9-.2-.6-.4-1.1-.8-1.7-.4-.6-.9-.9-1.3-1.4-.5-.4-1-.8-1.4-1.1l-.8-.5-.4-.3-.1-.1h1.3c.5 0 1 .1 1.5.1 1 .1 2 .2 2.9.6l5.6 2.4c1.9.8 3.8 1.6 5.7 2.3.9.4 1.9.7 2.9 1.1.5.2 1 .3 1.5.5h-.1l-.7.6c-.4.2-.7.5-1.1.8-.9.7-1.8 1.6-2.6 2.4-1.2-.8-2.5-1.5-3.7-2.1 1.2.9 2.5 1.9 3.7 2.9l1.8 1.5c.6.5 1.3.9 2 1.3 1.4.8 2.8 1.5 4.2 2.2 1.1.6 2.2 1.1 3.4 1.6-1.4 2.6-2.8 5.3-4.1 8l-2.1 4.5c-.7 1.5-1.4 3-1.9 4.7-.4 1.7-.8 3.3-1.1 4.9-.3 1.6-.6 3.2-.9 4.9-.5 3.1-1 6-1.4 8.9zm34.1-11c-.1 3.8-.3 7.6-.4 11.5-4.1-.1-8.1-.2-12.2-.2.4-3.5.6-7 .7-10.6.1-3.9.2-7.8.1-11.7 0-1-.1-2-.1-3l-.1-.8v-.5c0-.4.1-.8.2-1.2.5-1.7 1.4-3.5 2.2-5.2 1.8-3.4 3.7-6.8 5.8-10.1-2.8 2.8-5.1 6-7.2 9.3-1 1.7-2 3.4-2.6 5.4-.2.5-.3 1-.3 1.6V193.2l.1.7c.1.9.1 1.9.1 2.9.1 3.9.2 7.8.4 11.7.1 3.5.3 7 .7 10.6-3.3-.1-6.5-.1-9.8-.1l-11.1-.1c.8-2.8 1.5-5.7 2.3-8.5.8-3.2 1.6-6.4 2.5-9.5.2-.7.6-1.4.9-2.2l1-2.2 2.2-4.4 4.4-8.9.4-.9-.9-.4c-2.9-1.2-5.8-2.4-8.6-3.7-.7-.3-1.4-.7-2.1-1.1-.6-.4-1.3-.9-1.9-1.3-.1 0-.1-.1-.1-.1.5-.1 1-.4 1.4-.6.6-.3 1.1-.7 1.6-1.1.3-.3.6-.6 1-.9l.6.1c2.4.2 4.8.4 7.1.5 2.4.1 4.8.1 7.2-.2l7.1-.8 1.8-.2c.6-.1 1.2-.1 1.6-.1l.1.1c.1.1.2.4.3.6.1.5.2 1.1.3 1.6l.1.9.9-.2c.8-.2 1.7-.2 2.3.1v.2c0 .2.1.5.1.7.1.5.1 1 .1 1.5l.3 6c.1 4 .2 8 .1 12-.4 3.9-.5 7.9-.6 11.9z" fill="#020013" stroke-width="none" opacity="1"></path></g><g id="svga-group-head" transform="matrix(1,0,0,1,0,0)"><g id="svga-group-ears-left-move" transform="matrix(1,0,0,1,0,0)"><g id="svga-group-ears-left"><path id="SvgjsPath42215" d="M64.35 96.38s-2.97-7.29-5.67-10.81c0 0-1.55-1.23-3.05-2.34a2.359 2.359 0 0 0-3.25.41c-1.71 2.12-4.66 6.02-7.13 10.49-.41.75-.57 1.6-.43 2.44.3 1.82.93 5.1 1.69 6.43 1.08 1.89 5.54 6.62 8.65 8.24 0 0 3.51.54 6.21-1.89 2.71-2.43 2.98-12.97 2.98-12.97z" fill="#f3d4cf" stroke-width="none" opacity="1" stroke="none"></path><path id="SvgjsPath42216" d="M62.48 97.25c-.08-.23-5.87-7.75-8.12-9.17-2.26-1.43-6.99 5.94-7.22 8.42-.23 2.48 2.26 7.14 4.36 8.5 2.11 1.35 6.84 1.88 9.48-1.96 2.63-3.84 1.5-5.79 1.5-5.79z" fill="#e4b3ab" stroke-width="none" opacity="1" stroke="none"></path><path id="SvgjsPath42217" d="M44.91 94.57c-.16.42-.26.86-.28 1.3-.03.45.07.89.13 1.32.14.85.29 1.71.46 2.56.18.85.38 1.7.67 2.53.28.86.84 1.61 1.36 2.29 1.08 1.37 2.28 2.63 3.55 3.83 1.27 1.19 2.61 2.33 4.19 3.17l.06.03.06.01c1.78.19 3.55-.15 5.11-1.01.76-.44 1.48-.98 1.99-1.76.5-.75.76-1.58 1.03-2.4.48-1.65.71-3.33.9-5.01.18-1.68.24-3.36.25-5.06-.35-.98-.73-1.91-1.13-2.86-.39-.94-.82-1.87-1.26-2.79-.45-.92-.89-1.84-1.41-2.73-.51-.89-1.05-1.77-1.67-2.6l-.02-.03-.03-.02-2.04-1.6-1.04-.78a2.659 2.659 0 0 0-2.77-.2c-.43.21-.79.61-1.03.95-.53.69-1.04 1.38-1.54 2.09-1.99 2.83-3.91 5.68-5.54 8.77zm.02 1.31c0-.41.08-.83.23-1.22.73-1.52 1.65-3.01 2.6-4.44.95-1.44 1.97-2.83 3.03-4.18a79 79 0 0 1 1.62-2.01c.49-.68 1.21-1.03 1.98-.97.38.03.74.17 1.04.39l1.01.79 2.03 1.53c1.2 1.59 2.19 3.36 3.15 5.14.48.89.93 1.81 1.39 2.72.45.91.89 1.84 1.32 2.75-.11 1.66-.32 3.35-.56 5-.25 1.66-.57 3.31-1.07 4.89-.28.77-.56 1.56-1.01 2.21-.43.62-1.1 1.11-1.8 1.5-1.38.76-3.05 1.06-4.59.9-1.43-.8-2.75-1.87-4-3a38.627 38.627 0 0 1-3.55-3.69c-.54-.67-1.05-1.31-1.33-2.1-.3-.78-.54-1.61-.75-2.44-.21-.83-.39-1.67-.56-2.52-.09-.43-.19-.84-.18-1.25z" fill="#e4b3ab" stroke-width="none" opacity="1" stroke="none"></path><path id="SvgjsPath42218" d="M48.9 96.37c.25-.83.64-1.56 1.05-2.28.41-.72.88-1.39 1.37-2.05.49-.66 1.01-1.29 1.62-1.87.15-.14.31-.28.52-.38.1-.05.23-.1.39-.04.14.08.17.17.26.25.22.35.43.71.61 1.08.74 1.46 1.45 2.93 2.05 4.46.3.76.56 1.54.77 2.34.11.4.19.8.27 1.22.05.41.14.87.03 1.32-.19.88-.7 1.58-1.21 2.22-.53.64-1.13 1.21-1.77 1.71l-.05-.05c.55-.6 1.07-1.23 1.52-1.88.45-.65.84-1.37.98-2.1.11-.69-.16-1.5-.37-2.26-.23-.77-.47-1.54-.73-2.31-.5-1.54-1.01-3.09-1.7-4.55-.18-.36-.36-.73-.58-1.05-.06-.05-.13-.16-.17-.17-.03-.02-.12 0-.19.04-.16.08-.31.22-.45.35-.57.55-1.02 1.24-1.47 1.91-.84 1.37-1.65 2.81-2.09 4.29-.05.18-.09.37-.1.54a.96.96 0 0 0 0 .24c.01.08.03.19.04.28.07.38.17.76.29 1.13.25.74.58 1.47.97 2.14.1.17.2.34.31.5.05.08.11.15.16.23.05.07.14.16.11.13-.03.01.1.01.25-.06.15-.08.3-.17.45-.28.61-.46 1.17-1.05 1.64-1.67.06-.08.12-.16.17-.23l.07-.11c.01-.03.02-.05.03-.08.03-.13.03-.32 0-.51-.05-.38-.16-.76-.29-1.14-.26-.76-.56-1.52-.89-2.26l.06-.03c.44.69.83 1.41 1.17 2.16.16.38.32.77.41 1.19.05.21.08.44.04.7l-.06.21c-.03.05-.05.1-.08.15-.05.1-.11.18-.17.27-.48.69-1.01 1.33-1.67 1.89-.17.14-.35.27-.57.38-.22.09-.52.24-.92.05-.21-.14-.24-.22-.32-.3-.07-.09-.14-.17-.2-.26-.13-.18-.24-.35-.35-.54-.42-.73-.77-1.49-1.02-2.3-.12-.4-.22-.82-.28-1.24-.01-.11-.03-.21-.04-.33-.01-.13-.01-.25.01-.37.01-.26.06-.47.12-.68z" fill="#c5796d" stroke-width="none" opacity="1" stroke="none"></path></g></g><g id="svga-group-ears-right-move" transform="matrix(1,0,0,1,0,0)"><g id="svga-group-ears-right"><path id="SvgjsPath42219" d="M135.65 96.38s2.97-7.29 5.67-10.81c0 0 1.55-1.23 3.05-2.34 1.02-.76 2.45-.58 3.25.41 1.71 2.12 4.66 6.02 7.13 10.49.41.75.57 1.6.43 2.44-.3 1.82-.93 5.1-1.69 6.43-1.08 1.89-5.54 6.62-8.65 8.24 0 0-3.51.54-6.21-1.89-2.71-2.43-2.98-12.97-2.98-12.97z" fill="#f3d4cf" stroke-width="none" opacity="1" stroke="none"></path><path id="SvgjsPath42220" d="M137.52 97.25c.08-.23 5.87-7.75 8.12-9.17s6.99 5.94 7.22 8.42c.23 2.48-2.26 7.14-4.36 8.5-2.11 1.35-6.84 1.88-9.48-1.96-2.63-3.84-1.5-5.79-1.5-5.79z" fill="#e4b3ab" stroke-width="none" opacity="1" stroke="none"></path><path id="SvgjsPath42221" d="M149.55 85.79c-.5-.7-1.02-1.4-1.54-2.09-.24-.34-.6-.74-1.03-.95-.43-.22-.92-.32-1.41-.29-.49.03-.96.21-1.36.49l-1.04.78-2.04 1.6-.03.02-.02.03c-.62.83-1.16 1.71-1.67 2.6-.52.89-.96 1.81-1.41 2.73-.44.92-.87 1.85-1.26 2.79-.39.95-.78 1.88-1.13 2.86.01 1.7.07 3.38.25 5.06.18 1.68.41 3.36.9 5.01.27.81.53 1.64 1.03 2.4.52.78 1.23 1.32 1.99 1.76 1.56.86 3.33 1.19 5.11 1.01l.06-.01.06-.03c1.58-.85 2.92-1.99 4.19-3.17 1.27-1.19 2.47-2.45 3.55-3.83.52-.68 1.08-1.43 1.36-2.29.3-.83.49-1.68.67-2.53.18-.85.33-1.7.46-2.56.06-.42.15-.86.13-1.32-.02-.45-.12-.89-.28-1.3-1.63-3.08-3.55-5.93-5.54-8.77zm5.35 11.34c-.17.84-.35 1.69-.56 2.52-.21.83-.45 1.66-.75 2.44-.28.79-.79 1.43-1.33 2.1a35.347 35.347 0 0 1-3.55 3.69c-1.25 1.13-2.57 2.2-4 3-1.54.16-3.21-.14-4.59-.9-.7-.39-1.37-.87-1.8-1.5-.46-.64-.74-1.43-1.01-2.21-.5-1.58-.82-3.23-1.07-4.89-.24-1.66-.45-3.34-.56-5 .43-.91.87-1.84 1.32-2.75.46-.91.9-1.82 1.39-2.72.96-1.77 1.94-3.55 3.15-5.14l2.03-1.53 1.01-.79c.3-.22.66-.36 1.04-.39.77-.06 1.49.29 1.98.97a79 79 0 0 1 1.62 2.01c1.07 1.35 2.09 2.74 3.03 4.18.94 1.43 1.87 2.92 2.6 4.44.15.39.22.81.23 1.22 0 .41-.1.82-.18 1.25z" fill="#e4b3ab" stroke-width="none" opacity="1" stroke="none"></path><path id="SvgjsPath42222" d="M151.1 96.37c-.25-.83-.64-1.56-1.05-2.28-.41-.72-.88-1.39-1.37-2.05-.49-.66-1.01-1.29-1.62-1.87-.15-.14-.31-.28-.52-.38-.1-.05-.23-.1-.39-.04-.14.08-.17.17-.26.25-.22.35-.43.71-.61 1.08-.74 1.46-1.45 2.93-2.05 4.46-.3.76-.56 1.54-.77 2.34-.11.4-.19.8-.27 1.22-.05.41-.14.87-.03 1.32.19.88.7 1.58 1.21 2.22.53.64 1.13 1.21 1.77 1.71l.05-.05c-.55-.6-1.07-1.23-1.52-1.88-.45-.65-.84-1.37-.98-2.1-.11-.69.16-1.5.37-2.26.23-.77.47-1.54.73-2.31.5-1.54 1.01-3.09 1.7-4.55.18-.36.36-.73.58-1.05.06-.05.13-.16.17-.17.03-.02.12 0 .19.04.16.08.31.22.45.35.57.55 1.02 1.24 1.47 1.91.84 1.37 1.65 2.81 2.09 4.29.05.18.09.37.1.54.01.09.01.17 0 .24-.01.08-.03.19-.04.28-.07.38-.17.76-.29 1.13-.25.74-.58 1.47-.97 2.14-.1.17-.2.34-.31.5-.05.08-.11.15-.16.23-.05.07-.14.16-.11.13.03.01-.1.01-.25-.06-.15-.08-.3-.17-.45-.28a8.654 8.654 0 0 1-1.64-1.67c-.06-.08-.12-.16-.17-.23l-.07-.11c-.01-.03-.02-.05-.03-.08-.03-.13-.03-.32 0-.51.05-.38.16-.76.29-1.14.26-.76.56-1.52.89-2.26l-.06-.03c-.44.69-.83 1.41-1.17 2.16-.16.38-.32.77-.41 1.19-.05.21-.08.44-.04.7l.06.21c.03.05.05.1.08.15.05.1.11.18.17.27.48.69 1.01 1.33 1.67 1.89.17.14.35.27.57.38.22.09.52.24.92.05.21-.14.24-.22.32-.3.07-.09.14-.17.2-.26.13-.18.24-.35.35-.54.42-.73.77-1.49 1.02-2.3.12-.4.22-.82.28-1.24.01-.11.03-.21.04-.33.01-.13.01-.25-.01-.37a2.75 2.75 0 0 0-.12-.68z" fill="#c5796d" stroke-width="none" opacity="1" stroke="none"></path></g></g><g id="svga-group-faceshape-wrap"><g id="svga-group-faceshape-single"><path id="SvgjsPath42063" d="M150 109.2c-1.4-6.5-5.4-17.4-4.6-30.4 0 0-2.4-21.2-9.5-29-6.7-7.4-11.3-13.2-28.8-17.3-1.8-.4-12.3-.4-14.1 0-17.5 4.1-22.1 9.9-28.8 17.3-7.1 7.8-9.5 29-9.5 29 .9 13.1-3.1 23.9-4.6 30.4-1.4 6.5-3.1 19.5 9 28.6s31.9 1.7 31.9 1.7c3.7 4.2 8.9 4 8.9 4s5.3.3 8.9-4c0 0 19.8 7.4 31.9-1.7s10.7-22.1 9.3-28.6z" fill="#f3d4cf" stroke-width="none" opacity="1" stroke="none"></path><path id="SvgjsPath42064" d="M141 137.8c12.26-8.91 10.5-22.1 9-28.6-1.4-6.5-5.4-17.4-4.6-30.4 0 0-2.4-21.2-9.5-29-6.7-7.4-11.3-13.2-28.8-17.3-1.8-.4-12.3-.4-14.1 0-17.5 4.1-22.1 9.9-28.8 17.3-7.1 7.8-9.5 29-9.5 29 .9 13.1-3.1 23.9-4.6 30.4-1.4 6.5-3.1 19.5 9 28.6s31.9 1.7 31.9 1.7c3.7 4.2 8.9 4 8.9 4s5.3.3 8.9-4c.2 0 19.33 7.65 32.2-1.7zm-20 2.9c-1.3-.2-6.5-1.2-7.8-1.5-.6-.2-1.3-.4-1.9-.6-.6-.2-2.7-1-2.7-1l-.8.8c-.5.5-2.2 1.8-2.5 2-.3.2-.6.3-1 .5-.7.3-3.93.88-5.3.8-1.29-.07-2.5-.6-3.2-.9-.3-.1-3-2-3.5-2.5l-.8-.9s-3.3 1.1-3.8 1.2c-.9.3-1.9.5-2.8.7-1.9.4-3.8.7-5.7.9-3.8.4-7.7.3-11.4-.5-5.61-1.28-9.3-4.9-9.7-5.2-1.4-1.3-2.6-2.7-3.7-4.2-.5-.8-2.4-4.6-2.5-5-1.2-3.5-1.5-7.4-1.2-11.2.2-1.9 1.8-9.5 2.3-11.5s2-9.9 2.2-11.9c.5-4 .5-8.1.2-12.1.3-2.9.8-5.9 1.3-8.8.3-1.5.6-2.9.9-4.4.4-1.5.8-2.9 1.2-4.3.9-2.8 2-5.7 3.4-8.2.2-.3 2.4-3.3 2.6-3.5 1-1.1 2-2.2 3.1-3.3 2.1-2.2 4.3-4.2 6.7-5.8 2.5-1.6 5.1-3 7.9-4 2.8-1.1 5.7-1.9 8.6-2.5l1.6-.3s5.6-.1 7.1-.1 3 .1 4.5.2c.4 0 4.2.7 4.2.7 2.9.8 5.7 1.7 8.4 2.8 2.7 1.1 5.3 2.5 7.7 4.1 1.2.8 2.3 1.7 3.4 2.7s2.1 2 3.2 3.1c1 1.1 4.7 5.3 4.7 5.3s3.5 6.5 4.5 9.3c1 2.8 1.8 5.7 2.5 8.6s1.3 5.8 1.7 8.8c-.1 2.6 0 5.2.2 7.7.2 2.6.6 5.2 1.1 7.7s1.1 5 1.8 7.5 1.4 5 1.9 7.5c.6 2.6.9 5.3.9 8s-.4 5.4-1.2 7.9c-.8 2.6-2.1 4.9-3.7 7-3.93 4.98-9.3 7.1-9.3 7.1-1.2.5-6.3 1.5-7.6 1.6-1.3.1-6.4-.1-7.7-.3z" fill="#c5796d" stroke-width="none" opacity="1" stroke="none"></path></g></g><g id="svga-group-mouth-single-move" transform="matrix(1,0,0,1,0,-3)"><g id="svga-group-mouth-single"><path id="SvgjsPath42891" d="M88.89 128.18s0 2.87 5.07 4.6c4.29 1.46 12.9 1.2 16.1-2.4 3.2-3.6 1.59-5.9-.34-7.68-2.13-1.97-8.97-4.61-15.91-1.21-6.94 3.4-4.92 6.69-4.92 6.69z" fill="#d35a68" stroke-width="none" opacity="1" stroke="none"></path><path id="SvgjsPath42892" d="M88.93 128.17c.22 1.22 1.08 2.16 2.05 2.84.97.7 2.1 1.15 3.24 1.51 2.3.67 4.76.78 7.17.69 1.21-.04 2.42-.18 3.61-.43.6-.12 1.18-.29 1.76-.47l.84-.34c.28-.13.54-.28.8-.42 1.05-.6 1.89-1.52 2.53-2.54.3-.52.56-1.07.67-1.65.11-.58.09-1.17-.09-1.72-.35-1.11-1.22-1.99-2.12-2.77-.9-.73-2-1.25-3.12-1.66-1.13-.4-2.3-.66-3.49-.79-1.19-.12-2.39-.16-3.58-.02-2.38.24-4.69 1.02-6.78 2.24-1.04.6-2.05 1.29-2.79 2.22-.38.45-.66.99-.82 1.55-.14.57-.13 1.19.12 1.76zm-.08.02c-.16-.25-.26-.57-.31-.88-.04-.31-.05-.64.01-.95.11-.63.36-1.24.74-1.75.73-1.05 1.73-1.86 2.78-2.53 2.09-1.37 4.52-2.27 7.03-2.57 2.51-.27 5.08.06 7.44.96 1.18.45 2.31 1.04 3.29 1.9.47.43.9.89 1.27 1.41.37.52.69 1.1.84 1.73.16.63.15 1.3 0 1.93-.16.62-.46 1.19-.78 1.72-.69 1.04-1.55 1.98-2.63 2.63-1.06.67-2.23 1.12-3.43 1.46-1.2.33-2.43.56-3.67.67-1.24.1-2.5.1-3.74-.02-1.24-.12-2.48-.34-3.68-.75-.6-.21-1.17-.45-1.73-.74-.28-.14-.55-.31-.82-.47-.25-.19-.53-.35-.76-.57-.49-.39-.93-.87-1.27-1.41-.33-.53-.58-1.16-.58-1.77z" fill="#cb4d5b" stroke-width="none" opacity="1" stroke="none"></path><path id="SvgjsPath42893" d="M85.24 127.03c1.51 1.69 4.1 2.26 6.29 2.06 3.38-.32 5.95-2.78 9.45-2.67 4.87.15 10.86 2.74 14.33-2.2.69-.98-.96-2.04-1.5-1.03-2.75 5.11-9.76 1.84-14.2 2.03-1.98.09-3.72.87-5.54 1.56-3.17 1.2-5.29.55-8.32-.5-.44-.16-.83.39-.51.75z" fill="#c4404f" stroke-width="none" opacity="1" stroke="none"></path></g></g><g id="svga-group-eyes-left-move" transform="matrix(1,0,0,1,0,0)"><g id="svga-group-eyes-left"><g id="svga-group-eyesback-left"><path id="SvgjsPath43044" d="M80.2 77.2c7.5 0 13.5 5.8 13.5 13s-6 13-13.5 13-13.5-5.8-13.5-13 6-13 13.5-13z" fill="#ffffff" stroke-width="none" opacity="1"></path></g><g id="svga-group-eyesiriswrapper-left" transform="matrix(1,0,0,1,0,0)"><g id="svga-group-eyesiriscontrol-left" transform="matrix(1,0,0,1,0,0)"><g id="svga-group-eyesiris-left"><path id="SvgjsPath40631" d="M80.2 84.9c2.9 0 5.3 2.4 5.3 5.3s-2.4 5.3-5.3 5.3-5.3-2.4-5.3-5.3 2.4-5.3 5.3-5.3z" fill="#341c0e" stroke-width="none" opacity="1" stroke="none"></path><path id="SvgjsPath40632" d="M80.2 95.8c-3.1 0-5.6-2.5-5.6-5.6s2.5-5.6 5.6-5.6 5.6 2.5 5.6 5.6c0 3.1-2.5 5.6-5.6 5.6zm0-10.6c-2.8 0-5.1 2.3-5.1 5.1s2.3 5.1 5.1 5.1 5.1-2.3 5.1-5.1c-.1-2.9-2.3-5.1-5.1-5.1z" fill="#150901" stroke-width="none" opacity="1" stroke="none"></path><path id="SvgjsPath40633" d="M85.3 90.2c-.7 0-1.3-.1-2 0 0-.3 0-.6-.1-.8.8-.1 1.5-.3 2.2-.6.2-.1.1-.3-.1-.3-.7.2-1.5.4-2.2.7 0-.1-.1-.2-.1-.3.3-.1.6-.3.9-.4.4-.2.8-.3 1.1-.4.1-.1.1-.3-.1-.2-.7.1-1.5.4-2.1.9 0-.1-.1-.1-.1-.2.2-.2.5-.3.7-.5.3-.3.7-.5 1-.8.1-.1 0-.3-.2-.2-.3.3-.7.6-1 .8-.2.2-.4.3-.7.5l-.3-.3c.5-.6.9-1.3 1.3-1.9.1-.1-.1-.2-.2-.1-.5.6-1 1.2-1.4 1.9-.1-.1-.2-.1-.3-.2.2-.8.3-1.6.3-2.3 0-.2-.3-.2-.3 0-.1.6-.2 1.1-.3 1.7 0 .2-.1.3-.1.5-.2-.1-.4-.1-.6-.1 0-.8-.1-1.5-.3-2.2 0-.1-.1 0-.1 0-.1.7-.1 1.4-.1 2.2h-.4c0-.2-.1-.4-.1-.6-.1-.5-.1-1-.2-1.4 0-.1-.2-.1-.2 0-.1.6 0 1.4.2 2.1-.1 0-.2 0-.2.1-.2-.7-.4-1.5-.7-2.1 0-.1-.2-.1-.2.1.1.7.3 1.5.6 2.2 0 0-.1 0-.1.1-.3-.7-.9-1.3-1.3-1.9-.1-.1-.2 0-.1.1.4.7.7 1.4 1.2 2-.1.1-.2.1-.2.2-.1-.1-.2-.3-.3-.4-.3-.4-.7-.9-1.1-1.2-.1-.1-.2 0-.2.1.2.4.6.8.9 1.2.1.2.3.4.4.5l-.4.4c-.6-.5-1.2-.9-1.8-1.2-.1 0-.1.1-.1.1.5.5 1.1 1 1.7 1.4-.1.2-.2.3-.3.5-.1 0-.2-.1-.3-.1-.6-.2-1.2-.5-1.8-.7-.2-.1-.2.2-.1.2.5.3 1.1.5 1.6.7.2.1.3.2.5.2 0 .1 0 .2-.1.3-.2 0-.3-.1-.5-.1-.5-.1-1.1-.2-1.7-.1-.1 0-.1.2 0 .2.6.2 1.4.3 2.1.4v.5c-.3.1-.6.2-.9.4-.4.2-.8.2-1.2.5-.1.1-.1.3.1.3.5 0 .9-.2 1.4-.4.2-.1.5-.2.7-.3 0 .2.1.3.1.5-.1.1-.2.1-.3.2-.5.3-1 .6-1.5 1-.1.1 0 .3.2.2.6-.3 1.1-.7 1.6-1 .1 0 .1-.1.2-.1.1.1.2.3.3.4-.6.5-1 1.1-1.5 1.6-.1.1 0 .2.1.1.5-.4 1.1-.9 1.6-1.4l.3.3c-.2.2-.3.4-.4.6-.3.4-.7.9-.9 1.3-.1.1.1.2.2.1.3-.4.7-.8 1-1.2.2-.2.3-.4.5-.6.1 0 .1.1.2.1-.1.2-.2.3-.2.4-.2.5-.5.9-.7 1.4 0-.8.2-.7.3-.8.3-.4.5-1 .8-1.5.1-.1.1-.3.2-.4h.1c-.3.7-.5 1.4-.6 2.2 0 .1.2.1.2 0 .2-.7.5-1.4.7-2.1.1 0 .2 0 .3.1-.2.7-.2 1.6-.3 2.3 0 .2.3.2.3 0 0-.8.2-1.5.2-2.3h.2c-.1.7-.1 1.5 0 2.2 0 .2.3.2.3 0-.1-.7 0-1.5-.1-2.2.2 0 .4-.1.7-.2.1.3.3.7.4 1 .2.3.3.8.6 1 .1 0 .1 0 .1-.1 0-.3-.2-.7-.4-1-.2-.3-.3-.7-.5-1 .1 0 .1-.1.2-.1.1.3.3.6.5.9s.3.8.6 1c.1.1.2 0 .2-.1-.1-.4-.4-.8-.6-1.1-.2-.3-.3-.6-.5-.8.1-.1.2-.1.3-.2.4.6.8 1.2 1.3 1.7.2.2.4-.1.2-.2-.5-.5-.9-1.1-1.4-1.6.2-.2.4-.4.5-.6.6.4 1.2.9 1.8 1.3.1.1.3-.1.2-.2-.6-.5-1.2-.9-1.8-1.2 0-.1.1-.1.1-.2.6.4 1.3.7 1.9.9.2.1.2-.2.1-.2-.6-.3-1.3-.7-2-.9.1-.2.2-.5.2-.8.7.1 1.4.1 2 .1.5 0 .5-.5.2-.5z" fill="#150901" stroke-width="none" opacity="1" stroke="none"></path><path id="SvgjsPath40634" d="M80.2 87.3c1.6 0 2.9 1.3 2.9 2.9s-1.3 2.9-2.9 2.9-2.9-1.3-2.9-2.9 1.3-2.9 2.9-2.9z" fill="#000000" stroke-width="none" opacity="1"></path><path id="SvgjsPath40635" d="M78.6 87.7c.6 0 1.1.5 1.1 1.1s-.5 1.2-1.1 1.2-1.1-.5-1.1-1.1.5-1.2 1.1-1.2zm3.5 4.1c.3 0 .6.3.6.6s-.2.6-.6.6-.6-.3-.6-.6.3-.6.6-.6z" fill="#ffffff" stroke-width="none" opacity="1"></path></g></g></g><g id="svga-group-eyesfront-left"><path id="SvgjsPath43052" d="M80.2 76.7c-7.8 0-14.1 6.1-14.1 13.6s6.3 13.6 14.1 13.6 14.1-6.1 14.1-13.6S88 76.7 80.2 76.7zm4.3 20.5c-4-.4-16.3-9-13.3-11s8.2-1.2 10.6-.3c2.4.9 8.2 10.4 8.2 10.4.2.4-1.5 1.3-5.5.9z" fill="#f3d4cf" stroke-width="none" opacity="1" stroke="none"></path><path id="SvgjsPath43053" d="M90.1 96.3c-.5-.9-1.1-1.7-1.6-2.6-.2-.3-.4-.7-.4-.7-1.6-2.8-3.1-4.7-4.5-6.1l-.6-.6c-.1-.1-.2-.2-.3-.2-2.3-1.8-4.3-2.2-6.2-2.4-3.2-.3-8.7-.2-9.4.7s1.4 3.2 4.3 5.8c1 .8 3.1 2.2 5 3.3.7.5 1.4 1 2.2 1.4.9.5 1.8 1 2.7 1.4.9.4 1.9.8 2.9 1 1 .1 2.1.1 3.1 0 .5-.1 1-.1 1.5-.2.2-.1.5-.1.7-.2.1-.1.2-.1.3-.2.2-.1.3-.2.3-.4zm-.2.3c-.1.1-.2.1-.3.2-.2.1-.5.2-.7.2-.5.1-1 .2-1.5.2-1 0-2 0-3-.2s-1.9-.6-2.8-1.1c-.9-.4-1.8-.9-2.6-1.5-1.7-1.1-3.4-2.2-4.9-3.5-.8-.7-1.5-1.3-2.1-2.1-.1-.1-.1-.2-.2-.2-.2-.4-.3-.8-.4-1-.4-1.2.4-1.6 2.9-2.1s5.8-.1 7.5.8c1 .5 2.2 1.6 3.2 2.8.6.7 1.2 1.5 1.8 2.3 1.2 1.6 2.4 3.3 3.5 5-.2 0-.3.2-.4.2z" fill="#6e0000" stroke-width="none" opacity="1" stroke="none"></path></g></g></g><g id="svga-group-eyes-right-move" transform="matrix(1,0,0,1,0,0)"><g id="svga-group-eyes-right"><g id="svga-group-eyesback-right"><path id="SvgjsPath43045" d="M119.8 77.2c7.5 0 13.5 5.8 13.5 13s-6 13-13.5 13-13.5-5.8-13.5-13 6-13 13.5-13z" fill="#ffffff" stroke-width="none" opacity="1"></path></g><g id="svga-group-eyesiriswrapper-right" transform="matrix(1,0,0,1,0,0)"><g id="svga-group-eyesiriscontrol-right" transform="matrix(1,0,0,1,0,0)"><g id="svga-group-eyesiris-right"><path id="SvgjsPath40636" d="M119.8 85.5c2.6 0 4.7 2.1 4.7 4.7s-2.1 4.7-4.7 4.7-4.7-2.1-4.7-4.7 2.1-4.7 4.7-4.7z" fill="#341c0e" stroke-width="none" opacity="1" stroke="none"></path><path id="SvgjsPath40637" d="M119.8 95.1c-2.7 0-4.9-2.2-4.9-4.9s2.2-4.9 4.9-4.9 4.9 2.2 4.9 4.9-2.2 4.9-4.9 4.9zm0-9.3c-2.4 0-4.4 2-4.4 4.4s2 4.4 4.4 4.4 4.4-2 4.4-4.4c0-2.4-2-4.4-4.4-4.4z" fill="#150901" stroke-width="none" opacity="1" stroke="none"></path><path id="SvgjsPath40638" d="M124.2 90.2c-.6 0-1.2-.1-1.8 0 0-.2 0-.5-.1-.7.7-.1 1.3-.3 2-.5.2-.1.1-.3-.1-.3-.7.1-1.3.3-2 .6 0-.1-.1-.2-.1-.3.3-.1.5-.2.8-.3.3-.1.7-.2 1-.4.1-.1.1-.2-.1-.2-.6.1-1.3.4-1.8.8 0-.1-.1-.1-.1-.2.2-.1.4-.3.6-.4.3-.2.6-.4.9-.7.1-.1 0-.3-.2-.2-.3.2-.6.5-.9.7-.2.1-.4.3-.6.4l-.3-.3c.4-.5.8-1.1 1.1-1.7 0-.1-.1-.2-.1-.1-.4.5-.9 1.1-1.2 1.6-.1-.1-.2-.1-.3-.2.2-.7.2-1.4.2-2 0-.1-.2-.2-.3 0-.1.5-.1 1-.2 1.5 0 .1-.1.3-.1.4-.2-.1-.3-.1-.5-.1 0-.7-.1-1.3-.2-1.9 0-.1-.1 0-.1 0-.1.6-.1 1.3-.1 1.9h-.4c0-.2-.1-.3-.1-.5-.1-.4-.1-.8-.2-1.3 0-.1-.2-.1-.2 0-.1.5 0 1.2.2 1.8-.1 0-.1 0-.2.1-.2-.6-.4-1.3-.6-1.9 0-.1-.2-.1-.2 0 .1.6.3 1.3.5 1.9h-.1c-.3-.6-.8-1.2-1.2-1.7-.1-.1-.2 0-.1.1.3.6.7 1.2 1.1 1.7-.1 0-.2.1-.2.1-.1-.1-.2-.2-.3-.4-.3-.4-.6-.8-1-1.1-.1-.1-.2 0-.1.1.2.4.5.7.8 1.1.1.2.2.3.4.5l-.3.3c-.5-.4-1.1-.8-1.6-1.1-.1 0-.1 0-.1.1l1.5 1.2c-.1.1-.2.3-.2.4-.1 0-.2-.1-.3-.1-.5-.2-1-.4-1.6-.6-.1 0-.2.2-.1.2.4.2.9.4 1.4.6.1.1.3.1.4.2 0 .1 0 .2-.1.2-.2 0-.3 0-.4-.1-.5-.1-1-.2-1.4-.1-.1 0-.1.1 0 .2.5.2 1.2.3 1.9.3v.4c-.3.1-.5.2-.8.3-.3.1-.7.2-1 .4-.1.1-.1.2.1.2.4 0 .8-.2 1.2-.4l.6-.3c0 .1.1.3.1.4-.1.1-.2.1-.3.2-.4.3-.9.6-1.3.9-.1.1 0 .2.1.2.5-.2.9-.6 1.4-.9.1 0 .1-.1.2-.1.1.1.1.2.2.3-.5.4-.9.9-1.3 1.4-.1.1 0 .2.1.1.5-.4 1-.8 1.4-1.3l.3.3c-.1.2-.3.3-.4.5-.3.4-.6.8-.8 1.2-.1.1.1.2.2.1.3-.3.6-.7.9-1.1.1-.2.3-.3.4-.5.1 0 .1.1.1.1-.1.1-.1.3-.2.4-.2.4-.4.8-.6 1.3 0 .1.1.2.2.1.3-.4.5-.8.7-1.3.1-.1.1-.2.2-.3h.1c-.3.6-.5 1.3-.5 1.9 0 .1.1.1.2 0 .2-.6.4-1.2.7-1.8h.3c-.2.6-.2 1.4-.2 2 0 .2.3.2.3 0 0-.7.2-1.3.2-2h.2c-.1.6-.1 1.3 0 1.9 0 .2.3.2.3 0-.1-.6 0-1.3-.1-1.9.2 0 .4-.1.6-.1.1.3.2.6.4.9.1.3.2.7.5.9.1 0 .1 0 .1-.1 0-.3-.2-.6-.3-.9-.1-.3-.3-.6-.4-.9.1 0 .1-.1.2-.1.1.3.3.5.4.8.2.3.3.7.6.9.1.1.2 0 .2-.1-.1-.3-.3-.7-.5-.9-.2-.2-.3-.5-.5-.7.1-.1.2-.1.3-.2.3.6.7 1.1 1.1 1.5.1.1.3-.1.2-.2-.4-.5-.8-.9-1.2-1.4.2-.2.3-.3.4-.5.5.4 1 .8 1.6 1.1.1.1.2-.1.2-.2-.5-.4-1-.8-1.6-1.1 0-.1.1-.1.1-.2.5.3 1.2.6 1.7.8.1.1.2-.2.1-.2-.5-.3-1.1-.6-1.7-.8.1-.2.1-.4.2-.7.6.1 1.2.1 1.8.1 0 .4 0 0-.3 0z" fill="#150901" stroke-width="none" opacity="1" stroke="none"></path><path id="SvgjsPath40639" d="M119.8 87.7c1.4 0 2.5 1.1 2.5 2.5s-1.1 2.5-2.5 2.5-2.5-1.1-2.5-2.5 1.1-2.5 2.5-2.5z" fill="#000000" stroke-width="none" opacity="1"></path><path id="SvgjsPath40640" d="M118.4 88c.5 0 1 .4 1 1s-.4 1-1 1-1-.4-1-1 .4-1 1-1zm3.1 3.6c.3 0 .5.2.5.5s-.2.5-.5.5-.5-.2-.5-.5.2-.5.5-.5z" fill="#ffffff" stroke-width="none" opacity="1"></path></g></g></g><g id="svga-group-eyesfront-right"><path id="SvgjsPath43054" d="M119.8 76.7c-7.8 0-14.1 6.1-14.1 13.6s6.3 13.6 14.1 13.6 14.1-6.1 14.1-13.6-6.3-13.6-14.1-13.6zm-3.9 20.2c-3.9.7-5.3.6-5.2.2 0 0 4.5-9.9 6.9-11.1s7.3-1.6 10.4.1c3.2 1.7-8.2 10.1-12.1 10.8z" fill="#f3d4cf" stroke-width="none" opacity="1" stroke="none"></path><path id="SvgjsPath43057" d="M130.5 84.2c-1.3-.3-8-2.1-12.9 1.5-.2.1-.3.3-.5.4-.2.2-.5.4-.7.6-3.9 3.8-5.8 10.5-5.8 10.5s0-.1.1-.2c0 .1 0 .2.1.2s.1.1.2.1.2.1.4.1h.7c.5 0 1-.1 1.5-.1s1-.1 1.5-.2 1-.1 1.5-.2c.9-.2 1.7-.6 2.5-1 1.3-.6 5.2-2.4 7.3-4.4 1.4-1.2 5.4-6.9 4.1-7.3zm-14.1 12.5c-.9.3-1.9.4-2.8.6-.5.1-1 .1-1.4.2h-.7c-.1 0-.2 0-.3-.1s-.2-.1-.2-.2c.4-.8.8-1.7 1.2-2.5 1.8-3.2 4.9-8.1 7.8-9 1.4-.4 9.1-.7 8.3 2-.3.8-1.2 2-2.5 3.1-1.3 1.2-2.7 2.2-4.2 3.2-.8.5-1.6 1-2.5 1.5-1 .4-1.8.8-2.7 1.2z" fill="#6e0000" stroke-width="none" opacity="1" stroke="none"></path></g></g></g><g id="svga-group-facehighlight-single"></g><g id="svga-group-eyebrows-left-move" transform="matrix(1,0,0,1,0,0)"><g id="svga-group-eyebrows-left-rotate" transform="matrix(1,1.7453292519943295e-9,-1.7453292519943295e-9,1,1.3247347396827536e-7,-1.3740876170231786e-7)"><g id="svga-group-eyebrows-left"><path id="SvgjsPath42547" d="M63.58 81.61s2.73-6.07 7.31-8.29c5.98-2.9 21.19 2.04 22.07 2.67.87.63.35 3.77-1.13 3.92-1.48.15-8.53-2.96-13.8-4.33-5.27-1.38-9.96 0-14.45 6.03z" fill="#000000" stroke-width="none" opacity="1" stroke="none"></path><path id="SvgjsPath42548" d="M63.57 81.64c.12-.13.26-.26.39-.42l.37-.43c.24-.28.49-.55.74-.81.5-.52 1.02-1.03 1.58-1.49 1.09-.93 2.31-1.71 3.61-2.24 1.3-.53 2.7-.8 4.1-.78 1.41.01 2.8.26 4.18.67 2.78.78 5.52 1.77 8.27 2.72 1.38.47 2.75.96 4.22 1.28.19.03.37.07.57.07.2.01.44-.01.64-.1.41-.18.69-.52.88-.87.2-.35.32-.73.4-1.12.08-.39.1-.79.05-1.2-.03-.2-.07-.4-.16-.61-.08-.2-.23-.4-.44-.51-.36-.18-.7-.28-1.05-.41-.7-.23-1.39-.45-2.09-.66a90.5 90.5 0 0 0-4.22-1.12c-2.83-.68-5.67-1.3-8.59-1.47-1.45-.08-2.93-.04-4.37.27-.72.16-1.44.39-2.11.75-.66.35-1.28.77-1.85 1.24-1.14.95-2.13 2.09-2.98 3.3-.43.6-.82 1.25-1.18 1.9-.18.33-.35.66-.52.99-.08.17-.16.34-.24.5l-.11.26-.06.13-.02.06-.01.03-.01.02c-.01.01-.01.04.01.05zm.03-.07c1.45-2.5 3.19-4.99 5.44-6.73.56-.43 1.16-.82 1.78-1.13.61-.32 1.28-.52 1.97-.67 1.37-.27 2.8-.32 4.23-.3 1.43.02 2.86.15 4.29.34 1.43.18 2.85.43 4.27.75 1.42.32 2.81.7 4.2 1.13.69.21 1.39.45 2.06.71.33.13.68.27.98.42.24.13.34.5.36.84.04.7-.13 1.44-.48 2.02-.17.29-.41.53-.67.62-.13.05-.26.06-.42.05-.15-.01-.33-.05-.5-.09-.68-.16-1.37-.39-2.05-.62L87 78.17c-2.74-.99-5.47-2.05-8.3-2.83-1.41-.39-2.9-.66-4.37-.62-1.48.03-2.95.36-4.3.96-1.35.59-2.56 1.49-3.64 2.5-.55.5-1.04 1.05-1.51 1.62-.23.29-.47.57-.69.87-.11.14-.24.3-.31.44-.08.14-.16.31-.28.46z" fill="#000000" stroke-width="none" opacity="1" stroke="none"></path></g></g></g><g id="svga-group-eyebrows-right-move" transform="matrix(1,0,0,1,0,0)"><g id="svga-group-eyebrows-right-rotate" transform="matrix(1,1.7453292519943295e-9,-1.7453292519943295e-9,1,1.349326907984505e-7,-2.110056129822624e-7)"><g id="svga-group-eyebrows-right"><path id="SvgjsPath42549" d="M136.97 82.09s-2.84-5.43-7.28-7.34c-5.81-2.49-20.12 2.3-20.92 2.88s-.19 3.42 1.23 3.52c1.41.1 8-2.86 12.98-4.22 4.95-1.34 9.48-.19 13.99 5.16z" fill="#000000" stroke-width="none" opacity="1" stroke="none"></path><path id="SvgjsPath42550" d="m137 82.06-.01-.02-.02-.03-.03-.06-.06-.12-.12-.23c-.08-.15-.16-.31-.25-.45-.18-.3-.35-.59-.54-.88-.37-.59-.77-1.15-1.2-1.69-.86-1.08-1.84-2.09-2.97-2.92-.56-.41-1.17-.78-1.81-1.09-.64-.31-1.34-.49-2.04-.63-1.39-.25-2.8-.25-4.18-.15-2.77.22-5.46.84-8.13 1.51-1.33.35-2.66.7-3.97 1.1-.66.2-1.31.41-1.96.64-.33.12-.64.22-.98.39-.2.1-.33.29-.4.47s-.11.37-.13.56a3.636 3.636 0 0 0 .52 2.1c.2.32.48.61.88.77.19.07.42.1.62.08.19-.01.37-.04.54-.09 1.38-.32 2.67-.79 3.96-1.25 2.58-.92 5.16-1.87 7.78-2.64 1.3-.4 2.61-.65 3.96-.69 1.33-.04 2.68.17 3.93.62 1.26.45 2.45 1.13 3.53 1.95.54.41 1.06.86 1.56 1.32.25.23.49.47.74.71l.36.38c.13.14.27.26.39.37.02.01.03-.02.03-.03zm-.34-.4c-.08-.11-.21-.26-.32-.39-.22-.27-.45-.52-.69-.77-.47-.5-.97-.99-1.51-1.43-1.06-.89-2.25-1.66-3.55-2.18-1.3-.52-2.72-.78-4.13-.78-1.42-.01-2.82.26-4.14.65-2.66.76-5.22 1.78-7.79 2.74l-1.92.71c-.64.23-1.29.45-1.93.62-.16.04-.32.07-.47.09-.15.02-.27.01-.4-.03-.25-.08-.49-.29-.66-.54-.35-.51-.55-1.18-.53-1.82.01-.31.09-.64.31-.76.28-.15.6-.28.92-.41.64-.25 1.28-.48 1.93-.69 1.3-.42 2.63-.8 3.95-1.12 1.34-.32 2.68-.57 4.04-.77 1.36-.2 2.72-.34 4.07-.4s2.72-.05 4.03.18c.66.11 1.3.28 1.9.56.61.27 1.19.6 1.75.98 2.21 1.53 3.97 3.75 5.45 5.97-.13-.15-.22-.3-.31-.41z" fill="#000000" stroke-width="none" opacity="1" stroke="none"></path></g></g></g><g id="svga-group-nose-single-move" transform="matrix(1,0,0,1,0,0)"><g id="svga-group-nose-single"><path id="SvgjsPath42182" d="M94.71 101.62c-.22.12-4.9 2.79-5.07 6.17-.17 3.38 1.94 4.56 3.72 3.13 1.77-1.44 2.37-1.1 3.46-.17 1.1.93 4.23 1.44 5.49.42 1.27-1.01 1.86-1.44 3.3 0 1.44 1.44 5.32-.68 4.06-5.24S99.45 99 94.71 101.62z" fill="url(#SvgjsLinearGradient42183)" opacity="1"></path><path id="SvgjsPath42186" d="M94.71 101.62c-.97.58-1.89 1.25-2.7 2.03-.82.77-1.54 1.67-1.96 2.71-.12.25-.17.53-.25.8-.02.14-.03.28-.05.41-.02.14-.03.27-.02.42-.01.56.06 1.12.22 1.64.16.52.43 1.01.84 1.34.4.34.95.43 1.45.31.13-.02.24-.09.37-.12.11-.06.23-.12.34-.19l.32-.24c.11-.09.22-.18.34-.27.46-.34.96-.71 1.65-.76.34-.02.68.09.95.24.27.15.51.34.73.51.39.34.89.52 1.4.67 1.02.28 2.17.37 3.14.07.25-.07.44-.19.63-.32.22-.18.45-.36.69-.53.25-.17.52-.35.88-.43.36-.09.76-.02 1.07.12.31.15.56.34.79.54.12.1.22.2.33.31.09.09.16.14.25.2.37.21.87.21 1.33.05.94-.32 1.68-1.19 1.97-2.19.31-1 .24-2.13-.07-3.16-.32-1.01-1.04-1.9-1.9-2.59-.86-.7-1.85-1.23-2.89-1.64-1.04-.4-2.14-.7-3.25-.85-1.11-.15-2.25-.19-3.37-.05-1.12.12-2.23.43-3.23.97zm0 0c.99-.54 2.1-.86 3.22-1 1.12-.15 2.26-.15 3.39-.02 2.24.25 4.5.93 6.37 2.3.92.68 1.74 1.59 2.16 2.72.2.56.32 1.13.37 1.73.04.59.01 1.2-.16 1.78-.32 1.16-1.15 2.25-2.36 2.69-.59.21-1.32.26-1.95-.09-.08-.05-.15-.1-.22-.15a3.25 3.25 0 0 1-.19-.17c-.1-.09-.19-.19-.29-.27-.2-.18-.41-.32-.61-.42-.2-.1-.39-.12-.58-.08-.2.04-.41.16-.63.31-.22.15-.43.32-.65.49-.27.2-.57.36-.87.44-.6.19-1.21.21-1.8.18a7.96 7.96 0 0 1-1.74-.32c-.56-.18-1.14-.43-1.59-.85-.42-.36-.84-.71-1.29-.69-.46.01-.95.3-1.4.61-.11.08-.22.16-.33.25l-.37.25c-.13.07-.27.14-.41.21-.15.04-.29.11-.44.13-.6.12-1.28-.03-1.72-.45-.46-.4-.73-.96-.87-1.51-.14-.56-.2-1.14-.16-1.71 0-.14.02-.29.04-.43s.04-.29.07-.42c.09-.27.15-.56.28-.81.21-.53.55-1 .88-1.45.36-.44.74-.86 1.16-1.24.8-.78 1.72-1.45 2.69-2.01z" fill="#c5796d" stroke-width="none" opacity="1" stroke="none"></path></g></g><g id="svga-group-hair-front"><path id="SvgjsPath42749" d="M68.95 48.6S66 63.01 65.65 70.82L93.6 73.6s21.7-1.22 24.13-1.91l1.56-11.63s0-5.21-.52-9.55c0 0 2.43 6.95 3.3 10.94.87 3.99.52 10.94.52 10.94s11.12.17 12.69-.18c0 0 .68-6.94-.36-11.28 0 0 1.91 3.65 2.6 13.54.69 9.9 0 27.09 0 27.09s-3.65 14.93-5.56 17.88c0 0 8.33-1.56 14.76-4.34 0 0 3.3-10.94 3.82-15.11l-1.22 13.37s5.38-3.13 9.03-7.29c0 0-.31-14.39-.83-21.16 0 0 1.37 4.04 3.43 10.22 0 0-.68-10.12-2.07-16.89-1.39-6.77-12-25.13-15.99-30.34-3.99-5.21-28.13-18.75-32.3-19.1-4.17-.35-10.24 2.08-10.24 2.08s-8.86-3.47-11.81-3.13c-2.95.35-21.01 8.33-23.61 11.11-2.6 2.78-13.89 10.59-18.58 21.36 0 0 2.78-3.99 7.29-6.77 0 0-8.15 16.45-10.24 23.96-3.23 11.6-4.17 27.61-4.17 27.61l3.3-8.86-.52 12.85s5.73 4.51 8.33 5.9c2.6 1.39 7.99 2.6 7.99 2.6s-1.56-7.81-1.22-12.33c0 0 2.43 10.42 3.47 12.85l9.38 1.22s-5.9-11.63-7.29-16.84c-1.39-5.21-1.22-26.57-1.04-27.95.2-1.38 7.32-25.86 7.32-25.86z" fill="#000000" stroke-width="none" opacity="1" stroke="none"></path><path id="SvgjsPath42750" d="M68.96 48.55c.01.05.03.16 0 .23l-.03.17-.07.34-.13.69-.26 1.38-.5 2.77c-.32 1.85-.63 3.69-.91 5.54-.56 3.7-1.07 7.42-1.24 11.15l-.16-.18 27.96 2.68h-.04c4.03-.24 8.06-.5 12.08-.78l6.03-.47c1.99-.19 4.06-.32 5.95-.7l-.23.27L118.95 60v.05c-.04-3.17-.17-6.36-.54-9.51l-.39-3.35 1.11 3.18c.62 1.77 1.21 3.54 1.76 5.33.56 1.79 1.09 3.58 1.52 5.42.42 1.87.54 3.76.62 5.63.07 1.88.06 3.75-.02 5.63l-.41-.44 6.34.03 3.17-.04c1.03-.03 2.15-.04 3.08-.18l-.35.39c.16-1.86.23-3.74.21-5.61-.03-1.87-.15-3.74-.55-5.53l-.94-4.16 1.74 3.86c.75 1.66 1.13 3.31 1.5 5.01.35 1.69.6 3.39.8 5.09.38 3.41.53 6.84.58 10.25.1 6.84-.05 13.66-.31 20.49v.03l-.01.03c-.76 3.04-1.57 6.06-2.43 9.07-.44 1.5-.89 3.01-1.39 4.49-.52 1.49-.99 2.97-1.81 4.4l-.31-.46c2.51-.49 5-1.09 7.46-1.79s4.89-1.5 7.24-2.5l-.15.17c.75-2.48 1.46-4.98 2.14-7.49.65-2.51 1.34-5.03 1.71-7.57l.46.05-1.25 13.37-.3-.19c1.65-.99 3.25-2.1 4.76-3.29 1.52-1.2 2.95-2.5 4.24-3.94l-.04.12c-.07-3.53-.16-7.06-.29-10.58-.14-3.53-.28-7.05-.54-10.57l-.1-1.35.44 1.29 3.45 10.21-.37.07c-.31-4.14-.73-8.28-1.32-12.38-.15-1.03-.32-2.05-.5-3.07-.19-1.02-.38-2.03-.71-3-.63-1.96-1.47-3.87-2.33-5.75-1.75-3.76-3.72-7.42-5.76-11.03-2.06-3.6-4.19-7.17-6.55-10.57-.6-.86-1.19-1.67-1.94-2.36-.74-.71-1.55-1.35-2.36-1.98a82.654 82.654 0 0 0-5.09-3.56c-3.48-2.26-7.05-4.37-10.69-6.37-3.64-1.97-7.33-3.94-11.16-5.4-.48-.17-.97-.32-1.44-.42-.22-.04-.46-.07-.72-.07-.25-.01-.5-.02-.75 0-1.01.03-2.02.17-3.03.36-2 .4-3.99 1.01-5.9 1.74l-.15.06-.15-.06c-2.59-.98-5.24-1.89-7.91-2.57-1.32-.3-2.74-.66-3.94-.46-1.28.3-2.61.81-3.9 1.3-5.17 2.05-10.27 4.36-15.16 6.99-1.21.67-2.43 1.36-3.49 2.17-.28.22-.46.39-.73.66-.26.26-.51.51-.78.74-.52.48-1.06.93-1.58 1.39-2.12 1.82-4.22 3.65-6.19 5.6-3.93 3.89-7.51 8.25-9.74 13.3l-.82-.46c1.02-1.4 2.16-2.63 3.4-3.8A26.54 26.54 0 0 1 53.42 53l1.41-.88-.73 1.49c-1.98 4.04-3.89 8.11-5.7 12.22-1.78 4.12-3.6 8.26-4.74 12.56-1.14 4.33-1.9 8.76-2.53 13.21-.61 4.45-1.08 8.93-1.38 13.4l-.96-.2 3.3-8.86 1.1-2.94-.13 3.14-.54 12.85-.18-.4c1.21.96 2.45 1.9 3.69 2.82 1.25.91 2.5 1.82 3.8 2.62 1.27.81 2.7 1.32 4.17 1.8 1.46.47 2.96.88 4.45 1.23l-.52.5c-.39-2.05-.7-4.1-.94-6.17-.22-2.07-.39-4.15-.25-6.27l.18-2.66.6 2.6c.5 2.16 1.02 4.31 1.57 6.46l.85 3.21c.3 1.06.6 2.14 1 3.13l-.28-.21 9.37 1.24-.34.48c-1.37-2.74-2.68-5.5-3.93-8.29-1.23-2.8-2.47-5.6-3.32-8.58-.67-3.05-.75-6.11-.91-9.16-.13-3.05-.18-6.11-.2-9.17-.02-3.06 0-6.11.11-9.17l.04-.59.12-.58.29-1.11.61-2.21 1.26-4.4 2.56-8.79 1.29-4.39.65-2.2.32-1.1.16-.55.08-.27c.03-.06.1-.18.14-.26zm-.02.1c-.01.1.01.17-.02.24l-.08.28-.16.55-.31 1.1-.63 2.2-1.25 4.41-2.47 8.82-1.21 4.42-.59 2.21c-.16.75-.44 1.45-.42 2.2-.08 3.04-.05 6.1-.02 9.15.04 3.05.11 6.1.25 9.15.17 3.03.29 6.12.95 9.04.84 2.9 2.1 5.69 3.34 8.47 1.26 2.77 2.59 5.52 3.96 8.24l.28.56-.62-.08-9.38-1.19-.21-.03-.08-.19c-.43-1.07-.73-2.14-1.04-3.21l-.87-3.22c-.56-2.15-1.09-4.31-1.61-6.47l.78-.06c-.12 2.02.05 4.08.28 6.12.24 2.04.57 4.08.96 6.1l.13.65-.64-.15c-1.53-.35-3.04-.75-4.53-1.23-1.48-.47-3.01-1.01-4.37-1.86-1.35-.82-2.62-1.73-3.88-2.65-1.26-.92-2.5-1.86-3.73-2.82l-.19-.15.01-.25.5-12.85.96.19-3.3 8.85-1.18 3.17.23-3.38c.3-4.52.78-9 1.39-13.48.64-4.47 1.4-8.93 2.56-13.32.56-2.21 1.35-4.35 2.17-6.45.82-2.11 1.72-4.18 2.62-6.25 1.82-4.13 3.74-8.21 5.73-12.26l.67.61a25.53 25.53 0 0 0-3.88 2.99 26.763 26.763 0 0 0-3.27 3.64L44.2 64l1.75-3.96c2.3-5.21 5.96-9.65 9.95-13.59 2-1.98 4.12-3.82 6.24-5.64.52-.46 1.06-.91 1.57-1.37.26-.23.51-.46.74-.7.22-.22.54-.54.82-.74 1.16-.88 2.39-1.57 3.62-2.25 4.95-2.66 10.05-4.97 15.27-7.03 1.32-.5 2.61-1.01 4.05-1.34.79-.16 1.53-.05 2.24.05.71.11 1.4.27 2.09.44 2.74.71 5.38 1.63 8.01 2.64h-.31c1.98-.75 3.98-1.34 6.06-1.75 1.04-.19 2.09-.34 3.16-.36.27-.01.54-.01.81.01.26 0 .54.03.83.09.54.12 1.05.28 1.55.46 3.93 1.52 7.59 3.5 11.24 5.5 3.64 2.03 7.21 4.16 10.7 6.45 1.74 1.15 3.45 2.34 5.11 3.61.82.65 1.64 1.3 2.4 2.04.38.37.74.76 1.08 1.18.32.42.62.84.92 1.27 2.36 3.45 4.48 7.03 6.53 10.65 2.04 3.63 3.99 7.31 5.74 11.09.87 1.89 1.7 3.81 2.33 5.81.33 1 .52 2.04.71 3.06.18 1.03.35 2.06.49 3.09.58 4.12.98 8.27 1.28 12.42l.11 1.52-.48-1.44-3.42-10.23.33-.07c.25 3.53.38 7.05.5 10.58l.33 10.59v.07l-.04.05c-1.29 1.47-2.74 2.79-4.26 4a46.696 46.696 0 0 1-4.79 3.35l-.33.2.03-.39 1.18-13.37.46.05c-.17 1.31-.45 2.58-.74 3.85-.3 1.27-.61 2.53-.94 3.79-.66 2.52-1.37 5.02-2.11 7.51l-.04.12-.11.05c-2.38 1.02-4.82 1.84-7.3 2.56-2.48.71-4.98 1.33-7.51 1.83l-.65.13.34-.59c.73-1.29 1.23-2.81 1.73-4.27.49-1.48.93-2.98 1.36-4.47.85-3 1.65-6.03 2.39-9.06l-.01.07c.23-6.81.35-13.64.22-20.45-.07-3.41-.22-6.8-.62-10.18-.2-1.68-.46-3.36-.8-5.01-.36-1.63-.78-3.33-1.44-4.78l.8-.3c.44 1.9.56 3.81.6 5.72.03 1.91-.04 3.8-.21 5.71l-.03.34-.31.05c-1.16.17-2.18.15-3.25.19l-3.18.02-6.35-.06h-.43l.02-.43c.08-1.85.1-3.71.04-5.57-.07-1.85-.19-3.71-.58-5.49-.41-1.8-.94-3.59-1.48-5.37-.55-1.78-1.13-3.55-1.73-5.31l.71-.17c.36 3.19.48 6.39.5 9.59v.04l-1.59 11.63-.03.23-.2.04c-2.07.4-4.05.51-6.07.69l-6.04.44c-4.03.27-8.06.51-12.09.73h-.04l-28-2.86-.17-.02.01-.16c.22-3.76.77-7.47 1.37-11.17.3-1.85.63-3.7.97-5.54l.53-2.76.27-1.38.14-.69.07-.34.04-.17c.01-.05.05-.06.08-.12z" fill="#000000" stroke-width="none" opacity="1" stroke="none"></path></g><g id="svga-group-glasses-single-move" transform="matrix(1,0,0,1,0,-2)"><g id="svga-group-glasses-single" transform="matrix(1.1500005000000004,0,0,1.1500005000000004,-14.985051895502139,-14.30337485671238)"></g></g></g></g></g><rect id="svga-credit-rect" width="200" height="15" x="0" y="185" fill="#ecf0f1" opacity="0.5" style="display: none;"></rect><text id="svga-credit-text" font-family="Avenir Next, Roboto, Helvetica, Arial, sans-serif" font-size="10px" text-anchor="start" font-weight="400" size="10px" anchor="start" weight="400" fill="#333333" x="33.40447998046875" y="182.60824704170227" style="display: none;"><tspan id="SvgjsTspan40538" dy="13" x="33.40447998046875">Created on AvatarMaker.com</tspan></text></g><defs id="SvgjsDefs40490"><linearGradient id="SvgjsLinearGradient40773" x1="79.8826" y1="80.3169" x2="79.8826" y2="107.6923" gradientUnits="userSpaceOnUse" class="svga-on-canvas-glasses-gradient-single-0-null"><stop id="SvgjsStop40774" stop-opacity="1" stop-color="#9ab4d3" offset="0" ></stop><stop id="SvgjsStop40775" stop-opacity="0.7593" stop-color="#93aed1" offset="0.2407" ></stop><stop id="SvgjsStop40776" stop-opacity="0.4009" stop-color="#7e9ecc" offset="0.5991" ></stop><stop id="SvgjsStop40777" stop-opacity="0" stop-color="#6086c4" offset="1" ></stop></linearGradient><linearGradient id="SvgjsLinearGradient40779" x1="-20.852" y1="80.3169" x2="-20.852" y2="107.6923" gradientTransform="matrix(-1 0 0 1 100 0)" gradientUnits="userSpaceOnUse" class="svga-on-canvas-glasses-gradient-single-1-null"><stop id="SvgjsStop40780" stop-opacity="1" stop-color="#9ab4d3" offset="0" ></stop><stop id="SvgjsStop40781" stop-opacity="0.7593" stop-color="#93aed1" offset="0.2407" ></stop><stop id="SvgjsStop40782" stop-opacity="0.4009" stop-color="#7e9ecc" offset="0.5991" ></stop><stop id="SvgjsStop40783" stop-opacity="0" stop-color="#6086c4" offset="1" ></stop></linearGradient><linearGradient id="SvgjsLinearGradient41736" x1="79.157" y1="118.6424" x2="79.157" y2="100.1003" gradientTransform="matrix(1 0 0 -1 0 202)" gradientUnits="userSpaceOnUse" class="svga-on-canvas-glasses-gradient-single-0-null"><stop id="SvgjsStop41737" stop-opacity="1" stop-color="#bfeaf2" offset="0" ></stop><stop id="SvgjsStop41738" stop-opacity="0.649" stop-color="#a1cae3" offset="0.351" ></stop><stop id="SvgjsStop41739" stop-opacity="0" stop-color="#6086c4" offset="1" ></stop></linearGradient><linearGradient id="SvgjsLinearGradient41741" x1="-1736.868" y1="118.4745" x2="-1736.868" y2="100.2229" gradientTransform="matrix(-1 0 0 -1 -1618 202)" gradientUnits="userSpaceOnUse" class="svga-on-canvas-glasses-gradient-single-1-null"><stop id="SvgjsStop41742" stop-opacity="1" stop-color="#bfeaf2" offset="0" ></stop><stop id="SvgjsStop41743" stop-opacity="0.649" stop-color="#a1cae3" offset="0.351" ></stop><stop id="SvgjsStop41744" stop-opacity="0" stop-color="#6086c4" offset="1" ></stop></linearGradient><linearGradient id="SvgjsLinearGradient42119" x1="100.0291" y1="78.4287" x2="100.0291" y2="116.3678" gradientUnits="userSpaceOnUse" class="svga-on-canvas-nose-gradient-single-0-null"><stop id="SvgjsStop42120" stop-opacity="0" stop-color="#fff4f3" offset="0" ></stop><stop id="SvgjsStop42121" stop-opacity="0.9727" stop-color="#f3d4cf" offset="0.7584" ></stop><stop id="SvgjsStop42122" stop-opacity="0.9769" stop-color="#ebc3bd" offset="0.7953" ></stop><stop id="SvgjsStop42123" stop-opacity="0.9852" stop-color="#e4b3ab" offset="0.8691" ></stop><stop id="SvgjsStop42124" stop-opacity="0.9968" stop-color="#d4958a" offset="0.972" ></stop><stop id="SvgjsStop42125" stop-opacity="1" stop-color="#c5796d" offset="1" ></stop></linearGradient><linearGradient id="SvgjsLinearGradient42149" x1="99.7789" y1="100.5259" x2="99.7789" y2="111.7225" gradientUnits="userSpaceOnUse" class="svga-on-canvas-nose-gradient-single-0-null"><stop id="SvgjsStop42150" stop-opacity="0" stop-color="#f3d4cf" offset="0" ></stop><stop id="SvgjsStop42151" stop-opacity="1" stop-color="#ebc3bd" offset="1" ></stop></linearGradient><linearGradient id="SvgjsLinearGradient42183" x1="99.7789" y1="100.5259" x2="99.7789" y2="111.7225" gradientUnits="userSpaceOnUse" class="svga-on-canvas-nose-gradient-single-0-null"><stop id="SvgjsStop42184" stop-opacity="0" stop-color="#f3d4cf" offset="0" ></stop><stop id="SvgjsStop42185" stop-opacity="1" stop-color="#ebc3bd" offset="1" ></stop></linearGradient><linearGradient id="SvgjsLinearGradient42570" x1="78.37" y1="78.14" x2="78.37" y2="111.1" gradientUnits="userSpaceOnUse" class="svga-on-canvas-glasses-gradient-single-0-null"><stop id="SvgjsStop42571" stop-opacity="1" stop-color="#211810" offset="0" ></stop><stop id="SvgjsStop42572" stop-opacity="0.5248" stop-color="#231910" offset="0.4752" ></stop><stop id="SvgjsStop42573" stop-opacity="0.3536" stop-color="#2a1d12" offset="0.6464" ></stop><stop id="SvgjsStop42574" stop-opacity="0.2315" stop-color="#352315" offset="0.7685" ></stop><stop id="SvgjsStop42575" stop-opacity="0.1329" stop-color="#462d18" offset="0.8671" ></stop><stop id="SvgjsStop42576" stop-opacity="4.940000e-02" stop-color="#5c391d" offset="0.9506" ></stop><stop id="SvgjsStop42577" stop-opacity="0" stop-color="#6d4221" offset="1" ></stop></linearGradient><linearGradient id="SvgjsLinearGradient42579" x1="121.88" y1="78.14" x2="121.88" y2="111.1" gradientUnits="userSpaceOnUse" class="svga-on-canvas-glasses-gradient-single-1-null"><stop id="SvgjsStop42580" stop-opacity="1" stop-color="#211810" offset="0" ></stop><stop id="SvgjsStop42581" stop-opacity="0.5248" stop-color="#231910" offset="0.4752" ></stop><stop id="SvgjsStop42582" stop-opacity="0.3536" stop-color="#2a1d12" offset="0.6464" ></stop><stop id="SvgjsStop42583" stop-opacity="0.2315" stop-color="#352315" offset="0.7685" ></stop><stop id="SvgjsStop42584" stop-opacity="0.1329" stop-color="#462d18" offset="0.8671" ></stop><stop id="SvgjsStop42585" stop-opacity="4.940000e-02" stop-color="#5c391d" offset="0.9506" ></stop><stop id="SvgjsStop42586" stop-opacity="0" stop-color="#6d4221" offset="1" ></stop></linearGradient><linearGradient id="SvgjsLinearGradient42652" x1="77.9026" y1="122.6494" x2="77.9026" y2="94.7406" gradientTransform="matrix(1 0 0 -1 0 202)" gradientUnits="userSpaceOnUse" class="svga-on-canvas-glasses-gradient-single-0-null"><stop id="SvgjsStop42653" stop-opacity="1" stop-color="#211810" offset="0" ></stop><stop id="SvgjsStop42654" stop-opacity="0.7372" stop-color="#231b13" offset="0.2628" ></stop><stop id="SvgjsStop42655" stop-opacity="0.5527" stop-color="#2b231c" offset="0.4473" ></stop><stop id="SvgjsStop42656" stop-opacity="0.3921" stop-color="#38312c" offset="0.6079" ></stop><stop id="SvgjsStop42657" stop-opacity="0.2453" stop-color="#4b4641" offset="0.7547" ></stop><stop id="SvgjsStop42658" stop-opacity="0.1091" stop-color="#62605e" offset="0.8909" ></stop><stop id="SvgjsStop42659" stop-opacity="0" stop-color="#7a7a7a" offset="1" ></stop></linearGradient><linearGradient id="SvgjsLinearGradient42661" x1="-1740.4807" y1="122.8294" x2="-1740.4807" y2="94.7364" gradientTransform="matrix(-1 0 0 -1 -1618 202)" gradientUnits="userSpaceOnUse" class="svga-on-canvas-glasses-gradient-single-1-null"><stop id="SvgjsStop42662" stop-opacity="1" stop-color="#211810" offset="0" ></stop><stop id="SvgjsStop42663" stop-opacity="0.7372" stop-color="#231b13" offset="0.2628" ></stop><stop id="SvgjsStop42664" stop-opacity="0.5527" stop-color="#2b231c" offset="0.4473" ></stop><stop id="SvgjsStop42665" stop-opacity="0.3921" stop-color="#38312c" offset="0.6079" ></stop><stop id="SvgjsStop42666" stop-opacity="0.2453" stop-color="#4b4641" offset="0.7547" ></stop><stop id="SvgjsStop42667" stop-opacity="0.1091" stop-color="#62605e" offset="0.8909" ></stop><stop id="SvgjsStop42668" stop-opacity="0" stop-color="#7a7a7a" offset="1" ></stop></linearGradient><linearGradient id="SvgjsLinearGradient43087" x1="76.749" y1="123.1046" x2="76.749" y2="96.0963" gradientTransform="matrix(1 0 0 -1 0 202)" gradientUnits="userSpaceOnUse" class="svga-on-canvas-glasses-gradient-single-0-null"><stop id="SvgjsStop43088" stop-opacity="1" stop-color="#899ba1" offset="0" ></stop><stop id="SvgjsStop43089" stop-opacity="0.6554" stop-color="#7490b3" offset="0.3446" ></stop><stop id="SvgjsStop43090" stop-opacity="0.2966" stop-color="#6589c0" offset="0.7034" ></stop><stop id="SvgjsStop43091" stop-opacity="0" stop-color="#6086c4" offset="1" ></stop></linearGradient><linearGradient id="SvgjsLinearGradient43093" x1="-1740.6141" y1="122.2748" x2="-1740.6141" y2="96.09" gradientTransform="matrix(-1 0 0 -1 -1618 202)" gradientUnits="userSpaceOnUse" class="svga-on-canvas-glasses-gradient-single-1-null"><stop id="SvgjsStop43094" stop-opacity="1" stop-color="#899ba1" offset="0" ></stop><stop id="SvgjsStop43095" stop-opacity="0.6554" stop-color="#7490b3" offset="0.3446" ></stop><stop id="SvgjsStop43096" stop-opacity="0.2966" stop-color="#6589c0" offset="0.7034" ></stop><stop id="SvgjsStop43097" stop-opacity="0" stop-color="#6086c4" offset="1" ></stop></linearGradient><linearGradient id="SvgjsLinearGradient43151" x1="79.157" y1="118.6424" x2="79.157" y2="100.1003" gradientTransform="matrix(1 0 0 -1 0 202)" gradientUnits="userSpaceOnUse" class="svga-on-canvas-glasses-gradient-single-0-null"><stop id="SvgjsStop43152" stop-opacity="1" stop-color="#bfeaf2" offset="0" ></stop><stop id="SvgjsStop43153" stop-opacity="0.649" stop-color="#a1cae3" offset="0.351" ></stop><stop id="SvgjsStop43154" stop-opacity="0" stop-color="#6086c4" offset="1" ></stop></linearGradient><linearGradient id="SvgjsLinearGradient43156" x1="-1736.868" y1="118.4745" x2="-1736.868" y2="100.2229" gradientTransform="matrix(-1 0 0 -1 -1618 202)" gradientUnits="userSpaceOnUse" class="svga-on-canvas-glasses-gradient-single-1-null"><stop id="SvgjsStop43157" stop-opacity="1" stop-color="#bfeaf2" offset="0" ></stop><stop id="SvgjsStop43158" stop-opacity="0.649" stop-color="#a1cae3" offset="0.351" ></stop><stop id="SvgjsStop43159" stop-opacity="0" stop-color="#6086c4" offset="1" ></stop></linearGradient><linearGradient id="SvgjsLinearGradient43208" x1="79.8826" y1="80.3169" x2="79.8826" y2="107.6923" gradientUnits="userSpaceOnUse" class="svga-on-canvas-glasses-gradient-single-0-null"><stop id="SvgjsStop43209" stop-opacity="1" stop-color="#9ab4d3" offset="0" ></stop><stop id="SvgjsStop43210" stop-opacity="0.7593" stop-color="#93aed1" offset="0.2407" ></stop><stop id="SvgjsStop43211" stop-opacity="0.4009" stop-color="#7e9ecc" offset="0.5991" ></stop><stop id="SvgjsStop43212" stop-opacity="0" stop-color="#6086c4" offset="1" ></stop></linearGradient><linearGradient id="SvgjsLinearGradient43214" x1="-20.852" y1="80.3169" x2="-20.852" y2="107.6923" gradientTransform="matrix(-1 0 0 1 100 0)" gradientUnits="userSpaceOnUse" class="svga-on-canvas-glasses-gradient-single-1-null"><stop id="SvgjsStop43215" stop-opacity="1" stop-color="#9ab4d3" offset="0" ></stop><stop id="SvgjsStop43216" stop-opacity="0.7593" stop-color="#93aed1" offset="0.2407" ></stop><stop id="SvgjsStop43217" stop-opacity="0.4009" stop-color="#7e9ecc" offset="0.5991" ></stop><stop id="SvgjsStop43218" stop-opacity="0" stop-color="#6086c4" offset="1" ></stop></linearGradient><linearGradient id="SvgjsLinearGradient43272" x1="79.157" y1="118.6424" x2="79.157" y2="100.1003" gradientTransform="matrix(1 0 0 -1 0 202)" gradientUnits="userSpaceOnUse" class="svga-on-canvas-glasses-gradient-single-0-null"><stop id="SvgjsStop43273" stop-opacity="1" stop-color="#bfeaf2" offset="0" ></stop><stop id="SvgjsStop43274" stop-opacity="0.649" stop-color="#a1cae3" offset="0.351" ></stop><stop id="SvgjsStop43275" stop-opacity="0" stop-color="#6086c4" offset="1" ></stop></linearGradient><linearGradient id="SvgjsLinearGradient43277" x1="-1736.868" y1="118.4745" x2="-1736.868" y2="100.2229" gradientTransform="matrix(-1 0 0 -1 -1618 202)" gradientUnits="userSpaceOnUse" class="svga-on-canvas-glasses-gradient-single-1-null"><stop id="SvgjsStop43278" stop-opacity="1" stop-color="#bfeaf2" offset="0" ></stop><stop id="SvgjsStop43279" stop-opacity="0.649" stop-color="#a1cae3" offset="0.351" ></stop><stop id="SvgjsStop43280" stop-opacity="0" stop-color="#6086c4" offset="1" ></stop></linearGradient></defs></svg>