<svg xmlns="http://www.w3.org/2000/svg" version="1.1" width="600px" height="600px" viewBox="0 0 200 200" style="overflow:hidden!important;"><g id="svga-group-wrapper"><g id="svga-group-backs-single"><path id="SvgjsPath44370" d="M0 0h200v200H0V0z" fill="#ecf0f1" stroke-width="none" opacity="1"></path></g><g id="svga-group-humanwrap-move" transform="matrix(1,0,0,1,0,0)"><g id="svga-group-humanwrap"><g id="svga-group-hair-back-move" transform="matrix(1,-1.3877787807814457e-16,1.3877787807814457e-16,1,-1.4210854715202004e-14,0)"><g id="svga-group-hair-back"><path id="SvgjsPath44845" d="M145.2 113.8c3.9-1.4 4.8-8.7-.5-10.6-14.9-5.5-32.1-3.3-47.6-3.1-8.5.1-17 .3-25.5.4-4.2.1-8.5.1-12.7.2-2.8 0-5.6-.1-8 1.6-3.8 2.8-3 6.4-.6 9.1 0 .1 0 .2.1.3 1.7 4.9 1.7 9.8 2.2 14.9.4 4.3 1.2 8.1 5.7 9.5 1.2.4 2.4.7 3.7 1-.1.1-.1.3-.2.4-.3.5-.5 1.1-.4 1.8.2 3 2.8 5.2 5.7 4.4 2.4 1.7 5.8 2 8.4.4.8-.5 1.3-1 1.8-1.6h.3c.1.9.3 1.7.8 2.4.1.1.1.3.2.4.8 1.2 2 1.8 3.3 1.8 1.3.1 2.7-.3 3.7-1.1.9 1.8 3 3.1 5.4 2.8.4-.1.8-.1 1.1-.3 2.1.2 4.2-.8 5.8-2.3.4-.1.7-.3 1.1-.5.1.1.1.2.2.3 1 1.2 2.7 2.2 4.3 2.3 2.3.1 4-1.1 5-2.8.1-.1.3-.2.4-.3.3.6.8 1 1.3 1.4.9 1.6 2.8 2.6 4.7 2.1 2.3-.6 4.6-1.9 5.7-3.9 1.5.8 3.6.7 4.8-.6l.3-.3c1.3.4 2.5.3 3.5-.1.3.3.6.5 1 .7 2.8 1.6 6.5.1 7.2-3.1 0-.1 0-.2.1-.4 2-.1 4-1.5 4.2-4.6.1-.9-.1-1.8-.3-2.5 1.9-2.3 3.3-5 4.2-7.4 1.5-3.9 1.9-8.8-.5-12.2 0-.1 0-.3.1-.5z" fill="#221b23" stroke-width="none" opacity="1" stroke="none"></path><path id="SvgjsPath44846" d="m82.4 113.3-.1-.2c-1 .3-2 1-2.7 1.9-.7.9-1.2 2-1.5 3.1-.2 1.1-.2 2.3.2 3.5.4 1.2 1.1 2 1.5 2.8.2.4.3.9.3 1.3-.1.4-.2.9-.5 1.3-.6.8-1.4 1.6-1.8 2.7-.4 1.1-.5 2.3-.2 3.5.2.7.5 1.4 1 2-.7.4-1.3 1-1.8 1.8-.4.6-.6 1.5-.4 2.3.1.7.4 1.2.5 1.6.1.3.1.8 0 1.2-.1.5-.3 1-.4 1.6-.1.6 0 1.3.2 1.9.2.6.8 1.1 1.4 1.1v-.2c-.5-.2-.7-.7-.7-1.1 0-.5.1-.9.2-1.4.2-.5.5-.9.7-1.5.2-.6.4-1.2.4-2-.1-.7-.3-1.3-.3-1.6 0-.3.1-.6.2-.9.4-.6 1.2-1.2 2.1-1.8l1.4-.9-1.3-.8c-.7-.4-1.2-1.1-1.6-2-.3-.8-.5-1.8-.4-2.7.1-.9.7-1.8 1.3-2.7.3-.5.6-1 .7-1.6.1-.6.1-1.2 0-1.7-.2-1.1-.7-2.1-.8-3-.1-.9-.2-1.8-.1-2.7.2-1.5 1.1-3.3 2.5-4.8zm51.7 26.1c-.2-.2-.5-.4-.8-.5 1.2-1.3 1.8-3.1 1.4-4.9-.2-1.2-.9-2.2-1.8-3-.2-.2-.5-.4-.8-.6 1-.9 1.6-2.2 1.6-3.5 0-1.8-1-3.4-2.4-4.3 1.2-1.6 1.7-3.7 1.1-5.6-.6-2.1-2.4-3.7-4.4-4.3.7-.8 1.3-1.6 1.9-2.4.7-1 1.2-2.2 1.4-3.5.1-1.4-.5-2.7-1.4-3.7-.5-.5-1.1-.9-1.8-1.1.4-.7.8-1.4 1.1-2.2.5-1.5.6-3.1.3-4.6-.3-1.5-1-2.9-2-4.1-1-1.1-2.2-2-3.6-2.5l-.1.2c1.2.8 2.2 1.8 2.9 2.9.7 1.1 1.2 2.4 1.3 3.7.2 1.3 0 2.6-.5 3.8-.4 1.2-1.1 2.3-2 3.2l1.1 1.4c.6-.4 1.5-.2 2.3.3.8.6 1.4 1.6 1.4 2.6.1 1.1-.3 2.2-.9 3.2-.6 1-1.3 1.9-2.1 2.8l-.4.4.6.1c2 .4 3.6 2.2 3.9 4.1.3 1.9-.6 3.9-2.1 4.9l-1.4 1 1.7.5c1.3.4 2.2 1.8 2.1 3.1-.1 1.3-1.2 2.5-2.4 2.8l-6.3 1.3c-.3-.5-.7-.9-1.2-1.2-.4-.3-.8-.5-1.2-.6 1-1.7 1.1-3.8.2-5.4-.6-1.1-1.5-1.9-2.5-2.5-.7-.3-1.4-.6-2.2-.6.8-.5 1.6-1.1 2.3-1.8 1-.9 1.8-2.2 2.2-3.6.2-.7.2-1.5.1-2.3-.2-.8-.5-1.6-1.1-2.1-.6-.6-1.3-1-2.1-1.2h-.2c.6-.9.9-2 1-3 .1-1.8-.4-3.6-1.6-4.8l-.2.1c.7 1.4.9 3 .5 4.5-.3 1.4-1.1 2.7-2.3 3.5l-6.7 4.6 7.6-3.1c.8-.3 1.9 0 2.7.7.7.7 1.1 1.8 1 2.9-.1 1.2-.6 2.3-1.4 3.3-.8 1-1.9 1.7-3 2.4l-1.3.8 1.5-.2c1-.1 2 .2 2.8.7.8.6 1.5 1.3 1.8 2.2.6 1.8-.1 3.8-1.4 4.9l-2.2 1.7h2.8c.6 0 1.2.2 1.7.6.5.4.8 1 1 1.5.3 1.1-.4 2.6-1.4 3.1l.7 1.9c.7-.2 1.5-.1 2.2.3.7.4 1.3 1.1 1.4 1.9.3 1.6-1.2 3.7-3.3 3.8v.2c1.1.3 2.3-.1 3.2-.9.9-.7 1.6-1.9 1.5-3.2 0-1.3-.8-2.5-1.8-3.3-.3-.2-.7-.5-1.1-.6.7-1.1 1-2.4.7-3.7-.1-.5-.3-.9-.6-1.3l6.3.7c.7.1 1.4.4 2 .9s1 1.2 1.2 1.9c.4 1.4-.3 3.3-1.6 4.2l-3.2 2.1 3.6-.7c.5-.1 1.1 0 1.6.4.5.3.9.8 1 1.4.1.6 0 1.3-.3 1.8-.4.6-.9 1-1.6 1.2v.2c.8 0 1.5-.4 2.1-1.1.5-.6.9-1.4.8-2.3.3-1-.2-1.8-.9-2.4zM87.6 78.5c-1.8.4-3.4 1.4-4.6 2.9-1.2 1.5-1.6 3.5-1.5 5.3.1 1.2.4 2.4 1 3.5-1.2 0-2.3.1-3.5.4-1.8.5-3.5 1.5-4.7 2.9-1.2 1.5-1.7 3.4-1.6 5.2.1.9.3 1.8.7 2.6.2.3.4.7.7 1-1.3-.3-2.7-.2-4.1.1-.2 0-.3.1-.4.2.1-.5.2-1 .3-1.4.4-1.5 1.2-3 2.6-4l-.1-.2c-1.7.5-3.1 2.1-3.8 3.7-.4.9-.6 1.8-.8 2.7-1 .6-1.8 1.3-2.5 2.2-1.2 1.6-1.6 3.7-1.4 5.6.1 1.3.6 2.7 1.3 3.8-.7.2-1.4.5-2 .9-1.1.8-2 2-2.2 3.5s.2 2.9 1 4c.4.5.8 1 1.4 1.4-1.5 1.2-2.5 3-2.6 4.9-.2 2.3.8 4.5 2.4 6-.5.4-.9.8-1.2 1.3-.5.8-.7 1.7-.8 2.6 0 .9.2 1.8.5 2.6.4.8 1 1.5 1.8 1.8l.1-.2c-1.4-.9-1.8-2.7-1.6-4.1.1-.8.4-1.5.8-2.1.4-.6 1-1 1.7-1.2l1.3-.4-1.1-.9c-1.6-1.2-2.5-3.4-2.2-5.3.3-1.9 1.7-3.7 3.5-4.3l2.4-.9c0 .3-.1.6-.2.9-.3.7-.8 1.3-1.4 2.2-.6 1-.8 2.1-.7 3.2.2 1.6 1 3.2 2.3 4.2-1.1 1-1.7 2.4-1.7 3.8 0 1 .3 1.9.8 2.7.5.8 1.3 1.4 2.1 1.7l.1-.2c-1.3-1-1.9-2.7-1.7-4.2s1.3-2.6 2.6-3l2.4-.8-2.4-1.1c-1.3-.6-2.2-2-2.4-3.4-.1-.7 0-1.4.3-2.1.3-.7 1-1.5 1.3-2.6.2-.6.2-1.2.2-1.7-.1-.6-.3-1.1-.5-1.5-.4-.9-1-1.7-1.5-2.4-.4-.7-.7-1.6-.7-2.4 0-.5.2-1 .5-1.3l1.8.2-.8-.7v-.2c-.1-1.7.1-3.4.2-5.1.1-1.7.1-3.4.1-5.1 0-.8 0-1.6.1-2.4.3-.1.5-.2.8-.3 1.6-.6 3.5-.6 5 .1l.3-.6c-1.4-.8-2.2-2.5-2.2-4.1-.1-1.6.6-3.3 1.7-4.4 1.1-1.1 2.7-1.8 4.2-2.1 1.6-.3 3.2-.3 4.8 0l2.7.4-1.9-2c-2.1-2.1-2.5-5.9-.8-8.5.8-1.3 2.2-2.3 3.7-2.8 1.5-.6 3.2-.6 4.9-.1l.1-.2c-1.2-.4-3.1-.6-4.9-.2zm-20.1 42.7c.5 1.1 1 2.2 1.2 3.2l-2.6-.6c-.8-.2-1.6-.7-2.1-1.5-.5-.7-.8-1.7-.7-2.5.1-.8.6-1.7 1.3-2.2s1.6-.9 2.5-.8h.4c-.3.4-.4.9-.5 1.3-.1 1.2.1 2.2.5 3.1zm.6-10c.2 1.6.4 3.2.5 4.8l-.8-.7c-1.2-1-1.9-2.5-2.2-4.1-.2-1.6 0-3.3.8-4.7.3-.6.8-1.1 1.3-1.6 0 .4 0 .8-.1 1.2.1 1.7.3 3.4.5 5.1z" fill="#1b141c" stroke-width="none" opacity="1" stroke="none"></path></g></g><g id="svga-group-humanbody-back"><path id="SvgjsPath44444" d="M77.8 105.9s4.8 37.7 10 55.8c0 0-6.4 8.8-14.5 11.9-28.7 11.2-35 11.2-39.6 15.2-2.4 2.1.2 11.1 1.8 17.2 1.3 5 1.7 13.2 1.7 13.2h132.2s1.6-33-.6-39.8-7.1-2.9-21.9-4.5c-14.8-1.6-28.7-10.3-31-13.2l.3-60-38.4 4.2z" fill="#f3d4cf" stroke-width="none" opacity="1"></path></g><g id="svga-group-chinshadow-single"><path id="SvgjsPath44440" d="m116 144 .2-42.4-38.4 4.2s2.7 21.2 6.3 39.5c7.1 1.1 12.3 1.4 12.3 1.4s9-.6 19.6-2.7z" fill="#d4958a" stroke-width="none" opacity="1"></path></g><g id="svga-group-humanbody-front"><path id="SvgjsPath44445" d="M72.1 183.1s14.6-.2 20.4 2.6c5.8 2.9 12.7 2.4 16.1-1s21.6-7 21.6-7-19.7 1.9-25 4.6c-5.3 2.7-22.3-2.8-33.1.8z" fill="#d4958a" stroke-width="none" opacity="1"></path><path id="SvgjsPath44446" d="M74.2 173.2c6.7-1.3 14.7-6.4 14.7-6.4l6.2 5.5c-4.3-7.9-12.7-41.1-12.7-41.1l-.7.7c1.7 10.5 3.9 21.9 6.1 29.7 0 0-6 8.2-13.6 11.6z" fill="#d4958a" stroke-width="none" opacity="1"></path><path id="SvgjsPath44447" d="M170.7 188.5c-.1-2.1-.2-4.1-.4-6.2-.1-1-.3-2.1-.6-3.2-.2-.5-.4-1-.6-1.6-.2-.5-.6-1-1-1.5s-.9-.9-1.5-1.1c-.6-.3-1.1-.4-1.7-.6-1.1-.2-2.2-.2-3.2-.2-2.1 0-4.1.1-6.1.1s-4-.1-6-.2-4-.4-6-.7c-1-.2-2-.4-2.9-.6l-1.5-.4c-.5-.1-1-.3-1.4-.4-3.8-1.1-7.6-2.6-11.2-4.4l-1.3-.7-1.3-.7c-.4-.2-.9-.5-1.3-.8s-.9-.5-1.3-.8-.8-.5-1.3-.8l-1.2-.9-.6-.5-.3-.2-.3-.2c-.2-.2-.4-.3-.5-.5l-.2-.3v-44.6l-.1-15v-.6l-.6.1c-6.4.8-12.9 1.5-19.3 2.3l-19.1 2.3v.5l.1.4.1.9.2 1.8c.1 1.2.3 2.3.4 3.5l.9 7c.6 4.7 1.3 9.4 2.1 14 .8 4.7 1.5 9.3 2.5 14 .9 4.5 1.8 9 3 13.5-1.1 1.4-2.3 2.7-3.6 4-1.3 1.3-2.8 2.6-4.3 3.8-1.5 1.1-3.1 2.2-4.8 3l-1.3.6c-.4.2-.9.3-1.3.5l-2.7 1c-7.2 2.7-14.5 5.3-21.8 7.7l-5.5 1.8c-1.8.6-3.7 1.3-5.5 2.2-.4.2-.9.5-1.3.7-.4.3-.9.5-1.3.9l-.6.5c-.2.2-.5.5-.6.8-.3.5-.4 1.1-.5 1.6-.2 1.1-.1 2.1 0 3.1s.3 2 .4 2.9c.4 1.9.8 3.8 1.3 5.7l.8 2.8c.3.9.5 1.8.7 2.8.4 1.9.7 3.8.9 5.7s.4 3.8.5 5.7v.8h133.4v-.8c.2-4.1.4-8.2.5-12.3s.2-8.2.2-12.3c0-1.8-.1-3.8-.1-5.9zm-67.4 30.3H70.2l-16.5-.1-16-.1c-.1-1.8-.2-3.5-.4-5.3-.2-1.9-.4-3.9-.8-5.8-.2-1-.4-1.9-.7-2.9l-.7-2.8c-.5-1.9-.9-3.7-1.2-5.6-.2-.9-.3-1.9-.4-2.8-.1-.9-.1-1.9 0-2.7.1-.4.2-.8.4-1.1.1-.2.2-.3.3-.4l.5-.4c.3-.3.7-.5 1.1-.8.4-.2.8-.5 1.2-.7 1.7-.8 3.5-1.4 5.3-2l5.5-1.8c7.3-2.4 14.6-5 21.8-7.8l2.7-1c.5-.2.9-.3 1.4-.5l1.4-.6c1.8-.9 3.4-2 5-3.2s3-2.5 4.4-3.9 2.7-2.9 3.8-4.5l.2-.3-.1-.3c-1.3-4.5-2.3-9.1-3.3-13.7s-1.9-9.3-2.7-13.9c-.8-4.6-1.6-9.3-2.4-14l-2.2-13.9 19.3-1.8c6.2-.6 12.3-1.2 18.5-1.8l-.2 14.4-.2 15-.3 30v.4l.2.2.6.7.6.6.3.3.3.2.6.5c.4.3.9.6 1.3.9.4.3.9.6 1.3.9.4.3.9.5 1.3.8s.9.5 1.3.8l1.4.8 1.4.7c.5.2.9.5 1.4.7l1.4.7c1 .4 1.9.8 2.9 1.2s1.9.8 2.9 1.1l1.5.5c.5.2 1 .3 1.5.4.5.1 1 .3 1.5.4l1.5.4c1 .3 2 .4 3 .6 2 .4 4.1.6 6.2.8 2.1.2 4.1.2 6.2.2 2.1 0 4.1-.1 6.1-.1s4 .1 5 1.3c.5.6.9 1.4 1.2 2.3.3.9.4 1.9.6 2.8.3 2 .4 4 .5 6s.1 4.1.2 6.1c.1 7.9-.1 15.8-.4 23.7-10.8.1-21.5.1-32.3.2h-33.1z" fill="#c5796d" stroke-width="none" opacity="1"></path><path id="SvgjsPath44448" d="M150.7 219.2 147 198l-.4 21.2z" fill="#d4958a" stroke-width="none" opacity="1"></path><path id="SvgjsPath44449" d="M47.3 203.5s2.2 11.5 2.9 15.7h3.5l-6.4-15.7z" fill="#d4958a" stroke-width="none" opacity="1"></path></g><g id="svga-group-clothes-single"><path id="SvgjsPath44868" d="M83.3 143.2c-.5.1-14.9 3.7-17.3 4.9-2.5 1.2-1.2 6.9-2.2 7.8-.9.9-12 12.7-11.3 14s6.1 4 5.8 5.5c-.3 1.5-.9 2-.9 2s-22.5 5.4-24.7 7.5c-2.1 2.1-3.5 6.9-2.1 9.8 0 0-.8 4.8.1 10s1.8 9.4 1.8 9.4l.2 5.8h140.9s-.6-15-.4-17.9 1.8-13.7.7-16.2-1.6-5.1-1.6-5.1-1.6-7.5-5.5-8.9c-4-1.3-20.1.7-23 0s-.2-.9-.2-.9 2.2-1.6 2-3.1-4.9-4.4-6-7.3 0-6.4-2.4-7.5-5.1-3.1-8-6c-2.9-2.9-12.2-4-12.2-4s0 12.2-.2 14.2.2 8-.2 11.1c-.4 3.1-14.6 15.7-15.7 16.8S88 173.6 86 170.9c-2-2.7 1.3-6 1.3-9.1S84 148.8 84 147s-.7-3.8-.7-3.8z" fill="#011c21" stroke-width="none" opacity="1" stroke="none"></path><path id="SvgjsPath44869" d="M57.6 175.2zm116.6 25.7c.4-3.1.8-6.3.9-9.5.1-1.6.2-3.2-.1-5 0-.4-.3-1.1-.4-1.3-.1-.3-.3-.7-.4-1.1-.2-.7-.5-1.4-.6-2.2-.1-.4-.2-.7-.2-1.1l-.3-1.2c-.2-.8-.5-1.6-.8-2.4-.6-1.5-1.3-3.1-2.5-4.4-.6-.7-1.3-1.3-2.2-1.7-.4-.2-.9-.3-1.3-.4-.4-.1-.8-.1-1.3-.2-1.6-.1-3.3-.1-4.9-.1-3.2.1-6.4.2-9.5.4-1.6.1-3.2.1-4.7.1h-.6a5 5 0 0 0 1.1-1.6c.2-.6.4-1.4.1-2.2-.3-.7-.7-1-1-1.4-1.4-1.4-2.8-2.6-3.9-3.9-.3-.3-.5-.7-.7-1-.2-.3-.3-.7-.4-1.1-.2-.8-.3-1.6-.4-2.6-.1-.9-.1-1.9-.5-3-.2-.5-.6-1.1-1.1-1.6-.2-.2-.5-.4-.8-.5l-.6-.3c-1.6-.8-3-1.9-4.4-3-.7-.6-1.4-1.2-2-1.8-.6-.6-1.5-1.4-2.4-1.9-1.8-1-3.6-1.5-5.5-2-1.8-.5-3.7-.8-5.6-1.1l-1.1-.1v1.1c0 4.1 0 8.1-.1 12.2 0 .5 0 1-.1 1.5l-.1.8V161.2c0 2 .1 4.1-.1 6 0 .2-.1.5-.1.7l-.1.2-.1.3c-.2.4-.4.8-.7 1.2-.6.8-1.2 1.6-1.9 2.3-1.3 1.5-2.7 3-4.2 4.4s-2.9 2.9-4.4 4.2l-2.2 2.1-1.1 1.1-.6.5c-.3-.1-.7-.4-1.1-.7l-1.2-.9c-.8-.6-1.5-1.3-2.2-2-1.5-1.4-2.9-2.8-4.3-4.3s-2.8-2.9-4.1-4.5c-.7-.8-1.4-1.5-1.6-2.3-.2-.8-.1-1.8.3-2.7.3-.9.7-1.9 1.1-2.9.3-1 .5-2.1.3-3.2-.3-2.1-.9-4-1.4-6-.5-1.7-.9-3.3-1.4-5-.1-.3-.2-.6-.2-.9l-.3-1.5c-.1-.5-.1-1-.2-1.5l-.3-1.5-.2-.7-.1-.4-.1-.2v-.2s0-.1-.1-.1c-.4.1-.6.1-.9.2l-.8.2-1.7.4-3.3.8c-2.2.6-4.4 1.1-6.7 1.7-1.1.3-2.2.6-3.3 1-.3.1-.6.2-.8.3-.3.2-.6.4-.8.6-.4.5-.7 1.1-.8 1.7-.3 1.2-.3 2.4-.4 3.5 0 .6-.1 1.1-.2 1.6 0 .1-.1.2-.1.3v.1s-.1.1-.2.1l-.6.6c-3.2 3.3-6.3 6.7-9.2 10.3-.4.5-.7.9-1 1.4-.2.2-.3.5-.5.8-.1.1-.2.3-.2.5v.5c0 .1.1.3.1.3l.1.1c.5.7 1 .9 1.4 1.3l1.4 1c.9.7 1.9 1.4 2.5 2.1.2.2.2.4.3.4v.1c0 .1-.1.2-.1.4-.1.2-.2.5-.3.7 0 .1-.1.2-.2.3v.1c-5.8 1.4-11.7 2.9-17.5 4.6-1.5.4-2.9.9-4.4 1.4l-1.1.4-1.1.5c-.4.2-.9.5-1.1.9-.3.3-.5.6-.8 1-.9 1.4-1.5 2.9-1.8 4.5-.2 1.5-.3 3.2.4 4.7-.2 1.6-.3 3.2-.3 4.8 0 1.7.2 3.3.4 5l1.9 9.5.2 5.7v.8h.8l35.2-.3c11.7-.1 23.5-.2 35.2-.2 11.7 0 23.5 0 35.2.1l35.2.3h.7v-.7l-.2-9.5-.1-4.7v-2.4c.4-.1.4-.8.5-1.6zm-68.7-19.1c1.5-1.4 3-2.8 4.4-4.2 1.5-1.4 2.9-2.9 4.3-4.4.7-.8 1.4-1.6 2-2.4.3-.4.6-.9.9-1.4l.2-.4c0-.1.1-.2.1-.3.3-.3.6-.5.9-.8.8-.7 1.7-1.3 2.6-2 1.7-1.4 3.4-3.2 4.3-5.5.4-1.1.6-2.5.3-3.7-.3-1.2-.8-2.3-1.6-3.2-1.4-1.8-3.3-3.2-5.3-4.1 1.6 1.6 3 3.2 4 5 .5.9.9 1.8 1 2.7.1.9 0 1.8-.3 2.7-.7 1.8-2 3.4-3.5 5-.7.8-1.5 1.6-2.2 2.5l-.1.1c.2-2 .1-3.9.1-5.9v-3.7l.1-.8c0-.5.1-1.1.1-1.6.1-3.7.2-7.4.2-11.1 1.4.2 2.8.5 4.2.8 1.8.4 3.5 1 5 1.8.8.4 1.2.9 1.9 1.6.7.7 1.4 1.3 2.1 1.9.2.2.5.4.7.6.4 1.1.8 2.2 1.1 3.3.4 1.6.7 3.2.6 4.7 0 .4-.1.7-.2 1.1-.1.3-.3.5-.6.9-.5.6-1.1 1.2-1.6 1.9-1.1 1.2-2.1 2.5-3.1 3.9 1.3-1.1 2.5-2.2 3.6-3.3.6-.6 1.2-1.2 1.7-1.8.3-.2.6-.7.8-1.1.2-.4.2-.9.3-1.3.1-1.8-.3-3.4-.9-5-.3-.9-.7-1.8-1.2-2.6 1.1.8 2.2 1.6 3.5 2.2.2.1.4.2.7.3.1.1.3.1.4.2.2.2.4.4.5.7.2.6.3 1.5.4 2.5.1.9.2 1.9.5 2.9.1.5.4 1 .6 1.5 0 .1.1.1.1.1v.3c0 1.2-.2 2.4-.7 3.4-.5 1-1.3 1.9-2.2 2.5-1.9 1.4-4.1 2.6-6.3 3.8l-6.5 3.6c-4.3 2.4-8.7 4.8-12.9 7.5-1.1.7-2.1 1.4-3.1 2.1l-1.5 1.2-.4.4c-.1.1-.2.3-.3.4l-.5.8c-1.2 1.9-2.3 3.9-3.4 5.8-1.4-1.1-2.8-2.2-4.3-3.1.4-.4.8-.8 1.1-1.2.7-.7 1.3-1.4 1.9-2.1.5-.6 1.1-1.3 1.6-2l.4-.3 1.1-1 2.4-2.4zm-2.4 14.5c0 .1 0 .1 0 0zm-2.7-11.7zm-36.2-28.4c.1-.1.1-.2.2-.3.1-.2.1-.4.2-.5.1-.6.1-1.2.2-1.8 0-1.1.1-2.3.3-3.3.1-.5.3-1 .6-1.4.1-.2.3-.3.5-.5.2-.1.5-.2.8-.3 1.1-.4 2.1-.8 3.2-1.1 2.2-.7 4.4-1.3 6.6-1.9l3.3-.9 1.7-.5.8-.2c.2-.1.6-.1.7-.2v.1l.1.2.1.4.2.7c.1.5.2 1 .2 1.5.1.5 0 1 .1 1.5l.3 1.5c.1.3.2.6.2.9-1.8.7-3.6 1.4-5.2 2.3-.9.5-1.8 1.1-2.5 1.9-.7.8-1.4 1.7-1.7 2.7-.3 1-.3 2.2-.1 3.2.1 1 .3 2.1.6 3.1.5 2 1.1 4 1.8 5.9l1.1 2.9c.2.5.3.9.5 1.4.2.6.6 1.1 1 1.4 1.6 1.4 3.4 2.4 5.2 3.4 1.8 1 3.7 1.9 5.5 2.7 1.8.9 3.8 1.6 5.5 2.6-3.4-2.2-7.2-3.9-10.7-6-1.7-1.1-3.5-2.1-5-3.4-.3-.3-.6-.7-.7-1.1-.2-.5-.3-1-.5-1.5l-1.1-2.9c-.7-1.9-1.4-3.8-1.8-5.8l-.6-3c-.2-1-.2-1.9 0-2.9.4-1.9 2-3.3 3.7-4.4 1.6-1 3.3-1.8 5-2.7.4 1.6.8 3.3 1.2 4.9.5 2 1 4 1.2 5.9.3 1.9-.8 3.7-1.5 5.7-.2.6-.4 1.2-.4 1.9l-.6-1.2c-.6-1.1-1.1-2.3-1.5-3.4-.4-1.1-.6-2.2-.6-3.4 0-1.2.1-2.5.2-3.8-.9 1-1.5 2.3-1.8 3.7-.3 1.4-.2 2.9.3 4.3.5 1.3 1.3 2.5 2.1 3.5.6.8 1.3 1.5 2.1 2.1.2.5.4.9.7 1.2.3.4.7.8 1 1.2 1.3 1.6 2.7 3.1 4.1 4.6 1.4 1.5 2.8 3 4.3 4.4.7.7 1.5 1.4 2.3 2.1.4.3.8.7 1.2 1 .4.3.8.6 1.5.9-.2.3-.5.6-.8.9-.6.7-1.2 1.5-1.7 2.3-.3.5-.6.9-.9 1.4l-1.5-.9c-1.1-.6-2.2-1.2-3.5-1.6-1.2-.4-2.3-.7-3.5-1.1-2.3-.7-4.7-1.4-7-2.2-2.3-.8-4.6-1.6-6.6-2.8-.5-.3-1-.6-1.3-.9-.2-.1-.3-.3-.4-.4v-.2l-.1-.5c-.4-1.3-.8-2.4-1.3-3.6-1-2.3-2-4.5-3.1-6.7-.6-1.1-1.1-2.2-1.8-3.3-.3-.6-.6-1-.8-1.6-.2-.5-.4-1.1-.5-1.7-.5-2.2-.7-4.5-1.3-6.7-.1.4 0 .4 0 .3zm-8.6 15.3-1.4-1c-.4-.3-.9-.7-1.1-.9 0-.1 0-.1.1-.2.1-.2.2-.4.4-.7.3-.5.6-.9 1-1.4 2.7-3.6 5.8-7 8.9-10.4l.3-.4c.2 2.2.2 4.4.6 6.6.1.6.2 1.2.4 1.9.2.6.5 1.3.7 1.8l1.5 3.3c1 2.2 1.9 4.5 2.8 6.8.4 1.1.8 2.3 1.1 3.4l.1.4.1.3c0 .1.1.3.2.4.2.4.5.8.8 1 .6.5 1.1.9 1.7 1.2 2.3 1.3 4.6 2.1 7 2.9 2.4.8 4.7 1.4 7.1 2.1l3.6.9c1.1.3 2.2.8 3.2 1.3 2 1 3.9 2.2 5.8 3.5-.2-.1-.5-.1-.7-.2-2.4-.6-4.8-1.1-7.2-1.5-4.8-.8-9.7-1.5-14.6-2.1-2.4-.3-4.9-.5-7.3-.8-.3 0-.6-.1-.8-.1H69.6c-.1 0-.1-.1-.2-.1-.3-.3-.7-.8-1-1.2-.6-1-1.2-2.1-1.7-3.1-.5-1.1-1.1-2.2-1.7-3.3-.7-1.2-1.5-2.1-2.3-3-1.1-1.3-2.3-2.5-3.6-3.7v-.3c-.2-.5-.4-.8-.6-1-1-1.1-1.9-1.7-2.9-2.4zm47.6 48c-11.7-.1-23.5-.1-35.2-.2l-34.5-.3-.1-5v-.2l-1.8-9.6c-.2-1.6-.4-3.1-.4-4.7s.1-3.2.3-4.7v-.3l-.1-.2c-.5-1.1-.6-2.6-.3-3.9.2-1.4.7-2.7 1.5-3.9.2-.3.4-.6.6-.8l.3-.3c.1-.1.2-.1.3-.2l1-.5 1-.4c1.4-.5 2.8-1 4.3-1.4 5.8-1.8 11.7-3.3 17.5-4.8h.2l.1-.1c.3-.2.3-.3.5-.5.1-.1.2-.3.3-.5.2-.3.3-.6.3-.9v-.2c1 1.2 1.9 2.4 2.8 3.6.3.5.7 1 1 1.5l.5.8c.1.2.3.5.4.8l1.5 3.3c.5 1.1 1 2.3 1.7 3.4.3.6.7 1.1 1.3 1.7.2.1.3.3.5.4.1.1.2.1.4.1l.3.1c.4.1.7.1 1 .2 2.5.4 4.9.5 7.4.7 4.9.3 9.8.4 14.6 1 2.4.3 4.8.8 7.2 1.4 1.2.4 2.3.8 3.3 1.4.1.1.2.1.4.2h.1l.2.1c.6.3.6-.9.5-.7 0-.1-.1-.1-.1-.1l-.1-.1-.2-.2-.7-.6c-.4-.4-.9-.8-1.3-1.1 1.4-1.8 2.8-3.5 4.1-5.3l.6-.8.2-.3.3-.3c.5-.4 1-.7 1.5-1 1-.6 2.1-1.3 3.2-1.9l13.1-7.1c2.2-1.2 4.3-2.4 6.5-3.7 2.1-1.3 4.3-2.6 6.3-4.2 1-.8 1.9-1.9 2.4-3.2.4-.9.5-1.9.5-2.8 1.2 1.4 2.6 2.6 3.7 3.8.3.3.6.6.6.8 0 0 0 .3-.1.5-.2.4-.6.9-1.1 1.3-.2.1-.4.1-.6.2-.1 0-.2.1-.4.1-.1 0-.1 0-.2.1-.1 0-.2.1-.3.1-1.2.4-2.1 1-3 1.6-3.7 2.4-7 5.2-10.5 7.6-.9.6-1.7 1.2-2.6 1.7-.4.2-.9.5-1.3.6-.5.2-1.1.3-1.6.5-2.1.8-4.1 1.6-6 2.6-2 1-3.9 2-5.7 3.2-.9.6-1.8 1.2-2.7 1.9-.8.7-1.7 1.5-2.1 2.5.6-.9 1.6-1.5 2.5-2 .9-.6 1.9-1.1 2.8-1.5 1.9-1 3.9-1.8 5.9-2.7 2-.8 4-1.6 6-2.3l1.5-.5c.6-.2 1.2-.5 1.7-.7 1-.6 1.9-1.2 2.8-1.8 3.6-2.6 6.8-5.4 10.2-7.9.6-.4 1.2-.9 1.9-1.2.1.1.1.2.2.3.1.1.2.1.2.1l.1.1c.2.1.3.1.4.2.2.1.5.1.7.2.4.1.9.2 1.4.2h1.2c1.6 0 3.2-.1 4.8-.2 3.2-.2 6.3-.4 9.5-.5 1.6 0 3.1 0 4.6.1 1.6.1 2.6.5 3.6 1.6.9 1 1.6 2.4 2.2 3.8.3.7.5 1.4.7 2.2.1.4.2.7.3 1.1l.3 1.2c.2.8.4 1.6.7 2.4.1.4.3.8.5 1.2.1.2.2.4.2.5 0 .1.1.2.1.4.2 1.4.2 3 .1 4.5-.1 3.1-.5 6.3-.8 9.4-.1.8-.1 1.6-.1 2.4v2.4l.1 4.8.4 8.8-19.9.1c.2-1.6.5-3.1.8-4.7.3-1.7.6-3.4.8-5.1.3-1.7.5-3.4.7-5.1.1-.9.2-1.7.3-2.6l.1-1.3c0-.4.1-.9.1-1.2.2-1.4 1.1-2.9 2-4.2.9-1.4 2-2.7 3.1-4 2.2-2.6 4.6-5.1 7-7.6-2.9 1.9-5.6 4.1-8.1 6.6-1.2 1.2-2.4 2.6-3.5 4-1 1.5-2.1 3-2.4 5.1l-.8 10.4c-.1 1.7-.2 3.5-.3 5.2 0 1.6-.1 3.2.1 4.8l-14.5.1c-12 .1-23.8.1-35.5.1zM47 202.6c-.3-.6-.7-1.4-1.2-2-.2-.3-.5-.6-.8-.9l-.8-.8c-1.1-.9-2.3-1.8-3.6-2.4-1.2-.7-2.6-1.2-3.9-1.7-1.3-.5-2.7-.9-4.1-1 2.5 1.2 4.9 2.6 7.2 4.1 1.1.8 2.2 1.6 3.1 2.5.2.2.5.4.7.7.2.2.4.5.6.7.2.2.3.5.5.8.2.2.3.6.4.9 1.1 2.5 1.9 5.1 2.9 7.7 1 2.6 1.9 5.2 3 7.8-.3-2.8-.9-5.5-1.5-8.2-.6-2.9-1.4-5.6-2.5-8.2z" fill="#000202" stroke-width="none" opacity="1" stroke="none"></path><path id="SvgjsPath44870" d="M110.3 203.4c0-.6-.1-1.3-.3-1.9-.3-1.2-.8-2.4-1.4-3.4-.6-1.1-1.3-2.1-2-3-.8-.9-1.6-1.8-2.5-2.6-.5-.4-.9-.8-1.5-1.1l-.6-.3c.1-.4-.1-.9-.5-1.1-.5-.3-1.1-.1-1.3.4 0 .1-.1.1-.1.2H99c-.7.1-1.3.2-2 .4-1.3.3-2.6.8-3.7 1.5-1.2.7-2.3 1.5-3.2 2.7-.9 1.1-1.4 2.7-1.4 4.1 0 2.3-.9 4.8-2.1 7.1l-.9 1.7c-.3.6-.6 1.2-.7 1.9-.1.4-.1.8.1 1.2.2.4.5.7.8.9.7.3 1.2.5 1.8.8.6.3 1.2.5 1.9.7.7.2 1.4.4 2.2.3.4-.1.9-.2 1.3-.6.4-.3.6-.8.8-1.2.3-.8.3-1.6.3-2.3-.1-2.7-.6-5.2-.8-7.7-.2-1.2-.2-2.4 0-3.5.1-.5.3-1 .6-1.5s.7-.9 1.1-1.4c.8-.9 1.8-1.7 2.8-2.5.5-.4.9-.7 1.4-1.1-.8 1.6-1.5 3.1-2.1 4.8-.4 1.1-.8 2.3-1.1 3.5-.1.6-.2 1.2-.3 1.9-.1.6 0 1.3 0 1.9.1 2.3 0 4.6-.5 6.9-.4 2.3-1.2 4.5-2.3 6.6 1.5-1.9 2.5-4.1 3.2-6.4.7-2.3 1.1-4.7 1.1-7.2 0-.6 0-1.1.1-1.7.1-.5.2-1.1.3-1.6.3-1.1.7-2.2 1.1-3.2.1-.2.2-.4.2-.6v.7c0 2.4.4 4.8.8 7 .4 2.3.9 4.5 1 6.8 0 1.1-.3 2.2-.4 3.3l-.7 3.4 1.2-3.3c.3-1.1.8-2.2.9-3.4.2-2.4-.2-4.7-.4-7s-.6-4.6-.4-6.8c.1-1.8.3-3.6.7-5.4l.9 1.5c.3.5.5 1 .6 1.5.1.5.1 1.1.1 1.6.1 2.3 0 4.6 0 7 0 2.3 0 4.6-.1 7 0 .6 0 1.2.1 1.9.1.6.1 1.3.5 2.1.2.4.8.8 1.2.9.5.1.8 0 1.1-.1.6-.1 1.1-.2 1.6-.2.3 0 .8 0 1.2-.2s.6-.6.7-.9c.2-.7.2-1.3.2-1.9v-3.6c0-1.2.1-2.3.3-3.5.1-.6.2-1.3.2-2zm-11.2-11.9-1.8.9c-1.2.6-2.3 1.3-3.3 2.2-.5.4-1 .9-1.5 1.5s-.8 1.3-1 2c-.4 1.4-.4 2.8-.3 4.2.2 2.7.8 5.2 1.1 7.7.1.6.1 1.1-.1 1.6-.1.4-.3.6-.7.7-.4.1-1 .1-1.6 0-.6-.1-1.2-.3-1.8-.4-.6-.2-1.3-.4-1.8-.6-.5-.2-.7-.6-.7-1.2.2-1.2.9-2.3 1.5-3.4 1.3-2.2 2.9-4.5 3.2-7.3.1-.6.2-1.1.3-1.6.2-.5.5-1 .8-1.5.7-.9 1.6-1.7 2.6-2.4s2.1-1.3 3.3-1.8c.6-.2 1.2-.5 1.8-.7.2-.1.5-.1.7-.2 0 .1-.1.1-.1.1l-.6.2zm10.1 20.8c-.1.6-.2 1.1-.4 1.6-.1.2-.2.4-.4.4-.1.1-.2 0-.5 0-.7-.1-1.3-.1-1.9 0h-.7c-.1-.1-.1 0-.1-.2-.1-.3-.2-.8-.2-1.4 0-.5 0-1.1.1-1.7.2-2.3.4-4.7.3-7.1-.1-2.4-.2-4.7-.6-7.1-.1-.6-.2-1.2-.4-1.8-.1-.3-.2-.5-.3-.7.4.6.8 1.1 1.2 1.8 1.2 1.9 2.3 3.9 3.1 6 .4 1.1.7 2 .6 3.2 0 1.2.1 2.4.2 3.6 0 1.1.1 2.3 0 3.4z" fill="#000000" stroke-width="none" opacity="1" stroke="none"></path><path id="SvgjsPath44871" d="M131.3 152.1c-1.2-3.3-3-2.5-4.6-4.1s-2.9-1.1-5.3-1.9c0 0 2.9 2.1 3.8 2.5s2.8 6.9 2.5 9.5c-.3 2.6-5.6 8.1-7.3 10.6-1.7 2.5-9.1 9.4-12.4 11.8-3.3 2.4-7 8.3-7 8.3s10.8-9.9 13.9-11.2c3-1.3 12.2-10.2 12.6-12.3.4-2.1 4-4.5 5.3-6.3s-.3-3.6-1.5-6.9zm34.9 29.5c1.1 1.7 3-.5 2.2-.9s-1.1-5.8-2.6-6.7-17.8.7-21.8.7-5.6 3.3-11.2 6.2c0 0 5.8-1.3 10-3s10.8-.9 15.3-.7c4.5.2 7 2.7 8.1 4.4zm4.5 19c.4-5.8.8-14.1.8-14.1s-1.4-.4-3.4.4-3.8 2.9-7.7 7.8c0 0 5-2.2 6.9-1.6 1.9.7 1.1 11 1.2 15.7.1 4.8 1.9 8.3 2.6 9.1.8.8-.8-11.5-.4-17.3zm-94.9-23.9c-1.1-1.3-7.1-16.1-7.5-19s.4-8.2.1-8.3c-3.8-1.9-4.6 7.8-.9 13.9 3.7 6.1 5.3 15.1 6.7 16.4 1.4 1.3 21.8 8.6 19.8 7.4-2-1.3-17.2-9.1-18.2-10.4zm-4.6 8.9c-.9-1.4-6.6-11.1-9-12.7-2.4-1.6-5.7-3.4-5.7-3.4 2.4 1.1 9.1 9.9 11.1 13.2s1.2 5.1 2.9 5.4c1.7.3 11.8 2.1 11.8 2.1s-10.2-3.2-11.1-4.6z" fill="#062a30" stroke-width="none" opacity="1" stroke="none"></path></g><g id="svga-group-head" transform="matrix(1,-1.3877787807814457e-16,1.3877787807814457e-16,1,-1.4210854715202004e-14,0)"><g id="svga-group-ears-left-move" transform="matrix(1,0,0,1,0,0)"><g id="svga-group-ears-left"><path id="SvgjsPath44390" d="M61.04 91.08s-5.83-5.5-11.22-8.06c0 0-2.8.42-6.02 3.31 0 0 2.24 4.78 4.24 7.15s4.83 10.33 5.06 12.61c.23 2.28-.7 6.43-.57 7.76.13 1.34 3.12 1.44 3.12 1.44s5.5-3.12 8.94-7.93c-.01-.01-1.05-8.96-3.55-16.28z" fill="#f3d4cf" stroke-width="none" opacity="1"></path><path id="SvgjsPath44391" d="M61.34 97.94c.04-.27-8.21-9.91-14.16-11.02 0 0 1.66 5.41 2.79 7.19 1.12 1.78 4.76 10.6 4.44 15.1 0 0 3.82-2.19 5.96-3.95-.01 0 .52-4.18.97-7.32z" fill="#e4b3ab" stroke-width="none" opacity="1"></path><path id="SvgjsPath44392" d="m43.59 86.1-.17.15.1.2c.63 1.26 1.3 2.48 2.02 3.69.72 1.2 1.5 2.38 2.41 3.45.85 1.07 1.48 2.33 2.06 3.59.56 1.27 1.07 2.57 1.53 3.88.44 1.32.85 2.65 1.15 4 .34 1.33.15 2.7 0 4.08-.16 1.38-.42 2.74-.52 4.18-.01.18-.01.37.01.57.04.24.13.47.27.65.29.35.66.54 1.01.68.72.27 1.42.38 2.16.43l.1.01.09-.05c1.76-1.03 3.4-2.22 4.93-3.56.77-.66 1.49-1.37 2.19-2.12.7-.74 1.33-1.54 1.94-2.36l.09-.12-.02-.14a95.27 95.27 0 0 0-1.51-8.23 92.39 92.39 0 0 0-1.04-4.05c-.39-1.33-.84-2.66-1.32-3.97-.83-.84-1.68-1.6-2.55-2.37-.87-.77-1.77-1.49-2.69-2.2-1.84-1.42-3.78-2.71-5.88-3.75l-.09-.04-.09.02c-.63.11-1.17.3-1.73.52-.55.22-1.09.48-1.6.78-.51.3-1.01.62-1.48.98-.48.33-.93.71-1.37 1.1zm.59.31c.38-.32.76-.63 1.16-.92.46-.34.94-.64 1.43-.92.5-.27 1-.53 1.52-.74.49-.2 1.01-.38 1.5-.48.99.48 1.96 1.02 2.91 1.6.97.62 1.94 1.24 2.87 1.9.94.67 1.85 1.37 2.77 2.07.91.7 1.81 1.45 2.68 2.18.39 1.33.75 2.66 1.06 4.02.32 1.35.62 2.7.87 4.07.51 2.67.94 5.37 1.25 8.06-.56.75-1.15 1.48-1.81 2.16-.68.72-1.39 1.41-2.14 2.05-1.47 1.26-3.04 2.45-4.69 3.45-.62-.04-1.27-.13-1.83-.34-.29-.11-.57-.26-.72-.45a.69.69 0 0 1-.14-.3c-.01-.14-.02-.31-.01-.47.06-1.35.28-2.75.41-4.14.11-1.38.24-2.85-.16-4.24-.35-1.36-.81-2.69-1.3-4-.48-1.31-1-2.61-1.59-3.88-.58-1.27-1.17-2.55-2.04-3.68-.86-1.08-1.57-2.28-2.24-3.49-.63-1.15-1.21-2.33-1.76-3.51z" fill="#e4b3ab" stroke-width="none" opacity="1"></path><path id="SvgjsPath44393" d="M52.51 91.07c.88.94 1.65 1.98 2.36 3.05.71 1.07 1.38 2.16 1.98 3.3.61 1.13 1.17 2.28 1.65 3.46l-.07.03c-.65-1.1-1.32-2.18-1.99-3.26-.69-1.07-1.36-2.14-2.1-3.17-.74-1.03-1.48-2.05-2.28-3.02-.67-.82-1.38-1.61-2.19-2.29l1.66 3.8a76.96 76.96 0 0 1 1.81 4.41c.56 1.49 1.02 3.02 1.38 4.59.25 1.1.46 2.22.51 3.37a7.534 7.534 0 0 0 .84-3c-.44-1.61-.88-3.21-1.27-4.84l.07-.02c.62 1.57 1.18 3.17 1.75 4.76l.01.04v.05c-.01.82-.15 1.65-.41 2.43-.12.39-.28.78-.46 1.15-.18.38-.38.72-.64 1.09l-.77 1.07.09-1.34c.1-1.51-.17-3.07-.47-4.6-.31-1.53-.74-3.05-1.21-4.56-.46-1.51-.95-3.01-1.51-4.5-.58-1.47-1.18-2.94-1.91-4.34l-.25-.48.47.3c1.12.69 2.07 1.58 2.95 2.52z" fill="#c5796d" stroke-width="none" opacity="1"></path></g></g><g id="svga-group-ears-right-move" transform="matrix(1,0,0,1,0,0)"><g id="svga-group-ears-right"><path id="SvgjsPath44394" d="M138.96 91.08s5.83-5.5 11.22-8.06c0 0 2.8.42 6.02 3.31 0 0-2.24 4.78-4.24 7.15s-4.83 10.33-5.06 12.61c-.23 2.28.7 6.43.57 7.76-.13 1.34-3.12 1.44-3.12 1.44s-5.5-3.12-8.94-7.93c.01-.01 1.05-8.96 3.55-16.28z" fill="#f3d4cf" stroke-width="none" opacity="1"></path><path id="SvgjsPath44395" d="M138.66 97.94c-.04-.27 8.21-9.91 14.16-11.02 0 0-1.66 5.41-2.79 7.19-1.12 1.78-4.76 10.6-4.44 15.1 0 0-3.82-2.19-5.96-3.95.01 0-.52-4.18-.97-7.32z" fill="#e4b3ab" stroke-width="none" opacity="1"></path><path id="SvgjsPath44396" d="M155.04 84.98c-.47-.35-.97-.67-1.48-.98-.51-.3-1.05-.56-1.6-.78-.56-.22-1.11-.41-1.73-.52l-.09-.02-.09.04c-2.1 1.04-4.05 2.33-5.88 3.75-.92.71-1.82 1.43-2.69 2.2-.87.77-1.72 1.54-2.55 2.37-.48 1.31-.93 2.64-1.32 3.97-.38 1.34-.73 2.69-1.04 4.05-.62 2.72-1.12 5.46-1.51 8.23l-.02.14.09.12c.61.82 1.24 1.62 1.94 2.36.7.74 1.42 1.45 2.19 2.12 1.53 1.34 3.16 2.53 4.93 3.56l.09.05.1-.01c.74-.05 1.45-.16 2.16-.43.35-.14.72-.33 1.01-.68.14-.18.24-.41.27-.65.02-.2.02-.39.01-.57-.09-1.44-.36-2.8-.52-4.18-.15-1.38-.34-2.75 0-4.08.3-1.35.71-2.68 1.15-4 .46-1.31.97-2.61 1.53-3.88.58-1.26 1.21-2.52 2.06-3.59.91-1.08 1.68-2.25 2.41-3.45.72-1.2 1.39-2.43 2.02-3.69l.1-.2-.17-.15c-.44-.37-.89-.75-1.37-1.1zm-.97 4.94c-.67 1.21-1.37 2.42-2.24 3.49-.87 1.13-1.47 2.41-2.04 3.68-.58 1.27-1.11 2.57-1.59 3.88-.49 1.31-.94 2.63-1.3 4-.4 1.39-.27 2.85-.16 4.24.13 1.39.35 2.79.41 4.14.01.17 0 .33-.01.47-.02.11-.06.21-.14.3-.15.19-.43.34-.72.45-.56.21-1.21.3-1.83.34-1.65-1-3.22-2.19-4.69-3.45-.75-.64-1.46-1.33-2.14-2.05-.65-.68-1.24-1.41-1.81-2.16.31-2.69.74-5.39 1.25-8.06.25-1.36.55-2.72.87-4.07.31-1.36.67-2.69 1.06-4.02.87-.73 1.77-1.48 2.68-2.18.91-.7 1.83-1.41 2.77-2.07.94-.67 1.91-1.29 2.87-1.9.95-.58 1.92-1.12 2.91-1.6.49.1 1.01.28 1.5.48.52.22 1.02.47 1.52.74.49.28.97.58 1.43.92.4.29.78.6 1.16.92-.56 1.18-1.14 2.36-1.76 3.51z" fill="#e4b3ab" stroke-width="none" opacity="1"></path><path id="SvgjsPath44397" d="M147.49 91.07c-.88.94-1.65 1.98-2.36 3.05-.71 1.07-1.38 2.16-1.98 3.3-.61 1.13-1.17 2.28-1.65 3.46l.07.03c.65-1.1 1.32-2.18 1.99-3.26.69-1.07 1.36-2.14 2.1-3.17.74-1.03 1.48-2.05 2.28-3.02.67-.82 1.38-1.61 2.19-2.29l-1.66 3.8a76.96 76.96 0 0 0-1.81 4.41c-.56 1.49-1.02 3.02-1.38 4.59-.25 1.1-.46 2.22-.51 3.37a7.534 7.534 0 0 1-.84-3c.44-1.61.88-3.21 1.27-4.84l-.07-.02c-.62 1.57-1.18 3.17-1.75 4.76l-.01.04v.05c.01.82.15 1.65.41 2.43.12.39.28.78.46 1.15.18.38.38.72.64 1.09l.77 1.07-.09-1.34c-.1-1.51.17-3.07.47-4.6.31-1.53.74-3.05 1.21-4.56.46-1.51.95-3.01 1.51-4.5.58-1.47 1.18-2.94 1.91-4.34l.25-.48-.47.3c-1.12.69-2.07 1.58-2.95 2.52z" fill="#c5796d" stroke-width="none" opacity="1"></path></g></g><g id="svga-group-faceshape-wrap"><g id="svga-group-faceshape-single"><path id="SvgjsPath44426" d="M145.4 78.8s-2.4-21.2-9.5-29c-6.7-7.4-11.3-13.2-28.8-17.3-1.8-.4-12.3-.4-14.1 0-17.5 4.1-22.1 9.9-28.8 17.3-7.1 7.8-9.5 29-9.5 29-.8 35.3 2.3 49 2.3 49 14.9 9.1 43.1 10.9 43.1 10.9s28.2-1.8 43.1-10.9c-.1 0 3.1-13.7 2.2-49z" fill="#f3d4cf" stroke-width="none" opacity="1"></path><path id="SvgjsPath44427" d="M100.1 138.7s28.2-1.8 43.1-10.9c0 0 3.1-13.7 2.3-49 0 0-2.4-21.2-9.5-29-6.7-7.4-11.3-13.2-28.8-17.3-1.8-.4-12.3-.4-14.1 0-17.5 4.1-22.1 9.9-28.8 17.3-7.1 7.8-9.5 29-9.5 29-.8 35.3 2.3 49 2.3 49 14.8 9.1 43 10.9 43 10.9zm-44.4-35.4c-.2-4.1-.4-8.2-.5-12.2l-.1-6.1v-6.1c.2-1.5.4-3 .6-4.4.2-1.5.5-3 .8-4.4.6-2.9 1.4-5.8 2.3-8.7.9-2.8 2.1-5.6 3.6-8.1l.6-.9.3-.5.3-.4c.2-.3.5-.6.7-.8.2-.3.5-.5.8-.8 1-1.1 2.1-2.2 3.1-3.3 2.1-2.1 4.3-4.1 6.8-5.7 2.4-1.6 5.1-2.9 7.9-3.9 2.7-1.1 5.6-1.8 8.5-2.5l1.1-.3.5-.1.3-.1h2.3c1.5 0 3-.1 4.5-.1s3 0 4.5.1c.4 0 .7 0 1.1.1h1.2l.1-.1.5.1 1.1.3 1.1.3 1.1.3 2.1.6 2.1.7c.7.2 1.4.5 2.1.7 2.7 1 5.4 2.3 7.8 3.9 2.4 1.6 4.7 3.5 6.8 5.6 1.1 1.1 2.1 2.1 3.1 3.2l.8.8c.2.3.5.5.7.8l.3.4.3.4.6.9c1.6 2.5 2.7 5.3 3.7 8.1 1.9 5.7 3.2 11.6 3.9 17.6l.1 6.1v6.1c-.1 2-.1 4.1-.2 6.1s-.2 4.1-.3 6.1c-.2 4.1-.6 8.2-1.1 12.2-.2 2-.5 4-.8 6.1-.2 1-.3 2-.5 3l-.3 1.5c-.1.3-.1.6-.2.9-3 1.7-6.2 2.9-9.5 4-1.7.6-3.5 1.1-5.3 1.5-1.8.5-3.6.9-5.4 1.3-3.6.8-7.2 1.4-10.9 1.9-3.6.5-7.3 1-10.9 1.2-1.8-.1-3.6-.3-5.4-.5s-3.7-.4-5.5-.7c-3.7-.5-7.3-1.1-10.9-1.9-1.8-.4-3.6-.8-5.4-1.3s-3.5-1-5.3-1.6c-3.3-1.1-6.5-2.4-9.4-4.1-.2-.7-.3-1.5-.4-2.3-.2-1-.3-2-.4-3-.3-2-.5-4-.7-6.1-.2-3.8-.5-7.8-.7-11.9z" fill="#c5796d" stroke-width="none" opacity="1"></path></g></g><g id="svga-group-mouth-single-move" transform="matrix(1,0,0,1,-1,0)"><g id="svga-group-mouth-single" transform="matrix(1.0500002000000002,0,0,1.0500002000000002,-5.0364863629059045,-6.251984617823808)"><path id="SvgjsPath44375" d="M85.15 123.95s3.36-.26 5.22-1.19c3.38-1.69 7.26-2.61 11.47-2.32 5.73.39 10.12 4.71 14.07 3.71 0 0-4.38 4.04-8.8 4.97-4.42.93-11.29.85-14.86-.7-3.57-1.57-7.1-4.47-7.1-4.47z" fill="#da7c87" stroke-width="none" opacity="1"></path><path id="SvgjsPath44376" d="M100.64 129.91c-3.15 0-6.35-.4-8.47-1.32-3.55-1.54-7.11-4.46-7.14-4.49l-.39-.32.5-.04c.03 0 3.34-.27 5.14-1.17 3.66-1.83 7.55-2.62 11.57-2.35 2.72.18 5.17 1.25 7.33 2.2 2.49 1.09 4.64 2.03 6.68 1.51l.78-.2-.59.54c-.18.17-4.47 4.09-8.89 5.02-1.85.4-4.17.62-6.52.62zm-14.97-5.81c1.01.79 3.84 2.89 6.66 4.12 3.63 1.58 10.48 1.59 14.74.69 3.41-.72 6.84-3.36 8.15-4.45-1.93.2-3.93-.67-6.2-1.66-2.13-.93-4.54-1.99-7.19-2.17-3.95-.27-7.77.51-11.36 2.3-1.47.73-3.78 1.06-4.8 1.17z" fill="#d26d79" stroke-width="none" opacity="1"></path><path id="SvgjsPath44377" d="M82.94 122.29c1.06 1.09 2.48 1.79 3.94 2.11 1.48.35 2.99.13 4.52 0 1.53-.14 3.05-.31 4.57-.47 1.53-.16 3.04-.34 4.63-.39 1.6.01 3.13.28 4.64.48.76.12 1.51.22 2.26.31.75.11 1.5.18 2.24.22.74.05 1.49.05 2.22 0 .75-.06 1.49-.17 2.23-.3.74-.13 1.48-.31 2.21-.52.73-.2 1.45-.45 2.16-.75.03-.01.06 0 .07.03.01.02 0 .05-.02.07-1.29.88-2.75 1.47-4.25 1.91-.75.23-1.52.38-2.3.51-.79.11-1.59.14-2.38.13-.79-.03-1.57-.1-2.34-.19-.77-.1-1.53-.24-2.29-.37-1.51-.28-3.01-.6-4.48-.67-1.48-.01-3.03.12-4.55.23-1.53.11-3.06.23-4.6.31-.77.03-1.53.08-2.31.08-.78.01-1.57-.09-2.32-.3-1.51-.4-2.92-1.19-3.95-2.36a.06.06 0 0 1 0-.08c.04-.01.08-.01.1.01z" fill="#cb5f6c" stroke-width="none" opacity="1"></path></g></g><g id="svga-group-eyes-left-move" transform="matrix(1,0,0,1,0,0)"><g id="svga-group-eyes-left"><g id="svga-group-eyesback-left"><path id="SvgjsPath45342" d="M80.2 77.2c7.5 0 13.5 5.8 13.5 13s-6 13-13.5 13-13.5-5.8-13.5-13 6-13 13.5-13z" fill="#ffffff" stroke-width="none" opacity="1"></path></g><g id="svga-group-eyesiriswrapper-left" transform="matrix(1,0,0,1,0,0)"><g id="svga-group-eyesiriscontrol-left" transform="matrix(1,0,0,1,0,0)"><g id="svga-group-eyesiris-left"><path id="SvgjsPath44654" d="M80.2 84.9c2.9 0 5.3 2.4 5.3 5.3s-2.4 5.3-5.3 5.3-5.3-2.4-5.3-5.3 2.4-5.3 5.3-5.3z" fill="#573916" stroke-width="none" opacity="1" stroke="none"></path><path id="SvgjsPath44655" d="M80.2 85.2c2.8 0 5 2.2 5 5s-2.2 5-5 5-5-2.2-5-5 2.2-5 5-5m0-.6c-3.1 0-5.6 2.5-5.6 5.6s2.5 5.6 5.6 5.6 5.6-2.5 5.6-5.6c0-3.1-2.5-5.6-5.6-5.6z" fill="#382003" stroke-width="none" opacity="1" stroke="none"></path><path id="SvgjsPath44656" d="M82.9 85.6c-.1.3-.3.7-.5 1s-.4.6-.7.9c.1-.3.3-.7.5-1 .2-.4.4-.7.7-.9zm.7.6-.6.9c-.2.3-.5.6-.8.8l.6-.9c.3-.3.5-.6.8-.8zm-.9 2.1c.2-.3.4-.5.7-.7.2-.2.5-.4.8-.6-.2.3-.4.5-.7.7-.2.2-.5.4-.8.6zm.3.6c.3-.2.6-.3.9-.4s.6-.2 1-.3c-.3.2-.6.3-.9.4s-.7.2-1 .3zm.3.5.9-.3c.3-.1.6-.1.9-.1l-.9.3c-.3.1-.6.1-.9.1zm.1.7c.2 0 .3-.1.5-.1h.5c.3 0 .6.1.9.2-.3.1-.6 0-.9 0-.2 0-.3 0-.5-.1-.2.1-.3.1-.5 0zm-.2.6c.3 0 .7.1 1 .1l.9.3c-.3 0-.7-.1-1-.1-.2 0-.5-.1-.9-.3zm0 .8c.2 0 .3.1.4.1s.3.1.4.2c.3.1.5.3.8.5-.3-.1-.6-.2-.8-.3-.1-.1-.3-.1-.4-.2-.1-.2-.3-.2-.4-.3zm-.5.8c.3.1.5.3.8.4.2.2.5.3.7.6-.3-.1-.5-.3-.8-.4-.3-.2-.5-.4-.7-.6zm-.9-7.1c0 .3-.1.7-.2 1s-.2.7-.4 1c0-.3.1-.7.2-1 .1-.3.2-.6.4-1zM80.5 87c-.1-.3 0-.7 0-1s.1-.7.2-1c.1.3 0 .7 0 1-.1.3-.1.7-.2 1zm-1.2-2c.1.3.2.7.3 1s.1.7.1 1c-.1-.3-.2-.7-.3-1 0-.2-.1-.3-.1-.5V85zm-1.1.4c.2.3.3.6.4.9s.2.7.3 1c-.2-.3-.3-.6-.4-.9-.2-.3-.3-.7-.3-1zm-.9.5c.3.2.5.5.7.8s.4.6.5.9c-.3-.2-.5-.5-.7-.8-.2-.2-.4-.5-.5-.9zm-1.1.9c.3.2.7.4 1 .7.3.2.6.5.9.8-.3-.2-.7-.4-1-.7-.3-.2-.6-.5-.9-.8zm-.3 1c.3.1.5.2.8.3.2.2.5.3.7.5-.3-.1-.5-.2-.8-.3-.2-.1-.5-.2-.7-.5zm-.4 1.1c.3 0 .5 0 .8.1.2.1.5.1.7.3-.3 0-.5 0-.8-.1-.3-.1-.5-.1-.7-.3zm-.3 1.2c.3-.1.6-.1.9-.1s.6 0 .9.1c-.3.1-.6.1-.9.1-.3 0-.6 0-.9-.1zm.2.9c.2-.1.5-.2.8-.2.3-.1.5-.1.8-.1-.2.1-.5.2-.8.2-.3.1-.6.1-.8.1zm0 1c.3-.2.6-.3.9-.4s.6-.2.9-.2c-.3.2-.6.3-.9.4-.2.1-.6.1-.9.2zm.5.8c.2-.2.5-.3.8-.5l.9-.3c-.2.2-.5.3-.8.5s-.6.3-.9.3zm.9 1c.1-.2.3-.4.5-.7.2-.2.4-.4.6-.5-.1.2-.3.4-.5.7-.2.2-.4.4-.6.5zm.9.8c.1-.3.2-.7.4-1s.3-.6.6-.9c-.1.3-.2.7-.4 1-.2.4-.4.7-.6.9zm1.1.4c0-.3 0-.6.1-.8.1-.3.2-.5.3-.8 0 .3 0 .6-.1.8 0 .3-.1.6-.3.8zm2.8-1.8c.2.2.3.5.3.8.1.3.2.5.2.8-.2-.2-.3-.5-.3-.8-.1-.2-.2-.5-.2-.8zm.7-.3c.2.2.4.4.5.6.2.2.3.4.4.7-.2-.2-.4-.4-.5-.6-.2-.3-.3-.5-.4-.7zm-1.5.6c.1.2.1.5.2.8v.8c-.1-.2-.1-.5-.2-.8 0-.3-.1-.6 0-.8zm-.7 0c.1.3.1.5.1.8s0 .5-.1.8c-.1-.3-.1-.5-.1-.8 0-.2 0-.5.1-.8z" fill="#382003" stroke-width="none" opacity="1" stroke="none"></path><path id="SvgjsPath44657" d="M80.2 87.2c1.7 0 3 1.3 3 3s-1.3 3-3 3-3-1.3-3-3 1.3-3 3-3z" fill="#000000" stroke-width="none" opacity="1"></path><path id="SvgjsPath44658" d="m79.5 87.8-.6-.6c-.2-.2-.5-.3-.8-.3s-.6.1-.8.3c-.2.2-.3.5-.3.8s.1.6.3.8l.6.6c.2.2.5.3.8.3s.6-.1.8-.3c.4-.6.4-1.2 0-1.6zm2.7 5.1c1 0 1-1.5 0-1.5-.9 0-.9 1.5 0 1.5z" fill="#ffffff" stroke-width="none" opacity="1"></path></g></g></g><g id="svga-group-eyesfront-left"><path id="SvgjsPath45350" d="M80.2 76.7c-7.8 0-14.1 6.1-14.1 13.6s6.3 13.6 14.1 13.6 14.1-6.1 14.1-13.6S88 76.7 80.2 76.7zm3.2 20.4c-3.9 1.7-7.2.9-9.8-.2S67 91.4 67 91.4s3.8-3.7 5.9-4.5 10-1.7 12.2 0 4.4 3.8 4.4 3.8c-.5.8-2.2 4.8-6.1 6.4z" fill="#f3d4cf" stroke-width="none" opacity="1"></path><path id="SvgjsPath45351" d="M66.8 91.3s4.8-3.6 6-4.3 7.7-1.2 10.7-.4c4.3 1.2 7.1 5.6 7.1 5.6s0-2.4-.7-5.1c-.8-2.7-5.2-6.9-5.2-6.9s-5.5-1.9-8.4-.9-4.7 3.9-6.3 6.2c-1.6 2.2-2.7 3.7-3.2 5.8z" fill="#ebc3bd" stroke-width="none" opacity="1"></path><path id="SvgjsPath45352" d="M90.6 92.4v-.2c0-1.2-.1-2.3-.3-3.5-.1-.6-.2-1.2-.4-1.7-.2-.6-.4-1.1-.7-1.6-.6-1-1.3-1.9-2.1-2.8s-1.6-1.8-2.4-2.6h-.1c-1-.3-2-.6-3.1-.8s-2.1-.4-3.2-.4c-.5 0-1.1 0-1.6.1-.6.1-1.1.3-1.6.6-1 .5-1.8 1.2-2.5 2s-1.4 1.7-1.9 2.5c-.6.9-1.2 1.8-1.8 2.6-1.1 1.8-2.1 2.6-2.6 4.7l.4.3c1.5 1.8 3.2 3.4 5.1 4.8.5.3 1 .7 1.6.9.5.2 1.1.4 1.7.6 1.1.3 2.3.5 3.5.6 2.4 0 4.8-.7 6.7-2.2.9-.7 1.7-1.6 2.4-2.6.7-.9 1.1-1.7 1.6-2.7.1.1 1.1 1.2 1.1 1.3l.2.1zm-1.1-1.5c-.1-.1-.1-.1-.1 0-.3.4-.5.8-.8 1.3-.3.5-.7.9-1 1.4-.7.9-1.5 1.7-2.5 2.4-.9.7-2 1.1-3.1 1.4-1.1.3-2.2.5-3.4.5-1.1 0-2.3-.2-3.4-.5-.6-.2-1.1-.3-1.6-.6-.5-.2-1-.5-1.5-.8-.9-.7-1.8-1.4-2.7-2.2-.8-.8-1.6-1.6-2.3-2.4l-.4-.3c.1-.5.3-1 .5-1.4.1-.1.1-.2.2-.4.5-.9 1.1-1.8 1.7-2.6 1.2-1.7 2.4-3.5 3.8-5 .7-.7 1.5-1.4 2.4-1.9.4-.2.9-.4 1.4-.5.5-.1 1-.1 1.5-.1 2 .1 4.1.5 6.1 1.1.8.8 1.6 1.6 2.3 2.4.8.9 1.5 1.8 2.1 2.7.3.5.6 1 .7 1.5.2.6.3 1.1.4 1.7.2 1.1.3 2.1.4 3.2.2.1-.7-.9-.7-.9z" fill="#000000" stroke-width="none" opacity="1"></path><path id="SvgjsPath45353" d="M90.7 92.5s-1.5-4.2-3.9-5.8c-1.8-1.2-7.3-2.6-11.4-2s-8.5 3.7-9.6 4.1-2.9 1-4.6.1c0 0 2.7 2.6 5.1 3.2 0 0 3.9-3.1 7-4.3s6.7-1.6 9.7-.9c2.9.8 4.1 1.5 7.7 5.6z" fill="#000000" stroke-width="none" opacity="1"></path></g></g></g><g id="svga-group-eyes-right-move" transform="matrix(1,0,0,1,0,0)"><g id="svga-group-eyes-right"><g id="svga-group-eyesback-right"><path id="SvgjsPath45343" d="M119.8 77.2c7.5 0 13.5 5.8 13.5 13s-6 13-13.5 13-13.5-5.8-13.5-13 6-13 13.5-13z" fill="#ffffff" stroke-width="none" opacity="1"></path></g><g id="svga-group-eyesiriswrapper-right" transform="matrix(1,0,0,1,0,0)"><g id="svga-group-eyesiriscontrol-right" transform="matrix(1,0,0,1,0,0)"><g id="svga-group-eyesiris-right"><path id="SvgjsPath44659" d="M119.8 85.6c2.5 0 4.6 2.1 4.6 4.6s-2.1 4.6-4.6 4.6-4.6-2.1-4.6-4.6 2.1-4.6 4.6-4.6z" fill="#573916" stroke-width="none" opacity="1" stroke="none"></path><path id="SvgjsPath44660" d="M119.8 85.8c2.4 0 4.4 2 4.4 4.4s-2 4.4-4.4 4.4-4.4-2-4.4-4.4 2-4.4 4.4-4.4m0-.5c-2.7 0-4.9 2.2-4.9 4.9s2.2 4.9 4.9 4.9 4.9-2.2 4.9-4.9-2.2-4.9-4.9-4.9z" fill="#382003" stroke-width="none" opacity="1" stroke="none"></path><path id="SvgjsPath44661" d="M122.1 86.1c-.1.3-.3.6-.4.9-.2.3-.4.5-.6.8.1-.3.3-.6.4-.9.2-.3.4-.5.6-.8zm.7.6c-.2.3-.3.6-.6.8-.2.2-.4.5-.7.7.2-.3.3-.6.6-.8.2-.3.5-.5.7-.7zm-.8 1.8.6-.6c.2-.2.4-.3.7-.5l-.6.6c-.2.2-.4.4-.7.5zm.2.5c.3-.2.5-.3.8-.4s.6-.2.9-.2c-.2.2-.5.3-.8.4-.3.1-.6.2-.9.2zm.3.5c.3-.1.5-.2.8-.2.3-.1.5-.1.8-.1-.3.1-.5.2-.8.2-.2.1-.5.1-.8.1zm.1.6c.1 0 .3 0 .4-.1h.4c.3 0 .5.1.8.2h-.8c-.1 0-.3 0-.4-.1-.1.1-.2.1-.4 0zm-.1.6c.3 0 .6.1.8.1.3.1.6.2.8.3-.3 0-.6-.1-.8-.1-.3-.1-.6-.2-.8-.3zm-.1.6c.1 0 .2.1.4.1.1.1.2.1.4.2s.5.3.7.4c-.3-.1-.5-.2-.7-.3-.1-.1-.2-.1-.3-.2-.2 0-.3-.1-.5-.2zm-.4.7c.2.1.4.2.7.4.2.2.4.3.6.5-.2-.1-.5-.2-.7-.4-.2-.1-.4-.3-.6-.5zm-.8-6.1c0 .3-.1.6-.2.9s-.2.6-.3.8c0-.3.1-.6.2-.9 0-.3.1-.6.3-.8zm-1.2 1.5v-.9c0-.3.1-.6.2-.9v.9c0 .3-.1.6-.2.9zm-1-1.7c.1.3.2.6.2.9.1.3.1.6.1.9-.1-.3-.2-.6-.2-.9 0-.2-.1-.3-.1-.4v-.5zm-1 .3c.2.3.3.6.4.8.1.3.2.6.2.9-.2-.3-.3-.6-.4-.8 0-.3-.1-.6-.2-.9zm-.8.5c.2.2.4.5.6.7s.3.5.4.8c-.2-.2-.4-.5-.6-.7-.1-.3-.2-.5-.4-.8zm-.9.7c.3.2.6.4.8.6s.5.5.8.7c-.3-.2-.6-.4-.8-.6-.3-.2-.5-.4-.8-.7zm-.2.9c.2.1.5.2.7.3.2.1.4.3.6.4-.2-.1-.5-.2-.7-.3-.3 0-.5-.2-.6-.4zm-.4 1c.2 0 .4 0 .7.1.2.1.4.1.6.2-.2 0-.4 0-.7-.1-.2 0-.4-.1-.6-.2zm-.2 1c.2-.1.5-.1.8-.1s.5 0 .8.1c-.2.1-.5.1-.8.1s-.6 0-.8-.1zm.1.8c.2-.1.4-.2.7-.2.2 0 .5-.1.7-.1-.2.1-.4.2-.7.2-.2.1-.5.1-.7.1zm0 .8c.2-.1.5-.2.8-.3s.5-.1.8-.2c-.2.1-.5.2-.8.3-.2.2-.5.2-.8.2zm.5.8c.2-.2.4-.3.7-.4s.5-.2.8-.3c-.2.2-.4.3-.7.4-.3.2-.6.3-.8.3zm.7.8c.1-.2.3-.4.4-.6l.5-.5c-.1.2-.3.4-.4.6-.1.3-.3.4-.5.5zm.8.8c.1-.3.2-.6.4-.8s.3-.5.5-.8c-.1.3-.2.6-.4.8-.2.3-.3.5-.5.8zm1 .3c0-.2 0-.5.1-.7s.1-.5.3-.7c0 .2 0 .5-.1.7s-.2.5-.3.7zm2.4-1.6c.1.2.2.4.3.7s.1.5.2.7c-.1-.2-.2-.4-.3-.7-.1-.2-.2-.4-.2-.7zm.6-.2.5.5.3.6-.5-.5-.3-.6zm-1.3.5c.1.2.1.4.1.7v.7c-.1-.2-.1-.4-.1-.7v-.7zm-.6 0c.1.2.1.5.1.7s0 .5-.1.7c-.1-.2-.1-.5-.1-.7s0-.5.1-.7z" fill="#382003" stroke-width="none" opacity="1" stroke="none"></path><path id="SvgjsPath44662" d="M119.8 87.6c1.4 0 2.6 1.2 2.6 2.6s-1.2 2.6-2.6 2.6-2.6-1.2-2.6-2.6 1.2-2.6 2.6-2.6z" fill="#000000" stroke-width="none" opacity="1"></path><path id="SvgjsPath44663" d="m119.2 88.1-.5-.5c-.2-.2-.4-.3-.7-.3-.2 0-.5.1-.7.3-.2.2-.3.4-.3.7s.1.5.3.7l.5.5c.2.2.4.3.7.3.2 0 .5-.1.7-.3.3-.5.3-1.1 0-1.4zm2.4 4.4c.8 0 .8-1.3 0-1.3-.9 0-.9 1.3 0 1.3z" fill="#ffffff" stroke-width="none" opacity="1"></path></g></g></g><g id="svga-group-eyesfront-right"><path id="SvgjsPath45354" d="M119.8 76.7c-7.8 0-14.1 6.1-14.1 13.6s6.3 13.6 14.1 13.6 14.1-6.1 14.1-13.6-6.3-13.6-14.1-13.6zm6.9 21c-2.6 1.2-7 1.3-10.9-.4s-5.4-5.8-6-6.7c0 0 1.8-1.8 4.1-3.5 2.2-1.8 10.3-1.1 12.4-.2 2.1.9 5.9 4.3 5.9 4.3s-2.9 5.3-5.5 6.5z" fill="#f3d4cf" stroke-width="none" opacity="1"></path><path id="SvgjsPath45357" d="M132.1 91s-2.1-1.7-6.3-3c-1.3-.4-7.2-1.4-10.2-.8-3 .6-7 4.8-7 4.8s0-2 .7-4.3c.8-2.2 5.2-5.7 5.2-5.7s4.8-.8 7.6 0 5.5 2.5 7 4.3c1.7 1.9 2.5 3 3 4.7z" fill="#ebc3bd" stroke-width="none" opacity="1"></path><path id="SvgjsPath45358" d="M131.6 89.4c-.5-.8-1-1.6-1.6-2.4-.3-.4-.6-.8-.9-1.1-.3-.4-.7-.7-1.1-1-.7-.6-1.5-1.2-2.4-1.7-.8-.5-1.7-.9-2.6-1.2-.9-.3-1.9-.5-2.8-.6-1.9-.1-3.8 0-5.7.3h-.2c-.8.6-1.5 1.3-2.2 2s-1.4 1.4-2 2.3c-.3.4-.6.8-.8 1.3-.2.5-.3 1-.4 1.5-.2 1-.3 2.1-.3 3.1v.2l.2-.1c.4-.4.8-.8 1.2-1.1.5.9.9 1.9 1.5 2.7.7 1 1.5 2 2.5 2.7 1 .8 2.1 1.3 3.3 1.7 1.2.4 2.4.6 3.6.7s2.4.1 3.6-.2c.6-.1 1.2-.3 1.8-.5.3-.1.6-.2.9-.4.3-.2.5-.3.8-.5 1-.8 1.8-1.8 2.5-2.8.7-1 1.3-2 1.9-3-.2.1-.2-.9-.8-1.9zm-1.6 4.7c-.7 1-1.5 1.9-2.4 2.7-.9.8-2.1 1-3.2 1.3-1.2.2-2.3.2-3.5.2-1.2-.1-2.3-.3-3.5-.6-1.1-.3-2.2-.8-3.2-1.5-1.8-1.3-3.2-3.4-4.3-5.4-.3.3-.7.6-1.1.9v-.2c0-1 .2-1.5.4-2.5.1-.5.3-1 .5-1.4.2-.4.5-.8.8-1.2.6-.8 1.3-1.5 2.1-2.2.7-.7 1.4-1.3 2.2-1.9 1.8-.2 3.7-.3 5.5-.2.9.1 1.8.2 2.7.5.9.3 1.7.7 2.6 1.1s1.6 1 2.3 1.6c.4.3.7.6 1 1 .3.3.6.7.9 1.1.5.6 2.2 4 2.2 4-.6.8-1.3 1.8-2 2.7z" fill="#000000" stroke-width="none" opacity="1"></path><path id="SvgjsPath45359" d="M108.2 92.6s4.6-4.2 6.9-4.9c2.3-.7 8.4 0 10.4.6 1.9.6 6.8 3.4 7.5 3.8s3.6-1.8 4.2-2.6c0 0-2.2.8-5-.5-1-.4-6.1-3.2-8.9-3.3-2.9-.1-7.8 0-9.2.8-3.5 1.7-5.9 6.1-5.9 6.1z" fill="#000000" stroke-width="none" opacity="1"></path></g></g></g><g id="svga-group-facehighlight-single"></g><g id="svga-group-eyebrows-left-move" transform="matrix(1,0,0,1,-2,1)"><g id="svga-group-eyebrows-left-rotate" transform="matrix(0.982566473233288,-0.1859116071629147,0.1859116071629147,0.982566473233288,-12.469342222693399,15.819607369104965)"><g id="svga-group-eyebrows-left"><path id="SvgjsPath44698" d="M64.38 80.82s4.3-7.05 6.42-7.84c2.12-.81 19.67 7.47 19.67 7.47s2.55-2.83.42-7.31c0 0-.13 2.21-.34 2.68 0 0-.9-3.24-1.97-3.98l-.52.98s-1.91-1.56-3.53-2.14c-1.6-.58-13.15-3.71-15.35-1.65s-4.8 11.79-4.8 11.79z" fill="#2a232b" stroke-width="none" opacity="1" stroke="none"></path><path id="SvgjsPath44699" d="M64.36 80.86c.04-.02.11-.09.11-.11l.06-.1.14-.2.28-.4.56-.8c.38-.53.76-1.05 1.16-1.58.78-1.04 1.58-2.07 2.46-2.98.44-.45.9-.88 1.4-1.21l.37-.19.17-.03c.06 0 .14 0 .2.01.29.01.59.08.89.14 1.22.29 2.46.73 3.68 1.18 2.45.91 4.88 1.88 7.32 2.86 2.43 1 4.86 2.01 7.26 3.13l.08.04.05-.06c.4-.49.69-1.03.92-1.64.22-.6.37-1.24.39-1.92.02-.17.01-.34.01-.5-.01-.17 0-.33-.02-.5l-.05-.5-.1-.5c-.05-.34-.18-.65-.27-.98-.11-.32-.24-.63-.37-.94l-.29-.74-.06.8c-.04.45-.08.89-.14 1.34l-.06.42c-.14-.43-.29-.86-.46-1.3-.15-.36-.32-.71-.51-1.05-.21-.34-.43-.69-.79-.97l-.25-.19-.16.29-.37.64c-.47-.37-.96-.73-1.45-1.04-.61-.38-1.23-.73-1.91-.98-1.32-.45-2.61-.77-3.93-1.11-2.62-.62-5.26-1.15-7.94-1.25-.67-.02-1.34 0-2.02.1-.33.06-.67.12-1 .26-.16.06-.33.15-.49.25l-.23.18c-.06.07-.12.14-.18.2-.49.54-.81 1.17-1.15 1.8-.15.32-.3.64-.44.95-.14.33-.27.65-.4.98-.51 1.32-.96 2.67-1.37 4.02-.2.68-.4 1.37-.58 2.06l-.27 1.04-.13.52-.06.26-.03.13c-.04.03-.03.12-.03.17zm.23-.5-.06.11.05-.14.16-.5.33-1.01c.23-.66.45-1.33.69-2 .47-1.32.96-2.63 1.53-3.89.28-.63.58-1.25.89-1.85.33-.58.67-1.18 1.1-1.62l.16-.17.16-.12c.12-.06.24-.14.39-.18.27-.1.58-.15.88-.2.62-.08 1.26-.07 1.91-.04 1.3.06 2.6.25 3.9.47 1.3.22 2.6.5 3.91.79 1.29.3 2.61.62 3.86 1.02 1.2.43 2.38 1.24 3.47 2.05l.3.23.16-.31.34-.65c.12.14.25.31.36.49.18.3.35.62.5.95.3.67.57 1.37.78 2.07l.21.69.22-.63c.1-.27.11-.48.16-.72.03-.23.05-.45.07-.69.02-.21.03-.41.04-.6.03.06.06.12.08.18.09.31.22.61.28.93.17.62.22 1.27.2 1.9-.02.63-.15 1.26-.35 1.84-.19.56-.47 1.08-.82 1.52l-7.11-3.35c-2.41-1.11-4.82-2.19-7.29-3.08-1.24-.44-2.48-.87-3.77-1.14-.32-.06-.65-.12-1-.12h-.26c-.1.02-.2.04-.29.07l-.47.25c-.56.38-1.01.86-1.44 1.35-.86.99-1.62 2.06-2.37 3.15-.37.55-.71 1.11-1.07 1.67l-.51.85-.28.43z" fill="#1b141c" stroke-width="none" opacity="1" stroke="none"></path></g></g></g><g id="svga-group-eyebrows-right-move" transform="matrix(1,0,0,1,2,1)"><g id="svga-group-eyebrows-right-rotate" transform="matrix(0.9825664725843344,0.1859116105927184,-0.1859116105927184,0.9825664725843344,16.239013567865584,-21.17197013051269)"><g id="svga-group-eyebrows-right"><path id="SvgjsPath44700" d="M134.77 81.64s-4.77-6.2-6.93-6.9c-2.15-.69-18.92 6.74-18.92 6.74s-2.72-2.49-.95-6.47c0 0 .29 1.95.53 2.37 0 0 .66-2.87 1.66-3.54l.59.86s1.78-1.39 3.33-1.92c1.55-.52 12.74-3.36 15.07-1.56 2.32 1.79 5.62 10.42 5.62 10.42z" fill="#2a232b" stroke-width="none" opacity="1" stroke="none"></path><path id="SvgjsPath44701" d="m134.77 81.52-.04-.11-.08-.23-.17-.46-.34-.91a54.081 54.081 0 0 0-2.36-5.36c-.15-.29-.31-.58-.47-.86-.16-.28-.34-.57-.51-.84-.38-.55-.74-1.11-1.26-1.58-.07-.06-.12-.12-.19-.18l-.25-.16c-.16-.09-.34-.17-.5-.22-.34-.12-.68-.17-1.02-.22-.67-.09-1.34-.1-2-.08-2.64.11-5.22.58-7.77 1.16-1.27.3-2.53.6-3.8 1.01-.65.23-1.24.54-1.81.88-.47.29-.93.6-1.37.94l-.41-.59-.18-.26-.24.17c-.35.25-.53.56-.72.86-.18.3-.31.62-.44.94-.14.38-.26.77-.37 1.15-.03-.12-.06-.24-.09-.37-.09-.4-.16-.79-.23-1.18l-.12-.71-.23.65c-.1.28-.21.55-.3.84-.07.29-.17.58-.19.87l-.06.44-.02.44c-.01.15 0 .3.01.45.01.15.01.29.05.45.08.59.27 1.16.53 1.7s.6 1.02 1.03 1.45l.05.05.07-.03c2.28-1.01 4.62-1.92 6.95-2.82 2.34-.88 4.69-1.75 7.03-2.57 1.18-.41 2.36-.8 3.56-1.06.29-.06.6-.12.87-.13.07 0 .14 0 .21-.01.06.02.11.02.17.02l.38.16c.51.29 1 .67 1.46 1.07.93.8 1.8 1.71 2.65 2.62.43.46.85.92 1.26 1.39l.62.71.31.35.15.17.08.09c.01.02.09.09.12.09a.47.47 0 0 0-.02-.18zm-.52-.66-.57-.74c-.38-.5-.77-.98-1.18-1.48-.81-.96-1.64-1.9-2.57-2.77-.47-.43-.95-.85-1.53-1.19l-.48-.22c-.1-.03-.2-.04-.29-.06-.09 0-.17-.01-.27 0-.34.01-.66.06-.98.12-1.26.25-2.45.64-3.65 1.04-2.38.81-4.69 1.78-6.99 2.78l-6.8 3.01c-.37-.38-.68-.85-.91-1.33-.25-.51-.42-1.07-.48-1.62-.07-.56-.07-1.14.06-1.68.03-.28.14-.55.21-.82.02-.06.04-.11.06-.16.02.18.05.36.08.54.04.21.08.4.12.6.05.21.09.4.2.63l.26.56.17-.62c.17-.62.38-1.24.62-1.84.12-.3.26-.58.43-.85.1-.16.21-.31.33-.44l.38.58.18.27.28-.2c1.02-.74 2.12-1.46 3.28-1.84 1.21-.36 2.49-.66 3.75-.93 1.26-.27 2.53-.53 3.8-.73 1.27-.21 2.55-.38 3.83-.44.64-.02 1.27-.04 1.89.02.3.04.61.08.89.17.14.04.26.1.39.16l.17.11.17.15c.46.38.83.92 1.2 1.42.35.53.69 1.08 1.02 1.63.64 1.12 1.23 2.27 1.8 3.45.28.58.57 1.17.83 1.76l.4.89.2.45.06.13-.07-.1-.29-.41z" fill="#1b141c" stroke-width="none" opacity="1" stroke="none"></path></g></g></g><g id="svga-group-nose-single-move" transform="matrix(1,0,0,1,0,0)"><g id="svga-group-nose-single"><path id="SvgjsPath44552" d="M96.3 94.66c-1.02 4.05-2.23 8.04-3.28 12.05-.13.5-.27 1-.37 1.5-.05.25-.09.5-.12.74-.01.12-.02.24-.01.34 0 .1.04.24.07.35.12.47.33.94.79.87.45-.05.91-.34 1.36-.6.23-.15.51-.24.79-.26.29-.03.57.05.82.16.51.23.89.62 1.26 1 .36.39.68.81 1 1.22.31.41.65.77 1.07.98.42.2.9.24 1.31.06.42-.16.78-.49 1.05-.87.26-.37.49-.87.76-1.33.27-.46.56-.93 1.02-1.34.23-.2.54-.39.92-.42.39-.03.73.14.98.31l.19.14.14.11c.09.08.2.14.29.21.2.13.41.25.62.34.21.09.43.16.63.19s.35-.01.4-.06c.06-.05.12-.18.12-.39.01-.21-.02-.47-.04-.71-.23-2.03-.63-4.09-1.01-6.13-.39-2.04-.81-4.08-1.29-6.11l.08-.02c.74 1.96 1.32 3.97 1.84 6 .51 2.03.97 4.06 1.25 6.17.03.27.06.53.05.85-.01.3-.09.72-.44 1.02-.35.29-.77.3-1.08.25-.32-.05-.6-.15-.86-.27-.26-.12-.5-.27-.74-.43-.11-.08-.23-.16-.34-.25l-.16-.13-.13-.1c-.34-.25-.59-.25-.94.03-.33.27-.62.7-.89 1.12-.28.43-.5.88-.86 1.35-.35.45-.81.84-1.39 1.01-.57.2-1.22.09-1.71-.2-.5-.29-.86-.74-1.15-1.18-.28-.43-.58-.85-.92-1.24-.33-.38-.71-.75-1.15-.95-.44-.23-.96-.16-1.37.1-.44.27-.87.6-1.46.71-.15.03-.31.01-.47-.04a.933.933 0 0 1-.39-.28c-.2-.24-.31-.5-.4-.76-.04-.14-.08-.25-.11-.41-.03-.17-.02-.3-.03-.44.01-.27.04-.54.07-.81.07-.53.16-1.05.27-1.56.44-2.05 1.06-4.05 1.71-6.04.65-1.98 1.36-3.95 2.16-5.88l.09.03z" fill="#c5796d" stroke-width="none" opacity="1"></path><path id="SvgjsPath44553" d="M97.96 101.36c.54-.31 1.16-.46 1.79-.5.63-.04 1.26.04 1.87.22.6.2 1.18.46 1.69.83.26.17.49.39.73.58.22.22.43.44.63.68-.26-.16-.5-.35-.76-.52-.26-.15-.51-.33-.78-.47-.27-.14-.52-.29-.8-.39-.27-.13-.55-.21-.83-.31a6.89 6.89 0 0 0-1.75-.29 5.76 5.76 0 0 0-1.79.17z" fill="#c5796d" stroke-width="none" opacity="1"></path><path id="SvgjsPath44554" d="M105.26 104.41c-1.21-1.82-4.55-2.57-6.6-2.32-.67.08-1.21 1.12-.4 1.48 1.02.45 2.07.75 3.12 1.11 1.04.36 2.02 1 3.14 1.01.63.01 1.1-.74.74-1.28z" fill="#fbe5e2" stroke-width="none" opacity="1"></path></g></g><g id="svga-group-hair-front"><path id="SvgjsPath44843" d="M176.9 108.7c.1 0 .1-.1 0 0 1-1 1.5-2.3 1.6-3.6.2-2.2-.6-4.4-1.9-6.1-.8-1-1.7-1.8-2.9-2.2.2-.4.4-.9.5-1.3.3-1.1.1-2.2-.1-3.3-.3-1.7-1.1-3.7-2.8-4.4-.8-.3-1.5-.5-2.3-.3.6-1.6.6-3.4-.1-5-.6-1.5-1.8-2.8-3.2-3.6-.8-.4-1.7-.7-2.6-.8-.3 0-1.9 0-1.5.2-.1 0-.2-.1-.3-.1.3-1.7.1-3.7-.3-5.2-.8-3.2-2.5-5.5-5.2-7 0-1.7-.2-3.5-.5-4.8-.7-2.9-2.5-6.3-5.4-7.4v-.3c.1-.1.1-.2.1-.3.1-.5.1-1 0-1.6-.1-.7-.3-1.2-.6-1.9-.5-1-1.2-2.1-2.1-2.9-.9-.8-1.9-1.3-3-1.2-.5-1.5-1.4-2.8-2.6-3.9-1.5-1.3-3.3-2.2-5.2-2.5-1.2-.2-2.2 0-3.1.2-.3-1.5-.9-3-1.6-4.1-1.8-2.8-4.6-3.9-7.8-2.8-.4.2-.7.4-1 .6-2.8-3-7.5-4.5-10.2-1.8-1.1-.8-2.4-1.3-3.8-1.5-1.7-.7-3.6-.6-5.2.5-.3-.2-.7-.4-1.2-.5-1.2-.3-2.6-.1-3.6.8-.2.2-.5.5-.6.9-1.8-2.1-5.1-3.2-7.5-2.7-1.6.3-3 1.4-3.8 2.7-.3.5-.5 1-.6 1.4-2.7-2.3-6.6-3.4-9.8-1.4-1.5.9-3.1 3.2-3.3 5.3-1.5-1.3-3.6-1.8-5.5-1.1-1.9.6-3.3 2.2-3.8 4.1-.2.8-.2 1.6.1 2.3-2.7-.1-5.5.6-7.2 2.7-1.1 1.4-1.7 3.1-1.7 4.9 0 .7.1 1.3.3 2-1.5.2-2.9.8-4.1 1.6-2 1.3-3.7 3.1-4.4 5.4-.3 1-.5 2.1-.3 3.1-1.7.1-3.2.8-4.5 1.8-1.7 1.5-2.6 3.8-2.6 6-.3 1.6-.2 3.3.3 4.8-3.4.7-6.7 3.9-7.7 6.9-1.1 3.4 0 7.8 2.6 10.4-4.5 1.4-7.8 7-6.5 11.8.5 1.7 1.5 3.2 2.9 4.2-.1 0-.2 0-.3.1-4.2 1.2-5.9 6-4.9 9.9.5 1.8 1.5 3.2 2.9 4.2l-.3.6c-.2.1-.4.2-.5.2-.9.5-1.5 1.3-1.9 2.3-.5.7-.9 1.4-1.1 2.3-.6 3.2 1.7 6.5 5.1 6.6h.5c1 .8 1.4 1.9 2.4 2.8.8.7 1.8 1.1 2.8 1.4.6.2 1.3.3 1.9.3h1.3c2 .8 4.2.8 6.2.2l.9.6c.7.7 1.5 1.2 2.4 1.5.9.3 1.9.4 2.9.2.8.4 1.6.7 2.6.7.6 0 1.1-.1 1.6-.3.3.3.7.5 1.1.6.5.5 1.2.9 1.9 1.1 2.8.7 5.3-1.7 5.3-4.4 0-1.2-.4-2.1-1.1-2.9.5-.8.8-1.7.8-2.6 0-1.8-1-3.4-2.5-4.3.8-1.2 1.2-2.7 1.3-4.1 0-1.8-.8-3.5-2.1-4.6.3-.7.5-1.5.4-2.2 0-1.1-.3-2.2-.8-3.2l-.6-.9c1-.9 1.7-2.1 1.5-3.5-.1-.9-.4-1.7-1-2.4.5-1 .7-2.2.4-3.3-.3-1.1-.9-2-1.7-2.6.6-.5 1-1.2.9-2 0-.5-.2-1-.4-1.5 2.3-1.1 2.9-4.1 1.8-6.3 1.4-1 2.5-2.4 3-4.1.1-.6.3-1.4.3-2 0-.3 0-.7-.1-1 0-.3-.1-.7-.2-1.1-.2-.6-.4-1.2-.8-1.7-.1-.4-.3-.7-.5-1.1-.5-1-1.4-1.7-2.3-2.3h-.1v-.4c.2-.2.3-.4.5-.6.6-.6 1-1.3 1.2-2.2.1-.3.2-.6.1-.9.1-.4.1-.8.1-1.3.9 0 1.8-.1 2.7-.2.1.2.2.5.4.7.2.2.5.2.6-.1.1-.2.1-.5.2-.7 4.8-.7 9.6-2 14.3-2.6 6.9-.9 13.8-1.3 20.7-1.2 3 0 6.1.2 9.1.4 1.5.1 4.6-22.2 4.6-22.2.9 2.4 1.4 6.1 1.8 10.5.6 6.8-.5 12.5-.5 12.5s11.5 1.9 20.7 5c.6.2.1 1.3.3 1.9.3 1.2 1 2.3 1.9 3.1.2.2.4.4.7.6.5.4 1.1.7 1.6.9-.2.2-.4.3-.6.6-1 1-1.5 2-1.9 3.4-.8 2.7.2 5.6 2.1 7.6.5.5 1.1.9 1.7 1.2-.1 0-.2.1-.4.1-1.1.5-1.9 1.2-2.5 2.2-.1.1-.2.1-.3.2-.2.2-.3.4-.5.6-.5.6-.7.9-.9 1.8-.4 1.7-.1 3.2 1 4.6l.3.3c-1.2 1-2.1 2.3-2.5 3.8-.3 1.1-.3 2.3 0 3.4 0 2 1.1 4.1 2.7 5.4-.1.1-.1.2-.1.3-.1 0-.2.1-.3.2-1.3.7-2.3 2.2-2.1 3.7.1.8.3 1.6.8 2.3-1.2.8-2.1 2.1-2.2 3.7-.1 1.1.1 2.3.7 3.3.2.3.4.6.6.8-.3.3-.5.6-.7.9-.2.5-.4.9-.4 1.4-.3 1.6.2 3.4 1.8 4.5 0 .1-.1.2-.1.3-.2 1.1 0 2.1.8 2.8.8.8 2.1 1.1 3.2.7.9-.3 1.6-.8 2-1.6.5.8 1.3 1.4 2.2 1.7 1.1.5 2.5.7 3.8.4 1-.2 1.9-.6 2.6-1.2 2.7 1.6 6.5.4 8.3-2.3.4-.7.7-1.4 1-2.1.9.4 2 .5 3 .2 1.2-.3 2.3-1 3-2 .9.3 2 .4 3 .2 2.3-.5 4.4-2.6 4.4-5 2-.4 3.8-1.6 4.3-3.5.2-1 .1-2.1-.2-3 .9-.7 1.5-1.8 1.7-3 .1-.7.1-1.2-.1-1.9-.1-.3-.2-.6-.4-.9.3-.6.6-1.2.8-1.9.7-2.9-1.1-6.5-4-7.6zM116 37.2c0-.3 0-.6-.1-.9.5.4.9.9 1.2 1.4-.3-.2-.7-.3-1.1-.5z" fill="#2a232b" stroke-width="none" opacity="1" stroke="none"></path><path id="SvgjsPath44844" d="M90.6 27.6c-1.3.2-2.6.9-3.6 1.8-.8.7-1.4 1.7-1.8 2.7-1-.5-2.1-1-3.2-1.4-1.4-.5-2.9-.7-4.4-.5-1.6.2-3 1-4 2.2-.5.6-.9 1.3-1.1 2.1 0 .2-.1.3-.1.5-.7-.3-1.5-.6-2.3-.6-1.4-.1-3 .2-4.2 1.1-2.1 1.6-2.9 4.4-2.2 6.8-1 0-1.9.2-2.8.6-1.2.5-2.3 1.3-3.2 2.2-.9.9-1.6 2.1-2 3.3-.4 1.1-.5 2.2-.3 3.3-2.6-.3-5.3.6-7 2.6-1.7 1.9-2.3 4.7-1.8 7.2-2.9-.2-5.9 1.2-7.5 3.7-1.5 2.3-1.7 5.4-.5 8-3.6.7-6.8 3.3-8.1 6.8-.7 1.9-.8 4.1-.4 6.1.3 1.6 1 3 2 4.3-2.9 1.7-5 4.7-5.5 8s.5 6.8 2.6 9.3c-2.4 1.4-4.1 4-4.2 6.7-.1 1.6.4 3.2 1.2 4.5.6 1 1.5 1.9 2.5 2.6-1.5.8-2.6 2.2-3.2 3.7-.7 1.8-.8 3.9.1 5.7l.2-.1c-.7-1.7-.4-3.7.4-5.3.8-1.6 2.2-2.9 3.9-3.4l1.2-.4-1.2-.6c-1.2-.6-2.1-1.6-2.8-2.8-.6-1.2-.9-2.5-.8-3.8.2-2.6 2.1-4.9 4.5-5.7l1.4-.4-1.1-1.1c-2.2-2.2-3.3-5.6-2.8-8.6.6-3 2.7-5.8 5.6-7l1.5-.6-1.1-1.1c-2.4-2.3-3.3-6.2-2.2-9.3 1.1-3.2 4.2-5.7 7.6-6l1.4-.2-.8-1.1c-1.5-2.1-1.7-5.2-.4-7.5 1.3-2.3 4.2-3.8 7-3.5l.7.1-.2-.6c-.9-2.3-.3-5.2 1.3-7.1 1.7-1.9 4.4-2.8 6.9-2.3l.5.1-.1-.6c-.2-1.1 0-2.3.4-3.4s1.1-2 1.9-2.8c1.7-1.6 4-2.5 6.1-2.1l1.4.3-.6-1.3c-.9-2-.2-4.6 1.6-5.8.8-.6 1.9-.9 3-.8s2.1.5 2.8 1.2l3.1 3-1.6-3.9c-.4-.9-.1-2.1.7-3s1.8-1.5 2.9-1.7c1.2-.2 2.5 0 3.7.4 1.2.4 2.5.9 3.7 1.5l.8.3.2-.8c.2-1.1.8-2.1 1.6-3 .8-.8 1.8-1.4 3-1.7 2.3-.6 4.9.3 6.5 2.2l.2-.1c-1.5-2.1-4.3-3.3-7-2.9zm-.1 6.4c1.1-1.1 3.2-1.2 4.6 0l.1-.1c-1.2-1.4-3.6-1.6-5.2-.4-1.2.9-1.6 2.5-1.3 4-1.9-.7-4.2-.7-6.1 0-2.2.7-4.1 2.2-5.2 4.3-1.1-.4-2.3-.6-3.6-.6-1.5.1-3 .6-4.2 1.5-2.2 1.6-3.5 4.3-3.4 7-1.2.1-2.4.4-3.4.9-1.3.7-2.5 1.6-3.4 2.8-.9 1.1-1.6 2.5-1.9 3.9-.3 1.3-.3 2.6-.1 3.8-2.7-.1-5.3 1.5-6.4 3.9-1 2.2-.6 4.9.9 6.8-1.1-.1-2.1.2-3.1.7-1.3.7-2.4 1.8-3 3.2-.8 2.1-.3 4.7 1.1 6.4-2.3.4-4.3 2-5.2 4.2-.6 1.5-.6 3.1-.1 4.6.3.9.8 1.8 1.4 2.5-2.2 1.1-3.9 3.1-4.5 5.5-.7 2.6 0 5.5 1.8 7.6-.5.7-.9 1.5-1.2 2.3-.3 1.2-.4 2.4-.2 3.5.2 1.2.6 2.3 1.3 3.3.5.7 1 1.3 1.7 1.8-1.3 1.7-1.9 3.9-1.8 5.9.1 2.2 1 4.4 2.6 5.9-.6.4-1.1 1-1.5 1.7-.5.9-.8 1.8-.9 2.8s0 2 .4 2.9c.3.9.9 1.7 1.7 2.3l.1-.1c-1.4-1.2-1.8-3.2-1.5-4.9.3-1.7 1.3-3.3 2.9-4l.8-.3-.7-.6c-1.6-1.4-2.4-3.5-2.3-5.6 0-2.1.8-4.2 2.3-5.5l1-.8-1.2-.6c-1.6-.8-2.6-2.5-2.8-4.3-.2-1.8.3-3.7 1.5-4.8l.8-.7-.8-.8c-1.6-1.5-2.4-4.1-1.8-6.2.5-2.2 2.4-4.1 4.6-4.6l2.2-.6-2-1.5c-1.9-1.2-2.8-3.9-2-6 .8-2.1 3.2-3.7 5.5-3.3l5 .7-4.5-2.2c-2.1-1-3.3-3.8-2.5-6 .8-2.3 3.5-3.8 5.9-3.3l1.8.4-1.4-1.1c-2-1.5-2.7-4.5-1.7-6.8 1-2.3 3.7-3.8 6.1-3.5l.5.1-.1-.5c-.3-1.3-.2-2.6.2-3.9.4-1.2 1.1-2.4 1.9-3.4 1.6-1.8 4-3 6.4-2.9l-.1.1c-.4.5-.7 1.2-.8 1.9-.1.5 0 1.1.2 1.6-1.2.6-2.1 1.5-2.7 2.7-.6 1.1-.9 2.5-.7 3.8-.7.4-1.3 1-1.7 1.7-.5.8-.9 1.7-1.1 2.7-.2.9-.2 1.9.1 2.9.1.6.4 1.1.7 1.6-1.6.8-2.8 2.3-3 4.1-.3 1.9.4 3.9 1.8 5.1-.9.6-1.6 1.4-2.1 2.3-.6 1.1-1 2.3-1.2 3.5-.1 1.2 0 2.5.4 3.7.3 1 .9 1.9 1.6 2.7-1.8.8-3.2 2.6-3.5 4.6-.2 1.9.5 3.8 1.9 5.2-1.6 1.3-2.6 3.3-2.5 5.4.1 2 1.1 3.8 2.6 5-.5.5-.9 1-1.2 1.6-.5 1-.8 2.2-.9 3.3 0 1.1.1 2.3.6 3.4.3.7.8 1.4 1.3 2-1.2 1.6-1.8 3.6-1.7 5.5 0 2 .7 3.9 2 5.4-1.6 1.2-2.5 3.2-2.4 5.1.1 2.2 1.5 4.3 3.5 5.1l.1-.2c-1.7-1.1-2.8-3-2.7-4.9.1-1.9 1.3-3.6 3-4.3l.9-.4-.8-.8c-1.3-1.3-1.9-3.2-1.8-5 0-1.8.8-3.6 2-4.8l.9-.8-1-.7c-1.3-1-1.9-2.7-1.8-4.4.1-1.7.9-3.3 2.2-4.2l1.2-.8c-.3.7-.5 1.4-.5 2.1-.1 1.2.1 2.3.6 3.3.4.8.9 1.6 1.7 2.1-.5.3-.9.8-1.2 1.3-.4.7-.6 1.6-.5 2.4 0 .8.4 1.6.9 2.2.5.6 1.2 1.1 2 1.2v-.1c-.8-.1-1.4-.7-1.8-1.3-.4-.6-.6-1.3-.6-2.1s.2-1.4.6-2c.4-.6.9-1.1 1.5-1.2l1-.2-.9-.5c-.8-.5-1.4-1.3-1.8-2.2-.4-.9-.5-1.9-.5-2.9.1-1 .4-1.9 1-2.6.6-.8 1.4-1.3 2.3-1.7l1.1-.5-1.1-.4c-1-.4-2-1.1-2.7-1.9-.7-.9-1.1-1.9-1.2-3.1-.1-1.1.1-2.3.6-3.4s1.3-2 2.3-2.5l.3-.2-.3-.2c-.7-.5-1.2-1.2-1.5-2-.3-.8-.5-1.7-.3-2.6.1-.9.4-1.7.9-2.4s1.2-1.2 2-1.4l.6-.1-.5-.4c-.6-.5-1.1-1.3-1.3-2.1-.3-.8-.4-1.6-.4-2.5s.1-1.7.4-2.5c.2-.8.7-1.5 1.2-2.1l.5-.4-.6-.2c-.7-.3-1.2-.8-1.6-1.4-.4-.6-.7-1.4-.8-2.2-.2-1.1-.2-2.4.2-3.5.2-.1.3-.1.5-.2l1.5-.3-1-1.2c-.9-1-1.3-2.6-1-4 .2-1.4 1-2.8 2.3-3.5l.6-.3-.2-.6c-.6-2.2.6-4.9 2.8-5.9l.6-.3-.4-.5c-.6-.8-.5-2 .1-3 .1-.1.2-.3.3-.4l.6.1-.1-.6c.6-.5 1.3-.8 2.1-.7v-.2c-.6-.2-1.3-.1-1.9.1-.1 0-.2.1-.3.1-.2-2.3.9-4.8 2.8-6.1 1.9-1.4 4.7-1.6 6.8-.5l.9.5.3-.9c.7-2 2.5-3.6 4.5-4.4 2-.8 4.4-.9 6.4.2l2.4 1.3-1.7-2.1c-1.2-1.4-1.1-3.4.1-4.4zm-30.2 73.1c.6.8 1.3 1.4 2.1 1.8-.7.4-1.3.9-1.8 1.5-.2.2-.3.4-.4.7l-1.5-.6c-1.6-.6-2.8-2.3-2.9-4.1-.1-1.7.8-3.6 2.4-4.5l1.2-.7c-.2.7-.3 1.5-.3 2.3 0 1.3.4 2.6 1.2 3.6zm.5-34.6c-.2.8-.2 1.7-.1 2.5s.3 1.7.8 2.4c.3.6.8 1.2 1.4 1.6-.5.6-.9 1.3-1.2 2-.3.9-.4 1.8-.4 2.8 0 .9.2 1.9.6 2.8.3.7.8 1.4 1.3 1.9-.7.3-1.3.9-1.7 1.6-.5.8-.8 1.7-.9 2.6-.1.9.1 1.9.4 2.7.3.8.8 1.5 1.4 2a5.563 5.563 0 0 0-2.9 3.8l-1.3-.7c-1.5-.8-2.6-2.6-2.5-4.4.1-1.8 1.4-3.6 3.2-4.2l.7-.2-.5-.4c-.9-.7-1.6-1.7-2-2.8s-.5-2.3-.4-3.4.5-2.3 1.2-3.2c.6-1 1.5-1.7 2.5-2.2l.7-.3-.7-.5c-1.3-1.1-1.9-2.9-1.5-4.4.3-1.2 1.3-2.3 2.4-2.8-.3.2-.4.5-.5.8zm119.3 36.1c-.2-.8-.7-1.4-1.4-1.8-.4-.2-.8-.4-1.2-.5 1.2-1.7 1.4-4.1.6-6.1-.8-1.8-2.5-3.2-4.4-3.7 1.2-1.9 1.3-4.4.3-6.6-.7-1.3-1.8-2.3-3-2.9-.7-.3-1.4-.5-2.1-.7 1-2.3.8-4.9-.6-7.1-.9-1.3-2.2-2.3-3.6-2.8-.9-.3-1.8-.5-2.8-.5.3-.9.4-1.8.4-2.8 0-1.5-.4-3-1.1-4.3-.7-1.3-1.6-2.5-2.8-3.5-.9-.8-2-1.3-3.2-1.6.6-2.1.3-4.4-.6-6.3-1-2.1-2.7-3.8-4.9-4.6.2-.8.2-1.8 0-2.6-.2-1-.7-1.9-1.3-2.6s-1.4-1.4-2.2-1.9c-.8-.4-1.7-.6-2.6-.6-.1-1.2-.6-2.3-1.2-3.2-.7-1-1.6-2-2.7-2.7-1.1-.7-2.3-1.2-3.5-1.4-.9-.2-1.9-.2-2.9 0-.1-2.2-1.2-4.3-3.1-5.5-1.1-.7-2.4-1-3.6-1-1 0-1.9.2-2.8.6-.5-.7-1.2-1.3-1.9-1.7-1-.6-2.1-1-3.2-1.1-1.1-.1-2.3 0-3.3.3-.8.3-1.6.7-2.3 1.2-1.2-1.2-2.9-1.9-4.5-2-1.8-.2-3.6.2-5 1.3-.8-.9-2-1.2-3.1-.8-.4.1-.8.4-1.1.7.1-.1.2-.3.3-.4.8-.8 2.1-1.1 3.2-.8l.5.2.1-.5c.2-1.5 1-3 2.5-3.6.7-.3 1.5-.4 2.3-.3.8.1 1.5.5 2.1 1l.4.3.1-.5c.3-1.1 1.3-2.1 2.3-2.2 1.1-.2 2.3.4 2.8 1.3l.6.9.4-1c.5-1.2 1.7-2.2 3.1-2.3s2.8.6 3.6 1.9h.1c-.2-.7-.8-1.4-1.4-1.9s-1.5-.8-2.3-.8c-1.4 0-2.8.7-3.7 1.9-.9-.9-2.2-1.3-3.4-1-1.3.3-2.4 1.4-2.7 2.7-1.4-.7-3.1-.8-4.5-.2-1.4.5-2.7 1.8-3.1 3.3-1.3-.3-2.7.2-3.6 1.2-.9 1.2-1 2.8-.2 4h.1c-.1-.3-.2-.6-.2-.9h.1c0-1.1.8-2.1 1.8-2.3 1-.2 2.1.3 2.5 1.1l.2.5.4-.3c1.3-1 3-1.3 4.7-1.1 1.6.2 3.1 1.1 4 2.4l.5.7.7-.7c1.2-1.3 3.1-1.7 4.9-1.5 1.8.2 3.4 1.3 4.2 2.8l.4.9.8-.5c.8-.5 1.7-.8 2.7-.8.9 0 1.9.2 2.7.7 1.6 1 2.7 2.9 2.6 4.9l-.1.8c-.1-.1-.1-.2-.2-.3-.6-.8-1.3-1.4-2.1-1.9s-1.7-.8-2.6-.8c-.7 0-1.5 0-2.2.3-.2-.5-.4-.9-.7-1.3-.5-.5-1.1-.9-1.7-1.2-.6-.2-1.3-.4-2-.3-.7 0-1.3.3-1.8.7l.1.2c1.1-.6 2.4-.5 3.4 0s1.8 1.6 1.8 2.6v.6c-.2-.2-.5-.3-.7-.4-2-.9-4.4-.7-6.2.5-.9-1.6-2.6-2.7-4.4-2.8-1.8-.1-3.4.6-4.6 1.9-.1-.3-.1-.5-.1-.8v-.2l-.2-.1c-2.2-1.3-5.2-.8-6.8 1l.1.1c1.7-1.4 4.3-1.6 6.1-.5.1.6.1 1.2.2 1.8l.2 1.5.8-1.3c.9-1.5 2.7-2.3 4.3-2.1 1.6.2 3 1.5 3.5 3l.3 1.2.9-.8c1.4-1.2 3.6-1.5 5.2-.8 1.7.8 2.8 2.7 2.7 4.5l-.1 1.6 1.4-.8c1.4-.8 3.3-.6 4.9.3.8.4 1.4 1 1.9 1.7s.8 1.5.8 2.4v.9l.8-.3c1.4-.5 3-.3 4.3.5v.2h.4c.4.3.8.6 1.1.9 1.4 1.6 1.7 4.2.6 6.2l-.2.4.5.1c2.6.3 5 2.2 5.9 4.7.4 1.2.5 2.6.3 3.9-.3 1.3-.9 2.5-1.7 3.4l-.5.6.7.2c2.1.6 3.7 2.5 4.3 4.6.6 2.1.4 4.4-.9 6.1l-.6.7.8.5c1.9 1.2 3.2 3.4 3.6 5.7.4 2.3-.1 4.7-1.6 6.5l-.9 1 1.2.5c2 .9 3.4 3 3.6 5.1.1 2.2-1.1 4.4-2.9 5.5l-2.4 1.4 2.7.5c1.8.3 3.3 2 3.6 3.8.3 1.8-.8 3.9-2.5 4.7l-2.1 1.1 2.2.5c1.5.4 2.6 1.8 3 3.5.4 1.6.1 3.5-1.2 4.6l-1.1 1h1.5c1.8.1 3.5 1.4 4 3.2.5 1.8-.4 4-2 5l.1.2c1.9-.9 3.1-3.2 2.7-5.4-.3-1.8-1.8-3.4-3.6-4 .5-.6.8-1.2 1-1.9.3-1 .4-2.1.2-3.2-.2-1-.6-2.1-1.3-2.9-.3-.4-.8-.8-1.2-1.2 1.6-1.3 2.6-3.5 2.3-5.6-.1-1.4-.8-2.6-1.6-3.6-.4-.5-1-.9-1.6-1.3 1.6-1.6 2.6-3.9 2.4-6.3-.2-2.6-1.7-5-3.9-6.3.5-.9.9-1.9 1.1-2.9.3-1.4.3-2.8 0-4.2-.4-2.5-1.8-4.8-3.9-6.3.5-.9.8-1.9.9-2.9.1-1.3-.1-2.6-.5-3.8s-1.1-2.3-2-3.2c-.7-.8-1.6-1.3-2.6-1.7.7-1 1.2-2.2 1.4-3.4.2-1.4.1-2.9-.4-4.2-.4-1.1-1.1-2-1.9-2.8l.6.1c1.9.3 3.6 1.8 4.5 3.7.9 1.8 1 4.1-.1 5.9l-.2.3.4.1c2.4.6 4.5 2.6 5.2 5 .7 2.4.1 5.1-1.4 6.9l-1.1 1.3 1.7-.2c1.9-.2 3.4 1.7 4.1 3.6.6 2 .4 4.3 1.1 6.7.3 1.2.9 2.5 1.6 3.4.6 1 1.1 1.8 1.1 2.6s-.4 1.7-1 2.5-1.4 1.6-2.2 2.3l-1.8 1.6 2.4.2c2.1.2 4.1 1.8 4.8 3.9.6 2.1-.1 4.6-1.7 6l-1.4 1.2 1.7.4c1.6.4 3 1.6 3.8 3.1.8 1.5 1.1 3.4.4 5l-.3.9.9-.1c1.6-.1 3.3.9 4.1 2.4.8 1.5.6 3.6-.6 5l.1.1c1.4-1.3 1.8-3.5 1.1-5.4-.6-1.6-2.2-2.8-3.9-3.2.6-1.8.4-3.8-.4-5.4-.7-1.5-1.9-2.8-3.4-3.6 1.6-1.9 2.2-4.5 1.5-7-.7-2.2-2.4-4.1-4.5-4.9.4-.4.8-.8 1.1-1.3.7-1 1.4-2.3 1.3-3.8 0-.7-.2-1.4-.5-2.1-.3-.6-.6-1.1-1-1.6-.7-.9-1.1-1.7-1.4-2.8-.6-2-.5-4.4-1.3-6.8-.4-1.2-1.1-2.3-2.1-3.2-.6-.6-1.5-1.1-2.4-1.2 1.1-2.1 1.4-4.7.6-6.9-.9-2.5-3-4.4-5.5-5.2.4-.9.7-1.9.7-2.9 0-1.1-.2-2.2-.7-3.2s-1.1-2-1.9-2.8c-.7-.7-1.5-1.2-2.4-1.5.3-1 .4-2.1.3-3.1-.2-1.2-.6-2.4-1.3-3.4-.7-1-1.6-2-2.6-2.6-.8-.5-1.8-.9-2.7-1 0-1-.3-1.9-.6-2.7-.5-1.1-1.3-2.1-2.2-2.9s-2-1.4-3.1-1.8c-.9-.3-1.9-.4-2.8-.3-.1-.5-.3-.9-.5-1.3l.8-.4c2-.9 4.5-.5 6.4.6 2 1.1 3.6 3.2 3.8 5.5v.3h.3c.9-.1 1.8.1 2.5.5.8.4 1.5 1 2 1.7 1.1 1.4 1.6 3.3.9 5l-.1.3.4.1c2.1.7 3.7 2.5 4.5 4.4.8 2 .9 4.3 0 6.1l-.4.9 1 .2c2.4.4 4.4 2.3 5.4 4.6 1 2.2 1.1 5-.1 7l-1.2 2 2.4-.6c1.1-.3 2.3-.2 3.3.3 1.1.4 2 1.2 2.6 2.1 1.2 1.8 1.1 4.6-.3 6.3l-1.8 2.3 2.8-.6c1.9-.4 4.1.7 5.1 2.4s.7 4.2-.7 5.7l-1.4 1.5 2-.1c1.9-.1 3.8 1.1 4.7 2.8.9 1.7.6 4.1-.6 5.6l-.9 1.1 1.4-.3c1.1-.3 2.5.4 2.9 1.6.4 1.2-.2 2.7-1.4 3.3l.1.2c.9-.1 1.8-1.8 1.4-3.3zm-34.7-55.3c1.2 1.6 1.8 3.9 1.1 5.8l-.2.6c-1.1-1.1-2.5-1.8-4-2.1 1-2.1.8-4.8-.6-6.7-.1-.1-.1-.2-.2-.3.6.1 1.2.3 1.8.6.7.6 1.5 1.3 2.1 2.1zm-8.1-8.8c1.3 1.2 2.2 2.9 2.2 4.6-1.2-.6-2.6-.9-4-.7-.1-.9-.4-1.7-.9-2.4-.6-1-1.4-1.8-2.4-2.3-.9-.6-2-1-3.2-1.1-.7-.1-1.5 0-2.2.2-.3-1.8-1.4-3.4-2.9-4.4l.6-.3c1.4-.6 3-.3 4.2.5 1.2.8 2.1 2.1 2.2 3.5v.9l.9-.2c2.1-.3 4.1.4 5.5 1.7zm-16.4 23.2-.2 1.7-.2 1.7c-.1.6-.2 1.1-.3 1.7.4-1.1.7-2.2.9-3.3l.3-1.7.2-1.7c.3-2.3.3-4.5.2-6.8-.2-2.3-.6-4.5-1.2-6.7s-1.4-4.3-2.5-6.3c.7 2.2 1.3 4.3 1.8 6.5.4 2.2.8 4.4.9 6.6.2 2.2.2 4.5.1 6.7v1.6zm-6.5-21.9c.8 3.3 1.5 6.5 1.8 9.9.3 3.3.2 6.6 0 10 1-3.2 1.3-6.7 1-10.1-.3-3.4-1.2-6.7-2.8-9.8zm-1.6 12c-.5 4.1-1.6 8-3 11.9 2.2-3.6 3.5-7.7 4-11.8.5-4.2.3-8.5-.9-12.4.4 4.1.5 8.2-.1 12.3zM94 50.1c.4-2.1 1-4.1 1.6-6.2-1.1 1.9-1.8 3.9-2.4 6-.6 2.1-.9 4.2-1 6.4-.1 2.2.1 4.3.5 6.5l.3 1.6.4 1.6c.3 1 .7 2 1.2 3-.1-.5-.2-1.1-.4-1.6l-.2-1.6-.3-1.6-.2-1.6c-.2-2.1-.3-4.2-.2-6.3 0-2.1.3-4.1.7-6.2zM82.7 54c-.4 2.3-.7 4.8-.5 7.1l.1 1.8.2 1.8.4 1.8c.2.6.3 1.2.5 1.7-.1-.6-.1-1.2-.2-1.8l-.2-1.8-.1-1.8V61c.1-2.3.3-4.7.7-6.9.4-2.3 1.1-4.5 1.9-6.7.8-2.2 1.9-4.3 3.1-6.3-1.5 1.8-2.8 3.9-3.8 6-1 2.2-1.7 4.5-2.1 6.9zm-1.3-5.3-1 1.3-.9 1.4-.7 1.6c-1 2-1.7 4.1-2.1 6.3-.4 2.2-.5 4.4-.3 6.7.2 2.2.7 4.4 1.6 6.4-.5-2.1-.8-4.3-.8-6.5s.1-4.3.5-6.4c.4-2.1 1-4.2 1.8-6.2l.6-1.5.7-1.5.8-1.4c.3-.5.6-.9.9-1.4-.4.4-.8.8-1.1 1.2zm-8.5 1.9c-2.3 3.3-3.5 7.3-3.8 11.3-.3 4 .4 8.2 2.2 11.7-1.1-3.8-1.5-7.8-1.2-11.7.2-3.8 1.2-7.6 2.8-11.3zm-3.7 3.3c-2.1 3.1-3.4 6.8-4 10.5-.5 3.7-.3 7.6.9 11.2-.4-3.7-.4-7.4.1-11 .5-3.8 1.6-7.3 3-10.7zm62 6.9c-.6-2.6-1.4-5.1-2.5-7.5-1.1-2.4-2.4-4.7-3.9-6.8 1.2 2.3 2.3 4.7 3.2 7.1.9 2.4 1.7 4.9 2.2 7.4.6 2.5 1 5.1 1.2 7.7l.1 1.9.1 1.9v4c.1-.7.2-1.3.3-1.9l.2-2 .1-2v-2c0-2.6-.4-5.3-1-7.8zm3.7 11c0 2.2-.2 4.4-.5 6.7 1-2.1 1.4-4.3 1.5-6.6 0-2.3-.3-4.6-1.3-6.7.2 2.2.4 4.4.3 6.6zm-30.1-3.9c0 .6-.1 1.2-.1 1.8.3-1.2.5-2.3.7-3.5l.3-3.6c.2-2.4.1-4.8-.1-7.2-.2-2.4-.6-4.8-1.2-7.1-.5-2-1.1-4-1.9-5.9l-.3-1.8v1.1s0-.1-.1-.1c0 .1 0 .2.1.2v5.5c-.1 2.2-.2 4.4-.5 6.5-.2 2.2-.6 4.3-1 6.5s-1 4.3-1.5 6.4c.9-2 1.7-4.1 2.3-6.2.6-2.1 1-4.3 1.3-6.5.2-2.2.4-4.4.3-6.7-.1-1-.1-2.1-.2-3.1.3 1.5.7 2.9.9 4.4.4 2.3.7 4.7.9 7 .2 2.3.3 4.7.3 7 0 1.2 0 2.4-.1 3.5l-.1 1.8zm1.4-1.5c-.4 1.2-.8 2.4-1.1 3.8 1-1 1.6-2.2 2-3.4.4-1.3.7-2.6.5-4-.5 1.2-.9 2.4-1.4 3.6zm18.1-2.7v-.2c-.9 1.5-1.6 3-2.2 4.5-.6 1.6-1.2 3.1-1.6 4.8 1.1-1.3 1.9-2.8 2.5-4.4.7-1.4 1.1-3 1.3-4.7.3 1.7.7 3.2 1.1 4.8.4 1.6.8 3.2 1.4 4.8.2-1.7-.1-3.4-.5-5-.3-1.6-1-3.2-2-4.6zM78 72.3c.3-1.9.6-3.8.9-5.6.3-1.8.8-3.6 1.1-5.5-1.1 1.6-1.8 3.5-2.1 5.4-.3 1.8-.3 3.8.1 5.7zm68.6 38.2c1.6-1.5 2.6-3.7 2.4-5.9-.2-2.5-1.7-4.7-3.8-5.8 2-1.3 3.1-3.8 2.6-6.1-.3-1.3-1.1-2.5-2.2-3.3-.8-.6-1.7-1-2.7-1.2 1.9-1.7 2.9-4.4 2.2-7-.4-1.5-1.3-2.8-2.6-3.7-.8-.6-1.8-1-2.8-1.3 1.6-2.8 2.1-6.1 1.6-9.2-.3-1.8-.9-3.5-1.8-5s-2.1-2.9-3.6-3.8l-.1.2c1.2 1.2 2.2 2.6 2.9 4.1.7 1.5 1.1 3.1 1.2 4.8.3 3.3-.6 6.6-2.5 9.1l-1.1 1.4h1.8c2.3 0 4.6 1.6 5.4 3.8.8 2.2 0 5.1-2.1 6.6l-1.2.9 1.4-.2c1.2-.1 2.4.2 3.4.9s1.7 1.8 2 2.9c.2 1.2-.1 2.4-.7 3.4s-1.6 1.8-2.7 2.1l-1.4.4 1.4.6c2.1.9 3.6 3.2 3.6 5.3 0 2.2-1.4 4.3-3.3 5.2l-2.7 1.3 3 .6c.9.2 1.7.7 2.3 1.4.6.7.9 1.6.9 2.5 0 1.7-1.6 3.5-3.3 3.8l-1.9.3 1.2 1.4c1.2 1.3 1.7 3.3 1.4 5.1-.1.9-.5 1.8-.9 2.7s-1.1 1.5-1.9 2l-1.3.8 1.4.5c1.5.5 2.7 2.1 2.7 3.8.1 1.7-1.1 3.4-2.7 4.2l.1.2c1.9-.5 3.4-2.3 3.6-4.4.1-1.7-.7-3.4-2.1-4.4 1.6-1.2 2.6-3 3-5 .2-1.2.2-2.4 0-3.6-.1-.7-.4-1.4-.8-2 .8-.3 1.5-.9 2.1-1.5.9-1 1.5-2.4 1.5-3.8s-.6-2.8-1.5-3.8c-.3-.5-.8-.9-1.4-1.3z" fill="#1b141c" stroke-width="none" opacity="1" stroke="none"></path></g><g id="svga-group-glasses-single-move" transform="matrix(1,0,0,1,0,0)"><g id="svga-group-glasses-single"></g></g></g></g></g><rect id="svga-credit-rect" width="200" height="15" x="0" y="185" fill="#ecf0f1" opacity="0.5" style="display: none;"></rect><text id="svga-credit-text" font-family="Avenir Next, Roboto, Helvetica, Arial, sans-serif" font-size="10px" text-anchor="start" font-weight="400" size="10px" anchor="start" weight="400" fill="#333333" x="33.40447998046875" y="182.60824704170227" style="display: none;"><tspan id="SvgjsTspan44369" dy="13" x="33.40447998046875">Created on AvatarMaker.com</tspan></text></g><defs id="SvgjsDefs44321"><linearGradient id="SvgjsLinearGradient44748" x1="78.944" y1="79.1453" x2="78.944" y2="108.9636" gradientUnits="userSpaceOnUse" class="svga-on-canvas-glasses-gradient-single-0-null"><stop id="SvgjsStop44749" stop-opacity="1" stop-color="#ff73b2" offset="0.004166667" ></stop><stop id="SvgjsStop44750" stop-opacity="0.8085" stop-color="#ff75ae" offset="0.1949" ></stop><stop id="SvgjsStop44751" stop-opacity="0.5986" stop-color="#ff79a0" offset="0.4039" ></stop><stop id="SvgjsStop44752" stop-opacity="0.3799" stop-color="#ff818a" offset="0.6217" ></stop><stop id="SvgjsStop44753" stop-opacity="0.1566" stop-color="#ff8b6c" offset="0.844" ></stop><stop id="SvgjsStop44754" stop-opacity="0" stop-color="#ff9452" offset="1" ></stop></linearGradient><linearGradient id="SvgjsLinearGradient44756" x1="-20.9152" y1="79.1453" x2="-20.9152" y2="108.9636" gradientTransform="matrix(-1 0 0 1 100 0)" gradientUnits="userSpaceOnUse" class="svga-on-canvas-glasses-gradient-single-1-null"><stop id="SvgjsStop44757" stop-opacity="1" stop-color="#ff73b2" offset="0.004166667" ></stop><stop id="SvgjsStop44758" stop-opacity="0.8085" stop-color="#ff75ae" offset="0.1949" ></stop><stop id="SvgjsStop44759" stop-opacity="0.5986" stop-color="#ff79a0" offset="0.4039" ></stop><stop id="SvgjsStop44760" stop-opacity="0.3799" stop-color="#ff818a" offset="0.6217" ></stop><stop id="SvgjsStop44761" stop-opacity="0.1566" stop-color="#ff8b6c" offset="0.844" ></stop><stop id="SvgjsStop44762" stop-opacity="0" stop-color="#ff9452" offset="1" ></stop></linearGradient></defs></svg>