<svg xmlns="http://www.w3.org/2000/svg" version="1.1" width="600px" height="600px" viewBox="0 0 200 200" style="overflow:hidden!important;"><g id="svga-group-wrapper"><g id="svga-group-backs-single"></g><g id="svga-group-humanwrap-move" transform="matrix(1,0,0,1,0,0)"><g id="svga-group-humanwrap"><g id="svga-group-hair-back-move" transform="matrix(1,1.3877787807814457e-16,-1.3877787807814457e-16,1,1.4210854715202004e-14,0)"><g id="svga-group-hair-back"></g></g><g id="svga-group-humanbody-back"><path id="SvgjsPath3778" d="M180.8 184.9c-2.3-3.4-38.9-17.8-38.9-17.8l-13.4-5.2-5.6-68.8H76.8L71.3 162l-13.4 5.2S21.4 181.6 19 185c-2.3 3.4-3.3 14.9-3.3 14.9V219h168.5v-19.2c-.1.1-1-11.5-3.4-14.9z" fill="#ffd0bc" stroke-width="none" opacity="1" stroke="none"></path></g><g id="svga-group-chinshadow-single"><path id="SvgjsPath9253" d="m76.82 93.1-3.53 44.34c1.58 4.84 2.79 9.44 4.01 13.96.25 2.53 2.44 5.17 4.54 6.07 4 1.7 7.66 2.8 11.06 3.4 2.7.5 5.4.5 8 0 3.4-.6 7.08-1.89 11.08-3.49 2.2-.9 3.96-2.86 4.52-5.98 1.47-7.47 4.69-16.83 9.08-25.85l-2.64-32.45H76.82z" fill="#e09879" stroke-width="none" opacity="1" stroke="none"></path></g><g id="svga-group-humanbody-front"><path id="SvgjsPath3779" d="M184.5 219c-.1-6.4-.1-12.8-.1-19.2l-.3-.1s.1-.1.2 0c.1 0 .1.1.1.1v-.4l-.1-.5-.1-.9-.2-1.9c-.2-1.3-.4-2.5-.6-3.8-.2-1.3-.5-2.5-.9-3.8-.4-1.2-.8-2.5-1.5-3.6-.8-.9-1.9-1.5-2.9-2.1-1-.6-2.1-1.1-3.2-1.7-2.1-1.1-4.3-2.1-6.5-3.1-4.4-2-8.7-3.9-13.1-5.7-4.4-1.9-8.8-3.7-13.2-5.5l-13-5.2-1.2-16.9c-.4-5.7-.9-11.5-1.3-17.2l-1.3-17.2-1.5-17.3-.1-.8h-.8c-7.7 0-15.4.1-23.1.1l-23.1.2h-.5v.5L75 110.2l-1.3 17.2c-.8 11.4-1.8 22.8-2.8 34.2-5.6 2.1-11.2 4.2-16.7 6.4-5.6 2.2-11.2 4.5-16.8 6.9-2.8 1.2-5.6 2.4-8.3 3.6-2.8 1.3-5.5 2.5-8.2 4.1-.7.4-1.3.8-2 1.4-.2.1-.4.4-.5.6l-.3.6c-.2.4-.4.7-.5 1.1-.6 1.5-1 3-1.3 4.5-.6 3-1.1 6-1.4 9.1l-.1 19.1v.9h.9l42.1.1H100c14 0 28.1-.1 42.1-.2l42.1-.5h.3v-.3zm-84.5-1-42.1-.1-41.2.1-.1-18.1c.3-3 .6-5.9 1.2-8.9.3-1.4.6-2.9 1.1-4.2.1-.3.3-.7.4-.9l.2-.4.3-.3c.5-.4 1.1-.8 1.8-1.2 2.5-1.5 5.3-2.8 8-4.1 2.7-1.3 5.5-2.5 8.2-3.7 5.5-2.4 11.1-4.8 16.7-7.1s11.2-4.5 16.9-6.7l.2-.1v-.2c.9-11.5 1.7-23 2.7-34.4l1.4-17.2 1.5-16.7 22.6.2c7.4.1 14.8.1 22.3.1l1.3 16.4 1.5 17.2c.5 5.7 1 11.5 1.5 17.2l1.6 17.2v.3l.3.1 13.4 5c4.4 1.7 8.9 3.4 13.3 5.2 4.4 1.8 8.8 3.7 13.2 5.6 2.2 1 4.3 2 6.5 3 1.1.5 2.1 1.1 3.2 1.6 1 .6 2.1 1.2 2.9 2 .7 1.1 1.1 2.3 1.4 3.5.3 1.2.6 2.5.8 3.7.2 1.3.4 2.5.6 3.8l.2 1.9.1.9.1.5v.4c0 6.3 0 12.6-.1 18.9l-41.8-.5c-14 .1-28.1 0-42.1 0z" fill="#d17f5b" stroke-width="none" opacity="1" stroke="none"></path><path id="SvgjsPath3780" d="M125.1 142.4s-1.8 23-9.1 32.9c0 0 7.9-25 9.1-32.9zm-34.5 16s5 7.9 11.5 10.1c0 0-9.5 2.2-11.5-10.1zM73.4 140c6.7 25.6 6.7 25.6 8.5 30.7 0 0 .4-12.6-8.5-30.7z" fill="#e09879" stroke-width="none" opacity="1" stroke="none"></path></g><g id="svga-group-clothes-single"><path id="SvgjsPath10683" d="M10.1 220s-1.3-17.2-.6-29c.7-12 5.2-13.4 5.2-13.4s1.7-3.9 5.2-5.1c3.5-1.1 14.6-5.6 18.4-7.8h126s13.2 6.4 15.2 8.1 3.3 5.3 3.3 5.3 2.3 1.2 3.8 3.6c4.7 7.7 2.5 38.1 2.5 38.1l-179 .2z" fill="#60240c" stroke-width="none" opacity="1" stroke="none"></path><path id="SvgjsPath10684" d="M68.1 134.7s-6.7-1.6-13.7.2l1.8 2s-10.7 2.4-15.5 5.6l2.4 1.6s-8.3 7.1-11.1 10.7l4.4-1.2s-6.7 8.5-7.3 15.5l5.7-6.1s-3 9.7-.6 16.6c0 0 1.8-5.1 1.8-4.6s1.2 6.5 1.2 6.5l1.2-4.9s1.2 12.3 5.3 17c0 0-.2-3.8 1.4-7.5 0 0 1.6 12.1 9.9 18.8l-2-6.3s4.6 5.8 8.1 8.3l-1.8-4.2s11.5 8.3 25.6 10.1c0 0-5.8-3.4-6.9-5.1 0 0 9.3 4.9 15.5 5.4 6.1.4 17.8 5.4 17.8 5.4l-4.6-5.6s9.9 3.6 12.7 9.1c0 0 1.8-6.1-.4-12.9l2.2 1.6-.4-3.2s4.6-.8 7.3-4.2c0 0-3 6.9-4 11.5 0 0 4-4.8 7.1-6.3 3.2-1.6 11.7-12.1 11.7-12.1l-4 9.1s6.7-5.4 8.9-8.7 4.4-8.9 4.4-8.9l-.6 8.9s4-7.3 5.1-11.1c0 0 1 3.4 2 5.9 0 0 .4-9.1 1.4-13.5s2.4-8.1 1.8-12.3l3 7.9s.4-9.7-1-13.7-7.5-8.5-7.5-8.5l5.6.4s-6.9-5.8-12.7-7.7l3.4-1s-8.9-5.4-14.9-6.5l2.4-1.6s-6.1-1-8.5-.6c0 0 1 3-1.2 4.2-2.2 1.2-9.1 3.9-11.6 5.7h6.8s-14.9 6.8-18.3 9.9l6.8-2.5s-5.8 4.9-9.8 10.2c0 0-12.3-9-20-9.8l6.2-.6s-7.5-3.8-11.9-4.9-7-5.3-7-5.3l4.2.5c.1.1-6.8-4.8-7.8-7.2z" fill="#60240c" stroke-width="none" opacity="1" stroke="none"></path><path id="SvgjsPath10685" d="M68.1 134.7s-6.7-1.6-13.7.2l1.8 2s-10.7 2.4-15.5 5.6l2.4 1.6s-8.3 7.1-11.1 10.7l4.4-1.2s-6.7 8.5-7.3 15.5l5.7-6.1s-3 9.7-.6 16.6c0 0 1.8-5.1 1.8-4.6s1.2 6.5 1.2 6.5l1.2-4.9s1.2 12.3 5.3 17c0 0-.2-3.8 1.4-7.5 0 0 1.6 12.1 9.9 18.8l-2-6.3s4.6 5.8 8.1 8.3l-1.8-4.2s11.5 8.3 25.6 10.1c0 0-5.8-3.4-6.9-5.1 0 0 9.3 4.9 15.5 5.4 6.1.4 17.8 5.4 17.8 5.4l-4.6-5.6s9.9 3.6 12.7 9.1c0 0 1.8-6.1-.4-12.9l2.2 1.6-.4-3.2s4.6-.8 7.3-4.2c0 0-3 6.9-4 11.5 0 0 4-4.8 7.1-6.3 3.2-1.6 11.7-12.1 11.7-12.1l-4 9.1s6.7-5.4 8.9-8.7 4.4-8.9 4.4-8.9l-.6 8.9s4-7.3 5.1-11.1c0 0 1 3.4 2 5.9 0 0 .4-9.1 1.4-13.5s2.4-8.1 1.8-12.3l3 7.9s.4-9.7-1-13.7-7.5-8.5-7.5-8.5l5.6.4s-6.9-5.8-12.7-7.7l3.4-1s-8.9-5.4-14.9-6.5l2.4-1.6s-6.1-1-8.5-.6c0 0 1 3-1.2 4.2-2.2 1.2-9.1 3.9-11.6 5.7h6.8s-14.9 6.8-18.3 9.9l6.8-2.5s-5.8 4.9-9.8 10.2c0 0-12.3-9-20-9.8l6.2-.6s-7.5-3.8-11.9-4.9-7-5.3-7-5.3l4.2.5c.1.1-6.8-4.8-7.8-7.2z" fill="#ffffff" stroke-width="none" opacity="0.9"></path><path id="SvgjsPath10686" d="M49.3 147.9c-2.4 2.6-4.3 5.8-5.2 9.2 1.7-3.1 3.6-6 6-8.5 2.3-2.6 5-4.7 8-6.6-3.4 1.2-6.4 3.3-8.8 5.9zM44.7 173c.5-2.4 1-4.8 1.7-7.1s1.7-4.5 2.8-6.8c-1.7 1.8-2.9 4.1-3.7 6.5-.8 2.4-1.1 5-.8 7.4zm5.2 4.5c-.1 1.6 0 3.2.6 4.8.2-1.6.3-3.2.4-4.8.1-1.6.2-3.1.1-4.8-.7 1.6-1 3.2-1.1 4.8zm6.3 9.8c-.2 1.6 0 3.2.4 4.7.5 1.5 1.2 3 2.2 4.2-.4-1.6-.9-3-1.3-4.5-.3-1.5-.7-2.9-1.3-4.4zm6.7 8.9c.1 1.1.6 2.1 1.2 3.1.6.9 1.4 1.7 2.4 2.3-.4-1.1-1-1.9-1.5-2.8-.7-1-1.3-1.8-2.1-2.6zm-8.8-26.4c-.1-1.4-.1-2.7 0-4.1.2-1.7.5-3.3 1.1-4.9-.8 1.5-1.3 3.1-1.7 4.8s-.4 3.4-.3 5.1l.1.9.7-.6c1.5-1.3 2.9-2.6 4.3-3.9-.1 1.7-.2 3.4 0 5.1.1 1.1.2 2.1.4 3.2s.4 2.1.7 3.1c-.1-1.1-.3-2.1-.3-3.1-.1-1.1-.1-2.1-.1-3.1 0-2.1.1-4.2.4-6.2l.2-1.3-1 .9c-1.5 1.3-3 2.7-4.5 4.1zm23.7 19.7-.4-.8-.4.8c-.9 1.7-1.5 3.6-2 5.5-1.2-1.7-2.2-3.6-2.9-5.6-.8-2.3-1.3-4.8-1.4-7.3-.3 2.5 0 5.1.7 7.6s1.9 4.8 3.5 6.9l.7.9.2-1.1c.4-1.9 1-3.8 1.7-5.6l2.1 3.6c.8 1.5 1.7 2.9 2.6 4.4-.7-1.6-1.4-3.1-2.1-4.6-.8-1.6-1.5-3.2-2.3-4.7zm20.3 13.8c-1.5-.4-2.9-.9-4.3-1.5-1.3-.7-2.6-1.6-3.6-2.8.7 1.4 1.8 2.6 3.2 3.5 1.4.9 2.9 1.4 4.4 1.8 3.1.8 6.1 1.1 9.1 2.2-1.3-.9-2.8-1.5-4.3-1.9-1.5-.6-3-.9-4.5-1.3zm9.8-3.6c1.1 1.4 2.2 2.7 3.1 4.1.9 1.4 1.7 2.9 2.4 4.6 0-1.8-.7-3.6-1.6-5.1-.9-1.5-2.3-2.9-3.9-3.6zm-5.8-14.8c2.9 1.9 5.5 4.2 7.7 6.8 2.2 2.6 4 5.5 5.4 8.7-.7-3.4-2.4-6.7-4.6-9.4-2.4-2.6-5.3-4.8-8.5-6.1zm-1.4-12.2c1.7 1.7 3.2 3.7 4.3 5.9-.7-.4-1.4-.7-2.1-1-.6-.2-1.2-.4-1.7-.6s-1.2-.4-1.8-.5l1.7.8c.6.3 1.1.6 1.6.8 1.1.6 2.1 1.2 3.1 1.9l1.1.8-.5-1.3c-1.1-2.8-2.8-5.4-5-7.4-1.1-1-2.3-1.9-3.6-2.7-1.3-.8-2.7-1.3-4.1-1.7 1.3.6 2.6 1.4 3.8 2.2 1.1.8 2.2 1.8 3.2 2.8zm-18.6-15.4c-1.3-1.5-3-2.7-4.8-3.6-1.8-.9-3.7-1.6-5.7-1.8 1.8.9 3.6 1.7 5.3 2.6 1.7 1 3.4 1.9 5.2 2.8zm72.3 19.6.2.1.1-.2c.7-1.4 1.2-2.9 1.5-4.4.3-1.5.5-3.1.5-4.7 0-3.1-.6-6.3-1.9-9.1.7 3 1 6.1.9 9.1 0 1.5-.2 3-.4 4.5-.2 1.4-.5 2.8-.9 4.2-.5-.3-.9-.8-1.1-1.4.1.8.5 1.5 1.1 1.9zm-24.2 6.6c1.4-2.4 2.4-5.1 2.5-7.8-.9 2.6-1.9 5-3.4 7.3-1.4 2.3-3.1 4.3-5.1 6.2 2.5-1.3 4.5-3.3 6-5.7zm13.1-31.1c1.6 1.7 3 3.6 4.6 5.5-.8-2.3-2.2-4.3-3.8-6.1-1.6-1.8-3.6-3.4-5.7-4.4 1.6 1.7 3.3 3.3 4.9 5zm-2.4 21.8c2.1-1.9 3.3-4.8 3.5-7.6s-.6-5.9-2.4-8c1.1 2.6 1.6 5.3 1.4 8-.2 2.6-1 5.2-2.5 7.6zm-5.9 17.5c1.6-1.3 3.1-2.7 4.5-4.2 0 1.2.3 2.4.9 3.5l.4.7.4-.7 5.4-9.6c.7 1.8 1.1 3.7 1.3 5.7l.2 2 .7-1.9c.9-2.6 1.5-5.2 1.7-7.9.1-1.4.2-2.7.1-4.1 0-1.4-.2-2.7-.4-4 .1 1.3.1 2.7.1 4 0 1.3-.2 2.7-.4 4-.3 2-.8 4-1.4 5.9-.3-1.7-.7-3.4-1.4-5.1l-.4-.9-.5.8c-1.9 3.2-3.6 6.5-5.4 9.7-.4-1.1-.6-2.2-.4-3.4l.1-1.3-.8 1c-1.5 1.9-3.2 3.6-5 5.1-1.8 1.6-3.7 3-5.8 4.3 2.2-.8 4.2-2.1 6.1-3.6z" fill="#411300" stroke-width="none" opacity="1" stroke="none"></path><path id="SvgjsPath10687" d="M190.2 198.1c-.2-3.7-.5-7.3-1.2-11-.4-1.8-.9-3.6-1.8-5.4-1-1.6-2.3-2.9-4-3.9-.7-1.8-1.6-3.6-3.1-5-.8-.7-1.7-1.2-2.6-1.7-.9-.5-1.7-.9-2.6-1.4-3.2-1.7-6.4-3.2-9.6-4.8-.1-1.3-.2-2.5-.5-3.8-.2-1.1-.7-2.1-1.3-3-.6-.9-1.3-1.8-2-2.6-1.1-1.2-2.3-2.3-3.5-3.3l4 .3 1.6.1-1.2-1c-2-1.6-4-3-6.1-4.4-1.7-1.1-3.5-2.1-5.4-2.9l2-.6 1.1-.3-1-.6c-2.4-1.4-4.8-2.7-7.3-3.8-2.1-1-4.4-1.9-6.7-2.5l1.5-1 1-.7-1.2-.2c-1.4-.2-2.9-.4-4.3-.5-.7-.1-1.4-.1-2.2-.1-.7 0-1.5 0-2.2.1l-.5.1s-3 0-4.1.4c0 0 .4 3.9.3 5.3-.2.1-.5.2-.7.3-1.3.6-2.7 1.2-4 1.9-1.3.6-2.7 1.3-3.9 2.2l-1.1.8h6.3c-2.6 1.2-5.2 2.5-7.8 3.8-1.6.8-3.1 1.6-4.6 2.5-1.5.9-3 1.8-4.4 3l-1.4 1.2 1.8-.6 5.2-1.9c-1.3 1.2-2.6 2.4-3.9 3.7-1.6 1.6-3.1 3.4-4.4 5.2-3-2.1-6.1-4-9.3-5.8-1.7-.9-3.4-1.7-5.1-2.4-1.2-.5-2.4-.9-3.7-1.1l4.4-.4.8-.1-.7-.4c-3.3-1.6-6.6-3.1-10.1-4.3-.9-.3-1.8-.5-2.6-.8-.8-.3-1.7-.7-2.4-1.2-1.4-.9-1.9-1.7-2.9-3.1h3.6l-.4-.4c-1.1-.8-2.2-1.6-3.2-2.4l.3-4.1s-.6.2-2.7-.2c-1.3-.2-2.3-.5-2.3-.5-1.2-.3-2.3-.4-3.4-.5s-2.3-.2-3.5-.2c-1.2 0-2.3.1-3.5.2-1.2.1-2.3.4-3.4.6l-.2.1.2.2 1.6 1.8c-2.6.6-5.2 1.3-7.7 2.1-1.3.4-2.6.9-3.9 1.4s-2.5 1.1-3.7 1.9l-.3.2.3.2 2.1 1.4c-1.9 1.6-3.7 3.2-5.5 4.9-.9.9-1.9 1.8-2.8 2.7s-1.8 1.9-2.6 2.9l-.5.7.8-.2 3.6-1c-1.6 2.1-3 4.3-4.2 6.6-1.2 2.4-2.3 4.9-2.7 7.7-1 .4-2 .8-3.4 1.3l-3.2 1.2-3.3 1.2c-1.2.5-2.2 1.3-3 2.2-.8.9-1.4 1.8-1.9 2.8-.4.2-.8.5-1.1.8-.4.4-.7.7-1 1.1-.6.8-1 1.7-1.4 2.6-.7 1.8-1.1 3.6-1.4 5.4-.5 3.7-.5 7.4-.5 11 .1 3.7.2 7.3.4 11l.4 5.5.2 2.7.1 1.4.1.7c0 .2 0 .4.1.8l44.4.5 44.7.4 19.4.1c.2.3.4.7.6 1.1l.2.5.1-.5c.1-.3.2-.7.2-1l24.3.1 44.9-.1h.8l.1-.8c.2-3.7.3-7.3.4-11 .4-4.1.4-7.8.2-11.4zm-90.2 21-44.7.4-19.3.1c-.7-3.7-1.7-7.3-2.9-10.8-1.2-3.7-2.7-7.3-4.3-10.8-1.6-3.5-3.4-7-5.4-10.3-1-1.7-2-3.3-3.2-4.9-.6-.8-1.1-1.6-1.8-2.3-.3-.4-.6-.8-1-1.1-.2-.2-.3-.4-.5-.5-.2-.1-.4-.4-.6-.4.4.2.6.7.9 1.1.2.4.5.8.7 1.2.5.8.9 1.7 1.4 2.5.9 1.7 1.8 3.4 2.6 5.1 1.7 3.4 3.4 6.9 4.9 10.4 1.6 3.5 3.1 7 4.6 10.6l4.3 10.2-25.7.3c.1-.1 0-.4 0-.6v-.7l-.1-1.4-.1-2.7-.2-5.5c-.1-3.6-.1-7.3-.1-11 .1-3.6.1-7.3.7-10.9.3-1.8.7-3.5 1.4-5.1.3-.8.8-1.6 1.3-2.2.2-.3.5-.6.8-.9.3-.2.7-.5.9-.6l.3-.1.1-.3c.9-1.9 2.4-3.6 4.3-4.4.4-.2 1-.4 1.6-.5l1.6-.6 3.2-1.2c2.1-.8 4.3-1.7 6.4-2.6.3-.1.6-.3.9-.4-.2 1-.3 2-.3 3.1-.2 2.8-.1 5.7.9 8.5l.3 1.1.4-1.1 1-2.7c.1-.2.2-.4.2-.6.3 1.8.6 3.5 1 5.3l.4 1.9.5-1.8.7-2.7c.3 2.2.8 4.5 1.3 6.6.4 1.5.9 2.9 1.5 4.3s1.3 2.8 2.4 4l.8.9v-1.2c0-1.2.1-2.5.3-3.7.1-.7.3-1.4.5-2.1.3 1.3.6 2.5 1 3.8.6 1.7 1.2 3.4 2.1 5.1 1.6 3.3 3.8 6.3 6.7 8.6l1 .8-.4-1.2-1.5-4.7c.9 1 1.8 2.1 2.7 3.1 1.3 1.4 2.8 2.8 4.3 4l1 .7-.5-1.1-1.4-3.2c1.7 1.1 3.3 2.1 5.1 3 2.1 1.1 4.2 2.1 6.3 2.9 2.2.9 4.4 1.6 6.6 2.2 2.2.6 4.5 1 6.8 1.4l1.2.2-1.1-.6c-1.2-.7-2.5-1.5-3.6-2.3-.6-.4-1.2-.8-1.7-1.3-.2-.2-.5-.4-.7-.6 2.3 1.1 4.6 2.1 7 3 2.8 1 5.7 1.8 8.6 1.9 2.9.4 5.7 1.2 8.5 2.1 2.8.9 5.5 1.9 8.2 3.1l.6.2-.4-.5-4.1-5c2.2.9 4.4 2 6.4 3.3 1.1.7 2.2 1.5 3.1 2.4l.1.1-16.8-.3zm-69-51.6 3.2-3.4c-.2.7-.3 1.4-.5 2.1-.8.3-2.1 1-2.7 1.3zm88.3 53.9c-.6-1-1.4-1.9-2.2-2.7-1-.9-2.1-1.7-3.2-2.4-2.2-1.4-4.7-2.6-7.2-3.6l-.6-.2.4.5 4.2 5.1c-2.5-1-5.1-2-7.7-2.9-2.8-.9-5.6-1.8-8.5-2.2-2.9-.2-5.8-.9-8.5-1.9-2.7-1-5.4-2.2-8-3.6l-.8-.4.6.8c.5.6 1 1.1 1.6 1.6.6.5 1.2.9 1.8 1.3.9.6 1.7 1.2 2.6 1.7-1.9-.3-3.7-.7-5.5-1.2-2.2-.6-4.4-1.4-6.5-2.2-2.1-.9-4.2-1.8-6.2-2.9s-4-2.3-5.9-3.6l-.9-.6.4 1 1.3 3c-1.1-1-2.2-2-3.2-3.1-1.3-1.4-2.6-2.9-3.8-4.4l-1.2-1.4.5 1.8 1.6 5.1c-2.3-2.1-4.1-4.8-5.5-7.6-.8-1.6-1.5-3.3-2-5-.5-1.7-1-3.5-1.2-5.2l-.2-1.5-.6 1.4c-.5 1.2-.9 2.5-1.1 3.8-.2.9-.3 1.8-.3 2.6-.6-.9-1-1.8-1.5-2.8-.6-1.4-1-2.8-1.4-4.2-.8-2.9-1.3-5.9-1.7-8.8l-.3-2.4-.6 2.4-.7 3.1c-.2-1.3-.5-2.6-.7-3.8 0-.2-.1-.5-.1-.7V175s-.1-.2-.2-.2c-.2-.1-.3 0-.3 0l-.1.1c-.1.2-.1.2-.2.3l-.2.4c-.2.5-.4.9-.5 1.4l-.6 1.6c-.6-2.3-.7-4.7-.5-7.1.2-2.8.7-5.6 1.4-8.2l.4-1.4-1 1.1-5 5.4c.4-2.4 1.4-4.8 2.5-7.1 1.3-2.5 2.9-5 4.6-7.2l.5-.7-.8.2-3.5 1c.6-.7 1.3-1.5 2-2.1.9-.9 1.8-1.8 2.8-2.7 1.9-1.8 3.8-3.5 5.7-5.2l.2-.2-.3-.2-2.1-1.4c1-.6 2.2-1.2 3.3-1.7 1.2-.6 2.5-1 3.8-1.5 2.6-.9 5.2-1.6 7.9-2.3l.2-.1-.2-.2-1.6-1.8c1-.2 2.1-.5 3.2-.6 1.1-.1 2.3-.2 3.4-.2 1.2 0 2.3 0 3.4.1s2.3.3 3.4.5c.4.8 1 1.5 1.6 2.1.6.6 1.3 1.2 2 1.8 1.3 1.1 2.6 2.1 3.9 3.1l-3.8-.4h-.3l.2.2c1.1 1.5 2.4 2.8 3.9 3.9.8.5 1.6.9 2.4 1.3.9.3 1.7.5 2.6.8 3.1 1.1 6.2 2.6 9.2 4l-5.4.5-2.3.2 2.3.3c1.8.2 3.6.8 5.3 1.4 1.7.7 3.4 1.5 5 2.4 3.3 1.8 6.4 3.8 9.5 5.9l.2.2.2-.2c1.5 1.4 3 2.8 4.3 4.4 1.2 1.4 2.3 3 3.2 4.6l-4.4-1.6-2-.7 1.6 1.4c1.8 1.6 3.5 3.3 5 5.1 1.3 1.6 2.6 3.2 3.6 5l-2.1-.3-1.3-.2.9 1c1.1 1.2 2.2 2.4 3.2 3.7.5.6 1 1.3 1.5 1.9.3.4.6.9.9 1.3l-1.8-.2-.7-.1.3.6c1.2 2.6 2.2 5.4 2.8 8.1.3 1.4.6 2.8.7 4.3.1 1.4.1 2.9-.1 4.3.6-2.9.3-5.8-.2-8.7-.6-2.6-1.3-5.2-2.3-7.7l1.9.2.7.1-.3-.7c-.4-.8-.8-1.5-1.3-2.2-.5-.7-1-1.3-1.5-2-.8-.9-1.5-1.9-2.3-2.8l1.8.3 1 .1-.5-.9c-1.2-2.2-2.7-4.1-4.3-6-1.2-1.4-2.5-2.6-3.8-3.9l3.5 1.1.8.2-.4-.7c-1.1-1.9-2.3-3.7-3.8-5.3-1.4-1.5-2.9-2.9-4.6-4.2 1.4-1.9 3-3.6 4.6-5.3 1.6-1.7 3.3-3.3 5.1-4.8l1.4-1.2-1.8.6-4.6 1.6c.8-.5 1.6-1 2.4-1.4 1.5-.9 3-1.7 4.6-2.5 3.1-1.6 6.2-3.1 9.4-4.5l1.7-.8h-7.1c.8-.5 1.7-.9 2.6-1.3 1.3-.6 2.7-1.2 4-1.8l2-.9c.7-.3 1.3-.6 2-1.1.7-.5 1.2-1.3 1.3-2.1.1-.6.1-1.2 0-1.9.5 0 1-.1 1.6 0 .7 0 1.4.1 2.1.1 1 .1 2 .2 3 .4l-1.3.9-1 .6 1.1.2c2.6.6 5.1 1.6 7.5 2.7 2.1 1 4.1 2.1 6.1 3.2l-2.2.7-1.4.4 1.4.5c2.3.8 4.4 2 6.5 3.3 1.6 1 3.2 2.2 4.7 3.3l-3.9-.3-1.6-.1 1.3 1c1.6 1.2 3.2 2.6 4.6 4.2 1.4 1.5 2.6 3.2 3.1 5.2.4 2 .6 4.1.7 6.2.1 1.3.1 2.5.1 3.8l-2.1-5.6-1.5-4.1.6 4.3c.3 2.1.1 4.2-.4 6.3-.4 2.1-1.1 4.2-1.5 6.3-.4 2.2-.6 4.3-.9 6.5l-.3 4.2c-.4-1.2-.8-2.5-1.2-3.8l-.4-1.4-.5 1.4c-.6 1.9-1.5 3.8-2.4 5.6-.6 1.2-1.2 2.4-1.8 3.5l.4-6.8.2-2.8-1.1 2.6c-.7 1.7-1.4 3.4-2.2 5.1-.8 1.6-1.7 3.4-2.8 4.8-1.1 1.4-2.5 2.7-3.8 4-1 .9-2 1.8-3 2.6l3.3-7.6 1-2.4-1.6 2c-1.4 1.7-2.8 3.4-4.3 5s-2.9 3.3-4.5 4.8c-.8.8-1.6 1.5-2.5 2.1-1 .5-1.9 1.1-2.8 1.9-1.4 1.2-2.7 2.5-3.9 3.9.4-1.6.9-3.1 1.4-4.7.7-1.9 1.4-3.8 2.2-5.7l.6-1.5-1.1 1.2c-.5.5-.9 1-1.5 1.5-.6.4-1.1.8-1.8 1.2-1.2.7-2.6 1.2-3.9 1.5l-.2.1v.2l.3 2.6-1.7-1.3-.6-.4.2.7c.7 2.1 1 4.2 1.1 6.4.3 2.4.2 4.4-.3 6.3zm69.4-12.4c-.1 3.4-.2 6.7-.5 10.1l-28-.1c1.3-3.3 2.5-6.5 4-9.7 1.5-3.4 3.1-6.8 4.9-10.2 1.7-3.4 3.6-6.6 5.5-9.8 1.9-3.2 4-6.4 6.2-9.5-2.8 2.6-5.2 5.5-7.5 8.6s-4.2 6.4-6 9.8c-.4.8-.9 1.7-1.3 2.6-.4.9-.8 1.7-1.2 2.6-.7 1.8-1.5 3.5-2.1 5.3-1.2 3.3-2.1 6.8-2.7 10.2l-15.5-.1-24.4.1c.1-1.2.2-2.4.2-3.6 0-2-.4-3.9-.9-5.8l1.6 1.2.4.3-.1-.5-.4-3c1.4-.3 2.7-.8 3.9-1.4.6-.3 1.2-.8 1.8-1.2l.6-.6c-.6 1.5-1.2 2.9-1.7 4.4-.7 1.9-1.3 3.9-1.8 5.9l-.3 1.1.8-.9c1.4-1.6 3-3.2 4.7-4.6.9-.7 1.7-1.3 2.7-1.8 1-.6 1.8-1.4 2.6-2.1 1.6-1.5 3.1-3.2 4.6-4.8.9-1.1 1.8-2.1 2.7-3.2l-3 6.9-.6 1.4 1.2-1c1.5-1.2 2.9-2.4 4.3-3.7 1.4-1.3 2.8-2.6 3.9-4.1 1.2-1.5 2.1-3.2 2.9-4.9.4-.9.9-1.8 1.2-2.7l-.4 6.3-.1 2.1 1-1.9c1-1.8 1.9-3.6 2.8-5.5.7-1.4 1.4-2.9 1.9-4.4.5 1.6 1 3.1 1.6 4.7l.8 2.1.1-2.2c.1-2.2.2-4.3.4-6.5.2-2.1.4-4.3.8-6.4.4-2.1 1.1-4.2 1.5-6.3.2-1.2.4-2.4.5-3.7l1.9 5.2.8 2.2.1-2.4c.1-2.1.1-4.2 0-6.4 0-.6-.1-1.1-.1-1.7 3.1 1.5 6.1 3.1 9.2 4.8.9.5 1.7.9 2.6 1.4.8.5 1.7 1 2.3 1.6 1.3 1.3 2.1 3.1 2.8 4.9l.1.2.2.1c1.4.9 2.8 2.1 3.6 3.6.8 1.5 1.3 3.2 1.6 5 .6 3.5.9 7.2 1 10.8.5 4 .4 7.6.3 11.2z" fill="#411300" stroke-width="none" opacity="1" stroke="none"></path></g><g id="svga-group-head" transform="matrix(1,1.3877787807814457e-16,-1.3877787807814457e-16,1,1.4210854715202004e-14,0)"><g id="svga-group-ears-left-move" transform="matrix(1,0,0,1,0,0)"><g id="svga-group-ears-left"><path id="SvgjsPath7172" d="M68.53 80.36s-11.15-9.8-12.94-9.96c-1.54-.14-5.36 8.01-7.05 13.16-.45 1.36-.34 2.88.25 4.2 1.62 3.57 5.21 11.04 8.43 14.78 0 0 2.72.59 3.58.33.86-.25 7.58-5.67 8.27-7.77s.83-11.3-.54-14.74z" fill="#ffd0bc" stroke-width="none" opacity="1" stroke="none"></path><path id="SvgjsPath7173" d="M69.49 84.19c.18 1.31.28 2.64.33 3.96.05 1.32.06 2.65-.01 3.98a26.7 26.7 0 0 1-.17 1.99c-.05.34-.1.67-.2 1.02s-.28.7-.46.96c-.72 1.11-1.6 1.95-2.47 2.8-.88.84-1.78 1.63-2.71 2.4-.47.38-.93.75-1.42 1.11-.24.18-.49.35-.74.52l-.4.24c-.16.08-.35.17-.53.19-.67.08-1.23-.01-1.82-.09-.58-.08-1.15-.19-1.73-.32l-.13-.03-.08-.1c-1.45-1.74-2.63-3.68-3.74-5.65-1.1-1.98-2.1-4.03-3.06-6.1l-1.41-3.11c-.5-1.05-.71-2.29-.54-3.46.06-.59.26-1.14.44-1.67.18-.54.37-1.07.56-1.6.4-1.05.79-2.11 1.22-3.15.86-2.07 1.76-4.13 2.94-6.02.3-.47.62-.93 1-1.36.19-.21.4-.42.67-.59.13-.08.3-.16.52-.16.19.01.32.07.47.12 1.06.47 1.87 1.14 2.75 1.76 1.72 1.29 3.37 2.66 5 4.09 1.64 1.41 3.22 2.86 4.81 4.38.49 1.27.72 2.58.91 3.89zM58.4 72.51c-.85-.59-1.75-1.26-2.59-1.61-.09-.02-.2-.08-.26-.08-.04 0-.12.02-.2.07-.17.1-.35.25-.51.44-.34.36-.65.8-.94 1.24-1.16 1.8-2.18 3.77-3.11 5.77-.46 1.01-.92 2.02-1.32 3.06-.2.52-.4 1.04-.59 1.57-.19.53-.38 1.05-.45 1.6-.15 1.11.06 2.27.55 3.26.47 1.03.98 2.05 1.49 3.05 1.02 2.02 2.12 3.99 3.26 5.91 1.15 1.91 2.36 3.79 3.76 5.42l-.21-.13c1.09.2 2.3.43 3.29.33.11-.01.18-.06.28-.11l.35-.22.7-.5c.47-.34.93-.71 1.39-1.08.92-.74 1.81-1.52 2.68-2.34.85-.82 1.73-1.66 2.39-2.61.17-.25.29-.46.38-.72.08-.27.14-.58.19-.89.09-.63.17-1.27.21-1.91.1-1.29.14-2.6.15-3.9.01-1.31-.04-2.62-.15-3.92-.11-1.3-.27-2.62-.66-3.84-3.33-2.62-6.67-5.35-10.08-7.86z" fill="#f0b399" stroke-width="none" opacity="1" stroke="none"></path><path id="SvgjsPath7174" d="M68.79 88.66S58.04 75.08 56.02 76.21c-2.01 1.12-5.19 7.53-5.18 9.67.02 3.14 3.34 8.38 5.01 9.96s3.68 2.55 6.35 1.94c2.66-.61 6.59-9.12 6.59-9.12z" fill="#f0b399" stroke-width="none" opacity="1" stroke="none"></path><path id="SvgjsPath7175" d="M60.61 88.64c-.45-1.26-.95-2.5-1.45-3.74a49.61 49.61 0 0 0-1.66-3.64c-.61-1.18-1.22-2.36-1.97-3.45l-.08-.12-.08.12c-.75 1.18-1.45 2.38-2.12 3.62-.33.62-.66 1.25-.96 1.89-.31.64-.57 1.31-.84 1.98l-.04.1.04.12c.46 1.41.96 2.79 1.47 4.18.25.69.54 1.37.83 2.05.3.68.59 1.35.99 2.01l.19.31.25-.23c.34-.31.6-.65.87-1.02.26-.37.49-.76.69-1.17.4-.82.63-1.78.6-2.74v-.06l-.02-.04c-.5-.99-1.03-1.96-1.55-2.94l-.05.03c.42 1.01.83 2.03 1.26 3.03-.04.86-.3 1.68-.68 2.41-.33.62-.77 1.17-1.24 1.65-.26-.49-.5-1.02-.73-1.56l-.81-2.03c-.53-1.32-1.03-2.66-1.52-3.99.45-1.3.94-2.59 1.52-3.82.57-1.23 1.22-2.41 1.96-3.51.67 1.04 1.17 2.23 1.68 3.39l1.54 3.67 1.56 3.67c.52 1.22 1.05 2.45 1.6 3.66l.06-.03c-.41-1.27-.85-2.54-1.31-3.8z" fill="#d17f5b" stroke-width="none" opacity="1" stroke="none"></path></g></g><g id="svga-group-ears-right-move" transform="matrix(1,0,0,1,0,0)"><g id="svga-group-ears-right"><path id="SvgjsPath7176" d="M131.47 80.36s11.15-9.8 12.94-9.96c1.54-.14 5.36 8.01 7.05 13.16.45 1.36.34 2.88-.25 4.2-1.62 3.57-5.21 11.04-8.43 14.78 0 0-2.72.59-3.58.33-.86-.25-7.58-5.67-8.27-7.77s-.83-11.3.54-14.74z" fill="#ffd0bc" stroke-width="none" opacity="1" stroke="none"></path><path id="SvgjsPath7177" d="M131.44 80.33c1.58-1.52 3.17-2.97 4.81-4.38 1.62-1.42 3.28-2.8 5-4.09.88-.63 1.69-1.29 2.75-1.76.16-.04.28-.11.47-.12.21 0 .38.08.52.16.28.17.49.37.67.59.38.43.7.89 1 1.36 1.18 1.89 2.07 3.96 2.94 6.02.43 1.04.82 2.09 1.22 3.15.19.53.38 1.06.56 1.6.18.53.37 1.08.44 1.67.17 1.17-.04 2.41-.54 3.46l-1.41 3.11c-.97 2.06-1.96 4.11-3.06 6.1-1.11 1.98-2.29 3.92-3.74 5.65l-.08.1-.13.03c-.58.13-1.15.23-1.73.32-.59.07-1.16.16-1.82.09-.18-.02-.37-.11-.53-.19l-.4-.24c-.25-.17-.5-.34-.74-.52-.48-.36-.95-.73-1.42-1.11-.93-.76-1.83-1.56-2.71-2.4-.87-.86-1.75-1.69-2.47-2.8a3.42 3.42 0 0 1-.46-.96c-.1-.35-.14-.69-.2-1.02-.08-.67-.14-1.33-.17-1.99-.07-1.33-.07-2.65-.01-3.98.06-1.32.15-2.65.33-3.96.17-1.34.4-2.65.91-3.89zm.06.06c-.4 1.21-.56 2.54-.66 3.84-.1 1.3-.15 2.61-.15 3.92.01 1.31.06 2.61.15 3.9.05.65.12 1.29.21 1.91.06.31.11.62.19.89.09.26.2.47.38.72.66.94 1.54 1.79 2.39 2.61.86.81 1.76 1.59 2.68 2.34.46.37.92.73 1.39 1.08l.7.5.35.22c.1.05.17.1.28.11.99.1 2.2-.13 3.29-.33l-.21.13c1.4-1.63 2.61-3.51 3.76-5.42 1.14-1.92 2.24-3.89 3.26-5.91.51-1.01 1.02-2.02 1.49-3.05.49-.99.7-2.15.55-3.26-.07-.56-.26-1.07-.45-1.6s-.38-1.05-.59-1.57c-.4-1.04-.86-2.06-1.32-3.06-.93-2.01-1.95-3.97-3.11-5.77-.29-.44-.6-.88-.94-1.24-.17-.18-.35-.34-.51-.44a.431.431 0 0 0-.2-.07c-.06 0-.17.06-.26.08-.84.35-1.74 1.02-2.59 1.61-3.39 2.49-6.73 5.22-10.08 7.86z" fill="#f0b399" stroke-width="none" opacity="1" stroke="none"></path><path id="SvgjsPath7178" d="M131.21 88.66s10.75-13.58 12.77-12.45c2.01 1.12 5.19 7.53 5.18 9.67-.02 3.14-3.34 8.38-5.01 9.96s-3.68 2.55-6.35 1.94c-2.66-.61-6.59-9.12-6.59-9.12z" fill="#f0b399" stroke-width="none" opacity="1" stroke="none"></path><path id="SvgjsPath7179" d="M148.54 85.31c-.26-.67-.52-1.34-.84-1.98-.3-.64-.62-1.27-.96-1.89-.67-1.24-1.38-2.44-2.12-3.62l-.08-.12-.08.12c-.74 1.1-1.36 2.27-1.97 3.45-.6 1.18-1.14 2.4-1.66 3.64-.49 1.24-1 2.48-1.45 3.74-.46 1.26-.9 2.53-1.28 3.81l.06.03c.55-1.21 1.07-2.44 1.6-3.66l1.56-3.67 1.54-3.67c.51-1.16 1.01-2.35 1.68-3.39.74 1.1 1.39 2.29 1.96 3.51.58 1.24 1.08 2.52 1.52 3.82-.5 1.34-.99 2.67-1.52 3.99l-.81 2.03c-.23.53-.47 1.07-.73 1.56-.47-.48-.91-1.03-1.24-1.65-.39-.73-.64-1.55-.68-2.41.43-1 .84-2.02 1.26-3.03l-.05-.03c-.52.98-1.05 1.95-1.55 2.94l-.02.04v.06c-.03.96.2 1.92.6 2.74.2.41.43.81.69 1.17.26.36.53.71.87 1.02l.25.23.19-.31c.4-.67.69-1.34.99-2.01.29-.68.57-1.36.83-2.05.51-1.38 1.01-2.77 1.47-4.18l.04-.12-.07-.11z" fill="#d17f5b" stroke-width="none" opacity="1" stroke="none"></path></g></g><g id="svga-group-faceshape-wrap"><g id="svga-group-faceshape-single"><path id="SvgjsPath9241" d="M140.4 54.9c-2.2-10-6.3-16-15.2-20.8-9.3-5-25.2-4.8-25.2-4.8s-15.9-.2-25.2 4.8c-8.8 4.8-13 10.8-15.2 20.8-.9 4 0 13.6 0 13.6s1.19 20.36 2.33 25.75c.61 2.3.88 5.51 6.14 14C75 121 77.59 131.35 80.3 141.4c.25 2.53 2.44 5.17 4.54 6.07 4 1.7 7.66 2.8 11.06 3.4 2.7.5 5.4.5 8 0 3.4-.6 7.08-1.89 11.08-3.49 2.2-.9 3.96-2.86 4.52-5.98 1.8-9.13 6.21-21.09 12.18-31.8 6.09-9.6 5.84-12.09 6.51-15.48.8-5.1 2.01-25.62 2.01-25.62.1-.1 1.1-9.6.2-13.6z" fill="#ffd0bc" stroke-width="none" opacity="1" stroke="none"></path><path id="SvgjsPath9242" d="M140.4 54.9c-2.2-10-6.3-16-15.2-20.8-9.3-5-25.2-4.8-25.2-4.8s-15.9-.2-25.2 4.8c-8.8 4.8-13 10.8-15.2 20.8-.9 4 0 13.6 0 13.6s1.19 20.36 2.33 25.75c.61 2.3.88 5.51 6.14 14C75 121 77.59 131.35 80.3 141.4c.25 2.53 2.44 5.17 4.54 6.07 4 1.7 7.66 2.8 11.06 3.4 2.7.5 5.4.5 8 0 3.4-.6 7.08-1.89 11.08-3.49 2.2-.9 3.96-2.86 4.52-5.98 1.8-9.13 6.21-21.09 12.18-31.8 6.09-9.6 5.84-12.09 6.51-15.48.8-5.1 2.01-25.62 2.01-25.62.1-.1 1.1-9.6.2-13.6zm-.03 10.19-.33 3.24-.07.15c-.36 5.15-.85 10.29-1.34 15.42-.55 5.09-.9 10.37-2.43 15.06-.85 2.32-2.1 4.54-3.39 6.73-.66 1.08-1.35 2.17-2.06 3.26a117.418 117.418 0 0 0-8.31 17.7c-.91 2.44-1.75 4.91-2.5 7.42-.37 1.25-.71 2.52-1.02 3.79-.15.64-.31 1.27-.44 1.92l-.39 1.87c-.26 1.09-.72 2.09-1.4 2.89-.34.4-2.64 1.78-2.64 1.78-2.37.94-4.75 1.85-7.16 2.54-1.21.35-2.41.63-3.64.84-1.19.21-2.41.31-3.62.3-1.22-.01-2.42-.13-3.64-.35-1.24-.21-2.46-.49-3.68-.81-2.42-.65-4.85-1.5-7.12-2.47-1.85-.89-3.56-3.04-3.81-5.07 0 0-2.22-8.04-3.47-11.94-1.26-3.9-2.7-7.75-4.36-11.5-1.67-3.74-3.48-7.43-5.61-10.95-2.12-3.45-4.14-7-5.12-10.89-.24-.98-.5-1.98-.66-2.94-.16-.99-.3-2-.42-3.01-.24-2.02-.45-4.04-.63-6.07-.35-4.05-.63-8.12-.86-12.18l-.16-3.05-.19-3.05c-.1-2.03-.14-4.05-.09-6.07.03-1.01.09-2.01.19-2.99.1-.98.34-1.9.6-2.89.52-1.94 1.15-3.84 1.95-5.66 1.59-3.64 3.99-6.85 7.06-9.31 1.53-1.24 3.18-2.33 4.91-3.3.86-.51 1.74-.89 2.63-1.3.92-.35 1.82-.74 2.77-1.01 1.88-.62 3.82-1.07 5.79-1.45 1.96-.39 3.95-.67 5.95-.9 4-.43 8.02-.67 12.04-.5 4.03.12 8.06.47 12.02 1.22 1.98.35 3.93.88 5.83 1.51 1.9.64 3.7 1.52 5.45 2.53 3.5 1.99 6.64 4.68 8.86 8.08 2.26 3.37 3.53 7.3 4.44 11.25.23 1.1.29 2.24.33 3.37.03 1.13.02 2.27-.03 3.4-.07 1.13-.13 2.26-.23 3.39z" fill="#d17f5b" stroke-width="none" opacity="1" stroke="none"></path></g></g><g id="svga-group-mouth-single-move" transform="matrix(1,0,0,1,0,0)"><g id="svga-group-mouth-single" transform="matrix(1.0000001,0,0,1.0000001,-0.000010015248491868078,-0.000012830851375156271)"><path id="SvgjsPath9379" d="M83.97 125.04c.12-.08 2.71-.87 5.61-1.89 2.72-.96 5.75-2.17 6.12-2.21.78-.08 4.82 3.03 4.82 3.03s3.5-3.19 3.96-3.19c.23 0 3.46 1.14 6.75 2.02 3.36.9 7.4.4 7.4.4s-3.98 2.09-7.29 1.72c-2.91-.32-5.66-1.21-6.09-1.13-.93.16-3.81 3.5-4.35 3.57-.54.08-5.13-3.73-5.52-3.89-.17-.06-2.95 1.05-5.48 1.6-2.99.63-5.93-.03-5.93-.03z" fill="#da7c87" stroke-width="none" opacity="1" stroke="none"></path><path id="SvgjsPath9380" d="M87.82 125.93c.52 1.38 1.02 2.77 1.59 4.13.28.68.57 1.36.91 1.99.08.16.18.31.27.45.08.14.22.28.25.28.06 0 .08.02.17.02l.24.01c.17-.01.35-.02.53-.04 1.43-.17 7.87-2.25 8.26-2.28.37-.03 10.85 2.22 11.57 2.26.18.01.36.01.52.01.06-.01.16-.01.18-.02.03-.01.09-.06.14-.11.21-.23.4-.56.57-.87.68-1.29 1.19-2.68 1.71-4.06-.17.72-.36 1.44-.58 2.14-.22.71-.45 1.41-.75 2.11-.16.34-.31.69-.58 1.02-.08.08-.15.17-.29.24-.07.04-.13.05-.18.06l-.17.03c-.21.02-2.07 0-2.81-.04-2.96-.17-8.25.14-8.61.16-.35.02-9.34.05-9.5.05l-.31-.02c-.1 0-.25-.06-.37-.09-.06-.03-.14-.09-.19-.13a1.42 1.42 0 0 1-.12-.13c-.07-.09-.13-.17-.18-.26-.1-.17-.19-.35-.27-.52-.31-.69-.56-1.39-.8-2.1-.45-1.43-.87-2.84-1.2-4.29z" fill="#e09879" stroke-width="none" opacity="1" stroke="none"></path></g></g><g id="svga-group-eyes-left-move" transform="matrix(1,0,0,1,0,0)"><g id="svga-group-eyes-left"><g id="svga-group-eyesback-left"><path id="SvgjsPath9932" d="M80.2 74.2c7.5 0 13.5 5.8 13.5 13s-6 13-13.5 13-13.5-5.8-13.5-13 6-13 13.5-13z" fill="#ffffff" stroke-width="none" opacity="1"></path></g><g id="svga-group-eyesiriswrapper-left" transform="matrix(1,0,0,1,0,0)"><g id="svga-group-eyesiriscontrol-left" transform="matrix(1,0,0,1,0,0)"><g id="svga-group-eyesiris-left"><path id="SvgjsPath10412" d="M80.2 81.6c3.1 0 5.6 2.5 5.6 5.6s-2.5 5.6-5.6 5.6-5.6-2.5-5.6-5.6 2.5-5.6 5.6-5.6z" fill="#4e60a3" stroke-width="none" opacity="1"></path><path id="SvgjsPath10413" d="M80.2 83.3c2.2 0 3.9 1.7 3.9 3.9s-1.7 3.9-3.9 3.9-3.9-1.7-3.9-3.9 1.7-3.9 3.9-3.9z" fill="#000000" stroke-width="none" opacity="1"></path><path id="SvgjsPath10414" d="m76.1 84.6 4.4 3.1-1.8-5.1c-.3-.4-2.5.8-2.6 2z" fill="#ffffff" stroke-width="none" opacity="1"></path></g></g></g><g id="svga-group-eyesfront-left"><path id="SvgjsPath9940" d="M80.2 73.7c-7.8 0-14.1 6.1-14.1 13.6s6.3 13.6 14.1 13.6 14.1-6.1 14.1-13.6S88 73.7 80.2 73.7zm-4.1 22.5c-3.5 1.1-7-2.2-7.9-4.1-.9-1.8 1.2-5.9 3.2-6.9 2-1.1 14.6-1.2 19.4-2.2 1-.2.9 5.6-.2 6.8s-7.2 4-14.5 6.4z" fill="#ffd0bc" stroke-width="none" opacity="1" stroke="none"></path><path id="SvgjsPath9941" d="m93.4 81.2-1.8.6.8-2.4c-1.9.8-6.5.8-9.9 1.2-3.4.5-12.3 3.1-12.6 4.1-.2.5.1.7.4.8-.1.1-.1.1-.2.1-.5.5-.8 1-1.2 1.5-.7 1.1-1.2 2.3-1.2 3.6 0 .3 0 .7.1 1 .1.3.3.6.5.9.4.5.8 1 1.3 1.4.9.9 2 1.6 3.2 2 .6.2 1.2.3 1.9.3.6 0 1.3-.2 1.9-.4 2.4-.8 4.8-1.6 7.1-2.5 1.2-.5 2.3-1 3.4-1.6 1.1-.6 2.2-1.2 3.3-2 .1-.1.2-.2.3-.4.1-.1.2-.3.2-.4l.3-.9c.1-.6.2-1.3.2-1.9v-1.9c0-.3-.1-.6-.2-.9 0-.2-.1-.3-.2-.4 1.5-.5 2.4-1.8 2.4-1.8zm-2.1 2.4c.1.3.1.6.1.9v1.9l-.3 1.8c-.2.6-.3 1.2-.8 1.6-.5.4-1 .7-1.6 1s-1.1.6-1.7.8c-1.1.5-2.3 1.1-3.4 1.6-2.3 1-4.6 1.9-7 2.7-.6.2-1.2.4-1.8.4-.6 0-1.2-.1-1.8-.3-1.2-.4-2.2-1.1-3.1-2-.4-.4-.8-.9-1.2-1.4-.2-.3-.3-.5-.4-.8-.1-.3-.1-.6-.1-.9.1-1.2.6-2.4 1.3-3.4.3-.5.7-1 1.1-1.4.1-.1.3-.2.4-.4.1 0 18.3-1.9 19.8-2.4.1 0 .2-.1.3-.1.1.1.1.2.2.4z" fill="#000000" stroke-width="none" opacity="1" stroke="none"></path></g></g></g><g id="svga-group-eyes-right-move" transform="matrix(1,0,0,1,0,0)"><g id="svga-group-eyes-right"><g id="svga-group-eyesback-right"><path id="SvgjsPath9933" d="M119.8 74.2c7.5 0 13.5 5.8 13.5 13s-6 13-13.5 13-13.5-5.8-13.5-13 6-13 13.5-13z" fill="#ffffff" stroke-width="none" opacity="1"></path></g><g id="svga-group-eyesiriswrapper-right" transform="matrix(1,0,0,1,0,0)"><g id="svga-group-eyesiriscontrol-right" transform="matrix(1,0,0,1,0,0)"><g id="svga-group-eyesiris-right"><path id="SvgjsPath10415" d="M119.8 82.3c2.7 0 4.9 2.2 4.9 4.9s-2.2 4.9-4.9 4.9-4.9-2.2-4.9-4.9 2.2-4.9 4.9-4.9z" fill="#4e60a3" stroke-width="none" opacity="1"></path><path id="SvgjsPath10416" d="M119.8 83.8c1.9 0 3.4 1.5 3.4 3.4s-1.5 3.4-3.4 3.4-3.4-1.5-3.4-3.4 1.5-3.4 3.4-3.4z" fill="#000000" stroke-width="none" opacity="1"></path><path id="SvgjsPath10417" d="m116.2 84.9 3.8 2.7-1.5-4.5c-.2-.3-2.2.8-2.3 1.8z" fill="#ffffff" stroke-width="none" opacity="1"></path></g></g></g><g id="svga-group-eyesfront-right"><path id="SvgjsPath9942" d="M119.8 73.7c-7.8 0-14.1 6.1-14.1 13.6s6.3 13.6 14.1 13.6 14.1-6.1 14.1-13.6-6.3-13.6-14.1-13.6zm4 20.5c-1.9-.8-12.4-4.4-13.4-5.6-1-1.1-1.2-5.3-.2-5.1 4.6 1 16.5 1.1 18.4 2.2 1.9 1 3.9 4.9 3 6.7-.9 1.8-5.9 2.5-7.8 1.8z" fill="#ffd0bc" stroke-width="none" opacity="1" stroke="none"></path><path id="SvgjsPath9945" d="M131.8 90c-.3-1.2-.9-2.2-1.6-3.2-.2-.3-.4-.5-.7-.8.3-.1.5-.3.4-.7-.3-.8-8.2-1.7-11.4-2.1s-7.6-.4-9.4-1.1l.3.7-1.7-.5s.9 1 2 1.6c0 0 0 .1-.1.1-.1.3-.1.6-.1.9 0 .6 0 1.2.1 1.8.1.6.2 1.2.5 1.7.1.3.4.5.6.7.2.2.5.3.8.4 2.1 1.1 4.2 1.9 6.3 2.7l6.5 2.3c1.1.2 2.3.2 3.4 0s2.3-.5 3.3-1.1c.2-.2.5-.4.7-.6.2-.3.3-.6.3-.9.1-.7 0-1.3-.2-1.9zm-.4 2.5c-.1.2-.3.4-.6.6-.9.6-2 1-3.1 1.2-1.1.2-2.3.3-3.4 0s-2.1-.8-3.2-1.2l-3.2-1.3c-1.1-.4-2.1-.8-3.2-1.3-1.1-.4-2.1-.8-3.1-1.3-.2-.1-.5-.2-.8-.4-.2-.1-.4-.3-.6-.5-.3-.5-.4-1-.6-1.6s-.2-1.1-.2-1.7c0-.3 0-.6.1-.8v-.1c.1.1.2.1.4.2 5.5 2.1 18.3 2 18.8 2 .4.3.7.6 1 .9.7.9 1.2 1.9 1.6 3 .1.5.2 1.1.2 1.6.1.2 0 .4-.1.7z" fill="#000000" stroke-width="none" opacity="1" stroke="none"></path></g></g></g><g id="svga-group-facehighlight-single"></g><g id="svga-group-eyebrows-left-move" transform="matrix(1,0,0,1,0,0)"><g id="svga-group-eyebrows-left-rotate" transform="matrix(1,1.7453292519943295e-9,-1.7453292519943295e-9,1,1.2391838311032188e-7,-1.3753196981269866e-7)"><g id="svga-group-eyebrows-left"><path id="SvgjsPath10506" d="M92.8 69.5s-.2 3.9-1 7.1c0 0-16.1-4.6-18-4.8-1.9-.2-8.4 4.1-8.4 4.1l6.5-9.8 3.8.3-.6-.9 8 1.9 7.5 1.2.5 2.8.4-2.8.5 2.8.8-1.9z" fill="#2a232b" stroke-width="none" opacity="1"></path><path id="SvgjsPath10507" d="m92.8 69.5-.1.1c-.1.3-.2.5-.4.8-.1.2-.2.4-.3.7l-.4-2.5-.2-.9-.2.9-.3 1.6-.3-1.6v-.2h-.2l-3.9-.7-1.9-.3c-.6-.1-1.3-.2-1.9-.3-2.6-.6-5.1-1.2-7.7-1.8l-.8-.2.5.8.3.1-3.1-.2h-.2l-.1.1c-1.1 1.7-2.1 3.3-3.2 5l-3.2 5-.4.6.6-.4c1.9-1.3 3.9-2.5 6-3.4.5-.2 1.1-.4 1.6-.6.3-.1.5-.1.8-.1l.4.1.4.1c1.1.3 2.3.6 3.4.9 2.3.7 4.5 1.3 6.8 1.9 2.3.6 4.5 1.2 6.8 1.8l.2.1v-.2c.3-1.2.4-2.4.6-3.6.1-.6.1-1.2.2-1.8 0-.3 0-.6.1-.9V69.6l.1-.1c0 .1 0 0 0 0zm-.1.4-.1.4-.1.9-.3 1.8c-.2 1.1-.4 2.2-.7 3.3-2.2-.7-4.4-1.3-6.6-2-2.3-.7-4.5-1.3-6.8-1.8-1.1-.3-2.3-.5-3.4-.8l-.4-.1-.4-.1c-.3 0-.6 0-.9.1-.6.2-1.1.4-1.6.6-1.9.9-3.7 1.9-5.5 3.1l2.9-4.2c1.1-1.6 2.2-3.2 3.2-4.7l3.6.3.7.1-.4-.7-.1-.1c2.3.6 4.6 1.1 6.9 1.6l3.9.6 3.7.5.5 2.5.2 1.2.2-1.2.3-2 .4 1.9.1.3.1-.3.3-.9c.1-.3.2-.6.3-.8v.5zm-2.9 4.7c0-.8-.1-1.7-.2-2.5-.1-.4-.1-.8-.2-1.2s-.2-.8-.4-1.2c.1.4.1.8.1 1.2 0 .4.1.8.2 1.2.1.8.3 1.7.5 2.5zm-1.2-1.7c-.2-.3-.3-.7-.5-1l-.5-1-1-1.9-.2-.5v.6c0 1.6 0 3.2.1 4.8l.3-.1c-.3-.4-.6-.9-.9-1.3l-.9-1.2c-.3-.4-.6-.8-1-1.2-.3-.4-.7-.8-1.1-1.1.3.4.7.8 1 1.2l.9 1.2c.3.4.6.8.9 1.3.3.4.6.9.8 1.3l.3.5v-.6c0-1.6-.1-3.2-.1-4.8l-.2.1 1.1 1.9.6.9c0 .3.2.6.4.9z" fill="#1b141c" stroke-width="none" opacity="1"></path></g></g></g><g id="svga-group-eyebrows-right-move" transform="matrix(1,0,0,1,0,0)"><g id="svga-group-eyebrows-right-rotate" transform="matrix(1,1.7453292519943295e-9,-1.7453292519943295e-9,1,1.2705996255135688e-7,-2.123193070246998e-7)"><g id="svga-group-eyebrows-right"><path id="SvgjsPath10508" d="M107.2 73.2s.9 3.1 2.3 5.5c0 0 14.9-6.1 16.8-6.5 1.9-.4 9 2 9 2l-8.2-6.9-3.6.8.4-.8-7.5 2.7-7.1 2v2.3l-.9-2.2v2.3l-1.2-1.2z" fill="#2a232b" stroke-width="none" opacity="1"></path><path id="SvgjsPath10509" d="m135.4 74.1-4-3.5c-1.3-1.2-2.7-2.3-4.1-3.5l-.1-.1h-.1l-3 .6.1-.2.4-.7-.8.3c-2.4.8-4.8 1.7-7.2 2.6l-1.8.6-1.8.6-3.7 1.1h-.2v1.5l-.6-1.3-.3-.7v.7l.1 2c-.1-.2-.3-.3-.4-.5-.2-.2-.3-.4-.5-.6l-.1-.1V73.2l.1.2.1.4c.1.2.2.5.2.7.2.5.3.9.5 1.4.3.9.8 1.9 1.2 2.8l.1.2.2-.1c2.1-.8 4.2-1.6 6.4-2.5 2.1-.8 4.2-1.7 6.3-2.5 1.1-.4 2.1-.8 3.2-1.2l.4-.1.4-.1c.3-.1.5-.1.8-.1.6 0 1.1.1 1.7.2 2.2.4 4.4 1.1 6.6 1.8l.6.2-.7-.4zm-8.3-2.1c-.3 0-.6 0-.9.1l-.4.1-.4.1c-1.1.3-2.2.7-3.2 1.1-2.2.8-4.3 1.6-6.4 2.4-2.1.8-4.1 1.7-6.1 2.6-.5-.8-.9-1.7-1.2-2.5-.2-.4-.4-.9-.6-1.4l-.3-.7-.1-.3-.1-.2v-.1c.2.2.3.4.4.6.2.2.3.4.5.7l.2.2V72.8l.6 1.5.4.9v-3.1l3.6-1c1.2-.3 2.5-.7 3.7-1 2.2-.8 4.3-1.5 6.5-2.3v.1l-.3.6.7-.2 3.5-.8c1.3 1.1 2.7 2.2 4 3.3l3.6 2.9c-2-.6-3.9-1.2-6-1.6-.6.1-1.1 0-1.7-.1zm-16 4.7c-.2-.7-.2-1.3-.2-2v-1c0-.3 0-.7.2-1 0 .3.1.7.1 1s.1.7.1 1c-.1.7-.1 1.4-.2 2zm.9-1.5c.1-.3.2-.6.3-.8l.3-.8.6-1.7.2-.4.1.4c.3 1.3.5 2.6.8 3.8h-.3l.6-1.2c.2-.4.4-.8.7-1.1.2-.4.5-.7.7-1.1s.5-.7.8-1c-.3.3-.5.7-.7 1.1-.2.4-.4.7-.7 1.1l-.6 1.2-.6 1.2-.2.4-.1-.4c-.3-1.3-.5-2.6-.8-3.8h.3l-.7 1.6-.4.8c0 .2-.1.4-.3.7z" fill="#1b141c" stroke-width="none" opacity="1"></path></g></g></g><g id="svga-group-beardwrap"><g id="svga-group-beard-single-move" transform="matrix(1,0,0,1,0,0)"><g id="svga-group-beard-single"></g></g></g><g id="svga-group-mustache-single-move" transform="matrix(1,0,0,1,0,0)"><g id="svga-group-mustache-single"><path id="SvgjsPath9141" d="M69.7 129.1s4.9-18.3 31-18.7 32.3 21.2 32.3 21.2-8.6-4.7-15.5-6.2c0 0 0-2.9-1-6.4l-.2 6.2s-6.9-1.2-9.8-1.4l-.7-5.5-.9 5.3-5.7.2.2-4.5-1.9 4.5s-7.4.3-12.4 1.4l.5-4.5-2.4 5c-.1.1-3.9-.3-13.5 3.4z" fill="#2a232b" stroke-width="none" opacity="1" stroke="none"></path><path id="SvgjsPath9142" d="M133.1 131.6c-2.2-6.3-6.5-11.9-12-15.7-1.3-1-2.9-1.7-4.3-2.6l-2.3-1c-.4-.2-.8-.3-1.2-.5l-1.2-.3-2.4-.7-2.5-.4c-1.7-.3-3.3-.3-5-.4-3.4-.1-6.7.2-10 .8-3.3.8-6.6 1.7-9.5 3.3-5.9 3.2-10.9 8.4-12.9 14.9l3.3-1.1c1.1-.3 2.2-.7 3.3-1 1.1-.3 2.2-.5 3.4-.7 1.1-.2 2.3-.3 3.4-.3h.2l.1-.2 1.6-3.2-.3 2.6-.1.5.5-.1c4.1-.8 8.2-1.1 12.4-1.2h.3l.1-.3.8-1.9-.1 1.7v.6h.6l5.7-.2h.4l.1-.4.3-1.8.2 1.9.1.4h.4c1.6.1 3.3.3 4.9.6 1.6.2 3.3.5 4.9.8l.5.1v-.5l.1-3.2v.1c.2 1.1.3 2.1.3 3.2v.3l.2.1c2.7.6 5.3 1.5 7.9 2.5 2.6 1.1 5.1 2.2 7.6 3.5l.4.2-.2-.4zm-15.3-6.4c0-1-.1-2-.3-3-.2-1.1-.4-2.2-.7-3.2l-.7-2.4-.1 2.5-.2 5.7c-1.5-.3-2.9-.5-4.4-.7-1.5-.2-3-.4-4.6-.6l-.6-5.1-.4-3.7-.6 3.6-.8 4.9-4.7.2.1-3.9.1-2.8-1.1 2.6-1.8 4.2c-2 .1-4 .3-5.9.5-1.9.2-3.8.5-5.7.9l.4-4 .2-1.9-.8 1.8-2.3 4.9c-1.2 0-2.2.2-3.3.4-1.1.2-2.3.5-3.4.8-1.1.3-2.2.7-3.3 1.1l-1.6.6-1.6.7c.6-1.5 1.3-3 2.2-4.4.5-.7.9-1.4 1.4-2 .3-.3.5-.7.8-1l.8-.9c2.2-2.4 4.9-4.4 7.9-5.9 2.9-1.6 6.1-2.4 9.3-3.2 3.2-.6 6.6-.8 9.9-.8 1.7.1 3.3 0 4.9.4l2.4.3 2.4.6 1.2.3c.4.1.8.3 1.2.4l2.3.9c1.5.8 3 1.4 4.3 2.4 5.4 3.5 9.6 8.9 11.8 15-2.4-1.2-4.7-2.4-7.2-3.4-2.3-1.2-4.9-2.1-7.5-2.8zm-20.7-14.3c-.4.4-.6 1-.8 1.5-.2.6-.4 1.1-.6 1.7-.4 1.1-.7 2.3-1 3.4l-1 3.4c-.3 1.1-.7 2.3-1.1 3.4.2-2.4.7-4.8 1.3-7.1.3-1.2.7-2.3 1.2-3.4.2-.6.5-1.1.8-1.6.4-.4.7-1 1.2-1.3zm-11.9 2.7c-1.6 1.7-3.1 3.4-4.4 5.2-1.4 1.8-2.6 3.8-3.8 5.8.3-1.1.8-2.2 1.3-3.2s1.2-2 1.9-3c1.3-1.9 3-3.6 5-4.8zm24.4-2.2c.7.6 1.1 1.4 1.5 2.3s.7 1.7.9 2.6c.5 1.7.7 3.5.7 5.3-.6-1.7-.9-3.4-1.4-5.2-.2-.9-.5-1.7-.7-2.5-.3-.9-.6-1.7-1-2.5zm9.1 3.5c1 .8 1.8 1.8 2.5 2.8.7 1 1.3 2.1 1.9 3.2.6 1.1 1 2.3 1.4 3.5.4 1.2.6 2.4.7 3.7-.4-1.2-.8-2.3-1.3-3.5-.5-1.1-.9-2.3-1.5-3.3-.5-1.1-1.1-2.2-1.7-3.2-.3-.5-.6-1.1-.9-1.6-.4-.6-.7-1.1-1.1-1.6zm-24.8-3.8c-.7.7-1.2 1.4-1.7 2.2-.5.8-.9 1.6-1.4 2.4-.4.8-.8 1.7-1.1 2.6l-.9 2.7c0-.9.1-1.9.3-2.8.2-.9.6-1.8 1-2.7.9-1.8 2.1-3.4 3.8-4.4z" fill="#1b141c" stroke-width="none" opacity="1" stroke="none"></path></g></g><g id="svga-group-nose-single-move" transform="matrix(1,0,0,1,0,0)"><g id="svga-group-nose-single"><path id="SvgjsPath9312" d="M103.78 79.27s-5.31-.41-8.3.62-2.96 2.84-2.86 4.28.2 4.84.82 5.76-.1 2.58-.41 3.2.25 6.61.66 8.26c.41 1.65.99 3.71.37 4.13s-3.1 1.24-3.2 2.17 2.79 7.95 3.41 8.47 11.05.41 11.98.52 4.44-7.12 4.03-8.36-3.72-1.45-4.03-2.37 1.4-13.03 1.19-13.65-.26-2.75.36-4.2.33-6.27.27-6.7c-.27-1.7-3.67-1.92-4.29-2.13z" fill="#f7c1aa" stroke-width="none" opacity="1" stroke="none"></path><path id="SvgjsPath9313" d="M103.77 79.32c-2.16-.13-4.39-.07-6.51.36-1.05.22-2.1.54-2.95 1.11-.42.29-.78.64-1 1.07-.22.42-.31.9-.32 1.41-.01.5.07 1.05.1 1.6l.12 1.63c.05.54.11 1.08.18 1.6.08.52.17 1.06.35 1.46l.2.36c.07.17.12.34.15.51.05.34.03.65-.02.96-.1.6-.3 1.15-.55 1.67-.05.12-.15.3-.14.29-.02.08-.04.21-.04.34-.02.26-.02.52-.02.79 0 .54.02 1.08.05 1.62.06 1.09.14 2.18.25 3.26.06.54.12 1.08.21 1.61.09.52.24 1.06.35 1.6.12.54.23 1.08.29 1.64.02.28.04.57-.01.86-.03.15-.07.31-.18.45-.13.16-.27.21-.39.28-.5.25-1 .46-1.48.71-.47.25-.97.52-1.27.9-.07.1-.12.2-.13.3-.01.09.02.23.04.35.06.26.13.52.22.78.16.52.35 1.03.54 1.54.38 1.02.81 2.03 1.26 3.02.23.5.46.99.71 1.47.12.24.25.48.39.71.07.11.14.23.21.31.03.05.07.07.05.06.02.01.08.03.14.04.49.09 1.05.11 1.59.14.54.02 1.09.03 1.63.04 2.18.02 4.37.02 6.56.02.55 0 1.09 0 1.66.02l.22.01c.02 0 .06.01.05 0-.02-.01-.05 0-.06 0l-.03.01c.02-.01.11-.08.18-.16.16-.17.31-.38.46-.59.58-.87 1.08-1.84 1.54-2.81.45-.97.87-1.98 1.18-2.98.07-.25.14-.5.18-.74.04-.23.05-.48.02-.49-.08-.22-.55-.49-1.02-.67-.48-.2-.99-.36-1.53-.56-.27-.11-.54-.21-.84-.39-.15-.09-.3-.2-.45-.39-.07-.1-.15-.22-.19-.35-.02-.06-.03-.13-.04-.19l-.01-.13c-.02-.64.03-1.16.08-1.72l.16-1.65c.23-2.19.52-4.36.81-6.53.14-1.08.31-2.18.39-3.23 0-.07.01-.13.01-.18V92.41l-.02-.06c-.04-.16-.06-.31-.07-.45-.03-.29-.03-.57-.03-.86.01-.56.08-1.12.19-1.68.06-.28.13-.55.22-.82.09-.27.22-.54.3-.76.16-.5.22-1.04.28-1.58.11-1.08.11-2.18.09-3.27-.03-.54-.02-1.1-.11-1.62-.13-.52-.59-.88-1.06-1.12-.97-.51-2.07-.63-3.14-.87zm.02-.1c1.06.23 2.18.35 3.18.85.49.24.98.62 1.13 1.19.1.56.1 1.1.13 1.65.06 1.1.08 2.19.04 3.3-.03.55-.06 1.1-.2 1.66-.08.3-.19.53-.25.78-.07.25-.12.51-.16.78-.08.53-.1 1.06-.08 1.59.01.26.03.53.07.78.02.12.05.25.08.35l.01.04.02.09c.01.07.01.11.02.15.01.08.01.16.01.23-.02 1.13-.12 2.21-.21 3.31-.19 2.19-.42 4.36-.63 6.53l-.14 1.63c-.04.53-.08 1.1-.06 1.56.02.15-.01.04.01.09.02.03.09.09.18.14.17.11.41.21.65.3.49.19 1.02.35 1.56.57.27.11.54.24.82.41.27.18.57.41.76.81.02.05.04.1.06.16.02.07.03.13.04.19.02.11.02.21.01.3-.01.18-.03.33-.06.49-.06.3-.14.58-.22.85-.35 1.09-.8 2.1-1.28 3.1-.49 1-1.01 1.98-1.66 2.92-.17.24-.34.47-.56.7-.12.11-.23.23-.45.35-.06.03-.13.06-.23.07-.04.01-.11.01-.16.01h-.05l-.19-.01-1.63-.05c-2.19-.06-4.38-.09-6.58-.21-.55-.03-1.1-.07-1.65-.11-.55-.05-1.09-.09-1.68-.22-.08-.02-.15-.04-.25-.09-.02-.01-.06-.03-.09-.06-.03-.02-.04-.04-.06-.06a.73.73 0 0 1-.09-.11c-.1-.13-.16-.25-.24-.38-.14-.25-.26-.5-.38-.75a49.4 49.4 0 0 1-.66-1.51c-.42-1.02-.82-2.04-1.2-3.07-.19-.52-.37-1.04-.53-1.57-.08-.27-.16-.53-.21-.81-.02-.14-.06-.28-.04-.46.02-.18.11-.32.2-.45.39-.47.9-.72 1.38-.99.49-.26 1-.48 1.47-.72.12-.06.24-.13.28-.19a.87.87 0 0 0 .11-.31c.03-.24.01-.51-.02-.77-.07-.53-.19-1.06-.33-1.59-.13-.53-.3-1.04-.42-1.6-.12-.55-.21-1.09-.29-1.63-.16-1.09-.3-2.18-.4-3.28-.05-.55-.1-1.1-.12-1.66-.01-.28-.02-.56-.01-.85.01-.15.01-.29.04-.48.07-.28.13-.33.18-.46.21-.47.38-.97.44-1.45.03-.24.04-.47 0-.68-.02-.1-.05-.19-.09-.28l-.2-.36c-.26-.6-.34-1.16-.43-1.72-.08-.56-.13-1.11-.17-1.66l-.09-1.65c-.01-.54-.07-1.08-.04-1.68.02-.58.16-1.21.49-1.74.31-.54.79-.94 1.29-1.24 1.01-.6 2.13-.84 3.23-.98 1.1-.15 2.2-.15 3.3-.17 1.1.03 2.19.05 3.3.13z" fill="#d17f5b" stroke-width="none" opacity="1" stroke="none"></path><path id="SvgjsPath9314" d="M97.96 113.62c-.07-.26-.22-.5-.35-.73-.14-.24-.28-.51-.53-.64-.3-.16-.79.03-.75.43.03.29.17.48.3.73.11.21.18.44.29.65.31.56 1.21.18 1.04-.44z" fill="#d17f5b" stroke-width="none" opacity="1" stroke="none"></path><path id="SvgjsPath9315" d="M103.46 112.66c-.02-.42-.52-.52-.75-.2-.35.49-.77 1.13-.79 1.74-.02.69.92.89 1.25.34.32-.52.31-1.29.29-1.88z" fill="#d17f5b" stroke-width="none" opacity="1" stroke="none"></path></g></g><g id="svga-group-hair-front"><path id="SvgjsPath11158" d="M151.4 72.2c.5-1.9.6-4.1-.1-5.9-.4-.9-1.1-1.9-1.9-2.6.3-1.5.2-3-.4-4.4-.4-.8-.9-1.3-1.4-1.7-.3-.6-.7-1.1-1.2-1.5.1-.3.1-.6.2-.9 1.9-1.7 2.7-4.9 2.2-7.2-.4-1.6-1.5-3.3-3-4.3-.2-.8-.5-1.5-.8-2.1-1.3-2.3-3.5-3.7-5.8-4.6-.5-3.2-2.4-5.8-5.5-6.3-.1-.2-.1-.4-.2-.6-1.1-2.7-3.6-4-6.4-4.1-1.7-.1-3.4.5-5.2.5-1.8 0-3.3-.8-4.8-1.7-.8-1.9-2.3-3.4-4.1-4.5l-.4-.4c-.2-.2-.5-.2-.8-.2-.1 0-.1 0-.2-.1-.2-.3-.6-.6-1-.8-.4-.1-.8.2-.8.6 0 1 .1 1.9-.2 2.6-.2.2-.3.5-.5.8-.1.1-.3.3-.4.5-.3.2-.6.4-.8.6-1.4-.3-2.9 0-4.6 0-2.4-.1-4.1-1.3-5.4-2.9-.1-.7-.1-1.4-.1-2.1.1-.4.2-.7.3-1.1v-.2c.1-.1.3-.1.4-.2.1 0 .1-.1.2-.1.3 0 .7-.1 1-.2.5-.1.7-.7.3-1.1-1.4-1.4-3.8-.8-5.3.1-.1 0-.1.1-.2.1-1.4.5-2.6 1.7-3.1 3.6-.2.7-.3 1.3-.3 2-1.9-.3-4 1.2-5.4 2.7-1.1-1.1-3.2-1.8-4.8-1.9-.3-.1-.6-.2-.9-.2-1-.1-2 .1-2.8.6-.2.1-.4.1-.6.2-.2.1-.4.3-.4.6-1.6 1.1-2.4 3-2.4 4.9-.3.4-.6.7-1 1.1l-1 1c-.6.1-1.3.1-2.1 0-1.7-.3-3.2-1.2-4.9-1.4-2.6-.2-4.3 1.3-4.2 3.8 0 .1 0 .2.1.3-.4.1-.8.3-1.2.4-1.7.7-3.3 1.9-3.9 3.7-.6 1.8.3 2.6.7 4.2.7 2.4-2.1 3.2-3 5.3-.6 1.4-.5 2.8.1 4.2.1.2.3.5.4.8-.6 1-.7 2.6-.4 4.2-2.4-1.1-5-2-5.2-4.3 0-.5-.9-.8-1-.1-.4 2.2.3 3.7 2.2 4.9 1.3.9 3 1.3 4.3 2.4-.2.1-.3.3-.3.6 0 .6-.2 1.2-.5 1.8 0 .1-.1.1-.1.2v.1c-1 1.7-3 3.5-3.7 5.1-.2.6-.4 1.2-.6 1.9-1.6.7-2.9 3-3.4 4.3-1.2 3-.9 6.5 1.7 8.6.4.3 1 0 .9-.5-.7-2.5-.6-5.4.6-7.7-.3 2.1.6 3.8 2.7 4.6 1.3.5 2.6.4 3.9.6.8.1 1.6.2 2.3.8.3.2.5.6.7.9-.2.4-.4.8-.4 1.4-.4.7-.7 1.4-.9 2.1-.4 1.1-.5 2.3-.2 3.4.8 2.4 3.2 2.5 5.2 1.7.9-.4.5-1.9-.5-1.8-.5 0-1.4.1-1.8-.3-.5-.5-.2-1.4 0-2 .4-1.1 1-2.4.5-3.5.1-.1.2-.3.3-.4v-.2c.9-.7 1.9-1.4 2.5-2.3.6-1.2.5-2.5-.2-3.5 2.8-1 3.9-5.1 3-7.8-.2-.5-.5-1.1-.9-1.6-.7-2-1.7-3.3-1.2-5.6.2-1.2.7-2 1.4-2.8-.8 2.5-.3 5.7 2.6 6.4.3.1.6-.3.3-.6-5.1-4.3 4.8-9.5 7.3-12.9.2-.2.3-.5.5-.8.6 2.2 2 4.3 4.2 4.5.7.8 1.6 1.2 2.8 1.2.1 0 .2 0 .3-.1 1 .4 2.1.5 3.1-.2.4-.3.3-.8-.1-1-.7-.2-1.3-.3-1.9-.5-.4-1.1-.8-2.2-.9-3.2 2.4-6.2 10-5.6 14.4-9.7 1.3 1.2 2.8 1.7 4.7 1.9 1.3.1 2.6.2 3.7.9 1.1.8 1 1.9 1.2 3.1.1.8 1 1.1 1.7.9-.4 2-1.9 3.2-2.9 5-.2.4 0 1 .5.9.6-.1 1.1-.2 1.6-.5.5-.1.9-.3 1.4-.5 4.8 0 6.2-5.4 5.8-9.5.9 2.2 2.6 4 4.7 5 .9.5 2.4.8 3.9.9.1 0 .1 0 .1.1 1.1.4 2 1.1 2.8 2 .6.7 1 1.7 1.9 2 .5 2.1 2.1 4.4 4 4.9.2 0 .4.1.6.1.4.4.9.7 1.3 1 .6.4 1.3.6 2 .8.8 2.5-.3 4-1.6 6.1-1.5 2.5-1.3 4.8.5 7 .1.2.3.2.5.2-.9 2.7-1 5.7 1 7.8.5 1.8 2.1 4.2 4.3 3.6.3-.1.6-.5.3-.8-.6-.7-1.2-1.3-1.7-1.9 0-.1.1-.1.1-.2 1-3.6 6-3.4 8.1-6.3v.1c-.4 2.4-.4 5.2 1.6 6.8.4.3.9-.1.9-.5-.1-1.6-.7-2.9-.4-4.5.1-2 1-3.2 1.5-4.6zm-39.8-46.7c-.1 0-.1 0-.2.1-.2.1-.3.3-.4.4-.3-.3-.6-.6-.8-.9.1-.1.2-.2.3-.4.4-.5.8-1.2.9-1.9.1-.1.1-.3.2-.4.1 1.1.1 2.1 0 3.1z" fill="#504543" stroke-width="none" opacity="1" stroke="none"></path><path id="SvgjsPath11159" d="M95 39.5c-.7.8-1.6 1.5-2.6 1.9-2 .9-4.4 1.3-6.7 2.6-1.1.7-2.2 1.5-2.9 2.7-.7 1.2-1.1 2.7-.7 4.1.3 1.4 1.3 2.5 2.5 3.1 1.2.6 2.6.6 3.7 0-1.3.1-2.4-.2-3.3-.9-.8-.6-1.4-1.6-1.5-2.6-.3-2 1.2-3.7 3.1-4.7 1.8-1.1 4.3-1.6 6.5-3 1.1-.7 2.1-1.6 2.7-2.7.6-1.1.9-2.5.4-3.7 0 1.3-.5 2.4-1.2 3.2zM78.8 52.6c-.9-.6-1.7-1.4-2.3-2.3-.6-1-1.1-2-1.2-3.4-.7 1.2-.7 2.7-.2 4 .5 1.3 1.4 2.5 2.6 3.3 1.2.8 2.6 1.2 3.9 1.3 1.4.1 2.7-.1 3.9-.6-1.3-.3-2.5-.5-3.7-.9-1-.3-2.1-.8-3-1.4zM72.2 44c.9 1.8 1 3.7.4 5.4-.3.8-.7 1.5-1.4 2.1-.6.6-1.4 1.1-2.2 1.6-.8.5-1.7 1.1-2.5 1.8-.8.8-1.5 1.7-1.8 2.9-.5 2.4 1.1 4.7 3.1 5.1-1.6-1.2-2.1-3.2-1.6-4.7.6-1.5 2.2-2.4 3.8-3.5.8-.5 1.7-1.1 2.5-2 .8-.8 1.3-1.9 1.5-3 .5-2.1-.2-4.4-1.8-5.7zm-8.4-14c1.1.1 2.2.6 3.4 1 1.2.4 2.6.8 4.1.4.7-.2 1.5-.6 2.1-1.2.6-.6.9-1.4 1.1-2 .3-1.4.4-2.5.9-3.4.4-.9 1.3-1.5 2.3-2 2-.8 4.5-.2 6.7 1-.9-.9-1.9-1.7-3.2-2.2-1.2-.5-2.7-.6-4-.3-1.4.3-2.7 1.2-3.5 2.5-.8 1.4-.8 2.7-1.1 3.8-.3 1.1-.7 1.7-1.7 1.9-.4.1-1 .2-1.5.2s-1.1-.1-1.7-.2c-1.2-.2-2.5-.6-3.8-.5-.7.1-1.3.3-1.9.6-.6.3-1 .9-1.2 1.5.6-1 1.8-1.2 3-1.1zm-8.5 22.6c-1.8-1.3-2.6-3.5-2-5.2.3-.9.8-1.7 1.5-2.2.3-.2.8-.5 1.3-.9.3-.2.5-.4.8-.8.3-.3.5-.8.5-1.3s-.2-1-.3-1.3c-.2-.3-.4-.6-.6-.8-.3-.4-.4-.6-.5-1-.2-.7.1-1.6.6-2.3.5-.7 1.4-1.2 2.4-1.3 1-.2 2.1-.1 3.2.1-.9-.6-2-1-3.2-1.1-1.2 0-2.5.3-3.5 1.3-.9.9-1.5 2.2-1.3 3.7 0 .7.5 1.5.9 1.9.4.5.5.7.5.8 0 0 0 .1-.1.2l-.4.4c-.4.3-.8.5-1.4 1-1 .9-1.7 2-1.9 3.3-.2 1.2.1 2.6.7 3.6.7 1 1.7 1.7 2.8 1.9zm1.6 35.5c-1.1-1.2-1.2-3.2-.2-4.6.2-.4.6-.9.8-1.6.3-.7.3-1.6-.1-2.3-.8-1.3-2.2-1.8-3.4-1.8-1.2 0-2.2.2-3.1.2-.9-.1-1.9-.4-2.4-1.4 0 .5.3 1.1.7 1.5.4.4.9.7 1.5.9 1.1.3 2.2.3 3.1.4.5.1.8.2 1.2.4.3.2.6.5.7.7s.1.4 0 .7c-.1.3-.4.7-.7 1.2-1.4 2.1-1.2 5.2.9 6.8 2 1.7 5.2.8 6-1.3-1.5 1.6-3.9 1.4-5 .2zM64 63c-.8-.7-1.6-1.3-2.2-2.1-.6-.8-1-1.8-.8-2.8-.6.9-.5 2.3 0 3.3.5 1.1 1.3 2 2 2.7.7.8 1.5 1.5 1.9 2.3.4.8.6 1.7.6 2.6 0 .9-.3 1.8-.7 2.6-.4.8-1.1 1.3-1.9 2-.8.6-1.8 1.2-2.5 2.2-.3.5-.6 1-.7 1.6-.1.6 0 1.2.2 1.7-.1-1.1.5-2 1.2-2.6l.9-.6c.4 1 .4 2 .1 2.8-.2.5-.4.8-.8 1.2-.4.3-.9.7-1.5 1.2-.5.4-1.1 1.1-1.4 1.9-.2.8-.3 1.6 0 2.4.5 1.6 2 2.6 3.3 2.4-1.2-.7-1.8-1.7-1.8-2.7 0-.5.1-1 .3-1.4.2-.4.5-.7.9-1.1.4-.4 1-.8 1.5-1.3.5-.6 1-1.4 1-2.1.2-1.3-.3-2.6-1.2-3.3.5-.2.9-.5 1.4-.7 1-.5 2-1.2 2.7-2.3.7-1.1 1.1-2.3 1.1-3.5 0-1.2-.3-2.5-1-3.6-.9-1.4-1.8-2.1-2.6-2.8zM46 74.9c0-1.3.3-2.6.7-3.8.1-.4.3-.7.4-1.1.2 1.6 1 3.1 2.3 4-1.5-2.1-1.5-4.8-.5-6.7.5-1 1.3-1.7 2.3-2.5 1-.8 2.1-1.9 2.6-3.4.2-.8.2-1.7-.2-2.5-.3-.8-1-1.4-1.6-1.8-1.2-.8-2.4-1.2-3.1-1.9-1.5-1.4-1.8-4.3-.2-6.3-2.3 1.4-2.9 5-.9 7.3 1 1.2 2.3 1.7 3.2 2.3.9.7 1.2 1.3.9 2.2-.2.9-1 1.7-1.9 2.6-.5.4-.9.9-1.4 1.4-.5.5-.9 1.2-1.1 1.8-.2.5-.3 1.1-.4 1.6-.7.6-1.3 1.4-1.8 2.2-.8 1.3-1.2 2.9-1.3 4.4 0 1.6.3 3.1 1 4.5s1.7 2.6 3 3.3c-.7-1.3-1.2-2.6-1.6-3.9-.3-1.1-.5-2.4-.4-3.7zm61.6-56.1c.9.2 1.6.7 2 1.3.5.7.8 1.5.8 2.3.1.8-.1 1.6-.4 2.4-.7 1.6-1.9 3-3.4 4s-3.3 1.6-5.3 1.3c.8.6 1.9.8 3 .8s2.1-.3 3.1-.8c1.9-.9 3.6-2.5 4.5-4.6.9-2 .6-4.7-1-6.4.7.5 1.3 1 1.8 1.6.6.7 1.1 1.5 1.5 2.3.4.8.6 1.7.7 2.6.1 1 .1 1.9-.1 3 .9-.7 1.4-1.8 1.7-3s.1-2.4-.4-3.5-1.3-2-2.3-2.7c-1-.6-2.1-.9-3.2-.8-.3-.3-.7-.5-1.1-.7-.6-.2-1.1-.3-1.7-.3-1.1 0-2.2.6-2.8 1.5.8-.4 1.8-.5 2.6-.3zm-16.7 6.4c1-2.1.7-4.4 1-6.1.2-.9.5-1.6 1-2.1.5-.6 1.3-1 2.2-1.2 1.7-.5 3.7 0 5.5.9-1.3-1.5-3.4-2.6-5.8-2.4-1.1.1-2.3.6-3.2 1.4-.5.4-.8.9-1.1 1.5-.3.5-.4 1.1-.6 1.7-.4 2.2 0 4.2-.5 5.9-.5 1.6-2 3.1-3.9 3.6 2.1.1 4.4-1.1 5.4-3.2zM77 41.9c-.6-1-1-1.9-1.3-2.9-.3-.9-.4-1.9-.3-2.8.1-.9.3-1.8.7-2.7.2-.3.3-.7.5-1-.2.6-.3 1.2-.2 1.8.1.8.5 1.6 1 2.3.6.7 1.3 1.1 2 1.4 1.5.6 3.3.5 4.7-.3 1.4-.8 2.3-2 2.7-3.4-1.1.9-2.2 1.6-3.3 2s-2.3.3-3.3-.1-1.9-1.1-2.2-2.2c-.3-1-.3-2.4.5-3.5-.2.1-.5.2-.7.4-1.2.1-2.2.8-3 1.7-.8.9-1.3 2.1-1.4 3.4-.1 1.3.2 2.5.8 3.6.7 1.1 1.7 1.9 2.8 2.3zm23.3-25.1c-.4-.5-1.1-.6-1.7-.5-.6.1-1.2.4-1.6.9-.4.5-.7 1.1-.7 1.7 0 .6.2 1.2.7 1.6.3-.5.6-.9.8-1.2.2-.3.4-.5.7-.8.2-.2.4-.5.7-.7.3-.4.6-.7 1.1-1zm17.8 9c.8.7 1.9 1.1 2.9 1.3 2.1.4 4.1.1 5.9 0 .9 0 1.8 0 2.6.2s1.5.6 2.1 1.1c.6.5.9 1.2.9 2.1 0 .8-.3 1.7-1.1 2.3 1-.2 1.8-1.1 2.1-2.2v-.4c.3.4.6.6.8.9.3.4.6.7.9 1l1 1c.4.3.7.7 1.3 1.1.3-.6.3-1.3.1-1.9-.2-.6-.5-1.1-.9-1.6s-1-.8-1.6-1c-.5-.1-1-.2-1.6 0 0-.3 0-.6-.1-.9-.1-.6-.4-1.1-.8-1.5-.7-.9-1.7-1.5-2.7-1.9-1.1-.4-2.1-.5-3.2-.4-2.1 0-3.9.5-5.7.4-.9 0-1.7-.2-2.5-.6-.8-.4-1.5-.9-2.1-1.8.2 1.2.8 2.2 1.7 2.8zm4.5 21.4c-1-.1-1.9-.1-2.6-.3-1.4-.3-2.6-1.5-3.3-2.9-.7-1.5-.9-3.3-1-5.1-.5 1.2-.8 2.5-.8 3.8-.6-1.1-1.5-2-2.5-2.5 1.1 1.4 1.6 2.9 1.6 4.4 0 1.5-.5 2.9-1.3 4.1-.8 1.2-2 2.2-3.5 2.7-1.3.5-2.9.8-4.5.7.7 0 1.4-.3 2-.7.9-.6 1.5-1.6 1.7-2.7.2-1.1.1-2.2-.3-3.3-.4-1-1.2-1.9-2-2.6-.8-.7-1.9-1.2-2.9-1.4-1-.2-1.9-.4-2.8-.6-.9-.2-1.7-.4-2.4-1-.7-.5-1.3-1.2-1.5-2.2-.3 1 .1 2.1.8 2.9.7.8 1.7 1.4 2.6 1.7.9.4 1.9.6 2.7.9.8.3 1.6.7 2.2 1.2 1.3 1 2.1 2.5 2 4.1 0 1.5-1.2 3.2-3.1 3.6.2 0 .4.1.6.1 1.5.9 3.4 1.2 5.2.8 1.8-.4 3.6-1.5 4.6-3.1.9-1.2 1.4-2.7 1.3-4.2.3.6.7 1.1 1.1 1.6.7.8 1.7 1.4 2.8 1.6 1.1.2 2 .2 2.9.2.8 0 1.5.2 2.2.6 1.3.8 2.3 2.4 2.2 4.3 1-1.7.4-4.1-1.2-5.5-.6-.8-1.8-1.1-2.8-1.2zM136 77.6c-.2-1.5-.2-3.1.1-4.7.3-1.6.8-3.2 1.1-4.9-1 1.2-1.8 2.5-2.4 4-1-2-1.1-4.3-.3-6.2.4-1 1.3-1.9 1.9-3.3.3-.7.5-1.5.4-2.4-.1-.9-.7-1.7-1.3-2.2-1.2-1-2.5-1.4-3.4-2-.9-.5-1.7-1.4-2.3-2.4-1.1-2-1.1-4.6.1-6.9-1.9 1.7-2.7 4.9-1.6 7.6.5 1.3 1.5 2.5 2.7 3.3 1.2.8 2.4 1.2 3.1 1.9.7.6.9 1.3.5 2.3-.4 1-1.2 2.1-1.7 3.5-.8 2.5 0 5.3 1.6 7 0 .1-.1.2-.1.3-.6 1.7-.9 3.5-.6 5.4.3 1.8 1.2 3.7 2.7 4.9 1.5 1.2 3.6 1.7 5.2.9-1.7-.2-3.1-1-4.1-2.1-.8-1.1-1.4-2.5-1.6-4zm11.1-8.3c.8 1.5.8 3.2.2 4.5-.3.6-.7 1.2-1.3 1.6-.6.4-1.1.7-1.9.9-.7.2-1.6.3-2.6.8s-1.8 1.4-2 2.4c-.3 1-.1 2.2.5 2.9.6.8 1.5 1.3 2.4 1.3-.8-.4-1.3-1.1-1.5-1.7-.2-.7-.2-1.4.1-1.9.3-.6.7-1 1.3-1.2.6-.2 1.4-.3 2.3-.6.9-.2 1.9-.7 2.6-1.4.7-.7 1.3-1.6 1.5-2.5.6-2.1-.2-4.1-1.6-5.1zM142.6 55c2.1.4 3.8 1.5 4.9 3 1.1 1.5 1.4 3.3 1.1 5.1-.2.9-.5 1.7-1 2.4s-1.2 1.4-2 2c-1.5 1.2-3.5 2.5-4.4 4.4 1.6-1.4 3.5-2 5.3-3.1.9-.5 1.8-1.2 2.6-2.1.8-.9 1.2-2 1.5-3.2s.2-2.3-.1-3.5c-.3-1.1-.9-2.2-1.7-3-1.7-1.7-4.1-2.5-6.2-2zm7.6 25c-.1-1.5.3-3.1.9-4.7.6-1.6 1.2-3.4 1.3-5.3 0-1-.1-1.9-.5-2.8-.4-.9-1-1.7-1.9-2.1 1.1 1.5 1.1 3.2.8 4.7-.3 1.6-1.1 3.1-1.7 4.8-.6 1.7-1.1 3.7-.6 5.6.3 1 .8 1.9 1.6 2.5.7.6 1.7 1 2.6.9-1.5-.5-2.3-2.2-2.5-3.6zm-13.4-41.3c-.6.1-1.1.3-1.6.7 2.2-.5 4.3.4 5.7 1.8s2 3.3 1.9 5.3c0 1-.2 2-.6 2.9-.3 1-.9 1.8-1.4 2.8-.6 1-1.1 2.1-1.3 3.3-.1 1.2.2 2.5 1.1 3.2-.6-1-.5-2.1-.2-3 .3-1 .9-1.8 1.6-2.6.7-.8 1.4-1.8 1.9-3 .5-1.1.7-2.3.8-3.5 0-1.2-.2-2.3-.6-3.5 1 .4 1.7 1 2.2 1.8.6.8 1 1.6 1.2 2.5.2.9.2 1.9.2 3s-.2 2.1-.3 3.3c.8-.8 1.4-1.9 1.8-3 .4-1.1.5-2.4.2-3.7-.3-1.3-1-2.4-2-3.2-1-.8-2.3-1.1-3.4-.8-.5-1.1-1.3-2.2-2.3-2.9-1-.7-2.2-1.2-3.3-1.3-.4-.3-1-.3-1.6-.1zm-9.5-.2-.2-2.3c-.1-.8-.2-1.6-.3-2.5-.6.7-1 1.5-1.2 2.3-.2.8-.3 1.7-.2 2.6s.3 1.7.7 2.5c.4.8.9 1.5 1.6 2.1 0-.9 0-1.7-.1-2.5l-.3-2.2zm-28-18.1c-.7.8-.9 2.1-.6 3.2.3 1.1 1 2.2 2 2.9.5.3 1.1.6 1.7.7.6.1 1.1 0 1.6 0s.8 0 1.2.1c.4.1.8.4 1 .9.3-.5 0-1.2-.4-1.7s-1.1-.8-1.6-.9c-.5-.1-1-.2-1.4-.3-.4-.1-.7-.3-1-.5-.7-.4-1.2-1-1.7-1.8-.4-.7-.7-1.6-.8-2.6z" fill="#413230" stroke-width="none" opacity="1" stroke="none"></path></g><g id="svga-group-glasses-single-move" transform="matrix(1,0,0,1,0,0)"><g id="svga-group-glasses-single"></g></g></g></g></g><rect id="svga-credit-rect" width="200" height="15" x="0" y="185" fill="#ecf0f1" opacity="0.5" style="display: none;"></rect><text id="svga-credit-text" font-family="Avenir Next, Roboto, Helvetica, Arial, sans-serif" font-size="10px" text-anchor="start" font-weight="400" size="10px" anchor="start" weight="400" fill="#333333" x="33.40447998046875" y="182.60824704170227" style="display: none;"><tspan id="SvgjsTspan3640" dy="13" x="33.40447998046875">Created on AvatarMaker.com</tspan></text></g><defs id="SvgjsDefs3587"><linearGradient id="SvgjsLinearGradient5927" x1="100.0394" y1="79.6722" x2="100.0394" y2="122.2396" gradientUnits="userSpaceOnUse" class="svga-on-canvas-nose-gradient-single-0-null"><stop id="SvgjsStop5928" stop-opacity="0" stop-color="#ffe2d6" offset="0" ></stop><stop id="SvgjsStop5929" stop-opacity="0.9727" stop-color="#ffd0bc" offset="0.7584" ></stop><stop id="SvgjsStop5930" stop-opacity="0.9769" stop-color="#f7c1aa" offset="0.7953" ></stop><stop id="SvgjsStop5931" stop-opacity="0.9852" stop-color="#f0b399" offset="0.8691" ></stop><stop id="SvgjsStop5932" stop-opacity="0.9968" stop-color="#e09879" offset="0.972" ></stop><stop id="SvgjsStop5933" stop-opacity="1" stop-color="#d17f5b" offset="1" ></stop></linearGradient><linearGradient id="SvgjsLinearGradient9283" x1="100.0394" y1="79.6722" x2="100.0394" y2="122.2396" gradientUnits="userSpaceOnUse" class="svga-on-canvas-nose-gradient-single-0-null"><stop id="SvgjsStop9284" stop-opacity="0" stop-color="#ffe2d6" offset="0" ></stop><stop id="SvgjsStop9285" stop-opacity="0.9727" stop-color="#ffd0bc" offset="0.7584" ></stop><stop id="SvgjsStop9286" stop-opacity="0.9769" stop-color="#f7c1aa" offset="0.7953" ></stop><stop id="SvgjsStop9287" stop-opacity="0.9852" stop-color="#f0b399" offset="0.8691" ></stop><stop id="SvgjsStop9288" stop-opacity="0.9968" stop-color="#e09879" offset="0.972" ></stop><stop id="SvgjsStop9289" stop-opacity="1" stop-color="#d17f5b" offset="1" ></stop></linearGradient></defs></svg>