<svg xmlns="http://www.w3.org/2000/svg" version="1.1" width="600px" height="600px" viewBox="0 0 200 200" style="overflow:hidden!important;"><defs id="SvgjsDefs80638"></defs><g id="svga-group-wrapper"><g id="svga-group-backs-single"></g><g id="svga-group-humanwrap-move" transform="matrix(1,0,0,1,0,0)"><g id="svga-group-humanwrap" transform="matrix(1,0,0,1,0,0)"><g id="svga-group-hair-back-move" transform="matrix(1,0,0,1,0,0)"><g id="svga-group-hair-back" transform="matrix(1.0400003000000002,0,0,1.0002003000000002,0,0)"></g></g><g id="svga-group-humanbody-back"><path id="SvgjsPath81037" d="M180.8 184.9c-2.3-3.4-38.9-17.8-38.9-17.8l-13.4-5.2-5.6-68.8H76.8L71.3 162l-13.4 5.2S21.4 181.6 19 185c-2.3 3.4-3.3 14.9-3.3 14.9V219h168.5v-19.2c-.1.1-1-11.5-3.4-14.9z" fill="#f0c7b1" stroke-width="none" opacity="1" stroke="none"></path></g><g id="svga-group-chinshadow-single"><path id="SvgjsPath81162" d="M80.4 152.5c5 8 14 6.5 14 6.5s9 1.4 14-6.6c0 0 2.7 0 12.7-1.3 2.4-.3 4.5-1.1 6.4-2.2L123 93.1H76.8l-4.7 58.7c6.5.7 8.3.7 8.3.7z" fill="#d19271" stroke-width="none" opacity="1" stroke="none"></path></g><g id="svga-group-humanbody-front"><path id="SvgjsPath81038" d="M184.5 219c-.1-6.4-.1-12.8-.1-19.2l-.3-.1s.1-.1.2 0c.1 0 .1.1.1.1v-.4l-.1-.5-.1-.9-.2-1.9c-.2-1.3-.4-2.5-.6-3.8-.2-1.3-.5-2.5-.9-3.8-.4-1.2-.8-2.5-1.5-3.6-.8-.9-1.9-1.5-2.9-2.1-1-.6-2.1-1.1-3.2-1.7-2.1-1.1-4.3-2.1-6.5-3.1-4.4-2-8.7-3.9-13.1-5.7-4.4-1.9-8.8-3.7-13.2-5.5l-13-5.2-1.2-16.9c-.4-5.7-.9-11.5-1.3-17.2l-1.3-17.2-1.5-17.3-.1-.8h-.8c-7.7 0-15.4.1-23.1.1l-23.1.2h-.5v.5L75 110.2l-1.3 17.2c-.8 11.4-1.8 22.8-2.8 34.2-5.6 2.1-11.2 4.2-16.7 6.4-5.6 2.2-11.2 4.5-16.8 6.9-2.8 1.2-5.6 2.4-8.3 3.6-2.8 1.3-5.5 2.5-8.2 4.1-.7.4-1.3.8-2 1.4-.2.1-.4.4-.5.6l-.3.6c-.2.4-.4.7-.5 1.1-.6 1.5-1 3-1.3 4.5-.6 3-1.1 6-1.4 9.1l-.1 19.1v.9h.9l42.1.1H100c14 0 28.1-.1 42.1-.2l42.1-.5h.3v-.3zm-84.5-1-42.1-.1-41.2.1-.1-18.1c.3-3 .6-5.9 1.2-8.9.3-1.4.6-2.9 1.1-4.2.1-.3.3-.7.4-.9l.2-.4.3-.3c.5-.4 1.1-.8 1.8-1.2 2.5-1.5 5.3-2.8 8-4.1 2.7-1.3 5.5-2.5 8.2-3.7 5.5-2.4 11.1-4.8 16.7-7.1s11.2-4.5 16.9-6.7l.2-.1v-.2c.9-11.5 1.7-23 2.7-34.4l1.4-17.2 1.5-16.7 22.6.2c7.4.1 14.8.1 22.3.1l1.3 16.4 1.5 17.2c.5 5.7 1 11.5 1.5 17.2l1.6 17.2v.3l.3.1 13.4 5c4.4 1.7 8.9 3.4 13.3 5.2 4.4 1.8 8.8 3.7 13.2 5.6 2.2 1 4.3 2 6.5 3 1.1.5 2.1 1.1 3.2 1.6 1 .6 2.1 1.2 2.9 2 .7 1.1 1.1 2.3 1.4 3.5.3 1.2.6 2.5.8 3.7.2 1.3.4 2.5.6 3.8l.2 1.9.1.9.1.5v.4c0 6.3 0 12.6-.1 18.9l-41.8-.5c-14 .1-28.1 0-42.1 0z" fill="#c27b55" stroke-width="none" opacity="1" stroke="none"></path><path id="SvgjsPath81039" d="M125.1 142.4s-1.8 23-9.1 32.9c0 0 7.9-25 9.1-32.9zm-34.5 16s5 7.9 11.5 10.1c0 0-9.5 2.2-11.5-10.1zM73.4 140c6.7 25.6 6.7 25.6 8.5 30.7 0 0 .4-12.6-8.5-30.7z" fill="#d19271" stroke-width="none" opacity="1" stroke="none"></path></g><g id="svga-group-clothes-single"><path id="SvgjsPath82406" d="M61.8 186.6s14.4 11.8 17.6 14.6c3.2 2.8 21.3 12 21.3 12s19.2-9.9 22.4-12.5c3.2-2.6 14.4-17.4 14.4-17.4V220H66.4l-4.6-33.4z" fill="#efefef" stroke-width="none" opacity="1"></path><path id="SvgjsPath82407" d="M67 148.7s-7.2 5.3-11 8.6-9.9 6.6-9.9 6.6l2.9 1.6s-5.5 3.2-10.9 4.8c-5.5 1.6-20.1 5.2-21.1 5.7s-2.3 2.9-2.3 2.9-4.4.9-4.9 11.1c-.6 10.2-1.3 30-1.3 30h64.1s-5.8-35.1-6.3-39.2c0-.4 1.2-16.6 1.2-18 0-1 4.4-11.7 4.3-15.4-.1-1.5-4.8 1.3-4.8 1.3zm66 0s7.2 5.3 11 8.6 9.9 6.6 9.9 6.6l-2.9 1.6s5.5 3.2 10.9 4.8c5.5 1.6 20.1 5.2 21.1 5.7s2.3 2.9 2.3 2.9 4.4.9 4.9 11.1 1.3 29.9 1.3 29.9h-64.1s5.8-35.1 6.3-39.2c0-.4-1.1-16.6-1.1-18 0-1-3.5-12.8-3.7-15.9-.1-1.2 4.1 1.9 4.1 1.9z" fill="#386e77" stroke-width="none" opacity="1"></path><path id="SvgjsPath82408" d="M138.2 164.1s4.9 11.3 6.3 13.8c1.4 2.6 12.2 10.8 12.2 10.8s-15.5 12.9-15.7 14.5c-.2 1.6-3.1 11.7-3.1 11.7l4.2-9.9s6.6-5.6 8.2-6.6 14.1-9.9 14.1-9.9-16.2-11-17.8-12.7c-1.6-1.4-8.4-11.7-8.4-11.7zm26.3 9.6c-3.5-.9-10.1-4.2-12.7-5.6 0 0 8 5.4 10.6 6.8 2.6 1.4 15.5 3.8 15.5 4.5 0 .7-4 5.2-4.9 7.5-.9 2.4-.9 9.1-.9 9.1s1.9-5.9 3.1-8.9 7.7-7.3 7.7-7.3 0-1.6-.9-2.6-14-2.6-17.5-3.5zm24.1 12.9c-.2-2.6-2.1-4.5-3.8-5.2 0 0 .9 1.6 1.2 2.6s.7 11.5.7 15.9 3.1 16.9 3.1 16.9-.9-27.6-1.2-30.2zM65.5 161.7c-.5 5.4-2.6 17.6-3.5 21.4-.9 3.8-.2 18.1-.2 18.1s.7-12.7 1.9-15.5c1.2-2.8 2.6-10.3 2.4-12.4-.4-2.2-.6-11.6-.6-11.6zm-43.1 14.5c-1.6.4-4.3 1.2-5.1 2.2 0 0 0 1.4 7.5-.8 5.3-1.5 14.7-5.8 19.7-8.2-6.9 2.7-20.8 6.5-22.1 6.8zm22.1-6.8c1.6-.6 2.9-1.2 3.5-1.6-.1 0-1.4.6-3.5 1.6zm-2.1 22.9c-2.2-1-5.7-2.4-5.7-2.4 4.1 1.8 21.2 14.6 21.2 14.6l6.3 13.8s-4.5-14.6-5.5-15.5c-.9-1-14.1-9.5-16.3-10.5z" fill="#4d7e86" stroke-width="none" opacity="1"></path><path id="SvgjsPath82409" d="M190.8 190.1c-.5-9.2-4.1-11.1-5.1-11.4-.4-.6-1.4-2.5-2.4-2.9-.5-.3-3.8-1.1-9.1-2.5-4.4-1.1-9.3-2.4-12-3.2-4.1-1.3-8.4-3.4-10.1-4.4l2.9-1.7-.8-.4c-.1 0-6.1-3.3-9.8-6.5-3.8-3.3-10.9-8.6-11-8.6l-.8-.6-4.8-2.4 1.1 16.4 3.1 1.2c0 1.1.4 6.1.7 10.5.2 3.5.5 7 .5 7.3-.1 1.2-.7 4.9-1.4 9.7-.6.8-1.2 1.5-1.8 2.2-1.3 1.6-2.6 3.1-3.9 4.6-.7.8-1.3 1.5-2 2.2-.3.4-.7.7-1.1 1-.4.3-.8.6-1.2.8-3.4 2.1-7 4-10.5 5.9-3.5 1.9-7 3.7-10.5 5.5-3.4-1.7-6.9-3.5-10.3-5.3-1.7-.9-3.5-1.9-5.2-2.9-1.7-1-3.4-1.9-5-3.1L68.5 192c-.9-5.4-1.6-9.9-1.7-11.1 0-.3.2-3.9.5-7.3.3-4.4.6-8.9.7-10.2l3.1-1.4 1.3-15.9-5 1.7-.8.6c-.1.1-7.2 5.4-11 8.6-3.7 3.2-9.8 6.5-9.8 6.5l-.8.4 2.9 1.7c-1.7.9-5.9 3.1-10 4.4-2.7.8-7.6 2.1-12 3.2-5.3 1.4-8.6 2.2-9.1 2.5-1 .5-2.1 2.3-2.4 2.9-1 .4-4.6 2.2-5.1 11.4-.6 10.1-1.3 29.8-1.3 30v.5h184.1v-.5c-.1-.2-.8-19.9-1.3-29.9zM30.4 219.5c-.1-3.5-.3-6.9-.9-10.4-.7-3.7-1.4-7.4-2.3-11-.5-1.8-.9-3.6-1.5-5.4-.6-1.8-1.2-3.6-2.2-5.2-1.1-1.6-2.3-3-3.6-4.4-.6-.7-1.3-1.4-2-2-.7-.6-1.3-1.4-2.2-1.8.4.2.7.6 1 .9.3.3.6.7.9 1l1.8 2.1c1.2 1.4 2.4 2.9 3.3 4.5.9 1.6 1.5 3.4 2 5.1.5 1.8 1 3.6 1.4 5.4.9 3.6 1.6 7.3 2.5 10.9.4 1.8.7 3.7.9 5.5.4 1.6.6 3.2.9 4.8H9c.1-3.2.8-20.3 1.2-29.4.5-9.6 4.5-10.6 4.6-10.6l.2-.1.1-.2c.5-.9 1.4-2.4 2.1-2.7.5-.2 4.8-1.4 8.9-2.4 4.4-1.1 9.4-2.4 12.1-3.2 4.9-1.5 9.8-4.2 10.8-4.8.6.4 1.2.7 1.8 1.1l2.5 1.5c.4.2.8.5 1.2.8l.6.3c-2.1 2.2-4.3 4.2-6.7 6l-8.4 6.1c-2.8 2.1-5.6 4.1-8.4 6.2l-1.1.8 1.2.8 6.1 4.1 6.1 4.1 6.2 4.1c1 .7 2.1 1.4 3 2l2.8 2.2c1.2 2.3 2.3 4.6 3.5 6.9l3.3 6.3H30.4zm32.4 0c-.9-2.2-1.8-4.4-2.7-6.7-1-2.4-2-4.9-3.1-7.3v-.1l-.1-.1c-.9-.8-1.8-1.7-2.8-2.5-1-.8-2-1.5-3-2.2-2-1.4-4-2.8-6-4.3s-4-2.8-6.1-4.2c-1.7-1.1-3.3-2.3-5-3.4 2.4-1.8 4.8-3.6 7.2-5.5 2.7-2.1 5.5-4.2 8.2-6.4 2.8-2.2 5.2-4.8 7.4-7.5s4.3-5.5 6-8.5c-2.1 2.7-4.4 5.4-6.8 7.9-.2.3-.5.5-.7.8-.2-.1-.4-.3-.6-.4-.4-.3-.7-.7-1.1-1-.8-.6-1.6-1.2-2.4-1.7-.8-.5-1.6-1.1-2.5-1.6l-1.2-.6-.6-.4c1.8-1 6.2-3.6 9.2-6.2 3-2.6 10.2-8 10.2-8l4.1-2.1s-3.7 14.6-3.7 15.3c0 .8-.4 5.9-.7 10.5-.4 5.7-.5 7.3-.5 7.5 0 .1 0 .3.1.4-.2.6-.4 1.2-.5 1.9l-.9 3.9c-.3 1.3-.5 2.6-.8 3.9-.2 1.3-.5 2.6-.7 3.9-.1 2.3-.2 4.5-.1 6.8.4-2.2.7-4.5 1-6.7.3-1.3.5-2.6.8-3.9.2-1.3.5-2.6.7-3.9l.6-3.9c0-.2.1-.5.1-.7 1.1 7.5 5.2 32.6 6 36.9l-9 .1zm57 0H84.2c-3.7 0-7.4 0-11.2.1-.4-2.4-2.8-16.6-4.4-27.2.8.7 1.6 1.4 2.4 2 3 2.6 5.9 5.1 8.9 7.6 1.6 1.2 3.3 2.2 5 3.2 1.7 1 3.4 1.9 5.2 2.9 3.5 1.9 7 3.7 10.5 5.5l.2.1.2-.1c3.6-1.9 7.1-3.7 10.7-5.7 3.5-1.9 7.1-3.9 10.4-6.1l1.2-.9c.4-.4.8-.7 1.1-1.1.7-.7 1.4-1.5 2-2.3 1.3-1.5 2.6-3.1 3.8-4.7.5-.6.9-1.1 1.4-1.7-1.7 10.7-4.2 25.9-4.7 28.4h-7.1zm8.2 0c.7-4.3 4.9-29.4 6-36.9 0 .2.1.5.1.7l.6 3.9c.2 1.3.5 2.6.7 3.9.3 1.3.5 2.6.8 3.9.2 2.2.6 4.5 1 6.7.1-2.3 0-4.6-.1-6.8-.2-1.3-.4-2.6-.7-3.9-.2-1.3-.5-2.6-.8-3.9l-.9-3.9c-.1-.6-.3-1.2-.5-1.9 0-.2 0-.3.1-.4 0-.2-.1-1.8-.5-7.5-.3-4.6-.7-9.8-.7-10.6 0-.9-3.7-15.8-3.7-15.8l4.2 2.6s7.2 5.4 10.2 8c3 2.6 7.4 5.2 9.2 6.2l-.6.4-1.2.6c-.9.5-1.7 1-2.5 1.6-.8.6-1.6 1.1-2.4 1.7-.4.3-.7.7-1.1 1-.2.2-.4.3-.6.4-.2-.2-.5-.5-.7-.8-2.4-2.5-4.6-5.2-6.8-7.9 1.8 3 3.9 5.8 6.1 8.5 2.2 2.7 4.6 5.3 7.4 7.5 2.7 2.2 5.5 4.3 8.2 6.4 2.4 1.9 4.8 3.7 7.2 5.5-1.7 1.1-3.3 2.2-5 3.4-2 1.4-4.1 2.8-6.1 4.2-2 1.4-4 2.8-6 4.3-1 .7-2 1.4-3 2.2-.9.8-1.9 1.6-2.8 2.5l-.1.1-.1.1c-1 2.4-2.1 4.9-3.1 7.3l-2.7 6.6-9.1.1zm41.7 0c.2-1.6.4-3.1.6-4.7.3-1.9.5-3.7.9-5.5.9-3.6 1.6-7.3 2.5-10.9.4-1.8.9-3.6 1.4-5.4s1.1-3.6 2-5.1c.9-1.5 2.1-3 3.3-4.5l1.8-2.1c.3-.4.6-.7.9-1 .3-.3.6-.7 1-.9-.8.4-1.5 1.2-2.2 1.8l-2 2c-1.3 1.4-2.5 2.8-3.6 4.4-1.1 1.6-1.6 3.4-2.2 5.2-.6 1.8-1.1 3.6-1.5 5.4-.9 3.7-1.6 7.3-2.3 11-.4 3.4-.6 6.8-.6 10.3h-32.4l3.3-6.3c1.2-2.3 2.4-4.6 3.5-6.9l2.8-2.2c1-.7 2-1.4 3-2l6.1-4.1 6.1-4.1 6.1-4.1 1.2-.8-1.1-.8c-2.8-2.1-5.6-4.2-8.4-6.2l-8.4-6.1c-2.4-1.8-4.6-3.8-6.7-6l.6-.3c.4-.2.8-.5 1.2-.8l2.5-1.5c.6-.3 1.2-.7 1.8-1.1 1 .6 5.9 3.3 10.8 4.8 2.7.8 7.7 2.1 12.1 3.2 4.2 1.1 8.5 2.2 8.9 2.4.6.3 1.6 1.8 2.1 2.7l.1.2.2.1s4.1 1 4.6 10.6c.5 9.1 1.1 26.2 1.2 29.4h-21.2zm22.4 1z" fill="#0c4049" stroke-width="none" opacity="1"></path></g><g id="svga-group-head" transform="matrix(1,0,0,1,0,0)"><g id="svga-group-ears-left-move" transform="matrix(1,0,0,1,-3,0)"><g id="svga-group-ears-left" transform="matrix(1,0,0,1,0,0)"><path id="SvgjsPath81325" d="M69.12 87.77s-3.29-8.06-6.27-11.95c0 0-1.72-1.36-3.37-2.59a2.608 2.608 0 0 0-3.59.45c-1.89 2.35-5.15 6.65-7.88 11.59-.45.82-.63 1.77-.48 2.7.34 2.01 1.03 5.64 1.87 7.11 1.19 2.09 6.12 7.32 9.56 9.11 0 0 3.88.6 6.87-2.09s3.29-14.33 3.29-14.33z" fill="#f0c7b1" stroke-width="none" opacity="1"></path><path id="SvgjsPath81326" d="M67.06 88.73c-.08-.25-6.48-8.56-8.98-10.14-2.49-1.58-7.73 6.57-7.98 9.31s2.49 7.9 4.82 9.39c2.33 1.5 7.56 2.08 10.47-2.16 2.91-4.24 1.67-6.4 1.67-6.4z" fill="#e1ac8f" stroke-width="none" opacity="1"></path><path id="SvgjsPath81327" d="M47.63 85.77c-.18.46-.28.95-.31 1.44-.03.5.07.99.14 1.45.15.94.32 1.89.51 2.83.2.94.42 1.88.74 2.8.31.95.92 1.78 1.5 2.53 1.19 1.52 2.52 2.91 3.92 4.23 1.41 1.31 2.88 2.57 4.63 3.51l.07.04.06.01c1.97.21 3.93-.17 5.65-1.11.84-.48 1.63-1.08 2.2-1.94.55-.83.84-1.75 1.13-2.65.53-1.82.79-3.68.99-5.54.2-1.86.27-3.72.28-5.6-.39-1.08-.81-2.11-1.25-3.16-.43-1.04-.91-2.07-1.39-3.09-.5-1.02-.99-2.04-1.56-3.02-.57-.98-1.16-1.95-1.85-2.88l-.02-.03-.03-.03-2.24-1.76-1.15-.87c-.44-.31-.96-.5-1.5-.54a2.91 2.91 0 0 0-1.56.32c-.47.23-.88.68-1.14 1.05-.58.76-1.15 1.53-1.71 2.31-2.19 3.13-4.31 6.28-6.11 9.7zm.02 1.45c0-.46.09-.92.25-1.35.81-1.68 1.83-3.33 2.87-4.91 1.05-1.59 2.17-3.13 3.35-4.62.59-.75 1.18-1.49 1.79-2.22.54-.75 1.34-1.14 2.19-1.07.42.03.82.19 1.15.43l1.12.87 2.24 1.7c1.33 1.75 2.42 3.72 3.48 5.68.53.99 1.02 2 1.53 3.01.5 1 .99 2.03 1.46 3.04-.12 1.84-.35 3.7-.62 5.53-.28 1.83-.64 3.66-1.19 5.4-.31.85-.62 1.73-1.12 2.44-.47.69-1.22 1.23-1.99 1.66-1.52.84-3.37 1.17-5.08.99-1.58-.89-3.04-2.07-4.42-3.32-1.4-1.27-2.72-2.64-3.92-4.08-.6-.74-1.16-1.45-1.47-2.32-.34-.86-.6-1.78-.83-2.7-.23-.92-.43-1.85-.62-2.78-.07-.48-.18-.93-.17-1.38z" fill="#e1ac8f" stroke-width="none" opacity="1"></path><path id="SvgjsPath81328" d="M52.04 87.76c.28-.91.7-1.72 1.16-2.52.45-.79.97-1.54 1.51-2.27s1.12-1.43 1.79-2.06c.17-.16.35-.31.57-.42.11-.05.25-.11.43-.05.16.08.19.19.28.28.25.39.47.78.67 1.19.82 1.61 1.6 3.24 2.26 4.93.33.84.62 1.7.85 2.59.12.44.22.89.3 1.34.06.45.15.96.03 1.45-.21.97-.78 1.74-1.34 2.45-.58.7-1.24 1.33-1.96 1.89l-.05-.06c.61-.66 1.18-1.35 1.68-2.08.5-.72.93-1.52 1.08-2.32.12-.77-.17-1.66-.41-2.5-.26-.85-.52-1.7-.8-2.55-.55-1.7-1.12-3.41-1.88-5.03-.19-.4-.4-.8-.64-1.16-.06-.06-.14-.18-.19-.19-.04-.02-.13 0-.21.05-.17.09-.34.24-.5.39-.63.61-1.13 1.37-1.62 2.11-.93 1.51-1.82 3.1-2.31 4.74-.05.2-.1.41-.11.6-.01.1-.01.18 0 .26.01.09.03.21.05.31.08.42.19.84.33 1.25.28.82.64 1.62 1.07 2.37.11.19.22.37.34.55.06.09.12.17.18.26.06.08.15.17.12.14-.03.01.11.01.27-.06.16-.09.34-.18.5-.31.67-.51 1.29-1.17 1.81-1.85.06-.09.13-.17.18-.26l.08-.13.03-.09c.04-.15.03-.36 0-.56-.06-.42-.18-.84-.32-1.26-.28-.84-.62-1.68-.99-2.5l.07-.04c.48.77.92 1.56 1.29 2.39.18.42.35.85.46 1.31.05.23.09.48.05.78-.02.08-.04.16-.07.24-.03.06-.06.11-.09.16-.06.11-.13.2-.19.3-.53.77-1.12 1.47-1.85 2.09-.18.15-.39.3-.62.43-.24.1-.58.27-1.02.05-.23-.15-.27-.24-.36-.33-.07-.1-.15-.19-.22-.29-.14-.19-.26-.39-.39-.59-.47-.81-.86-1.65-1.13-2.54-.13-.45-.24-.9-.31-1.37-.01-.12-.03-.23-.04-.36-.01-.14-.01-.28.01-.41.04-.27.1-.51.17-.74z" fill="#c27b55" stroke-width="none" opacity="1"></path></g></g><g id="svga-group-ears-right-move" transform="matrix(1,0,0,1,3,0)"><g id="svga-group-ears-right" transform="matrix(1,0,0,1,0,0)"><path id="SvgjsPath81329" d="M130.88 87.77s3.29-8.06 6.27-11.95c0 0 1.72-1.36 3.37-2.59 1.12-.84 2.71-.64 3.59.45 1.89 2.35 5.15 6.65 7.88 11.59.45.82.63 1.77.48 2.7-.34 2.01-1.03 5.64-1.87 7.11-1.19 2.09-6.12 7.32-9.56 9.11 0 0-3.88.6-6.87-2.09-2.99-2.68-3.29-14.33-3.29-14.33z" fill="#f0c7b1" stroke-width="none" opacity="1"></path><path id="SvgjsPath81330" d="M132.94 88.73c.08-.25 6.48-8.56 8.98-10.14 2.49-1.58 7.73 6.57 7.98 9.31s-2.49 7.9-4.82 9.39c-2.33 1.5-7.56 2.08-10.47-2.16-2.91-4.24-1.67-6.4-1.67-6.4z" fill="#e1ac8f" stroke-width="none" opacity="1"></path><path id="SvgjsPath81331" d="M146.25 76.06c-.56-.78-1.12-1.55-1.71-2.31-.26-.37-.66-.82-1.14-1.05a2.91 2.91 0 0 0-1.56-.32c-.54.04-1.06.23-1.5.54l-1.15.87-2.26 1.77-.03.03-.02.03c-.69.92-1.28 1.89-1.85 2.88-.57.98-1.06 2-1.56 3.02-.49 1.02-.96 2.05-1.39 3.09-.43 1.05-.86 2.08-1.25 3.16.01 1.88.08 3.73.28 5.6.2 1.86.46 3.72.99 5.54.3.9.58 1.82 1.13 2.65.57.86 1.36 1.46 2.2 1.94 1.72.95 3.68 1.32 5.65 1.11l.06-.01.07-.04c1.75-.94 3.22-2.2 4.63-3.51 1.4-1.32 2.73-2.71 3.92-4.23.58-.75 1.19-1.58 1.5-2.53.33-.92.54-1.86.74-2.8.2-.94.36-1.88.51-2.83.07-.46.17-.95.14-1.45-.02-.5-.13-.98-.31-1.44-1.77-3.42-3.89-6.57-6.09-9.71zm5.91 12.54c-.18.93-.38 1.86-.62 2.78-.23.92-.49 1.83-.83 2.7-.31.87-.87 1.58-1.47 2.32a41.929 41.929 0 0 1-3.92 4.08c-1.38 1.25-2.84 2.43-4.42 3.32-1.71.18-3.55-.15-5.08-.99-.77-.43-1.52-.96-1.99-1.66-.5-.71-.81-1.59-1.12-2.44-.55-1.74-.91-3.57-1.19-5.4-.26-1.83-.49-3.69-.62-5.53.47-1 .96-2.03 1.46-3.04.51-1 1-2.02 1.53-3.01 1.06-1.96 2.15-3.92 3.48-5.68l2.24-1.7 1.12-.87c.33-.25.73-.4 1.15-.43.85-.07 1.65.32 2.19 1.07.61.73 1.21 1.47 1.79 2.22 1.18 1.49 2.3 3.03 3.35 4.62 1.04 1.58 2.06 3.23 2.87 4.91.16.43.25.89.25 1.35.03.45-.08.9-.17 1.38z" fill="#e1ac8f" stroke-width="none" opacity="1"></path><path id="SvgjsPath81332" d="M147.96 87.76c-.28-.91-.7-1.72-1.16-2.52-.45-.79-.97-1.54-1.51-2.27s-1.12-1.43-1.79-2.06c-.17-.16-.35-.31-.57-.42-.11-.05-.25-.11-.43-.05-.16.08-.19.19-.28.28-.25.39-.47.78-.67 1.19-.82 1.61-1.6 3.24-2.26 4.93-.33.84-.62 1.7-.85 2.59-.12.44-.22.89-.3 1.34-.06.45-.15.96-.03 1.45.21.97.78 1.74 1.34 2.45.58.7 1.24 1.33 1.96 1.89l.05-.06c-.61-.66-1.18-1.35-1.68-2.08-.5-.72-.93-1.52-1.08-2.32-.12-.77.17-1.66.41-2.5.26-.85.52-1.7.8-2.55.55-1.7 1.12-3.41 1.88-5.03.19-.4.4-.8.64-1.16.06-.06.14-.18.19-.19.04-.02.13 0 .21.05.17.09.34.24.5.39.63.61 1.13 1.37 1.62 2.11.93 1.51 1.82 3.1 2.31 4.74.05.2.1.41.11.6.01.1.01.18 0 .26-.01.09-.03.21-.05.31-.08.42-.19.84-.33 1.25-.28.82-.64 1.62-1.07 2.37-.11.19-.22.37-.34.55-.06.09-.12.17-.18.26-.06.08-.15.17-.12.14.03.01-.11.01-.27-.06-.16-.09-.34-.18-.5-.31-.67-.51-1.29-1.17-1.81-1.85-.06-.09-.13-.17-.18-.26l-.08-.13-.03-.09c-.04-.15-.03-.36 0-.56.06-.42.18-.84.32-1.26.28-.84.62-1.68.99-2.5l-.07-.04c-.48.77-.92 1.56-1.29 2.39-.18.42-.35.85-.46 1.31-.05.23-.09.48-.05.78.02.08.04.16.07.24.03.06.06.11.09.16.06.11.13.2.19.3.53.77 1.12 1.47 1.85 2.09.18.15.39.3.62.43.24.1.58.27 1.02.05.23-.15.27-.24.36-.33.07-.1.15-.19.22-.29.14-.19.26-.39.39-.59.47-.81.86-1.65 1.13-2.54.13-.45.24-.9.31-1.37.01-.12.03-.23.04-.36.01-.14.01-.28-.01-.41-.04-.27-.1-.51-.17-.74z" fill="#c27b55" stroke-width="none" opacity="1"></path></g></g><g id="svga-group-faceshape-wrap" transform="matrix(1.0400003000000002,0,0,1.0002003000000002,-4.02520093463022,-0.017803889040393983)"><g id="svga-group-faceshape-single"><path id="SvgjsPath81150" d="M143.2 113.8c-.6-7.1-3.8-21.3-4-26.7s.5-17.6.5-17.6l.3-3.2s.8-7.3-.1-11.5c-2.2-10-6.1-15.8-15-20.6-9.3-5-25-4.9-25-4.9s-15.8-.2-25.1 4.8C66.1 39 62 44.7 59.8 54.7c-.9 4 .1 13.8.1 13.8s1.2 13.7 1 19.1-1.6 19.2-2.2 26.4c-.6 7.1 1.3 24.2 15 26 10.1 1.3 12.6 1.4 12.6 1.4 5 8 13.7 6.4 13.7 6.4s8.8 1.4 13.8-6.6c0 0 2.9.3 12.9-1 13.9-1.8 17.2-19.3 16.5-26.4z" fill="#f0c7b1" stroke-width="none" opacity="1" stroke="none"></path><path id="SvgjsPath81151" d="M143.2 113.8c-.5-5.6-1.6-11.1-2.5-16.6-.5-2.8-.9-5.5-1.2-8.3-.2-2.8-.1-5.6 0-8.4.1-2.8.3-5.6.5-8.4.1-2.8.5-5.5.7-8.4.2-2.8.3-5.6-.2-8.5-.6-2.8-1.3-5.5-2.5-8.2-1.1-2.7-2.7-5.1-4.7-7.2-2-2.1-4.3-3.8-6.8-5.2-1.2-.7-2.5-1.4-3.8-1.9-1.3-.5-2.7-1-4-1.4-2.7-.8-5.5-1.3-8.3-1.6-5.6-.7-11.2-.9-16.8-.4-5.6.5-11.2 1.4-16.4 3.5-1.3.5-2.6 1.2-3.8 1.9-1.2.7-2.4 1.5-3.5 2.4-2.2 1.7-4.3 3.7-5.8 6.1-1.6 2.3-2.7 5-3.6 7.6-.4 1.3-.8 2.7-1.1 4.1-.3 1.4-.3 2.8-.4 4.2-.1 5.7.6 11.2.9 16.8.2 2.8.3 5.6.4 8.4.1 2.8-.1 5.5-.4 8.3l-1.6 16.7-.4 4.2c-.1 1.4-.2 2.9-.1 4.3.1 2.8.5 5.7 1.2 8.5.8 2.8 1.9 5.5 3.5 7.9 1.7 2.4 4 4.4 6.8 5.5 1.4.6 2.8.9 4.2 1.1l4.2.5 8 .9c.7 1 1.5 2.1 2.5 2.9 1 1 2.2 1.7 3.5 2.3 1.3.6 2.6 1 4 1.2 1.4.2 2.7.2 4.1 0 1.4.1 2.8.1 4.1-.1 1.4-.2 2.8-.6 4-1.3 1.3-.6 2.5-1.4 3.5-2.4 1-.9 1.8-1.9 2.5-3 1.9 0 3.8-.2 5.6-.3 2-.2 3.9-.4 5.9-.7 1.9-.2 3.9-.8 5.8-1.6.5-.2.9-.5 1.3-.7.4-.3.9-.5 1.3-.8.8-.6 1.6-1.2 2.2-2 2.8-2.9 4.6-6.5 5.7-10.3.6-1.9 1-3.8 1.2-5.8.4-1.8.5-3.8.3-5.8zm-.3 5.9c-.2 1.9-.7 3.9-1.3 5.7-.6 1.9-1.4 3.7-2.3 5.4-1 1.7-2.1 3.3-3.5 4.6-.6.7-1.4 1.3-2.2 1.9-.4.3-.8.5-1.2.8-.4.2-.8.5-1.3.7-1.8.8-3.6 1.2-5.6 1.4-1.9.2-3.9.4-5.8.6-1.9.1-3.9.3-5.8.2h-.3l-.2.3c-.8 1.1-1.5 2.1-2.5 2.9-.9.9-2.1 1.6-3.2 2.1-1.2.5-2.4.9-3.7 1.1-1.3.2-2.6.2-3.8.1h-.2c-1.2.2-2.5.1-3.8-.1-1.2-.2-2.5-.6-3.6-1.1s-2.2-1.2-3.1-2.1c-.9-.8-1.7-1.9-2.4-2.9l-.2-.3-.4-.1-8.3-1-4.2-.5c-1.3-.2-2.6-.5-3.8-1-2.4-1-4.5-2.8-6.1-5-1.6-2.2-2.6-4.7-3.4-7.3-.7-2.6-1.1-5.4-1.2-8.1 0-1.4 0-2.7.1-4.1l.4-4.2c.5-5.6 1-11.2 1.4-16.8 1.1-11.3-1.3-22.5-1.4-33.6 0-1.4 0-2.8.3-4.1.3-1.3.6-2.7 1-4 .8-2.7 1.9-5.2 3.5-7.5 1.5-2.3 3.5-4.3 5.7-6 2.2-1.7 4.6-3.2 7.2-4.2 2.6-1 5.3-1.7 8-2.2 2.7-.5 5.5-.9 8.3-1 5.6-.4 11.2-.1 16.7.7 5.5.8 11 2.2 15.7 5 2.4 1.4 4.6 3.1 6.4 5.1 1.9 2 3.3 4.3 4.4 6.8 1.1 2.5 1.9 5.2 2.5 7.9.5 2.7.4 5.5.3 8.2-.1 2.7-.4 5.6-.5 8.4-.1 2.8-.2 5.6-.2 8.4 0 2.8-.1 5.6.2 8.4.3 2.8.9 5.5 1.3 8.3.9 5.5 2.1 11 2.7 16.6-.2 1.7-.4 3.7-.6 5.6z" fill="#c27b55" stroke-width="none" opacity="1" stroke="none"></path><path id="SvgjsPath81152" d="M98.2 142.9s.8-3.7 4.1-4.6c3.3-1-4.1 4.6-4.1 4.6z" fill="#d19271" stroke-width="none" opacity="1" stroke="none"></path></g></g><g id="svga-group-mouth-single-move" transform="matrix(1,0,0,1,0,0)"><g id="svga-group-mouth-single" transform="matrix(1,0,0,1,0,0)"><path id="SvgjsPath81200" d="M81.92 117.96s.27 1.88 3.14 5.11 7.53 10.04 8.79 10.67 14.26.99 14.88.99c.63 0 3.68-6.81 4.3-8.88.63-2.06 2.24-6.37 2.06-6.99 0 0-4.66 1.26-7.53 2.06-2.87.81-8.34 1.52-9.24 1.52-.79 0-9.76-2.06-16.4-4.48z" fill="#000000" stroke-width="none" opacity="1"></path><path id="SvgjsPath81201" d="M107.66 120.83c-2.87.81-8.34 1.52-9.24 1.52s-9.86-1.97-16.5-4.39c0 0 .27 1.88 3.14 5.11.72.81 1.61 1.88 2.51 3.05 2.51.63 6.64 1.61 8.88 1.97 0 0 .45-1.26.63-1.34.18-.09.18 1.43.18 1.43s4.12.9 6.55.72c0 0 .63-.45 1.43-.09 0 0 3.95-.54 7.26-1.17.27-.72.54-1.34.63-1.7.63-2.06 2.24-6.37 2.06-6.99 0-.1-4.66 1.07-7.53 1.88z" fill="#ffffff" stroke-width="none" opacity="1"></path><path id="SvgjsPath81202" d="M116.89 118.41c-.54-.54-1.26-1.17-2.24-1.17-.36 0-.54.18-.36.36.09.09.18.27.27.36-2.42.72-4.84 1.34-7.35 1.88-2.78.63-6.01 1.79-8.97 1.79-2.6 0-5.65-.99-8.16-1.61-2.42-.63-4.84-1.43-7.26-2.24.18-.09.36-.09.54-.18.36-.18.45-.54-.09-.63-.72-.18-1.43.09-1.97.36s-.99.72-.72 1.26c.09.18.36.18.54.18.09 0 .09 0 .18-.09.45 1.88 2.51 3.68 3.77 5.38 1.97 2.51 4.03 5.02 5.83 7.62.63.9 1.17 2.24 2.24 2.87.9.54 2.24.54 3.41.63 4.03.27 8.07.45 12.19.45.54 0 .9-.18 1.08-.45 2.87-5.02 4.75-10.31 6.1-15.69.18.36.36.72.81.99.27.18.72.18.9-.09.43-.73-.29-1.54-.74-1.98zm-8.69 15.6c-2.96 0-5.83-.09-8.79-.27-1.34-.09-3.77 0-4.84-.54-.99-.54-1.97-2.15-2.69-2.87-1.7-1.97-3.32-3.95-4.93-5.92-1.43-1.7-3.86-3.95-4.39-5.92 2.24.99 4.66 1.79 7.17 2.51 2.69.81 6.01 1.88 8.88 2.15 2.6.27 5.92-.9 8.25-1.52 2.69-.72 5.38-1.61 7.89-2.6-1.35 5.2-3.68 10.22-6.55 14.98z" fill="#da7c87" stroke-width="none" opacity="1" stroke="none"></path><path id="SvgjsPath81203" d="M116.36 115.54c-.27-.09-.63.09-.36.27.81.54 1.61 1.08 2.24 1.7s.9 1.26 1.43 1.88c.09.18.54.09.54-.09-.09-1.43-1.97-3.05-3.85-3.76z" fill="#e8b9a0" stroke-width="none" opacity="1" stroke="none"></path></g></g><g id="svga-group-eyes-left-move" transform="matrix(1,0,0,1,-1,1)"><g id="svga-group-eyes-left" transform="matrix(1.1000003000000003,0,0,1.1000003000000003,-8.020023754823328,-8.743526367829531)"><g id="svga-group-eyesback-left"><path id="SvgjsPath82047" d="M80.2 74.2c7.5 0 13.5 5.8 13.5 13s-6 13-13.5 13-13.5-5.8-13.5-13 6-13 13.5-13z" fill="#ffffff" stroke-width="none" opacity="1"></path></g><g id="svga-group-eyesiriswrapper-left" transform="matrix(1,0,0,1,0,0)"><g id="svga-group-eyesiriscontrol-left" transform="matrix(1,0,0,1,0,0)"><g id="svga-group-eyesiris-left" transform="matrix(1,0,0,1,0,0)"><path id="SvgjsPath81989" d="M80.2 81.6c3.1 0 5.6 2.5 5.6 5.6s-2.5 5.6-5.6 5.6-5.6-2.5-5.6-5.6 2.5-5.6 5.6-5.6z" fill="#471657" stroke-width="none" opacity="1" stroke="none"></path><path id="SvgjsPath81990" d="M80.2 83.3c2.2 0 3.9 1.7 3.9 3.9s-1.7 3.9-3.9 3.9-3.9-1.7-3.9-3.9 1.7-3.9 3.9-3.9z" fill="#000000" stroke-width="none" opacity="1"></path><path id="SvgjsPath81991" d="m76.1 84.6 4.4 3.1-1.8-5.1c-.3-.4-2.5.8-2.6 2z" fill="#ffffff" stroke-width="none" opacity="1"></path></g></g></g><g id="svga-group-eyesfront-left"><path id="SvgjsPath82055" d="M80.2 73.68c-7.76 0-14.06 6.06-14.06 13.55s6.29 13.55 14.06 13.55 14.06-6.06 14.06-13.55-6.3-13.55-14.06-13.55zm1.43 21.93c-2.87.55-12.6-1.99-12.64-2.45-.04-.46 4.34-8.5 6.7-9.62s6.86-4.11 8.12-3.76c1.26.35 4.38 6.38 5.62 11.95 0-.01-4.93 3.33-7.8 3.88z" fill="#f0c7b1" stroke-width="none" opacity="1"></path><path id="SvgjsPath82056" d="M84.67 98.44c-.98.87-6.07 2.75-6.07 2.75s3.78-.32 5.53-1.39c1.75-1.07 5.32-6.89 5.32-6.89s-3.8 4.66-4.78 5.53z" fill="#d19271" stroke-width="none" opacity="1"></path><path id="SvgjsPath82057" d="m88.76 83.77 2.52-4.55-3.52-.04-2.89-.75s-9.45 4.32-10.23 4.91c-.78.58-4.7 6.71-5.68 8.55-.98 1.84-.91 3.9-.91 3.9.19-.45.63-1.3 1.2-2.34.11.05.23.1.34.15 2.22.77 4.48 1.37 6.78 1.85 1.15.21 2.31.42 3.5.48.59.03 1.19.04 1.81-.07.59-.13 1.16-.32 1.71-.55 2.18-.94 4.15-2.17 6.07-3.56-.01-.03-.01-.06-.02-.1.28-2.35-.46-6.11-.68-7.88zm-5.54 11.11c-.54.21-1.08.38-1.63.49-.54.09-1.11.07-1.69.03-1.15-.09-2.3-.24-3.44-.44-1.15-.19-2.29-.4-3.43-.66-1.14-.25-2.27-.52-3.37-.91-.11-.04-.21-.08-.32-.13 1.77-3.21 4.72-8.09 5.79-8.95.91-.72 5.6-2.55 9-3.82.23.22.44.45.65.71.21.29.42.58.61.89.6.98 1.12 2.02 1.61 3.07.97 2.1 1.78 4.31 2.39 6.53-1.97 1.18-4.03 2.36-6.17 3.19z" fill="#000000" stroke-width="none" opacity="1"></path></g></g></g><g id="svga-group-eyes-right-move" transform="matrix(1,0,0,1,1,1)"><g id="svga-group-eyes-right" transform="matrix(1.1000003000000003,0,0,1.1000003000000003,-11.980036245176734,-8.723026504694388)"><g id="svga-group-eyesback-right"><path id="SvgjsPath82048" d="M119.8 74.2c7.5 0 13.5 5.8 13.5 13s-6 13-13.5 13-13.5-5.8-13.5-13 6-13 13.5-13z" fill="#ffffff" stroke-width="none" opacity="1"></path></g><g id="svga-group-eyesiriswrapper-right" transform="matrix(1,0,0,1,0,0)"><g id="svga-group-eyesiriscontrol-right" transform="matrix(1,0,0,1,0,0)"><g id="svga-group-eyesiris-right" transform="matrix(1,0,0,1,0,0)"><path id="SvgjsPath81992" d="M119.8 82.3c2.7 0 4.9 2.2 4.9 4.9s-2.2 4.9-4.9 4.9-4.9-2.2-4.9-4.9 2.2-4.9 4.9-4.9z" fill="#471657" stroke-width="none" opacity="1" stroke="none"></path><path id="SvgjsPath81993" d="M119.8 83.8c1.9 0 3.4 1.5 3.4 3.4s-1.5 3.4-3.4 3.4-3.4-1.5-3.4-3.4 1.5-3.4 3.4-3.4z" fill="#000000" stroke-width="none" opacity="1"></path><path id="SvgjsPath81994" d="m116.2 84.9 3.8 2.7-1.5-4.5c-.2-.3-2.2.8-2.3 1.8z" fill="#ffffff" stroke-width="none" opacity="1"></path></g></g></g><g id="svga-group-eyesfront-right"><path id="SvgjsPath82058" d="M119.8 73.68c-7.76 0-14.06 6.06-14.06 13.55s6.29 13.55 14.06 13.55 14.06-6.06 14.06-13.55-6.29-13.55-14.06-13.55zm-.1 19.3c-2.69-.48-7.92-1.42-7.92-1.42 1.09-5.23 3.93-10.91 5.11-11.25 1.17-.35 5.42 2.39 7.65 3.41 2.22 1.02 6.42 8.49 6.39 8.92s-8.54.82-11.23.34z" fill="#f0c7b1" stroke-width="none" opacity="1"></path><path id="SvgjsPath82061" d="M130.94 91.45c-.94-1.71-4.69-7.39-5.43-7.93-.74-.54-9.64-4.46-9.64-4.46l-2.69.74s1.15.39 2.73.95c-.07.08-.13.16-.19.25-.33.45-.61.92-.86 1.4-.51.96-.95 1.95-1.35 2.95-.78 2.02-1.4 4.06-1.74 6.23 2.02.45 4.13.91 6.28 1.34l1.61.31c.55.1 1.09.15 1.63.18 1.08.06 2.16.05 3.23.03 1.07-.04 2.15-.11 3.22-.2l1.6-.16c.27-.03.53-.06.8-.1.18-.04.35-.06.53-.11.56.99.99 1.8 1.18 2.22-.01 0 .03-1.93-.91-3.64zm-.84 1.31c-.26.03-.53.06-.79.08-.53.05-1.07.06-1.6.08-1.07.03-2.14.04-3.21.02-2.14-.01-4.27-.04-6.31-.48-2.07-.33-4.18-.62-6.38-.93a40.47 40.47 0 0 1 2.12-6.01c.43-.97.89-1.93 1.42-2.85.27-.45.54-.9.85-1.32.1-.13.21-.26.32-.39 3.2 1.15 7.67 2.81 8.53 3.48 1.01.78 3.8 5.25 5.5 8.23-.14.05-.3.07-.45.09z" fill="#000000" stroke-width="none" opacity="1"></path><path id="SvgjsPath82062" d="M112.18 93.13s5.73 4.16 8.05 4.6c2.32.44 6.81-.4 6.81-.4s-6.43-.17-7.8-.66c-1.38-.49-7.06-3.54-7.06-3.54z" fill="#d19271" stroke-width="none" opacity="1"></path></g></g></g><g id="svga-group-facehighlight-single"></g><g id="svga-group-eyebrows-left-move" transform="matrix(1,0,0,1,0,0)"><g id="svga-group-eyebrows-left-rotate" transform="matrix(1,0,0,1,0,0)"><g id="svga-group-eyebrows-left" transform="matrix(1,0,0,1,0,0)"><path id="SvgjsPath82093" d="M69.24 72.85s6.67 3.31 14.75.4 8.87-4.04 8.27-6.05-2.44-4.67-4.37-4.33c-1.93.34-9.13 6.82-12.81 7.84-3.67 1.02-7.37 1.17-5.84 2.14z" fill="#2a232b" stroke-width="none" opacity="1"></path><path id="SvgjsPath82094" d="M68.9 72.58c.08.13.21.21.33.3 2.11.93 4.37 1.5 6.67 1.73 2.31.2 4.68 0 6.89-.7 1.11-.36 2.18-.78 3.24-1.23 1.06-.44 2.12-.9 3.16-1.4.26-.12.52-.25.77-.39l.38-.21.37-.22c.49-.3.98-.63 1.36-1.1.1-.11.17-.25.25-.38.06-.14.12-.28.16-.43.03-.15.06-.3.05-.45.01-.15-.01-.3-.03-.45-.1-.59-.3-1.14-.54-1.67a9.27 9.27 0 0 0-.87-1.53c-.34-.48-.75-.93-1.24-1.29-.12-.09-.26-.17-.39-.25-.14-.07-.28-.13-.43-.2-.3-.1-.62-.17-.95-.14l-.25.02-.25.06c-.15.05-.3.11-.43.17-.27.13-.53.27-.78.42-1.99 1.21-3.81 2.6-5.69 3.91-.93.66-1.88 1.3-2.84 1.91-.97.59-1.94 1.18-3.01 1.5-1.09.34-2.21.6-3.32.86-.56.14-1.12.25-1.67.42-.27.09-.56.16-.81.33-.06.05-.12.09-.15.17-.04.08-.03.18.02.24zm.06-.03c-.08-.12 0-.24.11-.31.23-.15.51-.23.79-.3.55-.14 1.12-.24 1.68-.34 1.13-.19 2.27-.38 3.4-.64.57-.13 1.14-.33 1.67-.57.53-.24 1.05-.52 1.55-.81 1.01-.58 1.96-1.23 2.91-1.88.94-.66 1.88-1.33 2.8-2.01.93-.67 1.85-1.35 2.81-1.95.24-.15.48-.29.73-.41.12-.06.24-.11.36-.15l.17-.05.18-.02c.49-.05 1 .14 1.44.44.88.62 1.58 1.56 2.09 2.55.25.5.47 1.03.58 1.57.03.13.05.27.05.4.01.14-.01.27-.03.4-.03.13-.08.25-.13.38-.08.11-.13.24-.22.34-.09.1-.17.22-.28.31l-.31.28c-.23.16-.45.34-.7.48-.12.07-.24.15-.36.22l-.38.2c-.25.14-.51.26-.77.38-1.04.48-2.11.88-3.19 1.26-.54.19-1.08.37-1.63.56-.54.19-1.09.32-1.63.49-2.18.61-4.45.83-6.73.81-2.26-.07-4.58-.45-6.67-1.39a.66.66 0 0 1-.29-.24z" fill="#1b141c" stroke-width="none" opacity="1"></path></g></g></g><g id="svga-group-eyebrows-right-move" transform="matrix(1,0,0,1,0,0)"><g id="svga-group-eyebrows-right-rotate" transform="matrix(1,0,0,1,0,0)"><g id="svga-group-eyebrows-right" transform="matrix(1,0,0,1,0,0)"><path id="SvgjsPath82095" d="M133.48 74.11s-5.61 3.59-13.07 1.8c-7.46-1.79-8.28-2.72-7.94-4.57.34-1.84 1.71-4.39 3.45-4.28 1.75.11 8.78 5.17 12.15 5.71 3.38.56 6.68.33 5.41 1.34z" fill="#2a232b" stroke-width="none" opacity="1"></path><path id="SvgjsPath82096" d="M133.76 73.63c-.04-.07-.1-.1-.15-.14-.24-.12-.5-.16-.75-.21-.51-.09-1.02-.14-1.53-.21-1.02-.12-2.04-.25-3.04-.44-.98-.18-1.91-.61-2.82-1.03-.91-.44-1.82-.92-2.71-1.42-1.8-.98-3.55-2.04-5.44-2.92-.24-.11-.48-.21-.74-.29-.13-.04-.26-.08-.4-.11l-.22-.03-.22.01c-.29.01-.57.11-.83.22-.12.07-.25.14-.36.22-.11.09-.22.16-.32.26-.4.37-.72.81-.98 1.26-.26.46-.47.94-.63 1.44-.16.5-.29 1.01-.32 1.54 0 .13-.01.27.02.4.01.14.05.27.09.4.04.13.12.25.18.37.09.1.16.22.26.31.38.38.85.63 1.32.85l.35.16.36.15c.24.1.48.19.72.27.97.34 1.95.65 2.94.94.99.29 1.98.56 3 .77 2.04.41 4.17.35 6.2-.05 2.03-.43 3.98-1.16 5.76-2.19.1-.08.2-.17.27-.3.03-.08.03-.17-.01-.23zm-.29.46c-1.76 1.04-3.78 1.6-5.79 1.89-2.02.25-4.06.27-6.06-.06-.5-.1-1-.16-1.5-.28-.5-.11-1-.22-1.5-.34-1-.23-1.99-.48-2.96-.81-.24-.08-.48-.16-.72-.26l-.36-.14c-.12-.05-.23-.11-.35-.16-.23-.1-.45-.24-.67-.36l-.31-.22c-.1-.07-.18-.17-.28-.25-.09-.08-.15-.19-.23-.28-.05-.11-.12-.21-.15-.32-.03-.12-.07-.23-.07-.35-.02-.12-.01-.24 0-.36.05-.49.19-.98.36-1.45.36-.93.88-1.83 1.61-2.47.36-.32.8-.53 1.24-.54h.16l.16.03c.11.03.22.06.34.1.23.08.46.18.68.29.91.43 1.8.95 2.69 1.45.89.51 1.78 1.02 2.69 1.51.91.48 1.82.97 2.77 1.38.47.21.96.4 1.46.56.49.17 1.02.29 1.54.35 1.03.12 2.06.18 3.08.23.51.03 1.02.07 1.53.13.25.04.51.08.73.19.11.05.19.16.13.27-.03.1-.13.19-.22.27z" fill="#1b141c" stroke-width="none" opacity="1"></path></g></g></g><g id="svga-group-beardwrap" transform="matrix(1.0400003000000002,0,0,1.0002003000000002,0,0)"><g id="svga-group-beard-single-move" transform="matrix(1,0,0,1,-1,4)"><g id="svga-group-beard-single" transform="matrix(1,0,0,1,0,0)"><path id="SvgjsPath82249" d="M60 87.7c-1.9 1.7-4.9 12.5-5.5 18.9-.6 6.4 2.1 16.6 4 19.2l.9-3 .2 4.1s.7 7.5 7.1 15.4l1-1.6.9 3.7s4.7 6.3 14.3 11.4c9.6 5.1 25.3 3.2 25.3 3.2l.6-2.1.8 1.7s13.3-1.4 18-7.6l1.9-5.3.3 3.5s13.9-10.3 13.9-35.4l-1.3-3.6 2.1 2.3s.7-16.6-5.3-25.3c0 0-3.7-2.1-4.3 1.3s-2.4 11.1-3.6 16.6-11.9 26.1-17.9 30.5c-7.7 5.6-18.7 6.1-25.5 0-6.5-5.9-15.2-17.9-19.2-27.2-4.8-11.1-3.9-17.8-5-19.8s-3.7-.9-3.7-.9z" fill="#2a232b" stroke-width="none" opacity="1"></path><path id="SvgjsPath82250" d="M144.9 105.8c-.1-2.2-.4-4.4-.7-6.5-.4-2.2-.8-4.3-1.5-6.4-.7-2.1-1.6-4.1-2.8-6l-.1-.1-.1-.1c-.7-.4-1.5-.7-2.4-.7-.8-.1-1.9.4-2.3 1.3-.2.4-.3.8-.4 1.2l-.2 1.1-.5 2.2-1.9 8.8-1 4.4c-.4 1.4-.9 2.8-1.5 4.2-1.2 2.7-2.5 5.4-3.9 8.1-2.8 5.3-5.8 10.5-9.5 15.1-.9 1.1-1.9 2.2-3.1 3.1l-1.8 1.2c-.6.4-1.3.7-2 1-2.7 1.2-5.6 1.8-8.5 1.9-2.9.1-5.9-.5-8.5-1.8-1.3-.6-2.5-1.5-3.7-2.4-1.1-1-2.2-2-3.2-3.1-4.1-4.4-7.7-9.2-10.9-14.2-1.6-2.5-3.1-5.1-4.4-7.8-1.3-2.7-2.4-5.5-3.3-8.3-.8-3-1.5-6-1.8-9l-.3-2.2c-.1-.7-.2-1.5-.5-2.2-.3-.7-1.1-1.2-1.8-1.2-.8-.1-1.5 0-2.2.3-.6.6-1 1.4-1.3 2.1-.3.8-.7 1.5-.9 2.3-.6 1.6-1 3.1-1.5 4.7-.9 3.2-1.6 6.4-2 9.7-.3 3.3.1 6.7.8 9.9.3 1.6.7 3.2 1.2 4.8.5 1.6 1 3.2 2 4.6l.4.6.2-.7.4-1.2v.7l.1 1.3c0 .5.1.9.2 1.4.3 1.8.9 3.5 1.5 5.1.7 1.7 1.4 3.3 2.3 4.8.9 1.5 1.9 3 3 4.4l.3.4.3-.5.5-.7.7 2.7v.1l.1.1c2.3 3 5.2 5.4 8.2 7.6 3 2.1 6.2 4.1 9.8 5.4 3.5 1.2 7.3 1.7 10.9 1.9 3.7.2 7.4.1 11.1-.3h.2l.1-.2.4-1.5.5 1.1.1.2h.2c1.7-.2 3.3-.5 4.9-.9 1.6-.4 3.2-.9 4.8-1.4 1.6-.6 3.1-1.2 4.6-2.1 1.4-.9 2.8-1.9 3.8-3.3l1.7-4.6.3 2.8v.3l.2-.2c2.6-2.1 4.6-4.7 6.4-7.4 1.8-2.8 3.2-5.7 4.4-8.8.5-1.6 1.1-3.1 1.4-4.7l.6-2.4.4-2.4c.2-.8.3-1.6.3-2.4l.3-2.4c.1-1.6.1-3.3.2-4.9v-.1l-.7-2.1 1.1 1.2.6.6v-.8c-.1-2.3-.2-4.5-.3-6.7zm-1.8 15.1-.3 2.4-.4 2.4c-.1.8-.4 1.6-.6 2.4-.4 1.6-.9 3.1-1.4 4.7-1.1 3.1-2.5 6-4.3 8.7-1.7 2.6-3.7 5.1-6.1 7.2l-.3-3.2-.1-.7-.2.7-1.9 5.3c-1 1.3-2.3 2.3-3.7 3.1-1.4.9-2.9 1.5-4.5 2.1-1.6.6-3.2 1-4.8 1.4-1.6.4-3.1.6-4.7.8l-.8-1.5-.3-.6-.2.7-.6 1.9c-3.6.4-7.2.4-10.8.2-3.7-.3-7.3-.8-10.7-2-3.4-1.2-6.5-3.2-9.5-5.3-2.9-2.2-5.6-4.6-7.9-7.4l-.9-3.6-.2-.9-.5.8-.7 1.1c-.9-1.2-1.8-2.5-2.7-3.8-.9-1.5-1.7-3.1-2.3-4.7-.7-1.6-1.2-3.3-1.5-5-.1-.4-.2-.9-.2-1.3l-.1-1.3-.1-2.6-.1-1.9-.6 1.9-.7 2.3c-.7-1.2-1.2-2.5-1.6-3.8-.5-1.6-.9-3.2-1.2-4.8-.7-3.2-1.1-6.5-.8-9.8.3-3.3 1-6.5 1.8-9.7.4-1.6.9-3.2 1.4-4.8.3-.8.5-1.6.9-2.3.3-.7.7-1.5 1.2-2.1.7-.2 1.5-.3 2.2-.2.7.1 1.4.5 1.7 1.2.3.7.4 1.4.5 2.2l.2 2.2c.3 3 .9 5.9 1.7 8.8.8 2.9 1.9 5.7 3.2 8.4 1.3 2.7 2.8 5.3 4.4 7.9 3.2 5.1 6.8 10 10.8 14.4 1 1.1 2.1 2.2 3.2 3.2 1.2 1 2.4 1.9 3.8 2.6 2.8 1.4 5.9 1.9 8.9 1.9 3.1-.1 6.1-.7 8.9-2 .7-.3 1.4-.6 2.1-1 .7-.4 1.3-.8 1.9-1.2 1.3-.9 2.3-2.1 3.3-3.2 3.8-4.7 6.8-10 9.6-15.3 1.4-2.7 2.7-5.4 3.9-8.2.6-1.4 1.1-2.8 1.5-4.3l.9-4.4 1.9-8.8.5-2.2c.2-.7.3-1.5.5-2 .5-1.1 2.1-.9 3.3-.2 1.1 1.8 2 3.7 2.7 5.7.7 2 1.2 4.2 1.6 6.3.4 2.1.6 4.3.8 6.4.1 1.9.2 3.8.2 5.7l-1.6-1.7-1.1-1.2.5 1.5 1.3 3.6c-.1 1.6-.1 3.2-.2 4.8l-.1 2.1zm-83.9-17.5c-.2 1.8-.3 3.7-.2 5.6.1 1.8.3 3.7.8 5.5-.1-1.8-.2-3.7-.2-5.5 0-1.8.2-3.7.4-5.4.2-1.8.6-3.6 1-5.4s1-3.5 1.6-5.3c-.9 1.6-1.6 3.3-2.1 5.1-.7 1.7-1 3.6-1.3 5.4zm4.8 13.7c-.2-2-.3-4-.4-6.1v-6.1c-.4 2-.6 4.1-.6 6.1-.1 2.1 0 4.1.2 6.1s.5 4.1 1 6.1 1.1 4 1.8 5.8c-.5-2-.9-4-1.3-6-.2-1.9-.5-3.9-.7-5.9zm4.9 10.8c-.4-1.3-.7-2.6-1-3.8l-.9-3.9c0 1.3.2 2.7.3 4s.5 2.6.9 3.9c.4 1.3.8 2.6 1.3 3.8.5 1.2 1.1 2.5 1.8 3.6l-1.2-3.8c-.5-1.3-.9-2.5-1.2-3.8zM80 140.5c-.8-1.9-1.4-3.9-2-5.8-.5-2-.9-4-1.2-6.1 0 2.1.2 4.2.6 6.2.4 2.1 1.1 4.1 1.8 6 .8 1.9 1.8 3.8 3 5.5 1.2 1.7 2.5 3.4 4 4.8-1.3-1.6-2.5-3.3-3.5-5.1-1-1.8-1.9-3.6-2.7-5.5zM91.1 151c-.7-1.1-1.3-2.3-1.9-3.4-.6-1.2-1.1-2.4-1.6-3.6.2 1.3.6 2.6 1.1 3.9.5 1.2 1.1 2.4 1.8 3.6.7 1.1 1.5 2.2 2.4 3.2.9 1 1.9 1.9 2.9 2.7-.9-1-1.7-2-2.5-3.1s-1.5-2.2-2.2-3.3zm5.2-5.3c.2 1.9.7 3.8 1.2 5.6.6 1.8 1.3 3.6 2.3 5.2-.4-1.9-1-3.6-1.6-5.4-.6-1.9-1.2-3.7-1.9-5.4zm6.2 4.4c-.2 1.1-.1 2.3 0 3.4s.3 2.2.8 3.3c.2-1.1.1-2.3 0-3.4s-.3-2.2-.8-3.3zm12.5-3.7c-.2 2.2-.4 4.4-.4 6.6.7-2.1 1-4.3 1.2-6.5.2-2.2.2-4.4-.1-6.6-.4 2.1-.5 4.3-.7 6.5zm6.6-10.8-.6 4.5c-.2 1.5-.5 3-.7 4.5l-.9 4.5c.6-1.4 1-2.9 1.4-4.4.4-1.5.7-3 .9-4.5.2-1.5.4-3.1.4-4.6.1-1.5 0-3.1-.1-4.6-.1 1.6-.2 3.1-.4 4.6zm6.5-8.9-.7 4.8-.7 4.8c-.2 1.6-.5 3.2-.8 4.8.5-1.5 1-3.1 1.3-4.7.4-1.6.7-3.2.9-4.8.2-1.6.4-3.2.5-4.8.1-1.6.2-3.2.1-4.9l-.6 4.8zm5.5-6.7c-.2 1.8-.4 3.5-.7 5.2-.3 1.7-.7 3.5-1.1 5.2-.4 1.7-.9 3.4-1.4 5.1.8-1.6 1.4-3.3 1.9-5s.9-3.4 1.2-5.2c.3-1.8.5-3.5.6-5.3s0-3.6-.2-5.3c0 1.8-.1 3.6-.3 5.3zm4.3-16.6c-.5-1.8-1-3.6-1.7-5.3.4 1.8.8 3.6 1.1 5.4l.9 5.4c.2 1.8.4 3.7.5 5.5.1 1.8.2 3.7.3 5.5.2-1.8.3-3.7.3-5.6 0-1.9-.1-3.7-.4-5.6-.2-1.7-.5-3.5-1-5.3zm2.6-4c-.5-1.6-1.1-3.1-1.7-4.6-.6-1.5-1.3-3-2.1-4.4l1.6 4.6c.5 1.6 1 3.1 1.5 4.6.5 1.6 1 3.1 1.4 4.7l1.4 4.7c-.2-1.6-.5-3.2-.8-4.8-.4-1.6-.8-3.2-1.3-4.8zm1.3-2.5c-.1-1.2-.3-2.4-.7-3.6-.4-1.2-.8-2.3-1.4-3.4.1 1.2.4 2.4.7 3.6.3 1.2.7 2.4 1.4 3.4zM61.2 90c-1.2 1-2.1 2.2-2.8 3.6-.7 1.3-1.2 2.8-1.3 4.3.7-1.3 1.3-2.7 2-4l2.1-3.9z" fill="#1b141c" stroke-width="none" opacity="1"></path></g></g></g><g id="svga-group-mustache-single-move" transform="matrix(1,0,0,1,0,0)"><g id="svga-group-mustache-single" transform="matrix(1,0,0,1,0,0)"><path id="SvgjsPath82214" d="M99.1 117.8c.5-2.1.9-4.7-4.3-4.5-5.2.2-10.8 1.8-13.5 4.6s-.9 4.4 1.2 4.4 10.7-1.4 13.2-1.6 3.1-1.2 3.4-2.9zm4.1 0c-.6-2-1.2-4.6 4.1-4.8 5.4-.2 11.2 1 14.2 3.7s1.2 4.4-1 4.5c-2.2.1-11.1-.7-13.7-.7-2.5-.1-3.1-1.1-3.6-2.7z" fill="#2a232b" stroke-width="none" opacity="1"></path><path id="SvgjsPath82215" d="M98.3 113.7c-.4-.3-.9-.5-1.4-.6-2-.4-4-.2-6 .2s-3.8 1.1-5.7 1.9c-1.8.8-3.6 1.8-4.8 3.5-.3.4-.6.9-.7 1.4-.1.5 0 1.2.4 1.7.8.9 2 1.1 3.1 1.1 2-.1 3.9-.3 5.9-.6 1.9-.3 3.9-.6 5.8-1 .9-.2 2-.2 2.9-.8.9-.5 1.3-1.6 1.5-2.5.2-.9.5-2 .1-3-.2-.6-.6-1-1.1-1.3zm-17.4 5.2c1-1.6 2.7-2.7 4.5-3.5 1.8-.7 3.7-1.1 5.7-1.3 1.3-.2 2.7-.3 4-.4v.1c-1.6 1.7-3.1 3.5-4.5 5.3-.4.4-.8.9-1.2 1.3l-.1.1v-.3l.1-.9c.1-1.2.2-2.3.4-3.4l.1-.5-.3.4c-1.1 1.6-2.2 3.1-3.3 4.7l-.6-3.6-.1-.6-.4.5c-.8 1.1-1.7 2.2-2.5 3.3l-.7-1.4-.1-.2-.1.2-1.3 2.4c-.3-.7-.1-1.5.4-2.2zm2.2 3c-.9.1-1.8-.1-2.4-.6-.1-.1-.1-.2-.2-.2l1.3-2.1.6 1.5.1.3.2-.3 2.4-3 .6 3.6.1.4c-.9.2-1.8.3-2.7.4zm16-4.1c-.1.5-.2.9-.5 1.4-.2.4-.6.8-1 .9-.9.4-1.8.3-2.8.4-2 .1-3.9.3-5.9.6-.9.1-1.9.3-2.8.4l.2-.3c1.1-1.6 2.1-3.3 3.1-4.9-.1 1-.1 2-.2 2.9l-.1.9v.6c.1.1.1 0 .1 0 .1 0 .1-.1.1-.1l.2-.2 1.2-1.2c1.5-1.6 2.9-3.2 4.3-4.8.2 1.6.3 3.3.6 4.9h.1c-.1-1.8-.1-3.6-.3-5.4v-.2h1.4c.9.1 1.9.4 2.3 1.2.4.9.2 2 0 2.9zm24.2 1c-.2-.6-.5-1-.8-1.4-1.4-1.6-3.3-2.5-5.2-3.2-1.9-.7-3.9-1.2-5.9-1.5-2-.2-4.1-.3-6.1.2-.5.1-1 .3-1.5.6-.4.3-.8.7-1 1.2-.3 1 0 2.1.3 3 .1.5.3 1 .6 1.4.3.4.7.8 1.2 1 1 .5 2 .4 3 .6 2 .3 4 .4 6 .6 2 .1 4 .2 6.1.2 1 0 2.3-.2 3.1-1.2.3-.3.4-1 .2-1.5zm-.9 1.2c-.3.3-.7.5-1.1.6-.4.1-.9.1-1.4.1h-.5l.1-.4.7-2.1 1.6 1.6-1.6-1.8-.1-.2-.1.2-.7 1.8c-.4-1.1-.9-2.2-1.4-3.2l-.3-.6-.2.7-.8 2.8c-1.2-1.6-2.3-3.2-3.5-4.7l-.2-.3-.1.3c-.4 1.6-.8 3.2-1.2 4.7-.8-.8-1.6-1.6-2.3-2.4-.8-.9-1.6-1.7-2.4-2.5l-.2-.2-.1.3c-.2.8-.5 1.5-.7 2.3-.2.6-.3 1.2-.5 1.8l-.5-1.3-.4-.9c-.1-.3-.2-.6-.4-.8.2.2.2.6.3.9l.3.9.6 1.8.2.5.2-.5c.3-.8.5-1.5.7-2.3.2-.6.4-1.3.6-1.9.8.7 1.5 1.5 2.3 2.2.9.8 1.7 1.6 2.5 2.4l.1.1v-.1c.4-1.5.9-3 1.3-4.5 1.1 1.7 2.3 3.3 3.5 5l.3.4.2-.5.8-2.6c.4 1 .9 2 1.4 3l.2.4-5.4-.3c-2-.1-4-.2-6-.2-1 0-2 .1-2.9-.2-.5-.2-.8-.5-1.1-.9s-.4-.9-.6-1.4c-.3-.9-.6-2-.2-2.9.4-.9 1.4-1.2 2.3-1.4 1.9-.2 3.9-.1 5.9 0 2 .1 4 .3 5.9 1 1.9.6 3.7 1.7 4.9 3.2.2.5.5 1.5 0 2.1z" fill="#1b141c" stroke-width="none" opacity="1"></path></g></g><g id="svga-group-nose-single-move" transform="matrix(1,0,0,1,0,0)"><g id="svga-group-nose-single" transform="matrix(1,0,0,1,0,0)"><path id="SvgjsPath81166" d="M103.78 79.27s-5.31-.41-8.3.62-2.96 2.84-2.86 4.28.2 4.84.82 5.76-.1 2.58-.41 3.2.25 6.61.66 8.26c.41 1.65.99 3.71.37 4.13s-3.1 1.24-3.2 2.17 2.79 7.95 3.41 8.47 11.05.41 11.98.52 4.44-7.12 4.03-8.36-3.72-1.45-4.03-2.37 1.4-13.03 1.19-13.65-.26-2.75.36-4.2.33-6.27.27-6.7c-.27-1.7-3.67-1.92-4.29-2.13z" fill="#e8b9a0" stroke-width="none" opacity="1" stroke="none"></path><path id="SvgjsPath81167" d="M103.77 79.32c-2.16-.13-4.39-.07-6.51.36-1.05.22-2.1.54-2.95 1.11-.42.29-.78.64-1 1.07-.22.42-.31.9-.32 1.41-.01.5.07 1.05.1 1.6l.12 1.63c.05.54.11 1.08.18 1.6.08.52.17 1.06.35 1.46l.2.36c.07.17.12.34.15.51.05.34.03.65-.02.96-.1.6-.3 1.15-.55 1.67-.05.12-.15.3-.14.29-.02.08-.04.21-.04.34-.02.26-.02.52-.02.79 0 .54.02 1.08.05 1.62.06 1.09.14 2.18.25 3.26.06.54.12 1.08.21 1.61.09.52.24 1.06.35 1.6.12.54.23 1.08.29 1.64.02.28.04.57-.01.86-.03.15-.07.31-.18.45-.13.16-.27.21-.39.28-.5.25-1 .46-1.48.71-.47.25-.97.52-1.27.9-.07.1-.12.2-.13.3-.01.09.02.23.04.35.06.26.13.52.22.78.16.52.35 1.03.54 1.54.38 1.02.81 2.03 1.26 3.02.23.5.46.99.71 1.47.12.24.25.48.39.71.07.11.14.23.21.31.03.05.07.07.05.06.02.01.08.03.14.04.49.09 1.05.11 1.59.14.54.02 1.09.03 1.63.04 2.18.02 4.37.02 6.56.02.55 0 1.09 0 1.66.02l.22.01c.02 0 .06.01.05 0-.02-.01-.05 0-.06 0l-.03.01c.02-.01.11-.08.18-.16.16-.17.31-.38.46-.59.58-.87 1.08-1.84 1.54-2.81.45-.97.87-1.98 1.18-2.98.07-.25.14-.5.18-.74.04-.23.05-.48.02-.49-.08-.22-.55-.49-1.02-.67-.48-.2-.99-.36-1.53-.56-.27-.11-.54-.21-.84-.39-.15-.09-.3-.2-.45-.39-.07-.1-.15-.22-.19-.35-.02-.06-.03-.13-.04-.19l-.01-.13c-.02-.64.03-1.16.08-1.72l.16-1.65c.23-2.19.52-4.36.81-6.53.14-1.08.31-2.18.39-3.23 0-.07.01-.13.01-.18V92.41l-.02-.06c-.04-.16-.06-.31-.07-.45-.03-.29-.03-.57-.03-.86.01-.56.08-1.12.19-1.68.06-.28.13-.55.22-.82.09-.27.22-.54.3-.76.16-.5.22-1.04.28-1.58.11-1.08.11-2.18.09-3.27-.03-.54-.02-1.1-.11-1.62-.13-.52-.59-.88-1.06-1.12-.97-.51-2.07-.63-3.14-.87zm.02-.1c1.06.23 2.18.35 3.18.85.49.24.98.62 1.13 1.19.1.56.1 1.1.13 1.65.06 1.1.08 2.19.04 3.3-.03.55-.06 1.1-.2 1.66-.08.3-.19.53-.25.78-.07.25-.12.51-.16.78-.08.53-.1 1.06-.08 1.59.01.26.03.53.07.78.02.12.05.25.08.35l.01.04.02.09c.01.07.01.11.02.15.01.08.01.16.01.23-.02 1.13-.12 2.21-.21 3.31-.19 2.19-.42 4.36-.63 6.53l-.14 1.63c-.04.53-.08 1.1-.06 1.56.02.15-.01.04.01.09.02.03.09.09.18.14.17.11.41.21.65.3.49.19 1.02.35 1.56.57.27.11.54.24.82.41.27.18.57.41.76.81.02.05.04.1.06.16.02.07.03.13.04.19.02.11.02.21.01.3-.01.18-.03.33-.06.49-.06.3-.14.58-.22.85-.35 1.09-.8 2.1-1.28 3.1-.49 1-1.01 1.98-1.66 2.92-.17.24-.34.47-.56.7-.12.11-.23.23-.45.35-.06.03-.13.06-.23.07-.04.01-.11.01-.16.01h-.05l-.19-.01-1.63-.05c-2.19-.06-4.38-.09-6.58-.21-.55-.03-1.1-.07-1.65-.11-.55-.05-1.09-.09-1.68-.22-.08-.02-.15-.04-.25-.09-.02-.01-.06-.03-.09-.06-.03-.02-.04-.04-.06-.06a.73.73 0 0 1-.09-.11c-.1-.13-.16-.25-.24-.38-.14-.25-.26-.5-.38-.75a49.4 49.4 0 0 1-.66-1.51c-.42-1.02-.82-2.04-1.2-3.07-.19-.52-.37-1.04-.53-1.57-.08-.27-.16-.53-.21-.81-.02-.14-.06-.28-.04-.46.02-.18.11-.32.2-.45.39-.47.9-.72 1.38-.99.49-.26 1-.48 1.47-.72.12-.06.24-.13.28-.19a.87.87 0 0 0 .11-.31c.03-.24.01-.51-.02-.77-.07-.53-.19-1.06-.33-1.59-.13-.53-.3-1.04-.42-1.6-.12-.55-.21-1.09-.29-1.63-.16-1.09-.3-2.18-.4-3.28-.05-.55-.1-1.1-.12-1.66-.01-.28-.02-.56-.01-.85.01-.15.01-.29.04-.48.07-.28.13-.33.18-.46.21-.47.38-.97.44-1.45.03-.24.04-.47 0-.68-.02-.1-.05-.19-.09-.28l-.2-.36c-.26-.6-.34-1.16-.43-1.72-.08-.56-.13-1.11-.17-1.66l-.09-1.65c-.01-.54-.07-1.08-.04-1.68.02-.58.16-1.21.49-1.74.31-.54.79-.94 1.29-1.24 1.01-.6 2.13-.84 3.23-.98 1.1-.15 2.2-.15 3.3-.17 1.1.03 2.19.05 3.3.13z" fill="#c27b55" stroke-width="none" opacity="1" stroke="none"></path><path id="SvgjsPath81168" d="M97.96 113.62c-.07-.26-.22-.5-.35-.73-.14-.24-.28-.51-.53-.64-.3-.16-.79.03-.75.43.03.29.17.48.3.73.11.21.18.44.29.65.31.56 1.21.18 1.04-.44z" fill="#c27b55" stroke-width="none" opacity="1" stroke="none"></path><path id="SvgjsPath81169" d="M103.46 112.66c-.02-.42-.52-.52-.75-.2-.35.49-.77 1.13-.79 1.74-.02.69.92.89 1.25.34.32-.52.31-1.29.29-1.88z" fill="#c27b55" stroke-width="none" opacity="1" stroke="none"></path></g></g><g id="svga-group-hair-front" transform="matrix(1.0400003000000002,0,0,1.0002003000000002,-4.018265152631784,-0.010771132423599283)"><path id="SvgjsPath82180" d="M151.4 72.2c.5-1.9.6-4.1-.1-5.9-.4-.9-1.1-1.9-1.9-2.6.3-1.5.2-3-.4-4.4-.4-.8-.9-1.3-1.4-1.7-.3-.6-.7-1.1-1.2-1.5.1-.3.1-.6.2-.9 1.9-1.7 2.7-4.9 2.2-7.2-.4-1.6-1.5-3.3-3-4.3-.2-.8-.5-1.5-.8-2.1-1.3-2.3-3.5-3.7-5.8-4.6-.5-3.2-2.4-5.8-5.5-6.3-.1-.2-.1-.4-.2-.6-1.1-2.7-3.6-4-6.4-4.1-1.7-.1-3.4.5-5.2.5-1.8 0-3.3-.8-4.8-1.7-.8-1.9-2.3-3.4-4.1-4.5l-.4-.4c-.2-.2-.5-.2-.8-.2-.1 0-.1 0-.2-.1-.2-.3-.6-.6-1-.8-.4-.1-.8.2-.8.6 0 1 .1 1.9-.2 2.6-.2.2-.3.5-.5.8-.1.1-.3.3-.4.5-.3.2-.6.4-.8.6-1.4-.3-2.9 0-4.6 0-2.4-.1-4.1-1.3-5.4-2.9-.1-.7-.1-1.4-.1-2.1.1-.4.2-.7.3-1.1v-.2c.1-.1.3-.1.4-.2.1 0 .1-.1.2-.1.3 0 .7-.1 1-.2.5-.1.7-.7.3-1.1-1.4-1.4-3.8-.8-5.3.1-.1 0-.1.1-.2.1-1.4.5-2.6 1.7-3.1 3.6-.2.7-.3 1.3-.3 2-1.9-.3-4 1.2-5.4 2.7-1.1-1.1-3.2-1.8-4.8-1.9-.3-.1-.6-.2-.9-.2-1-.1-2 .1-2.8.6-.2.1-.4.1-.6.2-.2.1-.4.3-.4.6-1.6 1.1-2.4 3-2.4 4.9-.3.4-.6.7-1 1.1l-1 1c-.6.1-1.3.1-2.1 0-1.7-.3-3.2-1.2-4.9-1.4-2.6-.2-4.3 1.3-4.2 3.8 0 .1 0 .2.1.3-.4.1-.8.3-1.2.4-1.7.7-3.3 1.9-3.9 3.7-.6 1.8.3 2.6.7 4.2.7 2.4-2.1 3.2-3 5.3-.6 1.4-.5 2.8.1 4.2.1.2.3.5.4.8-.6 1-.7 2.6-.4 4.2-2.4-1.1-5-2-5.2-4.3 0-.5-.9-.8-1-.1-.4 2.2.3 3.7 2.2 4.9 1.3.9 3 1.3 4.3 2.4-.2.1-.3.3-.3.6 0 .6-.2 1.2-.5 1.8 0 .1-.1.1-.1.2v.1c-1 1.7-3 3.5-3.7 5.1-.2.6-.4 1.2-.6 1.9-1.6.7-2.9 3-3.4 4.3-1.2 3-.9 6.5 1.7 8.6.4.3 1 0 .9-.5-.7-2.5-.6-5.4.6-7.7-.3 2.1.6 3.8 2.7 4.6 1.3.5 2.6.4 3.9.6.8.1 1.6.2 2.3.8.3.2.5.6.7.9-.2.4-.4.8-.4 1.4-.4.7-.7 1.4-.9 2.1-.4 1.1-.5 2.3-.2 3.4.8 2.4 3.2 2.5 5.2 1.7.9-.4.5-1.9-.5-1.8-.5 0-1.4.1-1.8-.3-.5-.5-.2-1.4 0-2 .4-1.1 1-2.4.5-3.5.1-.1.2-.3.3-.4v-.2c.9-.7 1.9-1.4 2.5-2.3.6-1.2.5-2.5-.2-3.5 2.8-1 3.9-5.1 3-7.8-.2-.5-.5-1.1-.9-1.6-.7-2-1.7-3.3-1.2-5.6.2-1.2.7-2 1.4-2.8-.8 2.5-.3 5.7 2.6 6.4.3.1.6-.3.3-.6-5.1-4.3 4.8-9.5 7.3-12.9.2-.2.3-.5.5-.8.6 2.2 2 4.3 4.2 4.5.7.8 1.6 1.2 2.8 1.2.1 0 .2 0 .3-.1 1 .4 2.1.5 3.1-.2.4-.3.3-.8-.1-1-.7-.2-1.3-.3-1.9-.5-.4-1.1-.8-2.2-.9-3.2 2.4-6.2 10-5.6 14.4-9.7 1.3 1.2 2.8 1.7 4.7 1.9 1.3.1 2.6.2 3.7.9 1.1.8 1 1.9 1.2 3.1.1.8 1 1.1 1.7.9-.4 2-1.9 3.2-2.9 5-.2.4 0 1 .5.9.6-.1 1.1-.2 1.6-.5.5-.1.9-.3 1.4-.5 4.8 0 6.2-5.4 5.8-9.5.9 2.2 2.6 4 4.7 5 .9.5 2.4.8 3.9.9.1 0 .1 0 .1.1 1.1.4 2 1.1 2.8 2 .6.7 1 1.7 1.9 2 .5 2.1 2.1 4.4 4 4.9.2 0 .4.1.6.1.4.4.9.7 1.3 1 .6.4 1.3.6 2 .8.8 2.5-.3 4-1.6 6.1-1.5 2.5-1.3 4.8.5 7 .1.2.3.2.5.2-.9 2.7-1 5.7 1 7.8.5 1.8 2.1 4.2 4.3 3.6.3-.1.6-.5.3-.8-.6-.7-1.2-1.3-1.7-1.9 0-.1.1-.1.1-.2 1-3.6 6-3.4 8.1-6.3v.1c-.4 2.4-.4 5.2 1.6 6.8.4.3.9-.1.9-.5-.1-1.6-.7-2.9-.4-4.5.1-2 1-3.2 1.5-4.6zm-39.8-46.7c-.1 0-.1 0-.2.1-.2.1-.3.3-.4.4-.3-.3-.6-.6-.8-.9.1-.1.2-.2.3-.4.4-.5.8-1.2.9-1.9.1-.1.1-.3.2-.4.1 1.1.1 2.1 0 3.1z" fill="#2a232b" stroke-width="none" opacity="1"></path><path id="SvgjsPath82181" d="M95 39.5c-.7.8-1.6 1.5-2.6 1.9-2 .9-4.4 1.3-6.7 2.6-1.1.7-2.2 1.5-2.9 2.7-.7 1.2-1.1 2.7-.7 4.1.3 1.4 1.3 2.5 2.5 3.1 1.2.6 2.6.6 3.7 0-1.3.1-2.4-.2-3.3-.9-.8-.6-1.4-1.6-1.5-2.6-.3-2 1.2-3.7 3.1-4.7 1.8-1.1 4.3-1.6 6.5-3 1.1-.7 2.1-1.6 2.7-2.7.6-1.1.9-2.5.4-3.7 0 1.3-.5 2.4-1.2 3.2zM78.8 52.6c-.9-.6-1.7-1.4-2.3-2.3-.6-1-1.1-2-1.2-3.4-.7 1.2-.7 2.7-.2 4 .5 1.3 1.4 2.5 2.6 3.3 1.2.8 2.6 1.2 3.9 1.3 1.4.1 2.7-.1 3.9-.6-1.3-.3-2.5-.5-3.7-.9-1-.3-2.1-.8-3-1.4zM72.2 44c.9 1.8 1 3.7.4 5.4-.3.8-.7 1.5-1.4 2.1-.6.6-1.4 1.1-2.2 1.6-.8.5-1.7 1.1-2.5 1.8-.8.8-1.5 1.7-1.8 2.9-.5 2.4 1.1 4.7 3.1 5.1-1.6-1.2-2.1-3.2-1.6-4.7.6-1.5 2.2-2.4 3.8-3.5.8-.5 1.7-1.1 2.5-2 .8-.8 1.3-1.9 1.5-3 .5-2.1-.2-4.4-1.8-5.7zm-8.4-14c1.1.1 2.2.6 3.4 1 1.2.4 2.6.8 4.1.4.7-.2 1.5-.6 2.1-1.2.6-.6.9-1.4 1.1-2 .3-1.4.4-2.5.9-3.4.4-.9 1.3-1.5 2.3-2 2-.8 4.5-.2 6.7 1-.9-.9-1.9-1.7-3.2-2.2-1.2-.5-2.7-.6-4-.3-1.4.3-2.7 1.2-3.5 2.5-.8 1.4-.8 2.7-1.1 3.8-.3 1.1-.7 1.7-1.7 1.9-.4.1-1 .2-1.5.2s-1.1-.1-1.7-.2c-1.2-.2-2.5-.6-3.8-.5-.7.1-1.3.3-1.9.6-.6.3-1 .9-1.2 1.5.6-1 1.8-1.2 3-1.1zm-8.5 22.6c-1.8-1.3-2.6-3.5-2-5.2.3-.9.8-1.7 1.5-2.2.3-.2.8-.5 1.3-.9.3-.2.5-.4.8-.8.3-.3.5-.8.5-1.3s-.2-1-.3-1.3c-.2-.3-.4-.6-.6-.8-.3-.4-.4-.6-.5-1-.2-.7.1-1.6.6-2.3.5-.7 1.4-1.2 2.4-1.3 1-.2 2.1-.1 3.2.1-.9-.6-2-1-3.2-1.1-1.2 0-2.5.3-3.5 1.3-.9.9-1.5 2.2-1.3 3.7 0 .7.5 1.5.9 1.9.4.5.5.7.5.8 0 0 0 .1-.1.2l-.4.4c-.4.3-.8.5-1.4 1-1 .9-1.7 2-1.9 3.3-.2 1.2.1 2.6.7 3.6.7 1 1.7 1.7 2.8 1.9zm1.6 35.5c-1.1-1.2-1.2-3.2-.2-4.6.2-.4.6-.9.8-1.6.3-.7.3-1.6-.1-2.3-.8-1.3-2.2-1.8-3.4-1.8-1.2 0-2.2.2-3.1.2-.9-.1-1.9-.4-2.4-1.4 0 .5.3 1.1.7 1.5.4.4.9.7 1.5.9 1.1.3 2.2.3 3.1.4.5.1.8.2 1.2.4.3.2.6.5.7.7s.1.4 0 .7c-.1.3-.4.7-.7 1.2-1.4 2.1-1.2 5.2.9 6.8 2 1.7 5.2.8 6-1.3-1.5 1.6-3.9 1.4-5 .2zM64 63c-.8-.7-1.6-1.3-2.2-2.1-.6-.8-1-1.8-.8-2.8-.6.9-.5 2.3 0 3.3.5 1.1 1.3 2 2 2.7.7.8 1.5 1.5 1.9 2.3.4.8.6 1.7.6 2.6 0 .9-.3 1.8-.7 2.6-.4.8-1.1 1.3-1.9 2-.8.6-1.8 1.2-2.5 2.2-.3.5-.6 1-.7 1.6-.1.6 0 1.2.2 1.7-.1-1.1.5-2 1.2-2.6l.9-.6c.4 1 .4 2 .1 2.8-.2.5-.4.8-.8 1.2-.4.3-.9.7-1.5 1.2-.5.4-1.1 1.1-1.4 1.9-.2.8-.3 1.6 0 2.4.5 1.6 2 2.6 3.3 2.4-1.2-.7-1.8-1.7-1.8-2.7 0-.5.1-1 .3-1.4.2-.4.5-.7.9-1.1.4-.4 1-.8 1.5-1.3.5-.6 1-1.4 1-2.1.2-1.3-.3-2.6-1.2-3.3.5-.2.9-.5 1.4-.7 1-.5 2-1.2 2.7-2.3.7-1.1 1.1-2.3 1.1-3.5 0-1.2-.3-2.5-1-3.6-.9-1.4-1.8-2.1-2.6-2.8zM46 74.9c0-1.3.3-2.6.7-3.8.1-.4.3-.7.4-1.1.2 1.6 1 3.1 2.3 4-1.5-2.1-1.5-4.8-.5-6.7.5-1 1.3-1.7 2.3-2.5 1-.8 2.1-1.9 2.6-3.4.2-.8.2-1.7-.2-2.5-.3-.8-1-1.4-1.6-1.8-1.2-.8-2.4-1.2-3.1-1.9-1.5-1.4-1.8-4.3-.2-6.3-2.3 1.4-2.9 5-.9 7.3 1 1.2 2.3 1.7 3.2 2.3.9.7 1.2 1.3.9 2.2-.2.9-1 1.7-1.9 2.6-.5.4-.9.9-1.4 1.4-.5.5-.9 1.2-1.1 1.8-.2.5-.3 1.1-.4 1.6-.7.6-1.3 1.4-1.8 2.2-.8 1.3-1.2 2.9-1.3 4.4 0 1.6.3 3.1 1 4.5s1.7 2.6 3 3.3c-.7-1.3-1.2-2.6-1.6-3.9-.3-1.1-.5-2.4-.4-3.7zm61.6-56.1c.9.2 1.6.7 2 1.3.5.7.8 1.5.8 2.3.1.8-.1 1.6-.4 2.4-.7 1.6-1.9 3-3.4 4s-3.3 1.6-5.3 1.3c.8.6 1.9.8 3 .8s2.1-.3 3.1-.8c1.9-.9 3.6-2.5 4.5-4.6.9-2 .6-4.7-1-6.4.7.5 1.3 1 1.8 1.6.6.7 1.1 1.5 1.5 2.3.4.8.6 1.7.7 2.6.1 1 .1 1.9-.1 3 .9-.7 1.4-1.8 1.7-3s.1-2.4-.4-3.5-1.3-2-2.3-2.7c-1-.6-2.1-.9-3.2-.8-.3-.3-.7-.5-1.1-.7-.6-.2-1.1-.3-1.7-.3-1.1 0-2.2.6-2.8 1.5.8-.4 1.8-.5 2.6-.3zm-16.7 6.4c1-2.1.7-4.4 1-6.1.2-.9.5-1.6 1-2.1.5-.6 1.3-1 2.2-1.2 1.7-.5 3.7 0 5.5.9-1.3-1.5-3.4-2.6-5.8-2.4-1.1.1-2.3.6-3.2 1.4-.5.4-.8.9-1.1 1.5-.3.5-.4 1.1-.6 1.7-.4 2.2 0 4.2-.5 5.9-.5 1.6-2 3.1-3.9 3.6 2.1.1 4.4-1.1 5.4-3.2zM77 41.9c-.6-1-1-1.9-1.3-2.9-.3-.9-.4-1.9-.3-2.8.1-.9.3-1.8.7-2.7.2-.3.3-.7.5-1-.2.6-.3 1.2-.2 1.8.1.8.5 1.6 1 2.3.6.7 1.3 1.1 2 1.4 1.5.6 3.3.5 4.7-.3 1.4-.8 2.3-2 2.7-3.4-1.1.9-2.2 1.6-3.3 2s-2.3.3-3.3-.1-1.9-1.1-2.2-2.2c-.3-1-.3-2.4.5-3.5-.2.1-.5.2-.7.4-1.2.1-2.2.8-3 1.7-.8.9-1.3 2.1-1.4 3.4-.1 1.3.2 2.5.8 3.6.7 1.1 1.7 1.9 2.8 2.3zm23.3-25.1c-.4-.5-1.1-.6-1.7-.5-.6.1-1.2.4-1.6.9-.4.5-.7 1.1-.7 1.7 0 .6.2 1.2.7 1.6.3-.5.6-.9.8-1.2.2-.3.4-.5.7-.8.2-.2.4-.5.7-.7.3-.4.6-.7 1.1-1zm17.8 9c.8.7 1.9 1.1 2.9 1.3 2.1.4 4.1.1 5.9 0 .9 0 1.8 0 2.6.2s1.5.6 2.1 1.1c.6.5.9 1.2.9 2.1 0 .8-.3 1.7-1.1 2.3 1-.2 1.8-1.1 2.1-2.2v-.4c.3.4.6.6.8.9.3.4.6.7.9 1l1 1c.4.3.7.7 1.3 1.1.3-.6.3-1.3.1-1.9-.2-.6-.5-1.1-.9-1.6s-1-.8-1.6-1c-.5-.1-1-.2-1.6 0 0-.3 0-.6-.1-.9-.1-.6-.4-1.1-.8-1.5-.7-.9-1.7-1.5-2.7-1.9-1.1-.4-2.1-.5-3.2-.4-2.1 0-3.9.5-5.7.4-.9 0-1.7-.2-2.5-.6-.8-.4-1.5-.9-2.1-1.8.2 1.2.8 2.2 1.7 2.8zm4.5 21.4c-1-.1-1.9-.1-2.6-.3-1.4-.3-2.6-1.5-3.3-2.9-.7-1.5-.9-3.3-1-5.1-.5 1.2-.8 2.5-.8 3.8-.6-1.1-1.5-2-2.5-2.5 1.1 1.4 1.6 2.9 1.6 4.4 0 1.5-.5 2.9-1.3 4.1-.8 1.2-2 2.2-3.5 2.7-1.3.5-2.9.8-4.5.7.7 0 1.4-.3 2-.7.9-.6 1.5-1.6 1.7-2.7.2-1.1.1-2.2-.3-3.3-.4-1-1.2-1.9-2-2.6-.8-.7-1.9-1.2-2.9-1.4-1-.2-1.9-.4-2.8-.6-.9-.2-1.7-.4-2.4-1-.7-.5-1.3-1.2-1.5-2.2-.3 1 .1 2.1.8 2.9.7.8 1.7 1.4 2.6 1.7.9.4 1.9.6 2.7.9.8.3 1.6.7 2.2 1.2 1.3 1 2.1 2.5 2 4.1 0 1.5-1.2 3.2-3.1 3.6.2 0 .4.1.6.1 1.5.9 3.4 1.2 5.2.8 1.8-.4 3.6-1.5 4.6-3.1.9-1.2 1.4-2.7 1.3-4.2.3.6.7 1.1 1.1 1.6.7.8 1.7 1.4 2.8 1.6 1.1.2 2 .2 2.9.2.8 0 1.5.2 2.2.6 1.3.8 2.3 2.4 2.2 4.3 1-1.7.4-4.1-1.2-5.5-.6-.8-1.8-1.1-2.8-1.2zM136 77.6c-.2-1.5-.2-3.1.1-4.7.3-1.6.8-3.2 1.1-4.9-1 1.2-1.8 2.5-2.4 4-1-2-1.1-4.3-.3-6.2.4-1 1.3-1.9 1.9-3.3.3-.7.5-1.5.4-2.4-.1-.9-.7-1.7-1.3-2.2-1.2-1-2.5-1.4-3.4-2-.9-.5-1.7-1.4-2.3-2.4-1.1-2-1.1-4.6.1-6.9-1.9 1.7-2.7 4.9-1.6 7.6.5 1.3 1.5 2.5 2.7 3.3 1.2.8 2.4 1.2 3.1 1.9.7.6.9 1.3.5 2.3-.4 1-1.2 2.1-1.7 3.5-.8 2.5 0 5.3 1.6 7 0 .1-.1.2-.1.3-.6 1.7-.9 3.5-.6 5.4.3 1.8 1.2 3.7 2.7 4.9 1.5 1.2 3.6 1.7 5.2.9-1.7-.2-3.1-1-4.1-2.1-.8-1.1-1.4-2.5-1.6-4zm11.1-8.3c.8 1.5.8 3.2.2 4.5-.3.6-.7 1.2-1.3 1.6-.6.4-1.1.7-1.9.9-.7.2-1.6.3-2.6.8s-1.8 1.4-2 2.4c-.3 1-.1 2.2.5 2.9.6.8 1.5 1.3 2.4 1.3-.8-.4-1.3-1.1-1.5-1.7-.2-.7-.2-1.4.1-1.9.3-.6.7-1 1.3-1.2.6-.2 1.4-.3 2.3-.6.9-.2 1.9-.7 2.6-1.4.7-.7 1.3-1.6 1.5-2.5.6-2.1-.2-4.1-1.6-5.1zM142.6 55c2.1.4 3.8 1.5 4.9 3 1.1 1.5 1.4 3.3 1.1 5.1-.2.9-.5 1.7-1 2.4s-1.2 1.4-2 2c-1.5 1.2-3.5 2.5-4.4 4.4 1.6-1.4 3.5-2 5.3-3.1.9-.5 1.8-1.2 2.6-2.1.8-.9 1.2-2 1.5-3.2s.2-2.3-.1-3.5c-.3-1.1-.9-2.2-1.7-3-1.7-1.7-4.1-2.5-6.2-2zm7.6 25c-.1-1.5.3-3.1.9-4.7.6-1.6 1.2-3.4 1.3-5.3 0-1-.1-1.9-.5-2.8-.4-.9-1-1.7-1.9-2.1 1.1 1.5 1.1 3.2.8 4.7-.3 1.6-1.1 3.1-1.7 4.8-.6 1.7-1.1 3.7-.6 5.6.3 1 .8 1.9 1.6 2.5.7.6 1.7 1 2.6.9-1.5-.5-2.3-2.2-2.5-3.6zm-13.4-41.3c-.6.1-1.1.3-1.6.7 2.2-.5 4.3.4 5.7 1.8s2 3.3 1.9 5.3c0 1-.2 2-.6 2.9-.3 1-.9 1.8-1.4 2.8-.6 1-1.1 2.1-1.3 3.3-.1 1.2.2 2.5 1.1 3.2-.6-1-.5-2.1-.2-3 .3-1 .9-1.8 1.6-2.6.7-.8 1.4-1.8 1.9-3 .5-1.1.7-2.3.8-3.5 0-1.2-.2-2.3-.6-3.5 1 .4 1.7 1 2.2 1.8.6.8 1 1.6 1.2 2.5.2.9.2 1.9.2 3s-.2 2.1-.3 3.3c.8-.8 1.4-1.9 1.8-3 .4-1.1.5-2.4.2-3.7-.3-1.3-1-2.4-2-3.2-1-.8-2.3-1.1-3.4-.8-.5-1.1-1.3-2.2-2.3-2.9-1-.7-2.2-1.2-3.3-1.3-.4-.3-1-.3-1.6-.1zm-9.5-.2-.2-2.3c-.1-.8-.2-1.6-.3-2.5-.6.7-1 1.5-1.2 2.3-.2.8-.3 1.7-.2 2.6s.3 1.7.7 2.5c.4.8.9 1.5 1.6 2.1 0-.9 0-1.7-.1-2.5l-.3-2.2zm-28-18.1c-.7.8-.9 2.1-.6 3.2.3 1.1 1 2.2 2 2.9.5.3 1.1.6 1.7.7.6.1 1.1 0 1.6 0s.8 0 1.2.1c.4.1.8.4 1 .9.3-.5 0-1.2-.4-1.7s-1.1-.8-1.6-.9c-.5-.1-1-.2-1.4-.3-.4-.1-.7-.3-1-.5-.7-.4-1.2-1-1.7-1.8-.4-.7-.7-1.6-.8-2.6z" fill="#1b141c" stroke-width="none" opacity="1"></path></g><g id="svga-group-glasses-single-move" transform="matrix(1,0,0,1,0,0)"><g id="svga-group-glasses-single" transform="matrix(1,0,0,1,0,0)"></g></g></g></g></g><rect id="svga-credit-rect" width="200" height="15" x="0" y="185" fill="#ecf0f1" opacity="0.5" style="display: none;"></rect><text id="svga-credit-text" font-family="Avenir Next, Roboto, Helvetica, Arial, sans-serif" font-size="10px" text-anchor="start" font-weight="400" size="10px" anchor="start" weight="400" fill="#333333" x="33.40447998046875" y="182.60824704170227" style="display: none;"><tspan id="SvgjsTspan80691" dy="13" x="33.40447998046875">Created on AvatarMaker.com</tspan></text></g></svg>