<svg xmlns="http://www.w3.org/2000/svg" version="1.1" width="600px" height="600px" viewBox="0 0 200 200" style="overflow:hidden!important;"><defs id="SvgjsDefs92437"></defs><g id="svga-group-wrapper"><g id="svga-group-backs-single"></g><g id="svga-group-humanwrap-move" transform="matrix(1,0,0,1,0,0)"><g id="svga-group-humanwrap" transform="matrix(1,0,0,1,0,0)"><g id="svga-group-hair-back-move" transform="matrix(1,0,0,1,0,0)"><g id="svga-group-hair-back" transform="matrix(1,0,0,1,0,0)"></g></g><g id="svga-group-humanbody-back"><path id="SvgjsPath92836" d="M180.8 184.9c-2.3-3.4-38.9-17.8-38.9-17.8l-13.4-5.2-5.6-68.8H76.8L71.3 162l-13.4 5.2S21.4 181.6 19 185c-2.3 3.4-3.3 14.9-3.3 14.9V219h168.5v-19.2c-.1.1-1-11.5-3.4-14.9z" fill="#f0c7b1" stroke-width="none" opacity="1" stroke="none"></path></g><g id="svga-group-chinshadow-single"><path id="SvgjsPath92987" d="m76.82 93.1-3.58 45.07c7.72 10.37 15.12 20.14 15.87 20.73 1.4 1.1 9.2 1.1 10.6 0 1.02-.76 16.06-21.1 25.8-34.27l-2.57-31.53H76.82z" fill="#d19271" stroke-width="none" opacity="1" stroke="none"></path></g><g id="svga-group-humanbody-front"><path id="SvgjsPath92837" d="M184.5 219c-.1-6.4-.1-12.8-.1-19.2l-.3-.1s.1-.1.2 0c.1 0 .1.1.1.1v-.4l-.1-.5-.1-.9-.2-1.9c-.2-1.3-.4-2.5-.6-3.8-.2-1.3-.5-2.5-.9-3.8-.4-1.2-.8-2.5-1.5-3.6-.8-.9-1.9-1.5-2.9-2.1-1-.6-2.1-1.1-3.2-1.7-2.1-1.1-4.3-2.1-6.5-3.1-4.4-2-8.7-3.9-13.1-5.7-4.4-1.9-8.8-3.7-13.2-5.5l-13-5.2-1.2-16.9c-.4-5.7-.9-11.5-1.3-17.2l-1.3-17.2-1.5-17.3-.1-.8h-.8c-7.7 0-15.4.1-23.1.1l-23.1.2h-.5v.5L75 110.2l-1.3 17.2c-.8 11.4-1.8 22.8-2.8 34.2-5.6 2.1-11.2 4.2-16.7 6.4-5.6 2.2-11.2 4.5-16.8 6.9-2.8 1.2-5.6 2.4-8.3 3.6-2.8 1.3-5.5 2.5-8.2 4.1-.7.4-1.3.8-2 1.4-.2.1-.4.4-.5.6l-.3.6c-.2.4-.4.7-.5 1.1-.6 1.5-1 3-1.3 4.5-.6 3-1.1 6-1.4 9.1l-.1 19.1v.9h.9l42.1.1H100c14 0 28.1-.1 42.1-.2l42.1-.5h.3v-.3zm-84.5-1-42.1-.1-41.2.1-.1-18.1c.3-3 .6-5.9 1.2-8.9.3-1.4.6-2.9 1.1-4.2.1-.3.3-.7.4-.9l.2-.4.3-.3c.5-.4 1.1-.8 1.8-1.2 2.5-1.5 5.3-2.8 8-4.1 2.7-1.3 5.5-2.5 8.2-3.7 5.5-2.4 11.1-4.8 16.7-7.1s11.2-4.5 16.9-6.7l.2-.1v-.2c.9-11.5 1.7-23 2.7-34.4l1.4-17.2 1.5-16.7 22.6.2c7.4.1 14.8.1 22.3.1l1.3 16.4 1.5 17.2c.5 5.7 1 11.5 1.5 17.2l1.6 17.2v.3l.3.1 13.4 5c4.4 1.7 8.9 3.4 13.3 5.2 4.4 1.8 8.8 3.7 13.2 5.6 2.2 1 4.3 2 6.5 3 1.1.5 2.1 1.1 3.2 1.6 1 .6 2.1 1.2 2.9 2 .7 1.1 1.1 2.3 1.4 3.5.3 1.2.6 2.5.8 3.7.2 1.3.4 2.5.6 3.8l.2 1.9.1.9.1.5v.4c0 6.3 0 12.6-.1 18.9l-41.8-.5c-14 .1-28.1 0-42.1 0z" fill="#c27b55" stroke-width="none" opacity="1" stroke="none"></path><path id="SvgjsPath92838" d="M125.1 142.4s-1.8 23-9.1 32.9c0 0 7.9-25 9.1-32.9zm-34.5 16s5 7.9 11.5 10.1c0 0-9.5 2.2-11.5-10.1zM73.4 140c6.7 25.6 6.7 25.6 8.5 30.7 0 0 .4-12.6-8.5-30.7z" fill="#d19271" stroke-width="none" opacity="1" stroke="none"></path></g><g id="svga-group-clothes-single"><path id="SvgjsPath93546" d="m71.9 145.1-6.2 2.5-.7 14.1v20.2L79 220h42l10.7-34.3 3.4-25.5-1.7-14.2-5.4-.8-.3 9.2s-26.2 22.2-26.6 22.7-29.2-22.8-29.2-22.8v-9.2z" fill="#eaeaea" stroke-width="none" opacity="1"></path><path id="SvgjsPath93547" d="m127.8 155.4.8-.3 4.9-9-5.5-.9-.2 10.2zm-56.3-1.6h-.4l-5.2-6.1 6.3-2.6-.7 8.7z" fill="#c9c9c9" stroke-width="none" opacity="1"></path><path id="SvgjsPath93548" d="m44.6 168 1.1 1.7s-24.9 7.2-29 9c0 0-4.4-3.1-6 3.4-1.6 6.5-3.8 30.8-3.8 37.9h72s-8.7-29-14.1-59.9L44.6 168zm144.6 14.1c-1.6-6.5-6-3.4-6-3.4-4.1-1.9-29-9-29-9l1.1-1.7-20.3-7.8c-5.3 30.8-14 59.8-14 59.8h72c.1-7.2-2.2-31.4-3.8-37.9z" fill="#386e77" stroke-width="none" opacity="1"></path><path id="SvgjsPath93549" d="M89 180.6s4.9 12.4 6.4 15.4c0 0-2.8 17.1-2.9 23.8h18s-2.5-20-3.1-24.1c0 0 4.4-11 5.7-13.9 0 0-2.7-3.4-3.8-3.6-1.1-.2-8.7-.8-8.7-.8s-7.3.9-8.7 1.4c-1.4.4-2.9 1.8-2.9 1.8z" fill="#222222" stroke-width="none" opacity="1"></path><path id="SvgjsPath93550" d="M106.9 196c-1.1.5-3.8 1.9-5.2 2.1h-.5c-1.6-.1-4.2-1.3-5.3-1.8v-.2c.6.1 1.6.2 2.9.5 1.7.4 6.5-.4 8.1-.7m-5.5 17.2c1.2 1.5 3.4 2.7 3.1 1-.2-1.7-3.3-15.8-3.4-16-.1.7-.9 13.5.3 15zm-2.8-17.3s-.1-8.9-.6-9.8c-.5-.9-1.7-.1-2.1 1.8-.5 2 2.3 7.6 2.7 8zm-1.8 15.8c.5 2.7 1.9-.4 2.1-3.6.2-3.2-1.1-10.6-1.1-10.6-.2.5-1.5 11.4-1 14.2zm7.4-27.7c-1-1.1-2.5 1.9-2.8 4-.4 2.1-.2 6.3-.2 7.8-.1 0 3.9-10.7 3-11.8zm3.2 6.8c.6-1.2-.6-2.2-1.5-1.7s-1.7 5.3-2.1 7.2c0 0 3-4.2 3.6-5.5zm-2.4 18.4c.5 1 1.9 2.2 2.1 1.5.2-.7-2.7-12.5-2.7-12.5s.1 10 .6 11z" fill="#000000" stroke-width="none" opacity="1"></path><path id="SvgjsPath93551" d="m192.7 208.3-.9-11.6c-.3-3.9-.7-7.8-1.3-11.6-.2-1-.3-1.9-.5-2.9s-.5-2-1.1-3c-.5-1-1.6-1.9-2.9-2.1-.6-.1-1.2 0-1.8.1-.4.1-.8.3-1.2.5-2.3-.9-4.6-1.6-6.8-2.4l-7.3-2.2c-4.6-1.4-9.1-2.7-13.7-3.9l.6-.9.5-.7-.8-.3c-3.5-1.3-7-2.5-10.4-3.8l-9.2-3.2c0-.1 0-.2.1-.4l-2.2-14.2-6-1.4s-.5 4.6-.5 9.7l-13.8 11c-2.2 1.9-4.5 3.8-6.7 5.8l-3.3 2.9-1.7 1.5-.8.8c-2.3-1.6-4.6-3.4-6.9-5.1l-7.1-5.4-14.6-11.4.1-9.8c-.5.5-6.2 2.5-6.8 3v.1l-.6 8.6-.3 4-10 3.5c-3.4 1.2-6.9 2.5-10.4 3.8l-.8.3.5.7.6.9c-4.6 1.2-9.2 2.5-13.7 3.9l-7.3 2.2c-2.3.8-4.5 1.4-6.9 2.4-.4-.2-.7-.4-1.1-.5-.6-.2-1.2-.2-1.8-.1-1.3.2-2.3 1.1-2.8 2-.6 1-.9 2-1.1 3-.2 1-.3 2-.5 2.9-.5 3.9-.9 7.8-1.3 11.6l-.9 11.6c-.3 3.9-.6 7.8-.7 11.7v.3h.3c6 0 12 .1 18 .2l18 .3 18.1.3h78l18-.1c6-.1 12-.1 18-.3 6-.1 12-.2 18-.2h.4v-.4c-.1-3.9-.4-7.8-.7-11.7zm-88.1-33 3.4-2.9 6.8-5.7 13.6-11.5.2-.2-.4-9.6c1.8.4 3.6.8 5 1.1l1.1 13.6-1.1 8.5-1.4 6.4c-1.1 5-2.4 10-3.6 14.9-.7 2.9-1.5 5.9-2.3 8.8-.3-.8-.6-1.6-1-2.4-.3-.7-.6-1.4-1-2.1-.3-.7-.8-1.4-1.2-2-1.8-2.6-3.6-5-5.5-7.4-1-1.2-2-2.4-3-3.5-1.1-1.1-2.1-2.3-3.5-3.3-.3-.2-.7-.5-1.1-.7-.2-.1-.5-.2-.8-.3-.3-.1-.4 0-.6-.1l-2.3-.3-2.5-.3 1.2-1zm-38.8-19.1.2-8.5 5.7-2.1-.6 8.2 1.4 1.6h.1c4.5 3.8 9.1 7.6 13.7 11.3 2.3 1.9 4.6 3.7 6.9 5.6 1.8 1.4 3.5 2.8 5.4 4.2l-2.1.3c-.8.1-1.5.2-2.3.4l-1.2.2c-.2.1-.3.1-.6.1-.3.1-.5.2-.7.3-1.6.9-2.7 2-3.8 3.1-1.1 1.1-2.1 2.3-3.2 3.5-2 2.4-3.9 4.9-5.7 7.4-.9 1.3-1.8 2.6-2.6 3.9-.7 1.1-1.4 2.2-2 3.3-.8-2.9-1.5-5.9-2.3-8.8-1.2-5-2.5-9.9-3.6-14.9l-1.7-7.5-1-4.7c-.2-2.4-.1-4.8 0-6.9zM7.3 219.6c0-3.8.3-7.5.6-11.3.3-3.9.7-7.7 1.2-11.6.5-3.9 1-7.7 1.7-11.5.4-1.9.7-3.9 1.6-5.3.5-.7 1-1.2 1.7-1.2.7-.1 1.5.2 2.1.6l.4.3.4-.2c.6 1.4 1.1 2.7 1.6 4.1.6 1.7 1.1 3.4 1.3 5.1.5 3.5.8 7 1.2 10.5l1.2 10.5.7 5.3.6 4.5c-5.3.1-10.8.2-16.3.2zM61 219l-18 .1c-6 .1-12 .1-18 .3h-1.1c-.1-3.3-.4-6.5-.6-9.8-.3-3.5-.6-7-1-10.6-.4-3.5-.8-7-1.5-10.5-.7-3.2-2-6.3-3.5-9.1 2.2-.9 4.6-1.6 7-2.4l7.2-2.3 14.5-4.5h.1c.3.3.5.6.8.9.8.8 1.6 1.6 2.5 2.3-1.2.6-2.5 1.2-3.7 1.9l-.7.3.3.7c1.6 3.7 3.3 7.4 5 11 1.7 3.7 3.5 7.3 5.2 10.9l5.4 10.8c1.7 3.3 3.4 6.5 5.2 9.7-1.7.3-3.4.3-5.1.3zm5.3 0c-1.3-3.5-2.8-6.9-4.2-10.3-1.6-3.7-3.2-7.4-4.9-11.1-1.7-3.7-3.4-7.3-5.1-11-1.6-3.4-3.3-6.8-5-10.2 2.3-1.4 4.6-2.7 6.9-4.1l7.5-4.7c-1.4.6-2.7 1.2-4 1.8l-4 1.9c-1.3.7-2.7 1.4-4 2-.6-1-1.3-1.9-2-2.8-.5-.7-1.1-1.3-1.6-2l-.3-.4c3-1.2 6.1-2.5 9.1-3.8l10-4.2c0 .5.4 2.5.7 3.7l.3 1.8.3 1.9c.4 2.5.8 5.1 1.3 7.6 1 5 1.9 10.1 3.1 15.1 2.1 9.6 4.5 19.1 7.2 28.5-3.8.2-7.5.3-11.3.3zm13.6.2c-1.4-4.7-2.7-9.5-4-14.3-.5-2-1.1-3.9-1.6-5.9 1.7-2.3 3.5-4.5 5.3-6.7 2-2.4 4-4.7 6.1-7 1-1.1 2.1-2.2 3.2-3.3l.1-.1c1.2 3.1 4.6 11.4 5.9 14.1-.3 1.7-2.7 16.8-2.9 23.3l-12.1-.1zm13.1.1c.2-6.6 2.7-21.7 2.9-23.2v-.1l-.1-.1c-1.2-2.5-4.9-11.7-6-14.5.8-.7 1.7-1.4 2.5-1.8.1-.1.3-.1.4-.1.1 0 .3-.1.5-.1l1.1-.2c.8-.1 1.5-.2 2.3-.3 1.5-.2 3-.3 4.5-.5l4.5.5 2.3.2c.2 0 .4 0 .5.1.1 0 .2 0 .3.1.3.1.5.3.8.5 1 .7 1.9 1.6 2.8 2.5-1.5 3.5-5.4 13.3-5.5 13.4v.2c.6 4 2.7 20.3 3.1 23.5l-16.9-.1zm18 .3c-.2-1.5-2.5-19.7-3.1-23.9.4-1.1 3.8-9.4 5.2-12.9 1 1 1.9 2 2.8 3 2 2.3 4 4.6 5.9 7 .5.6 1 1.2 1.4 1.8.4.6.8 1.3 1.1 2l1.3 2.5-1.5 5.7c-1.3 4.9-2.7 9.9-4.2 14.8-2.9.1-5.9.1-8.9 0zm11.4-.7c2.7-9.4 5.1-18.9 7.2-28.5 1.1-5 2.1-10.1 3.1-15.1.4-2 .7-4.1 1.1-6.1 1-2.8 1.8-5.7 2.2-8.7l9.3 3.9c3.1 1.3 6.1 2.5 9.1 3.8l-.3.4c-.6.6-1.1 1.3-1.6 2-.7.9-1.3 1.8-1.9 2.8-1.3-.7-2.7-1.4-4-2l-4-1.9c-1.3-.6-2.7-1.3-4-1.8l7.5 4.7c2.3 1.4 4.6 2.8 6.9 4.1-1.7 3.4-3.4 6.8-5 10.2-1.8 3.6-3.4 7.3-5.1 11-1.7 3.7-3.3 7.4-4.9 11.1-1.5 3.4-2.9 6.8-4.2 10.3-3.9-.1-7.6-.2-11.4-.2zm52.6.5-18-.3-18-.1h-5.2c1.8-3.2 3.5-6.5 5.2-9.7 1.9-3.6 3.7-7.2 5.4-10.8 1.8-3.6 3.5-7.3 5.2-10.9 1.7-3.7 3.4-7.3 5-11l.3-.7-.7-.3c-1.2-.6-2.5-1.3-3.7-1.9.9-.7 1.7-1.5 2.5-2.3.3-.3.5-.6.8-.9h.1l14.5 4.5 7.2 2.3c2.4.8 4.8 1.5 7 2.4-1.6 2.8-2.9 5.9-3.5 9.1-.7 3.5-1.1 7-1.5 10.5-.4 3.5-.8 7-1 10.6-.2 3.3-.5 6.5-.6 9.8-.2-.3-.6-.3-1-.3zm1.2 0 .6-4.5.7-5.3c.5-3.5.8-7 1.2-10.5l1.2-10.5c.2-1.7.7-3.4 1.3-5.1.5-1.4 1-2.8 1.6-4.1l.4.2.4-.3c.6-.4 1.5-.7 2.1-.6.7.1 1.3.5 1.7 1.2.9 1.4 1.2 3.4 1.6 5.3.7 3.8 1.2 7.6 1.7 11.5.5 3.8.9 7.7 1.2 11.6.3 3.8.6 7.5.6 11.3-5.3 0-10.8-.1-16.3-.2z" fill="#184f58" stroke-width="none" opacity="1"></path><path id="SvgjsPath93552" d="M111 174.5c3.5.2 9.7 9.1 9.7 9.1s8.9-15.3 9.7-19c.8-3.6 2-14.2 2-14.2s-3 9.7-3.8 11.1-17.6 13-17.6 13zm-33.5 15c2-3.5 8.4-11.7 9.9-12.5 1.5-.8 7.6-1.6 7.6-1.6l-15-10.9s2.1 8.2 2.1 10.1-4.6 14.9-4.6 14.9z" fill="#ffffff" stroke-width="none" opacity="1"></path><path id="SvgjsPath93553" d="M184.7 180.9c2.3.8 3.3 6.6 4.1 9.7.8 3.1 2.3 25.1 2.3 25.1s-3.1-25.1-4.6-28.7c-1.5-3.6-1.8-6.1-1.8-6.1zM155 172c1.5-.2 21.9 5.8 25.7 8.2 0 0-10.6-2.3-15.3-3.6-4.8-1.3-10.4-4.6-10.4-4.6zm-16.3-2.6c1 .5 13 7.8 13 7.8s-11.7 24.1-12.9 27.1-5.4 11.7-5.4 11.7 6.1-16.8 7.8-22.6c1.6-5.8 6.1-15.7 6.1-15.7l-8.6-8.3zm-74.2-2.8c.5 5.3 7.8 40.6 10.9 47.8 0 0-6.6-15.3-9.7-29.5-3.2-14.2-1.2-18.3-1.2-18.3z" fill="#4d7e86" stroke-width="none" opacity="1"></path></g><g id="svga-group-head" transform="matrix(1,0,0,1,0,0)"><g id="svga-group-ears-left-move" transform="matrix(1,0,0,1,0,1)"><g id="svga-group-ears-left" transform="matrix(1,0,0,1,0,0)"><path id="SvgjsPath93032" d="M68.8 87.48s-4.2-8.27-8.66-11.42c-4.46-3.15-9.84-3.15-9.84-3.15s-3.02 2.1-1.97 12.6c0 0 4.46 10.76 12.47 14.7 0 0 5.77 1.31 8.66.66-.01-.01 2.09-6.18-.66-13.39z" fill="#f0c7b1" stroke-width="none" opacity="1"></path><path id="SvgjsPath93033" d="M67.88 90.76s-3.67-7.87-6.04-9.84c-2.36-1.97-7.87-5.12-9.32-3.28-1.44 1.84-1.57 7.61-1.57 7.61s1.57 4.59 6.3 7.09c4.72 2.49 10.37 2.76 10.37 2.76l.26-4.34z" fill="#e1ac8f" stroke-width="none" opacity="1"></path><path id="SvgjsPath93034" d="M47.99 82.25c.02 1.09.09 2.19.17 3.28v.02l.01.03a39.54 39.54 0 0 0 2.2 4.42c.82 1.43 1.75 2.79 2.75 4.11 1.02 1.3 2.15 2.51 3.38 3.64 1.25 1.1 2.62 2.07 4.12 2.83l.04.02.05.01c1.45.31 2.89.55 4.36.7.73.07 1.47.13 2.22.13.74-.01 1.5-.05 2.25-.23l.19-.05.05-.17c.33-1.14.5-2.27.58-3.42.08-1.15.08-2.3-.01-3.44a23.99 23.99 0 0 0-.52-3.38c-.23-1.12-.59-2.2-.99-3.27-.94-1.86-2.02-3.63-3.13-5.4-1.14-1.74-2.35-3.46-3.85-4.95-.75-.74-1.6-1.4-2.5-1.96-.91-.56-1.88-.98-2.87-1.35-1.99-.73-4.08-1.08-6.19-1.12h-.08l-.04.04c-.89.85-1.22 1.93-1.54 2.98-.29 1.06-.45 2.16-.54 3.25-.09 1.09-.13 2.18-.11 3.28zm.33-3.27c.11-1.08.28-2.15.59-3.19.15-.52.35-1.02.59-1.49.23-.44.53-.89.86-1.18 2.01.12 4.01.6 5.9 1.29 1.9.73 3.7 1.74 5.19 3.13 1.5 1.39 2.82 2.99 4.04 4.67 1.22 1.67 2.29 3.46 3.28 5.28.37 1.07.71 2.15.91 3.27.24 1.11.32 2.24.36 3.37.04 1.13-.04 2.26-.19 3.37-.14 1.04-.35 2.09-.65 3.07-.62.1-1.26.12-1.91.1-.71-.01-1.43-.06-2.14-.14-1.41-.15-2.83-.4-4.21-.7-1.39-.74-2.72-1.62-3.93-2.66-1.2-1.07-2.33-2.24-3.35-3.49a42.391 42.391 0 0 1-2.82-3.96c-.86-1.37-1.66-2.79-2.33-4.25l-.16-1.59c-.05-.54-.06-1.09-.09-1.63-.04-1.1-.03-2.18.06-3.27z" fill="#e1ac8f" stroke-width="none" opacity="1"></path><path id="SvgjsPath93035" d="M52.2 80.53c.18-.69.39-1.36.67-2.03.07-.16.16-.33.26-.48.11-.15.23-.33.48-.37.45.02.72.22 1.06.37a18.3 18.3 0 0 1 3.48 2.44c.53.48 1.03 1.01 1.42 1.66.18.33.36.69.38 1.14.01.25-.01.36-.01.54l.01.51c.16 2.77.58 5.56.83 8.36l-.07.01c-.34-1.37-.61-2.75-.86-4.13-.26-1.39-.44-2.78-.55-4.2l-.03-.54v-.51c0-.26-.13-.56-.28-.84-.31-.57-.74-1.11-1.21-1.61-.94-1-2.01-1.94-3.22-2.61-.29-.16-.65-.33-.91-.33-.23.06-.41.43-.53.73-.26.63-.39 1.33-.52 2.01-.23 1.37-.39 2.77-.48 4.15-.02.34-.04.7-.02 1.01-.01.17.21.46.41.71.42.52.91 1.02 1.4 1.5.81.79 1.65 1.57 2.5 2.33.09-.91.18-1.82.24-2.74.04-.59.07-1.17.08-1.75.01-.53.01-1.07-.06-1.58-.15-.02-.33-.03-.5-.02a4.1 4.1 0 0 0-.69.1c-.46.1-.91.25-1.35.43l-.03-.07c.41-.25.85-.46 1.32-.62.23-.08.47-.15.72-.19.26-.04.49-.07.79-.01l.11.02.03.13c.15.61.18 1.21.22 1.81.02.6.02 1.19.01 1.79-.03 1.19-.08 2.37-.19 3.56l-.07.75-.58-.49c-1.08-.92-2.11-1.87-3.11-2.88-.49-.51-.98-1.03-1.43-1.61-.11-.15-.22-.3-.32-.47-.05-.09-.1-.18-.14-.29-.05-.11-.07-.28-.07-.37-.01-.39.03-.74.06-1.1.14-1.45.39-2.84.75-4.22z" fill="#c27b55" stroke-width="none" opacity="1"></path></g></g><g id="svga-group-ears-right-move" transform="matrix(1,0,0,1,0,1)"><g id="svga-group-ears-right" transform="matrix(1,0,0,1,0,0)"><path id="SvgjsPath93036" d="M131.2 87.48s4.2-8.27 8.66-11.42c4.46-3.15 9.84-3.15 9.84-3.15s3.02 2.1 1.97 12.6c0 0-4.46 10.76-12.47 14.7 0 0-5.77 1.31-8.66.66.01-.01-2.09-6.18.66-13.39z" fill="#f0c7b1" stroke-width="none" opacity="1"></path><path id="SvgjsPath93037" d="M132.12 90.76s3.67-7.87 6.04-9.84c2.36-1.97 7.87-5.12 9.32-3.28 1.44 1.84 1.57 7.61 1.57 7.61s-1.57 4.59-6.3 7.09c-4.72 2.49-10.37 2.76-10.37 2.76l-.26-4.34z" fill="#e1ac8f" stroke-width="none" opacity="1"></path><path id="SvgjsPath93038" d="M151.91 78.96c-.09-1.09-.25-2.18-.54-3.25-.32-1.05-.65-2.13-1.54-2.98l-.04-.04h-.08c-2.11.04-4.21.39-6.19 1.12-.99.37-1.96.79-2.87 1.35-.9.56-1.75 1.22-2.5 1.96-1.5 1.49-2.71 3.21-3.85 4.95-1.11 1.77-2.18 3.54-3.13 5.4-.39 1.07-.76 2.15-.99 3.27a23.99 23.99 0 0 0-.52 3.38c-.1 1.14-.09 2.29-.01 3.44s.25 2.28.58 3.42l.05.17.19.05c.75.18 1.51.22 2.25.23.75 0 1.48-.05 2.22-.13 1.47-.15 2.91-.39 4.36-.7l.05-.01.04-.02c1.5-.76 2.87-1.73 4.12-2.83 1.23-1.12 2.36-2.34 3.38-3.64 1-1.31 1.93-2.68 2.75-4.11.82-1.43 1.57-2.89 2.2-4.42l.01-.03v-.02c.07-1.09.14-2.18.17-3.28.01-1.09-.03-2.18-.11-3.28zm-.16 3.28c-.03.54-.04 1.09-.09 1.63l-.16 1.59c-.67 1.47-1.47 2.89-2.33 4.25-.87 1.37-1.8 2.7-2.82 3.96a29.855 29.855 0 0 1-3.35 3.49 21.554 21.554 0 0 1-3.93 2.66c-1.38.3-2.8.54-4.21.7-.71.08-1.43.13-2.14.14-.64.01-1.29 0-1.91-.1-.3-.98-.51-2.03-.65-3.07-.15-1.11-.22-2.24-.19-3.37.04-1.13.12-2.26.36-3.37.2-1.12.54-2.2.91-3.27.98-1.82 2.05-3.61 3.28-5.28 1.21-1.67 2.54-3.28 4.04-4.67 1.49-1.39 3.28-2.4 5.19-3.13 1.88-.69 3.89-1.17 5.9-1.29.34.29.63.74.86 1.18.25.47.44.97.59 1.49.3 1.03.48 2.11.59 3.19.08 1.1.09 2.18.06 3.27z" fill="#e1ac8f" stroke-width="none" opacity="1"></path><path id="SvgjsPath93039" d="M147.8 80.53c-.18-.69-.39-1.36-.67-2.03-.07-.16-.16-.33-.26-.48-.11-.15-.23-.33-.48-.37-.45.02-.72.22-1.06.37a18.3 18.3 0 0 0-3.48 2.44c-.53.48-1.03 1.01-1.42 1.66-.18.33-.36.69-.38 1.14-.01.25.01.36.01.54l-.01.51c-.16 2.77-.58 5.56-.83 8.36l.07.01c.34-1.37.61-2.75.86-4.13.26-1.39.44-2.78.55-4.2l.03-.54v-.51c0-.26.13-.56.28-.84.31-.57.74-1.11 1.21-1.61.94-1 2.01-1.94 3.22-2.61.29-.16.65-.33.91-.33.23.06.41.43.53.73.26.63.39 1.33.52 2.01.23 1.37.39 2.77.48 4.15.02.34.04.7.02 1.01.01.17-.21.46-.41.71-.42.52-.91 1.02-1.4 1.5-.81.79-1.65 1.57-2.5 2.33-.09-.91-.18-1.82-.24-2.74-.04-.59-.07-1.17-.08-1.75-.01-.53-.01-1.07.06-1.58.15-.02.33-.03.5-.02.23.01.46.05.69.1.46.1.91.25 1.35.43l.03-.07c-.41-.25-.85-.46-1.32-.62a4.23 4.23 0 0 0-.72-.19c-.26-.04-.49-.07-.79-.01l-.11.02-.03.13c-.15.61-.18 1.21-.22 1.81-.02.6-.02 1.19-.01 1.79.03 1.19.08 2.37.19 3.56l.07.75.58-.49c1.08-.92 2.11-1.87 3.11-2.88.49-.51.98-1.03 1.43-1.61.11-.15.22-.3.32-.47.05-.09.1-.18.14-.29.05-.11.07-.28.07-.37.01-.39-.03-.74-.06-1.1a26.8 26.8 0 0 0-.75-4.22z" fill="#c27b55" stroke-width="none" opacity="1"></path></g></g><g id="svga-group-faceshape-wrap" transform="matrix(1,0,0,1,0,0)"><g id="svga-group-faceshape-single"><path id="SvgjsPath92977" d="M140.23 54.83c-2.2-10-6.4-15.85-15.3-20.65-9.3-5-24.9-4.73-24.9-4.73s-15.93-.18-25.23 4.82c-8.8 4.8-12.86 10.64-15.06 20.64-.9 4 .02 13.62.02 13.62s1 9.87.7 16.37c-.3 6.6-1.06 19.94.34 21.94s32.47 42.97 33.97 44.17c1.4 1.1 8.83 1.18 10.23.08s32.45-42.47 33.95-44.47c1.4-2 .69-14.44.39-21.04s.47-15.29.47-15.29 1.32-11.46.42-15.46z" fill="#f0c7b1" stroke-width="none" opacity="1" stroke="none"></path><path id="SvgjsPath92978" d="M139.64 84.83c-.3-6.6.66-16.33.66-16.33s1.02-9.58.12-13.68c-2.2-10-6.42-15.92-15.32-20.72-9.3-5-25.2-4.8-25.2-4.8s-15.9-.2-25.2 4.8C66 38.9 61.8 44.9 59.6 54.9c-.9 4 0 13.6 0 13.6s1.1 9.9.8 16.4c-.3 6.6-1.1 20 .3 22 1.4 2 32.5 43.2 34 44.4 1.4 1.1 9.2 1.1 10.6 0s32.5-42.4 34-44.4c1.4-2 .64-15.47.34-22.07zM84.2 31.8c3.1-.6 6.3-1.1 9.5-1.3 1.6-.1 3.2-.25 4.8-.3 1.6-.05 3.2 0 4.8 0 3.2.1 6.4.3 9.6.8s6.1 1.32 9.1 2.42c1.03.3 10.98 5.34 14.33 12.04 1.46 2.92 2.63 6.19 3.33 9.29.89 3.46.44 8.95.34 10.05-.1 1.1-.2 2.3-.3 3.4-.2 1.6-.47 3.17-.57 4.87-.2 1.6-.23 3.23-.33 4.93-.1 1.6.2 8.3.2 10 .1 3.2.2 10.5.1 13.7 0 .8.02 2.48-.4 3.5-.53 1.19-1.6 2.7-1.6 2.7l-1.5 1.9c-4 5.2-7.9 9.4-11.8 14.6l-5.9 7.8-5.8 7.8-5.9 7.8c-.5.6-1 1.3-1.5 1.9-1.49.94-2.7.9-3.5 1s-3.8-.1-4.6-.2c-.4-.1-1.02-.11-1.6-.5-.24-.16-1.5-1.8-1.5-1.8l-1.5-1.9c-2-2.6-4-5.1-5.9-7.7l-11.8-15.5c-4-5.2-7.9-9.3-11.8-14.5l-1.5-1.9s-.74-1.21-.9-6.8c0-3.2.28-10.47.48-13.67.3-6.5-.25-13.11-.75-19.51-.2-3.2-.33-6.48-.03-9.68 0-.4.6-4.04.8-4.74.4-1.5 1-3 1.6-4.5s1.4-2.8 2.3-4.1c.9-1.3 1.9-2.5 3-3.6.5-.6 1.2-1 1.8-1.6.6-.5 1.2-1 1.9-1.4 1.3-.9 2.9-1.71 4.3-2.41 2.8-1.4 5.6-2.29 8.7-2.89" fill="#c27b55" stroke-width="none" opacity="1" stroke="none"></path></g></g><g id="svga-group-mouth-single-move" transform="matrix(1,0,0,1,0,0)"><g id="svga-group-mouth-single" transform="matrix(1,0,0,1,0,0)"><path id="SvgjsPath93018" d="M90.2 129.49s.64-2.88 2.67-5.85 5.6-4.03 5.6-4.03.42 1.06 2.03 1.02c1.61-.04 2.25-1.61 2.25-1.61s4.79 1.36 6.91 5.38c2.12 4.03 1.82 4.75 1.82 4.75s-.96.15-1.85-.15c-.89-.3-2.76-2.6-4.03-3.44s-3.78-1.17-5.27-1.05-3.95.7-5.4 1.8-2.91 2.89-3.34 3.01c-.41.13-1.39.17-1.39.17z" fill="#da7c87" stroke-width="none" opacity="1" stroke="none"></path><path id="SvgjsPath93019" d="M114.2 128.3c-.3-.6-.7-1-1.3-1.2-.4-.2-.8.2-.5.5l.2.2c-.4.16-.78.3-1.16.39-.08-.26-.18-.51-.27-.77-.22-.55-.46-1.09-.72-1.62-.52-1.05-1.04-2.13-1.82-3.02-.76-.9-1.68-1.66-2.67-2.3-.99-.63-2.05-1.16-3.18-1.53l-.05-.02-.03.06c-.36.78-1.08 1.43-1.94 1.53-.42.04-.87.01-1.27-.15-.39-.15-.75-.44-.92-.8l-.04-.09-.08.03c-2.15.72-4.13 2.02-5.47 3.85-.66.92-1.2 1.91-1.68 2.93-.41.91-.74 1.85-.99 2.82-.79.28-1.62.32-2.5-.12.1-.2.3-.4.3-.6 0-.2-.2-.3-.4-.3-.7-.1-1.1.8-1.2 1.3-.1.6 0 1.3.7 1.5.3.1.5-.1.5-.3s0-.4-.1-.6c1.1.7 2.8.6 4 0 1.2-.6 1.8-1.6 2.6-2.5 1.1-1.1 2.6-1.9 4.3-2.3 3.5-.8 6.9.4 9.1 2.6.7.7 1.3 1.5 2.4 1.7 1.1.2 2.1-.1 3-.5.1.3.1.6.2.8.1.2.4.2.5.1.79-.39.69-1.09.49-1.59zm-22.8-1.95c.49-1.01 1.04-1.99 1.7-2.88.66-.9 1.5-1.65 2.42-2.27.91-.6 1.88-1.11 2.91-1.46.22.39.58.67.99.82.44.16.9.19 1.35.14.91-.12 1.63-.79 2.01-1.59 2.2.71 4.28 1.96 5.76 3.75.76.89 1.27 1.96 1.77 3.02.25.53.48 1.07.69 1.61.08.24.18.49.25.75-.71.12-1.41.03-2.15-.53-.4-.3-.6-.6-1-.9-.8-.7-1.6-1.3-2.6-1.7-1.8-.8-3.9-1.2-6-.9-1.9.2-3.7.9-5.2 2-1.11.85-2.45 2.34-3.96 2.91.28-.95.64-1.88 1.06-2.77z" fill="#cb5f6c" stroke-width="none" opacity="1" stroke="none"></path><path id="SvgjsPath93020" d="M108.3 133.1c-2.3-.1-4.7-.6-7-.4-2.3.2-4.5 1.5-6.8 1.1-.2 0-.4.2-.2.4 1.8 1.2 4.4.2 6.4 0 2.5-.3 5.4.4 7.7-.5.4-.2.2-.6-.1-.6z" fill="#d19271" stroke-width="none" opacity="1" stroke="none"></path></g></g><g id="svga-group-eyes-left-move" transform="matrix(1,0,0,1,1,1)"><g id="svga-group-eyes-left" transform="matrix(1.0500001,0,0,1.0500001,-4.010007867411815,-4.365008501117714)"><g id="svga-group-eyesback-left"><path id="SvgjsPath93112" d="M80.2 74.2c7.5 0 13.5 5.8 13.5 13s-6 13-13.5 13-13.5-5.8-13.5-13 6-13 13.5-13z" fill="#ffffff" stroke-width="none" opacity="1"></path></g><g id="svga-group-eyesiriswrapper-left" transform="matrix(1,0,0,1,0,0)"><g id="svga-group-eyesiriscontrol-left" transform="matrix(1,0,0,1,0,0)"><g id="svga-group-eyesiris-left" transform="matrix(1,0,0,1,0,0)"><path id="SvgjsPath93156" d="M80.2 81.9c2.9 0 5.3 2.4 5.3 5.3s-2.4 5.3-5.3 5.3-5.3-2.4-5.3-5.3 2.4-5.3 5.3-5.3z" fill="#4a250f" stroke-width="none" opacity="1" stroke="none"></path><path id="SvgjsPath93157" d="M80.2 82.2c2.8 0 5 2.2 5 5s-2.2 5-5 5-5-2.2-5-5 2.2-5 5-5m0-.6c-3.1 0-5.6 2.5-5.6 5.6s2.5 5.6 5.6 5.6 5.6-2.5 5.6-5.6c0-3.1-2.5-5.6-5.6-5.6z" fill="#2b1000" stroke-width="none" opacity="1" stroke="none"></path><path id="SvgjsPath93158" d="M82.9 82.6c-.1.3-.3.7-.5 1s-.4.6-.7.9c.1-.3.3-.7.5-1 .2-.4.4-.7.7-.9zm.7.6-.6.9c-.2.3-.5.6-.8.8l.6-.9c.3-.3.5-.6.8-.8zm-.9 2.1c.2-.3.4-.5.7-.7.2-.2.5-.4.8-.6-.2.3-.4.5-.7.7-.2.2-.5.4-.8.6zm.3.6c.3-.2.6-.3.9-.4s.6-.2 1-.3c-.3.2-.6.3-.9.4s-.7.2-1 .3zm.3.5.9-.3c.3-.1.6-.1.9-.1l-.9.3c-.3.1-.6.1-.9.1zm.1.7c.2 0 .3-.1.5-.1h.5c.3 0 .6.1.9.2-.3.1-.6 0-.9 0-.2 0-.3 0-.5-.1-.2.1-.3.1-.5 0zm-.2.6c.3 0 .7.1 1 .1l.9.3c-.3 0-.7-.1-1-.1-.2 0-.5-.1-.9-.3zm0 .8c.2 0 .3.1.4.1s.3.1.4.2c.3.1.5.3.8.5-.3-.1-.6-.2-.8-.3-.1-.1-.3-.1-.4-.2-.1-.2-.3-.2-.4-.3zm-.5.8c.3.1.5.3.8.4.2.2.5.3.7.6-.3-.1-.5-.3-.8-.4-.3-.2-.5-.4-.7-.6zm-.9-7.1c0 .3-.1.7-.2 1s-.2.7-.4 1c0-.3.1-.7.2-1 .1-.3.2-.6.4-1zM80.5 84c-.1-.3 0-.7 0-1s.1-.7.2-1c.1.3 0 .7 0 1-.1.3-.1.7-.2 1zm-1.2-2c.1.3.2.7.3 1s.1.7.1 1c-.1-.3-.2-.7-.3-1 0-.2-.1-.3-.1-.5V82zm-1.1.4c.2.3.3.6.4.9s.2.7.3 1c-.2-.3-.3-.6-.4-.9-.2-.3-.3-.7-.3-1zm-.9.5c.3.2.5.5.7.8s.4.6.5.9c-.3-.2-.5-.5-.7-.8-.2-.2-.4-.5-.5-.9zm-1.1.9c.3.2.7.4 1 .7.3.2.6.5.9.8-.3-.2-.7-.4-1-.7-.3-.2-.6-.5-.9-.8zm-.3 1c.3.1.5.2.8.3.2.2.5.3.7.5-.3-.1-.5-.2-.8-.3-.2-.1-.5-.2-.7-.5zm-.4 1.1c.3 0 .5 0 .8.1.2.1.5.1.7.3-.3 0-.5 0-.8-.1-.3-.1-.5-.1-.7-.3zm-.3 1.2c.3-.1.6-.1.9-.1s.6 0 .9.1c-.3.1-.6.1-.9.1-.3 0-.6 0-.9-.1zm.2.9c.2-.1.5-.2.8-.2.3-.1.5-.1.8-.1-.2.1-.5.2-.8.2-.3.1-.6.1-.8.1zm0 1c.3-.2.6-.3.9-.4s.6-.2.9-.2c-.3.2-.6.3-.9.4-.2.1-.6.1-.9.2zm.5.8c.2-.2.5-.3.8-.5l.9-.3c-.2.2-.5.3-.8.5s-.6.3-.9.3zm.9 1c.1-.2.3-.4.5-.7.2-.2.4-.4.6-.5-.1.2-.3.4-.5.7-.2.2-.4.4-.6.5zm.9.8c.1-.3.2-.7.4-1s.3-.6.6-.9c-.1.3-.2.7-.4 1-.2.4-.4.7-.6.9zm1.1.4c0-.3 0-.6.1-.8.1-.3.2-.5.3-.8 0 .3 0 .6-.1.8 0 .3-.1.6-.3.8zm2.8-1.8c.2.2.3.5.3.8.1.3.2.5.2.8-.2-.2-.3-.5-.3-.8-.1-.2-.2-.5-.2-.8zm.7-.3c.2.2.4.4.5.6.2.2.3.4.4.7-.2-.2-.4-.4-.5-.6-.2-.3-.3-.5-.4-.7zm-1.5.6c.1.2.1.5.2.8v.8c-.1-.2-.1-.5-.2-.8 0-.3-.1-.6 0-.8zm-.7 0c.1.3.1.5.1.8s0 .5-.1.8c-.1-.3-.1-.5-.1-.8 0-.2 0-.5.1-.8z" fill="#2b1000" stroke-width="none" opacity="1" stroke="none"></path><path id="SvgjsPath93159" d="M80.2 84.2c1.7 0 3 1.3 3 3s-1.3 3-3 3-3-1.3-3-3 1.3-3 3-3z" fill="#000000" stroke-width="none" opacity="1"></path><path id="SvgjsPath93160" d="m79.5 84.8-.6-.6c-.2-.2-.5-.3-.8-.3s-.6.1-.8.3c-.2.2-.3.5-.3.8s.1.6.3.8l.6.6c.2.2.5.3.8.3s.6-.1.8-.3c.4-.6.4-1.2 0-1.6zm2.7 5.1c1 0 1-1.5 0-1.5-.9 0-.9 1.5 0 1.5z" fill="#ffffff" stroke-width="none" opacity="1"></path></g></g></g><g id="svga-group-eyesfront-left"><path id="SvgjsPath93120" d="M80.2 73.7c-7.8 0-14.1 6.1-14.1 13.6s6.3 13.6 14.1 13.6 14.1-6.1 14.1-13.6S88 73.7 80.2 73.7zm-8.6 16.4c-5-2.9-4.1-11 5.8-7.7 7.4 2.5 12.6 9.1 12.6 9.1-9.1 1-13.4 1.5-18.4-1.4z" fill="#f0c7b1" stroke-width="none" opacity="1" stroke="none"></path><path id="SvgjsPath93121" d="M90.7 92.1S87.3 89.2 85 88c-2.3-1.2-5.8-4.8-9.8-4.9-4-.1-8.2 3.3-8.2 3.3s.8-4.5 3.6-6.8 6.6-2.1 10.1 0 8.5 8.4 10 12.5z" fill="#e8b9a0" stroke-width="none" opacity="1" stroke="none"></path><path id="SvgjsPath93122" d="M90.7 92.1c-.3-.2-.5-.4-.8-.7l-1.8-1.5c-.9-.7-1.8-1.4-2.8-1.9-1-.5-1.9-1.2-2.8-1.9s-1.8-1.3-2.8-1.9-2.1-1-3.2-1.2-2.3-.1-3.4.2c-1.1.3-2.2.7-3.2 1.2-.8.4-1.6.9-2.4 1.5.3-1.2.7-2.3 1.3-3.4.7-1.2 1.6-2.4 2.8-3.1 1.2-.8 2.6-1.1 4-1.1s2.8.4 4.1 1c1.3.6 2.4 1.4 3.5 2.4s2 2 3 3.1c1.7 2.2 3.4 4.6 4.5 7.3-.5-1.4-1.2-2.6-2-3.9s-1.6-2.4-2.5-3.6c-.9-1.1-1.9-2.2-2.9-3.2-1.1-1-2.2-1.9-3.6-2.6-1.3-.7-2.8-1.1-4.3-1.1s-3 .3-4.3 1.2c-1.3.8-2.3 2-2.9 3.3-.7 1.3-1.2 2.7-1.5 4.2v.6l.5-.4c.4-.3.8-.6 1.3-.9 0 .6.2 1.3.5 1.8.5 1 1.2 1.9 2.1 2.5 1.8 1.2 3.9 2 6.1 2.3 1.1.1 2.2.2 3.2.2 1.1 0 2.2-.1 3.2-.2 2.1-.2 4.2-.5 6.4-.9.2.3.5.4.7.7zm-7.2-.2c-2.1.1-4.3.2-6.3-.1-2.1-.3-4.1-1-5.9-2.2-.9-.6-1.6-1.3-2.1-2.3-.3-.6-.5-1.2-.5-1.9 1.4-.8 2.8-1.5 4.4-1.9 1.1-.3 2.2-.4 3.3-.2 1.1.2 2.1.6 3.1 1.1 1 .5 1.9 1.2 2.8 1.8.9.6 1.8 1.3 2.9 1.8 1.7.9 3.2 2.1 4.7 3.2-2.1.4-4.2.6-6.4.7z" fill="#d5d5d5" stroke-width="none" opacity="1" stroke="none"></path></g></g></g><g id="svga-group-eyes-right-move" transform="matrix(1,0,0,1,-1,1)"><g id="svga-group-eyes-right" transform="matrix(1.0500001,0,0,1.0500001,-5.990012323323455,-4.365008501117714)"><g id="svga-group-eyesback-right"><path id="SvgjsPath93113" d="M119.8 74.2c7.5 0 13.5 5.8 13.5 13s-6 13-13.5 13-13.5-5.8-13.5-13 6-13 13.5-13z" fill="#ffffff" stroke-width="none" opacity="1"></path></g><g id="svga-group-eyesiriswrapper-right" transform="matrix(1,0,0,1,0,0)"><g id="svga-group-eyesiriscontrol-right" transform="matrix(1,0,0,1,0,0)"><g id="svga-group-eyesiris-right" transform="matrix(1,0,0,1,0,0)"><path id="SvgjsPath93161" d="M119.8 82.6c2.5 0 4.6 2.1 4.6 4.6s-2.1 4.6-4.6 4.6-4.6-2.1-4.6-4.6 2.1-4.6 4.6-4.6z" fill="#4a250f" stroke-width="none" opacity="1" stroke="none"></path><path id="SvgjsPath93162" d="M119.8 82.8c2.4 0 4.4 2 4.4 4.4s-2 4.4-4.4 4.4-4.4-2-4.4-4.4 2-4.4 4.4-4.4m0-.5c-2.7 0-4.9 2.2-4.9 4.9s2.2 4.9 4.9 4.9 4.9-2.2 4.9-4.9-2.2-4.9-4.9-4.9z" fill="#2b1000" stroke-width="none" opacity="1" stroke="none"></path><path id="SvgjsPath93163" d="M122.1 83.1c-.1.3-.3.6-.4.9-.2.3-.4.5-.6.8.1-.3.3-.6.4-.9.2-.3.4-.5.6-.8zm.7.6c-.2.3-.3.6-.6.8-.2.2-.4.5-.7.7.2-.3.3-.6.6-.8.2-.3.5-.5.7-.7zm-.8 1.8.6-.6c.2-.2.4-.3.7-.5l-.6.6c-.2.2-.4.4-.7.5zm.2.5c.3-.2.5-.3.8-.4s.6-.2.9-.2c-.2.2-.5.3-.8.4-.3.1-.6.2-.9.2zm.3.5c.3-.1.5-.2.8-.2.3-.1.5-.1.8-.1-.3.1-.5.2-.8.2-.2.1-.5.1-.8.1zm.1.6c.1 0 .3 0 .4-.1h.4c.3 0 .5.1.8.2h-.8c-.1 0-.3 0-.4-.1-.1.1-.2.1-.4 0zm-.1.6c.3 0 .6.1.8.1.3.1.6.2.8.3-.3 0-.6-.1-.8-.1-.3-.1-.6-.2-.8-.3zm-.1.6c.1 0 .2.1.4.1.1.1.2.1.4.2s.5.3.7.4c-.3-.1-.5-.2-.7-.3-.1-.1-.2-.1-.3-.2-.2 0-.3-.1-.5-.2zm-.4.7c.2.1.4.2.7.4.2.2.4.3.6.5-.2-.1-.5-.2-.7-.4-.2-.1-.4-.3-.6-.5zm-.8-6.1c0 .3-.1.6-.2.9s-.2.6-.3.8c0-.3.1-.6.2-.9 0-.3.1-.6.3-.8zm-1.2 1.5v-.9c0-.3.1-.6.2-.9v.9c0 .3-.1.6-.2.9zm-1-1.7c.1.3.2.6.2.9.1.3.1.6.1.9-.1-.3-.2-.6-.2-.9 0-.2-.1-.3-.1-.4v-.5zm-1 .3c.2.3.3.6.4.8.1.3.2.6.2.9-.2-.3-.3-.6-.4-.8 0-.3-.1-.6-.2-.9zm-.8.5c.2.2.4.5.6.7s.3.5.4.8c-.2-.2-.4-.5-.6-.7-.1-.3-.2-.5-.4-.8zm-.9.7c.3.2.6.4.8.6s.5.5.8.7c-.3-.2-.6-.4-.8-.6-.3-.2-.5-.4-.8-.7zm-.2.9c.2.1.5.2.7.3.2.1.4.3.6.4-.2-.1-.5-.2-.7-.3-.3 0-.5-.2-.6-.4zm-.4 1c.2 0 .4 0 .7.1.2.1.4.1.6.2-.2 0-.4 0-.7-.1-.2 0-.4-.1-.6-.2zm-.2 1c.2-.1.5-.1.8-.1s.5 0 .8.1c-.2.1-.5.1-.8.1s-.6 0-.8-.1zm.1.8c.2-.1.4-.2.7-.2.2 0 .5-.1.7-.1-.2.1-.4.2-.7.2-.2.1-.5.1-.7.1zm0 .8c.2-.1.5-.2.8-.3s.5-.1.8-.2c-.2.1-.5.2-.8.3-.2.2-.5.2-.8.2zm.5.8c.2-.2.4-.3.7-.4s.5-.2.8-.3c-.2.2-.4.3-.7.4-.3.2-.6.3-.8.3zm.7.8c.1-.2.3-.4.4-.6l.5-.5c-.1.2-.3.4-.4.6-.1.3-.3.4-.5.5zm.8.8c.1-.3.2-.6.4-.8s.3-.5.5-.8c-.1.3-.2.6-.4.8-.2.3-.3.5-.5.8zm1 .3c0-.2 0-.5.1-.7s.1-.5.3-.7c0 .2 0 .5-.1.7s-.2.5-.3.7zm2.4-1.6c.1.2.2.4.3.7s.1.5.2.7c-.1-.2-.2-.4-.3-.7-.1-.2-.2-.4-.2-.7zm.6-.2.5.5.3.6-.5-.5-.3-.6zm-1.3.5c.1.2.1.4.1.7v.7c-.1-.2-.1-.4-.1-.7v-.7zm-.6 0c.1.2.1.5.1.7s0 .5-.1.7c-.1-.2-.1-.5-.1-.7s0-.5.1-.7z" fill="#2b1000" stroke-width="none" opacity="1" stroke="none"></path><path id="SvgjsPath93164" d="M119.8 84.6c1.4 0 2.6 1.2 2.6 2.6s-1.2 2.6-2.6 2.6-2.6-1.2-2.6-2.6 1.2-2.6 2.6-2.6z" fill="#000000" stroke-width="none" opacity="1"></path><path id="SvgjsPath93165" d="m119.2 85.1-.5-.5c-.2-.2-.4-.3-.7-.3-.2 0-.5.1-.7.3-.2.2-.3.4-.3.7s.1.5.3.7l.5.5c.2.2.4.3.7.3.2 0 .5-.1.7-.3.3-.5.3-1.1 0-1.4zm2.4 4.4c.8 0 .8-1.3 0-1.3-.9 0-.9 1.3 0 1.3z" fill="#ffffff" stroke-width="none" opacity="1"></path></g></g></g><g id="svga-group-eyesfront-right"><path id="SvgjsPath93123" d="M119.8 73.7c-7.8 0-14.1 6.1-14.1 13.6s6.3 13.6 14.1 13.6 14.1-6.1 14.1-13.6-6.3-13.6-14.1-13.6zm9.4 14.7c-5 2.9-9.7 4.7-18.7 3.7 0 0 5.5-5.9 13.1-7.5 7.7-1.7 10.6.8 5.6 3.8z" fill="#f0c7b1" stroke-width="none" opacity="1" stroke="none"></path><path id="SvgjsPath93126" d="M109.7 92.7s3.4-2.9 5.7-4.1c2.3-1.2 6.5-3.9 10.5-3.9 4-.1 6.4 1.8 6.4 1.8s-2.4-4.2-5.2-6.4c-2.8-2.3-5.3-1.6-8.9.5s-6.9 8-8.5 12.1z" fill="#e8b9a0" stroke-width="none" opacity="1" stroke="none"></path><path id="SvgjsPath93127" d="m133.1 87.4-.6-1c-1.4-2.4-3-4.7-5.2-6.5-.6-.4-1.2-.8-1.8-1.1-.7-.3-1.4-.4-2.1-.4-1.4.1-2.8.6-4 1.3-.6.3-1.2.7-1.8 1.1s-1.1.9-1.6 1.4c-1 1-1.8 2.1-2.6 3.2-1.5 2.3-2.8 4.8-3.8 7.3 1.1-2.5 2.4-4.9 4-7.2 1.6-2.2 3.4-4.3 5.9-5.4 1.2-.6 2.5-1.2 3.8-1.2 1.3-.1 2.6.5 3.6 1.4 1 .9 1.9 1.9 2.8 3 .6.8 1.2 1.7 1.8 2.5-.6-.3-1.3-.6-2-.8-1-.3-2.1-.5-3.2-.5-2.2-.1-4.2.6-6.1 1.5-1.9.9-3.7 1.9-5.6 3-1.8 1.1-3.4 2.4-5 3.8.3-.2.5-.4.8-.6 2 .3 3.9.5 5.9.5 2 0 4-.3 5.9-.8 1.9-.5 3.8-1.3 5.5-2.3.4-.2.9-.5 1.3-.7.4-.2.9-.5 1.2-.8s.8-.7 1.1-1.1c.1-.1.1-.3.2-.4.2.1.3.2.5.3l1.1.5zm-1.9-.9c-.3.4-.6.7-1 1-.4.3-.8.5-1.2.8s-.9.5-1.3.7c-1.7.9-3.6 1.7-5.4 2.2-1.9.5-3.8.8-5.8.9-2 .1-3.9 0-5.9-.1 1.4-1.1 2.8-2.1 4.3-3 1.8-1 3.7-2 5.6-2.8 1.9-.8 3.9-1.4 6-1.3 1 0 2 .2 3 .5.7.2 1.4.5 2 .8l-.3.3z" fill="#d5d5d5" stroke-width="none" opacity="1" stroke="none"></path></g></g></g><g id="svga-group-facehighlight-single"></g><g id="svga-group-eyebrows-left-move" transform="matrix(1,0,0,1,0,1)"><g id="svga-group-eyebrows-left-rotate" transform="matrix(1,0,0,1,0,0)"><g id="svga-group-eyebrows-left" transform="matrix(1,0,0,1,0,0)"><path id="SvgjsPath93246" d="M93.28 73.16s-1.89 2.47-4.4 1.16c-2.52-1.31-9.67-5.43-10.37-5.32-.7.12-7.55 3.84-10.72 7.24 0 0 3.31-6.87 10.61-9.67l14.88 6.59z" fill="#2a232b" stroke-width="none" opacity="1" stroke="none"></path><path id="SvgjsPath93247" d="m89.7 71.44-3.68-1.73-3.73-1.73c-1.26-.57-2.51-1.14-3.77-1.7l-.13-.06-.12.05c-1.15.48-2.28 1-3.31 1.7l-.39.25c-.13.09-.25.18-.38.27l-.75.55c-.47.4-.96.78-1.4 1.22a21.472 21.472 0 0 0-4.41 5.9l-.5 1.01.76-.84c.82-.91 1.75-1.72 2.73-2.47.97-.76 1.99-1.45 3.04-2.11 1.05-.65 2.12-1.25 3.22-1.81.27-.14.55-.27.83-.4.14-.06.28-.13.42-.19.14-.06.28-.12.39-.14.04-.03.2.03.33.08.14.05.27.11.41.18.27.13.55.26.82.4 2.19 1.12 4.35 2.32 6.53 3.47.54.29 1.1.57 1.65.85.53.28 1.15.58 1.8.62.65.06 1.3-.12 1.85-.43.28-.15.53-.34.77-.54.12-.1.23-.21.34-.33.05-.06.11-.11.15-.18l.07-.09c.02-.04.05-.04.08-.12l-3.62-1.68zm3.47 1.79-.08.08c-.05.06-.11.11-.17.16-.11.1-.23.2-.35.29-.24.18-.5.35-.77.47-.54.26-1.15.37-1.72.3-.59-.07-1.1-.35-1.64-.66l-1.61-.92c-1.07-.61-2.15-1.22-3.23-1.81a54.09 54.09 0 0 0-3.3-1.71c-.28-.13-.56-.26-.86-.38-.15-.06-.29-.12-.45-.17-.08-.03-.16-.05-.24-.07-.05-.01-.09-.02-.15-.02-.07 0-.15 0-.18.02-.19.05-.33.13-.47.19l-.42.21c-.28.15-.55.29-.82.45-1.08.61-2.12 1.28-3.16 1.95-1.75 1.16-3.48 2.36-5.05 3.77a22.046 22.046 0 0 1 3.94-4.69c.43-.42.91-.78 1.38-1.16l.73-.53c.12-.09.24-.18.37-.26l.38-.24c.26-.15.51-.32.77-.47l.8-.41c.13-.07.26-.14.4-.2l.41-.18.71-.3c1.18.52 2.36 1.03 3.54 1.54l3.71 1.56 7.6 3.14c-.01-.03-.04.03-.07.05z" fill="#1b141c" stroke-width="none" opacity="1" stroke="none"></path></g></g></g><g id="svga-group-eyebrows-right-move" transform="matrix(1,0,0,1,0,1)"><g id="svga-group-eyebrows-right-rotate" transform="matrix(1,0,0,1,0,0)"><g id="svga-group-eyebrows-right" transform="matrix(1,0,0,1,0,0)"><path id="SvgjsPath93248" d="M109.4 76.47s1.76 2.1 3.93.85c2.16-1.25 8.3-5.18 8.93-5.11.63.07 6.81 3.08 9.74 5.95 0 0-3.2-5.92-9.74-8.09l-12.86 6.4z" fill="#2a232b" stroke-width="none" opacity="1" stroke="none"></path><path id="SvgjsPath93249" d="M132.13 78.1c-.53-.96-1.15-1.85-1.84-2.69a21 21 0 0 0-2.28-2.34c-.41-.37-.84-.69-1.28-1.02l-.68-.45c-.11-.07-.22-.16-.35-.22l-.36-.2c-.93-.57-1.96-.99-2.99-1.36l-.11-.04-.11.06c-1.09.53-2.18 1.1-3.26 1.64l-3.22 1.68-3.17 1.68-3.11 1.65c.03.06.05.07.07.1l.07.08c.04.06.1.1.14.15.1.09.2.19.31.28.22.17.44.33.7.45.49.25 1.08.38 1.65.31.57-.06 1.1-.35 1.56-.62.47-.27.95-.54 1.42-.82 1.87-1.11 3.73-2.25 5.61-3.33.24-.13.47-.27.71-.39.12-.07.24-.12.35-.17.12-.05.25-.1.28-.09.1.02.22.07.35.11.13.05.25.1.38.15.25.1.5.21.75.32.98.45 1.96.94 2.91 1.47.94.54 1.87 1.11 2.76 1.73.89.62 1.75 1.3 2.5 2.06l.7.71-.46-.89zm-5.4-3.8a53.27 53.27 0 0 0-2.86-1.59c-.25-.13-.49-.24-.74-.36-.12-.06-.25-.12-.38-.17-.13-.06-.25-.11-.43-.15-.03-.01-.1-.01-.16-.01-.05 0-.08.02-.12.03-.07.02-.15.04-.21.08-.14.05-.26.11-.39.16-.25.11-.49.24-.74.37-.97.52-1.91 1.07-2.84 1.64-.93.56-1.86 1.15-2.77 1.72l-1.38.87c-.47.3-.9.57-1.43.65-.5.09-1.04.02-1.53-.19-.25-.1-.48-.24-.7-.39-.11-.07-.22-.16-.32-.24-.05-.05-.1-.08-.16-.13l-.07-.07c-.03-.01-.05-.07-.06-.05l6.58-3.07 3.21-1.52c1.03-.5 2.04-.98 3.06-1.5l.64.24.38.14c.13.05.24.11.36.16l.73.33c.24.12.46.26.7.38l.35.19c.11.06.23.14.34.21l.66.43c.42.32.86.62 1.26.97.81.68 1.59 1.42 2.29 2.22.49.55.94 1.15 1.37 1.76-1.47-1.17-3.05-2.15-4.64-3.11z" fill="#1b141c" stroke-width="none" opacity="1" stroke="none"></path></g></g></g><g id="svga-group-beardwrap" transform="matrix(1,0,0,1,0,0)"><g id="svga-group-beard-single-move" transform="matrix(1,0,0,1,0,0)"><g id="svga-group-beard-single" transform="matrix(0.9499997000000001,0,0,0.9499997000000001,4.985172809416952,6.4415438904254785)"><path id="SvgjsPath93522" d="M95.1 158s-6.6-5.4-8.3-11.6c-1.1-3.8 2.2-5.4 5.4-5.7 3.2-.3 10.7.4 10.7.4l-.1 2.4 1-2.5s5.1.4 7.6 1.5 1.7 4.4.4 7.1c-1.2 2.6-7.3 8.6-7.3 8.6v-1.1l-1 1.4-6.9-.3-2.5-2.2 1 2z" fill="#2a232b" stroke-width="none" opacity="1"></path><path id="SvgjsPath93523" d="M113.3 144.2c-.2-.6-.6-1.2-1.1-1.5-.5-.4-1.1-.6-1.6-.7-2.2-.6-4.5-.9-6.7-1.1h-.1l-.1.1-.7 1.7.1-1.6v-.1h-.1c-2.9-.2-5.7-.4-8.6-.5-1.4 0-2.9 0-4.3.4s-2.9 1.2-3.5 2.7c-.3.7-.3 1.6-.2 2.3.2.8.4 1.4.7 2.1.6 1.4 1.3 2.6 2.1 3.8 1.7 2.4 3.7 4.4 6 6.2l-.6-1.7 2.1 2 .1.1h.1c2.3.2 4.6.3 6.9.5h.2l.1-.1.4-.5v1l.6-.6c1.6-1.6 3.2-3.2 4.7-4.9.7-.9 1.5-1.7 2.1-2.7.7-1 1.1-2.1 1.4-3.2.1-1.3.3-2.5 0-3.7zm-.9 3.3c-.3 1-.8 2.1-1.4 2.9-.6.9-1.3 1.8-2.1 2.6-1.3 1.5-2.6 2.9-4 4.3v-1.2l-.6.8-.9 1.2c-2.2-.1-4.4-.1-6.7-.2l-2.5-2.1-.4-.3.2.4c.3.6.6 1.3.9 2-2-1.9-4-4.1-5.5-6.5-.8-1.2-1.5-2.4-2-3.7-.2-.6-.5-1.3-.6-2-.1-.7-.1-1.3.2-1.9.5-1.2 1.7-2 3-2.4 1.3-.4 2.8-.5 4.2-.6 2.8-.1 5.7.1 8.5.3l-.1 2.3v.8l.3-.7 1-2.3c2.2.3 4.4.6 6.4 1.3.5.2 1 .4 1.4.7.4.3.7.7.8 1.2.4 1 .2 2.1-.1 3.1zm-18.8 1.2-.4-1-.1 1c0 .3-.1.6-.1.9-.5-1-1-2-1.4-3.1-.5-1.3-.9-2.6-1.2-4 .1 1.4.5 2.8.9 4.1.4 1.4 1 2.6 1.7 3.9l.4.7.1-.8c0-.2.1-.5.1-.7.5 1.1 1 2.2 1.6 3.3.7 1.4 1.6 2.7 2.6 3.8-.8-1.3-1.6-2.6-2.2-4-.9-1.3-1.5-2.7-2-4.1zm15.1-.1-.5.1-.7.2c.2-1.1.5-2.2.7-3.3l-1.2 3.6-.1.4.4-.1.5-.1-1.2 2.1-1.4 2.6c.7-.8 1.2-1.6 1.8-2.4.5-.8 1.1-1.7 1.6-2.6l.1-.5zm-14.2-6.1c.2 2.4.7 4.7 1.3 7 .3 1.1.6 2.3 1.1 3.4.4 1.1.9 2.2 1.5 3.2-.8-2.2-1.4-4.5-2-6.8-.7-2.2-1.3-4.5-1.9-6.8zm-5.4 4.4c.8 1.8 1.8 3.5 3 5.1.6.8 1.2 1.6 1.8 2.3.7.7 1.3 1.5 2.1 2.1-1.3-1.5-2.4-3.1-3.6-4.7-1-1.6-2.1-3.2-3.3-4.8zm18 6.9c.5-.6 1-1.3 1.4-1.9l1.2-2.1c.8-1.4 1.5-2.8 2-4.4-.9 1.3-1.7 2.7-2.4 4.1-.8 1.5-1.5 2.9-2.2 4.3zm-3.6-3.9-1.5 6.6c.4-1 .8-2.1 1.1-3.2.3-1.1.6-2.2.8-3.3.2-1.1.4-2.2.6-3.4.2-1.1.3-2.2.3-3.4-.2 1.1-.4 2.2-.7 3.3l-.6 3.4zm-4.7-1.3c0 1.4.1 2.7.3 4 .1.7.2 1.3.4 2s.3 1.3.6 1.9c-.1-1.4-.2-2.7-.4-4-.3-1.3-.5-2.6-.9-3.9z" fill="#1b141c" stroke-width="none" opacity="1"></path></g></g></g><g id="svga-group-mustache-single-move" transform="matrix(1,0,0,1,0,0)"><g id="svga-group-mustache-single" transform="matrix(1,0,0,1,0,0)"></g></g><g id="svga-group-nose-single-move" transform="matrix(1,0,0,1,0,0)"><g id="svga-group-nose-single" transform="matrix(1,0,0,1,0,0)"><path id="SvgjsPath92991" d="M97.86 104.2s-4.22.78-5.78 2.4-2.08 5 .13 6.5c2.21 1.49 2.04.6 4.03-.39.26-.13.65-.71 1.56.71.91 1.43 1.95 2.27 2.73 1.62.78-.65 1.62-2.73 2.34-2.79.71-.06 2.21 1.69 2.79 1.88.58.19 2.92-.91 3.38-2.4s.39-4.03-1.95-6.04-7.35-1.49-9.23-1.49z" fill="#f8d5c3" stroke-width="none" opacity="1" stroke="none"></path><path id="SvgjsPath92992" d="M97.86 104.2c-1.05.22-2.09.5-3.09.88-.5.19-.99.41-1.46.67-.46.27-.91.57-1.26.97-.71.8-1.09 1.85-1.18 2.89-.1 1.04.18 2.13.89 2.86.17.19.38.33.58.49.22.14.45.28.68.4.23.11.46.23.69.27.23.05.43.03.63-.07.41-.21.85-.59 1.33-.86l.36-.21c.03-.01.07-.04.08-.05l.06-.04c.06-.04.12-.09.21-.13.16-.1.43-.12.62-.05.2.06.33.17.45.27.23.21.41.44.57.68.16.23.29.43.45.64.31.4.67.78 1.06.99.19.11.38.14.53.1.08-.01.15-.06.22-.11.08-.06.16-.14.23-.24.31-.37.59-.84.88-1.29.15-.23.3-.46.48-.68.09-.11.19-.23.3-.34.06-.06.13-.11.19-.16.08-.05.16-.1.27-.14.23-.09.47-.02.63.03.08.03.15.07.23.1l.2.12c.25.16.47.34.68.51.42.34.81.74 1.2 1.02.09.06.19.12.21.11.02.01.08 0 .13 0l.16-.03c.23-.05.46-.15.69-.25.45-.22.9-.49 1.26-.83.37-.34.67-.73.8-1.2.29-.98.26-2.06-.04-3.05-.3-1-.92-1.89-1.69-2.61-.77-.72-1.8-1.12-2.83-1.36-1.05-.23-2.12-.32-3.19-.35-1.06-.01-2.14.04-3.21.05zm0 0c2.14-.06 4.3-.2 6.43.2 1.05.22 2.12.56 2.96 1.29.83.71 1.52 1.61 1.88 2.66.37 1.04.45 2.2.18 3.3-.06.27-.19.57-.34.81-.16.25-.34.47-.55.67-.41.4-.88.73-1.38.98-.26.12-.52.24-.81.31-.15.03-.3.07-.51.05-.25-.02-.38-.14-.52-.21-.49-.34-.87-.7-1.28-1.03-.2-.16-.41-.32-.61-.45l-.15-.09-.14-.06c-.09-.02-.14-.04-.16-.02-.02 0-.05.03-.09.05-.04.03-.07.06-.11.1-.08.08-.16.17-.23.26-.15.2-.3.42-.44.64-.29.44-.57.91-.95 1.36-.1.11-.2.22-.34.33-.14.11-.31.2-.49.24-.38.09-.75-.02-1.02-.17-.56-.31-.92-.76-1.26-1.21-.17-.22-.32-.47-.46-.69-.13-.22-.29-.42-.45-.57a.78.78 0 0 0-.22-.15c-.06-.02-.09-.03-.16.01a.75.75 0 0 0-.14.08c-.03.02-.06.04-.11.07l-.1.05c-.11.06-.23.11-.35.18-.23.12-.45.26-.68.4-.23.14-.45.3-.74.42-.28.13-.64.15-.94.07-.3-.07-.55-.22-.79-.35-.24-.14-.47-.29-.69-.45-.22-.18-.45-.35-.63-.57-.76-.86-1-2.05-.85-3.13.14-1.08.59-2.13 1.33-2.93.77-.79 1.79-1.22 2.79-1.59 1.02-.37 2.07-.65 3.12-.86z" fill="#c27b55" stroke-width="none" opacity="1" stroke="none"></path></g></g><g id="svga-group-hair-front" transform="matrix(1,0,0,1,0,0)"><path id="SvgjsPath93464" d="M52.6 63.6s-2.3 16.1-12.4 22.2c0 0 4.2-.4 6.9-2.3 0 0-1 8.2 4.2 14.9 0 0-3.2-8.4-1.2-14.4s6.5-11.7 6.5-11.7 3.2 5.9 4.4 11.9c1.2 5.9.2 10 .2 10s4.4-13.6 2.3-20.9S62.3 54 62.3 54s6 3 10.9 3c0 0-6.3-3.1-7.5-6.9 0 0 6.3-1.5 12.4-.4 6.1 1.2 9.2 3.8 9.2 3.8s-4.8-6.3-11.1-8.4c0 0 13.8 0 22.2-3.1 0 0 2.3 2.3 8.8 2.1 6.5-.2 7.7-1.5 12.4-1.2s12.6 3.6 14.2 8.6 1.5 11.3 3.8 14.6c0 0-.2 11.1-3.2 14 0 0 2.7-3.2 3.6-6.1 0 0 6.5 10.9 14.9 13.4 0 0-4.8-5.6-5.6-8 0 0 9.4 4.8 10.5 12.2 0 0 .2-9.2-7.1-19 0 0 3.4 1.7 8.2.6 0 0-7.7-6.7-9.6-13.4 0 0 3.6 2.9 7.9 3.5 0 0-9.2-9-10.1-13.6 0 0 3.4-.6 7.1 1.5 0 0-2.7-9.6-12.4-15.5 0 0 3.6-1.3 5.2-3.6 0 0-8.8 2.5-12.6 2.3 0 0 2.3-3.8 3.6-8.2 0 0-8.6 2.9-13.8 1.5 0 0 5.4-6.5 6.7-9.6 0 0-14.9 7.1-22.8 5 0 0 11.7-8.8 14-14.4 0 0-18.4 8.8-25.1 9.2l1.5-2.9-5.9 3.1 1.3-2.1-3.1.2S78.9 21 73.6 28.8c0 0 2.7-6.5 2.9-12.2 0 0-2.7 3.1-5.4 5.4s-9.7 13.4-10.9 15-3.6 7-3.6 7-.6-9.8-5.4-13c0 0 4 5.7 3.5 16.3 0 0-3.6 5-11.9-2.7 0 0 1.2 6.3 10.9 6.5 0 0-8.4 6.3-8.6 18.4 0 0 2.9-7.1 7.5-5.9z" fill="#2a232b" stroke-width="none" opacity="1"></path><path id="SvgjsPath93465" d="M129.9 19.4C118.8 36 96.3 45.7 76.5 44.7c-.4 0-.4.6 0 .6 10.8 1.2 21.9-2.5 31.7-6.8 8.8-3.9 18-9.8 22.3-18.8.2-.3-.3-.7-.6-.3zm-17.1 4.8c6.4-.1 12.9-2 18.2-5.8.3-.2 0-.7-.3-.5-5.7 3.2-11.3 5.3-17.9 5.8-.3.1-.3.5 0 .5zm22.5 8c.3-.2 0-.7-.3-.5-5.1 3.1-10.2 6-15.8 8.1-5.3 2.1-12.3 4.8-18 3.4-.4-.1-.5.5-.2.6 5.4 1.9 11.7-.7 16.8-2.5 6.2-2.2 12.2-5.1 17.5-9.1zm8.8 22.8c.2.3.6 0 .4-.3-5.2-9.5-16.8-12.7-27-12-.3 0-.3.5 0 .5 10.6.8 20 2.8 26.6 11.8zM158 72.8c.4.1.6-.5.3-.6-10-5.1-17.9-11.3-24.3-20.6-.2-.3-.6 0-.4.2 5.1 9.4 14.1 17.6 24.4 21zm-16.3-5.9c-.3-.2-.6.1-.4.4 4 4.3 10.4 6.2 16.1 6.4.4 0 .5-.7.1-.8-5.8-1.2-11.1-2.1-15.8-6zm11.2 19.9c-6.1-3.3-10.8-7.3-14.1-13.6-.2-.3-.7-.1-.6.2 2.6 6.2 7.9 11.9 14.4 14 .4.2.6-.4.3-.6zm-59-57.7c-.4.1-.2.7.2.6 11.8-3 24.1-11.1 29.5-22.3.1-.2-.2-.4-.4-.2-7.9 10.5-16.4 18.1-29.3 21.9zm4.7-10.6c7.8-2 15.7-4.4 22.4-8.9.3-.2 0-.6-.3-.5-7.1 4-14.6 6.4-22.2 9-.3 0-.2.4.1.4zM80 28.9c-.2.3.2.6.4.4 5.2-5.8 11-10.1 17.8-13.9.2-.1.1-.6-.2-.5-6.9 2.9-13.3 8-18 14zm-7.4 1.2c-.2.2.2.5.4.3 5.6-6 11.5-10.4 19-13.9.3-.1.1-.6-.2-.5-7.5 2.4-14.6 7.7-19.2 14.1zm-8.8 6.5c-.2.2.1.5.3.4 7.2-4.5 12.6-13.1 13.1-21.6 0-.3-.4-.3-.4-.1-2.2 8.8-6 15.4-13 21.3zm-7.5 8.3v.3c0 .7.1 1.3.1 2 0 .3.4.3.4 0 .1-.8.2-1.7.2-2.5C61 34.5 67.8 27 75.1 18.9c.3-.3-.2-.7-.4-.4-7.2 6.8-14.4 14.8-17.7 24.3-.2-4.5-1.8-9-5.5-11.9-.3-.2-.8.2-.5.5 4.1 3.6 5 8.4 5.3 13.5zm-2.2 4.9c-4.9 2.1-9.2-.6-10.8-5.4-.1-.3-.7-.3-.7.1.4 5.8 6.9 8.4 11.6 5.7.3 0 .1-.5-.1-.4zm1.4-2.4c-4.3 2.3-8.6.8-11.6-2.8-.2-.2-.5.1-.4.3 2.7 3.8 8.2 6.7 12.3 3.1.4-.3 0-.8-.3-.6zm-2 3.4c-5.9 4.5-8.7 11.6-8.9 18.9 0 .3.6.4.6.1 1.2-7.1 2.9-13.6 8.8-18.3.3-.4-.1-1-.5-.7zm-7.8 18.9c.8-2.7 3-4.7 5.6-5.8.4-.2.2-.7-.2-.6-3 .8-5.1 3.2-5.7 6.3-.1.2.2.3.3.1zm7-8.7C50.9 72.6 47 82.6 35.6 87.5c-.3.1-.1.6.2.5 11.9-2.7 16.7-16.2 17.7-27 .1-.4-.7-.5-.8 0zm101.2-13.2c.1.2.5.1.4-.2-1.8-5.5-6.8-9.8-12.1-12-.3-.1-.4.3-.2.5 5.2 3 8.6 6.9 11.9 11.7zm-7.1 1.6c1.9 5.5 6.3 10.8 10.8 14.4.2.2.6-.1.4-.3-3.6-4.8-7.9-8.8-10.8-14.2-.1-.4-.5-.2-.4.1zM47.2 83c0-.4-.6-.4-.6-.1-1.3 5.6.7 11.8 4.7 15.8.2.2.7-.1.5-.4-3.5-4.7-4.7-9.5-4.6-15.3zm105.4-5.7c-.3-.3-.7.2-.4.4 3.9 3.9 5.6 8.8 5.6 14.3 0 .3.5.4.6.1.8-5.6-1.6-11.1-5.8-14.8zm-91 9.5c-.1-7.1-5.2-12.6-4.5-20 0-.2-.4-.3-.4-.1-1.9 6.8 3.1 13.6 4.3 20.1.1.4.6.3.6 0zM72.8 56c-4.3-1.4-5.9-5-7.7-8.8-.1-.2-.5-.1-.4.2.9 3.1 2.6 7.1 5.7 8.6-1.7-.2-3.4-.5-5-1.1-1.9-.7-3.4-1.8-5.1-2.7-.2-.1-.4.2-.2.3.5.5 1 1 1.6 1.4-1.4 4.9-.7 10 .1 15 1.2 7.6 2.1 14.2-1 21.5-.2.4.3.6.5.3 3.1-4.4 3-10.2 2.4-15.3-.9-7.3-2.8-13.8-1.7-21.2 2.6 1.8 6.2 2.6 9.1 2.4.2 0 .3-.1.2-.3.5.1.9.2 1.5.2.3.1.3-.4 0-.5zm5.1-7c-3.5-1-7.2-1.3-10.6.2-.2.1-.1.4.2.4 6.5-1.2 14.3.2 19.5 4.6.3.2.6-.1.4-.4-2.1-2.6-6.3-3.9-9.5-4.8zm53.6-13.3c-.2 0-.2.4.1.4 2.5 0 4.1-2.3 5.2-4.3 1.6-2.7 2.6-5.9 2.2-9 0-.3-.5-.4-.5-.1-.4 2.4-.7 4.8-1.7 7.1-1 2.2-2.7 5.5-5.3 5.9z" fill="#1b141c" stroke-width="none" opacity="1"></path></g><g id="svga-group-glasses-single-move" transform="matrix(1,0,0,1,0,0)"><g id="svga-group-glasses-single" transform="matrix(1,0,0,1,0,0)"></g></g></g></g></g><rect id="svga-credit-rect" width="200" height="15" x="0" y="185" fill="#ecf0f1" opacity="0.5" style="display: none;"></rect><text id="svga-credit-text" font-family="Avenir Next, Roboto, Helvetica, Arial, sans-serif" font-size="10px" text-anchor="start" font-weight="400" size="10px" anchor="start" weight="400" fill="#333333" x="33.40447998046875" y="182.60824704170227" style="display: none;"><tspan id="SvgjsTspan92490" dy="13" x="33.40447998046875">Created on AvatarMaker.com</tspan></text></g></svg>