<svg xmlns="http://www.w3.org/2000/svg" version="1.1" width="600px" height="600px" viewBox="0 0 200 200" style="overflow:hidden!important;"><defs id="SvgjsDefs103607"><linearGradient id="SvgjsLinearGradient104579" x1="78.6326" y1="126.359" x2="78.6326" y2="100.9055" gradientTransform="matrix(1 0 0 -1 0 202)" gradientUnits="userSpaceOnUse" class="svga-on-canvas-glasses-gradient-single-0-null"><stop id="SvgjsStop104580" stop-opacity="1" stop-color="#000000" offset="0" ></stop><stop id="SvgjsStop104581" stop-opacity="0" stop-color="#000000" offset="1" ></stop></linearGradient><linearGradient id="SvgjsLinearGradient104583" x1="-1739.1173" y1="126.359" x2="-1739.1173" y2="100.9055" gradientTransform="matrix(-1 0 0 -1 -1618 202)" gradientUnits="userSpaceOnUse" class="svga-on-canvas-glasses-gradient-single-1-null"><stop id="SvgjsStop104584" stop-opacity="1" stop-color="#000000" offset="0" ></stop><stop id="SvgjsStop104585" stop-opacity="0" stop-color="#000000" offset="1" ></stop></linearGradient></defs><g id="svga-group-wrapper"><g id="svga-group-backs-single"></g><g id="svga-group-humanwrap-move" transform="matrix(1,0,0,1,0,0)"><g id="svga-group-humanwrap" transform="matrix(1,0,0,1,0,0)"><g id="svga-group-hair-back-move" transform="matrix(1,0,0,1,0,0)"><g id="svga-group-hair-back" transform="matrix(1,0,0,1,0,0)"></g></g><g id="svga-group-humanbody-back"><path id="SvgjsPath104006" d="M180.8 184.9c-2.3-3.4-38.9-17.8-38.9-17.8l-13.4-5.2-5.6-68.8H76.8L71.3 162l-13.4 5.2S21.4 181.6 19 185c-2.3 3.4-3.3 14.9-3.3 14.9V219h168.5v-19.2c-.1.1-1-11.5-3.4-14.9z" fill="#f0c7b1" stroke-width="none" opacity="1" stroke="none"></path></g><g id="svga-group-chinshadow-single"><path id="SvgjsPath104962" d="M74 148c3.9 3.2 9.9 14.7 11.7 14.5 1.9-.2 8.6-2.2 8.6-2.2s6.8 2.1 8.6 2.2c2 .2 7.9-11.4 11.8-14.5 2-1.63 7.19-5.3 11.98-8.92l-3.74-45.98H76.82l-4.28 53.79c.58.42 1.09.8 1.46 1.11z" fill="#d19271" stroke-width="none" opacity="1"></path></g><g id="svga-group-humanbody-front"><path id="SvgjsPath104007" d="M184.5 219c-.1-6.4-.1-12.8-.1-19.2l-.3-.1s.1-.1.2 0c.1 0 .1.1.1.1v-.4l-.1-.5-.1-.9-.2-1.9c-.2-1.3-.4-2.5-.6-3.8-.2-1.3-.5-2.5-.9-3.8-.4-1.2-.8-2.5-1.5-3.6-.8-.9-1.9-1.5-2.9-2.1-1-.6-2.1-1.1-3.2-1.7-2.1-1.1-4.3-2.1-6.5-3.1-4.4-2-8.7-3.9-13.1-5.7-4.4-1.9-8.8-3.7-13.2-5.5l-13-5.2-1.2-16.9c-.4-5.7-.9-11.5-1.3-17.2l-1.3-17.2-1.5-17.3-.1-.8h-.8c-7.7 0-15.4.1-23.1.1l-23.1.2h-.5v.5L75 110.2l-1.3 17.2c-.8 11.4-1.8 22.8-2.8 34.2-5.6 2.1-11.2 4.2-16.7 6.4-5.6 2.2-11.2 4.5-16.8 6.9-2.8 1.2-5.6 2.4-8.3 3.6-2.8 1.3-5.5 2.5-8.2 4.1-.7.4-1.3.8-2 1.4-.2.1-.4.4-.5.6l-.3.6c-.2.4-.4.7-.5 1.1-.6 1.5-1 3-1.3 4.5-.6 3-1.1 6-1.4 9.1l-.1 19.1v.9h.9l42.1.1H100c14 0 28.1-.1 42.1-.2l42.1-.5h.3v-.3zm-84.5-1-42.1-.1-41.2.1-.1-18.1c.3-3 .6-5.9 1.2-8.9.3-1.4.6-2.9 1.1-4.2.1-.3.3-.7.4-.9l.2-.4.3-.3c.5-.4 1.1-.8 1.8-1.2 2.5-1.5 5.3-2.8 8-4.1 2.7-1.3 5.5-2.5 8.2-3.7 5.5-2.4 11.1-4.8 16.7-7.1s11.2-4.5 16.9-6.7l.2-.1v-.2c.9-11.5 1.7-23 2.7-34.4l1.4-17.2 1.5-16.7 22.6.2c7.4.1 14.8.1 22.3.1l1.3 16.4 1.5 17.2c.5 5.7 1 11.5 1.5 17.2l1.6 17.2v.3l.3.1 13.4 5c4.4 1.7 8.9 3.4 13.3 5.2 4.4 1.8 8.8 3.7 13.2 5.6 2.2 1 4.3 2 6.5 3 1.1.5 2.1 1.1 3.2 1.6 1 .6 2.1 1.2 2.9 2 .7 1.1 1.1 2.3 1.4 3.5.3 1.2.6 2.5.8 3.7.2 1.3.4 2.5.6 3.8l.2 1.9.1.9.1.5v.4c0 6.3 0 12.6-.1 18.9l-41.8-.5c-14 .1-28.1 0-42.1 0z" fill="#c27b55" stroke-width="none" opacity="1" stroke="none"></path><path id="SvgjsPath104008" d="M125.1 142.4s-1.8 23-9.1 32.9c0 0 7.9-25 9.1-32.9zm-34.5 16s5 7.9 11.5 10.1c0 0-9.5 2.2-11.5-10.1zM73.4 140c6.7 25.6 6.7 25.6 8.5 30.7 0 0 .4-12.6-8.5-30.7z" fill="#d19271" stroke-width="none" opacity="1" stroke="none"></path></g><g id="svga-group-clothes-single"><path id="SvgjsPath104966" d="M61.8 186.6s14.4 11.8 17.6 14.6c3.2 2.8 21.3 12 21.3 12s19.2-9.9 22.4-12.5c3.2-2.6 14.4-17.4 14.4-17.4V220H66.4l-4.6-33.4z" fill="#efefef" stroke-width="none" opacity="1"></path><path id="SvgjsPath104967" d="M67 148.7s-7.2 5.3-11 8.6-9.9 6.6-9.9 6.6l2.9 1.6s-5.5 3.2-10.9 4.8c-5.5 1.6-20.1 5.2-21.1 5.7s-2.3 2.9-2.3 2.9-4.4.9-4.9 11.1c-.6 10.2-1.3 30-1.3 30h64.1s-5.8-35.1-6.3-39.2c0-.4 1.2-16.6 1.2-18 0-1 4.4-11.7 4.3-15.4-.1-1.5-4.8 1.3-4.8 1.3zm66 0s7.2 5.3 11 8.6 9.9 6.6 9.9 6.6l-2.9 1.6s5.5 3.2 10.9 4.8c5.5 1.6 20.1 5.2 21.1 5.7s2.3 2.9 2.3 2.9 4.4.9 4.9 11.1 1.3 29.9 1.3 29.9h-64.1s5.8-35.1 6.3-39.2c0-.4-1.1-16.6-1.1-18 0-1-3.5-12.8-3.7-15.9-.1-1.2 4.1 1.9 4.1 1.9z" fill="#4f1803" stroke-width="none" opacity="1" stroke="none"></path><path id="SvgjsPath104968" d="M138.2 164.1s4.9 11.3 6.3 13.8c1.4 2.6 12.2 10.8 12.2 10.8s-15.5 12.9-15.7 14.5c-.2 1.6-3.1 11.7-3.1 11.7l4.2-9.9s6.6-5.6 8.2-6.6 14.1-9.9 14.1-9.9-16.2-11-17.8-12.7c-1.6-1.4-8.4-11.7-8.4-11.7zm26.3 9.6c-3.5-.9-10.1-4.2-12.7-5.6 0 0 8 5.4 10.6 6.8 2.6 1.4 15.5 3.8 15.5 4.5 0 .7-4 5.2-4.9 7.5-.9 2.4-.9 9.1-.9 9.1s1.9-5.9 3.1-8.9 7.7-7.3 7.7-7.3 0-1.6-.9-2.6-14-2.6-17.5-3.5zm24.1 12.9c-.2-2.6-2.1-4.5-3.8-5.2 0 0 .9 1.6 1.2 2.6s.7 11.5.7 15.9 3.1 16.9 3.1 16.9-.9-27.6-1.2-30.2zM65.5 161.7c-.5 5.4-2.6 17.6-3.5 21.4-.9 3.8-.2 18.1-.2 18.1s.7-12.7 1.9-15.5c1.2-2.8 2.6-10.3 2.4-12.4-.4-2.2-.6-11.6-.6-11.6zm-43.1 14.5c-1.6.4-4.3 1.2-5.1 2.2 0 0 0 1.4 7.5-.8 5.3-1.5 14.7-5.8 19.7-8.2-6.9 2.7-20.8 6.5-22.1 6.8zm22.1-6.8c1.6-.6 2.9-1.2 3.5-1.6-.1 0-1.4.6-3.5 1.6zm-2.1 22.9c-2.2-1-5.7-2.4-5.7-2.4 4.1 1.8 21.2 14.6 21.2 14.6l6.3 13.8s-4.5-14.6-5.5-15.5c-.9-1-14.1-9.5-16.3-10.5z" fill="#5e230d" stroke-width="none" opacity="1" stroke="none"></path><path id="SvgjsPath104969" d="M190.8 190.1c-.5-9.2-4.1-11.1-5.1-11.4-.4-.6-1.4-2.5-2.4-2.9-.5-.3-3.8-1.1-9.1-2.5-4.4-1.1-9.3-2.4-12-3.2-4.1-1.3-8.4-3.4-10.1-4.4l2.9-1.7-.8-.4c-.1 0-6.1-3.3-9.8-6.5-3.8-3.3-10.9-8.6-11-8.6l-.8-.6-4.8-2.4 1.1 16.4 3.1 1.2c0 1.1.4 6.1.7 10.5.2 3.5.5 7 .5 7.3-.1 1.2-.7 4.9-1.4 9.7-.6.8-1.2 1.5-1.8 2.2-1.3 1.6-2.6 3.1-3.9 4.6-.7.8-1.3 1.5-2 2.2-.3.4-.7.7-1.1 1-.4.3-.8.6-1.2.8-3.4 2.1-7 4-10.5 5.9-3.5 1.9-7 3.7-10.5 5.5-3.4-1.7-6.9-3.5-10.3-5.3-1.7-.9-3.5-1.9-5.2-2.9-1.7-1-3.4-1.9-5-3.1L68.5 192c-.9-5.4-1.6-9.9-1.7-11.1 0-.3.2-3.9.5-7.3.3-4.4.6-8.9.7-10.2l3.1-1.4 1.3-15.9-5 1.7-.8.6c-.1.1-7.2 5.4-11 8.6-3.7 3.2-9.8 6.5-9.8 6.5l-.8.4 2.9 1.7c-1.7.9-5.9 3.1-10 4.4-2.7.8-7.6 2.1-12 3.2-5.3 1.4-8.6 2.2-9.1 2.5-1 .5-2.1 2.3-2.4 2.9-1 .4-4.6 2.2-5.1 11.4-.6 10.1-1.3 29.8-1.3 30v.5h184.1v-.5c-.1-.2-.8-19.9-1.3-29.9zM30.4 219.5c-.1-3.5-.3-6.9-.9-10.4-.7-3.7-1.4-7.4-2.3-11-.5-1.8-.9-3.6-1.5-5.4-.6-1.8-1.2-3.6-2.2-5.2-1.1-1.6-2.3-3-3.6-4.4-.6-.7-1.3-1.4-2-2-.7-.6-1.3-1.4-2.2-1.8.4.2.7.6 1 .9.3.3.6.7.9 1l1.8 2.1c1.2 1.4 2.4 2.9 3.3 4.5.9 1.6 1.5 3.4 2 5.1.5 1.8 1 3.6 1.4 5.4.9 3.6 1.6 7.3 2.5 10.9.4 1.8.7 3.7.9 5.5.4 1.6.6 3.2.9 4.8H9c.1-3.2.8-20.3 1.2-29.4.5-9.6 4.5-10.6 4.6-10.6l.2-.1.1-.2c.5-.9 1.4-2.4 2.1-2.7.5-.2 4.8-1.4 8.9-2.4 4.4-1.1 9.4-2.4 12.1-3.2 4.9-1.5 9.8-4.2 10.8-4.8.6.4 1.2.7 1.8 1.1l2.5 1.5c.4.2.8.5 1.2.8l.6.3c-2.1 2.2-4.3 4.2-6.7 6l-8.4 6.1c-2.8 2.1-5.6 4.1-8.4 6.2l-1.1.8 1.2.8 6.1 4.1 6.1 4.1 6.2 4.1c1 .7 2.1 1.4 3 2l2.8 2.2c1.2 2.3 2.3 4.6 3.5 6.9l3.3 6.3H30.4zm32.4 0c-.9-2.2-1.8-4.4-2.7-6.7-1-2.4-2-4.9-3.1-7.3v-.1l-.1-.1c-.9-.8-1.8-1.7-2.8-2.5-1-.8-2-1.5-3-2.2-2-1.4-4-2.8-6-4.3s-4-2.8-6.1-4.2c-1.7-1.1-3.3-2.3-5-3.4 2.4-1.8 4.8-3.6 7.2-5.5 2.7-2.1 5.5-4.2 8.2-6.4 2.8-2.2 5.2-4.8 7.4-7.5s4.3-5.5 6-8.5c-2.1 2.7-4.4 5.4-6.8 7.9-.2.3-.5.5-.7.8-.2-.1-.4-.3-.6-.4-.4-.3-.7-.7-1.1-1-.8-.6-1.6-1.2-2.4-1.7-.8-.5-1.6-1.1-2.5-1.6l-1.2-.6-.6-.4c1.8-1 6.2-3.6 9.2-6.2 3-2.6 10.2-8 10.2-8l4.1-2.1s-3.7 14.6-3.7 15.3c0 .8-.4 5.9-.7 10.5-.4 5.7-.5 7.3-.5 7.5 0 .1 0 .3.1.4-.2.6-.4 1.2-.5 1.9l-.9 3.9c-.3 1.3-.5 2.6-.8 3.9-.2 1.3-.5 2.6-.7 3.9-.1 2.3-.2 4.5-.1 6.8.4-2.2.7-4.5 1-6.7.3-1.3.5-2.6.8-3.9.2-1.3.5-2.6.7-3.9l.6-3.9c0-.2.1-.5.1-.7 1.1 7.5 5.2 32.6 6 36.9l-9 .1zm57 0H84.2c-3.7 0-7.4 0-11.2.1-.4-2.4-2.8-16.6-4.4-27.2.8.7 1.6 1.4 2.4 2 3 2.6 5.9 5.1 8.9 7.6 1.6 1.2 3.3 2.2 5 3.2 1.7 1 3.4 1.9 5.2 2.9 3.5 1.9 7 3.7 10.5 5.5l.2.1.2-.1c3.6-1.9 7.1-3.7 10.7-5.7 3.5-1.9 7.1-3.9 10.4-6.1l1.2-.9c.4-.4.8-.7 1.1-1.1.7-.7 1.4-1.5 2-2.3 1.3-1.5 2.6-3.1 3.8-4.7.5-.6.9-1.1 1.4-1.7-1.7 10.7-4.2 25.9-4.7 28.4h-7.1zm8.2 0c.7-4.3 4.9-29.4 6-36.9 0 .2.1.5.1.7l.6 3.9c.2 1.3.5 2.6.7 3.9.3 1.3.5 2.6.8 3.9.2 2.2.6 4.5 1 6.7.1-2.3 0-4.6-.1-6.8-.2-1.3-.4-2.6-.7-3.9-.2-1.3-.5-2.6-.8-3.9l-.9-3.9c-.1-.6-.3-1.2-.5-1.9 0-.2 0-.3.1-.4 0-.2-.1-1.8-.5-7.5-.3-4.6-.7-9.8-.7-10.6 0-.9-3.7-15.8-3.7-15.8l4.2 2.6s7.2 5.4 10.2 8c3 2.6 7.4 5.2 9.2 6.2l-.6.4-1.2.6c-.9.5-1.7 1-2.5 1.6-.8.6-1.6 1.1-2.4 1.7-.4.3-.7.7-1.1 1-.2.2-.4.3-.6.4-.2-.2-.5-.5-.7-.8-2.4-2.5-4.6-5.2-6.8-7.9 1.8 3 3.9 5.8 6.1 8.5 2.2 2.7 4.6 5.3 7.4 7.5 2.7 2.2 5.5 4.3 8.2 6.4 2.4 1.9 4.8 3.7 7.2 5.5-1.7 1.1-3.3 2.2-5 3.4-2 1.4-4.1 2.8-6.1 4.2-2 1.4-4 2.8-6 4.3-1 .7-2 1.4-3 2.2-.9.8-1.9 1.6-2.8 2.5l-.1.1-.1.1c-1 2.4-2.1 4.9-3.1 7.3l-2.7 6.6-9.1.1zm41.7 0c.2-1.6.4-3.1.6-4.7.3-1.9.5-3.7.9-5.5.9-3.6 1.6-7.3 2.5-10.9.4-1.8.9-3.6 1.4-5.4s1.1-3.6 2-5.1c.9-1.5 2.1-3 3.3-4.5l1.8-2.1c.3-.4.6-.7.9-1 .3-.3.6-.7 1-.9-.8.4-1.5 1.2-2.2 1.8l-2 2c-1.3 1.4-2.5 2.8-3.6 4.4-1.1 1.6-1.6 3.4-2.2 5.2-.6 1.8-1.1 3.6-1.5 5.4-.9 3.7-1.6 7.3-2.3 11-.4 3.4-.6 6.8-.6 10.3h-32.4l3.3-6.3c1.2-2.3 2.4-4.6 3.5-6.9l2.8-2.2c1-.7 2-1.4 3-2l6.1-4.1 6.1-4.1 6.1-4.1 1.2-.8-1.1-.8c-2.8-2.1-5.6-4.2-8.4-6.2l-8.4-6.1c-2.4-1.8-4.6-3.8-6.7-6l.6-.3c.4-.2.8-.5 1.2-.8l2.5-1.5c.6-.3 1.2-.7 1.8-1.1 1 .6 5.9 3.3 10.8 4.8 2.7.8 7.7 2.1 12.1 3.2 4.2 1.1 8.5 2.2 8.9 2.4.6.3 1.6 1.8 2.1 2.7l.1.2.2.1s4.1 1 4.6 10.6c.5 9.1 1.1 26.2 1.2 29.4h-21.2zm22.4 1z" fill="#210900" stroke-width="none" opacity="1" stroke="none"></path></g><g id="svga-group-head" transform="matrix(1,0,0,1,0,0)"><g id="svga-group-ears-left-move" transform="matrix(1,0,0,1,0,0)"><g id="svga-group-ears-left" transform="matrix(1,0,0,1,0,0)"><path id="SvgjsPath103906" d="M68.53 80.36s-11.15-9.8-12.94-9.96c-1.54-.14-5.36 8.01-7.05 13.16-.45 1.36-.34 2.88.25 4.2 1.62 3.57 5.21 11.04 8.43 14.78 0 0 2.72.59 3.58.33.86-.25 7.58-5.67 8.27-7.77s.83-11.3-.54-14.74z" fill="#f0c7b1" stroke-width="none" opacity="1" stroke="none"></path><path id="SvgjsPath103907" d="M69.49 84.19c.18 1.31.28 2.64.33 3.96.05 1.32.06 2.65-.01 3.98a26.7 26.7 0 0 1-.17 1.99c-.05.34-.1.67-.2 1.02s-.28.7-.46.96c-.72 1.11-1.6 1.95-2.47 2.8-.88.84-1.78 1.63-2.71 2.4-.47.38-.93.75-1.42 1.11-.24.18-.49.35-.74.52l-.4.24c-.16.08-.35.17-.53.19-.67.08-1.23-.01-1.82-.09-.58-.08-1.15-.19-1.73-.32l-.13-.03-.08-.1c-1.45-1.74-2.63-3.68-3.74-5.65-1.1-1.98-2.1-4.03-3.06-6.1l-1.41-3.11c-.5-1.05-.71-2.29-.54-3.46.06-.59.26-1.14.44-1.67.18-.54.37-1.07.56-1.6.4-1.05.79-2.11 1.22-3.15.86-2.07 1.76-4.13 2.94-6.02.3-.47.62-.93 1-1.36.19-.21.4-.42.67-.59.13-.08.3-.16.52-.16.19.01.32.07.47.12 1.06.47 1.87 1.14 2.75 1.76 1.72 1.29 3.37 2.66 5 4.09 1.64 1.41 3.22 2.86 4.81 4.38.49 1.27.72 2.58.91 3.89zM58.4 72.51c-.85-.59-1.75-1.26-2.59-1.61-.09-.02-.2-.08-.26-.08-.04 0-.12.02-.2.07-.17.1-.35.25-.51.44-.34.36-.65.8-.94 1.24-1.16 1.8-2.18 3.77-3.11 5.77-.46 1.01-.92 2.02-1.32 3.06-.2.52-.4 1.04-.59 1.57-.19.53-.38 1.05-.45 1.6-.15 1.11.06 2.27.55 3.26.47 1.03.98 2.05 1.49 3.05 1.02 2.02 2.12 3.99 3.26 5.91 1.15 1.91 2.36 3.79 3.76 5.42l-.21-.13c1.09.2 2.3.43 3.29.33.11-.01.18-.06.28-.11l.35-.22.7-.5c.47-.34.93-.71 1.39-1.08.92-.74 1.81-1.52 2.68-2.34.85-.82 1.73-1.66 2.39-2.61.17-.25.29-.46.38-.72.08-.27.14-.58.19-.89.09-.63.17-1.27.21-1.91.1-1.29.14-2.6.15-3.9.01-1.31-.04-2.62-.15-3.92-.11-1.3-.27-2.62-.66-3.84-3.33-2.62-6.67-5.35-10.08-7.86z" fill="#e1ac8f" stroke-width="none" opacity="1" stroke="none"></path><path id="SvgjsPath103908" d="M68.79 88.66S58.04 75.08 56.02 76.21c-2.01 1.12-5.19 7.53-5.18 9.67.02 3.14 3.34 8.38 5.01 9.96s3.68 2.55 6.35 1.94c2.66-.61 6.59-9.12 6.59-9.12z" fill="#e1ac8f" stroke-width="none" opacity="1" stroke="none"></path><path id="SvgjsPath103909" d="M60.61 88.64c-.45-1.26-.95-2.5-1.45-3.74a49.61 49.61 0 0 0-1.66-3.64c-.61-1.18-1.22-2.36-1.97-3.45l-.08-.12-.08.12c-.75 1.18-1.45 2.38-2.12 3.62-.33.62-.66 1.25-.96 1.89-.31.64-.57 1.31-.84 1.98l-.04.1.04.12c.46 1.41.96 2.79 1.47 4.18.25.69.54 1.37.83 2.05.3.68.59 1.35.99 2.01l.19.31.25-.23c.34-.31.6-.65.87-1.02.26-.37.49-.76.69-1.17.4-.82.63-1.78.6-2.74v-.06l-.02-.04c-.5-.99-1.03-1.96-1.55-2.94l-.05.03c.42 1.01.83 2.03 1.26 3.03-.04.86-.3 1.68-.68 2.41-.33.62-.77 1.17-1.24 1.65-.26-.49-.5-1.02-.73-1.56l-.81-2.03c-.53-1.32-1.03-2.66-1.52-3.99.45-1.3.94-2.59 1.52-3.82.57-1.23 1.22-2.41 1.96-3.51.67 1.04 1.17 2.23 1.68 3.39l1.54 3.67 1.56 3.67c.52 1.22 1.05 2.45 1.6 3.66l.06-.03c-.41-1.27-.85-2.54-1.31-3.8z" fill="#c27b55" stroke-width="none" opacity="1" stroke="none"></path></g></g><g id="svga-group-ears-right-move" transform="matrix(1,0,0,1,0,0)"><g id="svga-group-ears-right" transform="matrix(1,0,0,1,0,0)"><path id="SvgjsPath103910" d="M131.47 80.36s11.15-9.8 12.94-9.96c1.54-.14 5.36 8.01 7.05 13.16.45 1.36.34 2.88-.25 4.2-1.62 3.57-5.21 11.04-8.43 14.78 0 0-2.72.59-3.58.33-.86-.25-7.58-5.67-8.27-7.77s-.83-11.3.54-14.74z" fill="#f0c7b1" stroke-width="none" opacity="1" stroke="none"></path><path id="SvgjsPath103911" d="M131.44 80.33c1.58-1.52 3.17-2.97 4.81-4.38 1.62-1.42 3.28-2.8 5-4.09.88-.63 1.69-1.29 2.75-1.76.16-.04.28-.11.47-.12.21 0 .38.08.52.16.28.17.49.37.67.59.38.43.7.89 1 1.36 1.18 1.89 2.07 3.96 2.94 6.02.43 1.04.82 2.09 1.22 3.15.19.53.38 1.06.56 1.6.18.53.37 1.08.44 1.67.17 1.17-.04 2.41-.54 3.46l-1.41 3.11c-.97 2.06-1.96 4.11-3.06 6.1-1.11 1.98-2.29 3.92-3.74 5.65l-.08.1-.13.03c-.58.13-1.15.23-1.73.32-.59.07-1.16.16-1.82.09-.18-.02-.37-.11-.53-.19l-.4-.24c-.25-.17-.5-.34-.74-.52-.48-.36-.95-.73-1.42-1.11-.93-.76-1.83-1.56-2.71-2.4-.87-.86-1.75-1.69-2.47-2.8a3.42 3.42 0 0 1-.46-.96c-.1-.35-.14-.69-.2-1.02-.08-.67-.14-1.33-.17-1.99-.07-1.33-.07-2.65-.01-3.98.06-1.32.15-2.65.33-3.96.17-1.34.4-2.65.91-3.89zm.06.06c-.4 1.21-.56 2.54-.66 3.84-.1 1.3-.15 2.61-.15 3.92.01 1.31.06 2.61.15 3.9.05.65.12 1.29.21 1.91.06.31.11.62.19.89.09.26.2.47.38.72.66.94 1.54 1.79 2.39 2.61.86.81 1.76 1.59 2.68 2.34.46.37.92.73 1.39 1.08l.7.5.35.22c.1.05.17.1.28.11.99.1 2.2-.13 3.29-.33l-.21.13c1.4-1.63 2.61-3.51 3.76-5.42 1.14-1.92 2.24-3.89 3.26-5.91.51-1.01 1.02-2.02 1.49-3.05.49-.99.7-2.15.55-3.26-.07-.56-.26-1.07-.45-1.6s-.38-1.05-.59-1.57c-.4-1.04-.86-2.06-1.32-3.06-.93-2.01-1.95-3.97-3.11-5.77-.29-.44-.6-.88-.94-1.24-.17-.18-.35-.34-.51-.44a.431.431 0 0 0-.2-.07c-.06 0-.17.06-.26.08-.84.35-1.74 1.02-2.59 1.61-3.39 2.49-6.73 5.22-10.08 7.86z" fill="#e1ac8f" stroke-width="none" opacity="1" stroke="none"></path><path id="SvgjsPath103912" d="M131.21 88.66s10.75-13.58 12.77-12.45c2.01 1.12 5.19 7.53 5.18 9.67-.02 3.14-3.34 8.38-5.01 9.96s-3.68 2.55-6.35 1.94c-2.66-.61-6.59-9.12-6.59-9.12z" fill="#e1ac8f" stroke-width="none" opacity="1" stroke="none"></path><path id="SvgjsPath103913" d="M148.54 85.31c-.26-.67-.52-1.34-.84-1.98-.3-.64-.62-1.27-.96-1.89-.67-1.24-1.38-2.44-2.12-3.62l-.08-.12-.08.12c-.74 1.1-1.36 2.27-1.97 3.45-.6 1.18-1.14 2.4-1.66 3.64-.49 1.24-1 2.48-1.45 3.74-.46 1.26-.9 2.53-1.28 3.81l.06.03c.55-1.21 1.07-2.44 1.6-3.66l1.56-3.67 1.54-3.67c.51-1.16 1.01-2.35 1.68-3.39.74 1.1 1.39 2.29 1.96 3.51.58 1.24 1.08 2.52 1.52 3.82-.5 1.34-.99 2.67-1.52 3.99l-.81 2.03c-.23.53-.47 1.07-.73 1.56-.47-.48-.91-1.03-1.24-1.65-.39-.73-.64-1.55-.68-2.41.43-1 .84-2.02 1.26-3.03l-.05-.03c-.52.98-1.05 1.95-1.55 2.94l-.02.04v.06c-.03.96.2 1.92.6 2.74.2.41.43.81.69 1.17.26.36.53.71.87 1.02l.25.23.19-.31c.4-.67.69-1.34.99-2.01.29-.68.57-1.36.83-2.05.51-1.38 1.01-2.77 1.47-4.18l.04-.12-.07-.11z" fill="#c27b55" stroke-width="none" opacity="1" stroke="none"></path></g></g><g id="svga-group-faceshape-wrap" transform="matrix(1,0,0,1,0,0)"><g id="svga-group-faceshape-single"><path id="SvgjsPath104952" d="M139.8 97.1c-.4-8.2.6-28.7.6-28.7s.54-9.23-.36-13.33c-2.2-10-6.54-16-15.44-20.8-9.3-5-24.45-4.85-24.45-4.85s-16.01-.31-25.31 4.69c-8.8 4.9-12.9 10.86-15.1 20.86-.9 4 .26 13.51.26 13.51s.91 20.53.51 28.73-3.25 19.06-1.15 22.56c2 3.5 16.29 13.75 20.19 16.85 3.9 3.2 9.92 14.77 11.72 14.57 1.9-.2 8.58-2.12 8.58-2.12s6.75 1.85 8.55 2.05c1.9.2 7.2-10.78 11.1-13.88 3.9-3.2 19.28-13.65 21.28-17.15 2.22-3.59-.68-14.79-.98-22.99z" fill="#f0c7b1" stroke-width="none" opacity="1"></path><path id="SvgjsPath104953" d="M140.4 68.4s.54-9.23-.36-13.33c-2.2-10-6.54-16-15.44-20.8-9.3-5-24.45-4.85-24.45-4.85s-16.01-.31-25.31 4.69c-8.8 4.9-12.9 10.86-15.1 20.86-.9 4 .26 13.51.26 13.51s.91 20.53.51 28.73-3.25 19.06-1.15 22.56c2 3.5 16.29 13.75 20.19 16.85 3.9 3.2 9.92 14.77 11.72 14.57 1.9-.2 8.58-2.12 8.58-2.12s6.75 1.85 8.55 2.05c1.9.2 7.2-10.78 11.1-13.88 3.9-3.2 19.28-13.65 21.28-17.15 2.22-3.59-.68-14.79-.98-22.99-.4-8.2.6-28.7.6-28.7zm-49.24 81.46c.02-.01.04-.01.06-.01-.04.01-.1.01-.06.01zm17.31.01c.03 0 .05 0 .04.01l-.04-.01zm31.44-29.26c-1.04 1.16-2.3 2.17-3.53 3.18-2.5 2-5.11 3.88-7.74 5.74l-7.92 5.56c-.66.48-1.31.94-1.98 1.48-.7.57-1.29 1.19-1.84 1.83-1.1 1.27-2.06 2.6-3 3.93l-2.73 4c-.45.66-.91 1.3-1.37 1.92-.46.6-.97 1.23-1.39 1.56-.02.01-.04.03-.06.04l-.09-.01c-.35-.06-.73-.14-1.11-.22-.76-.17-1.54-.36-2.31-.56-1.55-.39-3.1-.81-4.64-1.24l-.34-.09-.36.1c-2.1.58-4.22 1.16-6.32 1.64a24.943 24.943 0 0 1-1.78.36c-.04-.03-.09-.07-.13-.11-.62-.58-1.29-1.48-1.91-2.33-1.26-1.75-2.46-3.59-3.73-5.41-1.28-1.82-2.54-3.65-4.17-5.38-.2-.22-.43-.43-.65-.64-.25-.22-.49-.42-.71-.58l-1.33-1.02-2.65-1.98-5.26-3.96a170.01 170.01 0 0 1-5.14-4.07c-1.66-1.38-3.36-2.81-4.71-4.32-.68-.76-.97-1.37-1.13-2.36-.17-.95-.15-2.02-.14-3.06.08-2.12.33-4.29.59-6.47.53-4.34 1.19-8.78 1.16-13.25.01-4.43-.16-8.83-.33-13.23-.18-4.4-.39-8.8-.64-13.19v-.05c-.42-3.29-.72-6.62-.68-9.92.01-.82.05-1.65.15-2.45.09-.79.3-1.59.49-2.4.4-1.61.85-3.2 1.45-4.74 1.14-3.1 2.88-5.96 5.11-8.37 2.24-2.41 4.99-4.31 7.88-5.9 2.89-1.52 6.12-2.39 9.34-3.03 3.24-.64 6.54-.97 9.84-1.15 6.6-.38 13.24.13 19.68 1.41 3.21.66 6.38 1.52 9.26 2.92 2.89 1.4 5.67 3.19 8.02 5.35 4.77 4.29 7.44 10.64 8.54 17 .73 6.53.15 13.26.13 19.94-.05 3.34-.13 6.68-.15 10.02-.04 3.34-.07 6.68.08 10.03.22 6.45 1.75 12.83 1.62 19.22-.08 1.56-.33 3.14-1.37 4.26z" fill="#c27b55" stroke-width="none" opacity="1"></path></g></g><g id="svga-group-mouth-single-move" transform="matrix(1,0,0,1,0,3)"><g id="svga-group-mouth-single" transform="matrix(1,0,0,1,0,0)"><path id="SvgjsPath104205" d="M83.97 125.04c.12-.08 2.71-.87 5.61-1.89 2.72-.96 5.75-2.17 6.12-2.21.78-.08 4.82 3.03 4.82 3.03s3.5-3.19 3.96-3.19c.23 0 3.46 1.14 6.75 2.02 3.36.9 7.4.4 7.4.4s-3.98 2.09-7.29 1.72c-2.91-.32-5.66-1.21-6.09-1.13-.93.16-3.81 3.5-4.35 3.57-.54.08-5.13-3.73-5.52-3.89-.17-.06-2.95 1.05-5.48 1.6-2.99.63-5.93-.03-5.93-.03z" fill="#da7c87" stroke-width="none" opacity="1" stroke="none"></path><path id="SvgjsPath104206" d="M87.82 125.93c.52 1.38 1.02 2.77 1.59 4.13.28.68.57 1.36.91 1.99.08.16.18.31.27.45.08.14.22.28.25.28.06 0 .08.02.17.02l.24.01c.17-.01.35-.02.53-.04 1.43-.17 7.87-2.25 8.26-2.28.37-.03 10.85 2.22 11.57 2.26.18.01.36.01.52.01.06-.01.16-.01.18-.02.03-.01.09-.06.14-.11.21-.23.4-.56.57-.87.68-1.29 1.19-2.68 1.71-4.06-.17.72-.36 1.44-.58 2.14-.22.71-.45 1.41-.75 2.11-.16.34-.31.69-.58 1.02-.08.08-.15.17-.29.24-.07.04-.13.05-.18.06l-.17.03c-.21.02-2.07 0-2.81-.04-2.96-.17-8.25.14-8.61.16-.35.02-9.34.05-9.5.05l-.31-.02c-.1 0-.25-.06-.37-.09-.06-.03-.14-.09-.19-.13a1.42 1.42 0 0 1-.12-.13c-.07-.09-.13-.17-.18-.26-.1-.17-.19-.35-.27-.52-.31-.69-.56-1.39-.8-2.1-.45-1.43-.87-2.84-1.2-4.29z" fill="#d19271" stroke-width="none" opacity="1" stroke="none"></path></g></g><g id="svga-group-eyes-left-move" transform="matrix(1,0,0,1,0,0)"><g id="svga-group-eyes-left" transform="matrix(1,0,0,1,0,0)"><g id="svga-group-eyesback-left"><path id="SvgjsPath104342" d="M80.2 74.2c7.5 0 13.5 5.8 13.5 13s-6 13-13.5 13-13.5-5.8-13.5-13 6-13 13.5-13z" fill="#ffffff" stroke-width="none" opacity="1"></path></g><g id="svga-group-eyesiriswrapper-left" transform="matrix(1,0,0,1,0,0)"><g id="svga-group-eyesiriscontrol-left" transform="matrix(1,0,0,1,0,0)"><g id="svga-group-eyesiris-left" transform="matrix(1,0,0,1,0,0)"><path id="SvgjsPath104506" d="M80.2 81.9c2.9 0 5.3 2.4 5.3 5.3s-2.4 5.3-5.3 5.3-5.3-2.4-5.3-5.3 2.4-5.3 5.3-5.3z" fill="#43559b" stroke-width="none" opacity="1"></path><path id="SvgjsPath104507" d="M80.2 92.8c-3.1 0-5.6-2.5-5.6-5.5 0-3.1 2.5-5.6 5.5-5.6 3.1 0 5.6 2.5 5.6 5.5.1 3.1-2.4 5.6-5.5 5.6zm0-10.6c-2.8 0-5 2.3-5 5.1s2.3 5 5.1 5 5-2.3 5-5.1c-.1-2.8-2.4-5-5.1-5z" fill="#384b94" stroke-width="none" opacity="1"></path><path id="SvgjsPath104508" d="M80.2 82.7c2.5 0 4.5 2 4.5 4.5s-2 4.5-4.5 4.5-4.5-2-4.5-4.5 2-4.5 4.5-4.5z" fill="#4e60a3" stroke-width="none" opacity="1"></path><path id="SvgjsPath104509" d="M80.2 84.3c1.6 0 2.9 1.3 2.9 2.9s-1.3 2.9-2.9 2.9-2.9-1.3-2.9-2.9 1.3-2.9 2.9-2.9z" fill="#000000" stroke-width="none" opacity="1"></path><path id="SvgjsPath104510" d="M78.9 84.3c.6 0 1 .4 1 1s-.4 1-1 1-1-.4-1-1 .4-1 1-1zm3.3 4.6c.2 0 .4.2.4.4s-.2.4-.4.4-.4-.2-.4-.4.2-.4.4-.4z" fill="#ffffff" stroke-width="none" opacity="1"></path></g></g></g><g id="svga-group-eyesfront-left"><path id="SvgjsPath104350" d="M80.2 73.7c-7.8 0-14.1 6.1-14.1 13.6s6.3 13.6 14.1 13.6 14.1-6.1 14.1-13.6S88 73.7 80.2 73.7zm4.1 20.2c-3.8 1.7-7.2.9-9.8-.2-2.3-1-5.7-4.6-6.4-5.4 1.8-1.2 5.3-3.5 6.3-4 1.2-.7 7-1.6 10-.9 2 .5 4.5 2.8 5.9 4.3-.7 1.1-2.5 4.6-6 6.2z" fill="#f0c7b1" stroke-width="none" opacity="1" stroke="none"></path><path id="SvgjsPath104351" d="M91.5 89.2V89c0-1.2-.1-2.3-.3-3.5-.1-.6-.2-1.2-.4-1.7-.2-.6-.4-1.1-.7-1.6-.6-1-1.3-1.9-2.1-2.8s-1.5-1.8-2.4-2.6h-.1c-1-.3-2-.6-3.1-.8s-2.1-.4-3.2-.4c-.5 0-1.1 0-1.6.1-.6.1-1.1.3-1.6.6-1 .5-1.8 1.2-2.5 2s-1.4 1.7-1.9 2.5c-.6.9-1.2 1.7-1.8 2.6-1.1 1.8-2.3 3.6-2.8 5.7l.9-.6c1.5 1.7 3 3.3 4.9 4.7.5.3 1 .7 1.6.9.5.2 1.1.4 1.7.6 1.1.3 2.3.5 3.5.6 2.4 0 4.8-.7 6.7-2.2.9-.7 1.7-1.6 2.4-2.6.6-.8 1.1-1.8 1.6-2.7.4.4.8.8 1.1 1.2l.1.2zm-2-.3c-.3.5-.7.9-1 1.4-.7.9-1.5 1.7-2.5 2.4-.9.7-2 1.1-3.1 1.4-1.1.3-2.2.5-3.4.5-1.1 0-2.3-.2-3.4-.5-.6-.2-1.1-.3-1.6-.6-.5-.2-1-.5-1.5-.8-.9-.7-1.8-1.4-2.7-2.2-.8-.7-1.5-1.5-2.2-2.2l4.8-3 1.5-.9c.5-.2 1.1-.3 1.6-.5 1.1-.2 2.3-.4 3.4-.5 1.2-.1 2.3-.1 3.4-.1.6.1 1.1.1 1.7.3.5.2 1 .4 1.5.7 1 .6 1.9 1.3 2.7 2.1l1.2 1.2c0 .5-.2.9-.4 1.3zm-3.2-4.8c-.5-.3-1-.6-1.6-.8-.6-.2-1.2-.3-1.8-.4-1.2-.1-2.3-.1-3.5 0-1.2.1-2.3.3-3.5.6-.6.1-1.1.3-1.7.5l-1.5.9c-1.9 1.3-3.9 2.6-5.7 3.9.3-.9.8-1.9 1.3-2.8.5-.9 1.1-1.8 1.7-2.6 1.2-1.7 2.4-3.5 3.8-5 .7-.7 1.5-1.4 2.4-1.9.4-.2.9-.4 1.4-.5.5-.1 1-.1 1.5-.1 2 .1 4.1.5 6.1 1.1.8.8 1.6 1.6 2.3 2.4.8.9 1.5 1.8 2.1 2.7.3.5.6 1 .7 1.5.2.6.3 1.1.4 1.7.2 1.1.3 2.1.3 3.2-1.2-1.5-2.8-3.1-4.7-4.4z" fill="#000000" stroke-width="none" opacity="1" stroke="none"></path></g></g></g><g id="svga-group-eyes-right-move" transform="matrix(1,0,0,1,0,0)"><g id="svga-group-eyes-right" transform="matrix(1,0,0,1,0,0)"><g id="svga-group-eyesback-right"><path id="SvgjsPath104343" d="M119.8 74.2c7.5 0 13.5 5.8 13.5 13s-6 13-13.5 13-13.5-5.8-13.5-13 6-13 13.5-13z" fill="#ffffff" stroke-width="none" opacity="1"></path></g><g id="svga-group-eyesiriswrapper-right" transform="matrix(1,0,0,1,0,0)"><g id="svga-group-eyesiriscontrol-right" transform="matrix(1,0,0,1,0,0)"><g id="svga-group-eyesiris-right" transform="matrix(1,0,0,1,0,0)"><path id="SvgjsPath104511" d="M119.8 82.5c2.6 0 4.7 2.1 4.7 4.7s-2.1 4.7-4.7 4.7-4.7-2.1-4.7-4.7 2.1-4.7 4.7-4.7z" fill="#384b94" stroke-width="none" opacity="1"></path><path id="SvgjsPath104512" d="M119.8 92.1c-2.7 0-4.9-2.2-4.9-4.9s2.2-4.9 4.9-4.9 4.9 2.2 4.9 4.9-2.2 4.9-4.9 4.9zm0-9.3c-2.4 0-4.4 2-4.4 4.4s2 4.4 4.4 4.4 4.4-2 4.4-4.4c0-2.4-2-4.4-4.4-4.4z" fill="#253984" stroke-width="none" opacity="1"></path><path id="SvgjsPath104513" d="M119.8 83.2c2.2 0 4 1.8 4 4s-1.8 4-4 4-4-1.8-4-4 1.8-4 4-4z" fill="#43559b" stroke-width="none" opacity="1"></path><path id="SvgjsPath104514" d="M119.8 83.8c1.9 0 3.4 1.5 3.4 3.4s-1.5 3.4-3.4 3.4-3.4-1.5-3.4-3.4 1.5-3.4 3.4-3.4z" fill="#4e60a3" stroke-width="none" opacity="1"></path><path id="SvgjsPath104515" d="M119.8 84.7c1.4 0 2.5 1.1 2.5 2.5s-1.1 2.5-2.5 2.5-2.5-1.1-2.5-2.5 1.1-2.5 2.5-2.5z" fill="#000000" stroke-width="none" opacity="1"></path><path id="SvgjsPath104516" d="M118.7 84.7c.5 0 .9.4.9.9s-.4.9-.9.9-.9-.4-.9-.9.4-.9.9-.9zm2.9 4c.2 0 .3.1.3.3s-.1.3-.3.3-.3-.1-.3-.3.1-.3.3-.3z" fill="#ffffff" stroke-width="none" opacity="1"></path></g></g></g><g id="svga-group-eyesfront-right"><path id="SvgjsPath104352" d="M119.8 73.7c-7.8 0-14.1 6.1-14.1 13.6s6.3 13.6 14.1 13.6 14.1-6.1 14.1-13.6-6.3-13.6-14.1-13.6zm6.7 20.5c-2.6 1.1-7 1.2-10.9-.4-3.4-1.4-5.1-4.7-5.8-6 1.4-1.2 3.9-2.9 5.8-3.3 3-.6 8.8.2 10 .7.9.4 4.5 2.2 6.2 3.1-.7 1.1-3.1 4.9-5.3 5.9z" fill="#f0c7b1" stroke-width="none" opacity="1" stroke="none"></path><path id="SvgjsPath104355" d="M132.8 88.8c-.3-1-.8-1.7-1.3-2.5s-1.1-1.5-1.7-2.2c-.3-.4-.6-.7-.9-1.1-.3-.3-.7-.7-1.1-1-.7-.6-1.5-1.1-2.4-1.6-.8-.5-1.7-.8-2.6-1.1-.9-.3-1.9-.5-2.8-.5-1.9-.1-3.8 0-5.7.3h-.2c-.8.6-1.5 1.2-2.2 1.9-.7.7-1.4 1.4-2 2.1-.3.4-.6.8-.8 1.3-.2.5-.3.9-.4 1.4-.2 1-.3 1.9-.3 2.9v.3l.2-.1c.4-.4.8-.7 1.2-1 .5.9.9 1.8 1.5 2.6.7 1 1.5 1.9 2.5 2.6 1 .7 2.1 1.2 3.3 1.6 1.2.4 2.4.6 3.6.7 1.2.1 2.4.1 3.6-.2.6-.1 1.2-.3 1.8-.5.3-.1.6-.2.9-.4.3-.2.5-.3.8-.5 1-.8 1.8-1.7 2.5-2.7l1.8-2.7c.1.1.4.3.7.4zM109 85.9c.1-.5.3-.9.5-1.3s.5-.8.8-1.2c.6-.7 1.3-1.4 2.1-2 .7-.6 1.4-1.2 2.2-1.8 1.8-.2 3.7-.3 5.5-.2.9.1 1.8.2 2.7.5.9.3 1.7.6 2.6 1.1s1.6.9 2.3 1.5c.4.3.7.6 1 .9.3.3.6.7.9 1l1.8 2.1c.6.7 1.1 1.5 1.5 2.3-1.9-1.1-3.9-2.2-5.8-3.2-.5-.2-1-.5-1.5-.7-.6-.2-1.1-.3-1.7-.4-1.1-.2-2.2-.3-3.3-.4-1.1-.1-2.2-.1-3.3 0-.6 0-1.1.1-1.7.2-.6.1-1.1.3-1.6.6-1.9 1-3.6 2.3-5.3 3.7-.1-.9 0-1.8.3-2.7zm20.8 4.9c-.7.9-1.5 1.8-2.4 2.5-.9.7-2.1 1-3.2 1.2-1.2.2-2.3.2-3.5.2s-2.3-.3-3.5-.6c-1.1-.3-2.2-.8-3.2-1.4-1.8-1.2-3.1-3-4.2-4.9.4-.3.9-.7 1.3-1 .9-.6 1.8-1.2 2.8-1.7.5-.2 1-.4 1.5-.5.5-.1 1.1-.2 1.6-.2 1.1-.1 2.2 0 3.3.1 1.1.1 2.2.2 3.3.4.5.1 1.1.2 1.6.3.5.2 1 .4 1.5.7 1.6.8 3.2 1.6 4.8 2.3-.4.9-1 1.8-1.7 2.6z" fill="#000000" stroke-width="none" opacity="1" stroke="none"></path></g></g></g><g id="svga-group-facehighlight-single"></g><g id="svga-group-eyebrows-left-move" transform="matrix(1,0,0,1,0,0)"><g id="svga-group-eyebrows-left-rotate" transform="matrix(1,0,0,1,0,0)"><g id="svga-group-eyebrows-left" transform="matrix(1,0,0,1,0,0)"><path id="SvgjsPath104556" d="M91.2 73.1s-11.8 1.1-14.3 1.1c-2.6.1-8.5.5-8.5.5s-1-3.4-.3-4.1c.7-.7 9.8-2.8 9.8-2.8l1.2.5-.1-.8s6-.5 7.3-.5h2.8l-.3 1.6 1.4-1.6.8 1 .7-.8s.4.8.1 2.5c-.2 1.6-.6 3.4-.6 3.4z" fill="#2a232b" stroke-width="none" opacity="1"></path><path id="SvgjsPath104557" d="m91.9 67.1-.1-.2-.2.2-.6.6-.1-.1c.2-.4.4-.9.5-1.3-.3.4-.5.8-.7 1.2l-.4-.5-.2-.2-.1.2-.8.9.2-.8v-.3H86.7c-.8 0-1.7 0-2.5.1-1.7.1-3.5.3-5.2.4h-.3v.6l-.7-.3h-.2c-2.5.6-5 1.3-7.5 2-.6.2-1.2.4-1.8.7-.2.1-.3.1-.4.2-.2.1-.2.3-.2.4-.1.3-.1.5-.1.8 0 1.1.3 2.1.5 3v.1h.1c2.1-.1 4.2-.2 6.2-.3l1.5-.1c.5 0 1 0 1.5-.1 1 0 1.9-.1 2.9-.2 1.9-.2 3.7-.3 5.5-.5l2.7-.3 1.3-.2.7-.1h.6V72.7l.1-.3.2-.7.3-1.5c.1-.5.2-1 .2-1.5v-.8c-.1-.2-.1-.5-.2-.8zm-.3 3.2c-.1.5-.2 1-.2 1.5l-.1.7-.1.3V73.1H90l-1.3.1-2.7.2c-1.8.1-3.7.3-5.6.4l-2.9.2c-.5 0-1 .1-1.5.1l-1.5.1c-2 .1-4 .3-6.1.5-.3-.9-.5-1.9-.5-2.9 0-.3 0-.5.1-.8 0-.1.1-.2.2-.3.1-.1.2-.1.4-.2l1.8-.6c1.2-.3 2.5-.6 3.7-1 1.2-.3 2.4-.6 3.6-.8l1.1.5.4.2v-1c1.6-.1 3.3-.3 4.9-.4.8-.1 1.7-.1 2.5-.1h2.1l-.2 1.3-.1.8.6-.6 1.2-1.3.4.4c-.2.5-.5 1-.6 1.6.3-.4.6-.9.8-1.4l.1.1.1.1.2-.2.5-.5c0 .1.1.3.1.4v.8c0 .5-.1 1-.2 1.5zm-6.4-.4.6-2.4c-.1.8-.2 1.6-.4 2.4l-.3 1.2c-.1.4-.2.7-.4 1.1l-.2.3v-.3c-.1-.6-.2-1.2-.4-1.8l-.3-1.6-.8 1.4c-.1.3-.3.6-.5.9-.2.3-.3.6-.5.8.1-.3.3-.6.4-.9.1-.3.3-.6.4-.9l.9-1.8.2-.3.1.3.4 1.9.3 1.5c.1-.2.2-.5.3-.7 0-.3.1-.7.2-1.1z" fill="#1b141c" stroke-width="none" opacity="1"></path></g></g></g><g id="svga-group-eyebrows-right-move" transform="matrix(1,0,0,1,0,0)"><g id="svga-group-eyebrows-right-rotate" transform="matrix(1,0,0,1,0,0)"><g id="svga-group-eyebrows-right" transform="matrix(1,0,0,1,0,0)"><path id="SvgjsPath104558" d="M110.7 74.9s12-.3 14.3-.6 7.6-.5 7.6-.5-.1-3.6-.8-4.2c-.7-.6-8.3-1.8-8.3-1.8l-.9.6v-.7s-5.2 0-6.3.1-2.6.2-2.6.2l.1 1.5-1.2-1.4-.9.9-.6-.7s-.5.8-.5 2.6c-.1 1.9.1 4 .1 4z" fill="#2a232b" stroke-width="none" opacity="1"></path><path id="SvgjsPath104559" d="M110.7 74.9H112l1.4-.1 2.8-.2c1.8-.1 3.7-.2 5.5-.3l2.7-.1c.4 0 .9-.1 1.4-.1l1.4-.1c1.8-.1 3.7-.1 5.5-.2l-.1.1c0-1.1-.1-2.2-.4-3.2-.1-.3-.1-.5-.3-.7-.1-.1-.1-.2-.2-.3-.1-.1-.2-.1-.4-.1-.5-.2-1-.3-1.6-.4-1.1-.2-2.1-.4-3.2-.6s-2.1-.3-3.2-.5h.2l-.9.6-.4.2v-1.1l.2.2c-1.5 0-3 0-4.5.1-.8 0-1.5 0-2.2.1l-2.2.2.2-.3.1 1.5.1.8-.5-.6-1.2-1.4h.3l-.9.9-.2.2-.1-.2-.6-.7h.3c-.1.2-.2.5-.3.7s-.1.5-.2.8c-.1.5-.1 1.1-.1 1.6V74.7l.3.2zm0 .1c-.1 0-.1-.1 0 0v-.8l-.1-.8c0-.5-.1-1.1-.1-1.6v-1.7c0-.3.1-.6.1-.8.1-.3.1-.5.3-.8l.1-.2.2.2.6.7h-.3l.9-.9.2-.2.2.2 1.2 1.4-.4.2-.1-1.5v-.2h.3l2.2-.2c.8-.1 1.5-.1 2.2-.1h4.7V68.8l-.4-.2.9-.6.1-.1h.1c2.1.4 4.2.8 6.4 1.2.5.1 1.1.3 1.6.4.1.1.3.1.4.2l.3.3c.1.2.2.5.3.8.2 1.1.3 2.1.4 3.2h-.1c-1.8.1-3.7.2-5.5.4l-1.4.1c-.4.1-.9.1-1.4.1-.9.1-1.8.1-2.8.2-1.8.1-3.7.1-5.5.2h-5.6zm4.5-5.9c.2.8.3 1.6.5 2.4l.3 1.2c.1.4.2.8.4 1.1l-.2.1.3-2.1.4-2.1.1-.3.2.3.9 1.7c.2.3.3.6.4.9.1.3.3.6.4.9-.2-.3-.3-.6-.5-.8s-.3-.6-.5-.8l-.9-1.7h.2l-.3 2.1-.3 2.1-.1.3-.2-.3c-.2-.4-.3-.8-.4-1.2-.1-.4-.2-.8-.2-1.2-.3-.9-.4-1.7-.5-2.6zm-2.3 4.7-.9-1.5c-.3-.5-.5-1.1-.6-1.6l.9 1.5c.3.5.4 1 .6 1.6z" fill="#1b141c" stroke-width="none" opacity="1"></path></g></g></g><g id="svga-group-beardwrap" transform="matrix(1,0,0,1,0,0)"><g id="svga-group-beard-single-move" transform="matrix(1,0,0,1,0,3)"><g id="svga-group-beard-single" transform="matrix(0.8999997000000001,0,0,0.8999997000000001,10.02503007499999,12.745037548352428)"><path id="SvgjsPath104912" d="m144.2 94.6.8 1.1s-.4-4.9-1.4-7.6c-1-2.7-5.5-6.5-5.5-6.5s-1.8 18.7-8 29.8c-4.8 8.6-8.1 9.9-10.2 9.2 2-.8 3.6-1.8 4.4-3 3.3-4.8 1.5-10.4-2.5-11.9-4.8-1.8-8.2 1.4-7.8 4.2.4 2.8 4.1 3.5 4.1 3.5-1.2-1.2-.1-4.2 1.7-3.6s1.6 4.2-2.1 4.8c-2.7.4-5.9.1-9.5-.4-3.6-.5-8.5 1.5-8.5 1.5-2.6-.9-6.4-1.7-9.2-1.2-2.7.5-7.2 2.3-9.4-.2-2.2-2.6-.6-4.7 1.1-3.5s.5 3.2.5 3.2c1.9-.4 2.6-2.8 2.1-4.3s-5.1-3.7-7.4-.1c-2.1 3.3-1.1 6.8 2.7 9.6-1.6 0-4.1-.6-7.1-3.2-5.3-4.6-11.2-20.2-10.9-33.9 0 0-3.8 4.8-4.9 6.9-1 2.1-1.5 6.8-1.5 6.8l1-.4s.2 1.5.4 11.7 2.3 23.1 3.5 27.7l1-1.1s.2 1.7 1.3 4.3c1.1 2.7 23.9 28.6 26.2 31 2.2 2.4 8.7 5.3 8.7 5.3V173l3.3 1.1s2.1-.6 3.5-2.1l-.4 2.1s4.7-.9 8.1-4.6c3.4-3.7 19.1-23.7 19.8-24.7l-.7 2.1s3.7-3.9 4.9-5.9 4.9-9.1 5.6-11.2c.7-2.1 2.1-15.9 1.8-22.5l.6 1.6-.1-14.3zM117.7 127c-1.1 4.8-5.6 10.1-8.3 11.5-2.7 1.4-16.8 2-20.6-2.7-3.8-4.8-6.6-10.3-6.8-15.3 7.1 3.9 18 2.3 18 2.3 7.5.2 13.9-.3 18.4-1.6 0 1.2-.1 3.2-.7 5.8z" fill="#2a232b" stroke-width="none" opacity="1"></path><path id="SvgjsPath104913" d="m144.7 96.2 1 1.3-.2-1.8c-.1-1.4-.3-2.7-.5-4.1-.1-.8-.3-1.6-.5-2.4 0-.1 0-.2-.1-.2-.1-.5-.3-.9-.5-1.4-.6-1.3-1.6-2.4-2.5-3.4-.9-1-1.9-2-3-2.9l-.8-.7-.1 1c-.4 3.9-1.5 7.8-2.3 11.6-.8 3.9-2 7.5-3.3 11.2-1.3 3.7-2.7 7.2-4.9 10.5-1.1 1.6-2.2 3.4-3.7 4.6-.6.4-1.2.8-1.9.9.8-.4 1.7-.9 2.3-1.5.9-.9 1.5-1.9 2-3.1.9-2.2.9-4.9-.2-7.1-.6-1.1-1.4-2.1-2.5-2.7-1.1-.7-2.3-1-3.5-1.1-1.2-.1-2.5.2-3.6.8-1.1.7-2 1.7-2.3 3-.2.6-.2 1.3 0 2s.6 1.2 1 1.7c1 .9 2.1 1.4 3.4 1.6l.5.1c-.1 0-.1 0-.1.1-1.1.3-2.4.4-3.7.4-1.3 0-2.5-.1-3.8-.2-1.3-.1-2.5-.3-3.8-.4-2.6 0-5.1.7-7.5 1.6-2.2-.7-4.6-1.2-6.9-1.3h-.1c-1.2-.1-2.4.2-3.6.5-1.2.3-2.3.6-3.5.7-1.2.1-2.4.1-3.4-.5s-1.7-1.6-1.9-2.7c-.1-.5 0-1.1.4-1.4.4-.3.9-.1 1.3.2.4.3.7.8.8 1.3 0 .5-.1 1.1-.4 1.5l-.4.6.7-.1c1.1-.2 1.9-1.1 2.3-2.1.2-.5.3-1 .3-1.5s0-1.1-.4-1.6c-.3-.5-.8-.8-1.2-1.1-.4-.3-.9-.5-1.4-.6-1-.3-2.1-.3-3.1.1s-1.8 1.2-2.3 2c-.5.9-.9 1.8-1 2.9-.2 2.1.8 4.1 2.2 5.5.4.4.8.8 1.2 1.1-1-.1-1.7-.8-2.7-1.2-1.7-.9-2.6-2.2-3.9-3.7-2.6-3.6-4.5-6.8-5.9-10.3-1.4-3.6-2.4-7.2-3.2-11S62 85.9 62 82v-.9l-.6.7-2.4 3c-.8 1-1.5 2.1-2.2 3.2-.7 1.1-1.1 2.5-1.3 3.7-.3 1.3-.5 2.6-.6 3.8l-.1.6.6-.2.6-.2c.2 3.1-.4 6.2-.4 9.3 0 3.3.2 6.6.5 9.9.3 3.3.7 6.6 1.2 9.8.5 3.3 1.8 6.6 2.6 9.8l.2.6.5-.5.6-.6c.2.9.5 1.8.8 2.7.2.5.4 1.1.8 1.6.3.5.7 1 1 1.4 1.4 1.8 2.9 3.6 4.4 5.4.2.3.5.5.7.8.2.4.5.9.7 1.3-.1-.3-.2-.5-.3-.8 2.3 2.8 4.7 5.5 7 8.2.2.3.4.7.7 1-.1-.1-.1-.3-.2-.4.1.1.2.3.4.4.6.7 1.3 1.4 1.9 2.2.1.2.1.3.2.5v-.3c2.3 2.7 4.7 5.3 7 7.9.1.1.2.3.2.4 0-.1 0-.1-.1-.2l2.2 2.4c.8.9 1.8 1.5 2.7 2.2 1.8 1.2 3.8 2.2 5.7 3.1 0 .1.1.1.1.2v-.2c.1.1.2.1.3.1l.2.1v-1.2l3.1 1h.1c.1 0 .1 0 .2-.1v.2-.2c1.1-.4 2.1-.9 3-1.7l-.3 1.6-.1.3.3-.1c3.4-.8 6.5-2.6 8.8-5.3 2.2-2.6 4.4-5.3 6.6-7.9l6.4-8c1.8-2.2 3.5-4.4 5.2-6.6l-.1.4-.5 1.4 1-1.1c1.2-1.3 2.4-2.6 3.6-4 .6-.7 1.1-1.4 1.6-2.2.5-.8.9-1.6 1.3-2.3.9-1.6 1.7-3.2 2.5-4.8.4-.8.8-1.6 1.1-2.4.2-.4.4-.8.5-1.3s.2-.9.3-1.4c.6-3.6.9-7.1 1.2-10.7.2-2.6.4-5.3.4-7.9l.6 1.7-.1-2.9.4-12.3zm-30.1 12.7c.2-.8.7-1.4 1.3-2 .5-.2.9-.4 1.4-.4 1.1-.1 2.2.3 3.2 1.1-.4-.9-1.2-1.5-2.2-1.7.4-.1.7-.1 1.1-.1 1.1.1 2.2.4 3.1.9.1 0 .1.1.2.1.2.3.3.6.4.8.3.9.3 1.8.1 2.7-.3 1.3-1.2 2.4-2.5 3.1.4-.5.6-1 .7-1.7.1-.7-.1-1.6-.8-2.1-.3-.3-.7-.4-1.1-.4-.4 0-.9.1-1.2.3-.7.5-1 1.2-1.1 1.9-.1.3 0 .7 0 1.1-.6-.2-1.1-.5-1.5-.9-.1-.1-.1-.2-.2-.3-.2-.6-.2-1.1.1-1.6.2-.5.7-.9 1.3-1.1.6-.2 1.2-.1 1.8.2-.4-.6-1.2-.9-1.9-.8-.8.1-1.5.6-1.8 1.3-.2.3-.2.6-.2.9-.3-.3-.3-.8-.2-1.3zm3.9 4.2c-.7-.6-.4-2.1.3-2.7.3-.3.9-.2 1.2.1.4.3.5.8.5 1.3-.1.8-.6 1.5-1.3 2l-.7-.7zm-7.6 1.9c1.3.2 2.6.3 3.8.3 1.3 0 2.6 0 3.9-.4.6-.2 1.1-.5 1.6-.9.7-.1 1.4-.4 1.9-.8.9-.6 1.5-1.6 1.8-2.6.2-1 .2-2-.2-2.9.4.4.7.9 1 1.4.3.6.5 1.2.7 1.9-.2.4-.4.7-.6 1-.5.7-1.2 1.2-1.9 1.6-1.5.8-3.2 1.1-4.9 1.6 1.8.1 3.6-.1 5.2-1 .8-.5 1.5-1.1 2-1.9.1-.2.2-.3.3-.5.1 1.2-.1 2.5-.5 3.6 0 .1-.1.2-.1.3-1.5.7-3.2 1.2-4.8 1.1-1.8 0-3.5-.5-5.1-1.4 1.3 1.3 3.2 2.1 5.1 2.1 1.7 0 3.4-.6 4.7-1.6-.4.8-.8 1.6-1.4 2.2-.8.8-1.7 1.3-2.7 1.8-1.5-.2-3-.4-4.4-.9-1.5-.4-2.9-1-4.3-1.6 1.1 1.1 2.6 1.9 4.1 2.3 1.4.4 3 .5 4.5.2-1.4.6-2.9 1.1-4.4 1.4-1.9-.2-3.8-.6-5.5-1.4-1.8-.8-3.4-2-4.8-3.5.9 1.8 2.6 3.3 4.5 4.2 1.5.7 3.2 1.1 4.8 1-.4.1-.8.2-1.2.2-1.7.3-3.4.5-5.1.6-1.1-.6-2-1.2-2.8-2-.9-.9-1.6-2-2.2-3.2 0 1.4.7 2.7 1.6 3.7.7.7 1.6 1.3 2.6 1.6-1.3.1-2.6.1-3.8.2-.7-1.1-1.3-2.2-1.8-3.4-.5-1.2-.8-2.5-1-3.8-.4 1.3-.2 2.8.3 4.1.5 1.2 1.3 2.4 2.4 3.1H100c-.8.1-1.7.2-2.5.2 1.2-.6 2.1-1.7 2.6-3s.6-2.8.1-4.1c2.2-.8 4.6-1.3 6.9-1.3 1.2.1 2.5.4 3.8.5zm7.1 6.6c0 .6 0 1.2-.1 1.9-.1 1.3-.3 2.5-.7 3.8-.6 2.4-1.9 4.7-3.5 6.7-.8 1-1.6 2-2.6 2.8l-1.5 1.2c-.5.4-1.1.5-1.7.7-2.5.6-5.1.6-7.6.6-2.6-.1-5.1-.4-7.6-1.2-1.2-.4-2.4-1-3.3-1.8-.5-.4-.8-.9-1.2-1.4-.4-.5-.8-1-1.1-1.6-2.5-3.7-4.6-7.8-5.1-12.4 2 1 4.2 1.6 6.4 1.9 3.8.5 7.7.6 11.5 0 4.6.2 9.3.1 13.9-.5 1.5-.2 2.9-.4 4.2-.7zm-17.8-5.7c-.1 1.3-.3 2.6-.7 3.8-.4 1.2-1.1 2.2-2 3.3-1.1.1-2.1.1-3.2.1-1.9 0-3.8-.2-5.7-.5-1.6-.3-3.2-.8-4.7-1.4 2.3.7 4.8.5 7.1-.3s4.5-2.4 5.8-4.6c-1.7 1.7-3.8 3-6 3.8-2.2.8-4.6 1.1-7 .9-1.3-.6-2.5-1.3-3.5-2.1.7.3 1.4.5 2.2.7.8.1 1.5.2 2.3.2 1.6 0 3.1-.3 4.6-.9 1.4-.6 2.8-1.5 3.9-2.5.6-.5 1.1-1 1.8-1.2.2-.1.4-.2.7-.2 1.3.2 2.7.6 4 1.1h.2c-.1-.1 0-.2.2-.2zm-23.4-3.3c0-.4.1-.7.2-1.1.1.9.4 1.7 1 2.4.9 1.1 2.3 1.7 3.6 1.5-1.2-.4-2.2-1.1-3-2-.6-.8-1-1.7-1.2-2.7.1-.2.2-.4.4-.7.4-.7 1.1-1.3 1.8-1.6-.6.6-.8 1.5-.5 2.2.5-1.2 1.1-2 2.1-2.5 1.2 0 2.4.6 3.2 1.4-.2-.2-.5-.3-.8-.3-.4-.1-.9.1-1.1.4.4-.1.7 0 1 .1.3.1.5.3.7.5.3.3.4.7.6 1.2-.1.8-.6 1.6-1.2 2 .1-.3.1-.7.1-1.1-.1-.7-.5-1.3-1-1.7-.5-.4-1.3-.6-2-.2-.6.5-.7 1.3-.6 1.9.1.6.4 1.2.8 1.7s.8.9 1.4 1.2c1.1.6 2.4.6 3.6.5 1.7-.2 3.2-.8 4.8-1-.5.2-.9.4-1.4.7-1.2.7-2.4 1.4-3.8 1.7-1.3.3-2.8.4-4.1.2-1.2-.2-2.3-.6-3.4-1.1-1-1.1-1.4-2.4-1.2-3.6zm1.1 3.9c.3.2.7.5 1.1.7.7.3 1.4.6 2.1.7 1.4.3 3 .3 4.4 0 1.5-.3 2.8-1.1 3.9-1.9.8-.5 1.6-1 2.5-1.3h.8c.7 0 1.4.1 2.2.2-.8.2-1.4.7-2 1.1-1.2.9-2.4 1.7-3.8 2.3-2.7 1.1-5.8 1.3-8.8.6-.5-.4-1.1-.9-1.5-1.4-.4-.3-.7-.7-.9-1zM143.6 93V96.4c-.1-.8-.3-1.5-.5-2.3-.4-1.4-.8-2.8-1.4-4.1-.6-1.3-1.2-2.6-1.9-3.8.5 1.3 1 2.7 1.4 4 .4 1.3.8 2.7 1.2 4.1.4 1.4.6 2.8.9 4.1.1.7.3 1.4.4 2.1l.1 5.3-.6-1.6.1 3c.1 1.6 0 3.3 0 4.9-.1-1.1-.2-2.1-.3-3.2-.2-1.7-.4-3.4-.8-5-.3-1.7-.7-3.3-1.2-4.9l1.2 10 .8 7.3c0 .5-.1 1-.1 1.5-.3 3.5-.6 7.1-1.2 10.6-.1.4-.2.9-.3 1.2-.1.4-.3.8-.5 1.2-.4.8-.7 1.6-1.1 2.4-.2.4-.5.9-.7 1.3.3-1.1.5-2.3.8-3.5.4-2 .6-4 .8-6.1.1-2 .2-4.1.1-6.1s-.2-4.1-.5-6.1c0 2 0 4.1-.1 6.1l-.3 6c-.1 2-.4 4-.6 6-.2 1.5-.4 3-.6 4.4-.4.9-.9 1.7-1.3 2.5s-.9 1.6-1.3 2.3c-.4.7-1 1.4-1.5 2.1-.8 1-1.6 1.9-2.5 2.9l.2-.6.5-1.5c.4-.6.7-1.2 1.1-1.8.6-1.2 1.2-2.4 1.7-3.6.5-1.2.9-2.5 1.2-3.8.3-1.3.6-2.6.6-3.9-.4 1.2-.8 2.5-1.2 3.7-.4 1.2-.9 2.5-1.3 3.7l-1.5 3.6c-.4 1-.9 1.9-1.3 2.9l-.3.4c-1.3 1.7-2.6 3.3-3.8 5 .6-1.1 1.1-2.1 1.6-3.3.6-1.4 1.1-2.9 1.4-4.5s.6-3.1.6-4.6c-.3 1.5-.7 3-1.1 4.5-.4 1.5-.9 2.9-1.5 4.3s-1.2 2.8-1.9 4.2c-.4.8-.8 1.5-1.2 2.2-.1.1-.1.2-.2.3l-6.4 8.1-.1.1c.6-1.1 1.2-2.1 1.7-3.3.7-1.5 1.3-3.1 1.8-4.8.5-1.6.8-3.3 1-5l-1.5 4.8c-.6 1.6-1.2 3.1-1.9 4.6-.7 1.5-1.5 3-2.3 4.4-.4.8-.9 1.6-1.4 2.3-1.2 1.6-2.5 3.1-3.8 4.6-1.4 1.8-3.3 3.1-5.4 4.1 1-.7 1.9-1.6 2.7-2.5.9-1 1.7-2.1 2.4-3.3.7-1.2 1.3-2.4 1.7-3.8.4-1.3.8-2.6.9-4-.4 1.3-.9 2.6-1.5 3.8l-1.8 3.6c-.7 1.2-1.4 2.3-2.2 3.4-.8 1-1.6 2-2.4 2.9-.9.4-1.8.7-2.7.9l.3-1.7c1.1-1.4 1.9-3.1 2.5-4.8.7-1.9 1.1-3.9 1.1-5.9-.6 1.9-1.1 3.8-1.8 5.6-.5 1.4-1.1 2.9-1.7 4.3l-.4.4c-.8.9-2 1.6-3.1 2 .1-1.7.1-3.4.1-5.1.1-1.9.2-3.7.3-5.6-.7 1.8-.9 3.7-1 5.6-.1 1.8.1 3.5.5 5.2h-.1l-3.3-1.1-.2-.1v1.2c-.1-.1-.2-.1-.3-.1-.4-2-.7-3.9-.8-5.9-.1-2.2 0-4.3.3-6.6-.8 2.1-1.1 4.4-1 6.6.1 2 .5 4 1.3 5.8-1.8-.9-3.6-1.9-5.3-2.9-.4-.2-.7-.5-1.1-.8-.6-1.1-1.1-2.2-1.5-3.3-.5-1.3-1-2.6-1.3-4-.3-1.4-.6-2.7-.8-4.1-.2-1.4-.2-2.8-.2-4.2-.3 1.4-.4 2.8-.3 4.3.1 1.4.3 2.9.6 4.2.4 1.4.8 2.8 1.5 4 .5 1 1 1.9 1.7 2.8-.4-.3-.8-.7-1.2-1.1L87 166c-.2-.2-.3-.4-.5-.6-.5-1.4-.9-2.8-1.3-4.3-.6-1.8-1.1-3.6-1.6-5.5 0 1.9.3 3.9.9 5.7.3 1 .7 2.1 1.2 3l-2.1-2.4c-.7-1.9-1.4-3.8-1.9-5.7-.6-2.2-.9-4.4-1.2-6.7-.3 2.3-.1 4.7.5 6.9.4 1.6 1 3.2 1.8 4.7-1.1-1.3-2.2-2.5-3.3-3.8-.2-1.4-.5-2.7-.9-4.1-.5-1.7-1-3.4-1.7-5.1.2 1.8.6 3.5 1 5.3.3 1.1.6 2.1 1 3.2-.3-.4-.7-.8-1-1.1-.5-.5-.9-1.1-1.4-1.6-.6-1.4-1.1-2.8-1.6-4.2-.8-2.1-1.4-4.2-2.1-6.3.1 2.2.7 4.4 1.4 6.5.3.9.7 1.7 1.1 2.5-.6-.8-1.3-1.5-1.9-2.2-.8-1.7-1.5-3.4-2.1-5.2-.8-2.3-1.3-4.7-1.8-7.1-.1 2.5.3 5 1.1 7.4.4 1.2.9 2.3 1.4 3.4-1-1.2-2-2.4-3.1-3.6-.3-.8-.5-1.6-.8-2.4-.5-1.6-.9-3.3-1.3-5-.4-1.7-.7-3.4-.9-5.1-.2-1.7-.4-3.4-.5-5.2-.2 1.7-.2 3.5-.1 5.2.1 1.8.4 3.5.7 5.2.4 1.7.9 3.4 1.5 5 .1.4.3.7.4 1.1l-2.4-3c-.2-1-.4-2-.5-3-.2-1.3-.4-2.6-.5-3.9-.2-1.3-.2-2.6-.3-4-.1-1.3-.1-2.7-.1-4-.3 1.3-.4 2.7-.4 4 0 1.4 0 2.7.2 4.1.2 1.3.4 2.7.7 4 .2.8.4 1.6.7 2.4-.2-.3-.4-.5-.6-.8-.3-.5-.7-.9-1-1.4-.3-.4-.5-1-.7-1.5-.4-1.1-.7-2.2-.9-3.2l-.1-.7-.2.2c.3-1.7.6-3.3.9-5 .3-2 .6-3.9.7-6-.7 1.9-1.2 3.9-1.5 5.8-.2 1.8-.4 3.5-.3 5.3l-.1.1-.6.6c-.6-2.5-1-5-1.4-7.5.1-1.7.2-3.3.2-5 .1-2.1.2-4.1.2-6.2-.6 2-.9 4.1-1 6.2v1.3c-.3-2.1-.5-4.2-.7-6.4l.7-8.2.8-8.2c-.4 1.3-.7 2.7-1 4-.3 1.4-.5 2.7-.6 4.1-.1 1.4-.2 2.8-.2 4.2 0 1.2 0 2.3.2 3.5 0-.2 0-.4-.1-.6-.3-3.3-.5-6.6-.5-9.9v-.9l1-5c.4-2.1.9-4.2 1.3-6.4-1 2-1.6 4.1-2 6.3-.1.7-.2 1.3-.3 2-.1-1.9-.2-3.8-.3-5.8.5-1.3 1.1-2.6 1.8-3.8.8-1.5 1.8-2.8 2.8-4.2-1.5.9-2.6 2.3-3.5 3.8-.6 1.1-1.1 2.3-1.3 3.6l-.4.2h-.5c.1-1.1.3-2.1.5-3.1.2-.9.4-1.7.7-2.5.4-.2.7-.5 1-.9.3-.4.6-.9.7-1.5-.2.1-.3.2-.5.2l1.5-2.1c.6-.8 1.2-1.5 1.8-2.3 0 3.6.4 7.1 1.1 10.6.7 3.8 1.8 7.6 3.2 11.2.7 1.8 1.5 3.6 2.4 5.3.9 1.7 2 3.4 3.2 4.8 1.3 1.5 2.9 2.6 4.7 3.5.9.4 1.8.7 2.8.8h.4c.8.6 1.6 1.1 2.4 1.5.1 1.9.6 3.9 1.3 5.8.9 2.4 2.2 4.7 3.6 6.9.3.5.7 1.1 1.1 1.6.4.5.8 1.1 1.3 1.5 1 .9 2.2 1.5 3.4 1.9 2.5.9 5.1 1.2 7.7 1.3 2.6.1 5.2 0 7.8-.5.6-.1 1.3-.4 1.9-.8.6-.4 1.1-.8 1.6-1.2 1-.9 1.8-1.9 2.7-2.9 1.6-2.1 2.9-4.4 3.7-6.9.3-1.3.6-2.6.7-3.9.1-.7.1-1.4.1-2.2l.9-.3c.4.1.8.2 1.2.2 1.1 0 2.2-.5 3-1.1 1.7-1.2 3-2.8 4.1-4.5 2.3-3.3 4.1-6.9 5.5-10.7 1.4-3.8 2.4-7.6 3.2-11.5.8-3.6 1.4-7.2 1.8-10.8.7.7 1.5 1.4 2.1 2.1.9 1 1.8 2 2.3 3.1.5 1.1.8 2.5 1 3.8l.3 2.1-.7-.5zm-48.4 27.9c-1.8 1.1-4 1.5-6.2 1.4 2.1.8 4.6.4 6.6-.7 2-1.2 3.4-3.2 3.8-5.4-1 2-2.4 3.6-4.2 4.7z" fill="#1b141c" stroke-width="none" opacity="1"></path></g></g></g><g id="svga-group-mustache-single-move" transform="matrix(1,0,0,1,0,0)"><g id="svga-group-mustache-single" transform="matrix(1,0,0,1,0,0)"></g></g><g id="svga-group-nose-single-move" transform="matrix(1,0,0,1,0,0)"><g id="svga-group-nose-single" transform="matrix(1,0,0,1,0,0)"><path id="SvgjsPath104133" d="M95.58 112.15c.82 0 1.4.7 1.57 1.63.17.93 1.58 2.48 3.09 2.57 1.51.09 2.04-.47 2.22-1.4.17-.93.64-2.62 1.11-2.68.47-.06.93.12 1.17.76.23.64.7 2.04 1.34 2.22.64.17 1.81-.7 2.27-1.17.47-.47 1.52-2.74 1.57-4.14.06-1.4-.87-4.02-1.92-4.78s-2.51-2.1-2.86-2.51c-.35-.41-.58-2.1-.76-3.09s-.99-2.16-2.86-2.57c-1.87-.41-5.48.06-5.83 1.63-.35 1.57-.23 5.77-.58 6.24s-1.98 2.27-2.8 3.21c-.82.93-1.98 3.03-1.69 5.13.29 2.1 1.05 2.74 2.04 2.33.99-.41 1.75-2.1 1.98-2.62.24-.53.94-.76.94-.76z" fill="#f0c7b1" stroke-width="none" opacity="1" stroke="none"></path><path id="SvgjsPath104134" d="M97.05 83.93c-.2 3.57-.46 7.14-.71 10.71l-.43 5.36-.24 2.68-.13 1.34-.08.68-.08.4c-.03.07-.08.15-.12.22-.05.08-.08.11-.12.16-.61.74-1.22 1.34-1.78 2.03-.56.67-1.09 1.37-1.52 2.11-.43.74-.76 1.53-.86 2.33-.02.2-.05.4-.02.6.01.2.01.39.07.6.07.42.19.81.35 1.17.17.35.4.64.64.73.22.11.51.02.79-.19s.52-.53.71-.89c.11-.17.18-.37.27-.55.11-.22.19-.45.33-.66.25-.42.6-.91 1.28-1.1.33-.07.71-.03.98.13.28.15.5.35.67.56.34.43.54.92.65 1.41l.02.09.02.06.04.11c.01.08.07.15.11.23.09.15.19.29.33.42.52.53 1.31.91 2.07 1.01.38.05.76.02 1.01-.11.07-.03.1-.08.16-.11.05-.06.12-.12.17-.2.11-.15.21-.31.29-.5.18-.36.32-.77.47-1.2.16-.43.28-.88.69-1.36.22-.25.63-.45 1.03-.37.42.08.68.38.82.6.3.47.43.9.6 1.31.15.4.33.82.52 1 .1.07.08.08.26.07.16-.03.34-.07.52-.14.72-.29 1.34-.88 1.77-1.57.45-.69.68-1.51.77-2.34.1-.84.06-1.71-.12-2.53-.18-.83-.52-1.62-.99-2.32-.47-.71-1.1-1.31-1.77-1.86-.34-.27-.7-.52-1.07-.79-.09-.06-.19-.14-.28-.21l-.07-.06c-.03-.03-.06-.07-.09-.1-.07-.08-.09-.13-.12-.19-.12-.24-.18-.46-.25-.68-.24-.89-.4-1.77-.54-2.66-.27-1.78-.48-3.55-.68-5.33-.2-1.78-.36-3.56-.5-5.35.51 3.54.98 7.09 1.67 10.59.17.87.35 1.75.6 2.58.07.2.14.41.22.57.02.04.04.08.06.09.01.01.01.02.02.03l.06.05c.08.06.17.12.26.19.36.25.75.5 1.11.77.73.55 1.42 1.19 1.97 1.96.55.76.95 1.64 1.17 2.55.23.92.3 1.86.21 2.8-.09.94-.35 1.89-.88 2.72-.51.83-1.24 1.54-2.18 1.94a3 3 0 0 1-.77.21c-.16 0-.29.03-.5-.04a.682.682 0 0 1-.26-.11c-.08-.05-.16-.1-.21-.16-.45-.46-.58-.91-.76-1.33-.17-.41-.32-.84-.51-1.12-.1-.16-.19-.2-.21-.2-.04 0-.08 0-.17.08-.18.21-.34.63-.48 1.04-.14.42-.29.86-.5 1.3-.1.22-.23.44-.38.66-.08.11-.17.21-.27.31-.12.1-.24.21-.38.28-.55.29-1.1.29-1.6.24a4.683 4.683 0 0 1-2.68-1.28c-.18-.18-.35-.4-.48-.64-.06-.13-.14-.24-.17-.38l-.06-.21-.05-.17c-.08-.37-.24-.74-.45-1.01-.22-.29-.47-.4-.65-.36-.21.04-.48.3-.67.64-.11.16-.18.35-.27.53-.11.22-.19.44-.32.65-.24.43-.54.84-.98 1.17-.21.17-.47.3-.77.38-.15.03-.32.04-.47.04-.16-.03-.33-.04-.47-.12-.6-.26-.9-.76-1.12-1.21-.2-.46-.33-.93-.41-1.4-.05-.23-.06-.48-.08-.73-.03-.25.01-.5.04-.74.13-.98.53-1.86 1-2.66.48-.8 1.04-1.53 1.64-2.22.59-.68 1.26-1.33 1.81-1.96.08-.09.1-.13.13-.17.01-.09.03-.17.05-.25l.09-.65.17-1.33.3-2.66.57-5.33 1.17-10.68z" fill="#c27b55" stroke-width="none" opacity="1" stroke="none"></path></g></g><g id="svga-group-hair-front" transform="matrix(1,0,0,1,0,0)"></g><g id="svga-group-glasses-single-move" transform="matrix(1,0,0,1,0,1)"><g id="svga-group-glasses-single" transform="matrix(0.9499997000000001,0,0,0.9499997000000001,4.995030237030406,4.405026544441597)"><path id="SvgjsPath104578" d="M63.6 78.8c-1.9 3.4-1.8 10.5 1.9 16.8s14.1 6.7 20.4 3.6c6.3-3.1 8.8-9.2 9.1-13.8s-3.5-7.2-5.6-7.9c-2.1-.8-13.8-2.4-19.2-1.6-5.4.8-6.6 2.9-6.6 2.9z" fill="url(#SvgjsLinearGradient104579)" opacity="1"></path><path id="SvgjsPath104582" d="M136.2 78.8c1.9 3.4 1.8 10.5-1.9 16.8s-14.1 6.7-20.4 3.6c-6.3-3.1-8.8-9.2-9.1-13.8s3.5-7.2 5.6-7.9c2.1-.8 13.8-2.4 19.2-1.6 5.4.8 6.6 2.9 6.6 2.9z" fill="url(#SvgjsLinearGradient104583)" opacity="1"></path><path id="SvgjsPath104586" d="M122.3 102.3c-5 0-9.8-1.6-13-4.5-5-4.4-5.9-9.7-6.4-12.2-.1-.6-.2-1.1-.3-1.4-.6-1.7-1.3-2.5-2.1-2.5h-1.4c-.8 0-1.5.8-2.1 2.5-.1.3-.2.8-.3 1.4-.4 2.6-1.4 7.8-6.4 12.2-3.2 2.8-8 4.5-13 4.5-3.3 0-6.4-.7-8.6-2-5.8-3.3-7.3-10.5-7.7-13.4-.5-3.7-1.9-4.4-2.4-4.5V76c.4 0 1.6-.1 2.7-.3.1 0 6.8-1.6 13.3-1.6 1.1 0 2.1.1 3 .1 6.1.6 11.1 1.8 14.7 2.6l.8.2c2.5.6 4.3.7 5.1.7h3.2c.8 0 2.6-.1 5.1-.7l.8-.2c3.6-.8 8.6-2 14.7-2.6.9-.1 1.9-.1 3-.1 6.5 0 13.2 1.6 13.3 1.7 1.1.3 2.3.3 2.7.3v6.4c-.4.1-1.9.8-2.4 4.5-.4 2.9-1.9 10.1-7.7 13.4-2.1 1.2-5.3 1.9-8.6 1.9zm2.7-25.8c-.9 0-1.7 0-2.6.1-1.5.1-7.8.5-11.1 1.6-3.2 1.1-5.4 3.3-5.6 5.7-.3 2.8.6 6.2 2.4 9.3 1.9 3.2 4.4 5.3 7.7 6.3 2 .6 3.9.9 6 .9 1.7 0 3.5-.2 5.5-.6 3.6-.7 6.2-3.3 7.9-7.8 1.4-3.9 1.7-9.9-.4-12.6-1.5-2-4.7-2.9-9.8-2.9zm-50.2 0c-5.1 0-8.3.9-9.8 2.8-2.1 2.7-1.9 8.7-.4 12.6 1.6 4.5 4.3 7.1 7.8 7.8 2 .4 3.8.6 5.5.6 2.1 0 4-.3 6-.9 3.3-1 5.8-3 7.7-6.3 1.8-3.1 2.7-6.5 2.4-9.3-.2-2.4-2.4-4.6-5.6-5.7-3.2-1.1-9.5-1.6-11.1-1.6h-2.5z" fill="#26120b" stroke-width="none" opacity="1"></path><path id="SvgjsPath104587" d="M88.4 78.1c-3.2-1.1-9.6-1.6-11.1-1.6-.9 0-1.8-.1-2.6-.1-5.2 0-8.4.9-9.9 2.8-2.2 2.8-1.9 8.8-.5 12.7 1.7 4.5 4.3 7.2 8 7.9 2 .4 3.8.6 5.6.6 2.1 0 4-.3 6-.9 3.3-1 5.8-3.1 7.8-6.3 1.8-3.1 2.7-6.6 2.4-9.4-.2-2.4-2.4-4.6-5.7-5.7zm3.1 15c-2 3.3-4.5 5.3-7.6 6.2-1.8.5-3.7.9-5.9.9-1.6 0-3.4-.2-5.5-.6-4.1-.8-6.4-4-7.8-7.7-1.4-3.8-1.7-9.7.4-12.5 1.7-2.2 5.8-2.7 9.7-2.7.9 0 1.7 0 2.6.1 2.1.1 8 .6 11 1.6s5.3 3.1 5.6 5.6c.1 2.3-.6 5.7-2.5 9.1zM125 76.3c-.8 0-1.6 0-2.6.1-1.5.1-7.8.5-11.1 1.6s-5.5 3.3-5.7 5.8c-.3 2.8.6 6.3 2.4 9.4 1.9 3.3 4.5 5.3 7.8 6.3 2 .6 3.9.9 6 .9 1.7 0 3.5-.2 5.6-.6 3.6-.7 6.3-3.4 8-7.9 1.4-4 1.7-10-.5-12.7-1.5-1.9-4.8-2.9-9.9-2.9zm10.1 15.5c-1.4 3.8-3.7 6.9-7.8 7.7-2.1.4-3.9.6-5.5.6-2.2 0-4.1-.3-5.9-.9-3.2-.9-5.7-2.9-7.6-6.2s-2.7-6.7-2.4-9.2c.3-2.5 2.6-4.5 5.6-5.6 3-1 9-1.5 11-1.6.8 0 1.7-.1 2.6-.1 3.9 0 7.9.5 9.7 2.7 2 2.9 1.6 8.8.3 12.6zm3.3-16.3c-1.1-.3-7.4-1.7-13.3-1.7-1 0-2.1 0-3 .1-6.6.7-11.8 1.9-15.5 2.8-2.5.6-4.2.7-5.1.7h-3.2c-.9 0-2.6-.1-5.1-.7-3.7-.9-8.9-2.2-15.5-2.8-1-.1-2-.1-3-.1-5.9 0-12.2 1.4-13.3 1.7-1.3.3-2.8.3-2.8.3v6.6s1.8.2 2.4 4.4c.5 4.2 2.5 10.5 7.8 13.6 2.2 1.3 5.4 2 8.7 2 4.6 0 9.5-1.4 13.1-4.5 6.2-5.4 6.2-12.1 6.7-13.7.5-1.5 1.2-2.4 1.9-2.4h1.4c.8 0 1.4.9 1.9 2.4s.5 8.2 6.7 13.7c3.6 3.1 8.5 4.5 13.1 4.5 3.3 0 6.4-.7 8.7-2 5.3-3 7.3-9.3 7.8-13.6s2.4-4.4 2.4-4.4v-6.6s-1.5 0-2.8-.3zm2.5 6.7c-.6.2-1.9 1.1-2.4 4.6-.4 2.9-1.9 10-7.7 13.3-2.2 1.2-5.3 2-8.6 2-5 0-9.7-1.6-12.9-4.4-5-4.3-5.9-9.6-6.3-12.2-.1-.6-.2-1.1-.3-1.4-.6-1.7-1.3-2.6-2.2-2.6h-1.4c-.9 0-1.6.8-2.2 2.6-.1.3-.2.8-.3 1.4-.4 2.5-1.4 7.8-6.3 12.2-3.2 2.8-7.9 4.4-12.9 4.4-3.2 0-6.4-.7-8.6-2-5.8-3.3-7.3-10.4-7.7-13.3-.5-3.5-1.8-4.4-2.4-4.6v-6.1c.5 0 1.6-.1 2.6-.3.1 0 6.8-1.7 13.3-1.7 1.1 0 2.1.1 3 .1 6.1.6 11.1 1.8 14.7 2.6l.8.2c2.5.6 4.3.7 5.1.7h3.2c.8 0 2.6-.1 5.1-.7l.8-.2c3.6-.8 8.5-2 14.7-2.6.9-.1 1.9-.1 3-.1 6.5 0 13.2 1.6 13.3 1.7 1 .2 2.1.3 2.6.3v6.1z" fill="#070201" stroke-width="none" opacity="1"></path></g></g></g></g></g><rect id="svga-credit-rect" width="200" height="15" x="0" y="185" fill="#ecf0f1" opacity="0.5" style="display: none;"></rect><text id="svga-credit-text" font-family="Avenir Next, Roboto, Helvetica, Arial, sans-serif" font-size="10px" text-anchor="start" font-weight="400" size="10px" anchor="start" weight="400" fill="#333333" x="33.40447998046875" y="182.60824704170227" style="display: none;"><tspan id="SvgjsTspan103660" dy="13" x="33.40447998046875">Created on AvatarMaker.com</tspan></text></g></svg>