<svg xmlns="http://www.w3.org/2000/svg" version="1.1" width="600px" height="600px" viewBox="0 0 200 200" style="overflow:hidden!important;"><defs id="SvgjsDefs109994"></defs><g id="svga-group-wrapper"><g id="svga-group-backs-single"></g><g id="svga-group-humanwrap-move" transform="matrix(1,0,0,1,0,0)"><g id="svga-group-humanwrap" transform="matrix(1,0,0,1,0,0)"><g id="svga-group-hair-back-move" transform="matrix(1,0,0,1,0,0)"><g id="svga-group-hair-back" transform="matrix(1,0,0,1,0,0)"><path id="SvgjsPath110755" d="M123.87 27.61s-5.46-6.83-19.8-8.88-37.79 5.92-44.84 16.84-7.97 31.41-7.51 39.38 2.28 37.1 3.19 41.2c.91 4.1 10.93 10.24 36.42 10.02s45.3-3.87 49.85-6.15 4.55-16.39 4.32-25.04c-.23-8.65-1.14-34.83-2.05-42.11s-3.19-23.44-19.58-25.26z" fill="#a46c47" stroke-width="none" opacity="1" stroke="none"></path><path id="SvgjsPath110756" d="M123.82 27.69c-2.56-2.62-5.74-4.35-9.04-5.73-3.33-1.31-6.83-2.15-10.37-2.65-3.52-.48-7.11-.35-10.65.1-3.54.46-7.04 1.22-10.46 2.26-6.81 2.06-13.49 5.05-18.9 9.57-5.54 4.4-8 11.43-9.65 18.32-1.63 6.96-2.42 14.15-2.57 21.33-.08 3.58.21 7.19.35 10.8l.64 10.82c.45 7.21.94 14.43 1.77 21.58.06.44.1.9.19 1.33l.11.65.21.58c.35.75.89 1.43 1.55 2 1.31 1.14 2.86 2.05 4.51 2.73 3.26 1.43 6.78 2.24 10.3 2.86 3.54.57 7.12.87 10.71 1.07 3.59.12 7.18.15 10.78.05 7.2-.18 14.4-.61 21.56-1.34 3.58-.36 7.15-.81 10.7-1.36 3.55-.55 7.09-1.19 10.53-2.06.87-.21 1.71-.47 2.54-.72.8-.27 1.69-.58 2.25-.91 1.07-.69 1.79-2.37 2.24-3.97.92-3.32 1.18-6.92 1.33-10.48.25-7.14-.18-14.38-.32-21.6-.21-7.22-.44-14.44-.81-21.64-.21-3.61-.36-7.18-.87-10.74-.47-3.54-1.25-7.05-2.61-10.33-1.39-3.25-3.4-6.28-6.18-8.52-2.76-2.26-6.22-3.48-9.84-4zm.1-.17c3.53.33 7.19 1.45 10.14 3.66 2.97 2.19 5.2 5.27 6.72 8.61 1.5 3.36 2.39 6.95 2.98 10.54.61 3.59.88 7.24 1.13 10.84.49 7.22.84 14.44 1.17 21.66.17 3.61.3 7.22.4 10.84.11 3.62.18 7.25.06 10.9-.15 3.65-.38 7.31-1.37 10.98-.26.91-.58 1.83-1.04 2.73-.47.88-1.07 1.81-2.08 2.46-1 .58-1.85.82-2.75 1.13-.89.26-1.78.53-2.68.73-3.57.86-7.15 1.48-10.75 2-3.6.52-7.2.94-10.81 1.27-7.22.69-14.47.99-21.71 1.06-3.62.05-7.26-.05-10.89-.27-3.62-.28-7.24-.68-10.82-1.35-3.57-.71-7.13-1.6-10.46-3.15-1.67-.74-3.27-1.71-4.66-2.96-.7-.62-1.3-1.38-1.71-2.27l-.24-.7-.12-.68c-.09-.46-.12-.91-.18-1.36-.42-3.61-.67-7.21-.95-10.81l-.82-10.81-.77-10.81c-.24-3.6-.62-7.2-.65-10.85-.04-7.26.54-14.54 2.07-21.69.8-3.56 1.85-7.1 3.4-10.46l.59-1.26c.21-.42.46-.81.68-1.22l.7-1.21.85-1.14c.29-.37.54-.78.87-1.11l.98-1.01c.63-.7 1.35-1.29 2.06-1.88 5.76-4.7 12.61-7.65 19.6-9.7 3.5-1.05 7.11-1.72 10.74-2.09 3.63-.37 7.33-.42 10.96.17 3.6.58 7.14 1.6 10.48 3.06 1.66.76 3.27 1.62 4.79 2.63 1.49.98 2.97 2.17 4.09 3.52z" fill="#955932" stroke-width="none" opacity="1" stroke="none"></path></g></g><g id="svga-group-humanbody-back"><path id="SvgjsPath110393" d="M180.8 184.9c-2.3-3.4-38.9-17.8-38.9-17.8l-13.4-5.2-5.6-68.8H76.8L71.3 162l-13.4 5.2S21.4 181.6 19 185c-2.3 3.4-3.3 14.9-3.3 14.9V219h168.5v-19.2c-.1.1-1-11.5-3.4-14.9z" fill="#ffe0cb" stroke-width="none" opacity="1" stroke="none"></path></g><g id="svga-group-chinshadow-single"><path id="SvgjsPath110632" d="M86.28 166.6c3.1.6 16.12.6 19.22 0 3.2-.5 12.2-9.4 20.1-16.7.6-.57 1.21-1.17 1.82-1.79l-4.48-55.01H76.82l-5.15 64.72c5.98 4.49 12.61 8.4 14.61 8.78z" fill="#e0aa86" stroke-width="none" opacity="1" stroke="none"></path></g><g id="svga-group-humanbody-front"><path id="SvgjsPath110394" d="M184.5 219c-.1-6.4-.1-12.8-.1-19.2l-.3-.1s.1-.1.2 0c.1 0 .1.1.1.1v-.4l-.1-.5-.1-.9-.2-1.9c-.2-1.3-.4-2.5-.6-3.8-.2-1.3-.5-2.5-.9-3.8-.4-1.2-.8-2.5-1.5-3.6-.8-.9-1.9-1.5-2.9-2.1-1-.6-2.1-1.1-3.2-1.7-2.1-1.1-4.3-2.1-6.5-3.1-4.4-2-8.7-3.9-13.1-5.7-4.4-1.9-8.8-3.7-13.2-5.5l-13-5.2-1.2-16.9c-.4-5.7-.9-11.5-1.3-17.2l-1.3-17.2-1.5-17.3-.1-.8h-.8c-7.7 0-15.4.1-23.1.1l-23.1.2h-.5v.5L75 110.2l-1.3 17.2c-.8 11.4-1.8 22.8-2.8 34.2-5.6 2.1-11.2 4.2-16.7 6.4-5.6 2.2-11.2 4.5-16.8 6.9-2.8 1.2-5.6 2.4-8.3 3.6-2.8 1.3-5.5 2.5-8.2 4.1-.7.4-1.3.8-2 1.4-.2.1-.4.4-.5.6l-.3.6c-.2.4-.4.7-.5 1.1-.6 1.5-1 3-1.3 4.5-.6 3-1.1 6-1.4 9.1l-.1 19.1v.9h.9l42.1.1H100c14 0 28.1-.1 42.1-.2l42.1-.5h.3v-.3zm-84.5-1-42.1-.1-41.2.1-.1-18.1c.3-3 .6-5.9 1.2-8.9.3-1.4.6-2.9 1.1-4.2.1-.3.3-.7.4-.9l.2-.4.3-.3c.5-.4 1.1-.8 1.8-1.2 2.5-1.5 5.3-2.8 8-4.1 2.7-1.3 5.5-2.5 8.2-3.7 5.5-2.4 11.1-4.8 16.7-7.1s11.2-4.5 16.9-6.7l.2-.1v-.2c.9-11.5 1.7-23 2.7-34.4l1.4-17.2 1.5-16.7 22.6.2c7.4.1 14.8.1 22.3.1l1.3 16.4 1.5 17.2c.5 5.7 1 11.5 1.5 17.2l1.6 17.2v.3l.3.1 13.4 5c4.4 1.7 8.9 3.4 13.3 5.2 4.4 1.8 8.8 3.7 13.2 5.6 2.2 1 4.3 2 6.5 3 1.1.5 2.1 1.1 3.2 1.6 1 .6 2.1 1.2 2.9 2 .7 1.1 1.1 2.3 1.4 3.5.3 1.2.6 2.5.8 3.7.2 1.3.4 2.5.6 3.8l.2 1.9.1.9.1.5v.4c0 6.3 0 12.6-.1 18.9l-41.8-.5c-14 .1-28.1 0-42.1 0z" fill="#d19268" stroke-width="none" opacity="1" stroke="none"></path><path id="SvgjsPath110395" d="M125.1 142.4s-1.8 23-9.1 32.9c0 0 7.9-25 9.1-32.9zm-34.5 16s5 7.9 11.5 10.1c0 0-9.5 2.2-11.5-10.1zM73.4 140c6.7 25.6 6.7 25.6 8.5 30.7 0 0 .4-12.6-8.5-30.7z" fill="#e0aa86" stroke-width="none" opacity="1" stroke="none"></path></g><g id="svga-group-clothes-single"><path id="SvgjsPath110967" d="m69.9 150.1-1.8.9s-1.4 2.9-2.4 5.1c-1 2.2-4.7 5.9-4.7 5.9s-.6 2.2-.6 2.9c0 0-12.3 4.2-15.9 5.6-3.6 1.4-19.2 6.3-21.3 6.4s-5.1 1.8-5.1 1.8-3 1.7-3.9 4.5c-1 2.8-2.6 34.4-2.6 36.8h175.9s-1.8-32.4-3.5-34.9c-.6-.9-.2-2.6-5.9-5.1s-17-7-20.8-8.5-19.3-7.2-19.3-7.2-.2-2.3-2.3-3.4c-2.1-1.1-5.3-9.8-5.3-9.8l-1.3-1.3s.4 5.1.2 9.6-4.7 11.7-7.9 13.8c-3.2 2.1-9 5.7-11.3 6.6s-2.8 3.4-3.8 5.9-2.6 5.9-2.6 5.9-3.6-4.5-5.3-7.6c-1.7-3.2-4-5.5-8.3-5.1-4.2.4-5.5-.9-7-1.7-1.5-.9-10.6-15.1-11.9-18.7-1.1-3.6-1.3-8.4-1.3-8.4z" fill="#64843e" stroke-width="none" opacity="1" stroke="none"></path><path id="SvgjsPath110968" d="M188.3 220c-.4-6.9-.8-13.8-1.3-20.7-.3-3.5-.6-6.9-1.1-10.4-.1-.9-.3-1.7-.5-2.6-.1-.5-.2-.9-.5-1.5l-.1-.2-.1-.2-.3-.6c-.5-1-1.2-1.7-1.9-2.3-.8-.6-1.5-1-2.3-1.5-1.6-.9-3.2-1.4-4.8-2.1l-4.8-2-9.6-4c-6.2-2.5-15.8-5.4-21.9-8.3-.1-.6-.4-1.1-.7-1.6-.4-.7-1-1.3-1.7-1.7l-.3-.1c-.1-.1-.2-.1-.2-.1-.1-.1-.1-.1-.2-.1-.2-.2-.3-.3-.5-.6-.4-.4-.7-1-1-1.5-1.2-2.2-2.2-4.6-3.1-6.9l-.1-.2-.1-.1-1.3-1.3-1.9-1.9.2 2.8c.2 2.3.3 4.6.3 6.9v2.6l-.1.8c-.2 1-.5 2.1-.9 3.1-.8 2.1-2 4.1-3.3 5.9-.7.9-1.4 1.8-2.2 2.5-.4.4-.8.7-1.2 1-.4.3-.9.6-1.4.8-4.1 2.1-4.9 3.8-9.2 5.5-.6.2-1.3.6-1.8 1.1-.5.5-.9 1.1-1.2 1.6-.6 1.1-.9 2.3-1.3 3.3l-.9 2.1c-.5 1-.9 2-1.4 3-1.2-1.6-2.5-3.2-3.6-4.9-.3-.5-.6-1-.9-1.6-.3-.6-.7-1.1-1.1-1.7-.8-1.1-1.8-2.1-3-2.7-1.2-.7-2.6-.9-4-.9-.5.1-3.5.1-7.7-1.7-.5-.2-1.5-1.9-2.3-2.9-.7-1-1.5-2.1-2.2-3.1-1.4-2.1-2.8-4.2-4.1-6.4-.7-1.1-1.3-2.2-1.9-3.3-.6-1.1-1.1-2.1-1.4-3.4.1-1.6.4-4.6.5-5.7 0 0 .1-2.2.1-2.4-1.2-.1-3.2 1.1-3.9 1.4l-1.5 3c-.5 1-.9 2-1.5 2.9-.6.9-1.3 1.8-2 2.6s-1.5 1.6-2.3 2.4l-.1.1v.1c-.1.5-.2 1-.4 1.4-.1.4-.2.8-.2 1.3-3.2 1.4-9.4 2.7-12.6 4.1-3.2 1.4-6.6 2.4-10 3.5-3.4 1-6.8 2.1-10.1 3-.9.2-1.7.5-2.5.7l-1.2.3c-.2 0-.3.1-.6.1-.2 0-.5.1-.7.1-.9.2-1.8.5-2.7.8l-1.2.6-.6.3c-.3.1-.4.3-.6.4-1.5 1.1-2.9 2.5-3.6 4.4-.2.5-.3 1-.3 1.4l-.2 1.3-.3 2.7c-.3 3.5-.6 7.1-.8 10.6l-.7 10.6c-.2 3.6-.4 7-.5 10.6v.9h.9l22-.1 22-.2 22-.2 22-.1c7.3-.1 14.7 0 22 0s14.7 0 22 .1l44 .3h.8l-.3-1.2zm-68.2-44.9c.5-.3 1.1-.6 1.6-.9.5-.3 1.1-.7 1.5-1.2.9-.9 1.7-1.8 2.4-2.8 1.4-1.9 2.6-4 3.6-6.3.4-1.1.8-2.3 1-3.6l.1-1v-2.7c0-1 0-2-.1-3 .7 1.7 1.4 3.3 2.3 4.9.3.6.7 1.2 1.1 1.8.2.3.5.6.8.9.1.1.4.3.6.4l.4.2c.4.3.7.6 1 1 .2.4.4 1 .5 1.4l.1.6v.1c.5 2.7 1.1 5.3 1.7 8 .6 2.6 1.4 5.3 2.2 7.9l2.3 7.8 1.1 3.9c.2.8.5 1.7.7 2.5-1.4-.3-2.7-.7-3.9-1.4-.8-.5-1.4-1-2.3-1.7-.8-.6-1.6-1.3-2.5-1.8-1.7-1.2-3.5-2.2-5.4-3l-1.4-.6c-.4-.2-.9-.4-1.3-.6-.8-.5-1.6-1-2.4-1.6-.8-.6-1.5-1.2-2.2-1.9-.3-.4-.7-.7-.9-1.1-.2-.2-.3-.4-.4-.6l-.2-.3-.3-.4c-1.5-1.7-3.6-2.5-5.6-2.8-.3-.1-.7-.1-1-.1 1.8-.6 3.4-1.3 4.9-2zm-12.8 10.4c.9-2.2.5-4.6 6.9-7.5.9-.1 1.4 0 2.3.2 1.8.4 3.5 1.3 4.5 2.7l.2.2.2.3c.1.1.2.3.3.4 0 0-1.8 1.6-5.9 3.2-1.7.5-3.3.9-5 1.4-1.5.3-2.9.7-4.4.9l.9-1.8zm-4.5 6.1c-1.2 1.9-2.5 3.9-4 5.6l-.4.4c-1.7-3.4-5.1-8.9-6.2-10.7.5.1.9.1 1.4.1 1.9.1 3.8.1 5.7-.1 1.2 1.6 2.3 3.2 3.5 4.7zM91 179.5c1.2 0 2.3.2 3.3.8 1 .6 1.8 1.4 2.5 2.4.3.5.7 1 .9 1.6.3.6.6 1.1 1 1.7l.6.9c-1.9-.1-3.8-.3-5.6-.6-2-.3-4-.6-6-1s-6.6-2.2-8.4-2.7c.5-.6 1-1.1 1.5-1.7.6-.8 1.1-1.4 1.8-1.7.7-.3 1.6-.3 2.4-.3.1 0 5.4.6 6 .6zm-29.6-17.3c.8-.8 1.5-1.6 2.2-2.4.7-.9 1.4-1.7 2-2.7.6-1 .9-2 1.4-3l1.3-3c.5-.3 1-.6 1.6-.9v.8l.1.9c.1.6.1 1.3.2 1.9.2 1.3.4 2.5.7 3.8.3 1.2.9 2.4 1.5 3.6.6 1.1 1.2 2.2 1.8 3.4 1.3 2.2 2.6 4.4 3.9 6.5.7 1.1 1.4 2.1 2.1 3.2.8 1.1 1.4 2.1 2.4 3.1.3.3.6.5.9.6 0 0 .1 0 .1.1-.5 0-.9.1-1.4.2-.5.2-.9.5-1.3.8-.4.4-.6.7-.9 1l-1.9 1.9c-1.3 1.3-2.6 2.5-3.9 3.7-1.3 1.2-2.7 2.4-4 3.6-1.3 1.1-2.8 2.1-4.3 3.1-2.5 1.6-5.1 3.1-7.7 4.5.5-5.5 1-11 1.4-16.5l.7-9.1c.2-2 .3-3.9.5-5.9l.2-.1v-.2c0-.4.1-.9.2-1.4 0-.6.1-1.1.2-1.5zm-5.8 57.2-22-.2-21.1-.1c.3-6.7.6-13.5 1-20.2.2-3.5.4-7.1.8-10.6.1-.9.2-1.8.3-2.6l.2-1.3c0-.2.1-.4.1-.6.1-.2.1-.4.1-.6.5-1.4 1.7-2.7 3.1-3.6.2-.1.4-.2.5-.3l.6-.3c.4-.2.8-.4 1.2-.5.8-.3 1.6-.6 2.4-.8.2 0 .4-.1.6-.1l.7-.1c.5-.1.9-.2 1.3-.3.9-.2 1.7-.5 2.6-.7 3.4-1 6.8-2.1 10.1-3.2s6.8-2.2 10-3.7c3.1-1.4 9.2-2.8 12.3-4.2-.3 1.9-.6 3.7-.9 5.6-.5 3-1 6.1-1.3 9.1-.8 6.1-1.4 12.2-2.1 18.3l-.2 1.8 1.6-.8c3.3-1.6 6.4-3.4 9.5-5.4 1.5-1 3-2.1 4.4-3.4 1.3-1.2 2.7-2.5 3.9-3.8 1.3-1.3 2.6-2.6 3.8-3.9l.3-.3c3.6 1.7 4.4 2.8 8.2 3.6 1.2.2 2.4.4 3.5.6l-.1.1c.1.1 4.8 7.7 6.7 11.6-.1.1-.2.2-.2.4-.4.7-.6 1.5-.7 2.2-.1 1.4.1 2.7.2 3.9l.5 3.7.4 3.7c.2 2.4.5 4.9.9 7.3l-21.2-.1-22-.2zm43.3.3c.2-2.5.2-4.9.2-7.4.1-2.5 0-5.1-.3-7.6-.1-1.2-.2-2.5-.1-3.6.1-.5.2-1 .4-1.4.1-.2.3-.4.4-.6l.3-.3.4-.4c.9-1 1.7-2.1 2.4-3.1.7-1.1 1.3-2.2 2-3.3v-.1l.9-2.4.9-2c1.5.1 3.1-.1 4.6-.3.8-.1 1.5-.3 2.2-.4-1.5 2.6-6.5 11.1-7.8 12.9-1.3 1.8-1.1 3.3-.9 5 0 .4.1.8.1 1.3.1 2.1.8 11.5 1 13.6h-6.1l-.6.1zm22.7 0h-14.9c-.2-2-.9-11.6-1-13.7 0-.5-.1-.9-.1-1.3-.2-1.7-.3-2.9.8-4.4 1.5-2.1 6.3-10.5 6.6-10.9l1.6-2.8c1-.4 1.8-.8 3.4-1.5 2.2-1.2 2.8-1.8 3.9-3 0 .1.1.1.1.1.3.4.7.8 1 1.2.7.8 1.4 1.5 2.2 2.2.8.7 1.6 1.3 2.6 1.8.4.3.9.5 1.4.7l1.4.6c1.8.8 3.4 1.8 5 2.9.8.6 1.6 1.1 2.3 1.8.7.6 1.6 1.4 2.5 1.9 1.9 1.1 3.9 1.7 6.1 1.9l1.3.1-.3-1.3c-.3-1.4-.7-2.7-1.1-4l-1.2-3.9-2.5-7.8c-.8-2.6-1.7-5.1-2.5-7.7-.7-2.4-1.4-4.8-2-7.1 2.9 1.4 9.4 2.8 12.3 4.1 1.6.7 3.1 1.4 4.8 2.1l4.8 2 9.6 3.9 4.8 1.9c1.6.7 3.2 1.2 4.7 2 1.4.8 2.9 1.7 3.5 2.9.1.2.1.3.2.6 0 .1.1.2.2.4.1.1.2.3.2.3.1.1.2.6.3 1 .2.8.3 1.6.5 2.5.5 3.4.8 6.8 1.1 10.2.6 6.6 1.1 13.2 1.5 19.9l-43.2.3c-7.2 0-14.6 0-21.9.1zm-9.9-37.7c.8 0 1.5.7 1.5 1.5s-.7 1.5-1.5 1.5-1.5-.7-1.5-1.5.7-1.5 1.5-1.5zm-10.1 18.4c.8 0 1.5.7 1.5 1.5s-.7 1.5-1.5 1.5-1.5-.7-1.5-1.5.7-1.5 1.5-1.5zm-73.8-4.5c-.2-1.2-.5-2.6-.9-3.8-.4-1.2-.9-2.4-1.3-3.6-1-2.3-2-4.6-3.1-6.9l1.2 3.6 1.2 3.6 1.2 3.6c.4 1.2.6 2.4.8 3.6.4 2.5.6 5 .9 7.5l.4 3.8c.2 1.2.3 2.5.5 3.8 0-2.5 0-5.1-.2-7.6-.2-2.6-.4-5.1-.7-7.6zm150.5-9.2c-.5.6-.9 1.3-1.3 1.9-.8 1.3-1.5 2.7-2.2 4.1-1.4 2.8-2.6 5.7-3.6 8.6v.2c-.2 2.5-.3 5-.4 7.6-.1 2.5-.2 5-.2 7.6.4-2.5.7-5 .9-7.5.3-2.5.5-5 .7-7.5 1.1-2.9 2.2-5.7 3.4-8.6.6-1.4 1.2-2.8 1.9-4.2.7-1.4 1.4-2.8 2.5-3.8-.6.4-1.2 1-1.7 1.6z" fill="#44651b" stroke-width="none" opacity="1" stroke="none"></path><path id="SvgjsPath110969" d="M135.7 164.5c-.1 4.2.8 8.5 1.7 12.6.3 1.3 4.5 13.8 4.4 13.8 0 0-6.8-5.8-8.1-6.6-3.9-2.4-8.2-4.3-12.3-6.2-.3-.1-.5.3-.2.4 7.3 4 15.5 8.1 21.4 14.1.1.1.4 0 .4-.2-3.6-9.2-4.6-18.4-6.7-27.9-.2-.4-.6-.3-.6 0zm43.6 17.9c-5-2.4-10.5-3.8-15.7-5.7-6.6-2.4-16.5-5.3-22.9-8.2-.3-.2-.6.3-.3.5 5.1 3.5 14.5 5.8 20.3 8 5.9 2.2 12.2 4.8 18.4 6.1.3 0 .6-.5.2-.7zm-2.4 2.3c-2.5 2.6-4.7 5.8-5.6 9.2-.1.2.3.4.4.2 1.4-3.4 3-6.4 5.6-9 .1-.3-.2-.6-.4-.4zm6 2.1c0-.4-.6-.4-.6 0 .1 5.9.2 11.8.8 17.6 0 .4.6.4.6 0 .1-5.8-.3-11.8-.8-17.6zm-105-9.3c-6.2 5.9-13 11.3-19.1 17.2-.2.2.1.7.4.5 7.2-4.7 13.5-10.9 19.5-17 .3-.4-.4-1.1-.8-.7z" fill="#769354" stroke-width="none" opacity="1" stroke="none"></path></g><g id="svga-group-head" transform="matrix(1,0,0,1,0,0)"><g id="svga-group-ears-left-move" transform="matrix(1,0,0,1,0,0)"><g id="svga-group-ears-left" transform="matrix(1,0,0,1,0,0)"><path id="SvgjsPath110542" d="M70.01 81.26s-3.24-4.86-12.55-8.1c0 0-3.1-.67-10.39 10.66 0 0-1.35 5.94 5.13 15.65 0 0 6.34 3.37 16.73-1.21 0 0 4.72-7.69 1.08-17z" fill="#ffe0cb" stroke-width="none" opacity="1" stroke="none"></path><path id="SvgjsPath110543" d="M68.66 90.08s-5.67-8.43-10.93-11.38c0 0-3.51 2.67-6.48 7.73 0 0 2.97 6.89 4.45 8.71 0 0 3.64 1.41 11.2-.56l1.76-4.5z" fill="#f0c4a7" stroke-width="none" opacity="1" stroke="none"></path><path id="SvgjsPath110544" d="M46.91 83.79c-.12.72-.12 1.43-.08 2.13.03.71.12 1.41.22 2.1.23 1.39.63 2.75 1.08 4.08.45 1.34 1.04 2.62 1.65 3.9.32.63.66 1.25 1 1.87l1.1 1.81.05.08.09.04c1.39.67 2.82.98 4.28 1.17 1.46.18 2.94.17 4.4.04 1.46-.13 2.9-.44 4.3-.84.71-.19 1.39-.45 2.08-.68l2.03-.82.13-.05.07-.12c.77-1.34 1.25-2.75 1.64-4.19.39-1.44.58-2.93.62-4.41.04-1.48-.04-2.97-.34-4.41-.21-1.46-.68-2.86-1.19-4.24-.75-1.04-1.67-1.91-2.62-2.75-.96-.83-1.97-1.6-3.03-2.3-1.06-.7-2.17-1.33-3.3-1.9-1.14-.58-2.32-1.04-3.51-1.49l-.03-.01h-.02c-.53-.05-.8.08-1.15.19-.32.12-.62.29-.91.46-.56.36-1.08.76-1.57 1.19-.98.85-1.83 1.83-2.63 2.82-1.61 2-2.97 4.15-4.35 6.28l-.02.03.01.02zm.32.09c.7-1.04 1.4-2.08 2.17-3.07.76-1.01 1.55-1.99 2.39-2.94.84-.93 1.7-1.85 2.64-2.66.47-.4.96-.78 1.48-1.09.26-.16.52-.29.79-.4.24-.1.57-.18.69-.18l1.73.62 1.73.71c1.15.49 2.28 1.03 3.37 1.66 1.08.63 2.15 1.3 3.12 2.09.97.79 1.9 1.66 2.65 2.66.47 1.38.89 2.78 1.07 4.23.2 1.44.19 2.91.05 4.35-.13 1.44-.45 2.86-.87 4.23-.4 1.33-.96 2.63-1.61 3.8l-1.83.73c-.67.21-1.34.46-2.02.64-1.36.38-2.75.65-4.14.82-1.4.15-2.81.18-4.21.04-1.35-.15-2.75-.43-3.95-.95l-1.08-1.65-1.06-1.79c-.66-1.22-1.3-2.46-1.79-3.76-.51-1.29-.92-2.63-1.17-4-.27-1.35-.38-2.76-.15-4.09z" fill="#f0c4a7" stroke-width="none" opacity="1" stroke="none"></path><path id="SvgjsPath110545" d="M52.21 84.06c.46-.6.96-1.16 1.45-1.73 1.01-1.12 2.05-2.19 3.12-3.26l.12-.12.16.12c.9.67 1.74 1.43 2.52 2.24.77.82 1.44 1.71 2.09 2.62 1.27 1.84 2.38 3.77 3.26 5.82l-.08.04c-1.24-1.84-2.49-3.65-3.81-5.4-.66-.87-1.34-1.73-2.03-2.57-.66-.79-1.34-1.57-2.09-2.27-1.1.89-2.11 1.91-3.01 3-.91 1.1-1.7 2.31-2.27 3.59.53 1.19 1.08 2.38 1.66 3.54.53 1.03 1.08 2.07 1.7 3.01.68-.6 1.35-1.23 1.97-1.88.72-.77 1.38-1.61 1.82-2.53-.13-.47-.36-.96-.61-1.42a7.38 7.38 0 0 0-1.01-1.36l.06-.07c.46.35.88.77 1.24 1.23.18.23.35.48.49.74.15.26.28.52.39.83l.02.07-.03.1c-.36 1.14-1.06 2.08-1.76 2.96-.72.89-1.51 1.68-2.37 2.45l-.39.34-.31-.42c-.85-1.16-1.45-2.4-2.02-3.65-.58-1.25-1.09-2.51-1.56-3.8l-.06-.15.07-.12c.38-.72.81-1.35 1.27-1.95z" fill="#d19268" stroke-width="none" opacity="1" stroke="none"></path></g></g><g id="svga-group-ears-right-move" transform="matrix(1,0,0,1,0,0)"><g id="svga-group-ears-right" transform="matrix(1,0,0,1,0,0)"><path id="SvgjsPath110546" d="M129.99 81.26s3.24-4.86 12.55-8.1c0 0 3.1-.67 10.39 10.66 0 0 1.35 5.94-5.13 15.65 0 0-6.34 3.37-16.73-1.21 0 0-4.72-7.69-1.08-17z" fill="#ffe0cb" stroke-width="none" opacity="1" stroke="none"></path><path id="SvgjsPath110547" d="M131.34 90.08s5.67-8.43 10.93-11.38c0 0 3.51 2.67 6.48 7.73 0 0-2.97 6.89-4.45 8.71 0 0-3.64 1.41-11.2-.56l-1.76-4.5z" fill="#f0c4a7" stroke-width="none" opacity="1" stroke="none"></path><path id="SvgjsPath110548" d="m153.08 83.76-.02-.03c-1.38-2.13-2.74-4.29-4.35-6.28-.8-1-1.65-1.97-2.63-2.82-.49-.43-1-.84-1.57-1.19-.28-.18-.58-.34-.91-.46-.35-.11-.63-.24-1.15-.19h-.02l-.03.01c-1.19.45-2.38.92-3.51 1.49-1.14.58-2.24 1.2-3.3 1.9-1.06.7-2.07 1.47-3.03 2.3-.95.84-1.86 1.71-2.62 2.75-.51 1.38-.98 2.78-1.19 4.24-.29 1.45-.38 2.93-.34 4.41.04 1.48.23 2.97.62 4.41.39 1.45.87 2.85 1.64 4.19l.07.12.13.05 2.03.82c.69.22 1.38.49 2.08.68 1.41.4 2.84.7 4.3.84 1.46.13 2.94.14 4.4-.04 1.47-.19 2.9-.49 4.28-1.17l.09-.04.05-.08 1.1-1.81c.33-.62.68-1.24 1-1.87.61-1.27 1.2-2.56 1.65-3.9.45-1.33.85-2.69 1.08-4.08.11-.7.19-1.4.22-2.1.04-.71.04-1.41-.08-2.13l.01-.02zm-.43 4.21c-.25 1.37-.65 2.71-1.17 4-.49 1.3-1.13 2.54-1.79 3.76l-1.06 1.79-1.08 1.65c-1.21.52-2.6.81-3.95.95-1.4.14-2.81.11-4.21-.04-1.4-.17-2.78-.44-4.14-.82-.68-.18-1.35-.43-2.02-.64l-1.83-.73c-.65-1.18-1.21-2.48-1.61-3.8-.42-1.38-.74-2.79-.87-4.23-.14-1.44-.15-2.9.05-4.35.17-1.45.6-2.85 1.07-4.23.74-1 1.67-1.88 2.65-2.66.98-.79 2.04-1.46 3.12-2.09 1.09-.62 2.22-1.16 3.37-1.66l1.73-.71 1.73-.62c.11 0 .45.08.69.18.26.12.53.25.79.4.51.31 1.01.68 1.48 1.09.94.81 1.8 1.73 2.64 2.66.83.94 1.63 1.93 2.39 2.94.77.99 1.47 2.03 2.17 3.07.2 1.33.09 2.74-.15 4.09z" fill="#f0c4a7" stroke-width="none" opacity="1" stroke="none"></path><path id="SvgjsPath110549" d="M147.79 84.06c-.46-.6-.96-1.16-1.45-1.73a87.123 87.123 0 0 0-3.12-3.26l-.12-.12-.16.12c-.9.67-1.74 1.43-2.52 2.24-.77.82-1.44 1.71-2.09 2.62-1.27 1.84-2.38 3.77-3.26 5.82l.08.04c1.24-1.84 2.49-3.65 3.81-5.4.66-.87 1.34-1.73 2.03-2.57.66-.79 1.34-1.57 2.09-2.27 1.1.89 2.11 1.91 3.01 3 .91 1.1 1.7 2.31 2.27 3.59-.53 1.19-1.08 2.38-1.66 3.54-.53 1.03-1.08 2.07-1.7 3.01-.68-.6-1.35-1.23-1.97-1.88-.72-.77-1.38-1.61-1.82-2.53.13-.47.36-.96.61-1.42.28-.49.62-.94 1.01-1.36l-.06-.07c-.46.35-.88.77-1.24 1.23-.18.23-.35.48-.49.74-.15.26-.28.52-.39.83l-.02.07.03.1c.36 1.14 1.06 2.08 1.76 2.96.72.89 1.51 1.68 2.37 2.45l.39.34.31-.42c.85-1.16 1.45-2.4 2.02-3.65.58-1.25 1.09-2.51 1.56-3.8l.06-.15-.07-.12c-.38-.72-.81-1.35-1.27-1.95z" fill="#d19268" stroke-width="none" opacity="1" stroke="none"></path></g></g><g id="svga-group-faceshape-wrap" transform="matrix(1,0,0,1,0,0)"><g id="svga-group-faceshape-single"><path id="SvgjsPath110622" d="M139.4 94.2c-2.5-8.8 1-25.8 1-25.8s.9-9.5 0-13.6c-2.2-10-6.3-16-15.2-20.8-9.3-5-25.23-4.31-25.23-4.31S84.1 29 74.8 34C66 38.9 62.03 44.89 59.83 54.89c-.9 4-.05 13.63-.05 13.63s3.79 17 1.29 25.9c-6.1 22.73-8.39 22.35 10.73 40.4 7.82 7.39 15.87 16.1 18.97 16.7s15.32.71 18.42.11 10.88-9.27 18.78-16.57c16.41-14.64 18.69-15.13 11.43-40.86z" fill="#ffe0cb" stroke-width="none" opacity="1" stroke="none"></path><path id="SvgjsPath110623" d="M71.8 134.82c7.82 7.39 15.87 16.1 18.97 16.7 3.1.6 15.32.71 18.42.11s10.88-9.27 18.78-16.57c16.41-14.64 18.69-15.13 11.43-40.86-2.5-8.8 1-25.8 1-25.8s.9-9.5 0-13.6c-2.2-10-6.3-16-15.2-20.8-9.3-5-25.23-4.31-25.23-4.31S84.1 29 74.8 34C66 38.9 62.03 44.89 59.83 54.89c-.9 4-.05 13.63-.05 13.63s3.79 17 1.29 25.9c-6.1 22.73-8.39 22.35 10.73 40.4zm-13.05-28.01c.22-.95.45-1.91.7-2.86l1.51-5.74c.48-1.92 1.04-3.82 1.38-5.86.61-4.03.2-7.98-.02-11.96-.27-3.97-1.42-7.99-2.07-11.91-.23-2.72-.39-5.47-.4-8.2 0-1.37.03-2.74.18-4.07.07-.67.21-1.31.37-1.99.15-.67.31-1.33.5-1.99 1.38-5.27 4.04-10.27 8.24-13.75 2.05-1.76 4.38-3.25 6.81-4.39 2.44-1.12 5.08-1.84 7.74-2.35 5.33-1 10.85-1.28 16.25-1.06h.08c3.75-.03 7.58.17 11.32.65 3.74.49 7.47 1.21 10.9 2.58.88.3 1.67.74 2.51 1.12.82.46 1.64.9 2.42 1.41 1.57.99 3.06 2.1 4.43 3.34 2.73 2.49 4.76 5.65 6.19 9.11.72 1.73 1.29 3.53 1.75 5.37.52 1.78.6 3.65.68 5.56.04 1.9.01 3.81-.06 5.72-.04.95-.09 1.92-.16 2.85-.12.94-.34 1.92-.49 2.87-.69 4.2-1.5 7.99-1.49 11.84.02 3.84-.06 7.32.94 11.06 1.02 3.83 2.45 7.73 3.19 11.62.36 1.94.68 3.89.81 5.85.1.98.01 1.96.03 2.93l-.18 1.45-.09.72-.19.7c-.88 3.81-3.63 6.77-6.46 9.44-2.88 2.67-5.95 5.18-8.96 7.78l-8.86 7.94c-1.47 1.31-2.67 2.72-4.18 3.97-1.5 1.24-2.33 2.37-3.88 3.3-.2.13-.38.2-.56.29-.09.04-.19.1-.27.13l-.22.07c-.12.06-.35.09-.57.12-.21.04-.45.05-.68.08-.93.09-1.91.13-2.89.16-1.95.06-3.92.06-5.88.02s-3.93-.11-5.86-.25c-.48-.04-.96-.08-1.42-.13-.24-.02-.44-.06-.66-.09-.24-.03-.31-.1-.47-.13-.69-.28-1.5-.8-2.26-1.34-3.09-2.23-5.01-4.94-7.93-7.57-2.91-2.66-5.81-5.38-8.7-8.08s-5.75-5.42-8.39-8.29c-.64-.73-1.32-1.43-1.88-2.2l-.88-1.13c-.28-.38-.51-.79-.77-1.18-.56-.77-.87-1.62-1.29-2.44-.25-.86-.59-1.71-.66-2.62-.19-.89-.1-1.83-.13-2.75.13-.94.15-1.88.36-2.83.16-.99.33-1.94.57-2.89z" fill="#d19268" stroke-width="none" opacity="1" stroke="none"></path></g></g><g id="svga-group-mouth-single-move" transform="matrix(1,0,0,1,0,0)"><g id="svga-group-mouth-single" transform="matrix(1,0,0,1,0,0)"><path id="SvgjsPath110785" d="M119.75 120.2c-2.07.95-4.03 1.44-5.29 1.57-4.78.49-8.33.87-12.75 2.53-1.8.7-2.7.9-4.5.4-1.4-.4-2.8-.7-4.2-.9-2.1-.32-4.18.13-6.29.2-1.2.04-2.44-.29-3.84-.62-.7 0-1.25.22.14.97 3.11 1.68 5.12 1.2 8.62 2 2.4.5 6.2 3.44 8.6 2.64 3-1 6.57-3.23 9.57-4.23 3.3-1 4.76-.51 9.4-3.4.65-.45.99-1.37.54-1.16z" fill="#e28c7c" stroke-width="none" opacity="1" stroke="none"></path></g></g><g id="svga-group-eyes-left-move" transform="matrix(1,0,0,1,0,0)"><g id="svga-group-eyes-left" transform="matrix(1,0,0,1,0,0)"><g id="svga-group-eyesback-left"><path id="SvgjsPath110576" d="M80.2 74.2c7.5 0 13.5 5.8 13.5 13s-6 13-13.5 13-13.5-5.8-13.5-13 6-13 13.5-13z" fill="#ffffff" stroke-width="none" opacity="1"></path></g><g id="svga-group-eyesiriswrapper-left" transform="matrix(1,0,0,1,0,0)"><g id="svga-group-eyesiriscontrol-left" transform="matrix(1,0,0,1,0,0)"><g id="svga-group-eyesiris-left" transform="matrix(1,0,0,1,0,0)"><path id="SvgjsPath110636" d="M80.2 81.6c3.1 0 5.6 2.5 5.6 5.6s-2.5 5.6-5.6 5.6-5.6-2.5-5.6-5.6 2.5-5.6 5.6-5.6z" fill="#467d03" stroke-width="none" opacity="1" stroke="none"></path><path id="SvgjsPath110637" d="M80.2 82.7c2.5 0 4.5 2 4.5 4.5s-2 4.5-4.5 4.5-4.5-2-4.5-4.5 2-4.5 4.5-4.5z" fill="#000000" stroke-width="none" opacity="1"></path><path id="SvgjsPath110638" d="M74.6 87.2c0 .9.2 1.8.6 2.6.8.5 1.8.8 2.8.8 2.9 0 5.3-2.4 5.3-5.3 0-1.2-.4-2.4-1.1-3.3-.6-.2-1.3-.4-2-.4-3.1 0-5.6 2.5-5.6 5.6z" fill="#558c11" stroke-width="none" opacity="1" stroke="none"></path><path id="SvgjsPath110639" d="M75.7 87.2c0 1.3.5 2.4 1.4 3.3.3.1.6.1 1 .1 2.9 0 5.3-2.4 5.3-5.3 0-.5-.1-1.1-.2-1.6-.8-.7-1.8-1.1-2.9-1.1-2.6.1-4.6 2.1-4.6 4.6z" fill="#1e1e1e" stroke-width="none" opacity="1"></path><path id="SvgjsPath110640" d="M77.7 84.8c.6-.7 1.6-.9 2-.4.5.5.4 1.4-.3 2.1s-1.6.9-2 .4c-.4-.5-.3-1.4.3-2.1z" fill="#2b2b2b" stroke-width="none" opacity="1"></path></g></g></g><g id="svga-group-eyesfront-left"><path id="SvgjsPath110584" d="M80.2 73.7c-7.8 0-14.1 6.1-14.1 13.6s6.3 13.6 14.1 13.6 14.1-6.1 14.1-13.6S88 73.7 80.2 73.7zm-1.3 22.6c-7.8 0-10.2-4.1-10.2-4.1 2.7-9.7 7.8-15.2 13.5-12.6 5.7 2.6 7.3 8.8 7.3 9.8-.1 1.1-2.9 6.8-10.6 6.9z" fill="#ffe0cb" stroke-width="none" opacity="1" stroke="none"></path><path id="SvgjsPath110585" d="M82.2 96.1c2.4-.6 4.6-2.1 6.1-4 .4-.5.7-1 1-1.6.1-.3.3-.6.3-.9s0-.6-.1-.9c-.2-1.2-.7-2.4-1.3-3.5-1.1-2.2-2.9-4.1-5-5.3-1.1-.6-2.3-1.1-3.6-1.1-1.3-.1-2.6.3-3.6.9-1.1.7-2 1.5-2.8 2.5-.4.5-.8 1-1.1 1.5-.2.3-.3.5-.5.8l-.4.8c-1.1 2.2-1.9 4.5-2.5 6.9.7 1.1 1.7 1.9 2.7 2.5 1.1.6 2.2 1.1 3.4 1.3 1.2.3 2.4.4 3.7.4.6 0 1.2 0 1.9-.1.5 0 1.2 0 1.8-.2zm-2.8-.1h-.9c-1.2 0-2.4-.1-3.6-.4-1.2-.2-2.3-.6-3.4-1.2s-2.1-1.3-2.8-2.3c.7-2.3 1.6-4.6 2.8-6.7l.4-.8c.2-.3.3-.5.5-.8.3-.5.7-1 1.1-1.4.8-.9 1.7-1.7 2.7-2.3 1-.6 2.2-.9 3.3-.9 1.2 0 2.3.4 3.4 1 2.1 1.2 3.8 2.9 5 5.1.6 1.1 1.1 2.2 1.3 3.4.1.3.1.6.1.9-.1.3-.2.6-.3.8-.3.6-.6 1.1-1 1.5-1.5 1.9-3.7 3.2-6 3.7-.6.2-1.2.2-1.8.3-.2.1-.5.1-.8.1z" fill="#782c76" stroke-width="none" opacity="1" stroke="none"></path><path id="SvgjsPath110586" d="M73.3 78.5c4-3.4 9.5-2 9.5-2-1.7-1.1-8.5-1.9-11.5 2.9s-3.4 12.3-3.4 12.3 1.4-9.9 5.4-13.2zm16.5 11.9C88.1 99.5 80 101 80 101c10.8-1.9 9.8-10.6 9.8-10.6z" fill="#e0aa86" stroke-width="none" opacity="1" stroke="none"></path></g></g></g><g id="svga-group-eyes-right-move" transform="matrix(1,0,0,1,0,0)"><g id="svga-group-eyes-right" transform="matrix(1,0,0,1,0,0)"><g id="svga-group-eyesback-right"><path id="SvgjsPath110577" d="M119.8 74.2c7.5 0 13.5 5.8 13.5 13s-6 13-13.5 13-13.5-5.8-13.5-13 6-13 13.5-13z" fill="#ffffff" stroke-width="none" opacity="1"></path></g><g id="svga-group-eyesiriswrapper-right" transform="matrix(1,0,0,1,0,0)"><g id="svga-group-eyesiriscontrol-right" transform="matrix(1,0,0,1,0,0)"><g id="svga-group-eyesiris-right" transform="matrix(1,0,0,1,0,0)"><path id="SvgjsPath110641" d="M119.8 82.3c2.7 0 4.9 2.2 4.9 4.9s-2.2 4.9-4.9 4.9-4.9-2.2-4.9-4.9 2.2-4.9 4.9-4.9z" fill="#467d03" stroke-width="none" opacity="1" stroke="none"></path><path id="SvgjsPath110642" d="M119.8 83.2c2.2 0 4 1.8 4 4s-1.8 4-4 4-4-1.8-4-4 1.8-4 4-4z" fill="#000000" stroke-width="none" opacity="1"></path><path id="SvgjsPath110643" d="M114.9 87.2c0 .8.2 1.6.6 2.3.7.4 1.5.7 2.4.7 2.6 0 4.6-2.1 4.6-4.6 0-1.1-.4-2.1-1-2.9-.5-.2-1.1-.3-1.7-.3-2.7-.1-4.9 2.1-4.9 4.8z" fill="#558c11" stroke-width="none" opacity="1" stroke="none"></path><path id="SvgjsPath110644" d="M115.8 87.2c0 1.1.5 2.2 1.2 2.9.3.1.6.1.8.1 2.6 0 4.6-2.1 4.6-4.6 0-.5-.1-.9-.2-1.4-.7-.6-1.6-.9-2.5-.9-2.1-.1-3.9 1.7-3.9 3.9z" fill="#1e1e1e" stroke-width="none" opacity="1"></path><path id="SvgjsPath110645" d="M117.6 86.1c.6-.6 1.4-.8 1.8-.4.4.4.3 1.2-.2 1.8s-1.4.8-1.8.4c-.4-.4-.3-1.2.2-1.8z" fill="#2b2b2b" stroke-width="none" opacity="1"></path></g></g></g><g id="svga-group-eyesfront-right"><path id="SvgjsPath110587" d="M119.8 73.7c-7.8 0-14.1 6.1-14.1 13.6s6.3 13.6 14.1 13.6 14.1-6.1 14.1-13.6-6.3-13.6-14.1-13.6zm1.4 21.3c-7-.5-9.3-5.5-9.3-6.4s1.7-6 7.1-7.8 11.1 3.8 10.9 11.1c0 0-1.6 3.6-8.7 3.1z" fill="#ffe0cb" stroke-width="none" opacity="1" stroke="none"></path><path id="SvgjsPath110590" d="M124.4 81c-1-.5-2.1-.8-3.2-.8s-2.2.3-3.2.7c-2 .9-3.7 2.4-4.8 4.2-.6.9-1 1.9-1.3 2.9-.1.2-.1.6-.1.8.1.3.2.5.3.8.2.5.5.9.8 1.4 1.3 1.7 3.1 3 5.2 3.7 2.1.7 4.3.7 6.4.4 1.1-.2 2.1-.5 3.1-1 .5-.3.9-.6 1.3-.9.4-.4.8-.8 1-1.3.1-2.1-.2-4.3-1.2-6.2-.9-2-2.3-3.7-4.3-4.7zm3.1 12.8c-.9.4-2 .7-3 .8-1 .1-2.1.1-3.1.1-1-.1-2.1-.2-3.1-.5-2-.6-3.9-1.7-5.2-3.3-.3-.4-.6-.9-.8-1.3-.1-.2-.2-.5-.3-.7-.1-.2 0-.5.1-.7.3-1 .8-1.9 1.4-2.8 1.2-1.7 2.8-3.1 4.7-3.9.9-.4 1.9-.7 3-.6 1 0 2 .3 2.9.8 1.8.9 3.3 2.5 4.3 4.4 1 1.8 1.5 3.9 1.5 6.1-.5.5-1.4 1.2-2.4 1.6z" fill="#782c76" stroke-width="none" opacity="1" stroke="none"></path><path id="SvgjsPath110591" d="M126.3 80.5c3.4 3 4.3 11.1 4.3 11.1s0-6.1-2.5-10.2-8.4-3.3-9.9-2.5c0 0 4.7-1.4 8.1 1.6zm-14.8 8.8s-.4 5.3 4.1 8.1c0 0-3.2-3-4.1-8.1zm7.9 9c8 1.2 10.4-5.1 10.4-5.1-3.9 5.5-9.5 5.2-10.4 5.1z" fill="#e0aa86" stroke-width="none" opacity="1" stroke="none"></path></g></g></g><g id="svga-group-facehighlight-single"></g><g id="svga-group-eyebrows-left-move" transform="matrix(1,0,0,1,0,0)"><g id="svga-group-eyebrows-left-rotate" transform="matrix(1,0,0,1,0,0)"><g id="svga-group-eyebrows-left" transform="matrix(1,0,0,1,0,0)"><path id="SvgjsPath110506" d="M91.2 73.1s-11.8 1.1-14.3 1.1c-2.6.1-8.5.5-8.5.5s-1-3.4-.3-4.1c.7-.7 9.8-2.8 9.8-2.8l1.2.5-.1-.8s6-.5 7.3-.5h2.8l-.3 1.6 1.4-1.6.8 1 .7-.8s.4.8.1 2.5c-.2 1.6-.6 3.4-.6 3.4z" fill="#a46c47" stroke-width="none" opacity="1" stroke="none"></path><path id="SvgjsPath110507" d="m91.9 67.1-.1-.2-.2.2-.6.6-.1-.1c.2-.4.4-.9.5-1.3-.3.4-.5.8-.7 1.2l-.4-.5-.2-.2-.1.2-.8.9.2-.8v-.3H86.7c-.8 0-1.7 0-2.5.1-1.7.1-3.5.3-5.2.4h-.3v.6l-.7-.3h-.2c-2.5.6-5 1.3-7.5 2-.6.2-1.2.4-1.8.7-.2.1-.3.1-.4.2-.2.1-.2.3-.2.4-.1.3-.1.5-.1.8 0 1.1.3 2.1.5 3v.1h.1c2.1-.1 4.2-.2 6.2-.3l1.5-.1c.5 0 1 0 1.5-.1 1 0 1.9-.1 2.9-.2 1.9-.2 3.7-.3 5.5-.5l2.7-.3 1.3-.2.7-.1h.6V72.7l.1-.3.2-.7.3-1.5c.1-.5.2-1 .2-1.5v-.8c-.1-.2-.1-.5-.2-.8zm-.3 3.2c-.1.5-.2 1-.2 1.5l-.1.7-.1.3V73.1H90l-1.3.1-2.7.2c-1.8.1-3.7.3-5.6.4l-2.9.2c-.5 0-1 .1-1.5.1l-1.5.1c-2 .1-4 .3-6.1.5-.3-.9-.5-1.9-.5-2.9 0-.3 0-.5.1-.8 0-.1.1-.2.2-.3.1-.1.2-.1.4-.2l1.8-.6c1.2-.3 2.5-.6 3.7-1 1.2-.3 2.4-.6 3.6-.8l1.1.5.4.2v-1c1.6-.1 3.3-.3 4.9-.4.8-.1 1.7-.1 2.5-.1h2.1l-.2 1.3-.1.8.6-.6 1.2-1.3.4.4c-.2.5-.5 1-.6 1.6.3-.4.6-.9.8-1.4l.1.1.1.1.2-.2.5-.5c0 .1.1.3.1.4v.8c0 .5-.1 1-.2 1.5zm-6.4-.4.6-2.4c-.1.8-.2 1.6-.4 2.4l-.3 1.2c-.1.4-.2.7-.4 1.1l-.2.3v-.3c-.1-.6-.2-1.2-.4-1.8l-.3-1.6-.8 1.4c-.1.3-.3.6-.5.9-.2.3-.3.6-.5.8.1-.3.3-.6.4-.9.1-.3.3-.6.4-.9l.9-1.8.2-.3.1.3.4 1.9.3 1.5c.1-.2.2-.5.3-.7 0-.3.1-.7.2-1.1z" fill="#955932" stroke-width="none" opacity="1" stroke="none"></path></g></g></g><g id="svga-group-eyebrows-right-move" transform="matrix(1,0,0,1,0,0)"><g id="svga-group-eyebrows-right-rotate" transform="matrix(1,0,0,1,0,0)"><g id="svga-group-eyebrows-right" transform="matrix(1,0,0,1,0,0)"><path id="SvgjsPath110508" d="M110.7 74.9s12-.3 14.3-.6 7.6-.5 7.6-.5-.1-3.6-.8-4.2c-.7-.6-8.3-1.8-8.3-1.8l-.9.6v-.7s-5.2 0-6.3.1-2.6.2-2.6.2l.1 1.5-1.2-1.4-.9.9-.6-.7s-.5.8-.5 2.6c-.1 1.9.1 4 .1 4z" fill="#a46c47" stroke-width="none" opacity="1" stroke="none"></path><path id="SvgjsPath110509" d="M110.7 74.9H112l1.4-.1 2.8-.2c1.8-.1 3.7-.2 5.5-.3l2.7-.1c.4 0 .9-.1 1.4-.1l1.4-.1c1.8-.1 3.7-.1 5.5-.2l-.1.1c0-1.1-.1-2.2-.4-3.2-.1-.3-.1-.5-.3-.7-.1-.1-.1-.2-.2-.3-.1-.1-.2-.1-.4-.1-.5-.2-1-.3-1.6-.4-1.1-.2-2.1-.4-3.2-.6s-2.1-.3-3.2-.5h.2l-.9.6-.4.2v-1.1l.2.2c-1.5 0-3 0-4.5.1-.8 0-1.5 0-2.2.1l-2.2.2.2-.3.1 1.5.1.8-.5-.6-1.2-1.4h.3l-.9.9-.2.2-.1-.2-.6-.7h.3c-.1.2-.2.5-.3.7s-.1.5-.2.8c-.1.5-.1 1.1-.1 1.6V74.7l.3.2zm0 .1c-.1 0-.1-.1 0 0v-.8l-.1-.8c0-.5-.1-1.1-.1-1.6v-1.7c0-.3.1-.6.1-.8.1-.3.1-.5.3-.8l.1-.2.2.2.6.7h-.3l.9-.9.2-.2.2.2 1.2 1.4-.4.2-.1-1.5v-.2h.3l2.2-.2c.8-.1 1.5-.1 2.2-.1h4.7V68.8l-.4-.2.9-.6.1-.1h.1c2.1.4 4.2.8 6.4 1.2.5.1 1.1.3 1.6.4.1.1.3.1.4.2l.3.3c.1.2.2.5.3.8.2 1.1.3 2.1.4 3.2h-.1c-1.8.1-3.7.2-5.5.4l-1.4.1c-.4.1-.9.1-1.4.1-.9.1-1.8.1-2.8.2-1.8.1-3.7.1-5.5.2h-5.6zm4.5-5.9c.2.8.3 1.6.5 2.4l.3 1.2c.1.4.2.8.4 1.1l-.2.1.3-2.1.4-2.1.1-.3.2.3.9 1.7c.2.3.3.6.4.9.1.3.3.6.4.9-.2-.3-.3-.6-.5-.8s-.3-.6-.5-.8l-.9-1.7h.2l-.3 2.1-.3 2.1-.1.3-.2-.3c-.2-.4-.3-.8-.4-1.2-.1-.4-.2-.8-.2-1.2-.3-.9-.4-1.7-.5-2.6zm-2.3 4.7-.9-1.5c-.3-.5-.5-1.1-.6-1.6l.9 1.5c.3.5.4 1 .6 1.6z" fill="#955932" stroke-width="none" opacity="1" stroke="none"></path></g></g></g><g id="svga-group-beardwrap" transform="matrix(1,0,0,1,0,0)"><g id="svga-group-beard-single-move" transform="matrix(1,0,0,1,0,0)"><g id="svga-group-beard-single" transform="matrix(1,0,0,1,0,0)"><path id="SvgjsPath110886" d="M91.8 134.75c.35 3.01 5.21 7.92 5.21 7.92l.69-1.16 1.39 1.62 2.08-2.43v1.39l1.62-1.62-.23 2.2s3.74-2.85 5.25-7.48c-2.3-.41-5.37-.44-8.37-.52-2.55-.08-5.58-.13-7.64.08z" fill="#a46c47" stroke-width="none" opacity="1"></path><path id="SvgjsPath110887" d="M107.88 134.82c-1.34-.26-2.69-.35-4.04-.4-1.34-.06-2.68-.08-4.02-.08-1.34-.01-2.68-.02-4.02.04-1.35.05-2.66.12-4.04.35.02.87.36 1.6.69 2.35.36.73.78 1.42 1.24 2.09.45.67.95 1.3 1.46 1.93.52.62 1.04 1.23 1.6 1.82l.3.32.22-.38.46-.79c.37.42.74.84 1.13 1.26l.22.24.19-.24 1.73-2.17.02.95.01.32.22-.23c.45-.46.9-.92 1.36-1.37-.07.61-.14 1.23-.22 1.84l-.06.38.31-.24c1.24-.96 2.35-2.07 3.29-3.33.95-1.25 1.69-2.66 2.22-4.16l.14-.4-.41-.1zm-2.42 4.29c-.78 1.14-1.68 2.22-2.7 3.16.05-.6.11-1.19.16-1.79l.03-.35-.24.25c-.45.47-.93.93-1.4 1.39l.02-1.07.01-.41-.28.3-1.95 2.12c-.38-.48-.76-.95-1.16-1.42l-.29-.34-.23.38-.47.77c-1-1.03-1.95-2.12-2.83-3.26-.49-.62-.95-1.27-1.35-1.95-.41-.66-.77-1.41-.94-2.13 1.28-.02 2.66.01 3.98.06l4 .19c2.52.13 5.04.16 7.49.49-.2.56-.41 1.12-.69 1.65-.35.68-.72 1.34-1.16 1.96z" fill="#955932" stroke-width="none" opacity="1"></path></g></g></g><g id="svga-group-mustache-single-move" transform="matrix(1,0,0,1,0,0)"><g id="svga-group-mustache-single" transform="matrix(1,0,0,1,0,0)"></g></g><g id="svga-group-nose-single-move" transform="matrix(1,0,0,1,0,0)"><g id="svga-group-nose-single" transform="matrix(1,0,0,1,0,0)"><path id="SvgjsPath110704" d="M110.66 104.38c.25.93-.49 3.19-1.5 4.38-1.01 1.18-1.6.4-2.31-.27 0 0-1.02-1.71-2.17-1.92-1.14-.21-1.88 1.31-3.09 1.99-1.21.69-2.21 1.32-2.81 1.29-.6-.03-4.4-2.52-4.4-2.52s-2.39.46-3.12 1.33c-.72.87-1.15 1.34-1.38 1.38-.23.04-.26-.02-.26-.02s-.69-2.12-.88-2.79c-.2-.67-.05-1.27.2-1.6.25-.33 2.06-1.42 2.06-1.42s-.37-.95-.05-1.64c.33-.69 2.48-2.37 4.25-2.76s3.31-1.1 5.41-.94c2.1.16 6.74 1.99 8.19 3.21 1.46 1.21 1.86 2.3 1.86 2.3z" fill="#ffe0cb" stroke-width="none" opacity="1" stroke="none"></path><path id="SvgjsPath110705" d="M94.8 90.92c.26 1.32.42 2.65.73 3.95.3 1.31.61 2.6.95 3.92l.09-.01c.16-1.37.04-2.73-.14-4.08-.17-1.35-.57-2.64-.91-3.95-.34-1.31-.71-2.6-1.09-3.89-.4-1.29-.81-2.57-1.24-3.85l-.09.03c.31 1.31.6 2.62.88 3.94.29 1.31.56 2.62.82 3.94z" fill="#d19268" stroke-width="none" opacity="1" stroke="none"></path><path id="SvgjsPath110706" d="M104.67 106.4c-.09-.02-.2-.01-.3-.01-.11.02-.21.05-.29.1-.17.08-.31.17-.46.26-1.12.74-2.17 1.55-3.29 2.2-.28.15-.56.31-.84.41l-.21.08-.2.05c-.12.02-.22.03-.33-.01-.23-.05-.53-.21-.8-.35-.28-.16-.55-.32-.83-.5-1.1-.7-2.16-1.49-3.2-2.3-.52-.4-1.05-.81-1.54-1.23-.47-.39-.88-.87-1.03-1.37-.17-.5-.03-1.02.35-1.47.37-.45.88-.83 1.44-1.15 1.11-.65 2.34-1.15 3.59-1.53 1.26-.38 2.56-.63 3.89-.71-2.66-.18-5.4.38-7.83 1.62-.61.31-1.21.7-1.71 1.26-.13.13-.23.31-.34.46-.09.17-.18.35-.23.55-.13.39-.1.83 0 1.21.04.12.09.23.14.34-.49.12-.96.3-1.39.57-.28.16-.53.36-.78.64-.12.14-.23.32-.3.56-.01.07-.02.14-.02.21v.1l.01.07c.01.09.02.18.04.25.13.63.34 1.2.58 1.76.24.56.52 1.1.9 1.61-.01-.63-.1-1.23-.21-1.82-.11-.59-.25-1.18-.36-1.72-.02-.07-.02-.13-.03-.19l-.01-.05.01-.01s0-.01-.01-.02c.02-.03.01-.06.03-.1.03-.04.04-.08.08-.14.12-.2.33-.4.53-.6.32-.31.68-.63 1.03-.96.27.53.67.94 1.07 1.3.52.45 1.04.86 1.57 1.28.04.03.09.06.13.1-.28.02-.55.08-.8.17-.31.12-.59.3-.83.52-.24.22-.46.48-.59.81.71-.07 1.24-.28 1.77-.48.26-.1.51-.22.77-.33.13-.06.26-.11.4-.17.8.59 1.61 1.16 2.46 1.68.29.18.59.34.89.5.32.15.62.31 1.04.4.21.06.45.03.65-.01.2-.05.38-.11.54-.19.34-.15.63-.33.92-.51 1.15-.74 2.15-1.64 3.18-2.45.13-.1.26-.2.38-.28.13-.09.22-.1.36-.1.28.02.57.17.84.35.53.37 1 .85 1.38 1.39-.3-.6-.72-1.14-1.23-1.59-.3-.18-.59-.39-.98-.46z" fill="#d19268" stroke-width="none" opacity="1" stroke="none"></path><path id="SvgjsPath110707" d="M111 104.19c-.12-.41-.3-.7-.53-.97-.45-.54-1.02-.93-1.66-1.13.41.52.79 1.02 1.06 1.53.12.25.25.54.27.76.03.24.02.53-.02.81-.07.57-.22 1.17-.39 1.76-.17.6-.37 1.19-.58 1.82.53-.41.93-.96 1.24-1.55.31-.59.56-1.22.64-1.92.05-.37.07-.73-.03-1.11z" fill="#d19268" stroke-width="none" opacity="1" stroke="none"></path><path id="SvgjsPath110708" d="M101.11 100.66c-1.95-.8-4.77.64-6.5 1.51-1.75.88-.22 3.41 1.52 2.61.93-.43 1.9-.76 2.88-1.08.92-.3 1.85-.49 2.59-1.14.72-.63.23-1.6-.49-1.9z" fill="#ffe8d8" stroke-width="none" opacity="1" stroke="none"></path></g></g><g id="svga-group-hair-front" transform="matrix(1,0,0,1,0,0)"><path id="SvgjsPath110753" d="M121.06 45.84s-4.8 6.39-18.86 7.03-24.62-.32-31.97 7.03-6.07 14.07-6.07 20.14.96 16.62 0 18.86c-.96 2.24-3.84 1.92-3.84-1.92S59.04 74.6 58.4 71.41c-.64-3.2-2.56-15.03-.64-23.34s8.95-16.62 25.25-20.46 34.53-.96 41.24 3.2c0 0 7.03 2.24 13.11 9.91s5.11 15.03 4.48 23.34c-.64 8.31-2.24 28.45-3.2 31.01-.96 2.56-3.77 2.68-3.45-3.39.32-6.07.64-17.49 0-21.33s-.38-9.81-4.54-13.33c-4.15-3.51-8.63-7.98-9.59-11.18z" fill="#a46c47" stroke-width="none" opacity="1" stroke="none"></path><path id="SvgjsPath110754" d="m141.17 69.76-.24-5.63v5.63l-.01 2.81c-.05.92-.15 1.86-.24 2.79-.37 3.73-.81 7.46-1.25 11.18l-.7 5.58c-.15.92-.2 1.89-.48 2.64-.27.77-.89 1.46-1.41 1.36-.25-.03-.6-.29-.78-.51-.18-.25-.3-.66-.37-1.08-.14-.85-.15-1.78-.13-2.69.05-1.84.22-3.71.38-5.57.16-1.87.34-3.74.4-5.65.06-1.9.04-3.79-.03-5.68-.07-1.89-.19-3.77-.36-5.66-.18-1.89-.37-3.74-.81-5.69-.54-2-1.52-3.69-2.59-5.3a32.11 32.11 0 0 0-3.65-4.49c-.67-.69-1.44-1.35-2.05-1.95-.64-.63-1.24-1.31-1.82-2.02a43.845 43.845 0 0 1-3.19-4.48l-.6-.97-.86.81c-1.88 1.78-4.31 3.24-6.79 4.31-2.5 1.1-5.17 1.77-7.88 2.11-1.36.19-2.7.22-4.11.26-1.42.02-2.83.06-4.25.12-2.83.12-5.66.29-8.5.58-2.83.29-5.66.68-8.46 1.3-2.79.64-5.61 1.43-8.21 2.92-.65.37-1.27.81-1.86 1.3-.59.49-1.12 1.11-1.56 1.64-.92 1.11-1.79 2.28-2.54 3.55-1.53 2.51-2.4 5.49-2.59 8.38-.22 2.89-.16 5.69-.14 8.53.03 2.82.08 5.65.16 8.47.04 1.41.1 2.82.17 4.24.04.71.08 1.42.14 2.13.07.72.1 1.31-.01 1.96-.09.63-.28 1.25-.57 1.8-.28.53-.74 1.02-1.11 1.11-.17.03-.27.01-.42-.13-.15-.15-.28-.4-.37-.69-.09-.28-.15-.62-.21-.96-.06-.34-.12-.68-.17-1.02-.73-5.54-1.14-11.18-1.54-16.8-.18-2.81-.38-5.63-.48-8.43v-8.46l-.35 8.46c.01 2.83.11 5.64.21 8.47.23 5.64.4 11.27 1.07 16.92.04.35.09.71.15 1.07.06.35.1.71.22 1.11.12.38.28.79.62 1.16.32.38.98.62 1.5.48 1.02-.28 1.52-1 1.93-1.67.38-.69.63-1.44.75-2.2.14-.74.11-1.57.06-2.25-.04-.69-.07-1.39-.09-2.09-.04-1.4-.07-2.81-.08-4.21-.03-2.81-.02-5.63.01-8.44l.07-4.22c.03-1.4.06-2.8.18-4.16.21-2.73.98-5.31 2.4-7.62.7-1.16 1.52-2.25 2.4-3.31.46-.55.85-1.01 1.35-1.41.5-.4 1.03-.78 1.61-1.11 2.31-1.32 5-2.08 7.69-2.67 2.71-.58 5.47-.94 8.25-1.21 2.78-.26 5.58-.42 8.38-.52l4.21-.11c1.41-.05 2.89-.1 4.32-.31 2.88-.38 5.73-1.12 8.39-2.31 2.34-1.05 4.54-2.3 6.53-4.02a45.48 45.48 0 0 0 2.75 3.74c.61.74 1.26 1.46 1.96 2.15.74.71 1.4 1.26 2.04 1.91 1.27 1.29 2.44 2.71 3.47 4.22 1.01 1.49 1.93 3.11 2.37 4.74.4 1.71.61 3.6.83 5.44.21 1.85.36 3.71.47 5.57.11 1.86.17 3.72.14 5.57-.02 1.84-.16 3.71-.28 5.58-.12 1.87-.26 3.75-.27 5.66 0 .96.02 1.92.2 2.92.1.5.23 1.02.59 1.54.22.28.41.43.67.6.24.17.56.29.88.34.69.08 1.33-.28 1.7-.7.39-.42.64-.9.82-1.39.34-1.02.36-1.95.48-2.89l.52-5.61c.33-3.74.64-7.48.89-11.23.06-.94.13-1.87.15-2.82.03-.94-.03-1.88-.07-2.82z" fill="#955932" stroke-width="none" opacity="1" stroke="none"></path></g><g id="svga-group-glasses-single-move" transform="matrix(1,0,0,1,0,0)"><g id="svga-group-glasses-single" transform="matrix(1,0,0,1,0,0)"></g></g></g></g></g><rect id="svga-credit-rect" width="200" height="15" x="0" y="185" fill="#ecf0f1" opacity="0.5" style="display: none;"></rect><text id="svga-credit-text" font-family="Avenir Next, Roboto, Helvetica, Arial, sans-serif" font-size="10px" text-anchor="start" font-weight="400" size="10px" anchor="start" weight="400" fill="#333333" x="33.40447998046875" y="182.60824704170227" style="display: none;"><tspan id="SvgjsTspan110047" dy="13" x="33.40447998046875">Created on AvatarMaker.com</tspan></text></g></svg>