<svg xmlns="http://www.w3.org/2000/svg" version="1.1" width="600px" height="600px" viewBox="0 0 200 200" style="overflow:hidden!important;"><g id="svga-group-wrapper"><g id="svga-group-backs-single"></g><g id="svga-group-humanwrap-move" transform="matrix(1,0,0,1,0,0)"><g id="svga-group-humanwrap"><g id="svga-group-hair-back-move" transform="matrix(1,0,0,1,0,0)"><g id="svga-group-hair-back"><path id="SvgjsPath40899" d="m59.8 88.3 9.1 69.3 10.3 1.6 1.8-3.1 1.9 2.9 36-1.4 1-12.2.9 12.2 19-.9 1.6-71.5z" fill="#cfd0b6" stroke-width="none" opacity="1"></path></g></g><g id="svga-group-humanbody-back"><path id="SvgjsPath40611" d="M77.8 105.9s4.8 37.7 10 55.8c0 0-6.4 8.8-14.5 11.9-28.7 11.2-35 11.2-39.6 15.2-2.4 2.1.2 11.1 1.8 17.2 1.3 5 1.7 13.2 1.7 13.2h132.2s1.6-33-.6-39.8-7.1-2.9-21.9-4.5c-14.8-1.6-28.7-10.3-31-13.2l.3-60-38.4 4.2z" fill="#f3d4cf" stroke-width="none" opacity="1"></path></g><g id="svga-group-chinshadow-single"><path id="SvgjsPath40607" d="M85.6 152.8c6.6 3.5 10.7 3.5 10.7 3.5s8 0 19.6-9.5l.2-45.2-38.4 4.2c.1.1 3.6 27.7 7.9 47z" fill="#d4958a" stroke-width="none" opacity="1"></path></g><g id="svga-group-humanbody-front"><path id="SvgjsPath40612" d="M72.1 183.1s14.6-.2 20.4 2.6c5.8 2.9 12.7 2.4 16.1-1s21.6-7 21.6-7-19.7 1.9-25 4.6c-5.3 2.7-22.3-2.8-33.1.8z" fill="#d4958a" stroke-width="none" opacity="1"></path><path id="SvgjsPath40613" d="M74.2 173.2c6.7-1.3 14.7-6.4 14.7-6.4l6.2 5.5c-4.3-7.9-12.7-41.1-12.7-41.1l-.7.7c1.7 10.5 3.9 21.9 6.1 29.7 0 0-6 8.2-13.6 11.6z" fill="#d4958a" stroke-width="none" opacity="1"></path><path id="SvgjsPath40614" d="M170.7 188.5c-.1-2.1-.2-4.1-.4-6.2-.1-1-.3-2.1-.6-3.2-.2-.5-.4-1-.6-1.6-.2-.5-.6-1-1-1.5s-.9-.9-1.5-1.1c-.6-.3-1.1-.4-1.7-.6-1.1-.2-2.2-.2-3.2-.2-2.1 0-4.1.1-6.1.1s-4-.1-6-.2-4-.4-6-.7c-1-.2-2-.4-2.9-.6l-1.5-.4c-.5-.1-1-.3-1.4-.4-3.8-1.1-7.6-2.6-11.2-4.4l-1.3-.7-1.3-.7c-.4-.2-.9-.5-1.3-.8s-.9-.5-1.3-.8-.8-.5-1.3-.8l-1.2-.9-.6-.5-.3-.2-.3-.2c-.2-.2-.4-.3-.5-.5l-.2-.3v-44.6l-.1-15v-.6l-.6.1c-6.4.8-12.9 1.5-19.3 2.3l-19.1 2.3v.5l.1.4.1.9.2 1.8c.1 1.2.3 2.3.4 3.5l.9 7c.6 4.7 1.3 9.4 2.1 14 .8 4.7 1.5 9.3 2.5 14 .9 4.5 1.8 9 3 13.5-1.1 1.4-2.3 2.7-3.6 4-1.3 1.3-2.8 2.6-4.3 3.8-1.5 1.1-3.1 2.2-4.8 3l-1.3.6c-.4.2-.9.3-1.3.5l-2.7 1c-7.2 2.7-14.5 5.3-21.8 7.7l-5.5 1.8c-1.8.6-3.7 1.3-5.5 2.2-.4.2-.9.5-1.3.7-.4.3-.9.5-1.3.9l-.6.5c-.2.2-.5.5-.6.8-.3.5-.4 1.1-.5 1.6-.2 1.1-.1 2.1 0 3.1s.3 2 .4 2.9c.4 1.9.8 3.8 1.3 5.7l.8 2.8c.3.9.5 1.8.7 2.8.4 1.9.7 3.8.9 5.7s.4 3.8.5 5.7v.8h133.4v-.8c.2-4.1.4-8.2.5-12.3s.2-8.2.2-12.3c0-1.8-.1-3.8-.1-5.9zm-67.4 30.3H70.2l-16.5-.1-16-.1c-.1-1.8-.2-3.5-.4-5.3-.2-1.9-.4-3.9-.8-5.8-.2-1-.4-1.9-.7-2.9l-.7-2.8c-.5-1.9-.9-3.7-1.2-5.6-.2-.9-.3-1.9-.4-2.8-.1-.9-.1-1.9 0-2.7.1-.4.2-.8.4-1.1.1-.2.2-.3.3-.4l.5-.4c.3-.3.7-.5 1.1-.8.4-.2.8-.5 1.2-.7 1.7-.8 3.5-1.4 5.3-2l5.5-1.8c7.3-2.4 14.6-5 21.8-7.8l2.7-1c.5-.2.9-.3 1.4-.5l1.4-.6c1.8-.9 3.4-2 5-3.2s3-2.5 4.4-3.9 2.7-2.9 3.8-4.5l.2-.3-.1-.3c-1.3-4.5-2.3-9.1-3.3-13.7s-1.9-9.3-2.7-13.9c-.8-4.6-1.6-9.3-2.4-14l-2.2-13.9 19.3-1.8c6.2-.6 12.3-1.2 18.5-1.8l-.2 14.4-.2 15-.3 30v.4l.2.2.6.7.6.6.3.3.3.2.6.5c.4.3.9.6 1.3.9.4.3.9.6 1.3.9.4.3.9.5 1.3.8s.9.5 1.3.8l1.4.8 1.4.7c.5.2.9.5 1.4.7l1.4.7c1 .4 1.9.8 2.9 1.2s1.9.8 2.9 1.1l1.5.5c.5.2 1 .3 1.5.4.5.1 1 .3 1.5.4l1.5.4c1 .3 2 .4 3 .6 2 .4 4.1.6 6.2.8 2.1.2 4.1.2 6.2.2 2.1 0 4.1-.1 6.1-.1s4 .1 5 1.3c.5.6.9 1.4 1.2 2.3.3.9.4 1.9.6 2.8.3 2 .4 4 .5 6s.1 4.1.2 6.1c.1 7.9-.1 15.8-.4 23.7-10.8.1-21.5.1-32.3.2h-33.1z" fill="#c5796d" stroke-width="none" opacity="1"></path><path id="SvgjsPath40615" d="M150.7 219.2 147 198l-.4 21.2z" fill="#d4958a" stroke-width="none" opacity="1"></path><path id="SvgjsPath40616" d="M47.3 203.5s2.2 11.5 2.9 15.7h3.5l-6.4-15.7z" fill="#d4958a" stroke-width="none" opacity="1"></path></g><g id="svga-group-clothes-single"><path id="SvgjsPath40988" d="M85.9 154.3c-1.3 2.2-6.7 9.9-6.7 9.9l-.4 2.8s-5 3.5-14 7.3c-9.1 3.8-31 11-32.7 12.3s-1.9 8.6-.9 11.8c1 3.2 3.9 10.4 3.9 20.8h135.8s1-13.9 1.1-18.9c.1-5-.1-21.9-2.5-25.1-2.3-3.2-4.4-2.2-11.2-2.2s-17.8-1.9-25.1-3.8c-7.3-1.9-8.2-4.4-8.2-4.4l-.9-2.6-7.3-8s.3 10.1-.4 14-10.6 8-10.7 9.2c-.5 7.1-2 8.2-2 8.2s-.2-6.3-5.3-8c-1.9-.7-5.6-2.1-6.7-3.9-1.2-1.9-3.4-8.6-3.6-10.9-.2-2.4-2.2-8.5-2.2-8.5z" fill="#09aac5" stroke-width="none" opacity="1"></path><path id="SvgjsPath40989" d="M172.9 195.7c0-3.9-.2-7.9-.5-11.8-.2-2-.4-3.9-.8-5.9-.2-1-.4-2-1.1-3.1-.4-.5-.7-.9-1.1-1.3-.4-.4-.9-.8-1.4-1-1.1-.6-2.3-.6-3.3-.6s-2 0-3 .1c-1.9.1-3.9.1-5.8 0-3.9-.2-7.7-.7-11.6-1.4-3.8-.7-7.7-1.4-11.4-2.4-1.8-.5-3.6-1.1-5.2-2.1-.8-.4-1.5-1.1-1.8-1.6l-.9-2.6-.1-.2-.1-.1-7.3-8-1.7-1.9.1 2.5c.1 3.1.1 6.1 0 9.2-.1 1.5-.1 3.1-.3 4.5-.1 1.2-1.2 2.2-2.3 3.2-1.1.9-2.4 1.8-3.7 2.6-1.3.9-2.6 1.5-3.9 2.6-.2.2-.3.3-.6.7 0 .1-.1.1-.1.2V177.9c0 .4-.1.8-.1 1.1-.1.8-.2 1.5-.3 2.2-.1.7-.3 1.5-.5 2.2 0 .1-.1.1-.1.2-.2-1-.6-1.9-1.1-2.8-.8-1.5-2.1-2.8-3.7-3.4-.8-.3-1.5-.5-2.3-.8l-2.1-.9c-.7-.3-1.3-.8-1.9-1.2-.6-.5-.9-1-1.3-1.8-.7-1.4-1.2-2.9-1.8-4.4-.5-1.5-1-3-1.3-4.6-.1-.7-.2-1.6-.4-2.4-.2-.8-.4-1.6-.6-2.3s-.4-1.5-.7-2.3l-.4-1.1-.2-.6-.1-.3-.1-.1v-.1c0-.1-.1-.1-.1-.1-.2.2-.4.5-.5.7l-.4.6-.8 1.2-1.7 2.4-3.5 4.9v.2l-.4 2.6c-5.9 3.7-12.2 6.5-18.8 8.9-6.6 2.4-13.2 4.6-19.9 7-1.7.6-3.3 1.2-5 1.8-.8.3-1.7.6-2.5 1-.2.1-.4.2-.7.4-.3.2-.5.4-.7.7-.3.5-.5.9-.7 1.4-.5 1.9-.6 3.7-.7 5.5 0 1.8.1 3.6.7 5.5 1.1 3.4 2.2 6.6 2.8 10 .7 3.4 1 6.8 1 10.3v.9h.8c11.3 0 22.6-.2 33.9-.3 11.3-.2 22.6-.2 33.9-.2 11.3 0 22.6.1 33.9.2l33.9.3h.8l.1-.8.9-11.7c.4-4.3.7-8.3.6-12.2zm-58.7-23.4c.6-.5 1.2-1.1 1.8-1.7.3-.3.5-.7.7-1.1.2-.4.4-.9.4-1.3.3-1.6.3-3.1.4-4.7.1-2.3.1-4.5.1-6.8l5.5 6.1.4 1.2.2.7.1.4.1.2c.1.2.1.2.2.3.3.5.7.9 1 1.2.2 1.1.4 2.1.5 3.1.3 2.4.6 4.8 1.1 7.1.4 2.4.8 4.7 1.4 7.1.3 1.2.5 2.4 1 3.6l.3.9c-1.8-1.1-3.5-2.3-5.1-3.6-.3-.2-.5-.4-.8-.7l-.8-.7-1.7-1.5-3.3-2.9c-1.1-1-2.2-1.9-3.3-2.9l-.4-.4c-.1-.1-.2-.2-.5-.4-.5-.4-1-.4-1.4-.5-.7 0-1.3 0-1.9.2h.1c1.3-1 2.6-1.9 3.9-2.9zm-7.9 5.2c0-.1 0 0 0 0zm-.5 3.9c.2-.8.3-1.6.3-2.3.1-.4.1-.8.1-1.2v-.3l.2-.2c.3-.2.6-.4.9-.7.1-.1.3-.1.4-.1.7-.2 1.4-.3 2.1-.5.7-.1 1.4-.1 2-.1.3.1.6.1.7.2l.3.3.4.4c.6.6 1.2 1.3 1.9 1.9-1.7.8-3.3 1.5-5 2.1-.9.4-1.9.7-2.8.9-.6.2-1.2.3-1.8.5.2-.1.3-.5.3-.9zm-26.3-17 3.3-4.9 1.6-2.5.8-1.3.4-.6c.1-.2.2-.3.2-.5v.1l.1.3.2.6.3 1.1c.2.8.4 1.5.6 2.3s.4 1.6.5 2.3c.2.8.2 1.5.3 2.4.3 1.6.7 3.1 1.2 4.7.5 1.5 1 3.1 1.7 4.5.3.7.8 1.6 1.4 2.1.6.6 1.3 1 2.1 1.4.7.4 1.5.7 2.2 1 .7.3 1.6.6 2.2.9 1.9.8 3.1 2.6 3.7 4.5-2.4-.7-4.8-1.2-7.3-1.8-2.3-.5-4.6-.9-7-1.2.3-.6.7-1.3 1.1-1.9.3-.4.5-.9.9-1.1.3-.3.8-.4 1.2-.5 1-.1 2 0 3 .2-1-.4-2-.7-3.1-.8-.5 0-1.2.1-1.7.4-.5.4-.8.8-1.2 1.2-1.3 1.7-2.3 3.5-3.5 5.2l-.9 1.2c-.3.3-.6.7-1 1-.7.6-1.5 1.2-2.4 1.8l-3.3 2.1c.3-1.4.6-2.8.8-4.2.4-2.1.6-4.4.7-6.6.1-2.2.2-4.4.2-6.5 0-1.1 0-2.2-.1-3.3 0-.2 0-.4-.1-.7l.1-.1v-.1l.8-2.7zM53 218.5c-.3-2.9-.8-5.9-1.4-8.8-.3-1.6-.7-3.2-1.1-4.8-.2-.8-.5-1.6-.8-2.4-.3-.8-.8-1.6-1.2-2.3-2-2.7-4.3-5.1-6.8-7.2-1.2-1.1-2.5-2.1-3.9-3-1.4-.9-2.8-1.7-4.4-2.2 2.7 1.7 5 4 7.2 6.3 1.1 1.1 2.2 2.3 3.2 3.5 1 1.2 2.1 2.4 2.9 3.7.4.6.8 1.2 1.1 1.9.3.7.5 1.5.8 2.2.5 1.5 1 3.1 1.4 4.6.8 2.8 1.7 5.6 2.7 8.4-5.6-.1-11.3-.1-16.9-.1 0-3.3-.4-6.6-1-9.8-.3-1.8-.8-3.5-1.2-5.2-.5-1.7-1.1-3.4-1.7-5-.5-1.5-.6-3.2-.7-4.9 0-1.7.1-3.4.5-4.9.1-.4.3-.7.4-1 .1-.1.1-.2.2-.2.1-.1.3-.2.5-.2.8-.4 1.6-.7 2.4-1 1.6-.6 3.3-1.2 4.9-1.9 6.6-2.4 13.2-4.7 19.8-7.3 3.3-1.3 6.5-2.6 9.7-4.2 3-1.5 5.9-3.1 8.7-5v.4c-.1 1.1-.2 2.1-.4 3.2l-.8 6.4-.4 3.2c-.2 1-.4 2.1-.6 3.1-.4 2.1-.9 4.2-1.3 6.4l-.5 2.2 1.9-1.1c1.8-1.1 3.6-2.1 5.3-3.4.8-.6 1.7-1.3 2.5-2.1.4-.4.8-.8 1.1-1.3.3-.5.6-.9.8-1.4.7-1.1 1.2-2.3 1.8-3.4 2.2.9 4.5 1.6 6.8 2.1 2.5.5 5 .9 7.5.8.3.9.5 1.9.5 2.8v.8l-.1.1c-.5.6-1 1.2-1.5 1.9l-.8.9c-.1.2-.2.2-.4.5-.2.2-.3.4-.4.7-.3.9-.4 1.8-.4 2.6v2.4c0 1.6.1 3.2.2 4.8.1 3.2.3 6.4.5 9.6.2 3.1.6 6.1 1.1 9.1-10.8 0-21.5-.1-32.3-.2-4.7-.2-10.1-.2-15.4-.3zm117.7-11.1-.6 11-17.2.2c.8-3.7 1.4-7.4 2-11.2.6-3.8 1.2-7.7 1.8-11.5.3-1.9.7-3.8 1.3-5.5.6-1.8 1.5-3.4 2.5-5.1 1-1.6 2.1-3.2 3.4-4.6 1.2-1.5 2.6-2.9 4.1-4.1-1.7.9-3.3 2.1-4.8 3.5-1.4 1.3-2.8 2.8-4 4.4-1.2 1.6-2.2 3.4-3 5.2-.4.9-.7 1.9-.9 2.9-.2 1-.4 1.9-.6 2.9-.6 3.9-1.1 7.8-1.4 11.6-.3 3.8-.5 7.6-.5 11.4l-15.9.1c-11.3.1-22.6.1-33.9.2h-1.6c.3-3.1.4-6.1.5-9.2 0-3.2 0-6.4-.2-9.6-.1-1.6-.2-3.2-.4-4.8-.1-1.6-.4-3.2-.1-4.5 0-.2.1-.3.1-.4 0-.1.2-.3.3-.4l.7-1c.4-.7.9-1.4 1.3-2.1.1-.2.2-.5.4-.7l.1-.1c.2-.2.2-.2.3-.4.1-.1.1-.2.2-.3l.3-.6c.2-.4.3-.8.4-1.1.1-.3.2-.6.2-.8.7 0 1.4 0 2.1-.1 1-.1 2.1-.4 3-.8s1.9-.8 2.8-1.4c.7-.4 1.4-.9 2-1.5.4.4.8.7 1.1 1.1l3.2 3 1.6 1.5.8.8c.3.3.6.5.9.8 2.4 1.9 4.8 3.5 7.4 5.1l1.8 1.1-.3-2c-.2-1.4-.6-2.6-1.1-3.7-.4-1-.7-2.1-1-3.3-.6-2.3-1.1-4.6-1.7-6.9-.5-2.3-1.1-4.6-1.6-7l-.6-2.4c.3.2.5.4.8.5 1.8 1.1 3.8 1.7 5.7 2.3 3.8 1 7.7 1.8 11.6 2.5 3.9.7 7.8 1.2 11.8 1.4 2 .1 4 .1 6 0 1 0 2-.1 2.9-.1.9 0 1.8.1 2.4.4.3.1.6.4.9.7.3.3.6.7.8.9.4.6.6 1.6.8 2.4.4 1.8.6 3.8.9 5.7.4 3.9.6 7.8.6 11.7 0 4.1-.2 8-.4 11.9zm-67.1-16.3c.8 0 1.4.6 1.4 1.4s-.6 1.4-1.4 1.4-1.4-.6-1.4-1.4.6-1.4 1.4-1.4zm4.4-13.3c.6 0 1.1.5 1.1 1.1s-.5 1.1-1.1 1.1-1.1-.5-1.1-1.1.5-1.1 1.1-1.1zm-3.8 30.6c.7 0 1.3.6 1.3 1.3s-.6 1.3-1.3 1.3-1.3-.6-1.3-1.3.7-1.3 1.3-1.3z" fill="#008fa6" stroke-width="none" opacity="1"></path></g><g id="svga-group-head" transform="matrix(1,0,0,1,0,0)"><g id="svga-group-ears-left-move" transform="matrix(1,0,0,1,0,0)"><g id="svga-group-ears-left"><path id="SvgjsPath40557" d="M61.04 91.08s-5.83-5.5-11.22-8.06c0 0-2.8.42-6.02 3.31 0 0 2.24 4.78 4.24 7.15s4.83 10.33 5.06 12.61c.23 2.28-.7 6.43-.57 7.76.13 1.34 3.12 1.44 3.12 1.44s5.5-3.12 8.94-7.93c-.01-.01-1.05-8.96-3.55-16.28z" fill="#f3d4cf" stroke-width="none" opacity="1"></path><path id="SvgjsPath40558" d="M61.34 97.94c.04-.27-8.21-9.91-14.16-11.02 0 0 1.66 5.41 2.79 7.19 1.12 1.78 4.76 10.6 4.44 15.1 0 0 3.82-2.19 5.96-3.95-.01 0 .52-4.18.97-7.32z" fill="#e4b3ab" stroke-width="none" opacity="1"></path><path id="SvgjsPath40559" d="m43.59 86.1-.17.15.1.2c.63 1.26 1.3 2.48 2.02 3.69.72 1.2 1.5 2.38 2.41 3.45.85 1.07 1.48 2.33 2.06 3.59.56 1.27 1.07 2.57 1.53 3.88.44 1.32.85 2.65 1.15 4 .34 1.33.15 2.7 0 4.08-.16 1.38-.42 2.74-.52 4.18-.01.18-.01.37.01.57.04.24.13.47.27.65.29.35.66.54 1.01.68.72.27 1.42.38 2.16.43l.1.01.09-.05c1.76-1.03 3.4-2.22 4.93-3.56.77-.66 1.49-1.37 2.19-2.12.7-.74 1.33-1.54 1.94-2.36l.09-.12-.02-.14a95.27 95.27 0 0 0-1.51-8.23 92.39 92.39 0 0 0-1.04-4.05c-.39-1.33-.84-2.66-1.32-3.97-.83-.84-1.68-1.6-2.55-2.37-.87-.77-1.77-1.49-2.69-2.2-1.84-1.42-3.78-2.71-5.88-3.75l-.09-.04-.09.02c-.63.11-1.17.3-1.73.52-.55.22-1.09.48-1.6.78-.51.3-1.01.62-1.48.98-.48.33-.93.71-1.37 1.1zm.59.31c.38-.32.76-.63 1.16-.92.46-.34.94-.64 1.43-.92.5-.27 1-.53 1.52-.74.49-.2 1.01-.38 1.5-.48.99.48 1.96 1.02 2.91 1.6.97.62 1.94 1.24 2.87 1.9.94.67 1.85 1.37 2.77 2.07.91.7 1.81 1.45 2.68 2.18.39 1.33.75 2.66 1.06 4.02.32 1.35.62 2.7.87 4.07.51 2.67.94 5.37 1.25 8.06-.56.75-1.15 1.48-1.81 2.16-.68.72-1.39 1.41-2.14 2.05-1.47 1.26-3.04 2.45-4.69 3.45-.62-.04-1.27-.13-1.83-.34-.29-.11-.57-.26-.72-.45a.69.69 0 0 1-.14-.3c-.01-.14-.02-.31-.01-.47.06-1.35.28-2.75.41-4.14.11-1.38.24-2.85-.16-4.24-.35-1.36-.81-2.69-1.3-4-.48-1.31-1-2.61-1.59-3.88-.58-1.27-1.17-2.55-2.04-3.68-.86-1.08-1.57-2.28-2.24-3.49-.63-1.15-1.21-2.33-1.76-3.51z" fill="#e4b3ab" stroke-width="none" opacity="1"></path><path id="SvgjsPath40560" d="M52.51 91.07c.88.94 1.65 1.98 2.36 3.05.71 1.07 1.38 2.16 1.98 3.3.61 1.13 1.17 2.28 1.65 3.46l-.07.03c-.65-1.1-1.32-2.18-1.99-3.26-.69-1.07-1.36-2.14-2.1-3.17-.74-1.03-1.48-2.05-2.28-3.02-.67-.82-1.38-1.61-2.19-2.29l1.66 3.8a76.96 76.96 0 0 1 1.81 4.41c.56 1.49 1.02 3.02 1.38 4.59.25 1.1.46 2.22.51 3.37a7.534 7.534 0 0 0 .84-3c-.44-1.61-.88-3.21-1.27-4.84l.07-.02c.62 1.57 1.18 3.17 1.75 4.76l.01.04v.05c-.01.82-.15 1.65-.41 2.43-.12.39-.28.78-.46 1.15-.18.38-.38.72-.64 1.09l-.77 1.07.09-1.34c.1-1.51-.17-3.07-.47-4.6-.31-1.53-.74-3.05-1.21-4.56-.46-1.51-.95-3.01-1.51-4.5-.58-1.47-1.18-2.94-1.91-4.34l-.25-.48.47.3c1.12.69 2.07 1.58 2.95 2.52z" fill="#c5796d" stroke-width="none" opacity="1"></path></g></g><g id="svga-group-ears-right-move" transform="matrix(1,0,0,1,0,0)"><g id="svga-group-ears-right"><path id="SvgjsPath40561" d="M138.96 91.08s5.83-5.5 11.22-8.06c0 0 2.8.42 6.02 3.31 0 0-2.24 4.78-4.24 7.15s-4.83 10.33-5.06 12.61c-.23 2.28.7 6.43.57 7.76-.13 1.34-3.12 1.44-3.12 1.44s-5.5-3.12-8.94-7.93c.01-.01 1.05-8.96 3.55-16.28z" fill="#f3d4cf" stroke-width="none" opacity="1"></path><path id="SvgjsPath40562" d="M138.66 97.94c-.04-.27 8.21-9.91 14.16-11.02 0 0-1.66 5.41-2.79 7.19-1.12 1.78-4.76 10.6-4.44 15.1 0 0-3.82-2.19-5.96-3.95.01 0-.52-4.18-.97-7.32z" fill="#e4b3ab" stroke-width="none" opacity="1"></path><path id="SvgjsPath40563" d="M155.04 84.98c-.47-.35-.97-.67-1.48-.98-.51-.3-1.05-.56-1.6-.78-.56-.22-1.11-.41-1.73-.52l-.09-.02-.09.04c-2.1 1.04-4.05 2.33-5.88 3.75-.92.71-1.82 1.43-2.69 2.2-.87.77-1.72 1.54-2.55 2.37-.48 1.31-.93 2.64-1.32 3.97-.38 1.34-.73 2.69-1.04 4.05-.62 2.72-1.12 5.46-1.51 8.23l-.02.14.09.12c.61.82 1.24 1.62 1.94 2.36.7.74 1.42 1.45 2.19 2.12 1.53 1.34 3.16 2.53 4.93 3.56l.09.05.1-.01c.74-.05 1.45-.16 2.16-.43.35-.14.72-.33 1.01-.68.14-.18.24-.41.27-.65.02-.2.02-.39.01-.57-.09-1.44-.36-2.8-.52-4.18-.15-1.38-.34-2.75 0-4.08.3-1.35.71-2.68 1.15-4 .46-1.31.97-2.61 1.53-3.88.58-1.26 1.21-2.52 2.06-3.59.91-1.08 1.68-2.25 2.41-3.45.72-1.2 1.39-2.43 2.02-3.69l.1-.2-.17-.15c-.44-.37-.89-.75-1.37-1.1zm-.97 4.94c-.67 1.21-1.37 2.42-2.24 3.49-.87 1.13-1.47 2.41-2.04 3.68-.58 1.27-1.11 2.57-1.59 3.88-.49 1.31-.94 2.63-1.3 4-.4 1.39-.27 2.85-.16 4.24.13 1.39.35 2.79.41 4.14.01.17 0 .33-.01.47-.02.11-.06.21-.14.3-.15.19-.43.34-.72.45-.56.21-1.21.3-1.83.34-1.65-1-3.22-2.19-4.69-3.45-.75-.64-1.46-1.33-2.14-2.05-.65-.68-1.24-1.41-1.81-2.16.31-2.69.74-5.39 1.25-8.06.25-1.36.55-2.72.87-4.07.31-1.36.67-2.69 1.06-4.02.87-.73 1.77-1.48 2.68-2.18.91-.7 1.83-1.41 2.77-2.07.94-.67 1.91-1.29 2.87-1.9.95-.58 1.92-1.12 2.91-1.6.49.1 1.01.28 1.5.48.52.22 1.02.47 1.52.74.49.28.97.58 1.43.92.4.29.78.6 1.16.92-.56 1.18-1.14 2.36-1.76 3.51z" fill="#e4b3ab" stroke-width="none" opacity="1"></path><path id="SvgjsPath40564" d="M147.49 91.07c-.88.94-1.65 1.98-2.36 3.05-.71 1.07-1.38 2.16-1.98 3.3-.61 1.13-1.17 2.28-1.65 3.46l.07.03c.65-1.1 1.32-2.18 1.99-3.26.69-1.07 1.36-2.14 2.1-3.17.74-1.03 1.48-2.05 2.28-3.02.67-.82 1.38-1.61 2.19-2.29l-1.66 3.8a76.96 76.96 0 0 0-1.81 4.41c-.56 1.49-1.02 3.02-1.38 4.59-.25 1.1-.46 2.22-.51 3.37a7.534 7.534 0 0 1-.84-3c.44-1.61.88-3.21 1.27-4.84l-.07-.02c-.62 1.57-1.18 3.17-1.75 4.76l-.01.04v.05c.01.82.15 1.65.41 2.43.12.39.28.78.46 1.15.18.38.38.72.64 1.09l.77 1.07-.09-1.34c-.1-1.51.17-3.07.47-4.6.31-1.53.74-3.05 1.21-4.56.46-1.51.95-3.01 1.51-4.5.58-1.47 1.18-2.94 1.91-4.34l.25-.48-.47.3c-1.12.69-2.07 1.58-2.95 2.52z" fill="#c5796d" stroke-width="none" opacity="1"></path></g></g><g id="svga-group-faceshape-wrap"><g id="svga-group-faceshape-single"><path id="SvgjsPath40593" d="M135.9 49.8c-6.7-7.4-11.3-13.2-28.8-17.3-1.8-.4-12.3-.4-14.1 0-17.5 4.1-22.1 9.9-28.8 17.3-7.1 7.8-9.5 29-9.5 29 0 9.6 1.3 32.3 13.3 47.2 17.8 22.2 32.1 22.3 32.1 22.3s14.2 0 32.1-22.3c12-14.9 13.3-37.6 13.3-47.2-.1 0-2.5-21.2-9.6-29z" fill="#f3d4cf" stroke-width="none" opacity="1"></path><path id="SvgjsPath40594" d="M107.1 32.5c-1.8-.4-12.3-.4-14.1 0-17.5 4.1-22.1 9.9-28.8 17.3-7.1 7.8-9.5 29-9.5 29 0 9.6 1.3 32.3 13.3 47.2 17.8 22.2 32.1 22.3 32.1 22.3s14.2 0 32.1-22.3c12-14.9 13.3-37.6 13.3-47.2 0 0-2.4-21.2-9.5-29-6.9-7.4-11.5-13.2-28.9-17.3zM142 63.8c.7 2.5 1.1 5 1.6 7.5.4 2.5.7 5 1 7.5-.2 7.4-1.3 14.8-3 22-.9 3.6-1.9 7.1-3.3 10.5-.7 1.7-1.4 3.4-2.2 5s-1.7 3.2-2.7 4.7l-1.5 2.2c-.3.4-3.4 4.2-3.4 4.2l-3.7 4.1-6.1 5.7c-2.8 2.3-5.8 4.5-9 6.2l-1.2.6-1.2.6c-.8.4-1.6.7-2.5 1l-1.3.4c-.4.1-.8.2-1.3.3-.4.1-1.71.43-2.9.4 0 0-1.4-.2-1.9-.3-.4-.1-.9-.2-1.3-.3l-1.3-.4c-.8-.3-1.7-.6-2.5-1l-1.2-.5-1.2-.6c-3.2-1.6-6.3-3.7-9.1-6l-4.1-3.6-3.9-3.9-1-1-.9-1-1.8-2.1c-1.2-1.4-2.3-2.8-3.3-4.4-1-1.5-2-3.1-2.8-4.8-.8-1.6-1.6-3.3-2.3-5.1-.7-1.7-1.3-3.5-1.8-5.3s-1-3.6-1.4-5.4-.8-3.6-1-5.5c-.3-1.8-.5-3.7-.7-5.5-.4-3.7-.5-7.4-.5-11.1.3-2.3.8-4.6 1.2-6.9.5-2.3 1.1-4.6 1.7-6.8.7-2.2 1.4-4.5 2.3-6.6.4-1.1.9-2.1 1.4-3.1s2.59-4.47 6.3-8.1c1.6-1.7 3.3-3.3 5-4.7 3.5-2.8 7.7-4.9 12-6.5l1.6-.6c6.69-2.31 10.6-2.2 11.8-2.3 2.3-.1 4.71-.26 7-.1 3.16.22 6.8 1.4 6.8 1.4 2.3.6 4.5 1.3 6.7 2.3.3.1 1.6.7 1.6.7.5.3 2.6 1.3 3.1 1.7.5.3 5.3 3.7 6.9 5.4 1.7 1.7 3.3 3.4 4.9 5.2 1.7 1.9 2.9 4.2 3.9 6.6 1.1 2.4 1.9 4.8 2.5 7.3z" fill="#c5796d" stroke-width="none" opacity="1"></path></g></g><g id="svga-group-mouth-single-move" transform="matrix(1,0,0,1,0,0)"><g id="svga-group-mouth-single"><path id="SvgjsPath40544" d="M86.91 124.8c.07.65 1.73 1.37 3.46 1.87s6.92.58 9.44.65c2.52.07 13.47-2.02 14.48-2.59 1.01-.58-6.77-3.6-9.51-3.1s-5.12 2.16-6.56 1.8-3.53-1.87-4.83-1.3c-1.3.58-3.82 2.31-4.47 2.38-.64.07-2.01.29-2.01.29z" fill="#d35a68" stroke-width="none" opacity="1"></path><path id="SvgjsPath40545" d="M86.04 124.67c1.27 1.34 2.83 1.27 4.34.24.69-.47 1.37-1.28 2.13-1.64 1.5-.72 2.18-.19 3.42.37.97.44 1.78.68 2.89.55 1.16-.14 1.96-.64 3.01-1.08 2.44-.99 4.14-.26 6.51.73 2.75 1.17 5.14 2.17 8.04.5.39-.23.17-.78-.34-.68-4.06.76-6.65-2.56-9.91-3.36-2.72-.67-4.16.44-6.33 1.51-1.05.53-1.25 1.23-2.98.41-.47-.23-.82-.71-1.27-.97-.73-.43-1.44-.61-2.31-.5-2.36.3-4.5 4.11-6.75 3.16-.42-.19-.75.45-.45.76z" fill="#c4404f" stroke-width="none" opacity="1"></path></g></g><g id="svga-group-eyes-left-move" transform="matrix(1,0,0,1,0,0)"><g id="svga-group-eyes-left"><g id="svga-group-eyesback-left"><path id="SvgjsPath40683" d="M80.2 77.2c7.5 0 13.5 5.8 13.5 13s-6 13-13.5 13-13.5-5.8-13.5-13 6-13 13.5-13z" fill="#ffffff" stroke-width="none" opacity="1"></path></g><g id="svga-group-eyesiriswrapper-left" transform="matrix(1,0,0,1,0,0)"><g id="svga-group-eyesiriscontrol-left" transform="matrix(1,0,0,1,0,0)"><g id="svga-group-eyesiris-left"><path id="SvgjsPath40631" d="M80.2 84.9c2.9 0 5.3 2.4 5.3 5.3s-2.4 5.3-5.3 5.3-5.3-2.4-5.3-5.3 2.4-5.3 5.3-5.3z" fill="#572f17" stroke-width="none" opacity="1"></path><path id="SvgjsPath40632" d="M80.2 95.8c-3.1 0-5.6-2.5-5.6-5.6s2.5-5.6 5.6-5.6 5.6 2.5 5.6 5.6c0 3.1-2.5 5.6-5.6 5.6zm0-10.6c-2.8 0-5.1 2.3-5.1 5.1s2.3 5.1 5.1 5.1 5.1-2.3 5.1-5.1c-.1-2.9-2.3-5.1-5.1-5.1z" fill="#381704" stroke-width="none" opacity="1"></path><path id="SvgjsPath40633" d="M85.3 90.2c-.7 0-1.3-.1-2 0 0-.3 0-.6-.1-.8.8-.1 1.5-.3 2.2-.6.2-.1.1-.3-.1-.3-.7.2-1.5.4-2.2.7 0-.1-.1-.2-.1-.3.3-.1.6-.3.9-.4.4-.2.8-.3 1.1-.4.1-.1.1-.3-.1-.2-.7.1-1.5.4-2.1.9 0-.1-.1-.1-.1-.2.2-.2.5-.3.7-.5.3-.3.7-.5 1-.8.1-.1 0-.3-.2-.2-.3.3-.7.6-1 .8-.2.2-.4.3-.7.5l-.3-.3c.5-.6.9-1.3 1.3-1.9.1-.1-.1-.2-.2-.1-.5.6-1 1.2-1.4 1.9-.1-.1-.2-.1-.3-.2.2-.8.3-1.6.3-2.3 0-.2-.3-.2-.3 0-.1.6-.2 1.1-.3 1.7 0 .2-.1.3-.1.5-.2-.1-.4-.1-.6-.1 0-.8-.1-1.5-.3-2.2 0-.1-.1 0-.1 0-.1.7-.1 1.4-.1 2.2h-.4c0-.2-.1-.4-.1-.6-.1-.5-.1-1-.2-1.4 0-.1-.2-.1-.2 0-.1.6 0 1.4.2 2.1-.1 0-.2 0-.2.1-.2-.7-.4-1.5-.7-2.1 0-.1-.2-.1-.2.1.1.7.3 1.5.6 2.2 0 0-.1 0-.1.1-.3-.7-.9-1.3-1.3-1.9-.1-.1-.2 0-.1.1.4.7.7 1.4 1.2 2-.1.1-.2.1-.2.2-.1-.1-.2-.3-.3-.4-.3-.4-.7-.9-1.1-1.2-.1-.1-.2 0-.2.1.2.4.6.8.9 1.2.1.2.3.4.4.5l-.4.4c-.6-.5-1.2-.9-1.8-1.2-.1 0-.1.1-.1.1.5.5 1.1 1 1.7 1.4-.1.2-.2.3-.3.5-.1 0-.2-.1-.3-.1-.6-.2-1.2-.5-1.8-.7-.2-.1-.2.2-.1.2.5.3 1.1.5 1.6.7.2.1.3.2.5.2 0 .1 0 .2-.1.3-.2 0-.3-.1-.5-.1-.5-.1-1.1-.2-1.7-.1-.1 0-.1.2 0 .2.6.2 1.4.3 2.1.4v.5c-.3.1-.6.2-.9.4-.4.2-.8.2-1.2.5-.1.1-.1.3.1.3.5 0 .9-.2 1.4-.4.2-.1.5-.2.7-.3 0 .2.1.3.1.5-.1.1-.2.1-.3.2-.5.3-1 .6-1.5 1-.1.1 0 .3.2.2.6-.3 1.1-.7 1.6-1 .1 0 .1-.1.2-.1.1.1.2.3.3.4-.6.5-1 1.1-1.5 1.6-.1.1 0 .2.1.1.5-.4 1.1-.9 1.6-1.4l.3.3c-.2.2-.3.4-.4.6-.3.4-.7.9-.9 1.3-.1.1.1.2.2.1.3-.4.7-.8 1-1.2.2-.2.3-.4.5-.6.1 0 .1.1.2.1-.1.2-.2.3-.2.4-.2.5-.5.9-.7 1.4 0-.8.2-.7.3-.8.3-.4.5-1 .8-1.5.1-.1.1-.3.2-.4h.1c-.3.7-.5 1.4-.6 2.2 0 .1.2.1.2 0 .2-.7.5-1.4.7-2.1.1 0 .2 0 .3.1-.2.7-.2 1.6-.3 2.3 0 .2.3.2.3 0 0-.8.2-1.5.2-2.3h.2c-.1.7-.1 1.5 0 2.2 0 .2.3.2.3 0-.1-.7 0-1.5-.1-2.2.2 0 .4-.1.7-.2.1.3.3.7.4 1 .2.3.3.8.6 1 .1 0 .1 0 .1-.1 0-.3-.2-.7-.4-1-.2-.3-.3-.7-.5-1 .1 0 .1-.1.2-.1.1.3.3.6.5.9s.3.8.6 1c.1.1.2 0 .2-.1-.1-.4-.4-.8-.6-1.1-.2-.3-.3-.6-.5-.8.1-.1.2-.1.3-.2.4.6.8 1.2 1.3 1.7.2.2.4-.1.2-.2-.5-.5-.9-1.1-1.4-1.6.2-.2.4-.4.5-.6.6.4 1.2.9 1.8 1.3.1.1.3-.1.2-.2-.6-.5-1.2-.9-1.8-1.2 0-.1.1-.1.1-.2.6.4 1.3.7 1.9.9.2.1.2-.2.1-.2-.6-.3-1.3-.7-2-.9.1-.2.2-.5.2-.8.7.1 1.4.1 2 .1.5 0 .5-.5.2-.5z" fill="#381704" stroke-width="none" opacity="1"></path><path id="SvgjsPath40634" d="M80.2 87.3c1.6 0 2.9 1.3 2.9 2.9s-1.3 2.9-2.9 2.9-2.9-1.3-2.9-2.9 1.3-2.9 2.9-2.9z" fill="#000000" stroke-width="none" opacity="1"></path><path id="SvgjsPath40635" d="M78.6 87.7c.6 0 1.1.5 1.1 1.1s-.5 1.2-1.1 1.2-1.1-.5-1.1-1.1.5-1.2 1.1-1.2zm3.5 4.1c.3 0 .6.3.6.6s-.2.6-.6.6-.6-.3-.6-.6.3-.6.6-.6z" fill="#ffffff" stroke-width="none" opacity="1"></path></g></g></g><g id="svga-group-eyesfront-left"><path id="SvgjsPath40691" d="M80.2 76.7c-7.8 0-14.1 6.1-14.1 13.6s6.3 13.6 14.1 13.6 14.1-6.1 14.1-13.6S88 76.7 80.2 76.7zm-9 16.3c-5.8-3.4-4.7-12.6 6.7-8.9 8.5 2.8 14.4 10.4 14.4 10.4C82 95.8 76.9 96.4 71.2 93z" fill="#f3d4cf" stroke-width="none" opacity="1" stroke="none"></path><path id="SvgjsPath40692" d="M93.2 95.3s-3.9-3.3-6.5-4.7c-2.6-1.4-6.6-5.5-11.2-5.6-4.6-.1-9.4 3.8-9.4 3.8s.9-5.2 4.1-7.8c3.2-2.6 6.2-1.3 10.3 1.1s10.9 8.5 12.7 13.2z" fill="#ebc3bd" stroke-width="none" opacity="1" stroke="none"></path><path id="SvgjsPath40693" d="M93.2 95.3c-1.8-1.8-3.8-3.5-5.9-5.1-1-.8-2.1-1.5-3.2-2.2l-1.6-1c-.6-.3-1.1-.7-1.7-1-1.2-.7-2.5-1.2-3.9-1.4-1.4-.2-2.8-.1-4.1.2-.5.1-1 .3-1.5.5-.5-.2-1.8-.7-3.2-1.3.7-1.2 1.6-2.4 2.8-3.2.6-.4 1.3-.8 2.1-.9.8-.1 1.5-.1 2.3.1 1.5.4 2.9 1.1 4.3 1.9 2.8 1.6 5.3 3.6 7.7 5.8 1.2 1.1 2.3 2.3 3.3 3.5 1 1.3 2 2.6 2.6 4.1-.6-1.5-1.5-2.9-2.4-4.2-1-1.3-2.1-2.5-3.2-3.6-1.2-1.1-2.4-2.2-3.6-3.2-1.3-1-2.6-2-4-2.8-1.4-.8-2.8-1.6-4.5-2-.8-.2-1.7-.2-2.5-.1s-1.6.5-2.3 1c-1.3.9-2.3 2.1-3 3.4-.9-.4-1.8-.9-2.6-1.4-.1-.1-.3-.1-.4.1-.1.1-.1.3.1.4.7.5 1.7 1 2.6 1.4-.3.5-.5 1-.7 1.6-1.6-.4-3.5-1-4.8-1.7-.1-.1-.3 0-.4.1s0 .3.1.4c1.3.7 3.2 1.3 4.9 1.7-.1.3-.2.7-.3 1-1.7.1-4.3 0-6.5-.9-.2-.1-.3 0-.4.2s0 .3.2.4c2 .8 4.2 1 5.9 1h.6c-.1.2-.1.5-.2.7 0 .1 0 .2.1.2.1.1.3.1.4.1.5-.3.9-.7 1.4-1 .1.7.2 1.4.6 2.1.5 1.2 1.4 2.1 2.4 2.8 2.1 1.4 4.5 2.3 6.9 2.6 1.2.2 2.5.2 3.7.2 1.2 0 2.5-.1 3.7-.2 2.4-.2 4.7-.6 7.1-.9.3.2.7.4 1.1.6zM67.8 84.6c1 .5 2 .9 2.7 1.1-.5.2-1 .5-1.4.8-.4-.1-1.1-.2-1.9-.4.1-.5.4-1 .6-1.5zm-.9 2c.5.1 1 .2 1.4.3-.1.1-.2.2-.3.2-.1.1-.3.2-.4.2-.1 0-.4.1-1 .1.2-.2.2-.5.3-.8zm-.3 1.4c-.1 0-.1.1-.2.1V88h.2zm18.3 7.1c-2.4.2-4.9.2-7.3-.1-2.4-.4-4.7-1.2-6.7-2.5-1-.7-1.8-1.6-2.4-2.6-.3-.7-.5-1.4-.6-2.1 1.7-.8 3.4-1.4 5.1-1.7 1.2-.2 2.4-.2 3.6.1 1.2.2 2.3.7 3.3 1.2 1.1.6 2.2 1.3 3.3 1.9 1.1.6 2.2 1.3 3.3 1.9l5.4 3.3c-2.3.3-4.6.5-7 .6z" fill="#000000" stroke-width="none" opacity="1" stroke="none"></path></g></g></g><g id="svga-group-eyes-right-move" transform="matrix(1,0,0,1,0,0)"><g id="svga-group-eyes-right"><g id="svga-group-eyesback-right"><path id="SvgjsPath40684" d="M119.8 77.2c7.5 0 13.5 5.8 13.5 13s-6 13-13.5 13-13.5-5.8-13.5-13 6-13 13.5-13z" fill="#ffffff" stroke-width="none" opacity="1"></path></g><g id="svga-group-eyesiriswrapper-right" transform="matrix(1,0,0,1,0,0)"><g id="svga-group-eyesiriscontrol-right" transform="matrix(1,0,0,1,0,0)"><g id="svga-group-eyesiris-right"><path id="SvgjsPath40636" d="M119.8 85.5c2.6 0 4.7 2.1 4.7 4.7s-2.1 4.7-4.7 4.7-4.7-2.1-4.7-4.7 2.1-4.7 4.7-4.7z" fill="#572f17" stroke-width="none" opacity="1"></path><path id="SvgjsPath40637" d="M119.8 95.1c-2.7 0-4.9-2.2-4.9-4.9s2.2-4.9 4.9-4.9 4.9 2.2 4.9 4.9-2.2 4.9-4.9 4.9zm0-9.3c-2.4 0-4.4 2-4.4 4.4s2 4.4 4.4 4.4 4.4-2 4.4-4.4c0-2.4-2-4.4-4.4-4.4z" fill="#381704" stroke-width="none" opacity="1"></path><path id="SvgjsPath40638" d="M124.2 90.2c-.6 0-1.2-.1-1.8 0 0-.2 0-.5-.1-.7.7-.1 1.3-.3 2-.5.2-.1.1-.3-.1-.3-.7.1-1.3.3-2 .6 0-.1-.1-.2-.1-.3.3-.1.5-.2.8-.3.3-.1.7-.2 1-.4.1-.1.1-.2-.1-.2-.6.1-1.3.4-1.8.8 0-.1-.1-.1-.1-.2.2-.1.4-.3.6-.4.3-.2.6-.4.9-.7.1-.1 0-.3-.2-.2-.3.2-.6.5-.9.7-.2.1-.4.3-.6.4l-.3-.3c.4-.5.8-1.1 1.1-1.7 0-.1-.1-.2-.1-.1-.4.5-.9 1.1-1.2 1.6-.1-.1-.2-.1-.3-.2.2-.7.2-1.4.2-2 0-.1-.2-.2-.3 0-.1.5-.1 1-.2 1.5 0 .1-.1.3-.1.4-.2-.1-.3-.1-.5-.1 0-.7-.1-1.3-.2-1.9 0-.1-.1 0-.1 0-.1.6-.1 1.3-.1 1.9h-.4c0-.2-.1-.3-.1-.5-.1-.4-.1-.8-.2-1.3 0-.1-.2-.1-.2 0-.1.5 0 1.2.2 1.8-.1 0-.1 0-.2.1-.2-.6-.4-1.3-.6-1.9 0-.1-.2-.1-.2 0 .1.6.3 1.3.5 1.9h-.1c-.3-.6-.8-1.2-1.2-1.7-.1-.1-.2 0-.1.1.3.6.7 1.2 1.1 1.7-.1 0-.2.1-.2.1-.1-.1-.2-.2-.3-.4-.3-.4-.6-.8-1-1.1-.1-.1-.2 0-.1.1.2.4.5.7.8 1.1.1.2.2.3.4.5l-.3.3c-.5-.4-1.1-.8-1.6-1.1-.1 0-.1 0-.1.1l1.5 1.2c-.1.1-.2.3-.2.4-.1 0-.2-.1-.3-.1-.5-.2-1-.4-1.6-.6-.1 0-.2.2-.1.2.4.2.9.4 1.4.6.1.1.3.1.4.2 0 .1 0 .2-.1.2-.2 0-.3 0-.4-.1-.5-.1-1-.2-1.4-.1-.1 0-.1.1 0 .2.5.2 1.2.3 1.9.3v.4c-.3.1-.5.2-.8.3-.3.1-.7.2-1 .4-.1.1-.1.2.1.2.4 0 .8-.2 1.2-.4l.6-.3c0 .1.1.3.1.4-.1.1-.2.1-.3.2-.4.3-.9.6-1.3.9-.1.1 0 .2.1.2.5-.2.9-.6 1.4-.9.1 0 .1-.1.2-.1.1.1.1.2.2.3-.5.4-.9.9-1.3 1.4-.1.1 0 .2.1.1.5-.4 1-.8 1.4-1.3l.3.3c-.1.2-.3.3-.4.5-.3.4-.6.8-.8 1.2-.1.1.1.2.2.1.3-.3.6-.7.9-1.1.1-.2.3-.3.4-.5.1 0 .1.1.1.1-.1.1-.1.3-.2.4-.2.4-.4.8-.6 1.3 0 .1.1.2.2.1.3-.4.5-.8.7-1.3.1-.1.1-.2.2-.3h.1c-.3.6-.5 1.3-.5 1.9 0 .1.1.1.2 0 .2-.6.4-1.2.7-1.8h.3c-.2.6-.2 1.4-.2 2 0 .2.3.2.3 0 0-.7.2-1.3.2-2h.2c-.1.6-.1 1.3 0 1.9 0 .2.3.2.3 0-.1-.6 0-1.3-.1-1.9.2 0 .4-.1.6-.1.1.3.2.6.4.9.1.3.2.7.5.9.1 0 .1 0 .1-.1 0-.3-.2-.6-.3-.9-.1-.3-.3-.6-.4-.9.1 0 .1-.1.2-.1.1.3.3.5.4.8.2.3.3.7.6.9.1.1.2 0 .2-.1-.1-.3-.3-.7-.5-.9-.2-.2-.3-.5-.5-.7.1-.1.2-.1.3-.2.3.6.7 1.1 1.1 1.5.1.1.3-.1.2-.2-.4-.5-.8-.9-1.2-1.4.2-.2.3-.3.4-.5.5.4 1 .8 1.6 1.1.1.1.2-.1.2-.2-.5-.4-1-.8-1.6-1.1 0-.1.1-.1.1-.2.5.3 1.2.6 1.7.8.1.1.2-.2.1-.2-.5-.3-1.1-.6-1.7-.8.1-.2.1-.4.2-.7.6.1 1.2.1 1.8.1 0 .4 0 0-.3 0z" fill="#381704" stroke-width="none" opacity="1"></path><path id="SvgjsPath40639" d="M119.8 87.7c1.4 0 2.5 1.1 2.5 2.5s-1.1 2.5-2.5 2.5-2.5-1.1-2.5-2.5 1.1-2.5 2.5-2.5z" fill="#000000" stroke-width="none" opacity="1"></path><path id="SvgjsPath40640" d="M118.4 88c.5 0 1 .4 1 1s-.4 1-1 1-1-.4-1-1 .4-1 1-1zm3.1 3.6c.3 0 .5.2.5.5s-.2.5-.5.5-.5-.2-.5-.5.2-.5.5-.5z" fill="#ffffff" stroke-width="none" opacity="1"></path></g></g></g><g id="svga-group-eyesfront-right"><path id="SvgjsPath40694" d="M119.8 76.7c-7.8 0-14.1 6.1-14.1 13.6s6.3 13.6 14.1 13.6 14.1-6.1 14.1-13.6-6.3-13.6-14.1-13.6zm9.9 14.5c-5.8 3.4-11.2 5.4-21.5 4.2 0 0 6.2-6.8 15-8.6s12.2 1 6.5 4.4z" fill="#f3d4cf" stroke-width="none" opacity="1" stroke="none"></path><path id="SvgjsPath40697" d="M107.3 96.1s3.9-3.3 6.5-4.7c2.6-1.4 7.5-4.4 12.1-4.5 4.6-.1 7.3 2.1 7.3 2.1s-2.7-4.8-5.9-7.4-5-.8-9.1 1.6c-4.1 2.5-9.1 8.2-10.9 12.9z" fill="#ebc3bd" stroke-width="none" opacity="1" stroke="none"></path><path id="SvgjsPath40698" d="M139.7 88.3c-2.7.2-5.5-.1-6.9-.3l-.6-.9h.4c1.9 0 4.2-.2 5.9-.8.1-.1.2-.2.2-.4s-.2-.2-.4-.2c-1.8.7-4.5.8-6.4.7-.2-.4-.5-.7-.8-1.1 1.3-.3 2.5-.7 3-1 .1-.1.2-.2.1-.4s-.2-.2-.4-.1c-.5.3-1.7.6-3.1 1-.9-1.2-1.9-2.3-3.1-3.3-.6-.5-1.2-1-2-1.3-.8-.3-1.6-.3-2.4-.1-.8.2-1.5.6-2.2.9-.7.4-1.3.8-2 1.2-2.7 1.5-5 3.6-7 6-1 1.2-1.9 2.4-2.7 3.7-.8 1.3-1.6 2.7-2.1 4.1 1.2-2.8 3-5.3 5.1-7.6 2-2.3 4.3-4.3 7-5.8.7-.4 1.3-.8 2-1.2.7-.4 1.3-.7 2-.9.7-.2 1.4-.1 2.1.1s1.3.7 1.8 1.2c1 .9 2 1.9 2.8 3-1 .3-2 .5-2.8.7-.2 0-.5 0-.7-.1-1.3-.1-2.6.2-3.8.4-1.2.3-2.4.7-3.6 1.2-1.1.5-2.3 1.1-3.3 1.7-1.1.7-2.1 1.3-3.1 2.1-2 1.5-3.9 3.1-5.5 5 .4-.2.7-.5 1.1-.7 2.2.4 4.4.5 6.6.5 2.3 0 4.6-.3 6.8-.9 2.2-.6 4.3-1.5 6.3-2.6.5-.3 1-.6 1.5-.8.5-.3 1-.6 1.4-1 .5-.4.9-.8 1.2-1.2.1-.1.2-.3.2-.4.2.1.4.2.5.3.1.1.2.1.3 0 .1-.1.2-.2.1-.4-.1-.1-.1-.2-.2-.3 1.1.1 2.8.3 4.6.3.6 0 1.3 0 1.9-.1.2 0 .3-.2.3-.3.2.2.1 0-.1.1zm-7.6-.6c-.3-.2-.5-.4-.8-.7h.4c.1.3.2.5.4.7zm-1.6-2.1c.2.3.5.6.7.9-.5 0-.9 0-1.2-.1-.4-.2-.8-.3-1.2-.4.6-.1 1.1-.3 1.7-.4zm1.4 3.5c-.3.4-.8.8-1.2 1.1s-.9.6-1.4.9-1 .6-1.5.8c-2 1.1-4.1 1.9-6.2 2.6-2.2.6-4.4.9-6.6 1.1-2.2.1-4.4 0-6.5-.1 1.7-1.1 3.4-2.1 5.1-3.1 2.1-1.2 4.2-2.4 6.4-3.3 1.1-.5 2.2-.9 3.3-1.2l2.4-.6h.8c1.2 0 2.4.2 3.5.5.8.2 1.6.6 2.3 1-.2 0-.3.1-.4.3z" fill="#000000" stroke-width="none" opacity="1" stroke="none"></path></g></g></g><g id="svga-group-facehighlight-single"></g><g id="svga-group-eyebrows-left-move" transform="matrix(1,0,0,1,0,0)"><g id="svga-group-eyebrows-left-rotate" transform="matrix(1,1.7453292519943295e-9,-1.7453292519943295e-9,1,1.3247347396827536e-7,-1.3740876170231786e-7)"><g id="svga-group-eyebrows-left"><path id="SvgjsPath40740" d="M78.95 76.35c4.75 0 8.47 4.08 10.45 4.18s2.45-2.66.24-5.03c-3.03-3.24-10.69-6.07-17.34-2.66-8.57 4.4-6.26 8.16-3.25 6.36 3.01-1.81 6.66-2.85 9.9-2.85z" fill="#3a3b37" stroke-width="none" opacity="1" stroke="none"></path><path id="SvgjsPath40741" d="M89.39 80.95c-.84-.04-1.85-.66-3.14-1.45-1.98-1.21-4.44-2.72-7.29-2.72-3.22 0-6.77 1.02-9.74 2.8-1.03.62-2.07.68-2.7.15-.39-.32-.58-.82-.53-1.41.15-1.79 2.4-3.93 6.18-5.87 6.99-3.59 14.71-.49 17.72 2.73 1.31 1.4 1.88 3.15 1.44 4.44-.29.84-.96 1.34-1.82 1.34-.05-.01-.08-.01-.12-.01zm-16.95-7.72c-4.1 2.11-5.66 4.05-5.75 5.17-.02.28.05.48.23.63.34.28 1.09.32 1.98-.21 3.07-1.84 6.73-2.89 10.06-2.89 3.02 0 5.57 1.56 7.62 2.82 1.16.71 2.17 1.33 2.85 1.36.62.03 1.06-.26 1.24-.8.26-.78-.02-2.16-1.25-3.48-2.02-2.16-6.14-4.09-10.57-4.09-2.14-.02-4.33.42-6.41 1.49z" fill="#2a2c24" stroke-width="none" opacity="1" stroke="none"></path></g></g></g><g id="svga-group-eyebrows-right-move" transform="matrix(1,0,0,1,0,0)"><g id="svga-group-eyebrows-right-rotate" transform="matrix(1,1.7453292519943295e-9,-1.7453292519943295e-9,1,1.349326907984505e-7,-2.110056129822624e-7)"><g id="svga-group-eyebrows-right"><path id="SvgjsPath40742" d="M120.76 77.77c-4.52-.21-8.22 2.86-10.1 2.84-1.89-.01-2.24-2.22-.04-4 3.01-2.44 10.4-4.34 16.6-1.33 7.99 3.88 5.64 6.76 2.85 5.19-2.8-1.56-6.23-2.55-9.31-2.7z" fill="#3a3b37" stroke-width="none" opacity="1" stroke="none"></path><path id="SvgjsPath40743" d="M110.55 80.95c-.82-.04-1.44-.46-1.68-1.15-.37-1.05.24-2.4 1.54-3.46 2.99-2.42 10.45-4.53 16.96-1.37 3.52 1.71 5.59 3.51 5.66 4.94.02.47-.17.86-.56 1.1-.62.39-1.61.29-2.57-.24-2.76-1.55-6.1-2.52-9.16-2.66-2.71-.13-5.11.96-7.04 1.83-1.26.57-2.25 1.02-3.05 1.01-.04.01-.07 0-.1 0zm10.49-6.84c-4.22-.2-8.21 1.14-10.21 2.77-1.22.99-1.55 2.07-1.33 2.71.16.44.56.69 1.15.69.65 0 1.63-.44 2.76-.95 2-.9 4.48-2.03 7.36-1.89 3.16.15 6.61 1.15 9.46 2.75.83.47 1.54.47 1.88.26.17-.11.25-.27.24-.49-.05-.89-1.46-2.51-5.28-4.37-1.94-.94-4.01-1.39-6.03-1.48z" fill="#2a2c24" stroke-width="none" opacity="1" stroke="none"></path></g></g></g><g id="svga-group-nose-single-move" transform="matrix(1,0,0,1,0,0)"><g id="svga-group-nose-single"><path id="SvgjsPath40729" d="M92.19 104.66c-.45 1.23-.86 2.48-1.01 3.75-.07.63-.1 1.29.11 1.82l.08.19.12.18c.04.06.08.12.13.16.05.05.09.11.15.15.2.18.47.29.74.35.56.12 1.18.02 1.8-.11l.47-.11.25-.06.13-.03.16-.02c.44-.03.81.12 1.13.27.65.32 1.16.76 1.67 1.14l.19.14c.06.04.11.07.17.1.12.06.24.12.38.15.27.08.56.11.84.11.57-.01 1.14-.19 1.58-.54l.16-.14.19-.17a5.859 5.859 0 0 1 1.29-.91c.32-.16.67-.28 1.04-.33.19-.02.38-.03.59 0 .1.01.2.04.3.06l.26.1c.23.09.54.13.84.15.3.02.62.01.92-.03.6-.07 1.24-.24 1.6-.62.17-.17.24-.46.28-.76.03-.3.03-.62-.01-.93-.12-1.27-.55-2.52-1.1-3.71.71 1.1 1.23 2.34 1.5 3.65.06.33.09.67.08 1.02-.02.34-.07.73-.33 1.07-.25.32-.59.5-.91.63-.33.14-.67.21-1.01.27-.34.06-.69.08-1.03.08-.35-.01-.7-.03-1.08-.17l-.2-.07c-.06-.01-.12-.03-.18-.03-.12-.02-.26 0-.39.02-.27.05-.55.15-.81.29-.26.14-.52.3-.75.49-.12.09-.23.2-.35.3l-.17.16-.21.19c-.59.48-1.33.72-2.06.73-.37.01-.73-.04-1.09-.15a2.7 2.7 0 0 1-.53-.22c-.08-.05-.17-.11-.25-.16l-.2-.15c-.52-.4-1.02-.81-1.54-1.09-.26-.13-.52-.23-.74-.22h-.08l-.11.02-.23.05-.49.1c-.66.12-1.37.22-2.09.03-.35-.1-.71-.26-.99-.53-.26-.27-.48-.57-.59-.94-.22-.71-.12-1.41 0-2.06.14-.66.35-1.28.58-1.9.22-.58.49-1.18.8-1.76z" fill="#c5796d" stroke-width="none" opacity="1"></path><path id="SvgjsPath40730" d="M101.48 107.53c-.46-.46-1.1-.54-1.72-.41-.08.02-.15.03-.22.05-.26-.17-.52-.28-.87-.28-.39 0-.85.17-1.11.46-.59.64-.6 1.58 0 2.22 1.02 1.09 3.28 1.39 4.14-.07.35-.61.28-1.47-.22-1.97z" fill="#fbe5e2" stroke-width="none" opacity="1"></path></g></g><g id="svga-group-hair-front"><path id="SvgjsPath40897" d="M98.8 29.6s-6.6-4.7-8.6-4.8c0 0-2.9.5-6.9 3.5-3.8 3.1-18.6 13.7-20.4 15.8S60 48.7 60 48.7s-4.1 10.7-5.5 16.2l-3.9 17.5 1 19.6 2.4 31.7 3.1 16.5 1.5 6.8-.1-8 6.1 10.8 7 1.8-1.4-9.1 6.9 9.7-4.4-16.2-4.9-19.7-1-26.7s-.1-15.6.3-18.6.8-5.8.8-5.8l2.9-8.9s2.8-7.7 3.9-10 3.5-8.1 4.4-9.4c1-1.3 2.3-2.2 2.3-2.2s2.9.4 4.1.8 14.7 4.6 14.7 4.6l9-4.6s3.3-1.9 4.8-1.8c1.5.1 4.6 1.4 4.6 1.4s5.5 4.1 6.9 6.2 6.9 10.7 6.9 10.7 1.8 14.7 1.9 18.3c.1 3.6.9 10.1.9 10.1s1.4 11.6 1.4 13.7.3 7.9.3 7.9l-.3 8.5s-1.8 15.5-1.9 16.4c-.1.9-2.2 17.3-2.2 17.3l-.7 5.9 3.7-2.3 1-6.1 2 4.3 2.1 3.6.4-12 7.5 10.8-1.7-18.1-2.4-23.3.3-26.4.9-20.9.1-9.1-5.2-10.2s-5.1-8.4-8.2-10.8c-3.1-2.3-10-8.3-15-10.3s-9.9-3.1-9.9-3.1l-8.6 3.4z" fill="#d7d8c7" stroke-width="none" opacity="1"></path><path id="SvgjsPath40898" d="M136.9 123.2c.2-2.1.4-4.1.6-6.2.2-2.1.4-4.1.4-6.3-.6-8.3-1.4-16.5-2.1-24.7-.8-8.2-1.5-16.4-2.3-24.7v-.2l-.1-.1c-.8-1.8-1.7-3.2-2.7-4.7-1-1.5-2-2.9-3.1-4.3-2.2-2.7-4.5-5.5-7.6-7.6-1.5-1-3.4-1.8-5.3-1.8-1 0-2 .2-2.9.6-.9.4-1.6.8-2.4 1.2l-9.1 4.7c-2.7-.9-5.4-1.7-8.1-2.5-2.8-.8-5.7-1.7-8.6-2.3-.4-.1-.7-.1-1.1-.2l-.6-.1c-.2 0-.5 0-.7.1-.9.4-1.3 1-1.8 1.6-.9 1.2-1.6 2.5-2.2 3.9-1.3 2.7-2.4 5.4-3.5 8.1-2.1 5.5-4.1 11-5.9 16.6-.2.7-.3 1.5-.5 2.2l-.3 2.2c-.2 1.5-.3 2.9-.4 4.4-.2 2.9-.3 5.9-.4 8.8-.1 5.9-.2 11.8 0 17.6.1 2.9.2 5.9.3 8.8l.2 4.4c0 .7.1 1.5.2 2.2.1.8.2 1.5.3 2.3 1.2 5.8 2.8 11.5 4.3 17.2 1.3 4.7 2.7 9.4 4 14.1l-5.1-6.6-.9-1.1.3 1.4c.6 3.1 1.2 6.3 1.9 9.4h.2l-1.2-8.1c1.9 2.7 3.8 5.4 5.8 8.1l1.7 2.4-.8-2.9-4.5-17c-1.5-5.7-3-11.4-4.1-17.1-.2-.7-.2-1.4-.3-2.1l-.1-2.2-.2-4.4c-.1-2.9-.3-5.9-.3-8.8-.2-5.9-.4-11.7-.4-17.6 0-2.9 0-5.9.1-8.8.1-2.9.2-5.9 1-8.6 1.4-5.5 3.3-11 5.5-16.5 1.1-2.7 2.3-5.4 3.6-8 .7-1.3 1.4-2.6 2.2-3.7.4-.5.9-1.1 1.4-1.3h.4l.5.1c.3.1.7.2 1.1.2 5.6 1.4 11.2 3.4 16.7 5.3l.3.1.3-.1L110 46c.8-.4 1.6-.8 2.3-1.1.7-.3 1.5-.4 2.2-.4 1.5 0 3 .7 4.4 1.6 2.7 1.8 5 4.5 7.1 7.2 1.1 1.4 2.1 2.8 3 4.2.9 1.4 1.8 2.9 2.4 4.3.7 8.2 1.5 16.3 2.3 24.5l2.4 24.6c.1 1.9-.1 4-.2 6.1-.2 2.1-.3 4.1-.5 6.2l-1.2 12.3-2.6 24.6h.2c1.3-8.1 2.6-16.3 3.6-24.5.5-4.2 1-8.3 1.5-12.4zm2.9 7.4c.2-1.5.4-3 .4-4.7l-.1-1.2v-3.4c.1-12.2.5-24.5.4-36.7 0-1.5 0-3.1-.1-4.6 0-.8-.1-1.6-.1-2.3 0-.4-.1-.8-.1-1.2l-.1-.6-.1-.6c-.5-3-1-6-1.6-9-.6-3-1.2-6-2.1-9-.4-1.5-.8-3-1.4-4.5-.3-.7-.6-1.5-.9-2.2-.4-.7-.8-1.5-1.6-2.2-2.5-1.9-5-3.6-7.6-5.3-2.6-1.7-5.2-3.3-8-4.7-.7-.3-1.4-.7-2.2-.9-.4-.1-.8-.2-1.5-.2-.5.1-.9.3-1.2.4-1.5.6-2.8 1.3-4.2 2.1-2.6 1.4-5.2 2.9-7.8 4.4-5.2-2-10.4-4-15.8-5.7-1.4-.4-2.7-.9-4.1-1.2-.7-.2-1.4-.3-2.1-.5H77c-.1 0-.3 0-.4.1-.4.2-.7.5-.9.8-.9 1.2-1.5 2.5-2.1 3.8-.6 1.3-1.2 2.6-1.7 3.9-2.2 5.2-4.1 10.6-6.1 15.9-1.9 5.3-3.8 10.7-5.6 16.1-.9 2.7-1.8 5.4-2.6 8.1-.4 1.4-.8 2.7-1.2 4.1-.2.7-.4 1.4-.5 2.1 0 .2-.1.4-.1.6V94c.1 5.8.5 11.4.9 17.1.4 5.7.9 11.3 1.4 17l1.6 17v.1c1.6 4.9 3.1 9.8 4.7 14.7l.2-.1c-1.3-5-2.6-9.9-3.9-14.9L58.4 111l-.5-8.5c-.1-2.8-.3-5.7-.4-8.5v-1.5c0-.2 0-.3.1-.5.1-.7.3-1.3.5-2 .3-1.4.7-2.7 1.1-4.1.8-2.7 1.5-5.5 2.3-8.2 3.2-10.9 6.6-21.7 10.9-32.2.5-1.3 1.1-2.6 1.7-3.9.6-1.3 1.3-2.5 2.1-3.6.2-.3.4-.5.7-.6h.8c.7.1 1.4.3 2 .5 1.4.4 2.7.8 4 1.3 5.3 1.9 10.6 4 15.8 6.2l.2.1.3-.1c2.7-1.5 5.4-2.9 8.1-4.3 1.4-.7 2.7-1.4 4.1-1.9.3-.1.7-.2.9-.3.1 0 .5 0 .8.2.7.2 1.3.5 2 .9 2.7 1.4 5.2 3.1 7.7 4.8 2.5 1.7 5 3.5 7.4 5.3.4.3.7.9 1 1.5.3.6.6 1.3.8 2 .5 1.4.9 2.8 1.3 4.3.8 2.9 1.4 5.9 1.9 8.9l1.6 9 .1.6.1.5c0 .3.1.7.1 1.1 0 .8.1 1.5.1 2.3 0 1.5.1 3 .1 4.6 0 12.2-.1 24.5.1 36.7 0 .8 0 1.5.1 2.3 0 .4 0 .8.1 1.2l.1.6v.5c.1 1.4-.1 3-.2 4.5-.3 3-.6 6.1-1 9.1-.7 6.1-1.5 12.1-2.3 18.2h.2c1.1-6 2.1-12.1 3.1-18.1.7-3.2 1.1-6.2 1.5-9.3zm9.3 30.1-.2-2.4-2.1-24.3-1.1-12.1c-.4-4-.5-8-.5-12 0-8.1.2-16.2.5-24.3l.9-24.3v-.2l-.1-.2c-.8-2.3-1.7-4.3-2.7-6.4-1-2.1-2.2-4-3.4-6-2.5-3.9-5.5-7.4-8.8-10.6-3.3-3.2-7.1-5.8-11.2-8-2-1.1-4.2-1.9-6.3-2.7-2.2-.7-4.4-1.4-6.7-1.7h-.1l-.1.1-8.2 3.6c-1.3-1-2.6-1.9-3.9-2.7-.7-.4-1.5-.9-2.2-1.2-.8-.3-1.6-.7-2.5-.8-.4 0-.9-.1-1.4.1-.4.1-.8.3-1.2.5-.8.4-1.5.8-2.2 1.3-1.4.9-2.8 1.9-4.1 2.9-5.4 4-10.7 8-15.9 12.2-1.3 1.1-2.6 2.1-3.9 3.2-1.2 1.4-1.8 2.9-2.5 4.5-1.3 3.1-2.4 6.2-3.5 9.4-1 3.2-2 6.4-2.9 9.6-.9 3.2-1.7 6.5-2.4 9.8-.2.8-.3 1.7-.5 2.5-.1.4-.1.8-.2 1.3v1.3c0 1.7.1 3.4.1 5 .1 3.3.3 6.7.5 10 .4 6.7.9 13.3 1.5 20 .3 3.3.5 6.7.9 10 .2 1.7.3 3.3.5 5 .2 1.7.5 3.4.8 5 1.3 6.6 2.8 13.1 4.3 19.5l.5-.1-.5-7.8h-.2l.1 4.7-1.3-6.8c-.6-3.3-1.3-6.6-1.8-9.8-.3-1.6-.6-3.3-.7-4.9-.2-1.6-.3-3.3-.4-5l-.7-10c-.5-6.7-.9-13.3-1.2-20l-.5-10c-.1-1.7-.2-3.3-.2-5v-1.2c0-.4.1-.8.1-1.2.1-.8.3-1.6.4-2.4 1.3-6.5 2.9-13 4.8-19.3 1-3.2 2-6.3 3.2-9.4.6-1.5 1.3-3.1 2.3-4.3.5-.5 1.2-1.1 1.8-1.6l1.9-1.6c5.2-4.2 10.3-8.4 15.8-12.3 1.3-1 2.7-1.9 4.1-2.8.7-.4 1.4-.9 2.1-1.2.4-.2.7-.4 1.1-.5.3-.1.7-.1 1.1 0 1.5.2 3 1.1 4.4 1.9 1.4.9 2.7 1.9 4 2.9l.2.2.2-.1 8.2-3.4c2.1.4 4.2 1 6.3 1.8 2.1.8 4.1 1.7 6.1 2.8 3.9 2.2 7.6 4.8 10.7 7.9 3.2 3.1 6 6.6 8.4 10.4 1.2 1.9 2.3 3.8 3.3 5.8 1 1.9 1.8 4 2.5 6-.4 8-.8 16.1-1.1 24.1-.3 8.1-.5 16.2-.4 24.4 0 2 0 4.1.1 6.1s.3 4.2.5 6.1l1.3 12.1 2.4 21.9-6.4-9-.8-1.1v12.8l-1.9-3.2-.2.1 2.1 3.8.3.6v-.7l.4-10.8 6.7 10.1 1.7 2.1z" fill="#c7c9a5" stroke-width="none" opacity="1"></path></g><g id="svga-group-glasses-single-move" transform="matrix(1,0,0,1,0,0)"><g id="svga-group-glasses-single" transform="matrix(1.1000004000000003,0,0,1.1000004000000003,-10.037040041188078,-9.389038639378384)"><path id="SvgjsPath40772" d="M70.94 81.73c-2.93.96-6.6 4.93-5.94 12.76s5.07 10.8 9.21 12.32c4.13 1.52 10.44 1.38 15.15-2.9 4.71-4.28 5.8-9.21 5.44-12.32-.36-3.12-3.12-7.97-7.61-9.64-4.51-1.67-9.15-2.54-16.25-.22z" fill="url(#SvgjsLinearGradient40773)" opacity="1"></path><path id="SvgjsPath40778" d="M129.8 81.73c2.93.96 6.6 4.93 5.94 12.76s-5.07 10.8-9.21 12.32-10.44 1.38-15.15-2.9-5.8-9.21-5.44-12.32c.36-3.12 3.12-7.97 7.61-9.64 4.51-1.67 9.14-2.54 16.25-.22z" fill="url(#SvgjsLinearGradient40779)" opacity="1"></path><path id="SvgjsPath40784" d="M121.18 108.58c-4.89 0-9.72-2.61-12.9-6.97-3.66-5-4.47-10.38-4.56-11.1.33-.23 1.65-1.21 1.46-2.49-.2-1.29-3.33-1.39-4.28-1.39h-1.03c-.95 0-4.08.1-4.28 1.39-.2 1.28 1.12 2.27 1.45 2.49-.09.72-.91 6.1-4.56 11.1-3.19 4.36-8.01 6.97-12.9 6.97-2.37 0-4.77-.58-7.14-1.72-7.92-3.82-8.29-10.42-8.54-14.79-.02-.39-.04-.76-.07-1.11-.28-3.96-2.72-4.37-3.35-4.41v-4.02c.2.01.39.01.59.01 2.84 0 5.45-.76 8.22-1.56 3.02-.87 6.14-1.77 9.82-1.77.57 0 1.15.02 1.74.07 5.23.41 7.84 2.12 9.57 3.24.56.36 1.04.68 1.5.88.7.31 1.65.46 2.98.46 1 0 2.08-.08 3.12-.16.69-.05 1.37-.11 1.99-.13h.74c.62.02 1.29.08 1.99.13 1.04.08 2.12.16 3.12.16 1.33 0 2.28-.15 2.98-.46.46-.2.94-.52 1.5-.88 1.73-1.13 4.35-2.84 9.57-3.24.59-.05 1.18-.07 1.74-.07 3.68 0 6.8.9 9.82 1.77 2.77.8 5.39 1.56 8.22 1.56.19 0 .39 0 .59-.01v4.02c-.67.05-3.07.48-3.35 4.41-.03.35-.05.73-.07 1.12-.25 4.37-.62 10.97-8.54 14.79-2.38 1.13-4.78 1.71-7.14 1.71zm1.07-27.76c-1.82 0-3.72.27-5.64.81-4.15 1.16-7.77 4.21-9.21 7.78-1.3 3.22-.9 6.79 1.18 10.32 2.77 4.72 7.42 7.43 12.76 7.43 3.45 0 6.82-1.15 9.25-3.17 5.57-4.62 5.92-13.87 2.5-18.44-2.22-2.96-6.27-4.73-10.84-4.73zm-43.77 0c-4.57 0-8.62 1.77-10.84 4.73-3.42 4.57-3.06 13.82 2.5 18.44 2.42 2.01 5.8 3.17 9.25 3.17 5.34 0 9.99-2.71 12.76-7.43 2.07-3.53 2.48-7.1 1.17-10.32-1.44-3.57-5.06-6.62-9.21-7.78-1.91-.54-3.8-.81-5.63-.81z" fill="#000000" stroke-width="none" opacity="1"></path><path id="SvgjsPath40785" d="M121.65 79.34c3.66 0 6.77.9 9.78 1.77 2.78.8 5.41 1.56 8.26 1.56.15 0 .3 0 .45-.01v3.76c-.81.09-3.07.69-3.35 4.53-.03.35-.05.73-.07 1.12-.25 4.34-.62 10.89-8.47 14.67-2.35 1.13-4.73 1.71-7.08 1.71-4.85 0-9.63-2.58-12.79-6.91-3.52-4.82-4.39-10-4.53-10.96.43-.31 1.64-1.3 1.44-2.58-.21-1.36-3.16-1.5-4.41-1.5h-1.03c-1.26 0-4.21.15-4.41 1.5-.2 1.28 1.01 2.27 1.44 2.58-.14.96-1 6.14-4.53 10.96-3.16 4.33-7.95 6.91-12.79 6.91-2.35 0-4.73-.57-7.08-1.71-7.85-3.78-8.22-10.34-8.47-14.67-.02-.39-.04-.76-.07-1.12-.27-3.81-2.51-4.43-3.35-4.52v-3.76c.15 0 .3.01.45.01 2.86 0 5.48-.76 8.26-1.56 3.01-.87 6.12-1.77 9.78-1.77.58 0 1.16.02 1.73.07 5.19.41 7.79 2.1 9.51 3.22.56.37 1.05.69 1.52.89.72.32 1.68.47 3.04.47 1.01 0 2.09-.08 3.13-.16.7-.05 1.37-.11 1.98-.13h.73c.62.02 1.28.08 1.99.13 1.04.08 2.12.16 3.13.16 1.35 0 2.32-.15 3.04-.47.47-.21.96-.53 1.52-.89 1.72-1.12 4.32-2.82 9.51-3.22.58-.06 1.16-.08 1.74-.08m-.32 27.95c3.48 0 6.89-1.17 9.33-3.2 5.62-4.67 5.98-14.01 2.53-18.62-2.24-2.99-6.33-4.78-10.94-4.78-1.83 0-3.74.27-5.67.81-4.19 1.17-7.84 4.25-9.3 7.86-1.32 3.26-.91 6.87 1.18 10.44 2.8 4.76 7.49 7.49 12.87 7.49m-41.93 0c5.39 0 10.08-2.73 12.87-7.5 2.09-3.57 2.5-7.18 1.18-10.44-1.46-3.61-5.11-6.69-9.3-7.86-1.93-.54-3.84-.81-5.67-.81-4.61 0-8.71 1.79-10.94 4.78-3.45 4.62-3.1 13.96 2.53 18.62 2.44 2.04 5.85 3.21 9.33 3.21m42.25-28.22c-.57 0-1.16.02-1.75.07-6.92.54-9.24 3.3-11.12 4.14-.76.34-1.79.45-2.93.45-1.67 0-3.55-.23-5.11-.29H100c-1.56.06-3.44.29-5.11.29-1.13 0-2.16-.11-2.93-.45-1.88-.84-4.2-3.6-11.12-4.14-.6-.05-1.18-.07-1.75-.07-7.08 0-12.14 3.33-18.04 3.33-.24 0-.48-.01-.72-.02v4.29h.02c.25 0 3.03.1 3.33 4.29.31 4.4 0 11.83 8.69 16.01 2.51 1.21 4.93 1.74 7.2 1.74 5.56 0 10.19-3.15 13.01-7.02 3.98-5.44 4.6-11.25 4.6-11.25s-1.67-1.05-1.47-2.41c.19-1.21 3.42-1.28 4.15-1.28h1.02c.73 0 3.96.07 4.15 1.28.21 1.36-1.47 2.41-1.47 2.41s.62 5.81 4.6 11.25c2.83 3.87 7.45 7.02 13.01 7.02 2.26 0 4.68-.52 7.2-1.74 8.69-4.19 8.37-11.62 8.69-16.01.3-4.2 3.08-4.29 3.33-4.29h.02v-4.29c-.24.01-.48.02-.72.02-5.9 0-10.96-3.33-18.04-3.33zm-.32 27.95c-4.67 0-9.57-2.14-12.64-7.37-5.34-9.11 1.57-16.12 7.96-17.9 1.98-.55 3.86-.8 5.6-.8 4.88 0 8.7 1.96 10.73 4.67 3.41 4.56 3.07 13.65-2.48 18.26-2.37 1.96-5.7 3.14-9.17 3.14zm-41.93 0c-3.46 0-6.8-1.18-9.16-3.14-5.55-4.61-5.89-13.69-2.48-18.26 2.03-2.72 5.85-4.67 10.73-4.67 1.74 0 3.62.25 5.6.8 6.39 1.78 13.29 8.79 7.96 17.9-3.07 5.23-7.98 7.37-12.65 7.37z" fill="#000000" stroke-width="none" opacity="1"></path></g></g></g></g></g><rect id="svga-credit-rect" width="200" height="15" x="0" y="185" fill="#ecf0f1" opacity="0.5" style="display: none;"></rect><text id="svga-credit-text" font-family="Avenir Next, Roboto, Helvetica, Arial, sans-serif" font-size="10px" text-anchor="start" font-weight="400" size="10px" anchor="start" weight="400" fill="#333333" x="33.40447998046875" y="182.60824704170227" style="display: none;"><tspan id="SvgjsTspan40538" dy="13" x="33.40447998046875">Created on AvatarMaker.com</tspan></text></g><defs id="SvgjsDefs40490"><linearGradient id="SvgjsLinearGradient40773" x1="79.8826" y1="80.3169" x2="79.8826" y2="107.6923" gradientUnits="userSpaceOnUse" class="svga-on-canvas-glasses-gradient-single-0-null"><stop id="SvgjsStop40774" stop-opacity="1" stop-color="#9ab4d3" offset="0" ></stop><stop id="SvgjsStop40775" stop-opacity="0.7593" stop-color="#93aed1" offset="0.2407" ></stop><stop id="SvgjsStop40776" stop-opacity="0.4009" stop-color="#7e9ecc" offset="0.5991" ></stop><stop id="SvgjsStop40777" stop-opacity="0" stop-color="#6086c4" offset="1" ></stop></linearGradient><linearGradient id="SvgjsLinearGradient40779" x1="-20.852" y1="80.3169" x2="-20.852" y2="107.6923" gradientTransform="matrix(-1 0 0 1 100 0)" gradientUnits="userSpaceOnUse" class="svga-on-canvas-glasses-gradient-single-1-null"><stop id="SvgjsStop40780" stop-opacity="1" stop-color="#9ab4d3" offset="0" ></stop><stop id="SvgjsStop40781" stop-opacity="0.7593" stop-color="#93aed1" offset="0.2407" ></stop><stop id="SvgjsStop40782" stop-opacity="0.4009" stop-color="#7e9ecc" offset="0.5991" ></stop><stop id="SvgjsStop40783" stop-opacity="0" stop-color="#6086c4" offset="1" ></stop></linearGradient></defs></svg>