<svg xmlns="http://www.w3.org/2000/svg" version="1.1" width="600px" height="600px" viewBox="0 0 200 200" style="overflow:hidden!important;"><g id="svga-group-wrapper"><g id="svga-group-backs-single"></g><g id="svga-group-humanwrap-move" transform="matrix(1,0,0,1,0,0)"><g id="svga-group-humanwrap"><g id="svga-group-hair-back-move" transform="matrix(1,0,0,1,0,0)"><g id="svga-group-hair-back"><path id="SvgjsPath12036" d="M55.6 64.2s-3.4 11.1-4.4 14.7 1.4 19.6 1.4 19.6-3.4 10.8-3.1 13.7 4.1 8.5 4.1 8.5-1.7 5.2-1.7 6.8 4.8 9.4 4.8 9.4l-1.7 5.5 6.2 6.8s-2.7 2.9-3.1 6.5c-.3 3.6 3.1 7.8 4.1 9.4s1 4.9 1 4.9l8.2-9.1s-3.1-9.1-6.2-11.7c0 0 4.8-11.4 3.1-14s-3.4-3.9-3.4-3.9 2.4-8.8 2.1-10.8-2.7-5.2-2.7-5.2 4.1-20.5 4.1-21.8S66 75.2 66 75.2l-10.4-11zm82.8-2.4s-4.4 10.8-5.7 14.3-.3 19.6-.3 19.6-4.3 10.4-4.2 13.4c.1 3 3.4 8.8 3.4 8.8s-2.1 5.1-2.3 6.7c-.1 1.6 4 9.9 4 9.9l-2.2 5.4 5.5 7.4s-3 2.7-3.6 6.2 2.4 8.1 3.3 9.8c.9 1.7.6 5 .6 5l8.9-8.4s-2.3-9.4-5.1-12.2c0 0 5.7-11 4.3-13.7-1.5-2.8-3.1-4.2-3.1-4.2s3.1-8.6 3-10.6c-.2-2-2.3-5.4-2.3-5.4s5.8-20.2 5.9-21.5c.1-1.3-.8-18.4-.8-18.4l-9.3-12.1z" fill="#3c1d1d" stroke-width="none" opacity="1" stroke="none"></path><path id="SvgjsPath12037" d="M69.5 154.4c-.5-1-1-2-1.6-3-.5-.8-1-1.6-1.7-2.4.6-1.4 1.1-2.7 1.6-4.1.5-1.6 1-3.2 1.4-4.9.2-.8.3-1.7.4-2.6V136c0-.3-.1-.5-.2-.8-.1-.1-.1-.3-.2-.4-.1-.1-.1-.2-.2-.3-.8-1.3-1.8-2.4-2.9-3.5.7-2.5 1.3-5.1 1.8-7.7.1-.7.2-1.4.2-2.3 0-1-.4-1.7-.7-2.4-.6-1.2-1.3-2.3-2-3.4 1.3-6.5 2.5-13 3.6-19.6l.2-1.3c0-.2.1-.5.1-.8 0-.2 0-.5-.1-.7-.1-.9-.2-1.7-.3-2.5-.2-1.7-.5-3.4-.7-5l-1.6-10v-.2l-.1-.1c-3.6-3.8-7.3-7.3-10.7-10.8L53 72.4c-.5 1.4-1 2.8-1.4 4.2l-.7 2.1c-.2.8-.3 1.6-.3 2.3-.1 3 .1 5.9.3 8.8.3 2.8.6 5.7 1 8.5-.6 1.8-1.1 3.7-1.6 5.5-.5 1.9-1 3.8-1.3 5.8-.1.5-.1 1-.2 1.6 0 .6 0 1.2.2 1.7.3 1.1.7 2 1.1 2.9.8 1.7 1.8 3.3 2.8 4.8-.4 1.3-.8 2.6-1.1 3.9-.2.7-.3 1.5-.4 2.3v.7c0 .1 0 .3.1.4l.1.3c.1.4.3.8.4 1.1.6 1.4 1.4 2.7 2.1 3.9.7 1.2 1.5 2.4 2.2 3.6l-1.5 5.4-.1.2.1.1 6 6.6c-1.2 1.4-2.2 3-2.7 4.8-.3.9-.4 1.9-.3 2.9.1 1 .4 1.9.8 2.8.8 1.8 1.8 3.4 2.9 5 .3.4.5.8.6 1.2.2.4.3.9.3 1.3.2.9.2 1.8.2 2.7v1.3l.9-1 8.4-9 .3-.3-.1-.4c-.8-1.8-1.6-3.9-2.6-6zm-7.4 10c-1.1-1.6-2.2-3.1-2.9-4.8-.4-.9-.7-1.7-.8-2.6-.1-.9 0-1.8.2-2.7.5-1.8 1.5-3.4 2.7-4.8l.2-.2-.2-.2c-2-2.2-4-4.5-6-6.7l1.7-5.3.1-.2-.1-.2c-.7-1.3-1.5-2.6-2.1-3.9-.7-1.3-1.4-2.6-1.9-3.9-.1-.3-.3-.7-.3-1l-.1-.2V127.1c.1-.7.3-1.4.5-2.1.4-1.4.8-2.8 1.3-4.2l.1-.4-.2-.3c-1-1.6-2-3.3-2.8-5-.4-.8-.8-1.7-1-2.6-.1-.4-.1-.8-.1-1.2 0-.4.1-.9.2-1.4.3-1.9.8-3.8 1.2-5.7.5-1.9 1-3.8 1.6-5.6l.1-.2v-.2c-.5-2.9-.8-5.8-1.2-8.6s-.7-5.8-.7-8.6c0-.7 0-1.4.2-2l.6-2c.4-1.4.7-2.7 1.1-4.1.7-2.8 1.5-5.6 2.3-8.5 3.4 3.8 6.5 7.6 9.7 11.2l1.2 9.9.6 5c.1.8.2 1.7.3 2.5v.6c0 .2 0 .3-.1.5l-.2 1.2c-.6 3.3-1.3 6.6-2 9.9l-2 9.9-.1.5.3.4c.8 1.1 1.5 2.3 2.1 3.4.3.6.5 1.2.5 1.6 0 .6-.1 1.2-.2 1.9-.4 2.7-1.1 5.4-1.8 8.1l-.2.7.5.4c1.1.9 2.2 2.1 3.1 3.4.1.1.1.2.2.2 0 0 0 .1.1.1 0 .1.1.2.1.4 0 .3.1.7 0 1 0 .7-.2 1.5-.3 2.3-.7 3.1-1.8 6.2-3 9.2l-.2.6.5.4c.7.6 1.3 1.5 1.9 2.4.6.9 1.1 1.9 1.6 2.8.9 1.8 1.7 3.8 2.4 5.7l-6.9 8c-.1-.6-.1-1.1-.3-1.7-.1-.5-.2-1-.4-1.4-.6-.3-.9-.7-1.1-1.1zm87.2-72.9c0-.9-.1-1.7-.1-2.6l-.3-5.1-.7-10.2v-.2l-.1-.1c-3.3-4.1-6.6-7.9-9.7-11.7l-3.5 8c-.6 1.4-1.2 2.7-1.8 4.1l-.9 2.1c-.3.8-.4 1.5-.5 2.3-.4 3-.4 5.9-.4 8.8 0 2.9.1 5.7.2 8.6l-2.1 5.4c-.7 1.9-1.3 3.7-1.8 5.7l-.3 1.5c-.1.5-.1 1.2 0 1.7.2 1.1.5 2.1.8 3 .7 1.8 1.5 3.4 2.4 5.1-.5 1.3-1 2.5-1.4 3.8-.2.7-.4 1.4-.6 2.2 0 .2-.1.4-.1.7v.4l.1.3c.1.4.2.8.4 1.1.5 1.4 1.1 2.8 1.8 4.1.6 1.3 1.2 2.5 1.9 3.8l-2 5.2-.1.2.1.2c1.8 2.4 3.6 4.7 5.4 7.1-1.3 1.3-2.4 2.9-3.1 4.6-.4.9-.6 1.9-.6 2.9s.2 2 .6 2.9c.6 1.9 1.6 3.6 2.4 5.2.2.4.4.8.5 1.2.1.4.2.9.2 1.3.1.9.1 1.9 0 2.8l-.1 1.3 1-.9 9.1-8.2.3-.3-.1-.4c-.5-2.2-1.2-4.4-1.9-6.5-.4-1.1-.8-2.1-1.3-3.2-.4-.9-.9-1.7-1.5-2.5.7-1.3 1.3-2.6 1.9-4 .7-1.5 1.3-3.1 1.8-4.7.2-.8.5-1.7.6-2.6.1-.4.1-.9.1-1.4 0-.3-.1-.5-.1-.8 0-.1-.1-.3-.2-.4-.1-.2-.1-.2-.2-.3-.7-1.3-1.6-2.6-2.6-3.7.9-2.5 1.7-5 2.4-7.6.2-.7.3-1.4.4-2.3.1-1-.2-1.8-.5-2.5-.5-1.3-1.1-2.4-1.7-3.6 1.8-6.4 3.6-12.8 5.2-19.2l.3-1.3c.1-.2.1-.5.1-.7.3-.2.3-.4.3-.6zm-1.7.6c0 .2-.1.3-.1.5l-.3 1.2c-.9 3.2-1.9 6.5-2.8 9.8l-2.9 9.8-.1.4.2.4c.7 1.2 1.3 2.4 1.8 3.6.2.6.4 1.2.4 1.6-.1.6-.2 1.2-.4 1.9-.7 2.7-1.6 5.3-2.5 8l-.2.6.5.5c1 1 2 2.3 2.8 3.7 0 .1.1.2.1.2s0 .1.1.1c0 .1.1.2.1.4 0 .3 0 .7-.1 1-.1.7-.3 1.5-.5 2.3-.9 3.1-2.3 6.1-3.7 9l-.3.6.4.5c.6.7 1.2 1.6 1.7 2.5.5.9.9 1.9 1.3 3 .7 1.9 1.4 3.9 1.9 5.9l-7.6 7.4c0-.6 0-1.1-.1-1.7l-.3-1.5c-.1-.5-.4-1-.7-1.4-1-1.6-1.9-3.3-2.5-5.1-.3-.9-.5-1.8-.6-2.7 0-.9.2-1.8.5-2.7.6-1.7 1.8-3.3 3.1-4.6l.2-.2-.2-.2-5.4-7.2 2.2-5.1.1-.2-.1-.2c-.6-1.3-1.2-2.7-1.8-4s-1.1-2.7-1.6-4.1c-.1-.3-.2-.7-.3-1l-.1-.2v-.2c0-.1 0-.3.1-.4.1-.7.4-1.3.6-2 .5-1.4 1.1-2.7 1.7-4.1l.2-.4-.2-.4c-.9-1.7-1.7-3.5-2.4-5.2-.3-.9-.6-1.8-.8-2.7-.1-.4-.1-.8 0-1.2.1-.4.2-.9.3-1.3.5-1.8 1.1-3.7 1.7-5.5.6-1.8 1.4-3.7 2.1-5.5l.1-.2v-.2c-.2-2.9-.4-5.8-.4-8.7-.1-2.9-.2-5.8.1-8.7.1-.7.2-1.4.4-2l.7-2c.5-1.3 1-2.7 1.4-4 1-2.7 1.9-5.5 3-8.3 3.1 4.1 5.9 8.2 8.7 12l.3 10 .1 5.1c0 .8.1 1.7 0 2.5.1.2.1.4.1.6zm-87 33.1c-.2-1.4-.3-2.9-.9-4.4-.6-1.4-1.3-2.6-2.1-3.9-.8-1.2-1.6-2.4-2.5-3.6.6 1.3 1.2 2.7 1.8 4 .6 1.3 1.3 2.6 1.8 3.9.3.6.4 1.3.6 2 .2.7.3 1.4.4 2.1l.9 4.2c.2-1.4.1-2.8 0-4.3zm1.1 11.4c0-.2.1-.4.1-.6 0-.1.1-.3.2-.5.4-.8.9-1.6 1.2-2.4-.7.6-1.3 1.2-1.9 2-.1.2-.3.4-.4.7-.1.2-.1.5-.2.7-.1.4-.2.9-.3 1.4-.3 1.8-.4 3.6-.2 5.4.6-1.8.9-3.5 1.2-5.3l.3-1.4zm74.4-2.8c.2-1.2.2-2.4.3-3.5v-1.7c.1-.5.2-1.1.4-1.6.5-2.3 1.1-4.5 1.4-6.9-1 2.2-1.8 4.4-2.3 6.7-.1.6-.3 1.1-.3 1.8 0 .6.1 1.2.1 1.8 0 1 .2 2.2.4 3.4zm2.3 6.2-.1-.1c-.4-.7-.9-1.3-1.4-1.9s-1-1.2-1.6-1.8c.3.8.6 1.5 1 2.2.4.7.7 1.3 1.1 1.9.1.9.1 1.7.3 2.6.1.9.3 1.8.6 2.7.1-.9.2-1.8.2-2.7s0-1.8-.1-2.7v-.2zm-74.6 23.5c0-.8 0-1.6-.1-2.4v-.1c-.4-1.3-.9-2.6-1.5-3.9.2-2.3.3-4.5.1-6.8-.6 2.3-.9 4.6-1.1 6.9v.2l1.8 3.9c.3.7.5 1.5.8 2.2zm75.2-10.6c.2 1 .5 2 .8 2.9-.2 1.5-.4 2.9-.4 4.5.6-1.4 1-2.9 1.3-4.4v-.2c-.2-1-.6-2-.9-3-.4-1-.7-2-1.2-2.9 0 1 .2 2.1.4 3.1zM67 159c-.2-1.4-.7-2.7-1.2-3.9-.6-1.2-1.2-2.4-2.1-3.5.2 1.4.7 2.7 1.2 3.9.5 1.2 1.1 2.4 2.1 3.5zm67.3-4.4v.2c.1.8.3 1.6.6 2.5.2-.8.3-1.6.3-2.4.4-.8.7-1.6 1-2.4.3-.9.5-1.7.6-2.7-.6.7-1 1.5-1.4 2.3-.5.8-.8 1.6-1.1 2.5zm2.5 1.5c0 1.2.1 2.4.4 3.6.4-1.2.5-2.4.6-3.6 0-1.2-.1-2.4-.4-3.6-.4 1.3-.6 2.4-.6 3.6z" fill="#2d1111" stroke-width="none" opacity="1" stroke="none"></path></g></g><g id="svga-group-humanbody-back"><path id="SvgjsPath11843" d="M77.8 105.9s4.8 37.7 10 55.8c0 0-6.4 8.8-14.5 11.9-28.7 11.2-35 11.2-39.6 15.2-2.4 2.1.2 11.1 1.8 17.2 1.3 5 1.7 13.2 1.7 13.2h132.2s1.6-33-.6-39.8-7.1-2.9-21.9-4.5c-14.8-1.6-28.7-10.3-31-13.2l.3-60-38.4 4.2z" fill="#f3d4cf" stroke-width="none" opacity="1"></path></g><g id="svga-group-chinshadow-single"><path id="SvgjsPath11839" d="M86.1 156.4c4.7.8 10.3 1 10.3 1s11.6-.6 15.5-2.3c.7-.3 2.1-1.4 3.7-2.8l.3-50.7-38.4 4.2s4 31.4 8.6 50.6z" fill="#d4958a" stroke-width="none" opacity="1"></path></g><g id="svga-group-humanbody-front"><path id="SvgjsPath11844" d="M72.1 183.1s14.6-.2 20.4 2.6c5.8 2.9 12.7 2.4 16.1-1s21.6-7 21.6-7-19.7 1.9-25 4.6c-5.3 2.7-22.3-2.8-33.1.8z" fill="#d4958a" stroke-width="none" opacity="1"></path><path id="SvgjsPath11845" d="M74.2 173.2c6.7-1.3 14.7-6.4 14.7-6.4l6.2 5.5c-4.3-7.9-12.7-41.1-12.7-41.1l-.7.7c1.7 10.5 3.9 21.9 6.1 29.7 0 0-6 8.2-13.6 11.6z" fill="#d4958a" stroke-width="none" opacity="1"></path><path id="SvgjsPath11846" d="M170.7 188.5c-.1-2.1-.2-4.1-.4-6.2-.1-1-.3-2.1-.6-3.2-.2-.5-.4-1-.6-1.6-.2-.5-.6-1-1-1.5s-.9-.9-1.5-1.1c-.6-.3-1.1-.4-1.7-.6-1.1-.2-2.2-.2-3.2-.2-2.1 0-4.1.1-6.1.1s-4-.1-6-.2-4-.4-6-.7c-1-.2-2-.4-2.9-.6l-1.5-.4c-.5-.1-1-.3-1.4-.4-3.8-1.1-7.6-2.6-11.2-4.4l-1.3-.7-1.3-.7c-.4-.2-.9-.5-1.3-.8s-.9-.5-1.3-.8-.8-.5-1.3-.8l-1.2-.9-.6-.5-.3-.2-.3-.2c-.2-.2-.4-.3-.5-.5l-.2-.3v-44.6l-.1-15v-.6l-.6.1c-6.4.8-12.9 1.5-19.3 2.3l-19.1 2.3v.5l.1.4.1.9.2 1.8c.1 1.2.3 2.3.4 3.5l.9 7c.6 4.7 1.3 9.4 2.1 14 .8 4.7 1.5 9.3 2.5 14 .9 4.5 1.8 9 3 13.5-1.1 1.4-2.3 2.7-3.6 4-1.3 1.3-2.8 2.6-4.3 3.8-1.5 1.1-3.1 2.2-4.8 3l-1.3.6c-.4.2-.9.3-1.3.5l-2.7 1c-7.2 2.7-14.5 5.3-21.8 7.7l-5.5 1.8c-1.8.6-3.7 1.3-5.5 2.2-.4.2-.9.5-1.3.7-.4.3-.9.5-1.3.9l-.6.5c-.2.2-.5.5-.6.8-.3.5-.4 1.1-.5 1.6-.2 1.1-.1 2.1 0 3.1s.3 2 .4 2.9c.4 1.9.8 3.8 1.3 5.7l.8 2.8c.3.9.5 1.8.7 2.8.4 1.9.7 3.8.9 5.7s.4 3.8.5 5.7v.8h133.4v-.8c.2-4.1.4-8.2.5-12.3s.2-8.2.2-12.3c0-1.8-.1-3.8-.1-5.9zm-67.4 30.3H70.2l-16.5-.1-16-.1c-.1-1.8-.2-3.5-.4-5.3-.2-1.9-.4-3.9-.8-5.8-.2-1-.4-1.9-.7-2.9l-.7-2.8c-.5-1.9-.9-3.7-1.2-5.6-.2-.9-.3-1.9-.4-2.8-.1-.9-.1-1.9 0-2.7.1-.4.2-.8.4-1.1.1-.2.2-.3.3-.4l.5-.4c.3-.3.7-.5 1.1-.8.4-.2.8-.5 1.2-.7 1.7-.8 3.5-1.4 5.3-2l5.5-1.8c7.3-2.4 14.6-5 21.8-7.8l2.7-1c.5-.2.9-.3 1.4-.5l1.4-.6c1.8-.9 3.4-2 5-3.2s3-2.5 4.4-3.9 2.7-2.9 3.8-4.5l.2-.3-.1-.3c-1.3-4.5-2.3-9.1-3.3-13.7s-1.9-9.3-2.7-13.9c-.8-4.6-1.6-9.3-2.4-14l-2.2-13.9 19.3-1.8c6.2-.6 12.3-1.2 18.5-1.8l-.2 14.4-.2 15-.3 30v.4l.2.2.6.7.6.6.3.3.3.2.6.5c.4.3.9.6 1.3.9.4.3.9.6 1.3.9.4.3.9.5 1.3.8s.9.5 1.3.8l1.4.8 1.4.7c.5.2.9.5 1.4.7l1.4.7c1 .4 1.9.8 2.9 1.2s1.9.8 2.9 1.1l1.5.5c.5.2 1 .3 1.5.4.5.1 1 .3 1.5.4l1.5.4c1 .3 2 .4 3 .6 2 .4 4.1.6 6.2.8 2.1.2 4.1.2 6.2.2 2.1 0 4.1-.1 6.1-.1s4 .1 5 1.3c.5.6.9 1.4 1.2 2.3.3.9.4 1.9.6 2.8.3 2 .4 4 .5 6s.1 4.1.2 6.1c.1 7.9-.1 15.8-.4 23.7-10.8.1-21.5.1-32.3.2h-33.1z" fill="#c5796d" stroke-width="none" opacity="1"></path><path id="SvgjsPath11847" d="M150.7 219.2 147 198l-.4 21.2z" fill="#d4958a" stroke-width="none" opacity="1"></path><path id="SvgjsPath11848" d="M47.3 203.5s2.2 11.5 2.9 15.7h3.5l-6.4-15.7z" fill="#d4958a" stroke-width="none" opacity="1"></path></g><g id="svga-group-clothes-single"><path id="SvgjsPath12103" d="M31.7 194.7c0 2.7-1.2 11.2-5.1 15.7 0 0 5.4-2 7.2.5 1.8 2.5 2.1 4.8 5.9 2.4 3.8-2.3 4.9-.3 5.8.4.9.7 3.3 1.4 5 .1s3.2-.5 4.3.9 3.9 2.1 7.7.5 6 .5 9.8 1c3.9.5 7.8.4 8.6-.1s2.8-2 4.3-1.9 2.8 1.9 4 2.5 3.1-.8 3.9-1.3 2.2-.1 3.6.5 8.9-.2 8.9-.2.3 1.6 1.8 1.6 2.4-2 2.4-2 .3.8 2.9.3 6.8-2.7 8-2.7 2.6-.1 3.3.9.4 2 1.9 2.3 2.5.5 4.9-.7 4-2.5 6.4-.8c0 0 1.2 3.1 4.7 2.2s2.5-2.4 4.4-2.4 4.7 1.4 6.1 1.1 2.5-1.5 2.9-2.4c.4-.9 1.1-3.1 3.5-3.3 0 0 2.5 1.1 4.2-.2s2.6-2.6 4.5-3.7 4.9.3 6 0 2.6-1.4 2.8-2.9.7-2.6 1-3.4c.3-.9 2-1.4 2-1.4s-5.6-8.4-6.4-9.8-2.3-4.3-2.3-4.3-5.2 6.4-26.4 9.3c-13.2 1.8-33.6 3.8-47.6 4.3s-43.4 1.4-52.5-.1c-8.8-1.5-12.4-2.9-12.4-2.9z" fill="#c8f1ae" stroke-width="none" opacity="1" stroke="none"></path><path id="SvgjsPath12104" d="M137.2 193.6c-11.7 1.3-23.5 2.4-35.2 3.1-11.8.7-23.5 1.1-35.3 1.3-5.9.1-11.8.1-17.7-.3-5.9-.3-11.7-1.3-17.3-3.1 5.5 2.2 11.4 3.4 17.2 4 5.9.6 11.8.8 17.7.9 11.8.2 23.7-.1 35.5-.8 11.8-.7 23.6-1.9 35.3-3.5 5.8-.8 11.7-1.6 17.5-3.1 5.7-1.5 11.4-3.9 15.7-8-4.6 3.7-10.2 5.9-15.9 7.1-5.7 1.2-11.6 1.7-17.5 2.4zm-107.9 9.3c-.5 1.3-1 2.6-1.5 4s-1.1 2.6-1.7 4.1c1.2-.9 2.2-2.1 3-3.3.8-1.2 1.5-2.6 2-4s.8-2.9.9-4.4c.1-1.5 0-3-.5-4.5-.4 1.5-.7 2.9-1.1 4.2-.2 1.2-.6 2.5-1.1 3.9zm.2 7.7c1.1.1 2.1.3 3 .8.4.2.8.6 1.1.9.3.4.5.7.7 1.3.3.5.6 1.2 1.4 1.7s1.8.5 2.5.2c.7-.2 1.3-.6 1.8-1s.9-.7 1.3-1c.4-.3.7-.4 1.1-.4.4 0 .9.1 1.3.3.9.4 1.9 1.1 3.2 1.5.6.2 1.3.2 1.9 0 .6-.2 1.1-.6 1.3-1.2-.8.9-2 .8-2.9.3-.9-.5-1.7-1.3-2.8-1.9-.5-.3-1.2-.6-2-.7-.8-.1-1.6.2-2.2.5-.6.3-1.1.7-1.5 1.1-.4.3-.8.5-1.2.6-.4.1-.7.1-.8 0-.2-.1-.5-.4-.7-.9-.3-.5-.7-1.1-1.2-1.6s-1.1-.9-1.7-1.1c-.6-.2-1.2-.4-1.9-.4s-1.2 0-1.8.1c-1.2.2-2.4.6-3.3 1.3 1.2-.4 2.3-.6 3.4-.4zM52 209c.1-.9.1-1.7 0-2.6-.1-.9-.2-1.8-.6-2.6-.5.8-.8 1.7-1 2.5-.2.9-.4 1.7-.4 2.6s-.1 1.7 0 2.6c.1.8.2 1.6.5 2.4 0 .1-.1.1-.1.2 0-.1.1-.1.1-.1v.1c.1-.1.2-.3.2-.4.4-.3.9-.3 1.3-.2.6.1 1.2.4 1.6.8.5.4.9.9 1.4 1.4.5.5 1.1 1 1.9 1.3.8.3 1.6.3 2.3.2.8-.1 1.5-.3 2.1-.5.7-.2 1.3-.4 1.9-.6.6-.1 1.2-.2 1.8-.2 2.4 0 5 1 7.9 1.3 2.8.3 5.7.1 8.3-.6l.6-.2-.1-.6c-.5-2.4-1.1-4.7-1.8-7 .1 2.2.3 4.4.5 6.6-1.1.1-2.2.2-3.4.2-1.3 0-2.6-.1-3.9-.3-2.6-.3-5.1-1.4-8.2-1.3-3.2.1-5.5 2.3-7.7 1.8-1.1-.2-2-1.3-3.2-2.1-.6-.4-1.4-.6-2.1-.6-.4 0-.8.1-1.2.4.3-.6.5-1.2.6-1.8.4-1 .6-1.8.7-2.7zm123.5-18.2c-.7-1.1-1.5-2.3-2.3-3.4s-1.6-2.2-2.5-3.3c.2 1.4.6 2.8 1.2 4.1s1.2 2.6 2 3.7c.8 1.2 1.6 2.3 2.5 3.4.9 1.1 1.9 2.1 3 2.9-.5-1.4-1.1-2.6-1.8-3.8-.7-1.3-1.4-2.4-2.1-3.6zm3 7.5c-.3.1-.6.3-.8.4-.5.4-.8.9-1.1 1.4-.6 1-.9 2.2-1.4 3.1-.5.9-1 1.5-1.8 1.5-.7.1-1.8-.3-3-.5-.6-.1-1.4-.1-2.1.1-.7.2-1.3.5-1.8.9-1 .7-1.8 1.6-2.5 2.5-.7.8-1.4 1.6-2.3 2-.8.4-1.8.6-2.8.3-.2-1.2-.5-2.3-.9-3.4-.3-1.1-.7-2.2-1.1-3.2s-.8-2.1-1.2-3.2c-.4-1.1-.9-2.1-1.4-3.2-.2 1.2-.2 2.4-.1 3.6.1 1.2.4 2.4.8 3.5s.9 2.2 1.5 3.2 1.3 1.9 2.2 2.7c-.1 0-.1 0-.2-.1.8.9 2.2 1 3.4.7 1.2-.3 2.2-1.1 3.1-1.9 1.7-1.5 3.2-2.9 5-2.6.5.1 1 .2 1.6.3.6.1 1.2.2 2 .1.7-.1 1.5-.5 1.9-1.1.5-.5.8-1.2.9-1.7.4-1.2.5-2.3.8-3.2.3-1 .8-2.1 1.9-2.3 0-.1-.3 0-.6.1zm-21.7 12.2c-.6.3-1.1.8-1.5 1.4-.7 1.1-1.3 2.3-2.1 2.6-.8.4-1.8.1-3-.4-.6-.2-1.2-.4-1.9-.6-.7-.1-1.6-.2-2.3 0-1.5.4-2.5 1.3-3.5 1.9-1 .6-1.9.8-2.8.4-.9-.4-1.8-1.3-2.2-2.3-.5-1.1-.8-2.3-1.1-3.6-.1 1.3-.1 2.6.2 3.9v.1c-.2-.1-.4-.2-.6-.2-.7-.2-1.4-.2-2 0-1.4.3-2.5 1.1-3.6 1.6-.6.3-1.1.5-1.6.6-.6.1-1.1.1-1.6 0s-.8-.4-1.1-.8c-.3-.4-.5-1.1-1-1.7-.5-.6-1.3-1.1-2-1.3-.8-.2-1.5-.3-2.3-.2-1.5.1-2.8.8-3.9 1.4-1.2.6-2.2 1.2-3.3 1.4-1.1.2-2.2.1-2.9-.4l-.9-.7-.6.9c-.4.6-.8 1.2-1.3 1.6-.5.3-.8.3-1.1-.1-.3-.4-.6-1.2-.9-2l-.8-2.4c-1.2-3.1-2.4-6.2-3.7-9.3.7 3.3 1.6 6.5 2.4 9.7l.7 2.4.3 1.1c-1.8-.2-3.6-.3-5.3-.4-1.1-.1-2.2 0-2.8-.3-.3-.1-.8-.4-1.5-.7-.3-.1-.8-.2-1.2-.1-.4.1-.8.2-1.1.3-.6.3-1.1.6-1.5.9-.4.3-.8.5-1 .5-.2 0-.3 0-.6-.3s-.8-.9-1.3-1.2c-1.1-.7-2.4-.8-3.6-.5-1.2.3-2.2 1-2.7 2 1.7-1.4 4-1.3 5.3-.2.3.3.5.6.9 1.1.2.2.4.5.8.8.4.2.8.3 1.3.3.9-.1 1.4-.5 1.9-.8.5-.3.9-.6 1.2-.8.4-.2.6-.2.8-.1.3.1.8.4 1.4.6.7.2 1.3.2 1.9.2.6 0 1.1-.1 1.6-.1 1.8-.2 3.6-.4 5.4-.8.1.4.3.8.6 1.2.3.5.9.9 1.6 1 .7.1 1.3-.1 1.8-.4.6-.4 1.1-.8 1.4-1.3.4.2.9.4 1.3.4.8.1 1.5.1 2.2-.1 1.5-.3 2.7-1 3.8-1.6 1.1-.6 2.2-1.1 3.2-1.3 1.1-.1 2.2.1 2.8.7.3.3.5.9 1 1.5.5.7 1.3 1.1 2.1 1.2 1.5.3 3-.4 4.1-1.1 1.1-.7 2.1-1.5 3.2-1.9.8-.3 1.7-.4 2.6-.1.4 1.2 1.1 2.3 2.3 3 .6.4 1.5.6 2.3.5.8-.1 1.5-.3 2.1-.6 1.2-.6 2.2-1.4 3.2-1.6.3-.1.7-.1 1.1-.1l.4 3.2c-7.9.1-15.8.2-23.7.2-8.1 0-16.2-.3-24.3-.4-8.1-.2-16.2-.1-24.3-.1-8 .1-16 .2-24 .4l-1.4-5.1c-.1.1-.2.1-.3.2l1.1 5.4.1.3h.3c8.1.2 16.2.4 24.3.5 8.1.1 16.2.1 24.3-.1 8.1-.1 16.2-.4 24.3-.4s16.2 0 24.3.2h.6l-.1-.6-.3-3.4c.3.1.5.2.8.2.6.2 1.3.4 2 .5.7.1 1.6 0 2.3-.5.7-.4 1.2-1.1 1.4-1.7.3-.6.5-1.2.7-1.8.2-.5.6-1 1-1.4.4-.4 1-.7 1.6-.5-.3-.3-1.1-.2-1.7.1z" fill="#95d26e" stroke-width="none" opacity="1" stroke="none"></path><path id="SvgjsPath12105" d="M176.4 198.5c-2.7-3.3-4.9-6.3-6.5-10.3-.1-.1-.3-.1-.2.1.9 3.9 3 8.2 6.3 10.7.2.2.6-.2.4-.5zm-1.5.3c-.9.4-.9.8-1.4 1.5-1.2 1.7-2.9.7-4.6 1-2.5.4-5 3.1-6.4 5-.2.3.2.6.5.5 1.2-.7 2.2-1.6 3.2-2.5 1-.9 2.1-1.8 3.5-1.9.4 0 1.6.3 2.1.3 2.5-.2 1.6-2.2 3.3-3.4.3-.1.1-.7-.2-.5zm-20.1 9.9c-1.1-3.5-2.3-6.8-3.1-10.3-.1-.3-.7-.3-.6.1.4 3.6 1.4 7.4 3.3 10.4 0 .3.5.1.4-.2zm-.2.8c-.9.3-.4.6-1.2 1-3.6 1.8-3.1 0-5.7 0-.9 0-1.6.4-2.4.9-.4.3-1.6 1.3-1.8 1.4-1.7.6-3.4-.4-4.5-1.5-.3-.3-.7.1-.5.4 1.7 3.7 4.2 3.3 7.1 1.3 1.9-1.3 2.8-.7 4.9-.1.6.2 1.2.4 1.9.3 2.1-.4 1.3-1.9 2.6-3 .2-.3-.1-.8-.4-.7zm-21.7-6.6c-.3 1.8.5 3.9.2 5.5-1.4 7-4.9 3.6-7.2 2.4-.7-.4-1.4-.7-2.2-.9-4.9-1.4-8.1 2.7-12.8 1.8-.4-.1-.6.5-.2.6 3.8 1.4 4.2-.4 7.9-1.4 5-1.4 7.2 3.2 11.4 2.9 5.4-.3 3.1-7.8 3.1-10.9.1-.1-.2-.1-.2 0zm-29.3 1.5c.5 2.9 1.4 5.7 2.9 8.2.1.2.5.1.4-.2-1-2.7-2-5.4-2.9-8.2-.2-.2-.5-.1-.4.2zm-3.4 7.7c-2.6.7-4.3-1.5-6.7-1-.3.1-.7.3-1 .4-1.4.3-2 .2-3.5-.2-2.5-.7-4.6-.5-6.5 1.4-.2.2.1.6.3.4 1.4-1 3.1-1.7 4.9-1.2.9.2 1.6 1.1 2.4 1.3.6.2 1 .2 1.7.1 1.1-.3 1.3-.7 2.6-.9 1.3-.1 2 .4 3.2.6 1.2.2 1.8.3 2.8-.5.4-.1.2-.5-.2-.4zm-23-6.7c0 1.2.8 6.2-.2 6.6-.5.2-4.7-1.4-5.6-1.5-5.4-.5-10.5 3.4-15.4 1.2-.6-.3-1.1.5-.5.9 2.5 1.8 4 2 6.9 1 5.5-2 9.9-2.7 15.4 0 .3.2.9 0 .9-.5-.3-2.6-.4-5.3-.8-7.9-.2-.2-.7-.1-.7.2zm-29.3-.6c-.2 2-.5 3.9-.7 5.9-1.6-2-4.3-3-6.9-2.1-.6.2-1.3.9-1.9 1.1-2.4.5-1.5-.4-2.6-1-.7-.4-4.1-1.9-4.1-2.3 0-.3-.3-.5-.5-.2-.4.8-.6 1.1.1 1.9.4.4.9.4 1.3.6 1.2.6 2 1.5 3 2.2 1 .7 1.1 1.1 2.5.6.6-.2 1.6-1.2 1.7-1.3 2.8-1.6 5.7-.5 7.3 2 .2.4.8.2.8-.2.1-2.4.3-4.8.4-7.1.1-.4-.3-.4-.4-.1z" fill="#e3ffd2" stroke-width="none" opacity="1" stroke="none"></path></g><g id="svga-group-head" transform="matrix(1,0,0,1,0,0)"><g id="svga-group-ears-left-move" transform="matrix(1,0,0,1,0,0)"><g id="svga-group-ears-left"><path id="SvgjsPath11787" d="M65.8 98.48s-4.2-8.27-8.66-11.42c-4.46-3.15-9.84-3.15-9.84-3.15s-3.02 2.1-1.97 12.6c0 0 4.46 10.76 12.47 14.7 0 0 5.77 1.31 8.66.66-.01-.01 2.09-6.18-.66-13.39z" fill="#f3d4cf" stroke-width="none" opacity="1"></path><path id="SvgjsPath11788" d="M64.88 101.76s-3.67-7.87-6.04-9.84c-2.36-1.97-7.87-5.12-9.32-3.28-1.44 1.84-1.57 7.61-1.57 7.61s1.57 4.59 6.3 7.09c4.72 2.49 10.37 2.76 10.37 2.76l.26-4.34z" fill="#e4b3ab" stroke-width="none" opacity="1"></path><path id="SvgjsPath11789" d="M44.99 93.25c.02 1.09.09 2.19.17 3.28v.02l.01.03a39.54 39.54 0 0 0 2.2 4.42c.82 1.43 1.75 2.79 2.75 4.11 1.02 1.3 2.15 2.51 3.38 3.64 1.25 1.1 2.62 2.07 4.12 2.83l.04.02.05.01c1.45.31 2.89.55 4.36.7.73.07 1.47.13 2.22.13.74-.01 1.5-.05 2.25-.23l.19-.05.05-.17c.33-1.14.5-2.27.58-3.42.08-1.15.08-2.3-.01-3.44a23.99 23.99 0 0 0-.52-3.38c-.23-1.12-.59-2.2-.99-3.27-.94-1.86-2.02-3.63-3.13-5.4-1.14-1.74-2.35-3.46-3.85-4.95-.75-.74-1.6-1.4-2.5-1.96-.91-.56-1.88-.98-2.87-1.35-1.99-.73-4.08-1.08-6.19-1.12h-.08l-.04.04c-.89.85-1.22 1.93-1.54 2.98-.29 1.06-.45 2.16-.54 3.25-.09 1.09-.13 2.18-.11 3.28zm.33-3.27c.11-1.08.28-2.15.59-3.19.15-.52.35-1.02.59-1.49.23-.44.53-.89.86-1.18 2.01.12 4.01.6 5.9 1.29 1.9.73 3.7 1.74 5.19 3.13 1.5 1.39 2.82 2.99 4.04 4.67 1.22 1.67 2.29 3.46 3.28 5.28.37 1.07.71 2.15.91 3.27.24 1.11.32 2.24.36 3.37.04 1.13-.04 2.26-.19 3.37-.14 1.04-.35 2.09-.65 3.07-.62.1-1.26.12-1.91.1-.71-.01-1.43-.06-2.14-.14-1.41-.15-2.83-.4-4.21-.7-1.39-.74-2.72-1.62-3.93-2.66-1.2-1.07-2.33-2.24-3.35-3.49a42.391 42.391 0 0 1-2.82-3.96c-.86-1.37-1.66-2.79-2.33-4.25l-.16-1.59c-.05-.54-.06-1.09-.09-1.63-.04-1.1-.03-2.18.06-3.27z" fill="#e4b3ab" stroke-width="none" opacity="1"></path><path id="SvgjsPath11790" d="M49.2 91.53c.18-.69.39-1.36.67-2.03.07-.16.16-.33.26-.48.11-.15.23-.33.48-.37.45.02.72.22 1.06.37a18.3 18.3 0 0 1 3.48 2.44c.53.48 1.03 1.01 1.42 1.66.18.33.36.69.38 1.14.01.25-.01.36-.01.54l.01.51c.16 2.77.58 5.56.83 8.36l-.07.01c-.34-1.37-.61-2.75-.86-4.13-.26-1.39-.44-2.78-.55-4.2l-.03-.54v-.51c0-.26-.13-.56-.28-.84-.31-.57-.74-1.11-1.21-1.61-.94-1-2.01-1.94-3.22-2.61-.29-.16-.65-.33-.91-.33-.23.06-.41.43-.53.73-.26.63-.39 1.33-.52 2.01-.23 1.37-.39 2.77-.48 4.15-.02.34-.04.7-.02 1.01-.01.17.21.46.41.71.42.52.91 1.02 1.4 1.5.81.79 1.65 1.57 2.5 2.33.09-.91.18-1.82.24-2.74.04-.59.07-1.17.08-1.75.01-.53.01-1.07-.06-1.58-.15-.02-.33-.03-.5-.02a4.1 4.1 0 0 0-.69.1c-.46.1-.91.25-1.35.43l-.03-.07c.41-.25.85-.46 1.32-.62.23-.08.47-.15.72-.19.26-.04.49-.07.79-.01l.11.02.03.13c.15.61.18 1.21.22 1.81.02.6.02 1.19.01 1.79-.03 1.19-.08 2.37-.19 3.56l-.07.75-.58-.49c-1.08-.92-2.11-1.87-3.11-2.88-.49-.51-.98-1.03-1.43-1.61-.11-.15-.22-.3-.32-.47-.05-.09-.1-.18-.14-.29-.05-.11-.07-.28-.07-.37-.01-.39.03-.74.06-1.1.14-1.45.39-2.84.75-4.22z" fill="#c5796d" stroke-width="none" opacity="1"></path></g></g><g id="svga-group-ears-right-move" transform="matrix(1,0,0,1,0,0)"><g id="svga-group-ears-right"><path id="SvgjsPath11791" d="M134.2 98.48s4.2-8.27 8.66-11.42c4.46-3.15 9.84-3.15 9.84-3.15s3.02 2.1 1.97 12.6c0 0-4.46 10.76-12.47 14.7 0 0-5.77 1.31-8.66.66.01-.01-2.09-6.18.66-13.39z" fill="#f3d4cf" stroke-width="none" opacity="1"></path><path id="SvgjsPath11792" d="M135.12 101.76s3.67-7.87 6.04-9.84c2.36-1.97 7.87-5.12 9.32-3.28 1.44 1.84 1.57 7.61 1.57 7.61s-1.57 4.59-6.3 7.09c-4.72 2.49-10.37 2.76-10.37 2.76l-.26-4.34z" fill="#e4b3ab" stroke-width="none" opacity="1"></path><path id="SvgjsPath11793" d="M154.91 89.96c-.09-1.09-.25-2.18-.54-3.25-.32-1.05-.65-2.13-1.54-2.98l-.04-.04h-.08c-2.11.04-4.21.39-6.19 1.12-.99.37-1.96.79-2.87 1.35-.9.56-1.75 1.22-2.5 1.96-1.5 1.49-2.71 3.21-3.85 4.95-1.11 1.77-2.18 3.54-3.13 5.4-.39 1.07-.76 2.15-.99 3.27a23.99 23.99 0 0 0-.52 3.38c-.1 1.14-.09 2.29-.01 3.44s.25 2.28.58 3.42l.05.17.19.05c.75.18 1.51.22 2.25.23.75 0 1.48-.05 2.22-.13 1.47-.15 2.91-.39 4.36-.7l.05-.01.04-.02c1.5-.76 2.87-1.73 4.12-2.83 1.23-1.12 2.36-2.34 3.38-3.64 1-1.31 1.93-2.68 2.75-4.11.82-1.43 1.57-2.89 2.2-4.42l.01-.03v-.02c.07-1.09.14-2.18.17-3.28.01-1.09-.03-2.18-.11-3.28zm-.16 3.28c-.03.54-.04 1.09-.09 1.63l-.16 1.59c-.67 1.47-1.47 2.89-2.33 4.25-.87 1.37-1.8 2.7-2.82 3.96a29.855 29.855 0 0 1-3.35 3.49 21.554 21.554 0 0 1-3.93 2.66c-1.38.3-2.8.54-4.21.7-.71.08-1.43.13-2.14.14-.64.01-1.29 0-1.91-.1-.3-.98-.51-2.03-.65-3.07-.15-1.11-.22-2.24-.19-3.37.04-1.13.12-2.26.36-3.37.2-1.12.54-2.2.91-3.27.98-1.82 2.05-3.61 3.28-5.28 1.21-1.67 2.54-3.28 4.04-4.67 1.49-1.39 3.28-2.4 5.19-3.13 1.88-.69 3.89-1.17 5.9-1.29.34.29.63.74.86 1.18.25.47.44.97.59 1.49.3 1.03.48 2.11.59 3.19.08 1.1.09 2.18.06 3.27z" fill="#e4b3ab" stroke-width="none" opacity="1"></path><path id="SvgjsPath11794" d="M150.8 91.53c-.18-.69-.39-1.36-.67-2.03-.07-.16-.16-.33-.26-.48-.11-.15-.23-.33-.48-.37-.45.02-.72.22-1.06.37a18.3 18.3 0 0 0-3.48 2.44c-.53.48-1.03 1.01-1.42 1.66-.18.33-.36.69-.38 1.14-.01.25.01.36.01.54l-.01.51c-.16 2.77-.58 5.56-.83 8.36l.07.01c.34-1.37.61-2.75.86-4.13.26-1.39.44-2.78.55-4.2l.03-.54v-.51c0-.26.13-.56.28-.84.31-.57.74-1.11 1.21-1.61.94-1 2.01-1.94 3.22-2.61.29-.16.65-.33.91-.33.23.06.41.43.53.73.26.63.39 1.33.52 2.01.23 1.37.39 2.77.48 4.15.02.34.04.7.02 1.01.01.17-.21.46-.41.71-.42.52-.91 1.02-1.4 1.5-.81.79-1.65 1.57-2.5 2.33-.09-.91-.18-1.82-.24-2.74-.04-.59-.07-1.17-.08-1.75-.01-.53-.01-1.07.06-1.58.15-.02.33-.03.5-.02.23.01.46.05.69.1.46.1.91.25 1.35.43l.03-.07c-.41-.25-.85-.46-1.32-.62a4.23 4.23 0 0 0-.72-.19c-.26-.04-.49-.07-.79-.01l-.11.02-.03.13c-.15.61-.18 1.21-.22 1.81-.02.6-.02 1.19-.01 1.79.03 1.19.08 2.37.19 3.56l.07.75.58-.49c1.08-.92 2.11-1.87 3.11-2.88.49-.51.98-1.03 1.43-1.61.11-.15.22-.3.32-.47.05-.09.1-.18.14-.29.05-.11.07-.28.07-.37.01-.39-.03-.74-.06-1.1a26.8 26.8 0 0 0-.75-4.22z" fill="#c5796d" stroke-width="none" opacity="1"></path></g></g><g id="svga-group-faceshape-wrap"><g id="svga-group-faceshape-single"><path id="SvgjsPath11825" d="M135.9 49.8c-6.7-7.4-11.3-13.2-28.8-17.3-1.8-.4-12.3-.4-14.1 0-17.5 4.1-22.1 9.9-28.8 17.3-7.1 7.8-9.5 29-9.5 29 0 21.4 2.7 35.2 5 41.3 2.3 6.2 21.1 25.2 24.9 27s15.5 2.3 15.5 2.3 11.6-.6 15.5-2.3c3.8-1.8 22.6-20.8 24.9-27s5.1-19.9 5-41.3c-.1 0-2.5-21.2-9.6-29z" fill="#f3d4cf" stroke-width="none" opacity="1"></path><path id="SvgjsPath11826" d="M107.1 32.5c-1.8-.4-12.3-.4-14.1 0-17.5 4.1-22.1 9.9-28.8 17.3-7.1 7.8-9.5 29-9.5 29 0 21.4 2.7 35.2 5 41.3 2.3 6.2 21.1 25.2 24.9 27s15.5 2.3 15.5 2.3 11.6-.6 15.5-2.3c3.8-1.8 22.6-20.8 24.9-27s5.1-19.9 5-41.3c0 0-2.4-21.2-9.5-29-6.8-7.4-11.4-13.2-28.9-17.3zm35 31.2c.7 2.5 1.2 5 1.6 7.5.4 2.5.8 5 1 7.5-.1 3.9-.3 7.8-.7 11.7l-.3 2.9-.3 2.9-.3 2.9-.4 2.9c-.6 3.9-1.2 7.7-2.1 11.4-.5 1.9-1 3.7-1.6 5.5-.81 1.95-2.2 3.8-2.7 4.6-1.2 1.5-2.4 3-3.7 4.5-1.3 1.5-2.6 2.9-3.9 4.4-2.6 2.9-5.4 5.6-8.2 8.3-1.4 1.3-2.8 2.7-4.3 3.8-.4.3-1.22.92-2.1 1.3-.8.3-1.7.5-2.6.7-1.8.4-3.8.6-5.7.9-1.9.2-3.8.4-5.7.5-1.9-.1-3.8-.2-5.7-.4-1.9-.2-3.9-.4-5.7-.7-.9-.2-2.76-.53-4.8-1.9-1.5-1.1-3-2.4-4.4-3.7-2.9-2.6-5.7-5.3-8.4-8.2-2.7-2.8-5.4-5.7-7.8-8.8-.6-.8-1.2-1.5-1.7-2.3-.3-.4-.5-.8-.7-1.2l-.3-.6c-.1-.2-.2-.4-.3-.7-.7-1.8-1.2-3.7-1.7-5.6s-.9-3.8-1.2-5.7c-.2-1-.3-1.9-.5-2.9l-.4-2.9c-1-7.8-1.2-15.6-1.1-23.4.7-4.6 1.7-9.3 3-13.7.7-2.2 1.4-4.5 2.3-6.6.4-1.1.9-2.1 1.4-3.1s1.1-2 1.7-2.9c1.87-2.75 3.8-4.3 4.6-5.2 1.6-1.7 3.3-3.3 5-4.7 1.8-1.4 3.7-2.6 5.7-3.7s4.1-2 6.3-2.8l1.6-.6c.5-.2 5.91-1.79 8.3-2.1 1.2-.1 2.3-.1 3.5-.2 2.3-.1 4.65-.14 6.95-.14.1 0 3.35.64 3.35.64l1.8.4 1.7.4c2.3.6 4.5 1.3 6.7 2.3.3.1.5.2.8.3l.8.4c.5.3 1.1.5 1.6.8l1.5.9 1.5.9c2 1.3 3.8 2.8 5.4 4.5 1.7 1.7 3.3 3.4 4.9 5.2 1.7 1.9 2.9 4.2 3.9 6.6 1 2.3 1.8 4.8 2.4 7.2z" fill="#c5796d" stroke-width="none" opacity="1"></path></g></g><g id="svga-group-mouth-single-move" transform="matrix(1,0,0,1,0,0)"><g id="svga-group-mouth-single"><path id="SvgjsPath11770" d="M93.19 128.53s-.87 3.61.28 4.52c1.14.91 11.01.96 14.32-.58s-1.3-9.39-1.3-9.39l-8.57 1.27-3.51.36-1.22 3.82z" fill="#da7c87" stroke-width="none" opacity="1"></path><path id="SvgjsPath11771" d="M87.22 128.71s2.23 3.12 4.48 2.3c2.25-.82 3.27-4.03 4.39-4.36s1.58.78 2.39 3.08c.82 2.3 3.61 2.52 4.33.15.72-2.37 2.01-4.25 3.77-2.14 1.76 2.11 5.59 2.27 7.73-.31 0 0-3.5.91-4.64-3.34-1.14-4.26-4.56-5.6-7.18-2.55s-4.13-.76-5.21-1.28c-1.86-.9-4.19.48-5.01 3.08-.81 2.61-.65 5.91-5.05 5.37z" fill="#d26d79" stroke-width="none" opacity="1"></path><path id="SvgjsPath11772" d="M114.29 127.36c-.75.16-1.57.07-2.27-.24-.7-.33-1.28-.89-1.65-1.57-.39-.68-.57-1.43-.82-2.2-.27-.75-.64-1.48-1.16-2.1-.51-.62-1.19-1.14-1.98-1.35-.79-.22-1.66-.11-2.39.26-.74.35-1.31.97-1.84 1.54-.52.54-1.23 1.04-1.96.86-.73-.16-1.28-.79-1.8-1.36-.26-.29-.51-.61-.83-.87-.35-.27-.76-.36-1.16-.42-.83-.1-1.65.19-2.31.66-.67.46-1.17 1.12-1.55 1.83-.72 1.46-.73 3.11-1.4 4.53-.32.71-.87 1.33-1.62 1.59-.73.28-1.54.27-2.34.21.45.64.98 1.18 1.59 1.65.6.46 1.33.83 2.11.85.79-.01 1.52-.41 2.09-.91.58-.51 1.05-1.12 1.49-1.74.45-.6.84-1.3 1.43-1.72.29-.17.7-.2.98-.01.29.19.49.52.65.85.33.67.57 1.4.83 2.11.27.73.81 1.39 1.55 1.7.73.3 1.65.19 2.22-.38.62-.54.74-1.37 1.01-2.05.28-.69.61-1.4 1.18-1.88.28-.23.66-.35 1.02-.25.36.08.66.34.92.59.95 1.21 2.49 1.91 4.02 1.88 1.54-.01 3.05-.73 4.04-1.92l.12-.14h-.17zm-3.97 1.94c-.75.02-1.51-.13-2.2-.45-.7-.31-1.25-.83-1.75-1.41-.27-.27-.58-.53-.97-.63-.39-.11-.82.01-1.12.26-.61.5-.95 1.22-1.25 1.93-.29.71-.41 1.5-.99 1.98-.53.52-1.37.61-2.03.33-.68-.28-1.17-.9-1.42-1.59-.25-.72-.5-1.44-.85-2.13-.18-.34-.39-.69-.74-.93-.37-.23-.83-.19-1.19.02-.66.48-1.01 1.17-1.47 1.78-.43.62-.89 1.23-1.45 1.73-.55.5-1.25.88-1.99.9-.74-.01-1.46-.34-2.06-.79-.61-.44-1.15-1-1.62-1.57.77.1 1.58.11 2.35-.15.78-.24 1.37-.88 1.71-1.61.7-1.45.73-3.11 1.45-4.5.37-.68.86-1.31 1.5-1.74.63-.44 1.4-.69 2.16-.59.36.05.76.16 1.04.38.29.24.54.55.8.84.53.57 1.09 1.24 1.94 1.43.87.21 1.65-.37 2.19-.93.55-.58 1.07-1.15 1.78-1.49.68-.35 1.48-.46 2.22-.25.74.2 1.38.68 1.87 1.27.49.6.85 1.3 1.13 2.03.24.73.45 1.53.86 2.22.4.7 1.01 1.29 1.75 1.62.69.29 1.45.38 2.19.25-.97 1.09-2.39 1.76-3.84 1.79z" fill="#cb5f6c" stroke-width="none" opacity="1"></path></g></g><g id="svga-group-eyes-left-move" transform="matrix(1,0,0,1,0,1)"><g id="svga-group-eyes-left"><g id="svga-group-eyesback-left"><path id="SvgjsPath11925" d="M80.2 77.2c7.5 0 13.5 5.8 13.5 13s-6 13-13.5 13-13.5-5.8-13.5-13 6-13 13.5-13z" fill="#ffffff" stroke-width="none" opacity="1"></path></g><g id="svga-group-eyesiriswrapper-left" transform="matrix(1,0,0,1,0,0)"><g id="svga-group-eyesiriscontrol-left" transform="matrix(1,0,0,1,0,0)"><g id="svga-group-eyesiris-left"><path id="SvgjsPath11863" d="M80.2 84.9c2.9 0 5.3 2.4 5.3 5.3s-2.4 5.3-5.3 5.3-5.3-2.4-5.3-5.3 2.4-5.3 5.3-5.3z" fill="#234c13" stroke-width="none" opacity="1"></path><path id="SvgjsPath11864" d="M80.2 85.2c2.8 0 5.1 2.3 5.1 5.1s-2.3 5.1-5.1 5.1-5.1-2.3-5.1-5.1 2.3-5.1 5.1-5.1m0-.6c-3.1 0-5.6 2.5-5.6 5.6s2.5 5.6 5.6 5.6 5.6-2.5 5.6-5.6-2.5-5.6-5.6-5.6z" fill="#0e2d02" stroke-width="none" opacity="1"></path><path id="SvgjsPath11865" d="M77.4 91.7c0 1.3.5 2.5 1.3 3.3.5.1 1 .2 1.5.2 2.8 0 5.1-2.3 5.1-5.1 0-1-.3-2-.8-2.8-.7-.3-1.4-.5-2.2-.5-2.8.1-4.9 2.3-4.9 4.9z" fill="#315b20" stroke-width="none" opacity="1"></path><path id="SvgjsPath11866" d="M80.2 87.5c1.5 0 2.7 1.2 2.7 2.7s-1.2 2.7-2.7 2.7-2.7-1.2-2.7-2.7 1.2-2.7 2.7-2.7z" fill="#000000" stroke-width="none" opacity="1"></path><path id="SvgjsPath11867" d="M79 87.5c.5 0 .9.4.9.9s-.4.9-.9.9-1-.4-1-.9.5-.9 1-.9zm3.1 4.3c.2 0 .4.2.4.4s-.2.4-.4.4-.4-.2-.4-.4.2-.4.4-.4z" fill="#ffffff" stroke-width="none" opacity="1"></path><path id="SvgjsPath11868" d="M80.2 95.3c.3 0 .5 0 .8-.1-.2 0-.3-.2-.4-.3-.1.2-.3.4-.4.4-.3 0-.5-.2-.5-.4-.1.2-.4.3-.6.2-.2-.1-.4-.3-.4-.5-.2.2-.4.2-.6.1s-.3-.3-.3-.5c-.2.1-.5.1-.7 0s-.2-.5-.1-.7c-.2.2-.5.1-.7 0-.2-.2-.2-.5 0-.7-.2 0-.5-.1-.7-.3.9 1.7 2.6 2.8 4.6 2.8zm-4.6-3zm8.8.7c-.1.1-.3.2-.5.1.1.4-.3.8-.8.7.1.2 0 .4-.2.6-.2.1-.4.1-.6 0 0 .2-.1.4-.3.5s-.4 0-.6-.2c0 .2-.1.4-.2.5 1.4-.3 2.5-1.1 3.2-2.2zm-1.8-7.1c.3-.1.6.2.5.5.3-.2.8.3.6.6.2-.1.4 0 .4.2s.1.3-.1.5c.2 0 .5.1.6.3.1.2.1.5-.1.7.2 0 .4.2.5.4.1.2 0 .5-.2.6.2.1.3.3.3.5s-.1.4-.3.5c.2.1.3.3.3.5s-.2.4-.4.4c.3.2.1.8-.2.8.1.1.1.3.1.5.4-.8.7-1.6.7-2.6 0-2-1.2-3.8-2.9-4.6.1 0 .2.1.2.2zm-.6-.2c.1-.1.2-.1.3 0-.5-.2-1-.4-1.5-.4v.1c.4-.2.9 0 1.2.3zm-5.5 7c.2 0 .3-.1.4-.2.2-.1.3-.2.4-.3v-.1c-.2.1-.3.1-.4.2-.1.2-.3.2-.4.4 0-.1 0 0 0 0zm-1.2-1.5c.1 0 .3 0 .4-.1.2 0 .3-.1.5-.1v-.1c-.2 0-.3 0-.5.1s-.3 0-.4.2c0-.1 0 0 0 0zm.5-2.5c.4.1.8.3 1.2.4 0 0 .1 0 0-.1-.4-.1-.8-.3-1.2-.3 0-.1 0 0 0 0zm.2-.7c.2.2.4.3.7.4 0 0 .1 0 0-.1-.2-.2-.5-.3-.7-.3-.1-.1-.1-.1 0 0zm3.7 6.5c.1-.3.2-.7.2-1 0 0-.1-.1-.1 0-.1.3-.1.7-.1 1zm3.5-4c.3.1.7.1 1.1.1v-.1h-1.1zm.2-.7c.3 0 .7.1 1 0v-.1c-.3 0-.6 0-1 .1zm.2-2.7c-.3.2-.6.5-.9.8 0 0 0 .1 0 0 .3-.2.6-.5.9-.8.1 0 0 0 0 0zm-2.8-1.3c-.1.3-.2.5-.2.8 0 .1.1.1.1 0 .1-.2.1-.5.1-.8zm-2.9.3c.1.2.2.5.3.7h.1c-.1-.2-.3-.4-.4-.7z" fill="#0e2d02" stroke-width="none" opacity="1"></path></g></g></g><g id="svga-group-eyesfront-left"><path id="SvgjsPath11933" d="M80.2 76.7c-7.8 0-14.1 6.1-14.1 13.6s6.3 13.6 14.1 13.6 14.1-6.1 14.1-13.6S88 76.7 80.2 76.7zm9.7 15.6c-1 1.1-6.8 3.9-13.8 6.1-3.3 1.1-6.9-4.3-7.8-6-.9-1.8 1.4-3.5 3.2-4.5 1.9-1 13.8-1.1 18.4-2.1 1.1-.2 1 5.4 0 6.5z" fill="#f3d4cf" stroke-width="none" opacity="1"></path><path id="SvgjsPath11934" d="m92.6 84.2-1.7.6s-.8 0-2 .1c.7-.5 1.2-1.1 1.4-1.9.1-.3-.3-.6-.6-.3-.5.5-.9 1.2-1.5 1.6-.3.3-.7.5-1.1.7-.3 0-.5 0-.8.1 1.2-1.1 1.9-2.7 1.7-4.2 0-.3-.4-.3-.5-.1-.6 1.9-1.4 3.2-2.8 4.4h-.3c.8-1.2 1.3-2.7 1.2-4-.1-.4-.6-.5-.7-.1-.2.8-.4 1.7-.8 2.5-.3.7-.7 1.2-1.1 1.8-.4 0-.7.1-1 .1.4-.9.7-1.8.6-2.7 0-.3-.5-.2-.6 0-.2.6-.2 1.2-.4 1.7-.1.4-.3.7-.5 1.1-3.7.5-11.3 1.6-12 2.2-.6.6-1.3 3.1-1.2 3.5v.7c.1.3.2.6.4.9.6 1 1.3 2 2.1 2.9.8.9 1.7 1.7 2.7 2.3.5.3 1.1.5 1.7.6h.9c.3-.1.6-.2.9-.2 2.3-.7 4.5-1.5 6.8-2.4 1.1-.5 2.2-.9 3.3-1.5 1.1-.6 2.1-1.1 3.1-1.9.1-.1.2-.2.3-.4s.2-.3.2-.4c.1-.3.2-.6.2-.9.1-.6.2-1.2.2-1.8v-1.8c0-.3-.1-.6-.1-.9 0-.1-.1-.2-.1-.3 1.2-.4 2.1-2 2.1-2zm-2.1 2.3c.1.3.1.6.1.9v1.8c-.1.6-.1 1.2-.3 1.8-.2.6-.3 1.2-.8 1.5-.4.4-1 .6-1.5.9-.5.3-1.1.6-1.6.8-1.1.5-2.2 1-3.2 1.5-2.2.9-4.4 1.8-6.6 2.6-.3.1-.6.2-.8.3-.3.1-.6.1-.9 0-.6-.1-1.1-.3-1.7-.6-1-.6-1.9-1.4-2.6-2.3-.8-.9-1.4-1.9-2-2.9-.1-.3-.3-.5-.3-.8 0-.2 0-.5.1-.7 1.8-.8 9.4-3.7 21.7-4.9.1 0 .2 0 .3-.1 0 0 .1.1.1.2z" fill="#000000" stroke-width="none" opacity="1"></path></g></g></g><g id="svga-group-eyes-right-move" transform="matrix(1,0,0,1,0,1)"><g id="svga-group-eyes-right"><g id="svga-group-eyesback-right"><path id="SvgjsPath11926" d="M119.8 77.2c7.5 0 13.5 5.8 13.5 13s-6 13-13.5 13-13.5-5.8-13.5-13 6-13 13.5-13z" fill="#ffffff" stroke-width="none" opacity="1"></path></g><g id="svga-group-eyesiriswrapper-right" transform="matrix(1,0,0,1,0,0)"><g id="svga-group-eyesiriscontrol-right" transform="matrix(1,0,0,1,0,0)"><g id="svga-group-eyesiris-right"><path id="SvgjsPath11869" d="M119.8 85.5c2.6 0 4.7 2.1 4.7 4.7s-2.1 4.7-4.7 4.7-4.7-2.1-4.7-4.7 2.1-4.7 4.7-4.7z" fill="#234c13" stroke-width="none" opacity="1"></path><path id="SvgjsPath11870" d="M119.8 85.8c2.4 0 4.4 2 4.4 4.4s-2 4.4-4.4 4.4-4.4-2-4.4-4.4 1.9-4.4 4.4-4.4m0-.5c-2.7 0-4.9 2.2-4.9 4.9s2.2 4.9 4.9 4.9 4.9-2.2 4.9-4.9-2.2-4.9-4.9-4.9z" fill="#0e2d02" stroke-width="none" opacity="1"></path><path id="SvgjsPath11871" d="M117.3 91.5c0 1.1.4 2.2 1.2 2.9.4.1.8.2 1.3.2 2.4 0 4.4-2 4.4-4.4 0-.9-.3-1.8-.7-2.4-.6-.3-1.2-.5-1.9-.5-2.4 0-4.3 1.9-4.3 4.2z" fill="#315b20" stroke-width="none" opacity="1"></path><path id="SvgjsPath11872" d="M119.8 87.8c1.3 0 2.4 1.1 2.4 2.4s-1.1 2.4-2.4 2.4-2.4-1.1-2.4-2.4 1.1-2.4 2.4-2.4z" fill="#000000" stroke-width="none" opacity="1"></path><path id="SvgjsPath11873" d="M118.7 87.8c.5 0 .8.4.8.8s-.4.8-.8.8-.8-.4-.8-.8.4-.8.8-.8zm2.8 3.8c.2 0 .3.1.3.3s-.1.3-.3.3-.3-.1-.3-.3.1-.3.3-.3z" fill="#ffffff" stroke-width="none" opacity="1"></path><path id="SvgjsPath11874" d="M119.8 94.7c.2 0 .4 0 .7-.1-.2 0-.3-.2-.3-.3-.1.2-.3.3-.4.4-.2 0-.4-.2-.5-.3-.1.2-.3.3-.5.2-.2-.1-.3-.2-.3-.4-.1.1-.4.2-.5.1s-.3-.3-.3-.4c-.2.1-.4.1-.6 0s-.2-.4-.1-.6c-.2.1-.4.1-.6 0-.2-.2-.2-.4 0-.6-.2 0-.4-.1-.6-.2.8 1.2 2.3 2.2 4 2.2zm-4-2.6s0-.1 0 0c-.1-.1 0 0 0 0zm7.7.6c-.1.1-.3.2-.4.1.1.4-.3.7-.7.7.1.2 0 .4-.2.5s-.4.1-.5 0c0 .2-.1.4-.3.4s-.4 0-.5-.2c0 .2-.1.3-.2.4 1.2-.3 2.2-1 2.8-1.9zm-1.6-6.2c.2-.1.5.2.4.4.3-.1.7.2.5.5.1 0 .3 0 .4.2.1.1 0 .3-.1.4.2 0 .4.1.5.3.1.2.1.4-.1.6.2 0 .4.1.4.3s0 .4-.2.5c.2.1.3.2.3.4s-.1.4-.3.4c.2.1.3.3.2.5s-.2.3-.4.4c.2.2.1.7-.2.7.1.1.1.3.1.4.4-.7.6-1.4.6-2.3 0-1.8-1-3.3-2.5-4 .3.1.4.2.4.3zm-.5-.3c.1-.1.2-.1.3 0-.4-.2-.8-.3-1.3-.4v.1c.3-.1.7.1 1 .3zm-4.8 6.2c.1 0 .2-.1.4-.2.1-.1.3-.1.4-.2v-.1c-.1.1-.3.1-.4.2s-.3.1-.4.3c-.1-.1 0 0 0 0zm-1.1-1.4c.1 0 .2 0 .4-.1.1 0 .3-.1.4-.1v-.1c-.1 0-.3 0-.4.1s-.3.1-.4.2zm.5-2.1c.3.1.7.2 1 .3 0 0 .1 0 0 0-.3-.2-.7-.3-1-.3-.1-.1-.1 0 0 0zm.1-.7c.2.1.4.3.6.4 0 0 .1 0 0-.1l-.6-.3zm3.3 5.8c.1-.3.2-.6.2-.9 0 0-.1-.1-.1 0-.1.2-.1.6-.1.9-.1 0 0 0 0 0zm3-3.5c.3.1.6.1.9.1-.2-.1-.6-.1-.9-.1zm.2-.6h.8v-.1c-.2 0-.5 0-.8.1 0-.1 0 0 0 0zm.2-2.4c-.3.2-.6.4-.8.7.2-.2.5-.4.8-.7zm-2.5-1.1c-.1.2-.1.5-.1.7h.1v-.7zm-2.5.2.3.6h.1c-.2-.2-.3-.4-.4-.6z" fill="#0e2d02" stroke-width="none" opacity="1"></path></g></g></g><g id="svga-group-eyesfront-right"><path id="SvgjsPath11935" d="M119.8 76.7c-7.8 0-14.1 6.1-14.1 13.6s6.3 13.6 14.1 13.6 14.1-6.1 14.1-13.6-6.3-13.6-14.1-13.6zm3.1 20.3c-1.8-.7-11.9-4.2-12.8-5.2s-1.1-5-.2-4.8c4.4.9 15.8 1.1 17.6 2s3.7 4.6 2.9 6.3-5.7 2.5-7.5 1.7z" fill="#f3d4cf" stroke-width="none" opacity="1"></path><path id="SvgjsPath11938" d="M130.6 93.1c-.3-1.1-.8-2.1-1.5-3-.2-.2-.4-.5-.6-.7.3-.1.5-.3.4-.7-.3-.7-7.4-1-10.4-1.4-.2 0-.4-.1-.7-.1-.2-.4-.3-.8-.5-1.2-.1-.2-.3-.2-.4 0-.1.4 0 .8.2 1.2-.5-.1-1.1-.1-1.7-.2-.2-.2-.3-.5-.4-.8-.2-.5-.2-1-.3-1.5 0-.2-.4-.2-.4-.1-.3.7-.1 1.5.3 2.2-.4 0-.8-.1-1.2-.1-.9-1-1.3-2.2-1.5-3.6 0-.3-.4-.3-.5-.1-.4 1.2 0 2.6.8 3.6-.6-.1-1.2-.1-1.6-.2-.3-.2-.6-.5-.8-.8-.5-.7-.6-1.4-1-2.2-.1-.3-.6-.3-.6.1-.1 1 .4 2 1.1 2.8l-1.6-.5s.8.9 1.9 1.5v.1c-.1.3-.1.5-.1.8 0 .6 0 1.1.1 1.6s.2 1.1.5 1.6c.1.3.4.5.6.6.2.2.5.3.7.4 2 1 4 1.8 6.1 2.5l6.2 2.1c1.1.2 2.2.2 3.3 0 1.1-.2 2.2-.4 3.1-1 .2-.2.5-.3.6-.6s.3-.5.3-.8c-.2-.4-.3-1-.4-1.5zm-.2 1.6c0 .2-.1.5-.2.7-.1.2-.3.4-.5.5-.9.6-1.9.9-3 1.1-1.1.2-2.2.3-3.2 0s-2-.8-3-1.1l-3-1.2-3-1.2-3-1.2c-.2-.1-.5-.2-.7-.4-.2-.1-.4-.3-.6-.5-.3-.4-.4-1-.5-1.5-.1-.5-.2-1.1-.1-1.6 0-.3 0-.5.1-.8v-.1c.1.1.2.1.4.2 5.3 2 18 1.9 18 1.9.3.2.6.6.9.9.7.8 1.2 1.8 1.5 2.8-.1.5-.1 1-.1 1.5z" fill="#000000" stroke-width="none" opacity="1"></path></g></g></g><g id="svga-group-facehighlight-single"></g><g id="svga-group-eyebrows-left-move" transform="matrix(1,0,0,1,0,0)"><g id="svga-group-eyebrows-left-rotate" transform="matrix(0.9978589232386035,-0.0654031292301432,0.0654031292301432,0.9978589232386035,-4.952692078758332,5.270607577771386)"><g id="svga-group-eyebrows-left"><path id="SvgjsPath11984" d="M79.11 74.28c1.5-.47 4.11.63 5.74 1.28 1.63.66 6.55.66 6.11-1.74-.43-2.4-4.97-4.64-10.48-2.39-13.42 5.17-15.42 14.63-15.42 14.63 5.11-7.66 8.25-10.43 14.05-11.78z" fill="#2a232b" stroke-width="none" opacity="1"></path></g></g></g><g id="svga-group-eyebrows-right-move" transform="matrix(1,0,0,1,0,0)"><g id="svga-group-eyebrows-right-rotate" transform="matrix(0.9914448613738104,-0.13052619222005174,0.13052619222005174,0.9914448613738104,-9.408782170827607,16.45475949644259)"><g id="svga-group-eyebrows-right"><path id="SvgjsPath11985" d="M133.33 86.5s-2.57-8.65-15.45-12.44c-5.3-1.67-9.34.75-9.56 3.01-.22 2.26 4.35 1.9 5.82 1.16 1.47-.73 3.81-1.95 5.24-1.63 5.49.83 8.62 3.16 13.95 9.9z" fill="#2a232b" stroke-width="none" opacity="1"></path></g></g></g><g id="svga-group-nose-single-move" transform="matrix(1,0,0,1,0,0)"><g id="svga-group-nose-single"><path id="SvgjsPath11963" d="M94.67 92.35c.49.56.83 1.22 1.1 1.91.26.69.43 1.43.49 2.17.07.75-.01 1.5-.19 2.23-.16.73-.52 1.41-.95 1.99.14-.73.31-1.4.35-2.1.06-.69.07-1.38.01-2.06-.05-.69-.15-1.37-.29-2.06-.14-.69-.32-1.37-.52-2.08z" fill="#c5796d" stroke-width="none" opacity="1"></path><path id="SvgjsPath11964" d="M105.22 110.32c.78.09 1.59.12 2.3-.07.09-.02.17-.06.25-.09.08-.03.13-.07.19-.12.12-.11.24-.25.34-.4.2-.3.35-.65.48-1 .49-1.41.48-3.03-.28-4.29-.19-.32-.38-.59-.68-.81-.28-.23-.62-.41-.97-.57-.7-.32-1.46-.54-2.23-.7-1.54-.31-3.13-.37-4.7-.32-1.57.06-3.15.17-4.69.38-.78.11-1.48.28-2.15.62-.66.33-1.27.77-1.77 1.31-.5.53-.88 1.18-1.03 1.86a2.6 2.6 0 0 0-.01 1.04c.07.37.18.73.32 1.07.28.68.73 1.31 1.37 1.69.32.18.68.32 1.05.39.38.07.77.06 1.16.03l.01.08c-.77.2-1.64.2-2.41-.15-.77-.35-1.37-1.03-1.74-1.78-.18-.38-.33-.77-.44-1.17-.11-.43-.13-.88-.06-1.32.13-.88.59-1.65 1.15-2.29.57-.63 1.26-1.14 2.03-1.49a7 7 0 0 1 1.19-.42c.41-.1.82-.15 1.22-.2 1.6-.17 3.2-.16 4.79-.07 1.59.1 3.17.25 4.74.48.79.12 1.58.26 2.35.52.39.13.77.29 1.13.53.18.12.36.25.51.41.16.17.27.33.39.52.47.71.71 1.57.73 2.41.03.84-.14 1.68-.46 2.45-.16.39-.36.75-.62 1.09-.13.17-.28.33-.47.47-.09.07-.21.13-.33.16-.11.03-.21.06-.32.07-.42.08-.83.05-1.23 0s-.79-.13-1.18-.26l.07-.06z" fill="#c5796d" stroke-width="none" opacity="1"></path><path id="SvgjsPath11965" d="M92.72 109.72c.13-.42.52-.78 1-.86.23-.04.48-.05.72.06.25.1.43.32.54.53.22.44.28.9.37 1.33.08.43.14.86.26 1.25s.31.72.59.89c.13.08.33.15.52.22.2.06.39.12.6.16.82.17 1.67.24 2.52.2.84-.03 1.69-.15 2.45-.44.38-.14.71-.34.98-.61.26-.27.45-.61.57-1 .12-.39.17-.81.23-1.24.03-.22.06-.44.13-.68.04-.12.09-.25.18-.38.05-.06.11-.1.17-.15.06-.03.12-.07.18-.09.24-.09.48-.11.71-.11.23 0 .47.03.69.11.22.07.44.18.59.38.15.2.12.47.02.66.07-.21.04-.45-.11-.58-.14-.14-.35-.21-.55-.24-.4-.07-.85-.02-1.19.14-.18.09-.21.17-.25.37-.04.18-.04.4-.05.62-.02.44-.05.9-.16 1.36-.11.46-.32.93-.66 1.3-.33.38-.77.65-1.2.84-.88.36-1.79.5-2.7.54-.91.03-1.82-.04-2.72-.26-.22-.06-.45-.12-.67-.2-.22-.09-.44-.16-.67-.33-.46-.32-.68-.84-.79-1.29-.11-.46-.15-.91-.19-1.35-.04-.43-.07-.87-.21-1.23-.07-.18-.17-.33-.33-.42-.15-.09-.36-.12-.57-.11-.38-.02-.78.23-1 .61z" fill="#c5796d" stroke-width="none" opacity="1"></path><path id="SvgjsPath11966" d="M106.6 103.67c-1.43-.97-3.39-1.03-5.06-1.12-2.15-.12-4.6-.26-6.64.51-.09.03-.07.15.02.16 2.34.24 4.72-.19 7.09.05 1.86.19 3.76.34 4.92 2.04 1.01 1.48.47 2.83.26 4.38-.03.19.17.32.33.19 1.93-1.63.96-4.94-.92-6.21z" fill="#fbe5e2" stroke-width="none" opacity="1"></path></g></g><g id="svga-group-hair-front"><path id="SvgjsPath12034" d="M83.8 34s5.6-3.8 7.1-4.8 19.5 0 23.5.6 23 11.7 27.6 17.2c4.6 5.5 7.4 31.9 7.4 31.9l-5.7 19.5s-1.9-19.9-3.4-23.2c-1.5-3.2-10.1-9.2-10.1-9.2s-23.6-4.2-26.6-5.4-16.2-13.3-16.2-13.3-5.2 10-6.7 11.1c-1.5 1.2-17.6 13.4-17.6 13.4S59.4 82 58.9 84.5s.8 18.6.8 18.6-6.8-17.2-7.3-19.1-3.4-7.1-3.4-7.1 3.5-21.8 5-26.2 19.4-16.4 19.4-16.4l10.4-.3z" fill="#3c1d1d" stroke-width="none" opacity="1" stroke="none"></path><path id="SvgjsPath12035" d="M150.2 78.8c-.4-4.1-.9-8.1-1.6-12.2-.7-4-1.4-8.1-2.5-12.1-.6-2-1.2-4-2.1-5.9-.2-.5-.5-1-.8-1.4-.3-.5-.7-.9-1-1.3-.7-.8-1.5-1.5-2.3-2.2-3.2-2.7-6.6-4.9-10.1-7.1-3.5-2.2-7.1-4.2-10.8-5.9-.9-.4-1.9-.9-2.9-1.2-.5-.2-1-.3-1.6-.4-.5-.1-1-.1-1.6-.2-2.1-.2-4.1-.3-6.1-.4-4.1-.2-8.2-.3-12.3-.2-1 0-2.1.1-3.1.3-.1 0-.3.1-.4.1-.1 0-.3.1-.4.2l-.6.4-1.3.9c-1.7 1.2-3.3 2.4-4.9 3.6l-10.6.2H73c-3.6 2.4-7.2 4.9-10.7 7.5-1.7 1.3-3.4 2.7-5.1 4.2-.8.7-1.6 1.5-2.4 2.3-.4.4-.7.9-1.1 1.3-.3.5-.6 1.1-.8 1.6-.7 2.2-1.1 4.3-1.5 6.4-.5 2.1-.9 4.3-1.2 6.4-.8 4.3-1.5 8.6-2.3 12.9v.3l.1.3c1.1 2.1 2.2 4.2 3 6.3.1.3.2.5.3.8l.3.9.6 1.7 1.3 3.3 5.1 13.2 2.5 6.6-.6-7.1c-.2-2.6-.4-5.3-.6-7.9s-.3-5.3-.3-7.9c0-.7 0-1.3.1-1.9 0-.5.2-1.1.4-1.7.4-1.2.8-2.5 1.2-3.8.8-2.4 1.6-4.8 2.5-7.3L77.6 62l3.5-2.7c.8-.6 1.2-1.3 1.6-1.9.4-.6.8-1.3 1.2-1.9 1.3-2.2 2.6-4.5 3.7-6.8 2.7 2.5 5.4 4.9 8.3 7.3 1.6 1.3 3.1 2.6 4.8 3.8.8.6 1.6 1.2 2.7 1.6 1 .3 2 .5 3 .7 3.9.8 7.9 1.5 11.8 2.3l11.8 2.1c2.5 1.8 5 3.6 7.2 5.7 1.1 1.1 2.2 2.2 2.8 3.5.5 1.4.8 2.9 1 4.5 1 6.1 1.6 12.3 2.2 18.5l.2 2.5.8-2.4 6-19.5v-.5zm-7.1 10.4c-.4-3.1-.8-6.2-1.4-9.2-.3-1.5-.5-3.1-1.1-4.6-.7-1.5-1.9-2.6-3-3.7-2.3-2.1-4.8-4-7.3-5.8h-.2c-3.9-.7-7.9-1.4-11.8-2.3-3.9-.8-7.9-1.6-11.8-2.5-1-.2-2-.5-2.8-.8-.8-.3-1.6-1-2.4-1.5-1.6-1.2-3.1-2.5-4.6-3.8-3-2.7-5.9-5.4-8.8-8.1l-.8-.7-.4.8c-1.4 2.6-2.8 5.1-4.3 7.6l-1.2 1.8c-.4.6-.8 1.2-1.2 1.5l-3.5 2.6-14 10.6-.2.2-.1.3-2.7 7.5c-.4 1.3-.9 2.5-1.3 3.8-.2.7-.4 1.3-.5 2.2 0 .7-.1 1.4-.1 2.1 0 2.7.2 5.4.3 8 0 .4.1.8.1 1.2l-2.7-6.8-1.3-3.3-1.2-3.3c-1-2.2-2.1-4.1-3.2-6.1.7-4.2 1.3-8.4 2.1-12.6l1.2-6.4c.4-2.1.8-4.3 1.4-6.3.1-.5.3-.9.6-1.3l.9-1.2c.7-.8 1.5-1.5 2.2-2.3 1.6-1.5 3.2-2.9 4.9-4.2 3.4-2.7 6.8-5.3 10.3-7.8l10.6-.8 5.2-3.3 1.3-.8.7-.4c.1-.1.2-.1.3-.1.1 0 .2-.1.3-.1 1-.1 2-.1 3-.1 4.1 0 8.1.3 12.2.5 2 .1 4.1.3 6.1.5.5.1 1 .1 1.5.2.4.1.9.2 1.3.4l2.7 1.2c3.6 1.8 7.1 3.9 10.6 6 3.4 2.2 6.8 4.5 9.9 7 .8.7 1.5 1.3 2.1 2 .3.4.6.7.8 1.1.2.4.5.8.7 1.2.8 1.8 1.4 3.7 1.9 5.7 2.1 7.8 3.2 15.8 4.2 23.8l-4.7 17c-.3-2.1-.6-4.4-.8-6.6zm-7.7-28.5-.1-.1c-4.1-1-8.3-2-12.4-2.9l-12.4-2.8c-.1 0-.2-.1-.3-.1l-.3-.2c-.2-.1-.4-.3-.7-.4l-1.3-.8-2.7-1.8-5.3-3.5c-3.5-2.4-7.1-4.7-10.6-7 3.4 2.6 6.8 5.1 10.2 7.6 1.7 1.2 3.4 2.5 5.2 3.7l2.6 1.8 1.3.9c.2.1.4.3.7.4l.4.2c.1 0 .3.1.4.1 4.2 1 8.3 1.9 12.5 2.8 4.1.9 8.3 1.7 12.4 2.5l3.6 3.6c1.2 1.2 2.5 2.4 3.7 3.6-1.1-1.3-2.3-2.6-3.5-3.8-1.1-1.3-2.2-2.6-3.4-3.8zm-32.8-17.6c2.4.7 4.8 1.4 7.2 2l7.2 2 5.5 2.9c1.8 1 3.7 2 5.5 2.9 1.9 1 3.7 2 5.5 3 1.8 1 3.7 2 5.5 2.9-1.8-1.1-3.5-2.2-5.3-3.3-1.8-1.1-3.6-2.2-5.4-3.2s-3.7-2-5.5-3l-5.5-3h-.2l-7.2-1.9c-2.4-.6-4.8-1.3-7.2-1.9l-7.2-1.8c-2.4-.6-4.8-1.2-7.3-1.7 2.4.8 4.8 1.5 7.1 2.2l7.3 1.9zM72.2 58.5c-1.2.9-2.3 1.9-3.5 2.8l-3.5 2.9-3.5 2.9-3.5 2.9-.2.2v.1c-.3 1.5-.6 2.9-.9 4.4-.3 1.5-.6 2.9-.8 4.4.4-1.4.8-2.9 1.2-4.3.4-1.4.8-2.8 1.1-4.2l3.5-2.7 3.6-2.8 3.6-2.8c1.2-.9 2.4-1.9 3.5-2.9h.1v-.1c1.9-2.9 3.9-5.8 5.8-8.8 1.9-2.9 3.8-5.9 5.6-8.9-2.1 2.8-4.1 5.6-6.2 8.5-2 2.7-4 5.6-5.9 8.4zm-8-5.9c.2-.3.3-.6.4-.8h.1l.2-.1.3-.3c1-.8 2-1.5 3-2.2 2-1.5 4.1-3 6.1-4.5s4.1-3 6-4.7c-2.2 1.3-4.3 2.6-6.5 4-2.1 1.4-4.2 2.8-6.3 4.3-1 .8-2 1.5-3 2.3l-.4.3-.2.2c-.1.1-.2.2-.2.3-.2.3-.2.5-.4.8l-.8 1.7-1.5 3.5c-.5 1.2-1.1 2.3-1.5 3.5 1.4-2.2 2.6-4.3 3.8-6.6.3-.6.6-1.1.9-1.7zm42.1-18.8 1.5-.2c.4 0 .9.1 1.4.2 2 .4 3.9.8 5.9 1.2-1.9-.7-3.8-1.4-5.8-1.9-.5-.1-.9-.3-1.6-.3l-1.5.1-3 .3c-4 .5-8.1 1-12 1.8 4.1 0 8.1-.4 12.1-.8l3-.4z" fill="#2d1111" stroke-width="none" opacity="1" stroke="none"></path></g><g id="svga-group-glasses-single-move" transform="matrix(1,0,0,1,0,0)"><g id="svga-group-glasses-single"><path id="SvgjsPath12010" d="M96.1 90.7s.3-2.2-3.6-3.5c-3.1-1-6.2-1.2-8.8-1.2s-10.8-.1-12.9.1-5.2.4-6 3.4c-.8 3 1 7.8 5.2 10.2 4.2 2.3 12.5 2.5 17.8 1 5.3-1.5 7.8-5 8.3-10z" fill="#ffffff" stroke-width="none" opacity="0.44"></path><path id="SvgjsPath12011" d="M104.9 90.7s-.2-2.2 3.8-3.5c3.1-1 6.3-1.2 8.9-1.2s10.9-.1 13 .1 5.2.4 5.9 3.4c.6 3-1.4 7.9-5.7 10.3-4.3 2.3-12.6 2.5-17.9 1-5.4-1.6-7.7-5.1-8-10.1z" fill="#ffffff" stroke-width="none" opacity="0.44"></path><path id="SvgjsPath12012" d="M96.1 90.1s3.8-1.7 8.8 0v1s-5.4-1-8.9 0l.1-1z" fill="#070201" stroke-width="none" opacity="1"></path><path id="SvgjsPath12013" d="M79.9 102.1c-4.1 0-7.8-.7-10.1-2-3.8-2.1-5.6-6.2-5.6-9V91h-2.5l-.2-2.1h3.1v-.1c1.1-2.6 4-2.8 5.9-3h.2c.9-.1 2.9-.1 6.3-.1H83.6c2.5 0 5.8.1 8.9 1.2 4.1 1.4 3.9 3.7 3.9 3.9-.6 5.4-3.5 8.9-8.6 10.4-2.1.6-5 .9-7.9.9zm-2.8-15.7c-3.4 0-5.4 0-6.3.1h-.2c-2.1.2-4.8.4-5.5 3.1-.8 3 1.1 7.6 5 9.8 2.2 1.2 5.7 1.9 9.7 1.9 2.8 0 5.6-.3 7.8-1 4.9-1.4 7.5-4.6 8.1-9.8 0-.2.1-2-3.4-3.1-3-1-6.2-1.1-8.7-1.1h-2.3c-1.2.1-2.7.1-4.2.1zm43.5 15.7c-2.9 0-5.7-.4-7.9-1-5.1-1.5-7.8-4.9-8.2-10.4 0-.3-.1-2.6 4.1-3.9 3.2-1 6.5-1.2 9-1.2h6.7c3.4 0 5.4 0 6.3.1h.2c1.9.2 4.8.4 5.8 3v.1h3.1l-.3 2.1h-2.5v.1c-.2 2.9-2.1 6.9-6 9.1-2.4 1.3-6.2 2-10.3 2zm3.6-15.7h-6.6c-2.4 0-5.7.1-8.7 1.1-3.5 1.2-3.5 2.9-3.5 3.1.3 5.2 2.8 8.4 7.6 9.8 2.1.6 4.9 1 7.7 1 4 0 7.6-.7 9.8-1.9 4.1-2.2 6.1-6.9 5.5-9.8-.6-2.7-3.2-2.9-5.4-3.2h-.2c-.8-.1-2.9-.1-6.2-.1z" fill="#26120b" stroke-width="none" opacity="1"></path><path id="SvgjsPath12014" d="M77 85.7h6.7c2.5 0 5.8.1 8.9 1.2 4 1.3 3.8 3.6 3.8 3.8-.6 5.4-3.4 8.8-8.5 10.3-2.2.7-5.1 1-7.9 1-4.1 0-7.8-.7-10-2-3.7-2.1-5.5-6.1-5.5-8.9v-.3H62l-.3-1.8h3l.1-.1c1-2.5 3.9-2.8 5.8-2.9h.2c.8-.2 2.9-.3 6.2-.3m2.9 15.8c2.8 0 5.6-.3 7.8-1 4.9-1.4 7.6-4.6 8.2-9.9 0-.2.1-2.1-3.5-3.2-3-1-6.2-1.1-8.7-1.1H77.1c-3.4 0-5.4 0-6.3.1h-.2c-2.1.2-4.9.5-5.6 3.2-.8 3 1.1 7.7 5.1 9.9 2.2 1.3 5.8 2 9.8 2m-2.9-16c-2.7 0-5.2 0-6.3.1h-.2c-2 .2-4.9.5-6 3.1h-3.1l.2 2.3h2.5c0 3.2 2.1 7.1 5.7 9.1 2.5 1.4 6.4 2.1 10.2 2.1 2.9 0 5.7-.4 8-1 5.2-1.5 8.1-5 8.7-10.5 0-.3.2-2.7-4-4.1-3.1-1.1-6.4-1.2-9-1.2h-2.2c-1.3.1-2.9.1-4.5.1zm2.9 15.8c-3.6 0-7.3-.6-9.7-1.9-3.9-2.2-5.7-6.8-5-9.7.7-2.6 3.3-2.9 5.4-3.1h.2c1-.1 3.6-.1 6.2-.1H83.6c2.4 0 5.6.1 8.6 1.1 3.4 1.1 3.3 2.9 3.3 3-.5 5.1-3.1 8.3-8 9.7-2 .6-4.8 1-7.6 1zm44.4-15.9v.3c3.4 0 5.4 0 6.3.1h.2c1.9.2 4.7.4 5.7 2.9l.1.1h3.1l-.3 1.8h-2.5v.3c-.2 2.8-2.1 6.8-6 8.9-2.4 1.3-6.1 2-10.2 2-2.9 0-5.7-.4-7.9-1-5-1.5-7.8-4.9-8.1-10.3 0-.2-.1-2.5 4-3.8 3.2-1 6.4-1.2 8.9-1.2H124.3v-.1m-3.6 16.1c4 0 7.7-.7 9.9-1.9 4.1-2.3 6.2-7 5.6-10-.6-2.8-3.4-3-5.5-3.2h-.2c-.9-.1-2.9-.1-6.3-.1h-6.7c-2.5 0-5.7.1-8.8 1.1-3.6 1.2-3.6 3.1-3.6 3.3.3 5.2 2.8 8.4 7.7 9.9 2.3.6 5 .9 7.9.9m3.6-16.1h-6.7c-2.5 0-5.8.1-9.1 1.2-4.3 1.4-4.2 3.8-4.2 4.1.3 5.5 3.1 9 8.2 10.5 2.2.7 5.1 1 8 1 3.8 0 7.7-.6 10.3-2.1 3.7-2.1 5.9-6 6.1-9.2h2.5l.3-2.4h-3.1c-1-2.6-3.9-2.9-5.9-3.1h-.2c-.9.1-3.5 0-6.2 0zm-3.6 15.9c-2.8 0-5.6-.3-7.7-1-4.8-1.4-7.3-4.5-7.6-9.7 0-.1-.1-1.8 3.4-3 3-1 6.2-1.1 8.7-1.1H124.1c2.6 0 5.2 0 6.3.1h.2c2.1.2 4.7.4 5.3 3.1.6 2.9-1.4 7.5-5.4 9.7-2.5 1.3-6.2 1.9-9.8 1.9z" fill="#070201" stroke-width="none" opacity="1"></path></g></g></g></g></g><rect id="svga-credit-rect" width="200" height="15" x="0" y="185" fill="#ecf0f1" opacity="0.5" style="display: none;"></rect><text id="svga-credit-text" font-family="Avenir Next, Roboto, Helvetica, Arial, sans-serif" font-size="10px" text-anchor="start" font-weight="400" size="10px" anchor="start" weight="400" fill="#333333" x="33.40447998046875" y="182.60824704170227" style="display: none;"><tspan id="SvgjsTspan11764" dy="13" x="33.40447998046875">Created on AvatarMaker.com</tspan></text></g><defs id="SvgjsDefs11716"></defs></svg>