<svg xmlns="http://www.w3.org/2000/svg" version="1.1" width="600px" height="600px" viewBox="0 0 200 200" style="overflow:hidden!important;"><g id="svga-group-wrapper"><g id="svga-group-backs-single"></g><g id="svga-group-humanwrap-move" transform="matrix(1,0,0,1,0,0)"><g id="svga-group-humanwrap"><g id="svga-group-hair-back-move" transform="matrix(1,0,0,1,0,0)"><g id="svga-group-hair-back"><path id="SvgjsPath13938" d="M72.8 197.6s-16.3-1.2-20.2-9.6-3.7-29.1 4-43.6c7.6-14.6 5.2-39.9 5.2-39.9 10.6-20 55.7-3.9 55.2 9.9s-20.5 51.8-26.9 61.9S76 197.4 76 197.4l-3.2.2z" fill="#935f5f" stroke-width="none" opacity="1" stroke="none"></path></g></g><g id="svga-group-humanbody-back"><path id="SvgjsPath12965" d="M77.8 105.9s4.8 37.7 10 55.8c0 0-6.4 8.8-14.5 11.9-28.7 11.2-35 11.2-39.6 15.2-2.4 2.1.2 11.1 1.8 17.2 1.3 5 1.7 13.2 1.7 13.2h132.2s1.6-33-.6-39.8-7.1-2.9-21.9-4.5c-14.8-1.6-28.7-10.3-31-13.2l.3-60-38.4 4.2z" fill="#f3d4cf" stroke-width="none" opacity="1" stroke="none"></path></g><g id="svga-group-chinshadow-single"><path id="SvgjsPath14107" d="M85.6 152.8c6.6 3.5 10.7 3.5 10.7 3.5s8 0 19.6-9.5l.2-45.2-38.4 4.2c.1.1 3.6 27.7 7.9 47z" fill="#d4958a" stroke-width="none" opacity="1" stroke="none"></path></g><g id="svga-group-humanbody-front"><path id="SvgjsPath12966" d="M72.1 183.1s14.6-.2 20.4 2.6c5.8 2.9 12.7 2.4 16.1-1s21.6-7 21.6-7-19.7 1.9-25 4.6c-5.3 2.7-22.3-2.8-33.1.8z" fill="#d4958a" stroke-width="none" opacity="1" stroke="none"></path><path id="SvgjsPath12967" d="M74.2 173.2c6.7-1.3 14.7-6.4 14.7-6.4l6.2 5.5c-4.3-7.9-12.7-41.1-12.7-41.1l-.7.7c1.7 10.5 3.9 21.9 6.1 29.7 0 0-6 8.2-13.6 11.6z" fill="#d4958a" stroke-width="none" opacity="1" stroke="none"></path><path id="SvgjsPath12968" d="M170.7 188.5c-.1-2.1-.2-4.1-.4-6.2-.1-1-.3-2.1-.6-3.2-.2-.5-.4-1-.6-1.6-.2-.5-.6-1-1-1.5s-.9-.9-1.5-1.1c-.6-.3-1.1-.4-1.7-.6-1.1-.2-2.2-.2-3.2-.2-2.1 0-4.1.1-6.1.1s-4-.1-6-.2-4-.4-6-.7c-1-.2-2-.4-2.9-.6l-1.5-.4c-.5-.1-1-.3-1.4-.4-3.8-1.1-7.6-2.6-11.2-4.4l-1.3-.7-1.3-.7c-.4-.2-.9-.5-1.3-.8s-.9-.5-1.3-.8-.8-.5-1.3-.8l-1.2-.9-.6-.5-.3-.2-.3-.2c-.2-.2-.4-.3-.5-.5l-.2-.3v-44.6l-.1-15v-.6l-.6.1c-6.4.8-12.9 1.5-19.3 2.3l-19.1 2.3v.5l.1.4.1.9.2 1.8c.1 1.2.3 2.3.4 3.5l.9 7c.6 4.7 1.3 9.4 2.1 14 .8 4.7 1.5 9.3 2.5 14 .9 4.5 1.8 9 3 13.5-1.1 1.4-2.3 2.7-3.6 4-1.3 1.3-2.8 2.6-4.3 3.8-1.5 1.1-3.1 2.2-4.8 3l-1.3.6c-.4.2-.9.3-1.3.5l-2.7 1c-7.2 2.7-14.5 5.3-21.8 7.7l-5.5 1.8c-1.8.6-3.7 1.3-5.5 2.2-.4.2-.9.5-1.3.7-.4.3-.9.5-1.3.9l-.6.5c-.2.2-.5.5-.6.8-.3.5-.4 1.1-.5 1.6-.2 1.1-.1 2.1 0 3.1s.3 2 .4 2.9c.4 1.9.8 3.8 1.3 5.7l.8 2.8c.3.9.5 1.8.7 2.8.4 1.9.7 3.8.9 5.7s.4 3.8.5 5.7v.8h133.4v-.8c.2-4.1.4-8.2.5-12.3s.2-8.2.2-12.3c0-1.8-.1-3.8-.1-5.9zm-67.4 30.3H70.2l-16.5-.1-16-.1c-.1-1.8-.2-3.5-.4-5.3-.2-1.9-.4-3.9-.8-5.8-.2-1-.4-1.9-.7-2.9l-.7-2.8c-.5-1.9-.9-3.7-1.2-5.6-.2-.9-.3-1.9-.4-2.8-.1-.9-.1-1.9 0-2.7.1-.4.2-.8.4-1.1.1-.2.2-.3.3-.4l.5-.4c.3-.3.7-.5 1.1-.8.4-.2.8-.5 1.2-.7 1.7-.8 3.5-1.4 5.3-2l5.5-1.8c7.3-2.4 14.6-5 21.8-7.8l2.7-1c.5-.2.9-.3 1.4-.5l1.4-.6c1.8-.9 3.4-2 5-3.2s3-2.5 4.4-3.9 2.7-2.9 3.8-4.5l.2-.3-.1-.3c-1.3-4.5-2.3-9.1-3.3-13.7s-1.9-9.3-2.7-13.9c-.8-4.6-1.6-9.3-2.4-14l-2.2-13.9 19.3-1.8c6.2-.6 12.3-1.2 18.5-1.8l-.2 14.4-.2 15-.3 30v.4l.2.2.6.7.6.6.3.3.3.2.6.5c.4.3.9.6 1.3.9.4.3.9.6 1.3.9.4.3.9.5 1.3.8s.9.5 1.3.8l1.4.8 1.4.7c.5.2.9.5 1.4.7l1.4.7c1 .4 1.9.8 2.9 1.2s1.9.8 2.9 1.1l1.5.5c.5.2 1 .3 1.5.4.5.1 1 .3 1.5.4l1.5.4c1 .3 2 .4 3 .6 2 .4 4.1.6 6.2.8 2.1.2 4.1.2 6.2.2 2.1 0 4.1-.1 6.1-.1s4 .1 5 1.3c.5.6.9 1.4 1.2 2.3.3.9.4 1.9.6 2.8.3 2 .4 4 .5 6s.1 4.1.2 6.1c.1 7.9-.1 15.8-.4 23.7-10.8.1-21.5.1-32.3.2h-33.1z" fill="#c5796d" stroke-width="none" opacity="1" stroke="none"></path><path id="SvgjsPath12969" d="M150.7 219.2 147 198l-.4 21.2z" fill="#d4958a" stroke-width="none" opacity="1" stroke="none"></path><path id="SvgjsPath12970" d="M47.3 203.5s2.2 11.5 2.9 15.7h3.5l-6.4-15.7z" fill="#d4958a" stroke-width="none" opacity="1" stroke="none"></path></g><g id="svga-group-clothes-single"><path id="SvgjsPath14699" d="M171 186.3c-.6-10.9-3.4-11.4-5.5-12.3-2.1-1-11 .6-17-.5s-20.3-2.9-31.4-12.3l-.2-17.1s-13.7 9.1-32.8 1.4c0 0 1.2 9.5 2.5 15.2 0 0-5.8 7-9.4 9.4S55.6 178.9 50 181s-14.4 3.9-16.2 5.7-3.2 3.9-1.8 8.4c1.5 4.5 4.8 19.4 4.8 24.8h133.4c-.1-.1 1.4-22.8.8-33.6zm-66.3 15.9c-6.9 1.7-16.1-5-14.2-17.1s3.2-23.6 3.2-23.6 8.2 1 14.7 0c0 0 3 15.1 4.5 21.4 1.5 6.2-1.3 17.6-8.2 19.3z" fill="#452553" stroke-width="none" opacity="1" stroke="none"></path><path id="SvgjsPath14700" d="M171.1 186.3c-.2-2.7-.4-5.5-1.3-8.1-.4-1.3-1.2-2.6-2.4-3.4-.6-.4-1.2-.7-1.9-.9-.7-.3-1.4-.3-2.1-.4-5.5 0-11 .7-16.3-.6-5.4-1-10.7-2.2-15.8-4.2-4.9-1.9-9.6-4.5-13.6-7.9 0-5.6 0-11.2-.1-16.8v-1.6l-1.3.8c-2.3 1.4-4.9 2.4-7.6 3.1-2.7.7-5.4 1.1-8.2 1.2-2.8.1-5.6-.1-8.3-.5-2.7-.5-5.4-1.2-8.1-2.2l-1-.4.2 1c.8 5 1.5 10 2.7 15-1.2 1.4-2.5 2.9-3.8 4.2-1.3 1.4-2.7 2.8-4.2 4.1-1.4 1.3-3.2 2-5 2.9-1.8.8-3.6 1.5-5.4 2.3-3.7 1.4-7.3 2.8-11 4.1l-5.5 2c-1.8.7-3.7 1.3-5.6 1.9l-5.7 1.6c-1.9.6-3.8 1.1-5.6 2.1-.5.2-.9.7-1.2 1-.3.4-.7.8-1 1.2-.6.9-1 1.9-1.1 3-.1 1.1 0 2.1.2 3.1s.5 1.9.8 2.9c1 3.8 1.8 7.6 2.5 11.5.4 1.9.7 3.9 1 5.8.3 1.9.5 3.9.5 5.7v.8h.8l33.3.2 16.7.1h16.7c11.1 0 22.2 0 33.3-.1 11.1-.1 22.2-.3 33.4-.5h.4v-.4c.3-5.6.5-11.2.6-16.8.1-2.8.1-5.6.1-8.4.1-2.8.1-5.6-.1-8.4zm-.1 8.3c0 2.8-.1 5.6-.2 8.4-.2 5.5-.6 10.9-1 16.4l-21.2-.3c.6-4 1.1-7.9 1.6-11.9.3-2.1.6-4.1.9-6.2.3-2.1.7-4.1 1.1-6.1.4-2 1-3.9 1.9-5.7.9-1.8 2-3.6 3.1-5.3 1.2-1.7 2.5-3.3 3.9-4.8s2.9-3 4.7-4.1c-1 .4-1.9.9-2.8 1.5-.9.6-1.7 1.3-2.5 1.9-1.6 1.4-3.1 2.9-4.4 4.6-1.4 1.6-2.6 3.4-3.6 5.4-1 1.9-1.7 4.1-2.2 6.1-.9 4.2-1.3 8.4-1.6 12.6-.3 4-.3 8-.2 12-3.9-.1-7.8-.1-11.6-.1-11.1-.1-22.2-.1-33.3-.1H86.9l-16.7.1-18.5.1c-.1-3-.5-5.9-.9-8.8-.5-3.1-1-6.2-1.9-9.3-.5-1.7-1.5-3.1-2.5-4.4-1-1.3-2.1-2.4-3.3-3.5-2.3-2.2-4.8-4.1-7.5-5.7 2.2 2.2 4.4 4.4 6.5 6.8 1 1.2 2 2.3 2.9 3.6.8 1.2 1.7 2.5 2 3.8.7 3 1.4 6 2.2 9.1.7 2.8 1.5 5.7 2.4 8.5l-14 .1c-.1-1.8-.3-3.4-.6-5.1-.3-2-.7-3.9-1.1-5.8-.8-3.9-1.7-7.7-2.8-11.5-.3-1-.6-1.9-.8-2.8-.2-.9-.3-1.8-.2-2.7.1-.9.4-1.7.9-2.5.2-.4.5-.7.9-1.1.3-.4.6-.6 1-.9 1.6-.9 3.5-1.5 5.4-2.1l5.6-1.7c1.9-.6 3.8-1.2 5.6-1.9l5.5-2c3.7-1.4 7.4-2.8 11-4.2 1.8-.7 3.7-1.4 5.5-2.2.9-.4 1.8-.8 2.7-1.3.9-.4 1.8-1 2.5-1.7 3.1-2.6 5.7-5.5 8.3-8.5l.1-.1-.1-.2c-1-4.7-1.6-9.4-2.2-14.2 2.4.9 4.8 1.6 7.3 2.1 2.8.6 5.7.8 8.6.8 2.9-.1 5.8-.5 8.6-1.2 2.3-.6 4.6-1.4 6.8-2.6 0 5.2.2 10.4.2 15.7v.4l.3.2c2.2 1.8 4.5 3.3 6.9 4.7 2.4 1.3 5 2.4 7.6 3.4 5.2 1.9 10.6 2.9 16.1 3.8 2.7.6 5.5.6 8.2.5 2.7-.1 5.5-.4 8.2-.3.7 0 1.4.1 1.9.3.6.3 1.3.5 1.8.9 1.1.7 1.8 2 2.3 3.2.9 2.6 1.2 5.3 1.4 8 .1 2.4 0 5.2 0 7.9zm-58.1-17-1.2-5.4-2.4-10.9-.2-.8-.8.1c-2.3.4-4.8.6-7.2.6-2.4.1-4.9 0-7.3-.2h-.4v.4c-.3 4.1-.9 8.3-1.6 12.4l-1.2 6.1-.6 3.1c-.2 1-.4 2-.5 3.1-.6 4.3.6 9 3.6 12.2 2.9 3.2 7.4 4.8 11.6 3.9 1.8-.4 3.4-1.6 4.7-3 1.3-1.4 2.2-3.1 3-4.8 1.4-3.5 2.2-7.4 1.6-11.3l-1.1-5.5zm-.6 11.2c-.1 1.8-.4 3.6-.9 5.3-.5 1.7-1.3 3.4-2.4 4.9-1.1 1.4-2.6 2.6-4.4 3.1-2 .5-4.2.2-6-.6-1.9-.9-3.5-2.2-4.6-3.8-1.2-1.6-1.9-3.5-2.4-5.4-.5-1.9-.5-3.9-.3-5.9.5-4.1.9-8.3 1.3-12.4.4-4 .9-8 1.5-12 2.3.3 4.6.5 7 .7 2.2.1 4.4.1 6.6-.1l2 10.2 1.1 5.5 1.2 5.4c.3 1.5.4 3.3.3 5.1z" fill="#280d34" stroke-width="none" opacity="1" stroke="none"></path></g><g id="svga-group-head" transform="matrix(1,0,0,1,0,0)"><g id="svga-group-ears-left-move" transform="matrix(1,0,0,1,0,0)"><g id="svga-group-ears-left"><path id="SvgjsPath13447" d="M62.22 91.07s-9.85-8.65-11.43-8.8c-1.36-.13-4.73 7.07-6.22 11.62-.39 1.2-.3 2.54.22 3.7 1.43 3.16 4.6 9.75 7.44 13.05 0 0 2.4.52 3.16.29s6.69-5 7.3-6.86.74-9.97-.47-13z" fill="#f3d4cf" stroke-width="none" opacity="1" stroke="none"></path><path id="SvgjsPath13448" d="M63.07 94.44c.16 1.16.25 2.33.29 3.5.05 1.17.05 2.34-.01 3.51-.03.59-.08 1.17-.15 1.76-.05.3-.09.59-.17.9-.09.31-.25.62-.41.85-.64.98-1.41 1.72-2.18 2.48-.78.74-1.58 1.44-2.39 2.12-.41.33-.82.67-1.25.98-.21.16-.43.31-.65.46l-.35.22c-.14.07-.31.15-.47.17-.59.07-1.09-.01-1.61-.08-.51-.07-1.02-.17-1.53-.28l-.12-.03-.07-.09c-1.28-1.53-2.32-3.25-3.3-4.99-.97-1.75-1.85-3.56-2.7-5.38l-1.25-2.75c-.44-.92-.63-2.02-.48-3.05.06-.52.23-1.01.39-1.48s.33-.94.5-1.41c.35-.93.7-1.86 1.07-2.78.76-1.83 1.55-3.65 2.59-5.32.26-.42.54-.82.88-1.2.17-.19.35-.37.6-.52.12-.07.27-.14.46-.14.17.01.28.06.42.1.94.41 1.65 1 2.43 1.56 1.52 1.14 2.98 2.35 4.41 3.61 1.44 1.25 2.85 2.53 4.24 3.87.43 1.1.64 2.26.81 3.41zm-9.79-10.31c-.75-.52-1.54-1.11-2.29-1.42-.08-.02-.18-.07-.23-.07-.03 0-.1.01-.18.06-.15.08-.31.22-.45.39-.3.32-.57.7-.83 1.09-1.02 1.59-1.92 3.33-2.74 5.1-.41.89-.81 1.78-1.16 2.71-.18.46-.35.92-.52 1.39-.17.47-.34.92-.4 1.41-.13.98.06 2 .49 2.88.42.91.86 1.81 1.32 2.7.9 1.78 1.87 3.52 2.88 5.22 1.02 1.69 2.09 3.35 3.32 4.79l-.19-.11c.97.18 2.03.38 2.91.29.1-.01.16-.06.25-.1l.31-.2.62-.45c.41-.3.82-.63 1.23-.95.81-.66 1.6-1.34 2.37-2.06.75-.72 1.52-1.47 2.11-2.3.15-.22.25-.4.33-.63.07-.24.12-.51.17-.78.08-.55.15-1.12.19-1.69.08-1.14.12-2.29.13-3.45.01-1.15-.04-2.31-.13-3.46-.09-1.14-.23-2.32-.59-3.39-2.96-2.34-5.91-4.75-8.92-6.97z" fill="#e4b3ab" stroke-width="none" opacity="1" stroke="none"></path><path id="SvgjsPath13449" d="M62.45 98.39S52.96 86.4 51.18 87.4s-4.58 6.65-4.57 8.53c.02 2.77 2.95 7.4 4.42 8.8s3.25 2.25 5.6 1.71 5.82-8.05 5.82-8.05z" fill="#e4b3ab" stroke-width="none" opacity="1" stroke="none"></path><path id="SvgjsPath13450" d="M56.36 101.74c-.34-1.14-.73-2.26-1.13-3.37a93.8 93.8 0 0 0-1.28-3.3c-.45-1.09-.93-2.16-1.46-3.21-.54-1.04-1.08-2.08-1.74-3.05l-.07-.11-.07.11c-.66 1.04-1.28 2.1-1.88 3.2-.3.55-.58 1.1-.85 1.67-.28.56-.51 1.16-.74 1.75l-.04.09.04.11c.41 1.24.84 2.46 1.29 3.69.22.61.48 1.21.73 1.81.26.6.52 1.19.87 1.78l.17.27.22-.2c.3-.28.53-.58.77-.9.23-.32.43-.67.61-1.03.35-.73.56-1.57.53-2.42v-.05l-.02-.04c-.44-.87-.91-1.73-1.36-2.6l-.05.03c.37.91.74 1.83 1.13 2.73l-.02-.09c-.03.77-.26 1.51-.61 2.16-.35.65-.82 1.24-1.32 1.7l.39.07c-.3-.51-.56-1.11-.81-1.69l-.72-1.79c-.48-1.2-.93-2.41-1.38-3.62v.2c.4-1.18.85-2.35 1.38-3.47.52-1.13 1.12-2.22 1.8-3.22h-.14c.63.95 1.08 2.04 1.55 3.11l1.36 3.24 1.38 3.24c.46 1.08.92 2.16 1.41 3.23l.06-.03z" fill="#c5796d" stroke-width="none" opacity="1" stroke="none"></path></g></g><g id="svga-group-ears-right-move" transform="matrix(1,0,0,1,0,0)"><g id="svga-group-ears-right"><path id="SvgjsPath13451" d="M137.78 91.07s9.85-8.65 11.43-8.8c1.36-.13 4.73 7.07 6.22 11.62.39 1.2.3 2.54-.22 3.7-1.43 3.16-4.6 9.75-7.44 13.05 0 0-2.4.52-3.16.29s-6.69-5-7.3-6.86c-.61-1.86-.74-9.97.47-13z" fill="#f3d4cf" stroke-width="none" opacity="1" stroke="none"></path><path id="SvgjsPath13452" d="M137.75 91.04c1.4-1.34 2.8-2.62 4.24-3.87 1.43-1.26 2.9-2.47 4.41-3.61.78-.55 1.49-1.14 2.43-1.56.14-.04.25-.1.42-.1.19 0 .34.07.46.14.24.15.43.33.6.52.34.38.61.78.88 1.2 1.04 1.67 1.83 3.49 2.59 5.32.38.92.72 1.85 1.07 2.78.17.47.34.94.5 1.41.16.47.33.96.39 1.48.15 1.03-.04 2.13-.48 3.05l-1.25 2.75c-.85 1.82-1.73 3.63-2.7 5.38-.98 1.75-2.02 3.46-3.3 4.99l-.07.09-.11.02c-.51.11-1.02.2-1.53.28-.52.07-1.02.14-1.61.08-.16-.02-.32-.09-.47-.17l-.35-.22c-.22-.15-.44-.3-.65-.46-.43-.32-.84-.65-1.25-.98-.82-.67-1.62-1.38-2.39-2.12-.77-.76-1.54-1.49-2.18-2.48a3.05 3.05 0 0 1-.41-.85c-.09-.31-.13-.61-.17-.9-.07-.59-.12-1.18-.15-1.76-.06-1.17-.06-2.34-.01-3.51.05-1.17.13-2.34.29-3.5.15-1.15.36-2.31.8-3.4zm.06.05c-.35 1.07-.49 2.24-.59 3.39-.09 1.15-.14 2.31-.13 3.46.01 1.15.05 2.3.13 3.45.04.57.11 1.14.19 1.69.05.27.1.54.17.78.08.23.18.42.33.63.59.83 1.36 1.58 2.11 2.3.76.72 1.56 1.41 2.37 2.06.41.33.81.65 1.23.95l.62.45.31.2c.09.04.15.09.25.1.88.09 1.94-.11 2.91-.29l-.19.11c1.23-1.44 2.3-3.1 3.32-4.79a93.9 93.9 0 0 0 2.88-5.22c.45-.89.9-1.79 1.32-2.7.43-.88.62-1.9.49-2.88-.06-.49-.23-.94-.4-1.41-.16-.47-.34-.93-.52-1.39-.35-.92-.76-1.82-1.16-2.71-.82-1.77-1.72-3.51-2.74-5.1-.26-.39-.53-.77-.83-1.09-.15-.16-.31-.3-.45-.39a.314.314 0 0 0-.18-.06c-.05 0-.15.06-.23.07-.75.31-1.54.9-2.29 1.42-3.02 2.23-5.97 4.64-8.92 6.97z" fill="#e4b3ab" stroke-width="none" opacity="1" stroke="none"></path><path id="SvgjsPath13453" d="M137.55 98.39s9.49-11.99 11.27-10.99 4.58 6.65 4.57 8.53c-.02 2.77-2.95 7.4-4.42 8.8-1.47 1.39-3.25 2.25-5.6 1.71-2.35-.54-5.82-8.05-5.82-8.05z" fill="#e4b3ab" stroke-width="none" opacity="1" stroke="none"></path><path id="SvgjsPath13454" d="M143.64 101.74c.34-1.14.73-2.26 1.13-3.37.4-1.11.84-2.21 1.28-3.3.45-1.09.93-2.16 1.46-3.21.54-1.04 1.08-2.08 1.74-3.05l.07-.11.07.11c.66 1.04 1.28 2.1 1.88 3.2.3.55.58 1.1.85 1.67.28.56.51 1.16.74 1.75l.04.09-.04.11c-.41 1.24-.84 2.46-1.29 3.69-.22.61-.48 1.21-.73 1.81-.26.6-.52 1.19-.87 1.78l-.17.27-.22-.2c-.3-.28-.53-.58-.77-.9-.23-.32-.43-.67-.61-1.03-.35-.73-.56-1.57-.53-2.42v-.05l.02-.04c.44-.87.91-1.73 1.36-2.6l.05.03c-.37.91-.74 1.83-1.13 2.73l.02-.09c.03.77.26 1.51.61 2.16.35.65.82 1.24 1.32 1.7l-.39.07c.3-.51.56-1.11.81-1.69l.72-1.79c.48-1.2.93-2.41 1.38-3.62v.2c-.4-1.18-.85-2.35-1.38-3.47-.52-1.13-1.12-2.22-1.8-3.22h.14c-.63.95-1.08 2.04-1.55 3.11l-1.36 3.24-1.38 3.24c-.46 1.08-.92 2.16-1.41 3.23l-.06-.03z" fill="#c5796d" stroke-width="none" opacity="1" stroke="none"></path></g></g><g id="svga-group-faceshape-wrap"><g id="svga-group-faceshape-single"><path id="SvgjsPath14097" d="M135.9 49.8c-6.7-7.4-11.3-13.2-28.8-17.3-1.8-.4-12.3-.4-14.1 0-17.5 4.1-22.1 9.9-28.8 17.3-7.1 7.8-9.5 29-9.5 29 0 9.6 1.3 32.3 13.3 47.2 17.8 22.2 32.1 22.3 32.1 22.3s14.2 0 32.1-22.3c12-14.9 13.3-37.6 13.3-47.2-.1 0-2.5-21.2-9.6-29z" fill="#f3d4cf" stroke-width="none" opacity="1" stroke="none"></path><path id="SvgjsPath14098" d="M107.1 32.5c-1.8-.4-12.3-.4-14.1 0-17.5 4.1-22.1 9.9-28.8 17.3-7.1 7.8-9.5 29-9.5 29 0 9.6 1.3 32.3 13.3 47.2 17.8 22.2 32.1 22.3 32.1 22.3s14.2 0 32.1-22.3c12-14.9 13.3-37.6 13.3-47.2 0 0-2.4-21.2-9.5-29-6.9-7.4-11.5-13.2-28.9-17.3zM142 63.8c.7 2.5 1.1 5 1.6 7.5.4 2.5.7 5 1 7.5-.2 7.4-1.3 14.8-3 22-.9 3.6-1.9 7.1-3.3 10.5-.7 1.7-1.4 3.4-2.2 5s-1.7 3.2-2.7 4.7l-1.5 2.2c-.3.4-3.4 4.2-3.4 4.2l-3.7 4.1-6.1 5.7c-2.8 2.3-5.8 4.5-9 6.2l-1.2.6-1.2.6c-.8.4-1.6.7-2.5 1l-1.3.4c-.4.1-.8.2-1.3.3-.4.1-1.71.43-2.9.4 0 0-1.4-.2-1.9-.3-.4-.1-.9-.2-1.3-.3l-1.3-.4c-.8-.3-1.7-.6-2.5-1l-1.2-.5-1.2-.6c-3.2-1.6-6.3-3.7-9.1-6l-4.1-3.6-3.9-3.9-1-1-.9-1-1.8-2.1c-1.2-1.4-2.3-2.8-3.3-4.4-1-1.5-2-3.1-2.8-4.8-.8-1.6-1.6-3.3-2.3-5.1-.7-1.7-1.3-3.5-1.8-5.3s-1-3.6-1.4-5.4-.8-3.6-1-5.5c-.3-1.8-.5-3.7-.7-5.5-.4-3.7-.5-7.4-.5-11.1.3-2.3.8-4.6 1.2-6.9.5-2.3 1.1-4.6 1.7-6.8.7-2.2 1.4-4.5 2.3-6.6.4-1.1.9-2.1 1.4-3.1s2.59-4.47 6.3-8.1c1.6-1.7 3.3-3.3 5-4.7 3.5-2.8 7.7-4.9 12-6.5l1.6-.6c6.69-2.31 10.6-2.2 11.8-2.3 2.3-.1 4.71-.26 7-.1 3.16.22 6.8 1.4 6.8 1.4 2.3.6 4.5 1.3 6.7 2.3.3.1 1.6.7 1.6.7.5.3 2.6 1.3 3.1 1.7.5.3 5.3 3.7 6.9 5.4 1.7 1.7 3.3 3.4 4.9 5.2 1.7 1.9 2.9 4.2 3.9 6.6 1.1 2.4 1.9 4.8 2.5 7.3z" fill="#c5796d" stroke-width="none" opacity="1" stroke="none"></path></g></g><g id="svga-group-mouth-single-move" transform="matrix(1,0,0,1,0,0)"><g id="svga-group-mouth-single"><path id="SvgjsPath14605" d="M90.88 126.51s-.27 1.69.86 2.88c1.14 1.19 11.47 2.31 17.34.11 5.87-2.2 6.74-5.28 6.74-5.28s-5.39.45-7.07.11c-1.69-.34-7.66-1.1-8.9-1s-3.37.96-4.36 1.36-4.61 1.82-4.61 1.82z" fill="#d55f6d" stroke-width="none" opacity="1" stroke="none"></path><path id="SvgjsPath14606" d="M87.57 126.62s1.87 1.37 4.84.17c2.96-1.19 6.58-2.22 8.13-2.32s7.17 1.35 10.39 1.07c3.22-.29 6.81-1.1 8.21-3.3s.26-3.18-.22-2.66c-.48.51-.69 4.46-3.65 4.22-2.96-.24-6.51-2.62-9.97-3.46-3.46-.83-4.82.93-5.53 1.53s-1.58.42-3.12.41c-1.54-.02-4.73.33-5.43 2.15-.71 1.82-2.27 2.85-3.65 2.19z" fill="#cd5160" stroke-width="none" opacity="1" stroke="none"></path></g></g><g id="svga-group-eyes-left-move" transform="matrix(1,0,0,1,0,1)"><g id="svga-group-eyes-left"><g id="svga-group-eyesback-left"><path id="SvgjsPath14463" d="M80.2 77.2c7.5 0 13.5 5.8 13.5 13s-6 13-13.5 13-13.5-5.8-13.5-13 6-13 13.5-13z" fill="#ffffff" stroke-width="none" opacity="1"></path></g><g id="svga-group-eyesiriswrapper-left" transform="matrix(1,0,0,1,0,0)"><g id="svga-group-eyesiriscontrol-left" transform="matrix(1,0,0,1,0,0)"><g id="svga-group-eyesiris-left"><path id="SvgjsPath14621" d="M80.2 84.6c3.1 0 5.6 2.5 5.6 5.6s-2.5 5.6-5.6 5.6-5.6-2.5-5.6-5.6 2.5-5.6 5.6-5.6z" fill="#401a00" stroke-width="none" opacity="1" stroke="none"></path><path id="SvgjsPath14622" d="M80.2 85.7c2.5 0 4.5 2 4.5 4.5s-2 4.5-4.5 4.5-4.5-2-4.5-4.5 2-4.5 4.5-4.5z" fill="#000000" stroke-width="none" opacity="1"></path><path id="SvgjsPath14623" d="M74.6 90.2c0 .9.2 1.8.6 2.6.8.5 1.8.8 2.8.8 2.9 0 5.3-2.4 5.3-5.3 0-1.2-.4-2.4-1.1-3.3-.6-.2-1.3-.4-2-.4-3.1 0-5.6 2.5-5.6 5.6z" fill="#4f2508" stroke-width="none" opacity="1" stroke="none"></path><path id="SvgjsPath14624" d="M75.7 90.2c0 1.3.5 2.4 1.4 3.3.3.1.6.1 1 .1 2.9 0 5.3-2.4 5.3-5.3 0-.5-.1-1.1-.2-1.6-.8-.7-1.8-1.1-2.9-1.1-2.6.1-4.6 2.1-4.6 4.6z" fill="#1e1e1e" stroke-width="none" opacity="1"></path><path id="SvgjsPath14625" d="M77.7 87.8c.6-.7 1.6-.9 2-.4s.4 1.4-.3 2.1-1.6.9-2 .4-.3-1.4.3-2.1z" fill="#2b2b2b" stroke-width="none" opacity="1"></path></g></g></g><g id="svga-group-eyesfront-left"><path id="SvgjsPath14471" d="M80.2 76.7c-7.8 0-14.1 6.1-14.1 13.6s6.3 13.6 14.1 13.6 14.1-6.1 14.1-13.6S88 76.7 80.2 76.7zm-.7 23.4c-7.8 0-10.2-4.1-10.2-4.1 2.7-9.8 7.8-15.2 13.6-12.6 5.8 2.6 7.4 8.8 7.3 9.9s-2.9 6.8-10.7 6.8z" fill="#f3d4cf" stroke-width="none" opacity="1" stroke="none"></path><path id="SvgjsPath14472" d="M90.564 94.282c-1.7 9.1-9.8 10.6-9.8 10.6 10.8-1.9 9.8-10.6 9.8-10.6z" fill="#e4b3ab" stroke-width="none" opacity="1" stroke="none"></path><path id="SvgjsPath14473" d="M73.953 82.16c4-3.4 9.5-2 9.5-2-1.7-1.1-8.5-1.9-11.5 2.9s-3.4 12.3-3.4 12.3 1.4-9.9 5.4-13.2z" fill="#e4b3ab" stroke-width="none" opacity="1" stroke="none"></path><path id="SvgjsPath14474" d="M77.04 82.299a11.938 11.938 0 0 0-.73.321 2.259 2.259 0 0 0-.13.08 2.259 2.259 0 0 1-.13.08 12.928 12.928 0 0 1-.27-.697 46.745 46.745 0 0 1-.29-.826c-.086-.245-.166-.48-.234-.679l-.085-.246v-.003l-.031-.089a59.744 59.744 0 0 1-.123-.425l-.126-.445-.077-.267a.273.273 0 0 0-.014-.043.271.271 0 0 0-.32-.19c-.14.04-.23.18-.19.32l.003.015c.009.04.035.141.075.287l.006.024a29.517 29.517 0 0 0 .263.898l.023.076.3.95a20.783 20.783 0 0 0 .63 1.64 8.8 8.8 0 0 0-.462.337c-.27.21-.526.439-.758.683-.28.29-.55.58-.76.89a9.628 9.628 0 0 0-.65.92l-.15.24a10.555 10.555 0 0 1-.528-.664 12.367 12.367 0 0 1-.294-.418l-.008-.011-.15-.227-.47-.79a29.932 29.932 0 0 1-1.033-1.896l-.002-.003-.002-.006-.003-.005-.002-.004a.264.264 0 0 0-.348-.116.263.263 0 0 0-.125.34l.005.01.003.007.005.01A29.542 29.542 0 0 0 71.09 84.6l.47.739a11.358 11.358 0 0 0 .98 1.26l-.15.24a12.15 12.15 0 0 0-.52.97 24.427 24.427 0 0 0-.656 1.424c-.076.179-.15.357-.224.536a7.27 7.27 0 0 1-1.02-.56l-.42-.28c-.961-.66-1.873-1.451-2.436-1.967-.35-.321-.566-.535-.574-.543-.1-.1-.27-.1-.37 0-.1.1-.1.27 0 .37.032.032.246.244.582.554.573.527 1.501 1.335 2.5 2.02a14.938 14.938 0 0 0 .157.106l.277.166.006.003c.352.21.826.484 1.088.607l.03.014a28.68 28.68 0 0 0-.373 1.034 27.312 27.312 0 0 0-1.107 4.446 1.967 1.967 0 0 1-.03.123c0 .004 0 .007-.002.01a5.26 5.26 0 0 1-.042.146l-.006.02.01.016c.625 1.002 1.527 1.754 2.503 2.376l.195.122h.001l.011.007c.085.05.17.1.257.146.169.092.341.178.513.264a4.348 4.348 0 0 0-.453.668 6.104 6.104 0 0 0-.237.466c-.083.18-.166.382-.247.607l-.003.009a.263.263 0 0 0 .16.34c.03.01.06.02.09.02.11 0 .21-.07.25-.17l.004-.01c.097-.275.2-.513.299-.715.061-.125.122-.236.178-.335a3.915 3.915 0 0 1 .369-.535.956.956 0 0 1 .04-.045.26.26 0 0 0 .036-.048l.014-.022a8.586 8.586 0 0 0 .553.227l.026.01c.125.046.252.09.381.133a10.575 10.575 0 0 0-.115.343l-.017.053a13.39 13.39 0 0 0-.224.804 6.478 6.478 0 0 0-.144.798v.002a.274.274 0 0 0 .24.29h.03a.26.26 0 0 0 .26-.234v-.006l.001-.012a5.82 5.82 0 0 1 .136-.747c.037-.156.079-.309.12-.45.083-.291.163-.533.204-.654l.009-.027c.186.052.371.104.557.152l.168.042h.004l.021.006c1.203.256 2.426.425 3.649.439a.402.402 0 0 0 .035.001h.016c.3.019.603.011.906-.007l.015-.001h.001l.402-.027c.164-.012.328-.024.49-.032l.055-.003a12.568 12.568 0 0 1 .62-.11c.393-.065.79-.131 1.18-.247l.011-.003.018-.004c2.43-.603 4.59-2.077 6.097-4.039l.001-.002a11.241 11.241 0 0 0 .978-1.574l.003-.006a.139.139 0 0 0 .003-.005l.038-.082c.115-.25.224-.51.28-.794v-.003l.002-.011c.032-.184.027-.363.007-.539l-.004-.03a4.762 4.762 0 0 0-.043-.271c-.02-1.21-.35-2.43-.8-3.58l-.031-.072-.006-.013a13.62 13.62 0 0 0-2.343-3.675c-1.01-1.13-2.26-2.09-3.7-2.7-1.43-.62-3.06-.94-4.69-.68a6.454 6.454 0 0 0-1.6.439zm-1.93 3.903c.187-.24.39-.434.588-.622l.072-.068c.45-.43.95-.76 1.48-1.05.54-.24 1.1-.46 1.7-.52 1.18-.2 2.44.01 3.62.45 1.19.43 2.3 1.15 3.29 2.03.894.812 1.738 1.74 2.433 2.77l.129.195.018.027.05.078a12.91 12.91 0 0 1 1.59 3.41c.02.165.03.33.002.486v.003l-.002.011c-.045.26-.154.51-.262.761l-.038.09c-.26.547-.607 1.055-.966 1.533l-.001.002-.003.004c-1.5 1.93-3.72 3.23-6.08 3.74l-.02.006a8.038 8.038 0 0 1-1.142.218l-.162.022c-.137.019-.273.037-.409.057a3.938 3.938 0 0 0-.047.007h-.023l-.487.017-.384.013h-.016a7.244 7.244 0 0 1-.86.023l-.026-.001-.024-.002a17.547 17.547 0 0 1-3.584-.362l-.01-.003-.026-.005a14.85 14.85 0 0 1-2.135-.62 11.399 11.399 0 0 1-1.263-.578l-.022-.012c-1.05-.575-2.062-1.307-2.781-2.254l-.02-.026.01-.022a.753.753 0 0 0 .04-.128l.063-.128v-.002a93.336 93.336 0 0 1 2.047-4.016 45.13 45.13 0 0 1 1.84-3.094c.19-.29.38-.57.58-.85.19-.28.39-.55.6-.82.2-.27.42-.52.64-.77z" fill="#000000" stroke-width="none" opacity="1" stroke="none"></path></g></g></g><g id="svga-group-eyes-right-move" transform="matrix(1,0,0,1,0,1)"><g id="svga-group-eyes-right"><g id="svga-group-eyesback-right"><path id="SvgjsPath14464" d="M119.8 77.2c7.5 0 13.5 5.8 13.5 13s-6 13-13.5 13-13.5-5.8-13.5-13 6-13 13.5-13z" fill="#ffffff" stroke-width="none" opacity="1"></path></g><g id="svga-group-eyesiriswrapper-right" transform="matrix(1,0,0,1,0,0)"><g id="svga-group-eyesiriscontrol-right" transform="matrix(1,0,0,1,0,0)"><g id="svga-group-eyesiris-right"><path id="SvgjsPath14626" d="M119.8 85.3c2.7 0 4.9 2.2 4.9 4.9s-2.2 4.9-4.9 4.9-4.9-2.2-4.9-4.9 2.2-4.9 4.9-4.9z" fill="#401a00" stroke-width="none" opacity="1" stroke="none"></path><path id="SvgjsPath14627" d="M119.8 86.2c2.2 0 4 1.8 4 4s-1.8 4-4 4-4-1.8-4-4 1.8-4 4-4z" fill="#000000" stroke-width="none" opacity="1"></path><path id="SvgjsPath14628" d="M114.9 90.2c0 .8.2 1.6.6 2.3.7.4 1.5.7 2.4.7 2.6 0 4.6-2.1 4.6-4.6 0-1.1-.4-2.1-1-2.9-.5-.2-1.1-.3-1.7-.3-2.7-.1-4.9 2.1-4.9 4.8z" fill="#4f2508" stroke-width="none" opacity="1" stroke="none"></path><path id="SvgjsPath14629" d="M115.8 90.2c0 1.1.5 2.2 1.2 2.9.3.1.6.1.8.1 2.6 0 4.6-2.1 4.6-4.6 0-.5-.1-.9-.2-1.4-.7-.6-1.6-.9-2.5-.9-2.1-.1-3.9 1.7-3.9 3.9z" fill="#1e1e1e" stroke-width="none" opacity="1"></path><path id="SvgjsPath14630" d="M117.6 88.1c.6-.6 1.4-.8 1.8-.4.4.4.3 1.2-.2 1.8s-1.4.8-1.8.4c-.4-.4-.3-1.2.2-1.8z" fill="#2b2b2b" stroke-width="none" opacity="1"></path></g></g></g><g id="svga-group-eyesfront-right"><path id="SvgjsPath14475" d="M119.8 76.7c-7.8 0-14.1 6.1-14.1 13.6s6.3 13.6 14.1 13.6 14.1-6.1 14.1-13.6-6.3-13.6-14.1-13.6zm.8 22.1c-7.3-.5-9.6-5.7-9.6-6.6s1.8-6.2 7.3-8.1 11.5 3.9 11.3 11.5c0-.1-1.8 3.7-9 3.2z" fill="#f3d4cf" stroke-width="none" opacity="1" stroke="none"></path><path id="SvgjsPath14478" d="M110.45 92.93s-.41 5.52 4.26 8.39c0 0-3.36-3.16-4.26-8.39z" fill="#e4b3ab" stroke-width="none" opacity="1" stroke="none"></path><path id="SvgjsPath14479" d="M125.825 83.785c3.4 3 4.42 11.337 4.42 11.337s-.12-6.337-2.62-10.437-8.57-3.438-10.07-2.638c0 0 4.87-1.262 8.27 1.738z" fill="#e4b3ab" stroke-width="none" opacity="1" stroke="none"></path><path id="SvgjsPath14480" d="M118.707 102.253c8.082 1.207 10.656-5.285 10.656-5.285-3.726 5.505-9.756 5.385-10.656 5.285z" fill="#e4b3ab" stroke-width="none" opacity="1" stroke="none"></path><path id="SvgjsPath14481" d="M128.806 82.714a.276.276 0 0 0-.505-.219c-.249.575-.755 1.416-1.209 2.127a49.6 49.6 0 0 1-.588.896l-.053.08c-1.284-1.409-2.842-2.358-4.453-2.655-4.283-.788-9.697 2.652-11.095 9.113v-.001.003l-.002.01.001-.003c-.118 2.839 5.186 6.643 8.969 6.906 1.434.14 3.178.083 4.818-.293l.082.172c.069.15.162.358.254.598.188.488.364 1.068.368 1.522a.275.275 0 1 0 .55-.005c-.005-.559-.213-1.218-.405-1.715a10.59 10.59 0 0 0-.268-.631l-.037-.08c.323-.09.641-.194.949-.312l.035.036a32.77 32.77 0 0 1 .854.923c.244.275.499.574.716.852.221.283.39.53.474.705a.275.275 0 0 0 .496-.239c-.112-.231-.312-.517-.536-.804-.227-.29-.49-.6-.739-.88a35.06 35.06 0 0 0-.66-.72l-.097-.101c1.209-.556 2.225-1.365 2.821-2.494v.009l.001-.012c.18-1.753.012-3.434-.414-4.966l.145-.055c.206-.079.491-.19.804-.323.617-.261 1.371-.613 1.839-.952a.275.275 0 1 0-.322-.445c-.412.298-1.113.629-1.732.89a23.743 23.743 0 0 1-.893.358 12.74 12.74 0 0 0-.909-2.124 18.865 18.865 0 0 0 .73-.824c.468-.56 1.049-1.314 1.479-2.081a.275.275 0 0 0-.48-.269c-.406.724-.962 1.449-1.421 1.997-.229.273-.432.5-.577.659l-.017.017a11.53 11.53 0 0 0-.956-1.356l.138-.203c.154-.23.366-.55.594-.907.453-.708.982-1.584 1.251-2.204zm-7.149 1.807c2.208.316 7.49 4.257 7.889 10.984-.091.155-2.287 3.79-9.623 2.94-7.351-.851-8.959-6.18-9.018-6.384 3.707-7.277 8.543-7.855 10.752-7.54z" fill="#000000" stroke-width="none" opacity="1" stroke="none"></path></g></g></g><g id="svga-group-facehighlight-single"></g><g id="svga-group-eyebrows-left-move" transform="matrix(1,0,0,1,0,0)"><g id="svga-group-eyebrows-left-rotate" transform="matrix(0.9978589232386035,-0.06540312923014327,0.06540312923014327,0.9978589232386035,-5.67616633470162,5.164382607273893)"><g id="svga-group-eyebrows-left"><path id="SvgjsPath14517" d="M90.21 70.04s-.36 5.03-2.9 5.57-17.42.27-17.9-.95c-.48-1.22-.12-3.81.48-3.94.6-.14 15.12-2.18 17.9-1.63 2.78.55 2.42.95 2.42.95z" fill="#2a232b" stroke-width="none" opacity="1" stroke="none"></path><path id="SvgjsPath14518" d="M90.13 69.89a.492.492 0 0 0-.15-.1c-.11-.06-.23-.1-.35-.15-.24-.08-.48-.15-.73-.2-.25-.06-.49-.1-.74-.15l-.37-.06-.37-.03c-.24-.03-.5-.02-.75-.02s-.5 0-.75.02l-.75.04-.75.06c-2.01.15-4.02.39-6.03.62-2.01.23-4.02.46-6.03.72l-1.51.2-.75.1-.1-.01c-.02 0-.07.01-.07.01-.02 0-.05.02-.08.06-.06.07-.12.17-.17.29-.19.47-.28 1.03-.32 1.58-.03.55-.02 1.11.13 1.62l.03.09c.01.04.01.03.02.05.03.03.07.07.12.09.1.06.21.11.33.15.23.08.48.15.72.2.49.11.99.19 1.49.25 1 .13 2.01.22 3.02.27 1.01.05 2.02.07 3.03.08 1.01.01 2.02 0 3.03-.02l3.03-.05c.5-.01 1.01-.03 1.51-.06s1.01-.06 1.48-.15c.46-.1.88-.38 1.21-.76.34-.38.6-.86.82-1.36.43-1.01.69-2.11.84-3.24.05-.05.01-.1-.04-.14zm-.1 1.86c-.11.56-.25 1.12-.45 1.65-.2.53-.46 1.05-.82 1.49-.35.44-.83.8-1.37.93-.52.12-1.02.16-1.53.2-.51.04-1.02.06-1.52.08-1.01.04-2.03.04-3.04.02-2.03-.05-4.05-.19-6.07-.33-1.01-.07-2.02-.14-3.03-.26-.5-.06-1.01-.12-1.51-.21-.25-.05-.5-.1-.75-.18-.13-.04-.25-.08-.38-.15a.624.624 0 0 1-.19-.15.458.458 0 0 1-.08-.13l-.04-.11c-.19-.57-.22-1.16-.21-1.75.02-.59.09-1.17.3-1.74.06-.14.13-.29.24-.42.06-.07.13-.13.24-.17.06-.02.07-.02.11-.03l.1-.02.76-.13 1.51-.23c2.01-.29 4.02-.57 6.03-.78 2.02-.21 4.04-.38 6.06-.47l.76-.03h.76c.25 0 .51.01.76.02s.51.02.77.06l.38.05.37.09c.25.06.5.13.74.2.25.07.49.16.73.26.12.05.24.11.35.18.06.04.11.08.16.13.03.02.05.06.06.09.02.03.02.1-.01.12-.01.58-.09 1.16-.19 1.72z" fill="#1b141c" stroke-width="none" opacity="1" stroke="none"></path></g></g></g><g id="svga-group-eyebrows-right-move" transform="matrix(1,0,0,1,0,0)"><g id="svga-group-eyebrows-right-rotate" transform="matrix(0.9914448613738104,-0.13052619222005177,0.13052619222005177,0.9914448613738104,-8.464865938896537,16.684736895025935)"><g id="svga-group-eyebrows-right"><path id="SvgjsPath14519" d="M109.58 74.82s.41 4.5 3.26 4.98 19.58.24 20.12-.85.14-3.4-.54-3.52c-.68-.12-17-1.94-20.12-1.46-3.13.48-2.72.85-2.72.85z" fill="#2a232b" stroke-width="none" opacity="1" stroke="none"></path><path id="SvgjsPath14520" d="M109.61 74.81c.18 1.02.47 1.99.95 2.9.24.45.54.87.92 1.22s.85.59 1.36.68c.53.09 1.1.11 1.67.14.56.03 1.13.04 1.7.05l3.4.04c1.14.01 2.27.02 3.41.02 1.14 0 2.27-.02 3.41-.07 1.14-.05 2.27-.13 3.4-.24.56-.06 1.13-.13 1.68-.23.28-.05.55-.11.81-.18.13-.04.26-.08.37-.13.06-.03.1-.06.13-.08.01-.02.01-.01.03-.04l.04-.08c.17-.45.19-.96.15-1.45-.05-.49-.14-.99-.36-1.41-.05-.1-.12-.2-.19-.26-.03-.03-.07-.05-.09-.05 0 0-.05-.01-.08-.01l-.1-.01-.84-.09-1.69-.18c-2.26-.23-4.52-.43-6.78-.64-2.26-.21-4.52-.42-6.78-.56l-.85-.05-.85-.04c-.28-.02-.57-.02-.85-.02s-.57-.01-.84.02l-.42.03-.42.06c-.28.04-.56.08-.84.13-.28.05-.55.11-.82.18-.13.04-.27.08-.39.13-.06.03-.12.06-.17.09-.06.04-.11.08-.07.13zm-.05.02c-.03-.02-.03-.08-.01-.11a.27.27 0 0 1 .07-.08c.05-.05.12-.08.18-.12.13-.07.26-.12.39-.16.27-.09.54-.17.82-.23.28-.07.55-.13.83-.18l.42-.08.43-.05c.29-.04.58-.05.86-.06.29-.01.57-.02.86-.02h.86l.86.02c2.28.08 4.55.23 6.82.42 2.27.2 4.53.44 6.78.7l1.69.2.85.12.11.02c.04.01.06 0 .13.02.12.03.2.09.27.15.13.12.21.25.27.38.24.51.32 1.03.34 1.56.01.52-.03 1.05-.24 1.56l-.04.09c-.01.02-.05.09-.09.12a.8.8 0 0 1-.21.13c-.14.06-.28.1-.42.14-.28.07-.57.12-.85.16-.57.08-1.13.14-1.7.19-1.13.1-2.27.16-3.41.23-2.27.13-4.55.25-6.82.3-1.14.02-2.28.02-3.42-.02-.57-.02-1.14-.04-1.71-.07-.57-.04-1.14-.07-1.73-.18-.6-.12-1.14-.43-1.54-.83-.4-.4-.69-.86-.92-1.33-.23-.48-.39-.97-.51-1.47-.11-.51-.2-1.03-.22-1.52z" fill="#1b141c" stroke-width="none" opacity="1" stroke="none"></path></g></g></g><g id="svga-group-nose-single-move" transform="matrix(1,0,0,1,0,0)"><g id="svga-group-nose-single"><path id="SvgjsPath14152" d="M94.83 88.79c.36 1.08.71 2.16 1.04 3.24.32 1.09.63 2.18.92 3.28.29 1.1.62 2.19.77 3.33.15 1.13.25 2.28.12 3.43l-.08.01c-.29-1.11-.55-2.2-.8-3.3-.25-1.1-.39-2.22-.61-3.33-.21-1.11-.45-2.22-.69-3.32-.23-1.11-.48-2.22-.74-3.32l.07-.02z" fill="#c5796d" stroke-width="none" opacity="1" stroke="none"></path><path id="SvgjsPath14153" d="M101.1 102.15c-1.12.07-2.22.27-3.28.6-1.06.32-2.09.74-3.03 1.29-.47.27-.9.59-1.21.97-.32.38-.44.82-.3 1.24.13.42.47.83.87 1.16.41.35.86.7 1.3 1.03.88.68 1.78 1.34 2.7 1.94.23.15.46.29.7.42.23.12.48.25.68.3.1.03.18.02.28.01l.17-.04.18-.06c.24-.09.48-.22.71-.35.95-.55 1.83-1.23 2.78-1.86.12-.08.24-.15.38-.22.06-.04.15-.06.24-.08.09-.01.18-.02.26.01.33.06.57.24.79.42.44.38.79.83 1.04 1.34-.32-.46-.72-.86-1.17-1.17-.22-.15-.47-.28-.7-.3a.5.5 0 0 0-.31.08c-.1.06-.22.15-.32.23-.87.68-1.71 1.44-2.68 2.06-.25.15-.49.31-.78.43-.14.07-.29.12-.46.16-.17.03-.38.05-.55 0-.35-.08-.6-.21-.87-.34a25.2 25.2 0 0 1-.75-.42c-.97-.6-1.89-1.26-2.79-1.94-.45-.35-.88-.7-1.32-1.07-.45-.39-.88-.86-1.08-1.52-.09-.32-.11-.69 0-1.02.04-.17.12-.32.2-.46.09-.13.17-.28.28-.39.42-.47.92-.8 1.44-1.06a12.51 12.51 0 0 1 6.6-1.39z" fill="#c5796d" stroke-width="none" opacity="1" stroke="none"></path><path id="SvgjsPath14154" d="M108 104.85c.54.17 1.02.5 1.4.96.19.23.35.48.45.82.08.32.07.63.04.93-.07.59-.28 1.12-.54 1.62-.27.49-.6.95-1.05 1.3.18-.53.34-1.03.49-1.53.14-.5.27-1 .33-1.48.03-.24.04-.48.01-.68-.02-.18-.13-.42-.23-.64-.24-.44-.55-.86-.9-1.3z" fill="#c5796d" stroke-width="none" opacity="1" stroke="none"></path><path id="SvgjsPath14155" d="M92.99 106.65c-.37.37-.76.7-1.11 1.04-.17.17-.34.34-.44.51-.03.04-.04.08-.06.11-.02.04-.01.06-.03.08.01.01.01.01 0 .01v.01l.01.04c.01.05.02.1.03.16.09.46.21.96.3 1.45.09.5.17 1 .18 1.54-.32-.43-.55-.89-.76-1.36-.2-.48-.38-.95-.49-1.49l-.03-.21-.01-.06v-.09c0-.06.01-.12.02-.18.06-.2.15-.35.26-.47.21-.23.42-.4.66-.54.46-.26.95-.45 1.47-.55z" fill="#c5796d" stroke-width="none" opacity="1" stroke="none"></path><path id="SvgjsPath14156" d="M93.22 110.41c.11-.29.29-.5.5-.69.21-.18.44-.33.7-.44.26-.1.54-.17.84-.16.29.01.6.09.82.31-.29.1-.5.2-.72.29-.22.09-.43.19-.65.28-.45.17-.9.35-1.49.41z" fill="#c5796d" stroke-width="none" opacity="1" stroke="none"></path><path id="SvgjsPath14157" d="M101.51 103.66c-1.64-.67-4.02.54-5.47 1.27-1.48.74-.18 2.87 1.28 2.2.79-.36 1.61-.64 2.43-.91.78-.25 1.56-.42 2.18-.96.6-.53.19-1.35-.42-1.6z" fill="#fbe5e2" stroke-width="none" opacity="1" stroke="none"></path></g></g><g id="svga-group-hair-front"><path id="SvgjsPath13936" d="M145.4 55c-.9-2.7-3.2-10-3.6-10.7-.4-.7-5.2-4.1-8.2-5 0 0 .7-4.5-4.3-7.7 0 0-3.9-5.5-9.8-5.9 0 0-11.3-7.7-19.1-6.4 0 0-23.1-5.7-42.7 9.5s-18 37.7-17.8 43c.2 5.2 2.7 15.4 10.7 28.8 7.9 13.4 3.6 26.6-1.8 36.1-5.5 9.5-16.6 25.2-13.4 37.7 3.2 12.5 5.7 12.2 15.2 20.4s9.5 15.4 8.2 19.3c0 0 5-3.9 1.6-16.1 0 0 3.2 2.5 4.1 7.9 0 0 1.6-5.9-.7-13.4s-.7-12.4 2.1-16.7c.3-.4.6-1.1 1-1.9 1.1-1.4 4.7-6.7 6-8.8 6.2-9.6 5.7-17.7-.1-29.2l-.3-.3c.7-7.2 1.2-17-.3-24.2-2.7-12.7-6.8-21.8-7-27.4-.2-5.7-2.5-15.9 5-25.6s14-12.4 19.5-13.2c7.3-1 20.1-1.9 25.2-.8 5.1 1.1 8.4 2.8 8.4 2.8s5.2 6.1 8.4 11.3c3.2 5.2 5.4 12.7 6.4 16.8.9 4.1 5.4 16.8 5.4 16.8s2.9-10.4 3.4-15.4c.4-5.2-.5-19-1.5-21.7z" fill="#a27979" stroke-width="none" opacity="1" stroke="none"></path><path id="SvgjsPath13937" d="M70.9 33.9C58.8 39.1 52.6 53.4 54.3 66c1.3 9.1 5.9 17 10 25 .6 1.4 1.3 2.7 2 4 2.8 6 4.9 12.2 4.8 19.1-.2 10.2-4.2 19.9-9.6 28.4-4.8 7.5-11.2 13.8-15.8 21.4-4 6.6-5.9 14.7-2 21.8 5.1 9.2 17.4 15.5 14.8 27.6-.1.3.4.4.5.1 1.9-5.8-.8-11.2-4.4-15.8-5.5-6.9-12.9-12.2-11.9-22 1-9.4 7.8-16.3 13.4-23.4 4.6-5.8 8.8-12.1 11.9-18.9 2.6-5.9 4-11.8 4.2-17.6 1.5 16.6-1.2 32.6-10.2 47.4-3.9 6.4-8.5 12.8-7.3 20.7 1.6 10.1 10.4 18.6 5.2 29.1-.2.4.4.8.7.4 4.7-6.8.8-15-2-21.6-2.8-6.7-3.8-12.6-.6-19.4 2.1-4.5 5.2-8.4 7.5-12.8 8-15.1 11-34.4 6.3-51-.1-.7-.2-1.3-.3-2 .1 0 .1-.1.1-.2-.1-.4-.2-.7-.3-1.1-.6-2.7-1.4-5.3-2.4-8-2.1-7-3.9-13.9-3.5-21.4.5-9.8 4.5-18 11.8-24.4.2-.2-.1-.6-.3-.4-13.3 8.2-14.4 24.8-11.1 39.4-.7-1.4-1.4-2.7-2.1-4.1-2.9-7.9-4.6-16.2-2.6-24.8 3-12.7 15.6-23.8 28.9-17.3.3.2.6-.3.3-.5-11.1-7.2-24 1.5-28.6 12.1-3.3 7.5-3.3 15.6-1.5 23.3-4.3-9.6-7-19.3-2.3-30.1 7.4-17.1 31-22 42.5-5.9.3.4 1 0 .7-.4-6-10-19.6-13.2-30.2-8.8zm33.2-13.6c4.4.6 8.7 1.6 12.8 4.1 6.9 4.2 10.7 11.4 9.9 19.3 0 .4.6.5.7.1 1.6-7.6-1.4-13.5-6.5-17.6 6.3 1.9 9.4 7.1 9.8 13.8 0 .2.3.3.4 0 .5-2.7.1-5.3-1.1-7.6.7.6 1.4 1.2 1.9 2.1.8 1.4 1.1 2.8 1.4 4.4.1.3.5.2.5-.1.3-2.9-1.9-7.3-4.7-8.2h-.1c-2.2-3.1-5.8-5.4-9.7-6h-.2c-5.9-4-13.8-6.1-20.6-6.2-.7-.1-1.4-.3-2.1-.4-14.2-2.4-29 2.1-40 11.3C44.7 39.4 38.4 54.6 39.1 70c.4 7.6 2.6 14.8 6.1 21.6 4.4 8.6 10.2 16.8 9.3 26.9-1.7 20.4-24.5 35.5-19.5 57 0 .2.1.2.3.2v.7c.9 7.8 7.8 13.7 14 17.6.2.1.3-.1.2-.2-6.1-5.4-13.6-10.6-13.3-19.8.3-10.2 9.4-17.2 15.2-24.6 8.2-10.4 11.9-24 10.2-37.1-2.1-16.1-13.9-29-15.4-45.2-1.2-14.9 7.5-30.2 20.9-36.7 16.7-8.1 36.1-1.1 46.8 13.1.2.3.7 0 .5-.3C107.2 31 92 24.5 78.1 26c-13.7 1.5-25.2 11.2-30.3 23.9-6.6 16.4 1 30.6 7.6 45.6 9 20.4 6.4 40.9-8.5 57.7-4.8 5.5-10.5 11.7-11.5 19.1-.6-16.4 12.1-28.8 17.7-43.5 2.4-6.2 3.4-12.8 1.7-19.4-1.7-6.6-5.5-12.3-8.6-18.3C31.1 62 47.7 25.4 80.6 19.6c18.3-3.2 40.5 5.2 42.3 26.1 0 .3.5.3.5 0-.2-12.2-8.7-21.2-19.3-25.4zm39 25.7c.2-.2.2-.4-.1-.6h-.1v-.1c-1.2-3.1-6.2-6.3-9.5-5.9-.2 0-.3.3-.1.4 1.6.8 3.3 1.1 4.8 2 1.3.8 2.2 1.8 3.1 2.8-3-1.4-6.4-2.3-9.6-2.4-.4 0-.4.6-.1.6 3.9.8 7.3 1.8 11 3.4.4 1.5.7 3 1.1 4.6-5.2-.4-9.9-2-14.7-4.2-.3-.1-.5.2-.3.4 4.5 3 9.8 4.4 15.1 4.8.7 3.2 1.4 6.5 1.8 9.8-3.4-1.7-6.9-3-10.2-5-3.4-2.1-6.3-4.7-9.4-7-.3-.2-.5.2-.3.4 4.6 5.6 13 10.7 20 12.4.2 1.5.3 3 .4 4.5 0 1.1.1 2.2 0 3.3-5.2-2.6-9.1-5.9-12.9-10.3-.2-.2-.6.1-.4.3 2.8 5 8 9 13.3 11-.1 2.5-.3 5.1-.6 7.6-2.9-1.6-5.2-3.7-7.4-6.1-.2-.2-.6.1-.5.4 1.7 3 4.6 5.2 7.6 6.6h.1c-.2 1.6-.5 3.2-.8 4.8-1.8-.8-3.1-2-4-3.8-.1-.3-.6-.1-.5.2.6 2 2.3 3.8 4.4 4.5-.2.9-.4 1.7-.5 2.6-.3-.2-.6-.4-.9-.7l-1.2-1.2c-.2-.2-.6.1-.4.3.6 1.1 1.5 2.2 2.7 2.7.3.1.4-.1.5-.3.2-.1.3-.2.4-.4 3.6-13.4 3.5-29.4-1.8-42.4zM64.4 205.8c.7-3.1.5-6.3-.2-9.3-.3-1.5-.7-3-1.2-4.5-.5-1.4-1-3-1.3-4.6-.3-1.6-.3-3.3-.1-4.9.2-1.6.8-3.2 1.4-4.7 1.4-3 3.3-5.5 5.2-8 1.9-2.5 3.9-4.9 5.3-7.6.8-1.3 1.3-2.8 1.8-4.2.2-.7.4-1.5.5-2.2l.2-1.1.1-1.1c.3-3.1-.1-6.2-.9-9.2-.7-3-1.8-6-2.9-8.9 1.4 2.8 2.7 5.7 3.6 8.8.9 3 1.4 6.2 1.3 9.4-.1 3.2-1 6.4-2.5 9.3-1.5 2.9-3.5 5.4-5.4 7.9-1.9 2.5-3.8 5-5.1 7.7-.7 1.4-1.2 2.8-1.4 4.3-.2 1.5-.3 3-.1 4.5.2 1.5.6 2.9 1.1 4.5.5 1.5.8 3.1 1 4.7.2 1.6.3 3.2.2 4.8.2 1.4 0 2.9-.6 4.4z" fill="#834848" stroke-width="none" opacity="1" stroke="none"></path></g><g id="svga-group-glasses-single-move" transform="matrix(1,0,0,1,0,0)"><g id="svga-group-glasses-single"></g></g></g></g></g><rect id="svga-credit-rect" width="200" height="15" x="0" y="185" fill="#ecf0f1" opacity="0.5" style="display: none;"></rect><text id="svga-credit-text" font-family="Avenir Next, Roboto, Helvetica, Arial, sans-serif" font-size="10px" text-anchor="start" font-weight="400" size="10px" anchor="start" weight="400" fill="#333333" x="33.40447998046875" y="182.60824704170227" style="display: none;"><tspan id="SvgjsTspan12886" dy="13" x="33.40447998046875">Created on AvatarMaker.com</tspan></text></g><defs id="SvgjsDefs12838"></defs></svg>