<svg xmlns="http://www.w3.org/2000/svg" version="1.1" width="600px" height="600px" viewBox="0 0 200 200" style="overflow:hidden!important;"><g id="svga-group-wrapper"><g id="svga-group-backs-single"></g><g id="svga-group-humanwrap-move" transform="matrix(1,0,0,1,0,0)"><g id="svga-group-humanwrap"><g id="svga-group-hair-back-move" transform="matrix(1,0,0,1,0,0)"><g id="svga-group-hair-back"><path id="SvgjsPath21435" d="M58.3 149s3.3-12.2 2.6-19.6c-.7-7.4-3.6-40-3.6-40l84.9 3.6s-3.2 22.5-3.2 30.2 0 11.2.6 15.1 1.7 9.6 2.6 13.1c.9 3.5 1 7.7 1 7.7l-84.6-2.6-.3-7.5z" fill="#2e1f1f" stroke-width="none" opacity="1" stroke="none"></path><path id="SvgjsPath21436" d="M59.1 104.5c.1 10.9 1.2 22.5 1.5 32.7 0 .2.4-1.4.4-1.6.4-8.2-.3-20.2-1.1-31.1-.1-.5-.8-.5-.8 0zm9.3 7.3c.1 6 .9 12 1 18.1.1 6.1-.6 12.1-.8 18.1 0 .4.6.5.7.1 2-11.4 2.1-25-.6-36.3 0-.2-.3-.2-.3 0zm63.4 3.4c0-.2-.2-.3-.3-.1-3.4 8.7-4.1 20.7-.8 29.5.1.2.5.2.4-.1-.5-4.6-1.4-9.2-1.4-13.9 0-5.2 1.1-10.2 2.1-15.4zm8.4-6.9c0-.4-.6 0-.6.4-2.2 8.4-2.2 17.7-.5 26.2 0 .2.1-1 .1-1.2-.6-9 0-16.5 1-25.4zm-2.9 29.6c-.3-.2-.6-.6-.7-1-.1-.2-.5-.3-.6 0-.1.6.1 1.2.5 1.6.3.3 1.1.8 1.5.3.1-.1.1-.2 0-.3 0-.3-.4-.4-.7-.6zm0-5.2c-.2-.3-.6-.5-.9-.8-.3-.3-.6-.7-.8-1.2-.1-.3-.6-.2-.5.1.2.9.9 2.3 1.9 2.3.2.1.4-.2.3-.4zm-5.1 3.3c-.4.6-.5 1.3-.6 1.9-.1.3.4.5.5.2.3-.6.6-1.3.7-2-.1-.2-.4-.3-.6-.1zm-1-5.6c-.4.7-.5 1.4-1 2.1-.2.3.3.6.5.4.5-.6 1-1.5.9-2.3 0-.4-.3-.5-.4-.2zm-4 14c-.3-.3-.6-.7-.6-1.1-.1-.5-.8-.5-.8 0 0 .6.3 1.3.7 1.7.4.4 1.1.9 1.7.7.3-.1.4-.5.1-.7-.3-.3-.7-.3-1.1-.6zm-.1-4.8c.2.1.6-.1.5-.4-.2-.5-.6-.9-.9-1.4-.3-.5-.5-1.1-.7-1.7-.1-.4-.8-.2-.7.2.3 1 .8 2.7 1.8 3.3zm-5.3-2.5c-.4.3-.6.8-.8 1.3-.3.5-.5 1-.8 1.5-.2.4.3.7.6.3.3-.5.6-.9.9-1.4.3-.4.6-.9.7-1.4 0-.3-.3-.5-.6-.3zm-44.5 7.4c-.3-.3-.5-.6-.6-1-.1-.4-.7-.3-.7.1.1.5.2 1 .6 1.4.3.4.8.8 1.3.8.3 0 .4-.4.2-.6-.2-.3-.6-.4-.8-.7zm-.3-4.3c-.5-.5-.9-1.1-1.2-1.8-.2-.4-.8-.1-.6.4.5 1.2 1.5 2.8 2.8 3.3.2.1.5-.2.3-.4-.3-.6-.8-1.1-1.3-1.5zm-4.8-3.5c-.3.6-.5 1.2-.6 1.9-.1.4.5.6.7.2.2-.7.4-1.2.4-1.9 0-.4-.4-.5-.5-.2zm-5.5-1c-.3-.4-.4-.9-.5-1.4-.1-.4-.6-.3-.6.1 0 1.1.5 2.6 1.7 2.9.2.1.4-.2.3-.4-.2-.5-.6-.8-.9-1.2zm.3-5.2c-.3-.5-.5-.9-.7-1.5-.1-.5-.8-.3-.7.2.2 1.1.8 2.6 1.9 3 .3.1.4-.2.3-.4-.2-.5-.6-.9-.8-1.3zm-4.2-3.2c-.2.7-.6 1.3-1.3 1.5-.3.1-.3.6.1.6.5 0 1-.2 1.4-.6.4-.4.5-.9.4-1.4-.1-.4-.5-.4-.6-.1zm-.7-2.5c.3-.5.6-1 .7-1.6 0-.3-.4-.4-.6-.2-.4.3-.6.9-.9 1.3-.2.6.5 1.1.8.5zm2.6-21.2c-.1-.4-.8-.3-.8.1.3 5.4.8 10.7.7 16.1 0 5.4-.7 10.7-.7 16.1 0 .2.3.2.3 0 2.2-10.1 2-22 .5-32.3z" fill="#0f0707" stroke-width="none" opacity="1" stroke="none"></path></g></g><g id="svga-group-humanbody-back"><path id="SvgjsPath21133" d="M77.8 105.9s4.8 37.7 10 55.8c0 0-6.4 8.8-14.5 11.9-28.7 11.2-35 11.2-39.6 15.2-2.4 2.1.2 11.1 1.8 17.2 1.3 5 1.7 13.2 1.7 13.2h132.2s1.6-33-.6-39.8-7.1-2.9-21.9-4.5c-14.8-1.6-28.7-10.3-31-13.2l.3-60-38.4 4.2z" fill="#eec8b8" stroke-width="none" opacity="1" stroke="none"></path></g><g id="svga-group-chinshadow-single"><path id="SvgjsPath21502" d="M85.6 152.8c6.6 3.5 10.7 3.5 10.7 3.5s8 0 19.6-9.5l.2-45.2-38.4 4.2c.1.1 3.6 27.7 7.9 47z" fill="#cf9177" stroke-width="none" opacity="1" stroke="none"></path></g><g id="svga-group-humanbody-front"><path id="SvgjsPath21134" d="M72.1 183.1s14.6-.2 20.4 2.6c5.8 2.9 12.7 2.4 16.1-1s21.6-7 21.6-7-19.7 1.9-25 4.6c-5.3 2.7-22.3-2.8-33.1.8z" fill="#cf9177" stroke-width="none" opacity="1" stroke="none"></path><path id="SvgjsPath21135" d="M74.2 173.2c6.7-1.3 14.7-6.4 14.7-6.4l6.2 5.5c-4.3-7.9-12.7-41.1-12.7-41.1l-.7.7c1.7 10.5 3.9 21.9 6.1 29.7 0 0-6 8.2-13.6 11.6z" fill="#cf9177" stroke-width="none" opacity="1" stroke="none"></path><path id="SvgjsPath21136" d="M170.7 188.5c-.1-2.1-.2-4.1-.4-6.2-.1-1-.3-2.1-.6-3.2-.2-.5-.4-1-.6-1.6-.2-.5-.6-1-1-1.5s-.9-.9-1.5-1.1c-.6-.3-1.1-.4-1.7-.6-1.1-.2-2.2-.2-3.2-.2-2.1 0-4.1.1-6.1.1s-4-.1-6-.2-4-.4-6-.7c-1-.2-2-.4-2.9-.6l-1.5-.4c-.5-.1-1-.3-1.4-.4-3.8-1.1-7.6-2.6-11.2-4.4l-1.3-.7-1.3-.7c-.4-.2-.9-.5-1.3-.8s-.9-.5-1.3-.8-.8-.5-1.3-.8l-1.2-.9-.6-.5-.3-.2-.3-.2c-.2-.2-.4-.3-.5-.5l-.2-.3v-44.6l-.1-15v-.6l-.6.1c-6.4.8-12.9 1.5-19.3 2.3l-19.1 2.3v.5l.1.4.1.9.2 1.8c.1 1.2.3 2.3.4 3.5l.9 7c.6 4.7 1.3 9.4 2.1 14 .8 4.7 1.5 9.3 2.5 14 .9 4.5 1.8 9 3 13.5-1.1 1.4-2.3 2.7-3.6 4-1.3 1.3-2.8 2.6-4.3 3.8-1.5 1.1-3.1 2.2-4.8 3l-1.3.6c-.4.2-.9.3-1.3.5l-2.7 1c-7.2 2.7-14.5 5.3-21.8 7.7l-5.5 1.8c-1.8.6-3.7 1.3-5.5 2.2-.4.2-.9.5-1.3.7-.4.3-.9.5-1.3.9l-.6.5c-.2.2-.5.5-.6.8-.3.5-.4 1.1-.5 1.6-.2 1.1-.1 2.1 0 3.1s.3 2 .4 2.9c.4 1.9.8 3.8 1.3 5.7l.8 2.8c.3.9.5 1.8.7 2.8.4 1.9.7 3.8.9 5.7s.4 3.8.5 5.7v.8h133.4v-.8c.2-4.1.4-8.2.5-12.3s.2-8.2.2-12.3c0-1.8-.1-3.8-.1-5.9zm-67.4 30.3H70.2l-16.5-.1-16-.1c-.1-1.8-.2-3.5-.4-5.3-.2-1.9-.4-3.9-.8-5.8-.2-1-.4-1.9-.7-2.9l-.7-2.8c-.5-1.9-.9-3.7-1.2-5.6-.2-.9-.3-1.9-.4-2.8-.1-.9-.1-1.9 0-2.7.1-.4.2-.8.4-1.1.1-.2.2-.3.3-.4l.5-.4c.3-.3.7-.5 1.1-.8.4-.2.8-.5 1.2-.7 1.7-.8 3.5-1.4 5.3-2l5.5-1.8c7.3-2.4 14.6-5 21.8-7.8l2.7-1c.5-.2.9-.3 1.4-.5l1.4-.6c1.8-.9 3.4-2 5-3.2s3-2.5 4.4-3.9 2.7-2.9 3.8-4.5l.2-.3-.1-.3c-1.3-4.5-2.3-9.1-3.3-13.7s-1.9-9.3-2.7-13.9c-.8-4.6-1.6-9.3-2.4-14l-2.2-13.9 19.3-1.8c6.2-.6 12.3-1.2 18.5-1.8l-.2 14.4-.2 15-.3 30v.4l.2.2.6.7.6.6.3.3.3.2.6.5c.4.3.9.6 1.3.9.4.3.9.6 1.3.9.4.3.9.5 1.3.8s.9.5 1.3.8l1.4.8 1.4.7c.5.2.9.5 1.4.7l1.4.7c1 .4 1.9.8 2.9 1.2s1.9.8 2.9 1.1l1.5.5c.5.2 1 .3 1.5.4.5.1 1 .3 1.5.4l1.5.4c1 .3 2 .4 3 .6 2 .4 4.1.6 6.2.8 2.1.2 4.1.2 6.2.2 2.1 0 4.1-.1 6.1-.1s4 .1 5 1.3c.5.6.9 1.4 1.2 2.3.3.9.4 1.9.6 2.8.3 2 .4 4 .5 6s.1 4.1.2 6.1c.1 7.9-.1 15.8-.4 23.7-10.8.1-21.5.1-32.3.2h-33.1z" fill="#c0795b" stroke-width="none" opacity="1" stroke="none"></path><path id="SvgjsPath21137" d="M150.7 219.2 147 198l-.4 21.2z" fill="#cf9177" stroke-width="none" opacity="1" stroke="none"></path><path id="SvgjsPath21138" d="M47.3 203.5s2.2 11.5 2.9 15.7h3.5l-6.4-15.7z" fill="#cf9177" stroke-width="none" opacity="1" stroke="none"></path></g><g id="svga-group-clothes-single"><path id="SvgjsPath22555" d="M83.3 143.2c-.5.1-14.9 3.7-17.3 4.9-2.5 1.2-1.2 6.9-2.2 7.8-.9.9-12 12.7-11.3 14s6.1 4 5.8 5.5c-.3 1.5-.9 2-.9 2s-22.5 5.4-24.7 7.5c-2.1 2.1-3.5 6.9-2.1 9.8 0 0-.8 4.8.1 10s1.8 9.4 1.8 9.4l.2 5.8h140.9s-.6-15-.4-17.9 1.8-13.7.7-16.2-1.6-5.1-1.6-5.1-1.6-7.5-5.5-8.9c-4-1.3-20.1.7-23 0s-.2-.9-.2-.9 2.2-1.6 2-3.1-4.9-4.4-6-7.3 0-6.4-2.4-7.5-5.1-3.1-8-6c-2.9-2.9-12.2-4-12.2-4s0 12.2-.2 14.2.2 8-.2 11.1c-.4 3.1-14.6 15.7-15.7 16.8S88 173.6 86 170.9c-2-2.7 1.3-6 1.3-9.1S84 148.8 84 147s-.7-3.8-.7-3.8z" fill="#525252" stroke-width="none" opacity="1" stroke="none"></path><path id="SvgjsPath22556" d="M57.6 175.2zm116.6 25.7c.4-3.1.8-6.3.9-9.5.1-1.6.2-3.2-.1-5 0-.4-.3-1.1-.4-1.3-.1-.3-.3-.7-.4-1.1-.2-.7-.5-1.4-.6-2.2-.1-.4-.2-.7-.2-1.1l-.3-1.2c-.2-.8-.5-1.6-.8-2.4-.6-1.5-1.3-3.1-2.5-4.4-.6-.7-1.3-1.3-2.2-1.7-.4-.2-.9-.3-1.3-.4-.4-.1-.8-.1-1.3-.2-1.6-.1-3.3-.1-4.9-.1-3.2.1-6.4.2-9.5.4-1.6.1-3.2.1-4.7.1h-.6a5 5 0 0 0 1.1-1.6c.2-.6.4-1.4.1-2.2-.3-.7-.7-1-1-1.4-1.4-1.4-2.8-2.6-3.9-3.9-.3-.3-.5-.7-.7-1-.2-.3-.3-.7-.4-1.1-.2-.8-.3-1.6-.4-2.6-.1-.9-.1-1.9-.5-3-.2-.5-.6-1.1-1.1-1.6-.2-.2-.5-.4-.8-.5l-.6-.3c-1.6-.8-3-1.9-4.4-3-.7-.6-1.4-1.2-2-1.8-.6-.6-1.5-1.4-2.4-1.9-1.8-1-3.6-1.5-5.5-2-1.8-.5-3.7-.8-5.6-1.1l-1.1-.1v1.1c0 4.1 0 8.1-.1 12.2 0 .5 0 1-.1 1.5l-.1.8V161.2c0 2 .1 4.1-.1 6 0 .2-.1.5-.1.7l-.1.2-.1.3c-.2.4-.4.8-.7 1.2-.6.8-1.2 1.6-1.9 2.3-1.3 1.5-2.7 3-4.2 4.4s-2.9 2.9-4.4 4.2l-2.2 2.1-1.1 1.1-.6.5c-.3-.1-.7-.4-1.1-.7l-1.2-.9c-.8-.6-1.5-1.3-2.2-2-1.5-1.4-2.9-2.8-4.3-4.3s-2.8-2.9-4.1-4.5c-.7-.8-1.4-1.5-1.6-2.3-.2-.8-.1-1.8.3-2.7.3-.9.7-1.9 1.1-2.9.3-1 .5-2.1.3-3.2-.3-2.1-.9-4-1.4-6-.5-1.7-.9-3.3-1.4-5-.1-.3-.2-.6-.2-.9l-.3-1.5c-.1-.5-.1-1-.2-1.5l-.3-1.5-.2-.7-.1-.4-.1-.2v-.2s0-.1-.1-.1c-.4.1-.6.1-.9.2l-.8.2-1.7.4-3.3.8c-2.2.6-4.4 1.1-6.7 1.7-1.1.3-2.2.6-3.3 1-.3.1-.6.2-.8.3-.3.2-.6.4-.8.6-.4.5-.7 1.1-.8 1.7-.3 1.2-.3 2.4-.4 3.5 0 .6-.1 1.1-.2 1.6 0 .1-.1.2-.1.3v.1s-.1.1-.2.1l-.6.6c-3.2 3.3-6.3 6.7-9.2 10.3-.4.5-.7.9-1 1.4-.2.2-.3.5-.5.8-.1.1-.2.3-.2.5v.5c0 .1.1.3.1.3l.1.1c.5.7 1 .9 1.4 1.3l1.4 1c.9.7 1.9 1.4 2.5 2.1.2.2.2.4.3.4v.1c0 .1-.1.2-.1.4-.1.2-.2.5-.3.7 0 .1-.1.2-.2.3v.1c-5.8 1.4-11.7 2.9-17.5 4.6-1.5.4-2.9.9-4.4 1.4l-1.1.4-1.1.5c-.4.2-.9.5-1.1.9-.3.3-.5.6-.8 1-.9 1.4-1.5 2.9-1.8 4.5-.2 1.5-.3 3.2.4 4.7-.2 1.6-.3 3.2-.3 4.8 0 1.7.2 3.3.4 5l1.9 9.5.2 5.7v.8h.8l35.2-.3c11.7-.1 23.5-.2 35.2-.2 11.7 0 23.5 0 35.2.1l35.2.3h.7v-.7l-.2-9.5-.1-4.7v-2.4c.4-.1.4-.8.5-1.6zm-68.7-19.1c1.5-1.4 3-2.8 4.4-4.2 1.5-1.4 2.9-2.9 4.3-4.4.7-.8 1.4-1.6 2-2.4.3-.4.6-.9.9-1.4l.2-.4c0-.1.1-.2.1-.3.3-.3.6-.5.9-.8.8-.7 1.7-1.3 2.6-2 1.7-1.4 3.4-3.2 4.3-5.5.4-1.1.6-2.5.3-3.7-.3-1.2-.8-2.3-1.6-3.2-1.4-1.8-3.3-3.2-5.3-4.1 1.6 1.6 3 3.2 4 5 .5.9.9 1.8 1 2.7.1.9 0 1.8-.3 2.7-.7 1.8-2 3.4-3.5 5-.7.8-1.5 1.6-2.2 2.5l-.1.1c.2-2 .1-3.9.1-5.9v-3.7l.1-.8c0-.5.1-1.1.1-1.6.1-3.7.2-7.4.2-11.1 1.4.2 2.8.5 4.2.8 1.8.4 3.5 1 5 1.8.8.4 1.2.9 1.9 1.6.7.7 1.4 1.3 2.1 1.9.2.2.5.4.7.6.4 1.1.8 2.2 1.1 3.3.4 1.6.7 3.2.6 4.7 0 .4-.1.7-.2 1.1-.1.3-.3.5-.6.9-.5.6-1.1 1.2-1.6 1.9-1.1 1.2-2.1 2.5-3.1 3.9 1.3-1.1 2.5-2.2 3.6-3.3.6-.6 1.2-1.2 1.7-1.8.3-.2.6-.7.8-1.1.2-.4.2-.9.3-1.3.1-1.8-.3-3.4-.9-5-.3-.9-.7-1.8-1.2-2.6 1.1.8 2.2 1.6 3.5 2.2.2.1.4.2.7.3.1.1.3.1.4.2.2.2.4.4.5.7.2.6.3 1.5.4 2.5.1.9.2 1.9.5 2.9.1.5.4 1 .6 1.5 0 .1.1.1.1.1v.3c0 1.2-.2 2.4-.7 3.4-.5 1-1.3 1.9-2.2 2.5-1.9 1.4-4.1 2.6-6.3 3.8l-6.5 3.6c-4.3 2.4-8.7 4.8-12.9 7.5-1.1.7-2.1 1.4-3.1 2.1l-1.5 1.2-.4.4c-.1.1-.2.3-.3.4l-.5.8c-1.2 1.9-2.3 3.9-3.4 5.8-1.4-1.1-2.8-2.2-4.3-3.1.4-.4.8-.8 1.1-1.2.7-.7 1.3-1.4 1.9-2.1.5-.6 1.1-1.3 1.6-2l.4-.3 1.1-1 2.4-2.4zm-2.4 14.5c0 .1 0 .1 0 0zm-2.7-11.7zm-36.2-28.4c.1-.1.1-.2.2-.3.1-.2.1-.4.2-.5.1-.6.1-1.2.2-1.8 0-1.1.1-2.3.3-3.3.1-.5.3-1 .6-1.4.1-.2.3-.3.5-.5.2-.1.5-.2.8-.3 1.1-.4 2.1-.8 3.2-1.1 2.2-.7 4.4-1.3 6.6-1.9l3.3-.9 1.7-.5.8-.2c.2-.1.6-.1.7-.2v.1l.1.2.1.4.2.7c.1.5.2 1 .2 1.5.1.5 0 1 .1 1.5l.3 1.5c.1.3.2.6.2.9-1.8.7-3.6 1.4-5.2 2.3-.9.5-1.8 1.1-2.5 1.9-.7.8-1.4 1.7-1.7 2.7-.3 1-.3 2.2-.1 3.2.1 1 .3 2.1.6 3.1.5 2 1.1 4 1.8 5.9l1.1 2.9c.2.5.3.9.5 1.4.2.6.6 1.1 1 1.4 1.6 1.4 3.4 2.4 5.2 3.4 1.8 1 3.7 1.9 5.5 2.7 1.8.9 3.8 1.6 5.5 2.6-3.4-2.2-7.2-3.9-10.7-6-1.7-1.1-3.5-2.1-5-3.4-.3-.3-.6-.7-.7-1.1-.2-.5-.3-1-.5-1.5l-1.1-2.9c-.7-1.9-1.4-3.8-1.8-5.8l-.6-3c-.2-1-.2-1.9 0-2.9.4-1.9 2-3.3 3.7-4.4 1.6-1 3.3-1.8 5-2.7.4 1.6.8 3.3 1.2 4.9.5 2 1 4 1.2 5.9.3 1.9-.8 3.7-1.5 5.7-.2.6-.4 1.2-.4 1.9l-.6-1.2c-.6-1.1-1.1-2.3-1.5-3.4-.4-1.1-.6-2.2-.6-3.4 0-1.2.1-2.5.2-3.8-.9 1-1.5 2.3-1.8 3.7-.3 1.4-.2 2.9.3 4.3.5 1.3 1.3 2.5 2.1 3.5.6.8 1.3 1.5 2.1 2.1.2.5.4.9.7 1.2.3.4.7.8 1 1.2 1.3 1.6 2.7 3.1 4.1 4.6 1.4 1.5 2.8 3 4.3 4.4.7.7 1.5 1.4 2.3 2.1.4.3.8.7 1.2 1 .4.3.8.6 1.5.9-.2.3-.5.6-.8.9-.6.7-1.2 1.5-1.7 2.3-.3.5-.6.9-.9 1.4l-1.5-.9c-1.1-.6-2.2-1.2-3.5-1.6-1.2-.4-2.3-.7-3.5-1.1-2.3-.7-4.7-1.4-7-2.2-2.3-.8-4.6-1.6-6.6-2.8-.5-.3-1-.6-1.3-.9-.2-.1-.3-.3-.4-.4v-.2l-.1-.5c-.4-1.3-.8-2.4-1.3-3.6-1-2.3-2-4.5-3.1-6.7-.6-1.1-1.1-2.2-1.8-3.3-.3-.6-.6-1-.8-1.6-.2-.5-.4-1.1-.5-1.7-.5-2.2-.7-4.5-1.3-6.7-.1.4 0 .4 0 .3zm-8.6 15.3-1.4-1c-.4-.3-.9-.7-1.1-.9 0-.1 0-.1.1-.2.1-.2.2-.4.4-.7.3-.5.6-.9 1-1.4 2.7-3.6 5.8-7 8.9-10.4l.3-.4c.2 2.2.2 4.4.6 6.6.1.6.2 1.2.4 1.9.2.6.5 1.3.7 1.8l1.5 3.3c1 2.2 1.9 4.5 2.8 6.8.4 1.1.8 2.3 1.1 3.4l.1.4.1.3c0 .1.1.3.2.4.2.4.5.8.8 1 .6.5 1.1.9 1.7 1.2 2.3 1.3 4.6 2.1 7 2.9 2.4.8 4.7 1.4 7.1 2.1l3.6.9c1.1.3 2.2.8 3.2 1.3 2 1 3.9 2.2 5.8 3.5-.2-.1-.5-.1-.7-.2-2.4-.6-4.8-1.1-7.2-1.5-4.8-.8-9.7-1.5-14.6-2.1-2.4-.3-4.9-.5-7.3-.8-.3 0-.6-.1-.8-.1H69.6c-.1 0-.1-.1-.2-.1-.3-.3-.7-.8-1-1.2-.6-1-1.2-2.1-1.7-3.1-.5-1.1-1.1-2.2-1.7-3.3-.7-1.2-1.5-2.1-2.3-3-1.1-1.3-2.3-2.5-3.6-3.7v-.3c-.2-.5-.4-.8-.6-1-1-1.1-1.9-1.7-2.9-2.4zm47.6 48c-11.7-.1-23.5-.1-35.2-.2l-34.5-.3-.1-5v-.2l-1.8-9.6c-.2-1.6-.4-3.1-.4-4.7s.1-3.2.3-4.7v-.3l-.1-.2c-.5-1.1-.6-2.6-.3-3.9.2-1.4.7-2.7 1.5-3.9.2-.3.4-.6.6-.8l.3-.3c.1-.1.2-.1.3-.2l1-.5 1-.4c1.4-.5 2.8-1 4.3-1.4 5.8-1.8 11.7-3.3 17.5-4.8h.2l.1-.1c.3-.2.3-.3.5-.5.1-.1.2-.3.3-.5.2-.3.3-.6.3-.9v-.2c1 1.2 1.9 2.4 2.8 3.6.3.5.7 1 1 1.5l.5.8c.1.2.3.5.4.8l1.5 3.3c.5 1.1 1 2.3 1.7 3.4.3.6.7 1.1 1.3 1.7.2.1.3.3.5.4.1.1.2.1.4.1l.3.1c.4.1.7.1 1 .2 2.5.4 4.9.5 7.4.7 4.9.3 9.8.4 14.6 1 2.4.3 4.8.8 7.2 1.4 1.2.4 2.3.8 3.3 1.4.1.1.2.1.4.2h.1l.2.1c.6.3.6-.9.5-.7 0-.1-.1-.1-.1-.1l-.1-.1-.2-.2-.7-.6c-.4-.4-.9-.8-1.3-1.1 1.4-1.8 2.8-3.5 4.1-5.3l.6-.8.2-.3.3-.3c.5-.4 1-.7 1.5-1 1-.6 2.1-1.3 3.2-1.9l13.1-7.1c2.2-1.2 4.3-2.4 6.5-3.7 2.1-1.3 4.3-2.6 6.3-4.2 1-.8 1.9-1.9 2.4-3.2.4-.9.5-1.9.5-2.8 1.2 1.4 2.6 2.6 3.7 3.8.3.3.6.6.6.8 0 0 0 .3-.1.5-.2.4-.6.9-1.1 1.3-.2.1-.4.1-.6.2-.1 0-.2.1-.4.1-.1 0-.1 0-.2.1-.1 0-.2.1-.3.1-1.2.4-2.1 1-3 1.6-3.7 2.4-7 5.2-10.5 7.6-.9.6-1.7 1.2-2.6 1.7-.4.2-.9.5-1.3.6-.5.2-1.1.3-1.6.5-2.1.8-4.1 1.6-6 2.6-2 1-3.9 2-5.7 3.2-.9.6-1.8 1.2-2.7 1.9-.8.7-1.7 1.5-2.1 2.5.6-.9 1.6-1.5 2.5-2 .9-.6 1.9-1.1 2.8-1.5 1.9-1 3.9-1.8 5.9-2.7 2-.8 4-1.6 6-2.3l1.5-.5c.6-.2 1.2-.5 1.7-.7 1-.6 1.9-1.2 2.8-1.8 3.6-2.6 6.8-5.4 10.2-7.9.6-.4 1.2-.9 1.9-1.2.1.1.1.2.2.3.1.1.2.1.2.1l.1.1c.2.1.3.1.4.2.2.1.5.1.7.2.4.1.9.2 1.4.2h1.2c1.6 0 3.2-.1 4.8-.2 3.2-.2 6.3-.4 9.5-.5 1.6 0 3.1 0 4.6.1 1.6.1 2.6.5 3.6 1.6.9 1 1.6 2.4 2.2 3.8.3.7.5 1.4.7 2.2.1.4.2.7.3 1.1l.3 1.2c.2.8.4 1.6.7 2.4.1.4.3.8.5 1.2.1.2.2.4.2.5 0 .1.1.2.1.4.2 1.4.2 3 .1 4.5-.1 3.1-.5 6.3-.8 9.4-.1.8-.1 1.6-.1 2.4v2.4l.1 4.8.4 8.8-19.9.1c.2-1.6.5-3.1.8-4.7.3-1.7.6-3.4.8-5.1.3-1.7.5-3.4.7-5.1.1-.9.2-1.7.3-2.6l.1-1.3c0-.4.1-.9.1-1.2.2-1.4 1.1-2.9 2-4.2.9-1.4 2-2.7 3.1-4 2.2-2.6 4.6-5.1 7-7.6-2.9 1.9-5.6 4.1-8.1 6.6-1.2 1.2-2.4 2.6-3.5 4-1 1.5-2.1 3-2.4 5.1l-.8 10.4c-.1 1.7-.2 3.5-.3 5.2 0 1.6-.1 3.2.1 4.8l-14.5.1c-12 .1-23.8.1-35.5.1zM47 202.6c-.3-.6-.7-1.4-1.2-2-.2-.3-.5-.6-.8-.9l-.8-.8c-1.1-.9-2.3-1.8-3.6-2.4-1.2-.7-2.6-1.2-3.9-1.7-1.3-.5-2.7-.9-4.1-1 2.5 1.2 4.9 2.6 7.2 4.1 1.1.8 2.2 1.6 3.1 2.5.2.2.5.4.7.7.2.2.4.5.6.7.2.2.3.5.5.8.2.2.3.6.4.9 1.1 2.5 1.9 5.1 2.9 7.7 1 2.6 1.9 5.2 3 7.8-.3-2.8-.9-5.5-1.5-8.2-.6-2.9-1.4-5.6-2.5-8.2z" fill="#333333" stroke-width="none" opacity="1" stroke="none"></path><path id="SvgjsPath22557" d="M110.3 203.4c0-.6-.1-1.3-.3-1.9-.3-1.2-.8-2.4-1.4-3.4-.6-1.1-1.3-2.1-2-3-.8-.9-1.6-1.8-2.5-2.6-.5-.4-.9-.8-1.5-1.1l-.6-.3c.1-.4-.1-.9-.5-1.1-.5-.3-1.1-.1-1.3.4 0 .1-.1.1-.1.2H99c-.7.1-1.3.2-2 .4-1.3.3-2.6.8-3.7 1.5-1.2.7-2.3 1.5-3.2 2.7-.9 1.1-1.4 2.7-1.4 4.1 0 2.3-.9 4.8-2.1 7.1l-.9 1.7c-.3.6-.6 1.2-.7 1.9-.1.4-.1.8.1 1.2.2.4.5.7.8.9.7.3 1.2.5 1.8.8.6.3 1.2.5 1.9.7.7.2 1.4.4 2.2.3.4-.1.9-.2 1.3-.6.4-.3.6-.8.8-1.2.3-.8.3-1.6.3-2.3-.1-2.7-.6-5.2-.8-7.7-.2-1.2-.2-2.4 0-3.5.1-.5.3-1 .6-1.5s.7-.9 1.1-1.4c.8-.9 1.8-1.7 2.8-2.5.5-.4.9-.7 1.4-1.1-.8 1.6-1.5 3.1-2.1 4.8-.4 1.1-.8 2.3-1.1 3.5-.1.6-.2 1.2-.3 1.9-.1.6 0 1.3 0 1.9.1 2.3 0 4.6-.5 6.9-.4 2.3-1.2 4.5-2.3 6.6 1.5-1.9 2.5-4.1 3.2-6.4.7-2.3 1.1-4.7 1.1-7.2 0-.6 0-1.1.1-1.7.1-.5.2-1.1.3-1.6.3-1.1.7-2.2 1.1-3.2.1-.2.2-.4.2-.6v.7c0 2.4.4 4.8.8 7 .4 2.3.9 4.5 1 6.8 0 1.1-.3 2.2-.4 3.3l-.7 3.4 1.2-3.3c.3-1.1.8-2.2.9-3.4.2-2.4-.2-4.7-.4-7s-.6-4.6-.4-6.8c.1-1.8.3-3.6.7-5.4l.9 1.5c.3.5.5 1 .6 1.5.1.5.1 1.1.1 1.6.1 2.3 0 4.6 0 7 0 2.3 0 4.6-.1 7 0 .6 0 1.2.1 1.9.1.6.1 1.3.5 2.1.2.4.8.8 1.2.9.5.1.8 0 1.1-.1.6-.1 1.1-.2 1.6-.2.3 0 .8 0 1.2-.2s.6-.6.7-.9c.2-.7.2-1.3.2-1.9v-3.6c0-1.2.1-2.3.3-3.5.1-.6.2-1.3.2-2zm-11.2-11.9-1.8.9c-1.2.6-2.3 1.3-3.3 2.2-.5.4-1 .9-1.5 1.5s-.8 1.3-1 2c-.4 1.4-.4 2.8-.3 4.2.2 2.7.8 5.2 1.1 7.7.1.6.1 1.1-.1 1.6-.1.4-.3.6-.7.7-.4.1-1 .1-1.6 0-.6-.1-1.2-.3-1.8-.4-.6-.2-1.3-.4-1.8-.6-.5-.2-.7-.6-.7-1.2.2-1.2.9-2.3 1.5-3.4 1.3-2.2 2.9-4.5 3.2-7.3.1-.6.2-1.1.3-1.6.2-.5.5-1 .8-1.5.7-.9 1.6-1.7 2.6-2.4s2.1-1.3 3.3-1.8c.6-.2 1.2-.5 1.8-.7.2-.1.5-.1.7-.2 0 .1-.1.1-.1.1l-.6.2zm10.1 20.8c-.1.6-.2 1.1-.4 1.6-.1.2-.2.4-.4.4-.1.1-.2 0-.5 0-.7-.1-1.3-.1-1.9 0h-.7c-.1-.1-.1 0-.1-.2-.1-.3-.2-.8-.2-1.4 0-.5 0-1.1.1-1.7.2-2.3.4-4.7.3-7.1-.1-2.4-.2-4.7-.6-7.1-.1-.6-.2-1.2-.4-1.8-.1-.3-.2-.5-.3-.7.4.6.8 1.1 1.2 1.8 1.2 1.9 2.3 3.9 3.1 6 .4 1.1.7 2 .6 3.2 0 1.2.1 2.4.2 3.6 0 1.1.1 2.3 0 3.4z" fill="#242424" stroke-width="none" opacity="1" stroke="none"></path><path id="SvgjsPath22558" d="M131.3 152.1c-1.2-3.3-3-2.5-4.6-4.1s-2.9-1.1-5.3-1.9c0 0 2.9 2.1 3.8 2.5s2.8 6.9 2.5 9.5c-.3 2.6-5.6 8.1-7.3 10.6-1.7 2.5-9.1 9.4-12.4 11.8-3.3 2.4-7 8.3-7 8.3s10.8-9.9 13.9-11.2c3-1.3 12.2-10.2 12.6-12.3.4-2.1 4-4.5 5.3-6.3s-.3-3.6-1.5-6.9zm34.9 29.5c1.1 1.7 3-.5 2.2-.9s-1.1-5.8-2.6-6.7-17.8.7-21.8.7-5.6 3.3-11.2 6.2c0 0 5.8-1.3 10-3s10.8-.9 15.3-.7c4.5.2 7 2.7 8.1 4.4zm4.5 19c.4-5.8.8-14.1.8-14.1s-1.4-.4-3.4.4-3.8 2.9-7.7 7.8c0 0 5-2.2 6.9-1.6 1.9.7 1.1 11 1.2 15.7.1 4.8 1.9 8.3 2.6 9.1.8.8-.8-11.5-.4-17.3zm-94.9-23.9c-1.1-1.3-7.1-16.1-7.5-19s.4-8.2.1-8.3c-3.8-1.9-4.6 7.8-.9 13.9 3.7 6.1 5.3 15.1 6.7 16.4 1.4 1.3 21.8 8.6 19.8 7.4-2-1.3-17.2-9.1-18.2-10.4zm-4.6 8.9c-.9-1.4-6.6-11.1-9-12.7-2.4-1.6-5.7-3.4-5.7-3.4 2.4 1.1 9.1 9.9 11.1 13.2s1.2 5.1 2.9 5.4c1.7.3 11.8 2.1 11.8 2.1s-10.2-3.2-11.1-4.6z" fill="#616161" stroke-width="none" opacity="1" stroke="none"></path></g><g id="svga-group-head" transform="matrix(1,0,0,1,0,0)"><g id="svga-group-ears-left-move" transform="matrix(1,0,0,1,0,1)"><g id="svga-group-ears-left" transform="matrix(0.9499998000000001,0,0,0.9499998000000001,2.7928567066604586,4.896159873867788)"><path id="SvgjsPath21827" d="M65.78 91.77s-3.16-4.73-12.23-7.89c0 0-3.02-.66-10.12 10.39 0 0-1.31 5.78 5 15.25 0 0 6.18 3.29 16.3-1.18-.01-.01 4.6-7.5 1.05-16.57z" fill="#eec8b8" stroke-width="none" opacity="1" stroke="none"></path><path id="SvgjsPath21828" d="M64.46 100.36s-5.52-8.22-10.65-11.09c0 0-3.42 2.6-6.31 7.53 0 0 2.89 6.71 4.34 8.49 0 0 3.55 1.37 10.91-.55l1.71-4.38z" fill="#dfab96" stroke-width="none" opacity="1" stroke="none"></path><path id="SvgjsPath21829" d="M43.27 94.23c-.12.71-.12 1.39-.08 2.08.03.69.11 1.37.22 2.05.23 1.36.61 2.68 1.05 3.98.43 1.31 1.01 2.56 1.6 3.8.31.61.64 1.21.97 1.82l1.08 1.76.05.08.08.04c1.35.66 2.75.96 4.17 1.14 1.42.17 2.86.16 4.28.04 1.42-.13 2.83-.43 4.19-.82.69-.18 1.35-.44 2.03-.66l1.97-.8.13-.05.07-.12c.75-1.31 1.22-2.68 1.6-4.09.38-1.4.57-2.85.61-4.3.04-1.44-.04-2.89-.33-4.3-.21-1.42-.66-2.79-1.16-4.13-.73-1.01-1.63-1.86-2.55-2.68-.93-.81-1.92-1.56-2.95-2.24-1.03-.68-2.11-1.29-3.22-1.85-1.11-.56-2.26-1.01-3.42-1.46l-.03-.01h-.02c-.52-.05-.78.08-1.13.18-.32.12-.61.28-.88.45-.55.35-1.05.74-1.53 1.16-.96.83-1.78 1.78-2.56 2.75-1.56 1.95-2.89 4.04-4.24 6.12l-.02.03.02.03zm.31.09a57.62 57.62 0 0 1 2.11-3c.74-.99 1.51-1.94 2.32-2.86.82-.91 1.66-1.8 2.57-2.59.46-.39.94-.76 1.44-1.06.25-.15.51-.28.77-.39.23-.1.56-.17.67-.17l1.68.6 1.69.69c1.12.48 2.22 1.01 3.28 1.61 1.05.61 2.09 1.27 3.04 2.04.95.76 1.86 1.62 2.58 2.59.46 1.34.87 2.71 1.04 4.12.19 1.41.19 2.83.05 4.24-.13 1.41-.44 2.78-.85 4.13a19.68 19.68 0 0 1-1.57 3.71l-1.79.71c-.66.21-1.3.45-1.97.62-1.33.37-2.68.63-4.04.8-1.36.14-2.74.18-4.1.04-1.32-.14-2.67-.42-3.85-.93l-1.05-1.6-1.03-1.75c-.64-1.19-1.26-2.4-1.74-3.66-.5-1.26-.89-2.56-1.14-3.89-.23-1.32-.34-2.71-.11-4z" fill="#dfab96" stroke-width="none" opacity="1" stroke="none"></path><path id="SvgjsPath21830" d="M48.43 94.49c.45-.59.94-1.13 1.41-1.69.98-1.09 1.99-2.13 3.04-3.17l.12-.12.16.12c.88.65 1.69 1.39 2.45 2.18.75.79 1.41 1.67 2.04 2.55 1.23 1.79 2.32 3.68 3.17 5.67l-.08.04c-1.21-1.79-2.43-3.56-3.71-5.27-.64-.85-1.31-1.68-1.98-2.51-.64-.77-1.31-1.53-2.04-2.21-1.07.87-2.05 1.86-2.93 2.92-.88 1.08-1.65 2.25-2.21 3.49.52 1.16 1.05 2.32 1.62 3.45.52 1.01 1.05 2.02 1.66 2.93.66-.58 1.31-1.2 1.92-1.84.7-.76 1.35-1.57 1.77-2.47-.13-.46-.35-.94-.6-1.38-.27-.48-.61-.91-.98-1.33l.06-.07c.45.34.85.75 1.21 1.2.18.22.34.47.48.72.14.26.27.5.38.8l.02.07-.03.09c-.35 1.11-1.03 2.02-1.72 2.88-.7.87-1.47 1.64-2.31 2.38l-.38.34-.3-.41c-.83-1.13-1.41-2.34-1.97-3.55-.56-1.22-1.06-2.45-1.52-3.71l-.05-.15.06-.12c.37-.63.8-1.24 1.24-1.83z" fill="#c0795b" stroke-width="none" opacity="1" stroke="none"></path></g></g><g id="svga-group-ears-right-move" transform="matrix(1,0,0,1,0,1)"><g id="svga-group-ears-right" transform="matrix(0.9499998000000001,0,0,0.9499998000000001,7.207187108052068,4.8966596012084835)"><path id="SvgjsPath21831" d="M134.22 91.77s3.16-4.73 12.23-7.89c0 0 3.02-.66 10.12 10.39 0 0 1.31 5.78-5 15.25 0 0-6.18 3.29-16.3-1.18.01-.01-4.6-7.5-1.05-16.57z" fill="#eec8b8" stroke-width="none" opacity="1" stroke="none"></path><path id="SvgjsPath21832" d="M135.54 100.36s5.52-8.22 10.65-11.09c0 0 3.42 2.6 6.31 7.53 0 0-2.89 6.71-4.34 8.49 0 0-3.55 1.37-10.91-.55l-1.71-4.38z" fill="#dfab96" stroke-width="none" opacity="1" stroke="none"></path><path id="SvgjsPath21833" d="m156.72 94.21-.02-.03c-1.35-2.08-2.67-4.18-4.24-6.12-.78-.97-1.6-1.92-2.56-2.75-.47-.42-.98-.81-1.53-1.16-.28-.17-.57-.33-.88-.45-.35-.1-.61-.23-1.13-.18h-.02l-.03.01c-1.16.44-2.32.89-3.42 1.46-1.11.56-2.19 1.17-3.22 1.85-1.03.68-2.02 1.43-2.95 2.24-.92.82-1.82 1.67-2.55 2.68-.5 1.34-.95 2.71-1.16 4.13-.29 1.41-.37 2.86-.33 4.3.04 1.44.22 2.89.61 4.3.38 1.41.85 2.78 1.6 4.09l.07.12.13.05 1.97.8c.68.22 1.34.48 2.03.66 1.37.39 2.77.69 4.19.82 1.42.12 2.86.13 4.28-.04 1.43-.18 2.82-.48 4.17-1.14l.08-.04.05-.08 1.08-1.76c.33-.61.66-1.21.97-1.82.59-1.24 1.17-2.49 1.6-3.8.44-1.3.83-2.62 1.05-3.98.1-.68.19-1.36.22-2.05.04-.69.04-1.37-.08-2.08l.02-.03zm-.42 4.1c-.24 1.33-.64 2.64-1.14 3.89-.48 1.27-1.1 2.48-1.74 3.66l-1.03 1.75-1.05 1.6c-1.18.51-2.53.79-3.85.93-1.36.14-2.74.11-4.1-.04a26.73 26.73 0 0 1-4.04-.8c-.67-.17-1.31-.42-1.97-.62l-1.79-.71c-.63-1.15-1.18-2.41-1.57-3.71-.41-1.34-.72-2.72-.85-4.13-.14-1.4-.14-2.83.05-4.24.17-1.41.58-2.78 1.04-4.12.72-.97 1.63-1.83 2.58-2.59.95-.77 1.99-1.43 3.04-2.04 1.06-.61 2.16-1.13 3.28-1.61l1.69-.69 1.68-.6c.11 0 .44.07.67.17.26.11.51.24.77.39.5.3.98.67 1.44 1.06.92.79 1.75 1.68 2.57 2.59.81.92 1.59 1.88 2.32 2.86.75.97 1.43 1.98 2.11 3 .24 1.3.13 2.69-.11 4z" fill="#dfab96" stroke-width="none" opacity="1" stroke="none"></path><path id="SvgjsPath21834" d="M151.57 94.49c-.45-.59-.94-1.13-1.41-1.69-.98-1.09-1.99-2.13-3.04-3.17l-.12-.12-.16.12c-.88.65-1.69 1.39-2.45 2.18-.75.79-1.41 1.67-2.04 2.55-1.23 1.79-2.32 3.68-3.17 5.67l.08.04c1.21-1.79 2.43-3.56 3.71-5.27.64-.85 1.31-1.68 1.98-2.51.64-.77 1.31-1.53 2.04-2.21 1.07.87 2.05 1.86 2.93 2.92.88 1.08 1.65 2.25 2.21 3.49-.52 1.16-1.05 2.32-1.62 3.45-.52 1.01-1.05 2.02-1.66 2.93-.66-.58-1.31-1.2-1.92-1.84-.7-.76-1.35-1.57-1.77-2.47.13-.46.35-.94.6-1.38.27-.48.61-.91.98-1.33l-.06-.07c-.45.34-.85.75-1.21 1.2-.18.22-.34.47-.48.72-.14.26-.27.5-.38.8l-.02.07.03.09c.35 1.11 1.03 2.02 1.72 2.88.7.87 1.47 1.64 2.31 2.38l.38.34.3-.41c.83-1.13 1.41-2.34 1.97-3.55.56-1.22 1.06-2.45 1.52-3.71l.05-.15-.06-.12c-.37-.63-.8-1.24-1.24-1.83z" fill="#c0795b" stroke-width="none" opacity="1" stroke="none"></path></g></g><g id="svga-group-faceshape-wrap"><g id="svga-group-faceshape-single"><path id="SvgjsPath21492" d="M135.9 49.8c-6.7-7.4-11.3-13.2-28.8-17.3-1.8-.4-12.3-.4-14.1 0-17.5 4.1-22.1 9.9-28.8 17.3-7.1 7.8-9.5 29-9.5 29 0 9.6 1.3 32.3 13.3 47.2 17.8 22.2 32.1 22.3 32.1 22.3s14.2 0 32.1-22.3c12-14.9 13.3-37.6 13.3-47.2-.1 0-2.5-21.2-9.6-29z" fill="#eec8b8" stroke-width="none" opacity="1" stroke="none"></path><path id="SvgjsPath21493" d="M107.1 32.5c-1.8-.4-12.3-.4-14.1 0-17.5 4.1-22.1 9.9-28.8 17.3-7.1 7.8-9.5 29-9.5 29 0 9.6 1.3 32.3 13.3 47.2 17.8 22.2 32.1 22.3 32.1 22.3s14.2 0 32.1-22.3c12-14.9 13.3-37.6 13.3-47.2 0 0-2.4-21.2-9.5-29-6.9-7.4-11.5-13.2-28.9-17.3zM142 63.8c.7 2.5 1.1 5 1.6 7.5.4 2.5.7 5 1 7.5-.2 7.4-1.3 14.8-3 22-.9 3.6-1.9 7.1-3.3 10.5-.7 1.7-1.4 3.4-2.2 5s-1.7 3.2-2.7 4.7l-1.5 2.2c-.3.4-3.4 4.2-3.4 4.2l-3.7 4.1-6.1 5.7c-2.8 2.3-5.8 4.5-9 6.2l-1.2.6-1.2.6c-.8.4-1.6.7-2.5 1l-1.3.4c-.4.1-.8.2-1.3.3-.4.1-1.71.43-2.9.4 0 0-1.4-.2-1.9-.3-.4-.1-.9-.2-1.3-.3l-1.3-.4c-.8-.3-1.7-.6-2.5-1l-1.2-.5-1.2-.6c-3.2-1.6-6.3-3.7-9.1-6l-4.1-3.6-3.9-3.9-1-1-.9-1-1.8-2.1c-1.2-1.4-2.3-2.8-3.3-4.4-1-1.5-2-3.1-2.8-4.8-.8-1.6-1.6-3.3-2.3-5.1-.7-1.7-1.3-3.5-1.8-5.3s-1-3.6-1.4-5.4-.8-3.6-1-5.5c-.3-1.8-.5-3.7-.7-5.5-.4-3.7-.5-7.4-.5-11.1.3-2.3.8-4.6 1.2-6.9.5-2.3 1.1-4.6 1.7-6.8.7-2.2 1.4-4.5 2.3-6.6.4-1.1.9-2.1 1.4-3.1s2.59-4.47 6.3-8.1c1.6-1.7 3.3-3.3 5-4.7 3.5-2.8 7.7-4.9 12-6.5l1.6-.6c6.69-2.31 10.6-2.2 11.8-2.3 2.3-.1 4.71-.26 7-.1 3.16.22 6.8 1.4 6.8 1.4 2.3.6 4.5 1.3 6.7 2.3.3.1 1.6.7 1.6.7.5.3 2.6 1.3 3.1 1.7.5.3 5.3 3.7 6.9 5.4 1.7 1.7 3.3 3.4 4.9 5.2 1.7 1.9 2.9 4.2 3.9 6.6 1.1 2.4 1.9 4.8 2.5 7.3z" fill="#c0795b" stroke-width="none" opacity="1" stroke="none"></path></g></g><g id="svga-group-mouth-single-move" transform="matrix(1,0,0,1,0,0)"><g id="svga-group-mouth-single"><path id="SvgjsPath21604" d="M112.5 129.4s-.4 1.1-2.8 1.2-7.4-1.5-10.9-1.4-9.4 1.5-10.9-.7c0 0-2.3-2.8.4-6.4s9.7-2.1 15-1 12.3 3.1 9.2 8.3z" fill="#9e5d65" stroke-width="none" opacity="1" stroke="none"></path><path id="SvgjsPath21605" d="M112.5 129.4c-.3.5-.8.8-1.3 1-.5.2-1 .2-1.6.3-1.1 0-2.1-.2-3.2-.4-2.1-.4-4.2-.8-6.3-.9-1.1-.1-2.1 0-3.2.1s-2.1.2-3.2.4c-1.1.1-2.1.2-3.2.1-.5 0-1.1-.1-1.6-.3-.5-.2-1.1-.5-1.4-1-1-1.3-1.2-3.2-.7-4.7.3-.8.7-1.5 1.2-2.1.5-.7 1.2-1.2 1.9-1.5 1.5-.7 3.2-.8 4.7-.8 1.6 0 3.2.2 4.7.5s3.1.6 4.6 1c1.5.4 3.1.8 4.5 1.4.7.3 1.4.6 2.1 1.1.7.4 1.3.9 1.8 1.6.2.3.4.7.6 1.1.1.4.2.8.1 1.2.2.5-.1 1.2-.5 1.9zm-.1 0c.4-.7.7-1.4.7-2.2 0-.4 0-.8-.2-1.1s-.3-.7-.6-1c-.5-.6-1.1-1-1.8-1.4-.7-.4-1.4-.7-2.1-.9-1.5-.5-3-.8-4.5-1.2-1.5-.3-3.1-.6-4.6-.9-1.5-.2-3.1-.5-4.6-.5-1.5 0-3.1.1-4.4.7-.7.3-1.3.7-1.7 1.3-.4.6-.9 1.2-1.1 1.9-.2.7-.3 1.4-.2 2.2.1.7.4 1.5.8 2 .3.4.7.6 1.2.8.5.2 1 .2 1.5.3 1 .1 2.1 0 3.1-.1s2.1-.2 3.2-.3 2.1-.1 3.2 0c2.1.2 4.2.7 6.3 1.1 1 .2 2.1.4 3.1.4.5 0 1.1-.1 1.6-.3.4-.1.9-.4 1.1-.8z" fill="#96515a" stroke-width="none" opacity="1" stroke="none"></path><path id="SvgjsPath21606" d="M85.2 124.9c1 .9 2.3 1.2 3.6 1.2 1.3 0 2.6-.2 3.8-.6l.9-.3c.3-.1.7-.2 1.1-.2.8.1 1.5.5 2 .8 1.1.8 2.2 1.4 3.4 1.5 1.2.2 2.4-.2 3.6-.7.3-.1.7-.3 1.1-.3.4 0 .8 0 1.2.2.4.2.6.3.9.5.3.2.6.3.9.4 2.3 1.1 5.1 1.5 7.5.3-1.1.7-2.5 1.1-3.8 1.1-1.4 0-2.7-.3-4-.8-.3-.1-.6-.2-.9-.4-.3-.1-.6-.3-.8-.4-.2-.1-.5-.1-.8-.1-.3 0-.4.1-.8.3-1.2.6-2.7.9-4.1.8-1.4-.1-2.7-.9-3.8-1.7-.5-.4-1.1-.7-1.6-.8-.4 0-1.2.2-1.8.4-1.3.3-2.7.4-4 .3-1.4 0-2.8-.4-3.6-1.5z" fill="#7f323b" stroke-width="none" opacity="1" stroke="none"></path></g></g><g id="svga-group-eyes-left-move" transform="matrix(1,0,0,1,0,2)"><g id="svga-group-eyes-left"><g id="svga-group-eyesback-left"><path id="SvgjsPath21957" d="M80.2 77.2c7.5 0 13.5 5.8 13.5 13s-6 13-13.5 13-13.5-5.8-13.5-13 6-13 13.5-13z" fill="#ffffff" stroke-width="none" opacity="1"></path></g><g id="svga-group-eyesiriswrapper-left" transform="matrix(1,0,0,1,0,0)"><g id="svga-group-eyesiriscontrol-left" transform="matrix(1,0,0,1,0,0)"><g id="svga-group-eyesiris-left"><path id="SvgjsPath21999" d="M80.2 84.9c2.9 0 5.3 2.4 5.3 5.3s-2.4 5.3-5.3 5.3-5.3-2.4-5.3-5.3 2.4-5.3 5.3-5.3z" fill="#90b57a" stroke-width="none" opacity="1" stroke="none"></path><path id="SvgjsPath22000" d="M80.2 95.8c-3.1 0-5.6-2.5-5.6-5.6s2.5-5.6 5.6-5.6 5.6 2.5 5.6 5.6c0 3.1-2.5 5.6-5.6 5.6zm0-10.6c-2.8 0-5.1 2.3-5.1 5.1s2.3 5.1 5.1 5.1 5.1-2.3 5.1-5.1c-.1-2.9-2.3-5.1-5.1-5.1z" fill="#659647" stroke-width="none" opacity="1" stroke="none"></path><path id="SvgjsPath22001" d="M85.3 90.2c-.7 0-1.3-.1-2 0 0-.3 0-.6-.1-.8.8-.1 1.5-.3 2.2-.6.2-.1.1-.3-.1-.3-.7.2-1.5.4-2.2.7 0-.1-.1-.2-.1-.3.3-.1.6-.3.9-.4.4-.2.8-.3 1.1-.4.1-.1.1-.3-.1-.2-.7.1-1.5.4-2.1.9 0-.1-.1-.1-.1-.2.2-.2.5-.3.7-.5.3-.3.7-.5 1-.8.1-.1 0-.3-.2-.2-.3.3-.7.6-1 .8-.2.2-.4.3-.7.5l-.3-.3c.5-.6.9-1.3 1.3-1.9.1-.1-.1-.2-.2-.1-.5.6-1 1.2-1.4 1.9-.1-.1-.2-.1-.3-.2.2-.8.3-1.6.3-2.3 0-.2-.3-.2-.3 0-.1.6-.2 1.1-.3 1.7 0 .2-.1.3-.1.5-.2-.1-.4-.1-.6-.1 0-.8-.1-1.5-.3-2.2 0-.1-.1 0-.1 0-.1.7-.1 1.4-.1 2.2h-.4c0-.2-.1-.4-.1-.6-.1-.5-.1-1-.2-1.4 0-.1-.2-.1-.2 0-.1.6 0 1.4.2 2.1-.1 0-.2 0-.2.1-.2-.7-.4-1.5-.7-2.1 0-.1-.2-.1-.2.1.1.7.3 1.5.6 2.2 0 0-.1 0-.1.1-.3-.7-.9-1.3-1.3-1.9-.1-.1-.2 0-.1.1.4.7.7 1.4 1.2 2-.1.1-.2.1-.2.2-.1-.1-.2-.3-.3-.4-.3-.4-.7-.9-1.1-1.2-.1-.1-.2 0-.2.1.2.4.6.8.9 1.2.1.2.3.4.4.5l-.4.4c-.6-.5-1.2-.9-1.8-1.2-.1 0-.1.1-.1.1.5.5 1.1 1 1.7 1.4-.1.2-.2.3-.3.5-.1 0-.2-.1-.3-.1-.6-.2-1.2-.5-1.8-.7-.2-.1-.2.2-.1.2.5.3 1.1.5 1.6.7.2.1.3.2.5.2 0 .1 0 .2-.1.3-.2 0-.3-.1-.5-.1-.5-.1-1.1-.2-1.7-.1-.1 0-.1.2 0 .2.6.2 1.4.3 2.1.4v.5c-.3.1-.6.2-.9.4-.4.2-.8.2-1.2.5-.1.1-.1.3.1.3.5 0 .9-.2 1.4-.4.2-.1.5-.2.7-.3 0 .2.1.3.1.5-.1.1-.2.1-.3.2-.5.3-1 .6-1.5 1-.1.1 0 .3.2.2.6-.3 1.1-.7 1.6-1 .1 0 .1-.1.2-.1.1.1.2.3.3.4-.6.5-1 1.1-1.5 1.6-.1.1 0 .2.1.1.5-.4 1.1-.9 1.6-1.4l.3.3c-.2.2-.3.4-.4.6-.3.4-.7.9-.9 1.3-.1.1.1.2.2.1.3-.4.7-.8 1-1.2.2-.2.3-.4.5-.6.1 0 .1.1.2.1-.1.2-.2.3-.2.4-.2.5-.5.9-.7 1.4 0-.8.2-.7.3-.8.3-.4.5-1 .8-1.5.1-.1.1-.3.2-.4h.1c-.3.7-.5 1.4-.6 2.2 0 .1.2.1.2 0 .2-.7.5-1.4.7-2.1.1 0 .2 0 .3.1-.2.7-.2 1.6-.3 2.3 0 .2.3.2.3 0 0-.8.2-1.5.2-2.3h.2c-.1.7-.1 1.5 0 2.2 0 .2.3.2.3 0-.1-.7 0-1.5-.1-2.2.2 0 .4-.1.7-.2.1.3.3.7.4 1 .2.3.3.8.6 1 .1 0 .1 0 .1-.1 0-.3-.2-.7-.4-1-.2-.3-.3-.7-.5-1 .1 0 .1-.1.2-.1.1.3.3.6.5.9s.3.8.6 1c.1.1.2 0 .2-.1-.1-.4-.4-.8-.6-1.1-.2-.3-.3-.6-.5-.8.1-.1.2-.1.3-.2.4.6.8 1.2 1.3 1.7.2.2.4-.1.2-.2-.5-.5-.9-1.1-1.4-1.6.2-.2.4-.4.5-.6.6.4 1.2.9 1.8 1.3.1.1.3-.1.2-.2-.6-.5-1.2-.9-1.8-1.2 0-.1.1-.1.1-.2.6.4 1.3.7 1.9.9.2.1.2-.2.1-.2-.6-.3-1.3-.7-2-.9.1-.2.2-.5.2-.8.7.1 1.4.1 2 .1.5 0 .5-.5.2-.5z" fill="#659647" stroke-width="none" opacity="1" stroke="none"></path><path id="SvgjsPath22002" d="M80.2 87.3c1.6 0 2.9 1.3 2.9 2.9s-1.3 2.9-2.9 2.9-2.9-1.3-2.9-2.9 1.3-2.9 2.9-2.9z" fill="#000000" stroke-width="none" opacity="1"></path><path id="SvgjsPath22003" d="M78.6 87.7c.6 0 1.1.5 1.1 1.1s-.5 1.2-1.1 1.2-1.1-.5-1.1-1.1.5-1.2 1.1-1.2zm3.5 4.1c.3 0 .6.3.6.6s-.2.6-.6.6-.6-.3-.6-.6.3-.6.6-.6z" fill="#ffffff" stroke-width="none" opacity="1"></path></g></g></g><g id="svga-group-eyesfront-left"><path id="SvgjsPath21965" d="M80.2 76.7c-7.8 0-14.1 6.1-14.1 13.6s6.3 13.6 14.1 13.6 14.1-6.1 14.1-13.6S88 76.7 80.2 76.7zm0 20.5c-5.5 0-10.7-2.6-10.8-3.5s.9-3.9 3.2-6.4 8-3.3 12.8-1.4 5.9 7.5 5.9 7.5c.1 1.7-5.6 3.8-11.1 3.8z" fill="#eec8b8" stroke-width="none" opacity="1" stroke="none"></path><path id="SvgjsPath21966" d="m90.2 90.3-.9-1.5c-1-1.5-2.4-2.8-4.2-3.7-2.2-1.1-4.8-1.4-7.2-1-1.2.2-2.4.6-3.5 1.1-1 .5-2 1.2-2.8 2.1h-.1c-.7-.4-1.4-.5-2-1-.6-.5-1-1.1-1.3-1.8-.1-.2-.5-.1-.5.1.1.9.5 1.7 1.1 2.3.5.5 1.3 1.2 2.1 1.3-.1.2-.3.4-.4.6-.7-.2-1.5-.1-2.2-.3-1.1-.3-1.8-1.1-2.6-1.9-.2-.2-.5 0-.4.2.4 1.1 1.3 1.8 2.4 2.3.6.3 1.5.7 2.3.7-.1.2-.2.5-.3.8h-.1c-.8 0-1.6.4-2.4.3-1.2.1-2.2-.6-2.8-1.5-.2-.2-.5 0-.4.2.9 1.4 3.6 2.9 5.4 2.2 0 .2-.1.4-.1.6-.1.3-.2.7-.2 1.1v.2c0 .1.1.2.1.3l.3.3.1.1c-1.1-.1-2.5.9-2.7 1.8 0 .2.2.4.4.3.4-.3.8-.7 1.2-.9.4-.2 1.3-.5 1.8-.7.1.1.2.1.3.2-.4.1-.7.4-1 .7-.4.5-.5 1.1-.4 1.7.1.2.4.2.4-.1 0-.5.3-.9.6-1.2.3-.3.8-.4 1.1-.7.1.1.2.1.4.2 2.1.9 4.4 1.5 6.8 1.7 2.4.2 4.7-.1 7-.7 1.1-.3 2.2-.7 3.3-1.1.5-.2 1-.5 1.5-.8.2-.2.4-.3.6-.6s.3-.5.3-.8c-.1-1-.5-2.1-1-3.1zm.8 3.9c-.2.2-.4.4-.6.5-.5.3-1 .6-1.5.8-1.1.4-2.2.7-3.3.9-2.3.4-4.6.6-6.8.4-2.3-.2-4.5-.8-6.6-1.6-.5-.2-1-.5-1.5-.7-.2-.1-.5-.3-.7-.5-.1-.1-.2-.2-.2-.3 0 0 0-.1-.1-.1v-.2c0-.4.1-.8.2-1.1.7-1.5 1.6-2.9 2.8-4 1.5-1.4 3.6-2.2 5.7-2.6 2.1-.4 4.3-.2 6.3.6 1.8.7 3.5 1.8 4.9 3.2.8 1.2 1.5 2.5 1.8 3.9-.1.3-.2.6-.4.8z" fill="#590000" stroke-width="none" opacity="1" stroke="none"></path></g></g></g><g id="svga-group-eyes-right-move" transform="matrix(1,0,0,1,0,2)"><g id="svga-group-eyes-right"><g id="svga-group-eyesback-right"><path id="SvgjsPath21958" d="M119.8 77.2c7.5 0 13.5 5.8 13.5 13s-6 13-13.5 13-13.5-5.8-13.5-13 6-13 13.5-13z" fill="#ffffff" stroke-width="none" opacity="1"></path></g><g id="svga-group-eyesiriswrapper-right" transform="matrix(1,0,0,1,0,0)"><g id="svga-group-eyesiriscontrol-right" transform="matrix(1,0,0,1,0,0)"><g id="svga-group-eyesiris-right"><path id="SvgjsPath22004" d="M119.8 85.5c2.6 0 4.7 2.1 4.7 4.7s-2.1 4.7-4.7 4.7-4.7-2.1-4.7-4.7 2.1-4.7 4.7-4.7z" fill="#90b57a" stroke-width="none" opacity="1" stroke="none"></path><path id="SvgjsPath22005" d="M119.8 95.1c-2.7 0-4.9-2.2-4.9-4.9s2.2-4.9 4.9-4.9 4.9 2.2 4.9 4.9-2.2 4.9-4.9 4.9zm0-9.3c-2.4 0-4.4 2-4.4 4.4s2 4.4 4.4 4.4 4.4-2 4.4-4.4c0-2.4-2-4.4-4.4-4.4z" fill="#659647" stroke-width="none" opacity="1" stroke="none"></path><path id="SvgjsPath22006" d="M124.2 90.2c-.6 0-1.2-.1-1.8 0 0-.2 0-.5-.1-.7.7-.1 1.3-.3 2-.5.2-.1.1-.3-.1-.3-.7.1-1.3.3-2 .6 0-.1-.1-.2-.1-.3.3-.1.5-.2.8-.3.3-.1.7-.2 1-.4.1-.1.1-.2-.1-.2-.6.1-1.3.4-1.8.8 0-.1-.1-.1-.1-.2.2-.1.4-.3.6-.4.3-.2.6-.4.9-.7.1-.1 0-.3-.2-.2-.3.2-.6.5-.9.7-.2.1-.4.3-.6.4l-.3-.3c.4-.5.8-1.1 1.1-1.7 0-.1-.1-.2-.1-.1-.4.5-.9 1.1-1.2 1.6-.1-.1-.2-.1-.3-.2.2-.7.2-1.4.2-2 0-.1-.2-.2-.3 0-.1.5-.1 1-.2 1.5 0 .1-.1.3-.1.4-.2-.1-.3-.1-.5-.1 0-.7-.1-1.3-.2-1.9 0-.1-.1 0-.1 0-.1.6-.1 1.3-.1 1.9h-.4c0-.2-.1-.3-.1-.5-.1-.4-.1-.8-.2-1.3 0-.1-.2-.1-.2 0-.1.5 0 1.2.2 1.8-.1 0-.1 0-.2.1-.2-.6-.4-1.3-.6-1.9 0-.1-.2-.1-.2 0 .1.6.3 1.3.5 1.9h-.1c-.3-.6-.8-1.2-1.2-1.7-.1-.1-.2 0-.1.1.3.6.7 1.2 1.1 1.7-.1 0-.2.1-.2.1-.1-.1-.2-.2-.3-.4-.3-.4-.6-.8-1-1.1-.1-.1-.2 0-.1.1.2.4.5.7.8 1.1.1.2.2.3.4.5l-.3.3c-.5-.4-1.1-.8-1.6-1.1-.1 0-.1 0-.1.1l1.5 1.2c-.1.1-.2.3-.2.4-.1 0-.2-.1-.3-.1-.5-.2-1-.4-1.6-.6-.1 0-.2.2-.1.2.4.2.9.4 1.4.6.1.1.3.1.4.2 0 .1 0 .2-.1.2-.2 0-.3 0-.4-.1-.5-.1-1-.2-1.4-.1-.1 0-.1.1 0 .2.5.2 1.2.3 1.9.3v.4c-.3.1-.5.2-.8.3-.3.1-.7.2-1 .4-.1.1-.1.2.1.2.4 0 .8-.2 1.2-.4l.6-.3c0 .1.1.3.1.4-.1.1-.2.1-.3.2-.4.3-.9.6-1.3.9-.1.1 0 .2.1.2.5-.2.9-.6 1.4-.9.1 0 .1-.1.2-.1.1.1.1.2.2.3-.5.4-.9.9-1.3 1.4-.1.1 0 .2.1.1.5-.4 1-.8 1.4-1.3l.3.3c-.1.2-.3.3-.4.5-.3.4-.6.8-.8 1.2-.1.1.1.2.2.1.3-.3.6-.7.9-1.1.1-.2.3-.3.4-.5.1 0 .1.1.1.1-.1.1-.1.3-.2.4-.2.4-.4.8-.6 1.3 0 .1.1.2.2.1.3-.4.5-.8.7-1.3.1-.1.1-.2.2-.3h.1c-.3.6-.5 1.3-.5 1.9 0 .1.1.1.2 0 .2-.6.4-1.2.7-1.8h.3c-.2.6-.2 1.4-.2 2 0 .2.3.2.3 0 0-.7.2-1.3.2-2h.2c-.1.6-.1 1.3 0 1.9 0 .2.3.2.3 0-.1-.6 0-1.3-.1-1.9.2 0 .4-.1.6-.1.1.3.2.6.4.9.1.3.2.7.5.9.1 0 .1 0 .1-.1 0-.3-.2-.6-.3-.9-.1-.3-.3-.6-.4-.9.1 0 .1-.1.2-.1.1.3.3.5.4.8.2.3.3.7.6.9.1.1.2 0 .2-.1-.1-.3-.3-.7-.5-.9-.2-.2-.3-.5-.5-.7.1-.1.2-.1.3-.2.3.6.7 1.1 1.1 1.5.1.1.3-.1.2-.2-.4-.5-.8-.9-1.2-1.4.2-.2.3-.3.4-.5.5.4 1 .8 1.6 1.1.1.1.2-.1.2-.2-.5-.4-1-.8-1.6-1.1 0-.1.1-.1.1-.2.5.3 1.2.6 1.7.8.1.1.2-.2.1-.2-.5-.3-1.1-.6-1.7-.8.1-.2.1-.4.2-.7.6.1 1.2.1 1.8.1 0 .4 0 0-.3 0z" fill="#659647" stroke-width="none" opacity="1" stroke="none"></path><path id="SvgjsPath22007" d="M119.8 87.7c1.4 0 2.5 1.1 2.5 2.5s-1.1 2.5-2.5 2.5-2.5-1.1-2.5-2.5 1.1-2.5 2.5-2.5z" fill="#000000" stroke-width="none" opacity="1"></path><path id="SvgjsPath22008" d="M118.4 88c.5 0 1 .4 1 1s-.4 1-1 1-1-.4-1-1 .4-1 1-1zm3.1 3.6c.3 0 .5.2.5.5s-.2.5-.5.5-.5-.2-.5-.5.2-.5.5-.5z" fill="#ffffff" stroke-width="none" opacity="1"></path></g></g></g><g id="svga-group-eyesfront-right"><path id="SvgjsPath21967" d="M119.8 76.7c-7.8 0-14.1 6.1-14.1 13.6s6.3 13.6 14.1 13.6 14.1-6.1 14.1-13.6-6.3-13.6-14.1-13.6zm0 19.4c-5.5 0-11.3-1.9-11.1-3.4 0 0 1.2-5.1 5.9-6.9 4.8-1.8 9.7-.7 12 1.6s4.2 4.8 4 5.6c-.2.8-5.4 3.1-10.8 3.1z" fill="#eec8b8" stroke-width="none" opacity="1" stroke="none"></path><path id="SvgjsPath21970" d="M134.7 89.1c-1.1 1.2-2.9 2.1-4.6 2-.1-.1-.2-.2-.2-.3-.1-.1-.1-.2-.2-.3.7.1 1.6-.4 2.1-.8.7-.6 1.2-1.2 1.4-2.1 0-.3-.3-.4-.4-.2-.4.6-.9 1.3-1.5 1.7-.5.3-1.4.3-1.9.6v-.1l-.9-1.2c.4-.1.8-.2 1.1-.4.8-.4 1.4-1 1.6-1.8.1-.3-.3-.4-.5-.2-.4.6-.9 1.1-1.6 1.4-.4.2-.9.2-1.3.2-.1-.1-.1-.2-.2-.2l-.3-.3-.4-.3-.9-.8-.8-.5-.4-.2-.4-.2c-.3-.1-.6-.3-.9-.4-1.2-.4-2.5-.6-3.8-.7-2.6 0-5.2.6-7.3 2.2-2 1.6-3.2 3.8-3.6 6.2 0 .1-.1.2-.1.2 0 .3.1.6.3.8.2.2.4.4.7.5.5.3 1 .5 1.5.8 1 .4 2.1.8 3.2 1 2.2.5 4.4.8 6.6.7 1.8-.1 3.6-.4 5.4-1 .3.3.6.7.8 1.1.2.4.2.8.4 1.1.1.2.4.2.5-.1.3-.8-.3-1.8-.9-2.4.1 0 .3-.1.4-.1.4-.2.8-.3 1.2-.5.5.2.9.5 1.3.9.3.4.4.9.8 1.2.1.1.4.1.4-.1.3-.6-.1-1.3-.6-1.8-.4-.3-.8-.6-1.2-.7.4-.2.8-.4 1.2-.7l.3-.3c.1-.1.1-.2.1-.3v-.3c0-.2-.1-.3-.2-.5 1.8.3 4.2-.8 4.5-2.8-.3 0-.5-.2-.7 0zm-4.3 3.7c0 .1 0 .1 0 0-.1.2-.2.2-.3.3-.8.6-1.9 1-2.9 1.4-2.1.7-4.2 1.1-6.4 1.3-2.2.1-4.4-.1-6.5-.4-1.1-.2-2.2-.4-3.2-.8-.5-.2-1-.4-1.5-.7-.2-.1-.5-.3-.7-.5-.2-.2-.3-.4-.3-.7 0-.1 0-.1.1-.2 1-2.1 2.5-4 4.3-5.1.9-.6 2-1 3.1-1.2 1.1-.3 2.2-.4 3.4-.4 1.1 0 2.2.2 3.3.5.3.1.5.2.8.3l.4.1.4.2.8.4.7.5c.5.3.9.7 1.4 1.1l1.2 1.2 1.1 1.4c.2.4.5.8.7 1.1v.2h.1z" fill="#590000" stroke-width="none" opacity="1" stroke="none"></path></g></g></g><g id="svga-group-facehighlight-single"></g><g id="svga-group-eyebrows-left-move" transform="matrix(1,0,0,1,0,2)"><g id="svga-group-eyebrows-left-rotate" transform="matrix(1,1.745329158975295e-9,-1.745329158975295e-9,1,0.632301880899945,-0.026083245780526454)"><g id="svga-group-eyebrows-left" transform="matrix(1.0500002000000002,0,0,1.0500002000000002,-3.919515838217933,-3.865077983138292)"><path id="SvgjsPath22201" d="M64.55 76.13s7.64-5.4 8.86-5.62 19.49 3.09 19.95 4.12c.46 1.03-.07 3.12-1.4 3.76-1.33.64-12.63-3.98-17.91-5.17-2-.45-9.5 2.91-9.5 2.91z" fill="#eae2cd" stroke-width="none" opacity="1" stroke="none"></path><path id="SvgjsPath22202" d="M64.52 76.15c.01.02.08.01.08 0l.03-.01.06-.02.12-.05.23-.09.47-.18.94-.35c.63-.23 1.26-.45 1.89-.67 1.26-.44 2.54-.84 3.83-1.12.32-.07.64-.12.96-.16.32-.03.63-.04.89.02.64.16 1.28.34 1.92.54 1.27.39 2.55.8 3.81 1.23 2.54.85 5.07 1.71 7.65 2.49.64.19 1.29.39 1.95.55.66.16 1.32.33 2.04.38.19 0 .37.02.62-.06l.09-.03.06-.04.12-.07c.08-.04.15-.1.23-.16.29-.23.51-.51.69-.8.34-.59.52-1.24.53-1.9 0-.33-.03-.67-.16-.99-.02-.05-.02-.07-.06-.13-.04-.07-.09-.09-.13-.13-.08-.06-.16-.1-.24-.14-.16-.08-.32-.13-.48-.19-.65-.22-1.3-.39-1.95-.55-1.31-.33-2.62-.61-3.94-.9-2.63-.58-5.25-1.18-7.9-1.68-1.33-.24-2.66-.47-4.01-.63-.34-.04-.68-.08-1.03-.09-.09 0-.18-.01-.28-.01-.05 0-.1 0-.17.01-.06.01-.1.03-.15.04-.21.06-.36.14-.52.22-.62.32-1.18.67-1.74 1.02-1.12.71-2.19 1.48-3.27 2.24-.54.38-1.07.77-1.59 1.17l-.79.59-.39.3-.19.15-.1.08c-.05.01-.1.08-.12.12zm.92-.49-.34.16.32-.2.83-.53 1.67-1.06c1.11-.71 2.23-1.41 3.36-2.09.56-.34 1.14-.67 1.71-.95l.21-.1c.07-.04.13-.04.19-.07l.09-.03h.08c.07 0 .15 0 .23.01.32.02.65.06.98.1 1.32.18 2.65.38 3.98.59 1.33.2 2.66.4 3.99.62 1.33.22 2.65.45 3.97.72 1.32.27 2.63.57 3.92.92.65.17 1.29.36 1.9.6.15.06.3.12.44.19.07.04.13.07.18.11.02.02.05.04.04.04.01 0 .02.06.03.08.09.27.11.57.09.87a3.7 3.7 0 0 1-.57 1.69c-.17.25-.37.47-.6.64-.06.04-.12.09-.18.12l-.09.05-.05.03h-.03c-.07.03-.24.02-.38.01-.62-.06-1.27-.24-1.91-.42-.64-.18-1.28-.38-1.91-.58-2.54-.82-5.05-1.74-7.61-2.57-1.28-.41-2.56-.82-3.86-1.17-.65-.18-1.31-.35-1.98-.49-.4-.09-.77-.05-1.12 0-.35.05-.69.12-1.02.2-1.33.34-2.58.82-3.83 1.32-.62.25-1.23.52-1.84.79l-.89.4z" fill="#dbcdaa" stroke-width="none" opacity="1" stroke="none"></path></g></g></g><g id="svga-group-eyebrows-right-move" transform="matrix(1,0,0,1,0,2)"><g id="svga-group-eyebrows-right-rotate" transform="matrix(0.9999999999999998,1.745329158975295e-9,-1.745329158975295e-9,0.9999999999999998,0.49943033434895767,0.15295839690068647)"><g id="svga-group-eyebrows-right" transform="matrix(1.0500002000000002,0,0,1.0500002000000002,-6.115274666994509,-3.9094116184189005)"><path id="SvgjsPath22203" d="M135.56 80.74s-6.82-5.75-7.95-6.03c-1.13-.28-18.27 2.16-18.75 3.17-.48 1.01-.1 3.12 1.11 3.82s11.94-3.37 16.91-4.31c1.88-.36 8.68 3.35 8.68 3.35z" fill="#eae2cd" stroke-width="none" opacity="1" stroke="none"></path><path id="SvgjsPath22204" d="m135.5 80.64-.09-.08-.17-.16-.35-.32-.7-.63c-.47-.42-.94-.84-1.42-1.24-.96-.81-1.92-1.62-2.93-2.39-.5-.38-1.01-.76-1.56-1.1-.14-.08-.28-.17-.47-.24-.05-.02-.09-.04-.14-.05-.06-.01-.12-.02-.16-.02-.09-.01-.18-.01-.26-.01-.33 0-.64.02-.96.05-1.26.1-2.51.26-3.76.44-2.49.37-4.96.85-7.43 1.3-1.24.23-2.47.45-3.7.72-.61.14-1.23.28-1.84.46-.15.05-.31.1-.46.17-.08.03-.15.07-.23.13-.04.04-.08.06-.13.12-.04.06-.04.09-.06.13-.13.32-.18.65-.2.98-.02.66.12 1.32.4 1.93.15.3.34.59.6.83.06.06.13.12.2.17l.11.08.06.04.08.04c.23.09.39.08.57.09.68-.02 1.29-.15 1.92-.28.62-.13 1.23-.3 1.84-.46 2.43-.66 4.83-1.4 7.24-2.13 1.2-.37 2.4-.72 3.6-1.05.6-.16 1.21-.32 1.81-.44.24-.06.54-.03.83.02.29.05.59.12.89.21 1.18.35 2.35.81 3.5 1.3.57.25 1.15.5 1.72.76l.85.4.43.2.21.1.11.05.05.03.03.01c-.01 0 .06.02.07 0a.339.339 0 0 0-.1-.16zm-1.56-.86c-.55-.3-1.11-.6-1.67-.88-1.13-.55-2.27-1.1-3.49-1.5-.31-.1-.62-.18-.94-.25-.32-.06-.67-.11-1.04-.05-.63.11-1.25.25-1.86.39-1.23.29-2.44.64-3.65.99-2.41.71-4.8 1.5-7.2 2.21-.6.17-1.2.34-1.81.49-.6.15-1.21.29-1.79.33-.13.01-.29 0-.36-.03l-.03-.01-.04-.03-.08-.06a.653.653 0 0 1-.16-.13c-.21-.18-.39-.41-.53-.67a3.91 3.91 0 0 1-.44-1.71c0-.3.03-.6.13-.86.01-.03.03-.08.03-.08l.04-.04c.05-.04.11-.07.18-.1.13-.07.28-.12.42-.17.58-.21 1.19-.36 1.8-.5 1.22-.29 2.45-.53 3.69-.73 1.24-.21 2.48-.37 3.73-.53 1.25-.16 2.49-.3 3.74-.43 1.25-.14 2.49-.28 3.73-.4.31-.03.62-.05.92-.06h.21c.03 0 .06.01.07.01.02.01.05.02.08.03.06.03.11.04.17.08l.19.11c.52.31 1.04.66 1.54 1.03 1.01.73 2.02 1.48 3.02 2.24l1.5 1.14.75.57.28.22-.31-.18-.82-.44z" fill="#dbcdaa" stroke-width="none" opacity="1" stroke="none"></path></g></g></g><g id="svga-group-nose-single-move" transform="matrix(1,0,0,1,0,0)"><g id="svga-group-nose-single"><path id="SvgjsPath21542" d="M94.67 92.35c.49.56.83 1.22 1.1 1.91.26.69.43 1.43.49 2.17.07.75-.01 1.5-.19 2.23-.16.73-.52 1.41-.95 1.99.14-.73.31-1.4.35-2.1.06-.69.07-1.38.01-2.06-.05-.69-.15-1.37-.29-2.06-.14-.69-.32-1.37-.52-2.08z" fill="#c0795b" stroke-width="none" opacity="1" stroke="none"></path><path id="SvgjsPath21543" d="M105.22 110.32c.78.09 1.59.12 2.3-.07.09-.02.17-.06.25-.09.08-.03.13-.07.19-.12.12-.11.24-.25.34-.4.2-.3.35-.65.48-1 .49-1.41.48-3.03-.28-4.29-.19-.32-.38-.59-.68-.81-.28-.23-.62-.41-.97-.57-.7-.32-1.46-.54-2.23-.7-1.54-.31-3.13-.37-4.7-.32-1.57.06-3.15.17-4.69.38-.78.11-1.48.28-2.15.62-.66.33-1.27.77-1.77 1.31-.5.53-.88 1.18-1.03 1.86a2.6 2.6 0 0 0-.01 1.04c.07.37.18.73.32 1.07.28.68.73 1.31 1.37 1.69.32.18.68.32 1.05.39.38.07.77.06 1.16.03l.01.08c-.77.2-1.64.2-2.41-.15-.77-.35-1.37-1.03-1.74-1.78-.18-.38-.33-.77-.44-1.17-.11-.43-.13-.88-.06-1.32.13-.88.59-1.65 1.15-2.29.57-.63 1.26-1.14 2.03-1.49a7 7 0 0 1 1.19-.42c.41-.1.82-.15 1.22-.2 1.6-.17 3.2-.16 4.79-.07 1.59.1 3.17.25 4.74.48.79.12 1.58.26 2.35.52.39.13.77.29 1.13.53.18.12.36.25.51.41.16.17.27.33.39.52.47.71.71 1.57.73 2.41.03.84-.14 1.68-.46 2.45-.16.39-.36.75-.62 1.09-.13.17-.28.33-.47.47-.09.07-.21.13-.33.16-.11.03-.21.06-.32.07-.42.08-.83.05-1.23 0s-.79-.13-1.18-.26l.07-.06z" fill="#c0795b" stroke-width="none" opacity="1" stroke="none"></path><path id="SvgjsPath21544" d="M92.72 109.72c.13-.42.52-.78 1-.86.23-.04.48-.05.72.06.25.1.43.32.54.53.22.44.28.9.37 1.33.08.43.14.86.26 1.25s.31.72.59.89c.13.08.33.15.52.22.2.06.39.12.6.16.82.17 1.67.24 2.52.2.84-.03 1.69-.15 2.45-.44.38-.14.71-.34.98-.61.26-.27.45-.61.57-1 .12-.39.17-.81.23-1.24.03-.22.06-.44.13-.68.04-.12.09-.25.18-.38.05-.06.11-.1.17-.15.06-.03.12-.07.18-.09.24-.09.48-.11.71-.11.23 0 .47.03.69.11.22.07.44.18.59.38.15.2.12.47.02.66.07-.21.04-.45-.11-.58-.14-.14-.35-.21-.55-.24-.4-.07-.85-.02-1.19.14-.18.09-.21.17-.25.37-.04.18-.04.4-.05.62-.02.44-.05.9-.16 1.36-.11.46-.32.93-.66 1.3-.33.38-.77.65-1.2.84-.88.36-1.79.5-2.7.54-.91.03-1.82-.04-2.72-.26-.22-.06-.45-.12-.67-.2-.22-.09-.44-.16-.67-.33-.46-.32-.68-.84-.79-1.29-.11-.46-.15-.91-.19-1.35-.04-.43-.07-.87-.21-1.23-.07-.18-.17-.33-.33-.42-.15-.09-.36-.12-.57-.11-.38-.02-.78.23-1 .61z" fill="#c0795b" stroke-width="none" opacity="1" stroke="none"></path><path id="SvgjsPath21545" d="M106.6 103.67c-1.43-.97-3.39-1.03-5.06-1.12-2.15-.12-4.6-.26-6.64.51-.09.03-.07.15.02.16 2.34.24 4.72-.19 7.09.05 1.86.19 3.76.34 4.92 2.04 1.01 1.48.47 2.83.26 4.38-.03.19.17.32.33.19 1.93-1.63.96-4.94-.92-6.21z" fill="#f6d7ca" stroke-width="none" opacity="1" stroke="none"></path></g></g><g id="svga-group-hair-front"><path id="SvgjsPath21433" d="M59.4 145.5s-1.5 7.5-2.1 9.5c-.7 2.1-2.5 8.6-2.1 10.5.4 1.9 1.5 4.8 5.3 5.1 0 0 1 18.6 1.4 19.5.4.9 2 3 3.8 3.4s3.7 0 3.7 0 1.3-1.7 1.5-2.7c.2-1-.2-3.5-.2-3.5s3.8 1.8 4.3 1.5c.4-.3 2-1.8 2.6-3.4.7-1.6 1.2-3.9 1.1-4.4-.1-.6-.7-3.1-.7-3.1s2-1.9 2.3-2.7c.3-.8 1-2.6 1-2.6s2.4 3.3 5.2 3.6c0 0 1.4-2.9 1.9-4.5.4-1.6-.3-3.4-.7-4.6-.4-1.2-3.2-10.6-3.6-12.1-2-8.4-4.9-2.6-4.9-2.6s-3.4-9.4-7-6.8c0 0-2.4.2-4.2 4.1 0 0-1.3-7.7-5.2-5.4.3-.2-2-5-3.4 1.2zm57.9 6.1s-.3 13.6-.7 15c-.3 1.4.7 4.4 2.2 4.8 0 0 .1 6.3.2 6.6.1.3 2.4 3.1 6.2 3 0 0 2.3 5.1 2.7 5.6.5.5 3.8-.2 4.9-.7s3.8-2.6 3.8-2.6 2.5 3.5 3.4 3.8 3.9-2.2 4.1-2.9c.2-.7.2-12.8-.1-15.2s-1.7-14.5-2-16c0 0-2.2-5-6-1.5 0 0-2.8-3.3-4.3-1.7 0 0-5.4-5.4-7.4.4 0 0-4.2-2.3-4.3 1.2-.2-.2-1.3-2.7-2.7.2zm-64-75.7s-1.5 1.5-1.1 2.8 2.2 6 3.2 6.8 3 2.2 3 2.2 1.4-.4 1.6-1.7-.8-4.1-.8-4.1 1.1-.7 1.4-1.6 0-3.6 0-3.6 1.2-1.2 1.7-2.2 1-3.2.8-4.8c0 0 2.2-1.1 2.6-1.9s.8-3.2 0-4.5c0 0 2.9-1.4 3.6-2s1.5-2.8 1.5-2.8 2.3-.9 2.6-1.5 1.5-4 1.5-4 2 .2 3.5-.1 4.1-3.2 4.1-3.2 1.7.5 3.3-.1 3.7-2.3 3.7-2.3 1.1.7 2.5.8 4.8-.9 4.8-.9 3.6 1 6.5 0c0 0 4.1 1.2 7.4.5 0 0 2.5 2.5 6.8 2 0 0 2.2 3.7 7.7 3.3 0 0 .3 4.3 4.1 5.3 0 0 1.6 4.1 5.6 5.1 0 0-2.6 4.1 2.4 6.2 0 0-.8 4.8 2.4 6.9 0 0-1.4 3.3 1.4 5.3 0 0-1.9 2.6.3 5.9 0 0 3.4-1.6 4.5-3.6s2-5.2 1.9-6.5-1-1.5-1-1.5.2-1.5.1-2.6-.4-2.9-.4-2.9.2-2.7-.1-4.5c-.3-1.8-1-4.1-2.7-4.8 0 0 .6-5.9-3.9-10.4 0 0-1.4-4.9-5.7-6.7 0 0-2.5-5.9-6.7-5.8 0 0-3.5-4.2-7.8-5.6 0 0-3.6-3.6-9.1-3 0 0-3.5-1.5-5.7-.2 0 0-4.3-3.4-9.4 0 0 0-3.3-.8-5.7.2 0 0-5-.7-8.7 2.8 0 0-5 1.7-8.2 5.6 0 0-3.4.5-6.7 6 0 0-4.5 2.3-5.6 6.7 0 0-4.2 3.2-4 9.9 0 0-2.8 1.9-2.6 9.4-.1.1-1.5 2.3-.6 5.7z" fill="#2e1f1f" stroke-width="none" opacity="1" stroke="none"></path><path id="SvgjsPath21434" d="M146.9 75.8c.5-1.8.5-4.1-.3-5.7.1-2.3-.2-4.7-.8-6.9-.3-1.1-.9-2.2-2.1-2.3h-.1c.4-3.8-1-8-3.8-10.5-.1-.1-.3-.1-.5 0-.4-2.7-2.6-5.4-5.1-6.4-.1-.2-.4-.3-.6-.2-.5-1.4-1.5-2.8-2.5-3.9 0-.1 0-.2-.1-.3-.4-.5-1.1-.7-1.7-.9-.6-.3-1.2-.6-1.8-.7h-.2l-.1-.1c-1.8-2.5-4.8-4.3-7.7-5.3v-.2c0-.3-.3-.5-.6-.4-.8-1-2.3-1.6-3.3-2-1.8-.7-3.6-.8-5.4-.6-1.6-.9-3.9-1.1-5.6-.4-.2.1-.3.2-.3.3-2.7-1.9-6.2-2.1-8.9-.2-.1 0-.1-.1-.2-.1-1.7-.7-4-.5-5.7.4-1.8-.2-3.6-.1-5.4.6-1.1.4-2.5 1-3.3 2-.2 0-.6.1-.6.4v.2c-2.8 1-5.9 2.8-7.7 5.3 0 0-.1 0-.1.1h-.2c-.6.2-1.2.5-1.8.7-.6.2-1.3.4-1.7.9-.1.1-.1.2-.1.3-1 1.1-2 2.5-2.5 3.9-.2 0-.4 0-.6.2-2.5 1-4.7 3.7-5.1 6.4-.1-.1-.3-.1-.5 0-2.8 2.5-4.2 6.7-3.8 10.5-1.2.1-1.8 1.2-2.1 2.3-.7 2.1-.9 4.6-.8 6.9-.7 1.5-.7 3.9-.3 5.7-2.8 0 .2 7.1.8 8.2.1.1.2.2.3.2.9 1.9 2.4 3.5 4.4 4.1.4.1.7-.4.5-.7.1 0 .3 0 .4-.1 1.3-1.4 1.6-4.2.1-5.7 2-.9 2.1-4 1-5.6-.2-.2-.5-.2-.6 0-.9-1-1.9-2-2.8-2.9-.9-1-1.8-2-2.9-2.8.1-1.6.1-3.3.4-4.9.2-1.3.4-2.9 1.5-3.8.5 3.1 3.5 6.7 6.1 8.1h.2c.2 2.2 0 4-1.8 5.6-.5.4.2 1.3.7.9 1.9-1.4 3-4.6 1.7-6.8-.1-.1-.3-.2-.4-.1-1.2-1.3-2.6-2.5-3.6-4.1-.9-1.3-1.3-2.8-2.1-4.1 0-3.8 1.1-6.7 3.2-9.7.3 4.3 1.9 8.9 4.9 12 .5 1.1.8 2.2.3 3.3-.5 1-1.4 1.3-2.2 2.1-.1.2-.1.4.1.5 1.4.3 2.6-1.1 3-2.2.5-1.3.3-3.1-.8-4.1-2.3-3.8-4-7.3-4.4-11.9v-.2c.8-2.7 2.1-4.6 4.5-6.2 0 4.9 1.5 9.6 4.7 13.4-.4 1-.8 1.8-1.6 2.6-.5.4-1 .8-1.6 1-.5.2-.9.2-1.4.5-.3.2-.2.7.1.8 1.2.3 2.7-.7 3.5-1.4.9-.8 1.8-2.1 1.8-3.5 1 .3 2.4-.9 2.9-1.6.8-1 1.3-2.2 1.2-3.5h.1c2.2 1.2 6.9-.6 7.2-3.3 2.1 1.3 5.2-.1 6.7-1.9 1.9 1.3 5.7.8 7.5-.5h.3c1.8 1.2 4.7.8 6.6.2 1.9 1.2 5.5 1.6 7.3.4 1.4 1.8 4.6 3.2 6.7 1.9.3 2.8 5 4.5 7.2 3.3h.1c-.2 1.3.3 2.5 1.2 3.5.5.6 2 1.8 2.9 1.6 0 1.3.9 2.6 1.8 3.5.8.8 2.3 1.8 3.5 1.4.3-.1.4-.6.1-.8-.4-.3-.9-.3-1.4-.5-.6-.2-1.1-.6-1.6-1-.8-.7-1.2-1.6-1.6-2.6 3.2-3.8 4.7-8.5 4.7-13.4 2.4 1.5 3.6 3.5 4.5 6.2 0 0-.1.1-.1.2-.4 4.5-2 8-4.4 11.8-1.1 1-1.3 2.8-.8 4.1.5 1.2 1.7 2.5 3 2.2.2-.1.3-.3.1-.5-.7-.8-1.7-1-2.2-2.1-.6-1.2-.2-2.2.3-3.3 3-3.1 4.6-7.7 4.9-12 2.1 3 3.2 5.9 3.2 9.7-.8 1.3-1.2 2.8-2.1 4.1-1 1.5-2.3 2.7-3.6 4.1-.1-.1-.3 0-.4.1-1.4 2.1-.2 5.3 1.6 6.8.5.4 1.1-.5.7-.9-1.7-1.6-2-3.3-1.8-5.6h.2c1.6-.9 2.9-2.3 3.9-3.8.9-1.2 1.9-2.8 2.2-4.3 1.2.8 1.3 2.4 1.5 3.8.3 1.6.3 3.2.4 4.9-1.1.8-2 1.8-2.9 2.8-.9 1-1.9 1.9-2.8 2.9-.1-.2-.4-.3-.6 0-1.1 1.6-1 4.7 1 5.6-1.5 1.4-1.2 4.2.1 5.7.1.1.3.2.4.1-.2.3.1.8.5.7 2-.6 3.5-2.3 4.4-4.1.1 0 .2-.1.3-.2.9-1.1 3.9-8.2 1.1-8.2zM58.7 86.9c-.1.2-.1.3 0 .4-1.9-1.1-3.3-2.4-3.9-4.5-.1-.3-.4-.4-.7-.3-.2-.6-.5-1.1-.6-1.7-.2-.7-1.3-3.8-.2-4.3v.1c0 .1.1.1.2.2.7 1.1 1.5 2.2 2.5 3.2l.3.3c-.1.1-.2.3-.1.5.6 1.1 1.1 2.3 1.9 3.4.2.3.7.1.6-.2-.3-.9-.8-1.8-1.3-2.6.5.5 1.1.9 1.7 1.1.6 1.5.6 2.9-.4 4.4zm-2.3-12.8c1.1 1.2 2.2 2.5 3.4 3.6.2.2.4.2.5.1.1.5.1 1-.1 1.5-.2.9-.8 1.3-1.3 2 0 .1-.1.1-.1.2-.6-.8-1.5-1.4-2.2-2.1-1-1-1.8-2.1-2.6-3.3-.1-.1-.2-.2-.4-.2 0-.8-.2-1.7-.1-2.5 0-.6.1-1.2.2-1.9.1 0 .2-.1.3-.1.8 1 1.6 1.8 2.4 2.7zm17.9-20.9c-.1 1.2-.5 2.3-1.3 3.1-.4.4-.8.7-1.3.9-.4.2-.8.2-1 .6v.1h-.1c-2.7-4.1-4.2-8.5-4-13.5.5-.7.9-1.5 1.4-2.2.5-.7 1-1.3 1.6-2 .5-.1.9-.4 1.3-.6.4-.2.9-.4 1.3-.6-1 4.5.2 10 2.5 13.8l-.4.4zm5.1-1.2c-1.4.7-2.6.5-4 .4-.1 0-.2 0-.3.1-.8-2.1-1.5-4.1-1.9-6.3-.4-2.6-.1-5.1-.1-7.7 1-1 2-2 3.2-2.8 1.2-.9 2.6-1.5 3.9-2.1-.4 5.2.1 11 1.8 15.8-.9.9-1.4 2-2.6 2.6zm6.5-3.1c-1.2.3-2.2 0-3.4 0-.8-5.4-1.3-10.5-1.2-16 1.1-.5 2.1-1.5 3.3-2 1.4-.5 2.9-.7 4.4-.6-1.8 5-2.7 11.8.1 16.6-1 1-2 1.7-3.2 2zm3.6-1.8c-.4-2.7-1.2-5.1-1.2-7.8 0-3 .6-5.9 1.7-8.7.3 0 .5-.2.6-.5 1.4-.3 2.6-.4 4 0-1.2 5.6-.5 11.6 1.7 16.8-1.1.2-2.2.5-3.3.6-1.3 0-2.4-.4-3.5-.4zm10.4.1c-1 0-1.9-.3-2.9-.4-2-5.5-2.5-10.8-1.8-16.7.2-.1.3-.2.3-.3 2.8-1.5 5.9-1.5 8.5.5.2.2.4.1.5-.1.7 5.8.2 11.1-1.8 16.6-.8.3-1.8.4-2.8.4zm7.2.3c-1.1 0-2.1-.3-3.1-.5 0-.1-.1-.2-.2-.2 2.1-5.2 2.8-11.1 1.6-16.6 1.4-.3 2.6-.3 4 0 .1.2.3.5.6.5 1.1 2.8 1.7 5.7 1.7 8.7 0 2.7-.8 5.2-1.2 7.8-1.2-.1-2.3.3-3.4.3zm6.9 1.4c-1.2-.3-2.2-1-3.1-1.9 2.8-4.8 1.9-11.6.1-16.6 1.5-.1 3 .1 4.4.6 1.2.5 2.2 1.4 3.3 2 .1 5.5-.4 10.6-1.2 16-1.3-.1-2.3.3-3.5-.1zm6.5 3.1c-1.2-.6-1.7-1.6-2.6-2.5 1.7-4.9 2.2-10.6 1.8-15.8 1.4.6 2.7 1.2 3.9 2.1 1.2.8 2.1 1.8 3.2 2.8 0 2.6.3 5-.1 7.7-.4 2.2-1.1 4.2-1.9 6.3-.1-.1-.2-.1-.3-.1-1.4 0-2.6.2-4-.5zm7.7 5.3c-.5-.2-.9-.5-1.3-.9-.8-.8-1.2-1.9-1.3-3.1 0-.2-.1-.3-.3-.3 2.2-3.8 3.4-9.4 2.5-13.8.4.2.9.4 1.3.6.4.2.9.5 1.3.6.5.6 1.1 1.3 1.6 2s.9 1.5 1.4 2.2c.1 4.9-1.4 9.3-4 13.5h-.1V58c-.4-.5-.7-.5-1.1-.7zm11.4 22c-.1-.5-.1-1-.1-1.5.2.1.4.1.5-.1 1.2-1.2 2.3-2.4 3.4-3.6.8-.8 1.7-1.7 2.4-2.6.1.1.2.1.3.1.1.6.2 1.2.2 1.9 0 .8-.1 1.7-.1 2.5-.1 0-.3.1-.4.2-.8 1.2-1.7 2.3-2.6 3.3-.7.7-1.5 1.3-2.2 2.1 0-.1 0-.2-.1-.2-.5-.8-1.1-1.2-1.3-2.1zm6.9 1.5c-.2.6-.4 1.1-.6 1.7-.2-.1-.6 0-.6.3-.6 2.1-2.1 3.4-3.9 4.5.1-.1.1-.3 0-.4-1.1-1.5-1-2.9-.3-4.5 1.1-.4 2.1-1.6 2.9-2.4.9-1 1.8-2.1 2.6-3.2.1 0 .1-.1.1-.2v-.1c1.1.5 0 3.6-.2 4.3zM98.2 38.7c0-.2-.3-.3-.4-.1-1.5 2.5.4 6.1 3 7 .3.1.5-.3.2-.5-2.3-1.6-2.9-3.7-2.8-6.4zm2.9 3.3c1.6-2 2-5 .2-7.1-.1-.2-.4 0-.3.2 1.1 2.1 1.1 4.5-.4 6.4-.2.3.2.8.5.5zm-.5-5.6c.2 0 .3-.3.1-.4-1.5-.8-2.7-1.8-2.8-3.6 0-.3-.5-.3-.5 0-.2 1.8 1.2 4.1 3.2 4zm.5-3.7c.2-.4.6-.9.7-1.4.1-.3-.3-.5-.5-.3-.4.3-.6.9-.8 1.3-.3.5.3.9.6.4zm-7.6 11c-.7 0-1.3.2-2-.2-.6-.3-.9-.9-1.1-1.6-.1-.4-.7-.3-.7.1.1.9.5 1.7 1.3 2.2.8.5 1.9.6 2.6 0 .3-.2.1-.5-.1-.5zm-1.6-4.9c.4-1.2.6-2.7.1-3.8-.1-.3-.5-.3-.6.1-.1 1.2.1 2.3-.3 3.5-.1.4.6.6.8.2zm-8.5 3.5c-.2-.2-.6 0-.5.3.4 1.6 1.7 3.1 2.9 4.2.3.3.7-.1.5-.5-1.1-1.3-1.8-2.8-2.9-4zm1.9-2c.8-1.8 1-4-.1-5.7-.2-.3-.6-.1-.5.2.3 1.8.6 3.5-.2 5.2-.1.4.6.7.8.3zm-1.3-4c.2.2.6 0 .5-.3-.2-.6-.6-1.1-.9-1.7-.2-.3-.6 0-.5.3.3.6.5 1.2.9 1.7zm-5.1 8.6c-.5 1.3-.6 2.7-1.2 4-.2.5.5.9.7.4.6-1.3 1.2-2.9 1-4.3 0-.4-.4-.3-.5-.1zM74 43c-.2-.2-.5 0-.4.3.4 1.2 1.1 2.3 1.8 3.4.3.5 1.1 0 .8-.5-.7-1.1-1.3-2.2-2.2-3.2zm3.5-4.7c-.2-.2-.5 0-.5.3.3 1.4.6 2.6 0 4-.2.5.5 1 .8.5.6-1.6.8-3.5-.3-4.8zm-4.3 14.3c-.6 0-1.2.3-1.8.2-.7-.1-1.4-.5-1.8-1.1-.2-.3-.7 0-.5.3.7 1.3 3.2 2.6 4.3 1.1.2-.2 0-.5-.2-.5zm-2.5-3.4c.2.2.6.2.7-.1.4-1.1.6-2.2.3-3.4-.1-.3-.6-.2-.6.1 0 1-.2 2-.5 2.9-.2-.2-.4-.3-.7-.4-.3-.2-.5-.4-.8-.6-.5-.5-.8-1-1-1.7-.2-.5-.9-.3-.8.2.2.8.6 1.4 1.1 2 .4.5 1.2 1.2 1.9 1.2.3-.1.4-.2.4-.2zm-2.5 9.6c.2-.2 0-.7-.3-.6-.8.2-1.7.1-2-.8-.2-.6-1.1-.3-.9.2.4 1.3 2.1 2.2 3.2 1.2zM62 53.1c-.4-.2-.7.5-.3.7.5.2 1.1.5 1.6.7.5.2.9.4 1.4.5.2 0 .4-.3.2-.5-.4-.3-.8-.5-1.3-.7-.6-.3-1.1-.5-1.6-.7zm4.2.2c0-1.4-.2-2.8-1-3.9-.1-.2-.4-.1-.4.2.2 1.3.6 2.5.6 3.8 0 .4.8.4.8-.1zM65 65.4c0-.2-.2-.3-.4-.2-.7.4-1.5 1.1-2.3.4-.3-.2-.7.1-.4.4.8.8 2.9.9 3.1-.6zm-3.4-4.1c-.5 0-1 .2-1.5.1-.6-.1-1.1-.3-1.5-.6-.3-.3-.8.3-.5.6.9.7 2.7 1.3 3.7.5.2-.2.1-.6-.2-.6zm-1.1 10.8c.5-1.4.2-3.2-1.2-4.1-.2-.1-.5.1-.3.3.7 1.1 1.2 2.2.8 3.6-.1.4.6.6.7.2zm-3.3-4.5c-.2-.2-.6-.2-.6.2s.2.8.3 1.2c.1.4.3.8.4 1.3.2.5.9.3.8-.2-.1-.4-.3-.8-.4-1.3-.2-.5-.3-.9-.5-1.2zm-1.1 10.3c.4.5 1.7 1.3 2.2.5.1-.1 0-.3-.1-.4-.2-.2-.5-.1-.7-.1-.4 0-.7-.2-.9-.4-.3-.3-.8.1-.5.4zm-2.2-2.6c.3.6 1 1.4 1.8 1.4.3 0 .4-.3.2-.5s-.5-.3-.7-.5c-.3-.2-.5-.5-.7-.8-.2-.4-.8-.1-.6.4zm53.5-32.7c0-.3-.4-.3-.5-.1-.6 1.3.2 2.8 1.2 3.7.3.3.8-.2.5-.5-.8-.9-1-1.9-1.2-3.1zm1.3-3.9c0 1.3.2 2.4-.4 3.6-.2.4.4.8.7.4.6-1.2.9-2.9.2-4.1-.2-.2-.5-.2-.5.1zm.1-.9c0-.9.1-2-.2-2.8-.1-.2-.4-.3-.5 0-.2.9 0 1.9.1 2.8 0 .4.6.4.6 0zm8 5.5c-.4 1.2-.8 2.2-1.9 2.9-.4.3 0 .9.4.7 1.2-.7 2.3-2.1 2.1-3.5-.1-.4-.5-.4-.6-.1zm-.7-6.2c-.1-.3-.5-.3-.6 0-.2.8-.3 1.6-.5 2.3-.3.9-.8 1.7-1.4 2.5-.3.4.2.9.5.5 1.2-1.3 2.4-3.4 2-5.3zm0-.4c.3.2.6-.3.3-.5-.5-.4-1-1-1.3-1.6-.3-.5-.4-1.1-.7-1.7-.1-.2-.4-.2-.5.1-.4 1.5 1 3.1 2.2 3.7zm8.5 9.5c-.4.7-.7 1.4-1.2 1.9-.6.6-1.3 1-2.1 1.2-.4.1-.2.7.2.6 1.6-.3 3.7-1.7 3.6-3.6-.1-.3-.4-.3-.5-.1zm-1.8 0c-.6-1.1-.7-2.4-1.1-3.5-.1-.2-.4-.2-.4 0-.4 1.3.2 2.8.9 3.9.3.4.8.1.6-.4zm1.7-3c.7-.7 1.5-2.1 1-3.2-.1-.2-.4-.1-.5.1-.2.4-.2.9-.3 1.3-.2.5-.4.9-.8 1.3-.3.3.3.8.6.5zm-1.2-3.6c-.2-.5-.3-1-.3-1.5 0-.4.1-.9-.1-1.3-.1-.2-.4-.3-.5-.1-.5.9-.1 2.2.2 3 .1.5.8.4.7-.1zm7.7 12.2c0-.3-.4-.3-.5-.1-.4.6-.8 1.1-1.3 1.6-.6.5-1.3.7-2 .7-.5 0-.5.8 0 .8 1.6 0 3.8-1.1 3.8-3zm-2.8-1.5c1.6-.5 3.6-1.7 3.9-3.5 0-.2-.3-.5-.4-.3-.5.6-.9 1.3-1.5 1.8-.6.6-1.4 1-2.2 1.3-.5.1-.3.8.2.7zm2.2-4.8c-.1-.7-.1-1.4 0-2 .1-.6.2-1.1.2-1.7 0-.2-.3-.3-.4-.2-.8 1.1-.7 2.8-.5 4 .1.5.8.3.7-.1zm1.4 13.1c-.5-.1-.6.6-.2.7 1.4.3 3.5-.3 3.7-1.9 0-.3-.3-.5-.5-.3-.8 1-1.7 1.8-3 1.5zm1.8-3.5c1.3-.5 2.8-1.7 2.8-3.3 0-.2-.2-.3-.3-.1-.4.5-.7 1.1-1.1 1.6-.4.5-1 .9-1.6 1.2-.4.2-.2.8.2.6zm3.5 12.3c1.1 0 2.9-.6 3.3-1.8.1-.3-.3-.6-.5-.4-.4.2-.8.7-1.2.9-.5.3-1 .4-1.6.5-.5.1-.5.9 0 .8zm1.7-4.5c0-1.1.4-2 .6-3 0-.2-.2-.5-.4-.3-.8.8-.9 2.2-1 3.3 0 .6.8.6.8 0zm2.2-1.5c.2-1.2.7-2.5.6-3.8 0-.2-.3-.4-.5-.1-.6 1.1-.7 2.5-.9 3.7 0 .5.7.7.8.2zm-2 10.3c-.4-.4-.9.2-.6.6.6.6 1.3.9 2.1.9.7 0 1.6-.2 2-.8.1-.2-.1-.6-.4-.5-.5.2-.9.5-1.5.5s-1.2-.2-1.6-.7zm5.4-2.4c.2-.2.1-.5-.2-.6-.4-.1-.7 0-1.1-.1-.4-.1-.8-.2-1.1-.5-.4-.3-1.1.3-.6.6.7.7 2.1 1.3 3 .6zm-1.8 9.1c.2 0 .3-.3.1-.4-.4-.3-.8-.4-1.1-.8-.3-.4-.8.2-.5.5.3.4.9.8 1.5.7zm1.3-2.4c.3.2.6.4 1 .4.3.1.6-.3.3-.6s-.6-.4-.9-.5c-.4-.2-.8.5-.4.7zm-.1 5.7c-.4.3-.6.8-.9 1.2-.4.4-.8.7-1.3.9-.5.2-.3.9.2.7 1-.4 2.5-1.3 2.5-2.6 0-.2-.4-.3-.5-.2zm-55.3 86c-.8-3.2-3.2-9.9-4-13.3-.9-4-1.7-4.1-1.6-3.6.1.8.2 1.7.3 2.6-.1-.1-.3 0-.3.1-.3.4-.3 1-.5 1.5-.2.6-.5 1.1-.9 1.6-.2.3.2.5.4.3.5-.4.9-1.1 1.1-1.7.1-.3.2-.7.3-1 .4 1.9 1 4 1.6 5.9h-.2c-.2.2-.2.3-.2.6-.1.5-.2.9-.4 1.4-.3.8-.9 1.4-1.5 2-.2.2.1.5.3.4.9-.4 1.5-1.2 1.9-2.1.2-.4.4-.9.5-1.4 1.3 3.9 2.6 7.2 2.6 7.3.5 2.8-.1 4.9-1.3 7.3-1-.4-2-.6-2.9-1.4-.5-.4-.9-.8-1.3-1.3-.2-.3-.5-1.1-.5-1.2-1.6-8.5-1.9-14-2.4-22.6 0-.3-.5-.3-.5 0-.2 3-.3 3.3-.1 6.3-.6-.2-1.2-.6-1.6-1.2-.4-.6-.5-1.2-.7-1.8-.1-.3-.5-.2-.6.1-.2.8.3 1.7.8 2.3.5.7 1.3 1.1 2.1 1.3h.1c.3 5.3 1.1 10.7 2.1 15.8 0 .1-.4 2.4-1.1 3.5-.4.6-.8 1.2-1.3 1.7l-.3.3c-.5-2.8-.9-5.5-1.4-8.3.2.3.6.5.9.6.6.2 1.2.1 1.7-.1.3-.1.1-.5-.2-.5-.4.1-.9.1-1.3-.1-.4-.1-.6-.5-1-.6h-.2c-.1-.6-.2-1.3-.3-1.9.1.1.2.1.3 0 .7-.5 1.2-1.5 1.2-2.4 0-.2-.3-.3-.4-.1-.2.4-.3.7-.6 1.1-.2.3-.5.6-.7.9-1.2-7.5-2.5-15-3.8-22.5-.1-.4-.8-.3-.7.1.5 11.3 2.7 23.3 5.9 34.2-.1.1-.2.3-.3.4-.1.2 0 .4.2.4.1 0 .2 0 .3-.1.2.6.5 2 .5 2.1-.3 3.1-1.4 5.4-3.2 7.8-.6-.3-1.3-.3-1.9-.5-.8-.3-1.5-.7-2.2-1.1-.5-3.2-1-6.5-1.5-9.7.2.7.9 1.4 1.4 1.9.7.6 1.5 1.3 2.4 1.5.3.1.4-.3.2-.5-.8-.5-1.5-.9-2.2-1.6-.3-.3-.6-.7-.8-1.1-.2-.3-.3-.6-.6-.8-.2-.1-.4 0-.4.2-.3-2-.5-4-.7-6v-.1c.7 1.3 2.3 2.6 3.6 2.5.3 0 .3-.3.1-.5-.7-.5-1.4-.8-2-1.3-.6-.5-.9-1.2-1.4-1.8-.1-.1-.3-.1-.4-.1-.4-6 .1-15.5.9-23.9 0-1.4-.8-1.1-.8-.9-2.4 18.7-.2 32.9 1.8 44.9 0 .1.1.2.2.3-.2.5-.2 1-.4 1.5-.2.6-.6 1.1-.9 1.6-1.2-.3-2.5 0-3.7-.5-1.2-.5-2-1.4-2.9-2.4.1-.1.1-.2.1-.3-1-8.5-1.5-17-1.2-25.6.3-8.6 1.2-13.5 2.1-22 0-.3-.4-.3-.5-.1-2.8 9.4-3.5 18.5-3.3 27.7-6.5-1-4.5-8.3-2.8-13.4 0 .2.1.5.1.7.2.5.5.9.9 1.2.2.2.5-.2.3-.4-.3-.3-.5-.7-.6-1.1-.1-.3 0-.7-.3-.9-.1-.1-.1-.1-.2 0-.1 0-.1.1-.1.2.4-1.2.8-2.2 1-3 1.2-4.4 1.9-7.8 1.7-12.3 0-.3-1.8 6.8-1.8 7.2-1.2 7.1-1 4.9-2.8 11.6-1.1 4.1-2 10.3 4.5 11.1.2 6.2.8 12.6 1.7 19.1 0 .2.1.4.3.4.5 1.5 1.8 2.6 3.2 3.2 1.1.5 2.9 1 4.1.4.1 0 .2 0 .3-.1.7-.6 1.1-1.4 1.4-2.1.2-.6.6-1.4.4-2v-.2c-.1-.5-.2-1-.2-1.5.5.3 1.1.6 1.7.8.8.3 1.8.7 2.6.3.1-.1.1-.2.1-.3 2.2-2 3.5-5.2 3.6-8.2 0-.3-.7-1.7-.8-2.3.9-.5 1.6-1.6 2.1-2.4.5-.8.9-1.8 1.1-2.7.4.7 1.2 1.4 1.7 1.8.8.6 1.8 1.2 2.9 1.4.1.2.3.3.5.1l.1-.1h.1c.4 0 .5-.4.4-.6 2.3-2.8 1.2-7.9 1-7.9zm56.5 14.7c-.5-20.9-1.9-25.3-4-37.2 0-.4-1.2-4.4-1.1-3.9 1.6 16.5 3.9 25.2 4 41.8-.6.8-1.2 1.9-2 2.5-.5.4-1.2.6-1.8.9-.2-.3-.5-.5-.8-.8-.5-.4-.9-.9-1.4-1.4-.5-.5-.9-1.1-1.3-1.7-.3-.4-.7-1.1-.7-1.2 1.7-15.4 1.4-22.1-.4-37.4-.1-.6-.9-.6-.9 0 .5 7.9.3 5.7.6 13.6.2 7.9-.1 23.8-.1 24 0 .5.2 1 .5 1.5-2.3 1.8-4.5 2.9-7.6 2.8h-.2c-.3-1.1-.8-2.2-1.2-3.3-.4-1-.8-4-.5-4.6.2-.1.4-.4.3-.6 5.1-9.6 7.3-21 5-31.7-.1-.5-.9-.4-.9.1.4 6.1 1.1 11.9-.3 18-1 4.5-2.9 8.6-4.6 12.9-1.3-1.5-1.7-5.6-1.8-7.3-.1-1.3.1-2.6.1-3.9.1-2.9.2-5.8.3-8.8.2-5.5.4-5.6.3-11.1 0-.4-.5-.3-.6 0-.7 7.5-.7 9.6-1 17.1-1.2-1.7-1.6-3.5-2-5.6-.1-.3-.6-.3-.6 0-.4 2.3.7 4.6 2.2 6.2.1.1.2.1.3.1v1c-.1 1.6-.4 3.7-.5 5.7-.9-1.3-1.4-2.8-1.9-4.3-.1-.3-.5-.2-.5.1 0 1.9.9 3.6 2.1 4.9.1.1.2.1.3.1 0 2.8.5 5.4 2.8 6.9-.2.7-.5 1.3-.7 2 0 .1-1.8.3-2.7-.1-1-.4-2.4-1.9-2.4-2 0-2 .1-4 .1-6.1v-.1c.2-7.4.3-13.4 0-20.8 0-.3-.4-.3-.4 0-.7 7.1-.6 12.7-.6 19.9-1-1.2-1.6-2.5-1.7-3.9 0 .2.2.3.4.2.3-.3.7-.6.9-.9.1-.2-.1-.4-.3-.3-.4.2-.7.6-1 .9-.1.1-.1.1-.1.2 0-.4 0-.9.1-1.3l.3-3.3c0-.3 0-.6.1-.8.2.4.3.8.7 1.1.1.1.4 0 .3-.2-.1-.5-.4-.9-.7-1.3-.1-.1-.2-.1-.3 0 .1-1.1.1-1.9.1-3.3-.1-1.1-.1-3.5-.3-5.4.1.5.3.9.7 1.2.2.2.4-.1.4-.4-.2-.5-.5-1-.7-1.4-.1-.1-.3-.1-.3 0v.4c-.1-.8-.1-1.5-.2-1.9 0-.2-.2 1.8-.2 2-.2 5.1-.2 5.7-.8 12-.3 3.3-.3 6.1 2.6 8 0 1.9 0 3.9-.1 5.8 0 .3 1.5 4.4 6.4 3.5.3.7.7 1.4 1 2.1.5 1.1 1 2.2 1.6 3.3 0 0 .1 0 .1.1 0 .2.2.5.5.5 2.9.2 6.2-.9 8.1-3.2.3.4.6.7.9 1 .6.6 1.5 1.8 2.5 2.2 0 .2.1.3.3.3 1 .2 2-.6 2.7-1.2 1.1-1.1 2.5-2.7 2.6-4.2zm-62.1-10.1c-.2.2-.1.6.2.5 2-.7 3.8-3.1 3.9-5.3 0-.4-.5-.4-.6-.1-.3 1-.6 1.9-1.2 2.7-.5.9-1.4 1.5-2.3 2.2zm.1-5.6c-.5-.7-.6-1.5-1-2.3-.1-.2-.4-.1-.5.1-.1 1.6 1.7 4.1 3.4 3.8.2 0 .2-.3.1-.4-.8-.3-1.4-.5-2-1.2zm.5-6.2c-.6-.5-1.2-.8-1.7-1.3-.4-.5-.7-1.3-1.3-1.6-.2-.1-.3 0-.3.2 0 .7.7 1.5 1.2 2s1.2 1.2 1.9 1.2c.2-.1.4-.3.2-.5zm-1.9-6.6c.2.1.3-.1.3-.3-.2-.5-.6-.9-.9-1.4-.3-.4-.4-.9-.9-1.1-.1 0-.2.1-.3.1-.2.5.3 1.1.6 1.5.3.5.6 1 1.2 1.2zm-4.1 4.6c.2-.4.5-1.1.2-1.5-.1-.1-.3-.2-.4-.1-.3.3-.2.8-.4 1.2-.2.4-.5.7-.7 1.1-.1.1 0 .3.2.3.5 0 .9-.5 1.1-1zm-1.6 2.8c.3.7 1 1.3 1.6 1.7.4.3 1.3.6 1.4-.1 0-.2-.1-.3-.3-.3-1-.1-1.6-1-2.5-1.6-.1-.2-.3.1-.2.3zm2.8 10.3c0 .6-.1 1.2-.3 1.7-.2.4-.6.7-.6 1.2 0 .1.1.2.2.2.6 0 .9-.7 1.1-1.2.2-.6.3-1.3.1-2-.1-.2-.5-.2-.5.1zm-3.4 7c-.4 2.6-1.6 5.2-3.2 7.3-.2.2.1.6.3.4 1.2-.9 1.9-2.1 2.4-3.4.5-1.2 1.3-2.7 1.2-4.1 0-.5-.6-.6-.7-.2zm-1.1-7.2c-.6.6-.7 1.8-1.1 2.6-.5.9-1.2 1.7-1.7 2.6-.1.2.1.5.3.3.9-.6 1.6-1.6 2.1-2.5.4-.8 1.1-2 .8-2.9-.1-.1-.3-.2-.4-.1zm-.5-6.3c-.3.2-.3.5-.4.8-.2.5-.4 1-.7 1.4-.5.8-1.2 1.4-2 2-.2.2.1.4.3.4.9-.4 1.7-1.1 2.3-1.9.4-.6 1.3-1.8 1-2.6-.1-.1-.3-.2-.5-.1zm-2 1.2c.2.1.4-.3.2-.4-.4-.2-.8-.6-1.2-.9-.4-.4-.6-.8-.8-1.2-.2-.3-.7-.1-.6.2.2 1.2 1.3 2 2.4 2.3zm.7-5.6c-.2.5-.4 1-.7 1.5-.3.4-.7.8-1 1.2-.1.1 0 .4.2.3 1.1-.4 2-1.8 2.2-2.9.1-.4-.5-.5-.7-.1zm-1.1.3c.2 0 .4-.2.2-.3-.4-.3-.9-.7-1.3-1.1-.4-.5-.5-1.1-.8-1.6-.1-.2-.4-.2-.4.1-.2.6.3 1.4.7 1.9.4.4.9.9 1.6 1zm.4-5.8c-.3.4-.2 1-.5 1.5-.2.5-.6.9-.8 1.3-.1.2.1.4.3.3.6-.3 1-.9 1.2-1.4.2-.5.5-1.2.2-1.7-.1-.2-.3-.2-.4 0zm-2.6-1.4c-.2.4.1.9.3 1.2.3.4.7.6 1.1.8.3.1.4-.3.2-.4-.3-.2-.7-.5-.9-.9-.2-.3-.2-.6-.5-.8 0-.1-.1-.1-.2.1zm1.4-.9c.8-.3 1.9-1.8 1.1-2.5-.1-.1-.3-.1-.3 0-.2.3-.2.7-.3 1-.2.4-.4.7-.7 1-.3.3-.1.7.2.5zm.2-2.3c-.2-.5-.2-1-.4-1.5-.1-.2-.3-.2-.4 0-.2.6.1 1.2.4 1.7.1.3.5 0 .4-.2zm-5 41.2c1.1-.1 1.8-1 2.4-1.8.6-.8 1.8-2 1.4-3-.1-.2-.4-.3-.5-.1-.7 1.5-1.7 3.8-3.4 4.3-.4.1-.2.6.1.6zm-1.3-4.5c.7.6 1.5 1.2 2.3 1.3.3.1.5-.3.2-.5-.7-.5-1.5-.8-2.1-1.4-.5-.5-.9-1.3-1.5-1.7-.2-.1-.4 0-.4.2.1.7 1 1.6 1.5 2.1zm3.6-7.5c-.3.3-.3.5-.5 1-.2.6-.5 1.1-.8 1.6-.6 1-1.3 1.9-2.2 2.6-.2.2.1.5.3.4 1-.7 1.8-1.4 2.5-2.5.5-.7 1.4-2.1 1.1-3-.1-.2-.3-.2-.4-.1zm-2 2.1c.3.1.5-.3.2-.5-.9-.5-1.6-1.1-2.1-2-.5-.9-.7-1.9-1.3-2.8-.2-.2-.5-.1-.5.1 0 1.1.7 2.5 1.4 3.4.6.9 1.3 1.5 2.3 1.8zm-1.9-4.8c-.2.1-.1.4.1.4.9-.1 1.6-.6 2.1-1.4.7-.9 1.4-2 1.7-3 .1-.3-.3-.6-.5-.3-1.1 1.4-1.5 3.8-3.4 4.3zm-2.5-7.5c-.1.9.8 1.8 1.3 2.4.7.7 1.6 1.5 2.5 1.9.2.1.5-.1.3-.4-.6-.7-1.4-1.3-2-1.9-.3-.3-.6-.7-.9-1.1-.2-.4-.4-.8-.8-1.1-.2-.1-.4 0-.4.2zm5.3-3c-.6.5-.9 1.2-1.4 1.8-.5.6-1.1 1-1.6 1.6-.2.2 0 .5.2.4.8-.3 1.4-.8 1.9-1.4.5-.5 1.2-1.2 1.5-2 .1-.4-.3-.6-.6-.4zm-4.4-2.5c-.2.7.4 1.6.8 2.1.4.6 1 1.2 1.7 1.4.3.1.5-.3.3-.5-.5-.5-1-.9-1.4-1.5-.3-.5-.4-1.2-.8-1.6-.2-.2-.5-.1-.6.1zm2-.1c-.2.2.1.5.3.4.6-.3 1.2-.8 1.6-1.4.4-.5.9-1.1 1-1.7.1-.3-.3-.6-.5-.3-.4.5-.6 1.1-1 1.6s-.9.9-1.4 1.4zm-1.7-5.3c-.4.5.2 1.4.5 1.8.4.6 1 1.2 1.7 1.4.3.1.5-.3.3-.5-.4-.5-1-.9-1.4-1.4-.3-.4-.5-1.2-.9-1.3-.1-.1-.1-.1-.2 0zm4.3-2.3c-.1-.1-.2-.1-.3-.1-.2.1-.3.2-.4.4-.1.3-.3.6-.5.8-.4.5-1 .7-1.6.9-.3.1-.3.6.1.6.8 0 1.5-.4 2-.9.4-.2 1.2-1.1.7-1.7zm-3.7-2.9c-.1-.1-.3 0-.4.1-.2.6.4 1.3.7 1.8.4.6.9 1.1 1.5 1.6.2.2.5-.1.3-.3-.5-.5-.9-1.1-1.2-1.8-.3-.5-.4-1.2-.9-1.4zm3.7-1.8c-.5.1-.8.7-1.1 1.1-.4.5-.9.9-1.3 1.4-.1.2 0 .5.2.4.7-.2 1.2-.6 1.7-1.2.3-.4 1-1 .7-1.6-.1-.1-.2-.1-.2-.1zm-1.8-.3c-.3-.6-.5-1.2-.7-1.9-.1-.6-.1-1.2-.3-1.8-.1-.2-.3-.2-.4 0-.4 1.3.3 2.8 1 3.8.2.3.5.1.4-.1zm.4-2.9c.5-.3.9-.6 1.2-1.1.3-.4.7-1 .6-1.6 0-.2-.2-.3-.4-.1-.3.4-.4.9-.7 1.3-.3.4-.6.9-1 1.3-.1.1.1.3.3.2zm.1-2.7c-.4-.5-.5-1.1-.7-1.8 0-.1-.3-.1-.3 0-.2.8.3 1.5.8 2 .1.2.3 0 .2-.2zm-9.7 17.8c-.2.9.3 1.9.7 2.7.5.9 1.2 1.7 2.1 2.1.2.1.5-.2.3-.4-.6-.7-1.3-1.3-1.7-2.1-.4-.8-.5-1.6-.9-2.4-.1-.2-.4-.2-.5.1zm3.6-.5c.3-.4-.2-.9-.5-.5-.3.2-.6.5-.9.8-.3.2-.6.4-.9.7-.2.2 0 .5.2.4.8-.1 1.7-.8 2.1-1.4zm-1.5-.5c.2.1.3-.1.3-.3-.2-.4-.5-.8-.7-1.3-.2-.4-.2-1-.5-1.3-.1-.1-.3-.1-.3.1-.2.5.1 1 .3 1.5.1.5.4 1 .9 1.3zm1.2-4c-.3.2-.5.4-.7.6-.2.2-.5.4-.8.7-.2.2 0 .5.2.4.6-.2 1.4-.8 1.6-1.3.2-.3 0-.6-.3-.4zm.4-3.6c-.3.1-.5.4-.7.6-.2.2-.5.5-.8.7-.2.2.1.5.3.4.6-.2 1.4-.8 1.6-1.4.1-.3-.2-.5-.4-.3zm-.7-1.4c0-.1-.2-.2-.3-.1-.5.4-.3 1.2 0 1.6.2.2.5 0 .4-.2s-.2-.4-.1-.7v-.6zm1.6-2c0-.1.1-.2 0-.3-.1-.2-.3-.2-.5-.1-.1.1-.2.3-.3.4-.2.2-.4.3-.6.4-.3.1-.1.6.2.5.5-.1 1-.4 1.2-.9zm-.9-2.7c-.4.5-.1 1.4.3 1.9.2.2.5 0 .4-.2 0-.3-.1-.6-.2-.9 0-.2 0-.4-.1-.6 0-.4-.3-.3-.4-.2zm.8-1c.5-.1 1-.3 1-.8 0-.2-.2-.4-.4-.3-.3.2-.5.5-.8.6-.1.2 0 .6.2.5zm.7-1.8c.2.1.4-.1.3-.3-.1-.2-.2-.4-.3-.7-.1-.2-.1-.4-.2-.6-.1-.2-.4-.2-.5 0-.2.5.1 1.3.7 1.6zM75 183.7c.1.6.8 1.1 1.4.8.2-.1.2-.4 0-.5-.2-.1-.4-.1-.6-.2-.2-.1-.3-.2-.5-.4-.1-.1-.3.1-.3.3zm45.2-6.2c.6 0 1-.6 1.3-1 .4-.5.7-1.1.8-1.7.1-.3-.3-.5-.5-.2-.3.5-.6 1-1 1.4-.3.4-.8.7-.9 1.1 0 .2.1.4.3.4zm8-10.1c-.6.6-.9 1.5-1.6 2.1-.6.6-1.4 1.2-2.2 1.6-.3.1-.1.6.2.5 1-.3 1.8-.8 2.6-1.5.6-.6 1.5-1.6 1.4-2.5.1-.3-.2-.4-.4-.2zm-1.8.3c.2.2.6 0 .5-.3-.2-.6-.6-1.2-.7-1.9-.2-.7-.1-1.6-.4-2.3-.1-.3-.5-.3-.6 0-.2.8 0 1.7.2 2.5s.5 1.5 1 2zm3.9-6.9c.2-.4-.3-.9-.6-.5-.5.6-.9 1.3-1.4 1.9-.5.6-1.1 1.1-1.7 1.5-.2.2 0 .6.3.5 1.4-.5 2.7-2.1 3.4-3.4zm-2.4.2c.2.2.5-.1.4-.4-.3-.6-.8-1-1.2-1.5-.4-.5-1.1-1-1.1-1.7.1-.5-.7-.5-.8-.1-.3.7.2 1.3.7 1.8.6.6 1.3 1.4 2 1.9zm.9-5.2c-.5.6-1.1 1.2-1.7 1.7-.2.2.1.6.3.4.8-.4 1.4-.9 2-1.6.5-.5 1.1-1.3 1.1-2 0-.2-.2-.3-.4-.2-.6.4-.9 1.2-1.3 1.7zm-1.1-1.3c.3.2.6-.2.4-.5-.5-.5-.9-1.1-1.2-1.7-.2-.5-.2-1.2-.5-1.6-.1-.1-.4-.1-.5.1-.4.6.1 1.5.3 2 .4.7.9 1.3 1.5 1.7zm.2-3.7c.6-.3 1.1-.7 1.5-1.3.3-.4.8-1.1.5-1.7-.1-.1-.2-.2-.4-.1-.4.3-.5.9-.8 1.3-.3.5-.8.9-1.2 1.3-.2.3.2.7.4.5zm-5 3.3c-.3.2-.5.5-.7.9-.2.4-.5.8-.8 1.1-.2.3.1.6.4.4.6-.5 1.5-1.3 1.4-2.1.1-.2-.2-.4-.3-.3zm-1.1-.2c.2 0 .2-.2.2-.3-.2-.4-.6-.6-.7-1-.2-.4-.2-.9-.3-1.3-.1-.2-.3-.2-.4-.1-.6.9.2 2.7 1.2 2.7zm-.2-3.8c.4-.5.9-1 1.3-1.5.3-.4.8-.8.8-1.3 0-.2-.2-.3-.3-.2-.5.2-.8.7-1.1 1.1-.4.5-.7 1.1-1.1 1.6-.2.2.2.5.4.3zm6 32.9c2 0 4.8-1.4 6-3.1.2-.3-.2-.7-.5-.5-.9.5-1.7 1.3-2.7 1.8-1 .5-2 .8-3 1.2-.2.2 0 .6.2.6zm2.8-2.9c-.3-1.6-1-3.1-1.1-4.8 0-.4-.5-.4-.6-.1-.3.8 0 1.7.2 2.5.3.9.6 1.7.9 2.6.3.4.7.1.6-.2zm3.4-6.2c-.7.1-1.2.8-1.8 1.1-.6.3-1.4.4-1.7 1-.1.2.1.4.3.4.7-.1 1.5-.5 2.1-.9.5-.3 1.3-.8 1.3-1.5 0 .1-.1-.1-.2-.1zm-2-3.8c-.1-.2-.4-.2-.5-.1-.7 1.1-.1 2.9.5 3.9.2.3.7.1.5-.2-.2-.6-.4-1.3-.5-1.9 0-.6.1-1.2 0-1.7zm2.4-2.2c-.4.2-.6.6-.8 1-.3.4-.6.8-1 1.2-.2.2.1.6.3.4.7-.5 1.9-1.4 1.8-2.4 0-.1-.2-.3-.3-.2zm-1.9-1.3c.1.4.1.9.4 1.3.1.2.4.1.4-.1 0-.4-.1-.8-.2-1.2 0-.3 0-.6-.2-.8-.1-.1-.2-.1-.2 0-.3.2-.3.5-.2.8zm1-1.2c.6-.3 1.3-1.1 1-1.8-.1-.1-.2-.1-.3-.1-.3.2-.3.4-.5.7-.2.3-.4.6-.6.8-.1.3.2.5.4.4zm.8-2.8c.2.1.5-.2.3-.4-.3-.3-.5-.6-.6-1-.1-.3-.1-.7-.2-1.1-.1-.2-.3-.2-.4-.1-.6 1 .1 2.2.9 2.6zm-.8-3.9c.5-.1.8-.6 1.1-.9.3-.4.6-.7.5-1.2 0-.1-.2-.2-.3-.2-.4.2-.6.6-.8.9-.3.4-.7.7-.8 1.1-.1.2.1.3.3.3zm.8-3.2c.3.1.5-.4.2-.5-.4-.3-.6-.9-.7-1.4-.1-.3-.4-.2-.5 0-.3.8.3 1.6 1 1.9zm-.5-5.2c.3-.4.8-1.1.8-1.7 0-.1-.1-.2-.3-.2-.5.3-.8 1.1-1 1.6-.1.4.3.5.5.3zm8.5 33.7c.2.1.4-.2.2-.3-.9-.6-1.8-1.6-2.3-2.5-.5-.9-.7-1.8-1.1-2.7-.1-.3-.4-.1-.5.1-.2 2.3 1.8 4.5 3.7 5.4zm.3-8.4c-.5.6-.8 1.4-1.2 2.1-.5.7-1.1 1.3-1.6 2-.2.2.2.5.4.4 1.4-.6 2.9-2.6 3-4.2-.2-.3-.5-.5-.6-.3zm-1.9.3c.3.1.6-.3.3-.5-.7-.4-1.3-1-1.7-1.7-.4-.6-.5-1.4-.9-2-.1-.2-.4-.2-.5.1-.4 1.8 1.4 3.5 2.8 4.1zm1.7-8.5c-.5.7-.7 1.5-1.1 2.2-.5.8-1.1 1.4-1.6 2.1-.2.2 0 .5.3.4 1.4-.8 3-2.8 3-4.5-.1-.3-.5-.4-.6-.2zm-1.8 1c.3.1.5-.3.3-.5-.6-.5-1.3-.9-1.8-1.6-.5-.6-.6-1.4-1.1-1.9-.1-.1-.4-.1-.4.1-.3 1.6 1.5 3.6 3 3.9zm1-7.4c-.5.5-.8 1.2-1.2 1.8-.4.6-1 1.2-1.4 1.9-.1.2.1.5.3.3 1.2-.8 2.5-2.3 2.7-3.8 0-.2-.2-.4-.4-.2zm-1.4.7c.3.1.4-.4.1-.5-.7-.3-1.2-.9-1.6-1.4-.4-.5-.6-1.1-1-1.5-.1-.1-.4-.1-.4.1 0 .7.6 1.5 1 2 .5.7 1.1 1.1 1.9 1.3zm1-6.9c-.4.4-.7 1-1 1.5-.4.6-.8 1.1-1.3 1.7-.2.2.1.5.3.3.6-.4 1.1-.9 1.5-1.5.4-.5.9-1.1 1-1.8 0-.2-.3-.4-.5-.2zm-3.6-1.7c-.3.5 0 1.2.3 1.6.2.2.4.4.7.6.3.1.7.3.8.6.1.3.5.1.4-.2-.1-.5-.4-.8-.9-1.1-.3-.2-.5-.4-.7-.7-.1-.2-.2-.5-.4-.8.1-.1-.1-.1-.2 0zm2.6-3c-.3.3-.5.8-.7 1.2-.3.4-.6.9-.9 1.2-.2.2.1.6.3.4.5-.3.9-.7 1.2-1.2.3-.4.6-1 .5-1.5 0-.2-.3-.2-.4-.1zm-1.3.1c-.4-.2-.8-.5-1-.9-.2-.3-.4-.7-.6-1.1-.1-.1-.3-.1-.4.1-.3 1.1.8 2.1 1.8 2.4.3 0 .5-.3.2-.5zm-.7-2.5c.8-.8 1.8-2.2 1.6-3.4 0-.2-.3-.2-.4-.1-.3.5-.4 1.1-.7 1.6-.2.5-.5 1-.9 1.5-.2.3.2.6.4.4zm-.4-3.2c.3 0 .4-.4.1-.5-.3-.2-.7-.5-1-.6-.2-.1-.4.1-.4.3.2.5.8.7 1.3.8zM118 157.2c.4-.4.8-1 .9-1.5.1-.2-.2-.4-.4-.2-.4.4-.8 1-.9 1.5 0 .2.2.4.4.2z" fill="#0f0707" stroke-width="none" opacity="1" stroke="none"></path></g><g id="svga-group-glasses-single-move" transform="matrix(1,0,0,1,0,1)"><g id="svga-group-glasses-single" transform="matrix(1.0000001,0,0,1.0000001,-0.00000999249917299494,-0.000009408461764337517)"><path id="SvgjsPath22330" d="M96.39 88.35c0-5.08-4.12-9.2-9.2-9.2-3.3 0-6.19 1.75-7.82 4.36 0 0-.16.2-.4.21-.28.02-.46-.21-.46-.21a9.192 9.192 0 0 0-7.82-4.36c-5.08 0-9.2 4.12-9.2 9.2 0 .41.04.82.09 1.21h-.01s.82 6.76 5.54 11.68c5.19 5.41 10.9 7.7 11.82 7.72h.02c.92-.02 6.64-2.31 11.82-7.72 4.71-4.92 5.54-11.68 5.54-11.68h-.01c.06-.39.09-.8.09-1.21z" fill="url(#SvgjsLinearGradient22331)" opacity="1"></path><path id="SvgjsPath22338" d="M103.47 88.35c0-5.08 4.12-9.2 9.2-9.2 3.3 0 6.19 1.75 7.82 4.36 0 0 .16.2.4.21.28.02.46-.21.46-.21a9.192 9.192 0 0 1 7.82-4.36c5.08 0 9.2 4.12 9.2 9.2 0 .41-.04.82-.09 1.21h.01s-.82 6.76-5.54 11.68c-5.19 5.41-10.9 7.7-11.82 7.72h-.02c-.92-.02-6.64-2.31-11.82-7.72-4.71-4.92-5.54-11.68-5.54-11.68h.01c-.06-.39-.09-.8-.09-1.21z" fill="url(#SvgjsLinearGradient22339)" opacity="1"></path><path id="SvgjsPath22346" d="M138.35 87.34a9.111 9.111 0 0 0-1.3-3.79c-1.09-1.78-2.78-3.21-4.77-3.9a9.231 9.231 0 0 0-6.18-.05c-1.99.68-3.71 2.07-4.83 3.85l-.01.01-.01.01-.02.02-.04.03-.09.06c-.06.03-.13.05-.19.05-.12 0-.26-.08-.35-.17-1.05-1.7-2.67-3.06-4.55-3.76-1.87-.72-3.98-.8-5.89-.24a9.151 9.151 0 0 0-4.83 3.35c-.93 1.21-1.5 2.65-1.73 4.15-1.11-.4-2.3-.62-3.49-.62H100c-1.5 0-2.76.32-3.72.68-.22-1.52-.8-2.98-1.74-4.21-1.18-1.61-2.91-2.79-4.83-3.35s-4.02-.49-5.89.24c-1.88.7-3.49 2.06-4.55 3.76-.09.1-.22.18-.35.17-.06 0-.13-.02-.19-.05l-.09-.06-.04-.03-.02-.02-.01-.01-.01-.01c-1.12-1.78-2.85-3.17-4.83-3.85a9.293 9.293 0 0 0-6.18.05c-1.98.7-3.68 2.12-4.77 3.9-.72 1.14-1.15 2.45-1.3 3.79l-1.19-.07.17 1.46.97.03c.01.26.03.52.07.77l-.01.01.01.04c.74 4.5 2.67 8.91 5.93 12.16 1.61 1.63 3.39 3.09 5.3 4.36.96.63 1.94 1.22 2.96 1.74 1.04.5 2.04 1.03 3.24 1.24 1.2-.2 2.2-.74 3.24-1.24 1.02-.52 2.01-1.11 2.97-1.74a34.09 34.09 0 0 0 5.28-4.39c3.25-3.26 5.18-7.66 5.91-12.15v-.01l-.01-.01.08-1.2c0-.1-.02-.2-.02-.3.9-.38 2.15-.75 3.69-.73 1.17.01 2.33.24 3.41.67-.01.12-.03.24-.03.36l.08 1.2-.01.01v.01c.72 4.49 2.66 8.89 5.91 12.15 1.6 1.64 3.37 3.11 5.28 4.39.96.63 1.94 1.22 2.97 1.74 1.04.5 2.04 1.03 3.24 1.24 1.2-.21 2.2-.74 3.24-1.24 1.02-.52 2.01-1.11 2.96-1.74 1.91-1.27 3.69-2.73 5.3-4.36 3.27-3.26 5.19-7.66 5.93-12.16l.01-.04-.01-.01c.03-.26.05-.51.07-.77l.97-.03.17-1.46-1.21.07zm-41.97 1.01-.09 1.21v.01h.01c-.77 4.47-2.73 8.83-5.99 12.02a34.169 34.169 0 0 1-5.29 4.3c-.95.63-1.93 1.21-2.94 1.73-1 .49-2.07 1.03-3.13 1.21-1.06-.18-2.12-.72-3.13-1.21-1.01-.52-1.99-1.1-2.94-1.72a33.634 33.634 0 0 1-5.27-4.33c-3.24-3.18-5.21-7.53-5.97-11.98h.01l-.01-.04c-.28-2.05.14-4.2 1.24-5.97a9.032 9.032 0 0 1 4.74-3.84c1.95-.7 4.14-.7 6.09-.01a9.22 9.22 0 0 1 4.72 3.82l.13.04c-.03.03-.11-.01-.11-.02v.01l.01.01.03.02.05.05a.644.644 0 0 0 .4.15c.21 0 .38-.1.51-.25v-.01c1.05-1.65 2.61-2.98 4.44-3.7 1.82-.73 3.89-.82 5.79-.29a9.07 9.07 0 0 1 4.8 3.27c.94 1.21 1.53 2.66 1.76 4.17-.29.11-.55.22-.78.33l.44.91c.13-.06.29-.12.44-.19.02.11.04.2.04.3zm41.84 1.25c-.76 4.45-2.72 8.8-5.97 11.98-1.6 1.62-3.37 3.06-5.27 4.33-.95.62-1.93 1.21-2.94 1.72-1 .49-2.07 1.03-3.13 1.21-1.06-.19-2.12-.72-3.13-1.21-1.01-.52-1.99-1.1-2.94-1.73-1.9-1.26-3.68-2.69-5.29-4.3-3.26-3.18-5.23-7.55-5.99-12.02h.01v-.01l-.09-1.21c0-.12.03-.23.03-.35.2.08.4.15.6.25l.44-.91c-.3-.15-.62-.27-.94-.39.24-1.49.82-2.93 1.76-4.12a9.147 9.147 0 0 1 4.8-3.27c1.89-.53 3.96-.44 5.79.29 1.83.72 3.39 2.05 4.44 3.7v.01c.13.14.3.25.51.25.1 0 .2-.03.28-.07.04-.02.08-.05.12-.08l.05-.05.03-.02.01-.01v-.01c0 .01-.08.05-.11.02l.13-.04c1.09-1.75 2.77-3.14 4.72-3.82 1.95-.69 4.14-.69 6.09.01 1.96.68 3.67 2.06 4.74 3.84 1.1 1.77 1.52 3.92 1.24 5.97l.01.04z" fill="#26120b" stroke-width="none" opacity="1"></path></g></g></g></g></g><rect id="svga-credit-rect" width="200" height="15" x="0" y="185" fill="#ecf0f1" opacity="0.5" style="display: none;"></rect><text id="svga-credit-text" font-family="Avenir Next, Roboto, Helvetica, Arial, sans-serif" font-size="10px" text-anchor="start" font-weight="400" size="10px" anchor="start" weight="400" fill="#333333" x="33.40447998046875" y="182.60824704170227" style="display: none;"><tspan id="SvgjsTspan21060" dy="13" x="33.40447998046875">Created on AvatarMaker.com</tspan></text></g><defs id="SvgjsDefs21012"><linearGradient id="SvgjsLinearGradient22251" x1="78.1497" y1="84.6563" x2="78.1497" y2="104.4894" gradientUnits="userSpaceOnUse" class="svga-on-canvas-glasses-gradient-single-0-null"><stop id="SvgjsStop22252" stop-opacity="1" stop-color="#ffba38" offset="0.004166667" ></stop><stop id="SvgjsStop22253" stop-opacity="0.8314" stop-color="#f5b232" offset="0.1721" ></stop><stop id="SvgjsStop22254" stop-opacity="0.541" stop-color="#d99d24" offset="0.4612" ></stop><stop id="SvgjsStop22255" stop-opacity="0.1664" stop-color="#ac7b0c" offset="0.8343" ></stop><stop id="SvgjsStop22256" stop-opacity="0" stop-color="#966a00" offset="1" ></stop></linearGradient><linearGradient id="SvgjsLinearGradient22259" x1="-20.2071" y1="85.073" x2="-20.2071" y2="104.3473" gradientTransform="matrix(-1 0 0 1 100 0)" gradientUnits="userSpaceOnUse" class="svga-on-canvas-glasses-gradient-single-2-null"><stop id="SvgjsStop22260" stop-opacity="1" stop-color="#ffba38" offset="0.004166667" ></stop><stop id="SvgjsStop22261" stop-opacity="0.8314" stop-color="#f5b232" offset="0.1721" ></stop><stop id="SvgjsStop22262" stop-opacity="0.541" stop-color="#d99d24" offset="0.4612" ></stop><stop id="SvgjsStop22263" stop-opacity="0.1664" stop-color="#ac7b0c" offset="0.8343" ></stop><stop id="SvgjsStop22264" stop-opacity="0" stop-color="#966a00" offset="1" ></stop></linearGradient><linearGradient id="SvgjsLinearGradient22331" x1="78.944" y1="79.1453" x2="78.944" y2="108.9636" gradientUnits="userSpaceOnUse" class="svga-on-canvas-glasses-gradient-single-0-null"><stop id="SvgjsStop22332" stop-opacity="1" stop-color="#ff73b2" offset="0.004166667" ></stop><stop id="SvgjsStop22333" stop-opacity="0.8085" stop-color="#ff75ae" offset="0.1949" ></stop><stop id="SvgjsStop22334" stop-opacity="0.5986" stop-color="#ff79a0" offset="0.4039" ></stop><stop id="SvgjsStop22335" stop-opacity="0.3799" stop-color="#ff818a" offset="0.6217" ></stop><stop id="SvgjsStop22336" stop-opacity="0.1566" stop-color="#ff8b6c" offset="0.844" ></stop><stop id="SvgjsStop22337" stop-opacity="0" stop-color="#ff9452" offset="1" ></stop></linearGradient><linearGradient id="SvgjsLinearGradient22339" x1="-20.9152" y1="79.1453" x2="-20.9152" y2="108.9636" gradientTransform="matrix(-1 0 0 1 100 0)" gradientUnits="userSpaceOnUse" class="svga-on-canvas-glasses-gradient-single-1-null"><stop id="SvgjsStop22340" stop-opacity="1" stop-color="#ff73b2" offset="0.004166667" ></stop><stop id="SvgjsStop22341" stop-opacity="0.8085" stop-color="#ff75ae" offset="0.1949" ></stop><stop id="SvgjsStop22342" stop-opacity="0.5986" stop-color="#ff79a0" offset="0.4039" ></stop><stop id="SvgjsStop22343" stop-opacity="0.3799" stop-color="#ff818a" offset="0.6217" ></stop><stop id="SvgjsStop22344" stop-opacity="0.1566" stop-color="#ff8b6c" offset="0.844" ></stop><stop id="SvgjsStop22345" stop-opacity="0" stop-color="#ff9452" offset="1" ></stop></linearGradient></defs></svg>