<svg xmlns="http://www.w3.org/2000/svg" version="1.1" width="600px" height="600px" viewBox="0 0 200 200" style="overflow:hidden!important;"><g id="svga-group-wrapper"><g id="svga-group-backs-single"></g><g id="svga-group-humanwrap-move" transform="matrix(1,0,0,1,0,0)"><g id="svga-group-humanwrap"><g id="svga-group-hair-back-move" transform="matrix(1,0,0,1,0,0)"><g id="svga-group-hair-back"></g></g><g id="svga-group-humanbody-back"><path id="SvgjsPath21133" d="M77.8 105.9s4.8 37.7 10 55.8c0 0-6.4 8.8-14.5 11.9-28.7 11.2-35 11.2-39.6 15.2-2.4 2.1.2 11.1 1.8 17.2 1.3 5 1.7 13.2 1.7 13.2h132.2s1.6-33-.6-39.8-7.1-2.9-21.9-4.5c-14.8-1.6-28.7-10.3-31-13.2l.3-60-38.4 4.2z" fill="#f1d0bf" stroke-width="none" opacity="1" stroke="none"></path></g><g id="svga-group-chinshadow-single"><path id="SvgjsPath22673" d="m116 144 .2-42.4-38.4 4.2s2.7 21.2 6.3 39.5c7.1 1.1 12.3 1.4 12.3 1.4s9-.6 19.6-2.7z" fill="#d29a7d" stroke-width="none" opacity="1" stroke="none"></path></g><g id="svga-group-humanbody-front"><path id="SvgjsPath21134" d="M72.1 183.1s14.6-.2 20.4 2.6c5.8 2.9 12.7 2.4 16.1-1s21.6-7 21.6-7-19.7 1.9-25 4.6c-5.3 2.7-22.3-2.8-33.1.8z" fill="#d29a7d" stroke-width="none" opacity="1" stroke="none"></path><path id="SvgjsPath21135" d="M74.2 173.2c6.7-1.3 14.7-6.4 14.7-6.4l6.2 5.5c-4.3-7.9-12.7-41.1-12.7-41.1l-.7.7c1.7 10.5 3.9 21.9 6.1 29.7 0 0-6 8.2-13.6 11.6z" fill="#d29a7d" stroke-width="none" opacity="1" stroke="none"></path><path id="SvgjsPath21136" d="M170.7 188.5c-.1-2.1-.2-4.1-.4-6.2-.1-1-.3-2.1-.6-3.2-.2-.5-.4-1-.6-1.6-.2-.5-.6-1-1-1.5s-.9-.9-1.5-1.1c-.6-.3-1.1-.4-1.7-.6-1.1-.2-2.2-.2-3.2-.2-2.1 0-4.1.1-6.1.1s-4-.1-6-.2-4-.4-6-.7c-1-.2-2-.4-2.9-.6l-1.5-.4c-.5-.1-1-.3-1.4-.4-3.8-1.1-7.6-2.6-11.2-4.4l-1.3-.7-1.3-.7c-.4-.2-.9-.5-1.3-.8s-.9-.5-1.3-.8-.8-.5-1.3-.8l-1.2-.9-.6-.5-.3-.2-.3-.2c-.2-.2-.4-.3-.5-.5l-.2-.3v-44.6l-.1-15v-.6l-.6.1c-6.4.8-12.9 1.5-19.3 2.3l-19.1 2.3v.5l.1.4.1.9.2 1.8c.1 1.2.3 2.3.4 3.5l.9 7c.6 4.7 1.3 9.4 2.1 14 .8 4.7 1.5 9.3 2.5 14 .9 4.5 1.8 9 3 13.5-1.1 1.4-2.3 2.7-3.6 4-1.3 1.3-2.8 2.6-4.3 3.8-1.5 1.1-3.1 2.2-4.8 3l-1.3.6c-.4.2-.9.3-1.3.5l-2.7 1c-7.2 2.7-14.5 5.3-21.8 7.7l-5.5 1.8c-1.8.6-3.7 1.3-5.5 2.2-.4.2-.9.5-1.3.7-.4.3-.9.5-1.3.9l-.6.5c-.2.2-.5.5-.6.8-.3.5-.4 1.1-.5 1.6-.2 1.1-.1 2.1 0 3.1s.3 2 .4 2.9c.4 1.9.8 3.8 1.3 5.7l.8 2.8c.3.9.5 1.8.7 2.8.4 1.9.7 3.8.9 5.7s.4 3.8.5 5.7v.8h133.4v-.8c.2-4.1.4-8.2.5-12.3s.2-8.2.2-12.3c0-1.8-.1-3.8-.1-5.9zm-67.4 30.3H70.2l-16.5-.1-16-.1c-.1-1.8-.2-3.5-.4-5.3-.2-1.9-.4-3.9-.8-5.8-.2-1-.4-1.9-.7-2.9l-.7-2.8c-.5-1.9-.9-3.7-1.2-5.6-.2-.9-.3-1.9-.4-2.8-.1-.9-.1-1.9 0-2.7.1-.4.2-.8.4-1.1.1-.2.2-.3.3-.4l.5-.4c.3-.3.7-.5 1.1-.8.4-.2.8-.5 1.2-.7 1.7-.8 3.5-1.4 5.3-2l5.5-1.8c7.3-2.4 14.6-5 21.8-7.8l2.7-1c.5-.2.9-.3 1.4-.5l1.4-.6c1.8-.9 3.4-2 5-3.2s3-2.5 4.4-3.9 2.7-2.9 3.8-4.5l.2-.3-.1-.3c-1.3-4.5-2.3-9.1-3.3-13.7s-1.9-9.3-2.7-13.9c-.8-4.6-1.6-9.3-2.4-14l-2.2-13.9 19.3-1.8c6.2-.6 12.3-1.2 18.5-1.8l-.2 14.4-.2 15-.3 30v.4l.2.2.6.7.6.6.3.3.3.2.6.5c.4.3.9.6 1.3.9.4.3.9.6 1.3.9.4.3.9.5 1.3.8s.9.5 1.3.8l1.4.8 1.4.7c.5.2.9.5 1.4.7l1.4.7c1 .4 1.9.8 2.9 1.2s1.9.8 2.9 1.1l1.5.5c.5.2 1 .3 1.5.4.5.1 1 .3 1.5.4l1.5.4c1 .3 2 .4 3 .6 2 .4 4.1.6 6.2.8 2.1.2 4.1.2 6.2.2 2.1 0 4.1-.1 6.1-.1s4 .1 5 1.3c.5.6.9 1.4 1.2 2.3.3.9.4 1.9.6 2.8.3 2 .4 4 .5 6s.1 4.1.2 6.1c.1 7.9-.1 15.8-.4 23.7-10.8.1-21.5.1-32.3.2h-33.1z" fill="#c38260" stroke-width="none" opacity="1" stroke="none"></path><path id="SvgjsPath21137" d="M150.7 219.2 147 198l-.4 21.2z" fill="#d29a7d" stroke-width="none" opacity="1" stroke="none"></path><path id="SvgjsPath21138" d="M47.3 203.5s2.2 11.5 2.9 15.7h3.5l-6.4-15.7z" fill="#d29a7d" stroke-width="none" opacity="1" stroke="none"></path></g><g id="svga-group-clothes-single"><path id="SvgjsPath23361" d="M67.44 197.26s-7.93 11.38-14.61 21.69l94.93.05s-6.01-7.26-17.72-24.24c0 0-17.31 12.83-27.99 20.08.01.01-20.1-8.8-34.61-17.58z" fill="#65a630" stroke-width="none" opacity="1"></path><path id="SvgjsPath23362" d="M148.33 218.53c-3.06-3.91-5.97-7.99-8.88-12.05-2.5-3.5-4.95-7.04-7.38-10.6.58-5.92 3.97-24.68 3.97-24.68l-2.54-.91-5.78 24.88-12.21 8.89c-4.5 3.28-9.02 6.54-13.57 9.74-2.8-1.2-5.6-2.45-8.38-3.72-2.93-1.36-5.88-2.69-8.79-4.09-2.92-1.38-5.81-2.84-8.7-4.28-1.44-.74-2.88-1.47-4.31-2.23l-1.33-.71-7.23-22.68-2.09.75 4.78 22.32-.49.65-1.93 2.64c-1.28 1.76-2.58 3.52-3.83 5.31-2.51 3.57-5.01 7.15-7.44 10.77l-.78 1.16 1.42.02c7.91.09 15.82.17 23.73.14 7.91-.04 15.82-.27 23.73-.41 7.91-.17 15.82-.18 23.73-.11 7.91.06 15.82.25 23.73.39l1.53.03-.96-1.22zm-48.03-.02c-7.91-.15-15.82-.38-23.73-.43-7.45-.04-14.9.02-22.34.1 2.07-3.29 4.14-6.58 6.26-9.84l3.52-5.51 1.77-2.75.88-1.38.44-.69.22-.35c.07-.12.17-.23.16-.3 1.38.9 2.62 1.74 4.05 2.57 1.38.85 2.79 1.66 4.18 2.48 2.81 1.62 5.67 3.16 8.53 4.68 2.87 1.51 5.75 3 8.67 4.42s5.84 2.82 8.8 4.17l.45.2.43-.29c4.81-3.17 9.5-6.49 14.18-9.82 2.35-1.66 4.66-3.37 6.98-5.06 2.04-1.49 4.06-2.99 6.08-4.5 2.68 3.81 5.39 7.6 8.15 11.35 1.48 2.02 3 4.02 4.53 6 1.23 1.59 2.47 3.16 3.75 4.72-7.41.13-14.81.3-22.22.34-7.92.09-15.83.07-23.74-.11z" fill="#43870c" stroke-width="none" opacity="1"></path></g><g id="svga-group-head" transform="matrix(1,0,0,1,0,0)"><g id="svga-group-ears-left-move" transform="matrix(1,0,0,1,0,1)"><g id="svga-group-ears-left" transform="matrix(0.9499998000000001,0,0,0.9499998000000001,2.7928567066604586,4.896159873867788)"><path id="SvgjsPath22745" d="M62.22 91.07s-9.85-8.65-11.43-8.8c-1.36-.13-4.73 7.07-6.22 11.62-.39 1.2-.3 2.54.22 3.7 1.43 3.16 4.6 9.75 7.44 13.05 0 0 2.4.52 3.16.29s6.69-5 7.3-6.86.74-9.97-.47-13z" fill="#f1d0bf" stroke-width="none" opacity="1" stroke="none"></path><path id="SvgjsPath22746" d="M63.07 94.44c.16 1.16.25 2.33.29 3.5.05 1.17.05 2.34-.01 3.51-.03.59-.08 1.17-.15 1.76-.05.3-.09.59-.17.9-.09.31-.25.62-.41.85-.64.98-1.41 1.72-2.18 2.48-.78.74-1.58 1.44-2.39 2.12-.41.33-.82.67-1.25.98-.21.16-.43.31-.65.46l-.35.22c-.14.07-.31.15-.47.17-.59.07-1.09-.01-1.61-.08-.51-.07-1.02-.17-1.53-.28l-.12-.03-.07-.09c-1.28-1.53-2.32-3.25-3.3-4.99-.97-1.75-1.85-3.56-2.7-5.38l-1.25-2.75c-.44-.92-.63-2.02-.48-3.05.06-.52.23-1.01.39-1.48s.33-.94.5-1.41c.35-.93.7-1.86 1.07-2.78.76-1.83 1.55-3.65 2.59-5.32.26-.42.54-.82.88-1.2.17-.19.35-.37.6-.52.12-.07.27-.14.46-.14.17.01.28.06.42.1.94.41 1.65 1 2.43 1.56 1.52 1.14 2.98 2.35 4.41 3.61 1.44 1.25 2.85 2.53 4.24 3.87.43 1.1.64 2.26.81 3.41zm-9.79-10.31c-.75-.52-1.54-1.11-2.29-1.42-.08-.02-.18-.07-.23-.07-.03 0-.1.01-.18.06-.15.08-.31.22-.45.39-.3.32-.57.7-.83 1.09-1.02 1.59-1.92 3.33-2.74 5.1-.41.89-.81 1.78-1.16 2.71-.18.46-.35.92-.52 1.39-.17.47-.34.92-.4 1.41-.13.98.06 2 .49 2.88.42.91.86 1.81 1.32 2.7.9 1.78 1.87 3.52 2.88 5.22 1.02 1.69 2.09 3.35 3.32 4.79l-.19-.11c.97.18 2.03.38 2.91.29.1-.01.16-.06.25-.1l.31-.2.62-.45c.41-.3.82-.63 1.23-.95.81-.66 1.6-1.34 2.37-2.06.75-.72 1.52-1.47 2.11-2.3.15-.22.25-.4.33-.63.07-.24.12-.51.17-.78.08-.55.15-1.12.19-1.69.08-1.14.12-2.29.13-3.45.01-1.15-.04-2.31-.13-3.46-.09-1.14-.23-2.32-.59-3.39-2.96-2.34-5.91-4.75-8.92-6.97z" fill="#e2b49c" stroke-width="none" opacity="1" stroke="none"></path><path id="SvgjsPath22747" d="M62.45 98.39S52.96 86.4 51.18 87.4s-4.58 6.65-4.57 8.53c.02 2.77 2.95 7.4 4.42 8.8s3.25 2.25 5.6 1.71 5.82-8.05 5.82-8.05z" fill="#e2b49c" stroke-width="none" opacity="1" stroke="none"></path><path id="SvgjsPath22748" d="M56.36 101.74c-.34-1.14-.73-2.26-1.13-3.37a93.8 93.8 0 0 0-1.28-3.3c-.45-1.09-.93-2.16-1.46-3.21-.54-1.04-1.08-2.08-1.74-3.05l-.07-.11-.07.11c-.66 1.04-1.28 2.1-1.88 3.2-.3.55-.58 1.1-.85 1.67-.28.56-.51 1.16-.74 1.75l-.04.09.04.11c.41 1.24.84 2.46 1.29 3.69.22.61.48 1.21.73 1.81.26.6.52 1.19.87 1.78l.17.27.22-.2c.3-.28.53-.58.77-.9.23-.32.43-.67.61-1.03.35-.73.56-1.57.53-2.42v-.05l-.02-.04c-.44-.87-.91-1.73-1.36-2.6l-.05.03c.37.91.74 1.83 1.13 2.73l-.02-.09c-.03.77-.26 1.51-.61 2.16-.35.65-.82 1.24-1.32 1.7l.39.07c-.3-.51-.56-1.11-.81-1.69l-.72-1.79c-.48-1.2-.93-2.41-1.38-3.62v.2c.4-1.18.85-2.35 1.38-3.47.52-1.13 1.12-2.22 1.8-3.22h-.14c.63.95 1.08 2.04 1.55 3.11l1.36 3.24 1.38 3.24c.46 1.08.92 2.16 1.41 3.23l.06-.03z" fill="#c38260" stroke-width="none" opacity="1" stroke="none"></path></g></g><g id="svga-group-ears-right-move" transform="matrix(1,0,0,1,0,1)"><g id="svga-group-ears-right" transform="matrix(0.9499998000000001,0,0,0.9499998000000001,7.207187108052068,4.8966596012084835)"><path id="SvgjsPath22749" d="M137.78 91.07s9.85-8.65 11.43-8.8c1.36-.13 4.73 7.07 6.22 11.62.39 1.2.3 2.54-.22 3.7-1.43 3.16-4.6 9.75-7.44 13.05 0 0-2.4.52-3.16.29s-6.69-5-7.3-6.86c-.61-1.86-.74-9.97.47-13z" fill="#f1d0bf" stroke-width="none" opacity="1" stroke="none"></path><path id="SvgjsPath22750" d="M137.75 91.04c1.4-1.34 2.8-2.62 4.24-3.87 1.43-1.26 2.9-2.47 4.41-3.61.78-.55 1.49-1.14 2.43-1.56.14-.04.25-.1.42-.1.19 0 .34.07.46.14.24.15.43.33.6.52.34.38.61.78.88 1.2 1.04 1.67 1.83 3.49 2.59 5.32.38.92.72 1.85 1.07 2.78.17.47.34.94.5 1.41.16.47.33.96.39 1.48.15 1.03-.04 2.13-.48 3.05l-1.25 2.75c-.85 1.82-1.73 3.63-2.7 5.38-.98 1.75-2.02 3.46-3.3 4.99l-.07.09-.11.02c-.51.11-1.02.2-1.53.28-.52.07-1.02.14-1.61.08-.16-.02-.32-.09-.47-.17l-.35-.22c-.22-.15-.44-.3-.65-.46-.43-.32-.84-.65-1.25-.98-.82-.67-1.62-1.38-2.39-2.12-.77-.76-1.54-1.49-2.18-2.48a3.05 3.05 0 0 1-.41-.85c-.09-.31-.13-.61-.17-.9-.07-.59-.12-1.18-.15-1.76-.06-1.17-.06-2.34-.01-3.51.05-1.17.13-2.34.29-3.5.15-1.15.36-2.31.8-3.4zm.06.05c-.35 1.07-.49 2.24-.59 3.39-.09 1.15-.14 2.31-.13 3.46.01 1.15.05 2.3.13 3.45.04.57.11 1.14.19 1.69.05.27.1.54.17.78.08.23.18.42.33.63.59.83 1.36 1.58 2.11 2.3.76.72 1.56 1.41 2.37 2.06.41.33.81.65 1.23.95l.62.45.31.2c.09.04.15.09.25.1.88.09 1.94-.11 2.91-.29l-.19.11c1.23-1.44 2.3-3.1 3.32-4.79a93.9 93.9 0 0 0 2.88-5.22c.45-.89.9-1.79 1.32-2.7.43-.88.62-1.9.49-2.88-.06-.49-.23-.94-.4-1.41-.16-.47-.34-.93-.52-1.39-.35-.92-.76-1.82-1.16-2.71-.82-1.77-1.72-3.51-2.74-5.1-.26-.39-.53-.77-.83-1.09-.15-.16-.31-.3-.45-.39a.314.314 0 0 0-.18-.06c-.05 0-.15.06-.23.07-.75.31-1.54.9-2.29 1.42-3.02 2.23-5.97 4.64-8.92 6.97z" fill="#e2b49c" stroke-width="none" opacity="1" stroke="none"></path><path id="SvgjsPath22751" d="M137.55 98.39s9.49-11.99 11.27-10.99 4.58 6.65 4.57 8.53c-.02 2.77-2.95 7.4-4.42 8.8-1.47 1.39-3.25 2.25-5.6 1.71-2.35-.54-5.82-8.05-5.82-8.05z" fill="#e2b49c" stroke-width="none" opacity="1" stroke="none"></path><path id="SvgjsPath22752" d="M143.64 101.74c.34-1.14.73-2.26 1.13-3.37.4-1.11.84-2.21 1.28-3.3.45-1.09.93-2.16 1.46-3.21.54-1.04 1.08-2.08 1.74-3.05l.07-.11.07.11c.66 1.04 1.28 2.1 1.88 3.2.3.55.58 1.1.85 1.67.28.56.51 1.16.74 1.75l.04.09-.04.11c-.41 1.24-.84 2.46-1.29 3.69-.22.61-.48 1.21-.73 1.81-.26.6-.52 1.19-.87 1.78l-.17.27-.22-.2c-.3-.28-.53-.58-.77-.9-.23-.32-.43-.67-.61-1.03-.35-.73-.56-1.57-.53-2.42v-.05l.02-.04c.44-.87.91-1.73 1.36-2.6l.05.03c-.37.91-.74 1.83-1.13 2.73l.02-.09c.03.77.26 1.51.61 2.16.35.65.82 1.24 1.32 1.7l-.39.07c.3-.51.56-1.11.81-1.69l.72-1.79c.48-1.2.93-2.41 1.38-3.62v.2c-.4-1.18-.85-2.35-1.38-3.47-.52-1.13-1.12-2.22-1.8-3.22h.14c-.63.95-1.08 2.04-1.55 3.11l-1.36 3.24-1.38 3.24c-.46 1.08-.92 2.16-1.41 3.23l-.06-.03z" fill="#c38260" stroke-width="none" opacity="1" stroke="none"></path></g></g><g id="svga-group-faceshape-wrap"><g id="svga-group-faceshape-single"><path id="SvgjsPath22663" d="M145.4 78.8s-2.4-21.2-9.5-29c-6.7-7.4-11.3-13.2-28.8-17.3-1.8-.4-12.3-.4-14.1 0-17.5 4.1-22.1 9.9-28.8 17.3-7.1 7.8-9.5 29-9.5 29-.8 35.3 2.3 49 2.3 49 14.9 9.1 43.1 10.9 43.1 10.9s28.2-1.8 43.1-10.9c-.1 0 3.1-13.7 2.2-49z" fill="#f1d0bf" stroke-width="none" opacity="1" stroke="none"></path><path id="SvgjsPath22664" d="M100.1 138.7s28.2-1.8 43.1-10.9c0 0 3.1-13.7 2.3-49 0 0-2.4-21.2-9.5-29-6.7-7.4-11.3-13.2-28.8-17.3-1.8-.4-12.3-.4-14.1 0-17.5 4.1-22.1 9.9-28.8 17.3-7.1 7.8-9.5 29-9.5 29-.8 35.3 2.3 49 2.3 49 14.8 9.1 43 10.9 43 10.9zm-44.4-35.4c-.2-4.1-.4-8.2-.5-12.2l-.1-6.1v-6.1c.2-1.5.4-3 .6-4.4.2-1.5.5-3 .8-4.4.6-2.9 1.4-5.8 2.3-8.7.9-2.8 2.1-5.6 3.6-8.1l.6-.9.3-.5.3-.4c.2-.3.5-.6.7-.8.2-.3.5-.5.8-.8 1-1.1 2.1-2.2 3.1-3.3 2.1-2.1 4.3-4.1 6.8-5.7 2.4-1.6 5.1-2.9 7.9-3.9 2.7-1.1 5.6-1.8 8.5-2.5l1.1-.3.5-.1.3-.1h2.3c1.5 0 3-.1 4.5-.1s3 0 4.5.1c.4 0 .7 0 1.1.1h1.2l.1-.1.5.1 1.1.3 1.1.3 1.1.3 2.1.6 2.1.7c.7.2 1.4.5 2.1.7 2.7 1 5.4 2.3 7.8 3.9 2.4 1.6 4.7 3.5 6.8 5.6 1.1 1.1 2.1 2.1 3.1 3.2l.8.8c.2.3.5.5.7.8l.3.4.3.4.6.9c1.6 2.5 2.7 5.3 3.7 8.1 1.9 5.7 3.2 11.6 3.9 17.6l.1 6.1v6.1c-.1 2-.1 4.1-.2 6.1s-.2 4.1-.3 6.1c-.2 4.1-.6 8.2-1.1 12.2-.2 2-.5 4-.8 6.1-.2 1-.3 2-.5 3l-.3 1.5c-.1.3-.1.6-.2.9-3 1.7-6.2 2.9-9.5 4-1.7.6-3.5 1.1-5.3 1.5-1.8.5-3.6.9-5.4 1.3-3.6.8-7.2 1.4-10.9 1.9-3.6.5-7.3 1-10.9 1.2-1.8-.1-3.6-.3-5.4-.5s-3.7-.4-5.5-.7c-3.7-.5-7.3-1.1-10.9-1.9-1.8-.4-3.6-.8-5.4-1.3s-3.5-1-5.3-1.6c-3.3-1.1-6.5-2.4-9.4-4.1-.2-.7-.3-1.5-.4-2.3-.2-1-.3-2-.4-3-.3-2-.5-4-.7-6.1-.2-3.8-.5-7.8-.7-11.9z" fill="#c38260" stroke-width="none" opacity="1" stroke="none"></path></g></g><g id="svga-group-mouth-single-move" transform="matrix(1,0,0,1,0,0)"><g id="svga-group-mouth-single"><path id="SvgjsPath22737" d="M86.6 123.3s1.8.5 3.7.3c1.2-.1 2.6-.2 3.7-.3 2.7-.4 5 .6 6.3 1.1s2.2 1.4 2.7 1.3 1.2-.9 2.5-2.1 3.3-1.3 5.6-1.2c.8 0 2 .1 3.1.2 1.3.1 3-.3 3.2-.4.1 0-2.2-.5-3.8-1.1-2.9-1-10-2-14.6-1.1-2.3.5-5.1 1.4-8.4 2.4-1.3.4-3.2.4-4 .9zm3.8 4.6s7.5 1.9 12 1.8c4.5-.1 11.3-3.4 11.3-3.4s-3.6 2.3-5.5 2.9-6.1 1.9-11.2.8-6.6-2.1-6.6-2.1z" fill="#9e5d65" stroke-width="none" opacity="1" stroke="none"></path></g></g><g id="svga-group-eyes-left-move" transform="matrix(1,0,0,1,0,2)"><g id="svga-group-eyes-left"><g id="svga-group-eyesback-left"><path id="SvgjsPath22779" d="M80.2 77.2c7.5 0 13.5 5.8 13.5 13s-6 13-13.5 13-13.5-5.8-13.5-13 6-13 13.5-13z" fill="#ffffff" stroke-width="none" opacity="1"></path></g><g id="svga-group-eyesiriswrapper-left" transform="matrix(1,0,0,1,0,0)"><g id="svga-group-eyesiriscontrol-left" transform="matrix(1,0,0,1,0,0)"><g id="svga-group-eyesiris-left"><path id="SvgjsPath23196" d="M80.2 84.6c3.1 0 5.6 2.5 5.6 5.6s-2.5 5.6-5.6 5.6-5.6-2.5-5.6-5.6 2.5-5.6 5.6-5.6z" fill="#66724e" stroke-width="none" opacity="1"></path><path id="SvgjsPath23197" d="M80.2 86.3c2.1 0 3.9 1.7 3.9 3.9s-1.7 3.9-3.9 3.9-3.9-1.7-3.9-3.9 1.8-3.9 3.9-3.9z" fill="#000000" stroke-width="none" opacity="1"></path><path id="SvgjsPath23198" d="m76.1 87.6 4.4 3.1-1.8-5.1c-.3-.4-2.5.8-2.6 2z" fill="#ffffff" stroke-width="none" opacity="1"></path></g></g></g><g id="svga-group-eyesfront-left"><path id="SvgjsPath22787" d="M80.2 76.7c-7.8 0-14.1 6.1-14.1 13.6s6.3 13.6 14.1 13.6 14.1-6.1 14.1-13.6S88 76.7 80.2 76.7zm-3.1 16.8c-5-2-8.7-5.1-9-5.9s6.6-2.2 9.6-1.9c3 .3 10.2 3.4 11.2 4.9 1 1.5 1.9 4.5 1.9 4.5-4.6 1.6-8.7.4-13.7-1.6z" fill="#f1d0bf" stroke-width="none" opacity="1" stroke="none"></path><path id="SvgjsPath22788" d="M89.7 89.6C88 87.4 78.2 85 77.4 84.8c-.3-.1-2.1 0-4.3 0-.5-.4-2.1-1.9-2.6-3.3-.1-.3-.4-.4-.7-.3s-.4.4-.3.7c.4 1.2 1.4 2.3 2.1 3-.6.1-1.2.1-1.8.1-.8-.5-2.2-1.6-2.9-2.8-.2-.3-.5-.3-.7-.2-.3.2-.3.5-.2.7.5.9 1.3 1.7 2.1 2.3-1.3.1-2.5.1-3.3.2-.3 0-.4.5-.1.6l3.4 1.8v.1c.1.2.2.2.3.4l1.2 1.2c.8.7 1.7 1.3 2.7 1.9 1.8 1.2 3.8 2.2 5.9 2.9 2 .8 4.2 1.5 6.3 1.7 2.2.3 4.4.1 6.4-.7.1.2.1.3.2.5.2.3.7.2.6-.2-.4-1.8-1-4.4-2-5.8zm-5.3 5.9c-2.1-.3-4.2-1.1-6.2-1.8-2-.8-4-1.7-5.8-2.8l-2.7-1.8c-.4-.3-.8-.7-1.2-1.1l-.1-.1c1.1-.3 6.8-1.9 8.8-2 .4 0 .7.1 1.1.2 2.5.7 9.5 3.8 10.3 4.9.5.6 1.4 2.6 2.2 4.3-2.1.4-4.3.5-6.4.2z" fill="#3e6121" stroke-width="none" opacity="1" stroke="none"></path></g></g></g><g id="svga-group-eyes-right-move" transform="matrix(1,0,0,1,0,2)"><g id="svga-group-eyes-right"><g id="svga-group-eyesback-right"><path id="SvgjsPath22780" d="M119.8 77.2c7.5 0 13.5 5.8 13.5 13s-6 13-13.5 13-13.5-5.8-13.5-13 6-13 13.5-13z" fill="#ffffff" stroke-width="none" opacity="1"></path></g><g id="svga-group-eyesiriswrapper-right" transform="matrix(1,0,0,1,0,0)"><g id="svga-group-eyesiriscontrol-right" transform="matrix(1,0,0,1,0,0)"><g id="svga-group-eyesiris-right"><path id="SvgjsPath23199" d="M119.8 85.3c2.7 0 4.9 2.2 4.9 4.9s-2.2 4.9-4.9 4.9-4.9-2.2-4.9-4.9 2.2-4.9 4.9-4.9z" fill="#66724e" stroke-width="none" opacity="1"></path><path id="SvgjsPath23200" d="M119.8 86.8c1.9 0 3.4 1.5 3.4 3.4s-1.5 3.4-3.4 3.4-3.4-1.5-3.4-3.4 1.5-3.4 3.4-3.4z" fill="#000000" stroke-width="none" opacity="1"></path><path id="SvgjsPath23201" d="m116.2 87.9 3.8 2.7-1.6-4.5c-.1-.3-2.1.8-2.2 1.8z" fill="#ffffff" stroke-width="none" opacity="1"></path></g></g></g><g id="svga-group-eyesfront-right"><path id="SvgjsPath22789" d="M119.8 76.7c-7.8 0-14.1 6.1-14.1 13.6s6.3 13.6 14.1 13.6 14.1-6.1 14.1-13.6-6.3-13.6-14.1-13.6zm3.4 16.1c-4.7 1.9-8.4 3.1-13 3.6 0 0 1.7-3.9 2.7-5.4s9.3-5 12-5.1 7.1 1.9 6.7 2.7c-.3.7-3.7 2.3-8.4 4.2z" fill="#f1d0bf" stroke-width="none" opacity="1" stroke="none"></path><path id="SvgjsPath22792" d="M135.6 86.6c-.8-.1-2-.2-3.3-.4.8-.7 1.1-1.4 1.1-1.4.1-.3.1-.6-.2-.8-.3-.2-.6-.1-.7.2 0 0-.6 1-1.8 1.8-.5-.1-1-.1-1.4-.2 1-1.2 1.2-2.7 1.2-2.8 0-.3-.2-.6-.5-.7s-.6.2-.6.5c0 0-.2 1.7-1.5 2.7l-.1.1c-2-.2-3.7-.4-4-.3-.8.2-9.9 2.2-11.7 4.5-1.1 1.5-1.9 4.7-2.3 6.7-.1.3.3.4.4.2.1-.1.1-.3.2-.4 4-.3 7.8-1.4 11.6-2.8 1.9-.7 3.8-1.5 5.7-2.4.9-.4 1.9-.9 2.8-1.5.2-.1.4-.3.7-.5l.3-.3 4-1.8c.4-.1.4-.4.1-.4zm-5.1 2.6c-.9.5-1.8.9-2.8 1.3-.9.4-1.9.8-2.8 1.2-.9.4-1.9.8-2.9 1.2-1.9.7-3.8 1.5-5.8 2-1.8.6-3.7.9-5.5 1.3.8-1.8 2-4.3 2.6-5 .9-1.2 11.4-4.9 12.9-5 1.3-.1 4.1 2.2 4.8 2.7-.2.1-.4.2-.5.3z" fill="#3e6121" stroke-width="none" opacity="1" stroke="none"></path></g></g></g><g id="svga-group-facehighlight-single"></g><g id="svga-group-eyebrows-left-move" transform="matrix(1,0,0,1,0,2)"><g id="svga-group-eyebrows-left-rotate" transform="matrix(0.9978589232386035,-0.06540312923014319,0.06540312923014319,0.9978589232386035,-4.143807552144068,5.313245312530057)"><g id="svga-group-eyebrows-left" transform="matrix(1.0500002000000002,0,0,1.0500002000000002,-3.919515838217933,-3.865077983138292)"><path id="SvgjsPath22932" d="M63.58 81.61s2.73-6.07 7.31-8.29c5.98-2.9 21.19 2.04 22.07 2.67.87.63.35 3.77-1.13 3.92-1.48.15-8.53-2.96-13.8-4.33-5.27-1.38-9.96 0-14.45 6.03z" fill="#6b4e40" stroke-width="none" opacity="1" stroke="none"></path><path id="SvgjsPath22933" d="M63.57 81.64c.12-.13.26-.26.39-.42l.37-.43c.24-.28.49-.55.74-.81.5-.52 1.02-1.03 1.58-1.49 1.09-.93 2.31-1.71 3.61-2.24 1.3-.53 2.7-.8 4.1-.78 1.41.01 2.8.26 4.18.67 2.78.78 5.52 1.77 8.27 2.72 1.38.47 2.75.96 4.22 1.28.19.03.37.07.57.07.2.01.44-.01.64-.1.41-.18.69-.52.88-.87.2-.35.32-.73.4-1.12.08-.39.1-.79.05-1.2-.03-.2-.07-.4-.16-.61-.08-.2-.23-.4-.44-.51-.36-.18-.7-.28-1.05-.41-.7-.23-1.39-.45-2.09-.66a90.5 90.5 0 0 0-4.22-1.12c-2.83-.68-5.67-1.3-8.59-1.47-1.45-.08-2.93-.04-4.37.27-.72.16-1.44.39-2.11.75-.66.35-1.28.77-1.85 1.24-1.14.95-2.13 2.09-2.98 3.3-.43.6-.82 1.25-1.18 1.9-.18.33-.35.66-.52.99-.08.17-.16.34-.24.5l-.11.26-.06.13-.02.06-.01.03-.01.02c-.01.01-.01.04.01.05zm.03-.07c1.45-2.5 3.19-4.99 5.44-6.73.56-.43 1.16-.82 1.78-1.13.61-.32 1.28-.52 1.97-.67 1.37-.27 2.8-.32 4.23-.3 1.43.02 2.86.15 4.29.34 1.43.18 2.85.43 4.27.75 1.42.32 2.81.7 4.2 1.13.69.21 1.39.45 2.06.71.33.13.68.27.98.42.24.13.34.5.36.84.04.7-.13 1.44-.48 2.02-.17.29-.41.53-.67.62-.13.05-.26.06-.42.05-.15-.01-.33-.05-.5-.09-.68-.16-1.37-.39-2.05-.62L87 78.17c-2.74-.99-5.47-2.05-8.3-2.83-1.41-.39-2.9-.66-4.37-.62-1.48.03-2.95.36-4.3.96-1.35.59-2.56 1.49-3.64 2.5-.55.5-1.04 1.05-1.51 1.62-.23.29-.47.57-.69.87-.11.14-.24.3-.31.44-.08.14-.16.31-.28.46z" fill="#5c3d2e" stroke-width="none" opacity="1" stroke="none"></path></g></g></g><g id="svga-group-eyebrows-right-move" transform="matrix(1,0,0,1,0,2)"><g id="svga-group-eyebrows-right-rotate" transform="matrix(0.9914448613738102,-0.13052619222005168,0.13052619222005168,0.9914448613738102,-8.358333419761465,16.77643926599086)"><g id="svga-group-eyebrows-right" transform="matrix(1.0500002000000002,0,0,1.0500002000000002,-6.115274666994509,-3.9094116184189005)"><path id="SvgjsPath22934" d="M136.97 82.09s-2.84-5.43-7.28-7.34c-5.81-2.49-20.12 2.3-20.92 2.88s-.19 3.42 1.23 3.52c1.41.1 8-2.86 12.98-4.22 4.95-1.34 9.48-.19 13.99 5.16z" fill="#6b4e40" stroke-width="none" opacity="1" stroke="none"></path><path id="SvgjsPath22935" d="m137 82.06-.01-.02-.02-.03-.03-.06-.06-.12-.12-.23c-.08-.15-.16-.31-.25-.45-.18-.3-.35-.59-.54-.88-.37-.59-.77-1.15-1.2-1.69-.86-1.08-1.84-2.09-2.97-2.92-.56-.41-1.17-.78-1.81-1.09-.64-.31-1.34-.49-2.04-.63-1.39-.25-2.8-.25-4.18-.15-2.77.22-5.46.84-8.13 1.51-1.33.35-2.66.7-3.97 1.1-.66.2-1.31.41-1.96.64-.33.12-.64.22-.98.39-.2.1-.33.29-.4.47s-.11.37-.13.56a3.636 3.636 0 0 0 .52 2.1c.2.32.48.61.88.77.19.07.42.1.62.08.19-.01.37-.04.54-.09 1.38-.32 2.67-.79 3.96-1.25 2.58-.92 5.16-1.87 7.78-2.64 1.3-.4 2.61-.65 3.96-.69 1.33-.04 2.68.17 3.93.62 1.26.45 2.45 1.13 3.53 1.95.54.41 1.06.86 1.56 1.32.25.23.49.47.74.71l.36.38c.13.14.27.26.39.37.02.01.03-.02.03-.03zm-.34-.4c-.08-.11-.21-.26-.32-.39-.22-.27-.45-.52-.69-.77-.47-.5-.97-.99-1.51-1.43-1.06-.89-2.25-1.66-3.55-2.18-1.3-.52-2.72-.78-4.13-.78-1.42-.01-2.82.26-4.14.65-2.66.76-5.22 1.78-7.79 2.74l-1.92.71c-.64.23-1.29.45-1.93.62-.16.04-.32.07-.47.09-.15.02-.27.01-.4-.03-.25-.08-.49-.29-.66-.54-.35-.51-.55-1.18-.53-1.82.01-.31.09-.64.31-.76.28-.15.6-.28.92-.41.64-.25 1.28-.48 1.93-.69 1.3-.42 2.63-.8 3.95-1.12 1.34-.32 2.68-.57 4.04-.77 1.36-.2 2.72-.34 4.07-.4s2.72-.05 4.03.18c.66.11 1.3.28 1.9.56.61.27 1.19.6 1.75.98 2.21 1.53 3.97 3.75 5.45 5.97-.13-.15-.22-.3-.31-.41z" fill="#5c3d2e" stroke-width="none" opacity="1" stroke="none"></path></g></g></g><g id="svga-group-nose-single-move" transform="matrix(1,0,0,1,0,0)"><g id="svga-group-nose-single"><path id="SvgjsPath22697" d="M96.3 94.66c-1.02 4.05-2.23 8.04-3.28 12.05-.13.5-.27 1-.37 1.5-.05.25-.09.5-.12.74-.01.12-.02.24-.01.34 0 .1.04.24.07.35.12.47.33.94.79.87.45-.05.91-.34 1.36-.6.23-.15.51-.24.79-.26.29-.03.57.05.82.16.51.23.89.62 1.26 1 .36.39.68.81 1 1.22.31.41.65.77 1.07.98.42.2.9.24 1.31.06.42-.16.78-.49 1.05-.87.26-.37.49-.87.76-1.33.27-.46.56-.93 1.02-1.34.23-.2.54-.39.92-.42.39-.03.73.14.98.31l.19.14.14.11c.09.08.2.14.29.21.2.13.41.25.62.34.21.09.43.16.63.19s.35-.01.4-.06c.06-.05.12-.18.12-.39.01-.21-.02-.47-.04-.71-.23-2.03-.63-4.09-1.01-6.13-.39-2.04-.81-4.08-1.29-6.11l.08-.02c.74 1.96 1.32 3.97 1.84 6 .51 2.03.97 4.06 1.25 6.17.03.27.06.53.05.85-.01.3-.09.72-.44 1.02-.35.29-.77.3-1.08.25-.32-.05-.6-.15-.86-.27-.26-.12-.5-.27-.74-.43-.11-.08-.23-.16-.34-.25l-.16-.13-.13-.1c-.34-.25-.59-.25-.94.03-.33.27-.62.7-.89 1.12-.28.43-.5.88-.86 1.35-.35.45-.81.84-1.39 1.01-.57.2-1.22.09-1.71-.2-.5-.29-.86-.74-1.15-1.18-.28-.43-.58-.85-.92-1.24-.33-.38-.71-.75-1.15-.95-.44-.23-.96-.16-1.37.1-.44.27-.87.6-1.46.71-.15.03-.31.01-.47-.04a.933.933 0 0 1-.39-.28c-.2-.24-.31-.5-.4-.76-.04-.14-.08-.25-.11-.41-.03-.17-.02-.3-.03-.44.01-.27.04-.54.07-.81.07-.53.16-1.05.27-1.56.44-2.05 1.06-4.05 1.71-6.04.65-1.98 1.36-3.95 2.16-5.88l.09.03z" fill="#c38260" stroke-width="none" opacity="1" stroke="none"></path><path id="SvgjsPath22698" d="M97.96 101.36c.54-.31 1.16-.46 1.79-.5.63-.04 1.26.04 1.87.22.6.2 1.18.46 1.69.83.26.17.49.39.73.58.22.22.43.44.63.68-.26-.16-.5-.35-.76-.52-.26-.15-.51-.33-.78-.47-.27-.14-.52-.29-.8-.39-.27-.13-.55-.21-.83-.31a6.89 6.89 0 0 0-1.75-.29 5.76 5.76 0 0 0-1.79.17z" fill="#c38260" stroke-width="none" opacity="1" stroke="none"></path><path id="SvgjsPath22699" d="M105.26 104.41c-1.21-1.82-4.55-2.57-6.6-2.32-.67.08-1.21 1.12-.4 1.48 1.02.45 2.07.75 3.12 1.11 1.04.36 2.02 1 3.14 1.01.63.01 1.1-.74.74-1.28z" fill="#f9dfd1" stroke-width="none" opacity="1" stroke="none"></path></g></g><g id="svga-group-hair-front"><path id="SvgjsPath22600" d="M99.8 50.9s-6-2.3-18.8 1.8-20.2 18.7-21.3 22.6C58.5 79.2 57 92.4 57 92.4s-5.2-11.3-4.5-18.1 1.8-12 1.8-12-6.6 7.2-14-2.9-.4-16.1-.4-16.1-5.8-8 2.3-12.8 10.1-2.3 10.1-2.3-.6-11.4 9.3-11.6c0 0 6.6-4.3 11.1-1 0 0 9.7-2.3 11.4 3.3 0 0 7.6 6.2-.2 9.7 0 0 9.5-1.2 15.9 2.5 0 0 11.8-5.2 20.2-.8 0 0 0-10.5 13.8-12s13.8 14 13.8 14 4.7-5.8 12.2 2.3c7.6 8.2 4.3 16.9 4.3 16.9s-2.3 10.3-8.7 6c0 0 9.9 8.9-1.4 13 0 0-4.9.8-6.8-2.1 0 0 1.4 12.2-3.7 23.7 0 0 .2-14.6-6.6-24.3s-19.4-15.5-22.7-16.3c-3.3-.8-12-1.8-14.4-.6z" fill="#ffdada" stroke-width="none" opacity="1" stroke="none"></path><path id="SvgjsPath22601" d="M112.4 40.3c2.1-.9 4.4-1.4 6.7-1.7 1.2-.1 2.3-.1 3.5-.1 1.2 0 2.3.2 3.5.4-1.1-.4-2.3-.7-3.5-.9-1.2-.2-2.4-.2-3.6-.2-2.4.1-4.8.6-7.1 1.5-2.2.9-4.3 2.2-6.1 3.9-.9.8-1.7 1.7-2.4 2.7-.7 1-1.3 2-1.8 3.1 1.4-2 2.9-3.7 4.7-5.2 1.9-1.4 3.9-2.6 6.1-3.5zm9.2-5.8c-3.8-1.1-8.1-.7-11.8.7-3.8 1.5-7.1 4.1-9.2 7.5 2.7-2.9 5.9-5.2 9.6-6.6 3.5-1.3 7.4-1.9 11.4-1.6zm-19.6-.1c2.9-1.6 6.1-2.6 9.3-2.8 3.2-.2 6.5.4 9.6 1.7-2.7-2-6.2-2.9-9.6-2.7-3.4.2-6.8 1.5-9.3 3.8zm8.5-5.6c3-.1 6 .6 8.8 2.1-2.3-2.1-5.6-3.1-8.8-3.1-3.2.1-6.4 1.2-8.7 3.4 2.7-1.6 5.6-2.4 8.7-2.4zm-9.4 3.8c-.1-.4-.3-.8-.5-1.1.9-1.9 2-3.6 3.4-5s3-2.6 4.9-3.6c-2.1.2-4.1 1.3-5.6 2.9-1.5 1.5-2.5 3.6-2.7 5.7-.6-1.1-1.5-2.1-2.6-2.8-1.4-1-3.1-1.6-4.8-1.5 1.5.7 2.9 1.4 4.2 2.3 1.4.9 2.5 1.9 3.7 3.1zm-10.7-2.3c2.5.1 5 .5 7.5 1-2.3-1.3-4.8-1.9-7.4-2-2.6-.1-5.2.3-7.6 1.3 2.5-.3 5-.4 7.5-.3zm36.8 20.9c-2.3 2.2-5.2 3.8-8.4 4.7 3.3-.1 6.6-1.7 9.1-4s4.2-5.4 4.6-8.8c-1.1 3.2-2.9 6-5.3 8.1zm8.4-2.3c0 2.7-.5 5.2-1.4 7.5-1 2.3-2.4 4.5-4.3 6.3 2.4-1.2 4.2-3.5 5.2-6 1.1-2.4 1.3-5.3.5-7.8zm5.2 6c0 2.7-.4 5.2-1.3 7.7-.9 2.4-2.3 4.6-4.1 6.6 2.3-1.4 4-3.7 5-6.3.9-2.5 1.2-5.4.4-8zm1.9 5.1c.5 3.1.4 6.1-.1 9.1-.6 3-1.8 5.8-3.4 8.5 2.3-2.2 3.7-5.2 4.4-8.3.5-3.1.3-6.4-.9-9.3zM95.3 45.8c-1.4-1.2-3-2.2-4.6-2.9-3.4-1.4-7-2-10.6-2.1 3.5.9 7 1.7 10.2 3 3.2 1.4 6.2 3.4 8.2 6.3-.7-1.6-1.8-3.1-3.2-4.3zm-16.7-8.3c3.5.3 6.8 1.2 9.9 2.5 3.1 1.4 5.9 3.3 8.5 5.7-2-2.9-4.9-5.1-8.1-6.6-3.3-1.4-6.9-2-10.3-1.6zm-7.6.8c.6 2.5 2 4.8 3.8 6.7 1.8 1.9 4.1 3.3 6.6 4-2.2-1.4-4.2-2.9-5.9-4.7-1.7-1.7-3.2-3.8-4.5-6zM64.4 42c.9 3.1 3 5.8 5.5 7.8 2.6 2 5.8 3.3 9 3.4-3.1-.9-5.9-2.2-8.4-4.2-2.4-1.8-4.5-4.2-6.1-7zm3 10.3c-1.6-2-2.8-4.2-3.6-6.8 0 2.7 1.1 5.3 2.8 7.4 1.7 2.1 4.1 3.7 6.7 4.3-2.4-1.3-4.4-2.9-5.9-4.9zm-3.3 1.3c-1.5-2.6-2.3-5.5-2.7-8.6-.5 3.1.3 6.3 1.8 9.1s3.9 5.1 6.7 6.4c-2.4-2-4.4-4.3-5.8-6.9zM60 49.3c-1.6 2.8-2.1 6.3-1.5 9.5.6 3.2 2.2 6.3 4.7 8.4-1.9-2.6-3.1-5.5-3.7-8.6-.6-3.1-.4-6.2.5-9.3zm-3.2 15.8c.7 3.2 2 6.2 4.2 8.6-1.5-2.8-2.6-5.8-3.2-8.8-.6-2.7-.7-5.5-.6-8.3.9-2.2 1.6-4.5 2.1-6.8.6-2.7 1-5.5.2-8.3-.4-1.4-1.2-2.6-2.2-3.6-.2-.2-.5-.5-.8-.7.4.2.8.4 1.2.5 1.3.4 2.6.3 3.9.1 2.5-.6 4.7-1.9 6.8-3.4 2-1.5 3.9-3.2 5.4-5.2.4-.5.8-1 1.1-1.5.3-.5.6-1.2.6-1.9-.1-.8-.7-1.4-1.4-1.5-.7-.1-1.3 0-2 .1-2.4.7-4.6 2.2-6.2 4.1-.8.9-1.6 2.1-1.5 3.4 0 .6.5 1.2 1.1 1.5.6.3 1.4.2 1.7-.4-.3.6-1.1.6-1.7.3-.6-.2-1-.8-1-1.4-.1-1.2.7-2.3 1.5-3.2 1.6-1.9 3.8-3.2 6.2-3.8.6-.1 1.2-.2 1.7-.1s.9.5 1 1c.1 1.1-.9 2.1-1.6 3-1.6 1.9-3.4 3.6-5.4 5-2 1.4-4.2 2.7-6.5 3.2-1.2.2-2.4.3-3.5-.1-1.1-.3-2.1-1-2.8-1.9-.7-.9-.9-2.1-.8-3.2.1-1.2.5-2.3 1.2-3.3 1.3-2 3.2-3.7 5.1-5.1 3.9-2.9 8.6-4.8 13.5-5.4 2.4-.2 4.9-.4 7.2.4 1.1.4 2.2 1 2.8 2 .6.9.8 2.1.6 3.3-.4 2.4-2.2 4.2-4 5.9-1.8 1.8-3.5 3.5-5.4 5.1-3.7 3.3-7.9 6.1-12.8 7.2 4.9-.9 9.3-3.6 13.1-6.8 1.9-1.6 3.7-3.3 5.5-5 .9-.9 1.8-1.7 2.6-2.7.8-1 1.4-2.2 1.7-3.5.3-1.3.1-2.7-.6-3.9-.7-1.2-2-1.9-3.2-2.3-2.5-.8-5.1-.7-7.6-.5-5 .5-9.9 2.5-14 5.5-1 .8-2 1.6-2.9 2.5-.9.9-1.8 1.9-2.4 3-.7 1.1-1.2 2.4-1.3 3.7-.1 1.3.2 2.7 1 3.8.4.5.8 1 1.3 1.3-.8-.4-1.6-.6-2.4-.6-1.5 0-2.9.5-4 1.4-1.2.8-2.1 1.9-2.9 3-1.6 2.3-2.9 4.8-3.1 7.6-.3 2.8 1.2 5.8 3.8 7 1.3.6 2.9.6 4.1-.1 1.2-.6 2.2-2 2-3.5-.1-.7-.5-1.3-1-1.8s-1.2-.8-1.9-.6c-.7.1-1.3.6-1.6 1.2-.3.6-.4 1.4-.1 2-.6-1.3.5-2.8 1.7-3 1.3-.2 2.5 1.1 2.6 2.3.2 1.3-.7 2.5-1.9 3.1-1.2.6-2.6.5-3.7 0-1.2-.6-2.1-1.6-2.7-2.7-.6-1.2-.8-2.5-.7-3.8.2-2.6 1.5-5.1 3.1-7.2.8-1.1 1.7-2 2.8-2.8 1-.8 2.3-1.2 3.5-1.2 1.2 0 2.4.6 3.4 1.5.9.9 1.6 2 2 3.2.7 2.5.3 5.2-.3 7.8-.6 2.6-1.4 5.2-2.5 7.6-.5 1.2-1.1 2.5-1.8 3.6s-1.5 2.1-2.6 2.8c-1 .7-2.3 1.1-3.5.9-1.3-.1-2.5-.6-3.5-1.3-2.1-1.5-3.5-4-4.3-6.4-.9-2.5-1.2-5.2-1.1-7.9.2-5.4 2.3-10.6 5.5-14.9 3.2-4.4 7.4-7.9 12-10.8-4.7 2.7-9 6.2-12.4 10.5-3.3 4.3-5.5 9.6-5.9 15.1-.2 2.8.1 5.5 1 8.2.9 2.6 2.3 5.2 4.6 6.9 1.2.8 2.5 1.4 4 1.5 1.5.2 3-.2 4.2-1.1.7-.5 1.4-1.1 1.9-1.8l-.3 1.5-.3 1.8c-.4 2.3-.4 4.7-.1 7 .3 2.3 1 4.7 1.9 6.8.9 2.2 2.2 4.2 3.7 6-1.2-2-2.2-4.1-3-6.3-.8-2.2-1.3-4.4-1.7-6.7-.2-2.2-.3-4.5-.2-6.8l.1-1.7.2-1.7.2-.8c.1-.2.2-.3.3-.4.1-.1.2-.2.2-.4-.2 2.4 0 4.9.5 7.2.8 3.2 2.2 6.2 4.3 8.7-1.5-2.9-2.6-5.8-3.4-8.9-.6-2.6-.9-5.2-1-7.8.4-.7.7-1.4 1-2.2-.2 2.3-.1 4.8.4 7.1zm-3.9 11.5c-.2-2.2-.2-4.4-.1-6.6l.1-1.7.2-1.7.2-1.7c.1-.5.2-1.1.3-1.7-.2.5-.4 1.1-.6 1.6l-.5 1.6-.3 1.7-.2 1.8c-.3 2.2-.3 4.5-.1 6.8.2 2.2.7 4.5 1.4 6.6.7 2.1 1.7 4.2 2.9 6.1-.9-2.1-1.6-4.2-2.2-6.3-.5-2.2-.9-4.3-1.1-6.5zm37.9-26.7c-2.4.4-4.7 1.6-6.4 3.4-1.7 1.8-2.8 4.1-3.1 6.5-.2 1.2-.1 2.4.1 3.6.2 1.2.6 2.3 1.2 3.3-.4-1.1-.7-2.3-.7-3.4-.1-1.2 0-2.3.2-3.4.5-2.2 1.5-4.3 3-6 1.5-1.6 3.6-2.8 5.8-3.3 1.1-.3 2.2-.4 3.4-.4 1.2 0 2.3.2 3.4.5-1.1-.5-2.2-.8-3.4-1-1.1-.1-2.3 0-3.5.2zm3.5 1.6c-1.2.3-2.2.8-3.2 1.5-1.9 1.5-2.9 3.8-3.3 6.1-.4 2.3-.3 4.6 0 6.9l.4 3.4c.2 1.1.2 2.2.3 3.4.2-1.1.2-2.3.2-3.4s-.1-2.3-.1-3.4c-.1-2.2-.2-4.5.3-6.6.4-2.1 1.3-4.2 2.8-5.7.8-.7 1.7-1.3 2.8-1.6.5-.2 1.1-.3 1.6-.3.6 0 1.1 0 1.7.2-1.2-.6-2.4-.7-3.5-.5zm-.1-3.5c-3-.2-5.9-.8-8.6-1.8-2.7-1-5.3-2.5-7.7-4.3 1.8 2.4 4.5 4.1 7.3 5.2 2.9 1.1 6 1.5 9 .9zm-2.7-13.4c-2.2-.8-4.6-1.3-7-1.2 2.3.7 4.5 1.3 6.7 2.1s4.2 1.8 6.4 2.8c-1.8-1.6-3.9-2.9-6.1-3.7zm73.4 8.8c-1-4.3-3.4-8.1-6.6-11-3.1-2.8-7.1-4.7-11.2-5.2-.8-2.5-2.5-4.7-4.6-6.3-2.2-1.6-4.9-2.3-7.5-2.4-2.6-.1-5.3.5-7.6 1.7-2.3 1.1-4.5 2.9-5.8 5.2-1.2 2.3-1.3 5.3.2 7.5-1.4-2.2-1.2-5.1.1-7.3s3.4-3.8 5.7-4.9c2.3-1.1 4.9-1.6 7.4-1.5s5 .9 7.1 2.4c2 1.5 3.5 3.6 4.3 6 .8 2.4.7 5-.1 7.3-.8 2-2.1 3.8-3.8 5.1-.6.3-1.2.6-1.7 1-1.9.9-4.2 1.2-6.3.9-1.7-.2-3.3-.9-4.6-1.9.1-.2.3-.3.4-.5-.2.1-.3.3-.5.4-.6-.5-1.1-1-1.6-1.5-1.6-1.9-2.4-4.4-2.2-6.9.1-2.5 1.2-4.9 3-6.5 1.9-1.6 4.3-2.6 6.8-2.6s5 1.2 6.4 3.2c.7 1 1 2.3.8 3.5-.2 1.2-.7 2.4-1.5 3.4s-1.7 1.8-2.8 2.5c-1.1.6-2.3 1.1-3.6 1-1.2-.1-2.5-.8-2.9-2-.4-1.2.4-2.8 1.8-2.8-1.4 0-2.3 1.6-1.9 2.9.4 1.3 1.7 2.2 3 2.3 1.3.1 2.6-.4 3.8-1 1.1-.6 2.2-1.5 3-2.5.8-1 1.5-2.3 1.6-3.6.2-1.3-.1-2.8-.8-3.9-1.5-2.3-4.2-3.6-6.9-3.7-2.7-.1-5.4.9-7.4 2.7-2 1.8-3.3 4.5-3.3 7.2-.1 2.7.7 5.4 2.4 7.6.5.6 1 1.1 1.6 1.6l-1.3 1.1-1.3 1-1.4 1c-1.8 1.3-3.8 2.5-5.8 3.5-2 1.1-4 2-6.1 2.8-2.1.8-4.3 1.4-6.5 2 2.3-.2 4.5-.6 6.7-1.3 2.2-.7 4.3-1.5 6.4-2.6 2-1.1 4-2.3 5.7-3.8l1.3-1.1 1.3-1.2c.4-.4.8-.9 1.2-1.3 1.5 1.1 3.3 1.9 5.1 2.2 1.7.3 3.4.2 5-.3-.1.2-.2.3-.3.5-1.2 2-1.1 4.5-.2 6.6.8 2.1 2.4 3.8 4.3 5 1.9 1.2 4 2 6.1 2.5 2.1.5 4.3.9 6.5.9s4.5-.7 6.2-2.3c1.7-1.5 2.8-3.6 3.3-5.7.2-2.5.1-4.8-.4-6.9zm-.7 6.4c-.4 2-1.5 3.9-3 5.2-1.5 1.4-3.6 2-5.6 2-2.1 0-4.2-.4-6.2-.9-2.1-.5-4.1-1.2-5.8-2.3-1.8-1.1-3.2-2.7-4-4.6-.8-1.9-.9-4.1.1-5.8.3-.5.7-1 1.2-1.5.4-.2.8-.4 1.1-.6l1.2-.9c.4-.2.9-.3 1.3-.3 2-.3 4.1.6 5.4 2.1 1.4 1.5 2 3.7 1.4 5.7-.3 1-.8 1.9-1.6 2.5-.8.6-1.9.9-2.9.8s-2-.8-2.4-1.7c-.5-.9-.5-2.1.1-3-.7.9-.7 2.1-.2 3.1.4 1 1.4 1.8 2.6 1.9 1.1.2 2.3-.1 3.2-.7.9-.7 1.6-1.6 1.9-2.7 1.5-4.4-2.8-9.4-7.4-8.8 1.1-1.2 2-2.7 2.6-4.2.9-2.5 1-5.4.1-7.9v-.1c8.3 1.5 15.4 8.2 17.1 16.4.1 2.1.2 4.3-.2 6.3zm-7.3 10.6c-.9-.6-2.1-.8-3.1-.6-1.1.2-2.1.7-2.7 1.6-.6.9-.9 2-.5 3s1.3 1.8 2.4 1.8c1.1 0 2.1-.7 2.2-1.7-.3 1-1.3 1.5-2.2 1.4-.9-.1-1.7-.9-1.9-1.7-.2-.9 0-1.8.6-2.5s1.4-1.1 2.3-1.2c.9-.1 1.8.1 2.6.6.7.5 1.3 1.2 1.6 2.1.3.8.3 1.8.1 2.6s-.7 1.7-1.3 2.3c-1.3 1.3-3.1 2-5 1.8-1.8-.2-3.4-1.1-4.7-2.4l-.1-.5-.3-1.8-.4-1.7c-.2-.6-.3-1.1-.5-1.7.1.6.2 1.2.3 1.7l.2 1.7.1 1.2c-.2-.3-.4-.6-.5-1-.1-1.3-.3-2.6-.6-3.9.1-1.8.8-3.6 1.9-5-1.4 1.4-2.2 3.4-2.4 5.4-.1 1.1 0 2.2.4 3.3 0 1.7-.1 3.4-.4 5.1-.4 3.2-1.2 6.3-2.2 9.4 1.7-2.8 2.7-6 3.2-9.2.1-1.1.2-2.2.2-3.4.1.2.3.4.5.7l.1.1v.9c.1 2.3 0 4.6-.4 6.9-.3 2.3-.8 4.6-1.4 6.8-.6 2.2-1.5 4.4-2.4 6.6 1.3-1.9 2.4-4.1 3.2-6.3.8-2.2 1.4-4.6 1.7-6.9.3-2.3.4-4.7.1-7.1 1.2 1.1 2.8 1.8 4.4 2 2.1.3 4.3-.4 5.8-2 .7-.8 1.3-1.7 1.6-2.8.2-1.1.2-2.2-.2-3.2-.7-.9-1.3-1.8-2.3-2.4zm-113-31.5c.9.9 2.2 1.4 3.4 1.2-1.2 0-2.3-.6-3-1.5-.8-.9-1.2-2-1.2-3.1s.2-2.3.7-3.3c.4-1 1-2.1 1.7-3 .7-.8 1.7-1.2 2.7-.8 1 .4 1.5 1.4 1.8 2.5.2 1.1.4 2.4-.3 3.2-.3.4-.9.7-1.4.5-.5-.2-.8-.9-.5-1.4-.5.5-.2 1.3.4 1.6.6.3 1.4 0 1.9-.4.5-.5.7-1.2.7-1.8v-1.9c-.2-1.2-.9-2.6-2.2-3.2-.6-.3-1.4-.4-2.1-.2-.7.2-1.2.7-1.7 1.1-.9 1-1.4 2.1-1.8 3.3-.4 1.2-.7 2.5-.5 3.7-.1 1.4.5 2.6 1.4 3.5z" fill="#f0b5b5" stroke-width="none" opacity="1" stroke="none"></path></g><g id="svga-group-glasses-single-move" transform="matrix(1,0,0,1,0,1)"><g id="svga-group-glasses-single" transform="matrix(1.0000001,0,0,1.0000001,-0.00000999249917299494,-0.000009408461764337517)"></g></g></g></g></g><rect id="svga-credit-rect" width="200" height="15" x="0" y="185" fill="#ecf0f1" opacity="0.5" style="display: none;"></rect><text id="svga-credit-text" font-family="Avenir Next, Roboto, Helvetica, Arial, sans-serif" font-size="10px" text-anchor="start" font-weight="400" size="10px" anchor="start" weight="400" fill="#333333" x="33.40447998046875" y="182.60824704170227" style="display: none;"><tspan id="SvgjsTspan21060" dy="13" x="33.40447998046875">Created on AvatarMaker.com</tspan></text></g><defs id="SvgjsDefs21012"><linearGradient id="SvgjsLinearGradient22251" x1="78.1497" y1="84.6563" x2="78.1497" y2="104.4894" gradientUnits="userSpaceOnUse" class="svga-on-canvas-glasses-gradient-single-0-null"><stop id="SvgjsStop22252" stop-opacity="1" stop-color="#ffba38" offset="0.004166667" ></stop><stop id="SvgjsStop22253" stop-opacity="0.8314" stop-color="#f5b232" offset="0.1721" ></stop><stop id="SvgjsStop22254" stop-opacity="0.541" stop-color="#d99d24" offset="0.4612" ></stop><stop id="SvgjsStop22255" stop-opacity="0.1664" stop-color="#ac7b0c" offset="0.8343" ></stop><stop id="SvgjsStop22256" stop-opacity="0" stop-color="#966a00" offset="1" ></stop></linearGradient><linearGradient id="SvgjsLinearGradient22259" x1="-20.2071" y1="85.073" x2="-20.2071" y2="104.3473" gradientTransform="matrix(-1 0 0 1 100 0)" gradientUnits="userSpaceOnUse" class="svga-on-canvas-glasses-gradient-single-2-null"><stop id="SvgjsStop22260" stop-opacity="1" stop-color="#ffba38" offset="0.004166667" ></stop><stop id="SvgjsStop22261" stop-opacity="0.8314" stop-color="#f5b232" offset="0.1721" ></stop><stop id="SvgjsStop22262" stop-opacity="0.541" stop-color="#d99d24" offset="0.4612" ></stop><stop id="SvgjsStop22263" stop-opacity="0.1664" stop-color="#ac7b0c" offset="0.8343" ></stop><stop id="SvgjsStop22264" stop-opacity="0" stop-color="#966a00" offset="1" ></stop></linearGradient><linearGradient id="SvgjsLinearGradient22331" x1="78.944" y1="79.1453" x2="78.944" y2="108.9636" gradientUnits="userSpaceOnUse" class="svga-on-canvas-glasses-gradient-single-0-null"><stop id="SvgjsStop22332" stop-opacity="1" stop-color="#ff73b2" offset="0.004166667" ></stop><stop id="SvgjsStop22333" stop-opacity="0.8085" stop-color="#ff75ae" offset="0.1949" ></stop><stop id="SvgjsStop22334" stop-opacity="0.5986" stop-color="#ff79a0" offset="0.4039" ></stop><stop id="SvgjsStop22335" stop-opacity="0.3799" stop-color="#ff818a" offset="0.6217" ></stop><stop id="SvgjsStop22336" stop-opacity="0.1566" stop-color="#ff8b6c" offset="0.844" ></stop><stop id="SvgjsStop22337" stop-opacity="0" stop-color="#ff9452" offset="1" ></stop></linearGradient><linearGradient id="SvgjsLinearGradient22339" x1="-20.9152" y1="79.1453" x2="-20.9152" y2="108.9636" gradientTransform="matrix(-1 0 0 1 100 0)" gradientUnits="userSpaceOnUse" class="svga-on-canvas-glasses-gradient-single-1-null"><stop id="SvgjsStop22340" stop-opacity="1" stop-color="#ff73b2" offset="0.004166667" ></stop><stop id="SvgjsStop22341" stop-opacity="0.8085" stop-color="#ff75ae" offset="0.1949" ></stop><stop id="SvgjsStop22342" stop-opacity="0.5986" stop-color="#ff79a0" offset="0.4039" ></stop><stop id="SvgjsStop22343" stop-opacity="0.3799" stop-color="#ff818a" offset="0.6217" ></stop><stop id="SvgjsStop22344" stop-opacity="0.1566" stop-color="#ff8b6c" offset="0.844" ></stop><stop id="SvgjsStop22345" stop-opacity="0" stop-color="#ff9452" offset="1" ></stop></linearGradient></defs></svg>