<svg xmlns="http://www.w3.org/2000/svg" version="1.1" width="600px" height="600px" viewBox="0 0 200 200" style="overflow:hidden!important;"><g id="svga-group-wrapper"><g id="svga-group-backs-single"></g><g id="svga-group-humanwrap-move" transform="matrix(1,0,0,1,0,0)"><g id="svga-group-humanwrap"><g id="svga-group-hair-back-move" transform="matrix(1,0,0,1,0,0)"><g id="svga-group-hair-back"><path id="SvgjsPath25722" d="m59.8 88.3 9.1 69.3 10.3 1.6 1.8-3.1 1.9 2.9 36-1.4 1-12.2.9 12.2 19-.9 1.6-71.5z" fill="#47301b" stroke-width="none" opacity="1" stroke="none"></path></g></g><g id="svga-group-humanbody-back"><path id="SvgjsPath25467" d="M77.8 105.9s4.8 37.7 10 55.8c0 0-6.4 8.8-14.5 11.9-28.7 11.2-35 11.2-39.6 15.2-2.4 2.1.2 11.1 1.8 17.2 1.3 5 1.7 13.2 1.7 13.2h132.2s1.6-33-.6-39.8-7.1-2.9-21.9-4.5c-14.8-1.6-28.7-10.3-31-13.2l.3-60-38.4 4.2z" fill="#fbdfd0" stroke-width="none" opacity="1" stroke="none"></path></g><g id="svga-group-chinshadow-single"><path id="SvgjsPath28042" d="M85.6 152.8c6.6 3.5 10.7 3.5 10.7 3.5s8 0 19.6-9.5l.2-45.2-38.4 4.2c.1.1 3.6 27.7 7.9 47z" fill="#dca78b" stroke-width="none" opacity="1" stroke="none"></path></g><g id="svga-group-humanbody-front"><path id="SvgjsPath25468" d="M72.1 183.1s14.6-.2 20.4 2.6c5.8 2.9 12.7 2.4 16.1-1s21.6-7 21.6-7-19.7 1.9-25 4.6c-5.3 2.7-22.3-2.8-33.1.8z" fill="#dca78b" stroke-width="none" opacity="1" stroke="none"></path><path id="SvgjsPath25469" d="M74.2 173.2c6.7-1.3 14.7-6.4 14.7-6.4l6.2 5.5c-4.3-7.9-12.7-41.1-12.7-41.1l-.7.7c1.7 10.5 3.9 21.9 6.1 29.7 0 0-6 8.2-13.6 11.6z" fill="#dca78b" stroke-width="none" opacity="1" stroke="none"></path><path id="SvgjsPath25470" d="M170.7 188.5c-.1-2.1-.2-4.1-.4-6.2-.1-1-.3-2.1-.6-3.2-.2-.5-.4-1-.6-1.6-.2-.5-.6-1-1-1.5s-.9-.9-1.5-1.1c-.6-.3-1.1-.4-1.7-.6-1.1-.2-2.2-.2-3.2-.2-2.1 0-4.1.1-6.1.1s-4-.1-6-.2-4-.4-6-.7c-1-.2-2-.4-2.9-.6l-1.5-.4c-.5-.1-1-.3-1.4-.4-3.8-1.1-7.6-2.6-11.2-4.4l-1.3-.7-1.3-.7c-.4-.2-.9-.5-1.3-.8s-.9-.5-1.3-.8-.8-.5-1.3-.8l-1.2-.9-.6-.5-.3-.2-.3-.2c-.2-.2-.4-.3-.5-.5l-.2-.3v-44.6l-.1-15v-.6l-.6.1c-6.4.8-12.9 1.5-19.3 2.3l-19.1 2.3v.5l.1.4.1.9.2 1.8c.1 1.2.3 2.3.4 3.5l.9 7c.6 4.7 1.3 9.4 2.1 14 .8 4.7 1.5 9.3 2.5 14 .9 4.5 1.8 9 3 13.5-1.1 1.4-2.3 2.7-3.6 4-1.3 1.3-2.8 2.6-4.3 3.8-1.5 1.1-3.1 2.2-4.8 3l-1.3.6c-.4.2-.9.3-1.3.5l-2.7 1c-7.2 2.7-14.5 5.3-21.8 7.7l-5.5 1.8c-1.8.6-3.7 1.3-5.5 2.2-.4.2-.9.5-1.3.7-.4.3-.9.5-1.3.9l-.6.5c-.2.2-.5.5-.6.8-.3.5-.4 1.1-.5 1.6-.2 1.1-.1 2.1 0 3.1s.3 2 .4 2.9c.4 1.9.8 3.8 1.3 5.7l.8 2.8c.3.9.5 1.8.7 2.8.4 1.9.7 3.8.9 5.7s.4 3.8.5 5.7v.8h133.4v-.8c.2-4.1.4-8.2.5-12.3s.2-8.2.2-12.3c0-1.8-.1-3.8-.1-5.9zm-67.4 30.3H70.2l-16.5-.1-16-.1c-.1-1.8-.2-3.5-.4-5.3-.2-1.9-.4-3.9-.8-5.8-.2-1-.4-1.9-.7-2.9l-.7-2.8c-.5-1.9-.9-3.7-1.2-5.6-.2-.9-.3-1.9-.4-2.8-.1-.9-.1-1.9 0-2.7.1-.4.2-.8.4-1.1.1-.2.2-.3.3-.4l.5-.4c.3-.3.7-.5 1.1-.8.4-.2.8-.5 1.2-.7 1.7-.8 3.5-1.4 5.3-2l5.5-1.8c7.3-2.4 14.6-5 21.8-7.8l2.7-1c.5-.2.9-.3 1.4-.5l1.4-.6c1.8-.9 3.4-2 5-3.2s3-2.5 4.4-3.9 2.7-2.9 3.8-4.5l.2-.3-.1-.3c-1.3-4.5-2.3-9.1-3.3-13.7s-1.9-9.3-2.7-13.9c-.8-4.6-1.6-9.3-2.4-14l-2.2-13.9 19.3-1.8c6.2-.6 12.3-1.2 18.5-1.8l-.2 14.4-.2 15-.3 30v.4l.2.2.6.7.6.6.3.3.3.2.6.5c.4.3.9.6 1.3.9.4.3.9.6 1.3.9.4.3.9.5 1.3.8s.9.5 1.3.8l1.4.8 1.4.7c.5.2.9.5 1.4.7l1.4.7c1 .4 1.9.8 2.9 1.2s1.9.8 2.9 1.1l1.5.5c.5.2 1 .3 1.5.4.5.1 1 .3 1.5.4l1.5.4c1 .3 2 .4 3 .6 2 .4 4.1.6 6.2.8 2.1.2 4.1.2 6.2.2 2.1 0 4.1-.1 6.1-.1s4 .1 5 1.3c.5.6.9 1.4 1.2 2.3.3.9.4 1.9.6 2.8.3 2 .4 4 .5 6s.1 4.1.2 6.1c.1 7.9-.1 15.8-.4 23.7-10.8.1-21.5.1-32.3.2h-33.1z" fill="#cd8e6c" stroke-width="none" opacity="1" stroke="none"></path><path id="SvgjsPath25471" d="M150.7 219.2 147 198l-.4 21.2z" fill="#dca78b" stroke-width="none" opacity="1" stroke="none"></path><path id="SvgjsPath25472" d="M47.3 203.5s2.2 11.5 2.9 15.7h3.5l-6.4-15.7z" fill="#dca78b" stroke-width="none" opacity="1" stroke="none"></path></g><g id="svga-group-clothes-single"><path id="SvgjsPath27821" d="M67.44 197.26s-7.93 11.38-14.61 21.69l94.93.05s-6.01-7.26-17.72-24.24c0 0-17.31 12.83-27.99 20.08.01.01-20.1-8.8-34.61-17.58z" fill="#000000" stroke-width="none" opacity="1" stroke="none"></path><path id="SvgjsPath27822" d="M148.33 218.53c-3.06-3.91-5.97-7.99-8.88-12.05-2.5-3.5-4.95-7.04-7.38-10.6.58-5.92 3.97-24.68 3.97-24.68l-2.54-.91-5.78 24.88-12.21 8.89c-4.5 3.28-9.02 6.54-13.57 9.74-2.8-1.2-5.6-2.45-8.38-3.72-2.93-1.36-5.88-2.69-8.79-4.09-2.92-1.38-5.81-2.84-8.7-4.28-1.44-.74-2.88-1.47-4.31-2.23l-1.33-.71-7.23-22.68-2.09.75 4.78 22.32-.49.65-1.93 2.64c-1.28 1.76-2.58 3.52-3.83 5.31-2.51 3.57-5.01 7.15-7.44 10.77l-.78 1.16 1.42.02c7.91.09 15.82.17 23.73.14 7.91-.04 15.82-.27 23.73-.41 7.91-.17 15.82-.18 23.73-.11 7.91.06 15.82.25 23.73.39l1.53.03-.96-1.22zm-48.03-.02c-7.91-.15-15.82-.38-23.73-.43-7.45-.04-14.9.02-22.34.1 2.07-3.29 4.14-6.58 6.26-9.84l3.52-5.51 1.77-2.75.88-1.38.44-.69.22-.35c.07-.12.17-.23.16-.3 1.38.9 2.62 1.74 4.05 2.57 1.38.85 2.79 1.66 4.18 2.48 2.81 1.62 5.67 3.16 8.53 4.68 2.87 1.51 5.75 3 8.67 4.42s5.84 2.82 8.8 4.17l.45.2.43-.29c4.81-3.17 9.5-6.49 14.18-9.82 2.35-1.66 4.66-3.37 6.98-5.06 2.04-1.49 4.06-2.99 6.08-4.5 2.68 3.81 5.39 7.6 8.15 11.35 1.48 2.02 3 4.02 4.53 6 1.23 1.59 2.47 3.16 3.75 4.72-7.41.13-14.81.3-22.22.34-7.92.09-15.83.07-23.74-.11z" fill="#000000" stroke-width="none" opacity="1" stroke="none"></path></g><g id="svga-group-head" transform="matrix(1,0,0,1,0,0)"><g id="svga-group-ears-left-move" transform="matrix(1,0,0,1,0,0)"><g id="svga-group-ears-left" transform="matrix(0.9499998000000001,0,0,0.9499998000000001,2.690403160403818,4.832696408955371)"><path id="SvgjsPath25415" d="M62.22 91.07s-9.85-8.65-11.43-8.8c-1.36-.13-4.73 7.07-6.22 11.62-.39 1.2-.3 2.54.22 3.7 1.43 3.16 4.6 9.75 7.44 13.05 0 0 2.4.52 3.16.29s6.69-5 7.3-6.86.74-9.97-.47-13z" fill="#fbdfd0" stroke-width="none" opacity="1" stroke="none"></path><path id="SvgjsPath25416" d="M63.07 94.44c.16 1.16.25 2.33.29 3.5.05 1.17.05 2.34-.01 3.51-.03.59-.08 1.17-.15 1.76-.05.3-.09.59-.17.9-.09.31-.25.62-.41.85-.64.98-1.41 1.72-2.18 2.48-.78.74-1.58 1.44-2.39 2.12-.41.33-.82.67-1.25.98-.21.16-.43.31-.65.46l-.35.22c-.14.07-.31.15-.47.17-.59.07-1.09-.01-1.61-.08-.51-.07-1.02-.17-1.53-.28l-.12-.03-.07-.09c-1.28-1.53-2.32-3.25-3.3-4.99-.97-1.75-1.85-3.56-2.7-5.38l-1.25-2.75c-.44-.92-.63-2.02-.48-3.05.06-.52.23-1.01.39-1.48s.33-.94.5-1.41c.35-.93.7-1.86 1.07-2.78.76-1.83 1.55-3.65 2.59-5.32.26-.42.54-.82.88-1.2.17-.19.35-.37.6-.52.12-.07.27-.14.46-.14.17.01.28.06.42.1.94.41 1.65 1 2.43 1.56 1.52 1.14 2.98 2.35 4.41 3.61 1.44 1.25 2.85 2.53 4.24 3.87.43 1.1.64 2.26.81 3.41zm-9.79-10.31c-.75-.52-1.54-1.11-2.29-1.42-.08-.02-.18-.07-.23-.07-.03 0-.1.01-.18.06-.15.08-.31.22-.45.39-.3.32-.57.7-.83 1.09-1.02 1.59-1.92 3.33-2.74 5.1-.41.89-.81 1.78-1.16 2.71-.18.46-.35.92-.52 1.39-.17.47-.34.92-.4 1.41-.13.98.06 2 .49 2.88.42.91.86 1.81 1.32 2.7.9 1.78 1.87 3.52 2.88 5.22 1.02 1.69 2.09 3.35 3.32 4.79l-.19-.11c.97.18 2.03.38 2.91.29.1-.01.16-.06.25-.1l.31-.2.62-.45c.41-.3.82-.63 1.23-.95.81-.66 1.6-1.34 2.37-2.06.75-.72 1.52-1.47 2.11-2.3.15-.22.25-.4.33-.63.07-.24.12-.51.17-.78.08-.55.15-1.12.19-1.69.08-1.14.12-2.29.13-3.45.01-1.15-.04-2.31-.13-3.46-.09-1.14-.23-2.32-.59-3.39-2.96-2.34-5.91-4.75-8.92-6.97z" fill="#ecc2ac" stroke-width="none" opacity="1" stroke="none"></path><path id="SvgjsPath25417" d="M62.45 98.39S52.96 86.4 51.18 87.4s-4.58 6.65-4.57 8.53c.02 2.77 2.95 7.4 4.42 8.8s3.25 2.25 5.6 1.71 5.82-8.05 5.82-8.05z" fill="#ecc2ac" stroke-width="none" opacity="1" stroke="none"></path><path id="SvgjsPath25418" d="M56.36 101.74c-.34-1.14-.73-2.26-1.13-3.37a93.8 93.8 0 0 0-1.28-3.3c-.45-1.09-.93-2.16-1.46-3.21-.54-1.04-1.08-2.08-1.74-3.05l-.07-.11-.07.11c-.66 1.04-1.28 2.1-1.88 3.2-.3.55-.58 1.1-.85 1.67-.28.56-.51 1.16-.74 1.75l-.04.09.04.11c.41 1.24.84 2.46 1.29 3.69.22.61.48 1.21.73 1.81.26.6.52 1.19.87 1.78l.17.27.22-.2c.3-.28.53-.58.77-.9.23-.32.43-.67.61-1.03.35-.73.56-1.57.53-2.42v-.05l-.02-.04c-.44-.87-.91-1.73-1.36-2.6l-.05.03c.37.91.74 1.83 1.13 2.73l-.02-.09c-.03.77-.26 1.51-.61 2.16-.35.65-.82 1.24-1.32 1.7l.39.07c-.3-.51-.56-1.11-.81-1.69l-.72-1.79c-.48-1.2-.93-2.41-1.38-3.62v.2c.4-1.18.85-2.35 1.38-3.47.52-1.13 1.12-2.22 1.8-3.22h-.14c.63.95 1.08 2.04 1.55 3.11l1.36 3.24 1.38 3.24c.46 1.08.92 2.16 1.41 3.23l.06-.03z" fill="#cd8e6c" stroke-width="none" opacity="1" stroke="none"></path></g></g><g id="svga-group-ears-right-move" transform="matrix(1,0,0,1,0,0)"><g id="svga-group-ears-right" transform="matrix(0.9499998000000001,0,0,0.9499998000000001,7.310388433331298,4.832837362583149)"><path id="SvgjsPath25419" d="M137.78 91.07s9.85-8.65 11.43-8.8c1.36-.13 4.73 7.07 6.22 11.62.39 1.2.3 2.54-.22 3.7-1.43 3.16-4.6 9.75-7.44 13.05 0 0-2.4.52-3.16.29s-6.69-5-7.3-6.86c-.61-1.86-.74-9.97.47-13z" fill="#fbdfd0" stroke-width="none" opacity="1" stroke="none"></path><path id="SvgjsPath25420" d="M137.75 91.04c1.4-1.34 2.8-2.62 4.24-3.87 1.43-1.26 2.9-2.47 4.41-3.61.78-.55 1.49-1.14 2.43-1.56.14-.04.25-.1.42-.1.19 0 .34.07.46.14.24.15.43.33.6.52.34.38.61.78.88 1.2 1.04 1.67 1.83 3.49 2.59 5.32.38.92.72 1.85 1.07 2.78.17.47.34.94.5 1.41.16.47.33.96.39 1.48.15 1.03-.04 2.13-.48 3.05l-1.25 2.75c-.85 1.82-1.73 3.63-2.7 5.38-.98 1.75-2.02 3.46-3.3 4.99l-.07.09-.11.02c-.51.11-1.02.2-1.53.28-.52.07-1.02.14-1.61.08-.16-.02-.32-.09-.47-.17l-.35-.22c-.22-.15-.44-.3-.65-.46-.43-.32-.84-.65-1.25-.98-.82-.67-1.62-1.38-2.39-2.12-.77-.76-1.54-1.49-2.18-2.48a3.05 3.05 0 0 1-.41-.85c-.09-.31-.13-.61-.17-.9-.07-.59-.12-1.18-.15-1.76-.06-1.17-.06-2.34-.01-3.51.05-1.17.13-2.34.29-3.5.15-1.15.36-2.31.8-3.4zm.06.05c-.35 1.07-.49 2.24-.59 3.39-.09 1.15-.14 2.31-.13 3.46.01 1.15.05 2.3.13 3.45.04.57.11 1.14.19 1.69.05.27.1.54.17.78.08.23.18.42.33.63.59.83 1.36 1.58 2.11 2.3.76.72 1.56 1.41 2.37 2.06.41.33.81.65 1.23.95l.62.45.31.2c.09.04.15.09.25.1.88.09 1.94-.11 2.91-.29l-.19.11c1.23-1.44 2.3-3.1 3.32-4.79a93.9 93.9 0 0 0 2.88-5.22c.45-.89.9-1.79 1.32-2.7.43-.88.62-1.9.49-2.88-.06-.49-.23-.94-.4-1.41-.16-.47-.34-.93-.52-1.39-.35-.92-.76-1.82-1.16-2.71-.82-1.77-1.72-3.51-2.74-5.1-.26-.39-.53-.77-.83-1.09-.15-.16-.31-.3-.45-.39a.314.314 0 0 0-.18-.06c-.05 0-.15.06-.23.07-.75.31-1.54.9-2.29 1.42-3.02 2.23-5.97 4.64-8.92 6.97z" fill="#ecc2ac" stroke-width="none" opacity="1" stroke="none"></path><path id="SvgjsPath25421" d="M137.55 98.39s9.49-11.99 11.27-10.99 4.58 6.65 4.57 8.53c-.02 2.77-2.95 7.4-4.42 8.8-1.47 1.39-3.25 2.25-5.6 1.71-2.35-.54-5.82-8.05-5.82-8.05z" fill="#ecc2ac" stroke-width="none" opacity="1" stroke="none"></path><path id="SvgjsPath25422" d="M143.64 101.74c.34-1.14.73-2.26 1.13-3.37.4-1.11.84-2.21 1.28-3.3.45-1.09.93-2.16 1.46-3.21.54-1.04 1.08-2.08 1.74-3.05l.07-.11.07.11c.66 1.04 1.28 2.1 1.88 3.2.3.55.58 1.1.85 1.67.28.56.51 1.16.74 1.75l.04.09-.04.11c-.41 1.24-.84 2.46-1.29 3.69-.22.61-.48 1.21-.73 1.81-.26.6-.52 1.19-.87 1.78l-.17.27-.22-.2c-.3-.28-.53-.58-.77-.9-.23-.32-.43-.67-.61-1.03-.35-.73-.56-1.57-.53-2.42v-.05l.02-.04c.44-.87.91-1.73 1.36-2.6l.05.03c-.37.91-.74 1.83-1.13 2.73l.02-.09c.03.77.26 1.51.61 2.16.35.65.82 1.24 1.32 1.7l-.39.07c.3-.51.56-1.11.81-1.69l.72-1.79c.48-1.2.93-2.41 1.38-3.62v.2c-.4-1.18-.85-2.35-1.38-3.47-.52-1.13-1.12-2.22-1.8-3.22h.14c-.63.95-1.08 2.04-1.55 3.11l-1.36 3.24-1.38 3.24c-.46 1.08-.92 2.16-1.41 3.23l-.06-.03z" fill="#cd8e6c" stroke-width="none" opacity="1" stroke="none"></path></g></g><g id="svga-group-faceshape-wrap"><g id="svga-group-faceshape-single"><path id="SvgjsPath28032" d="M135.9 49.8c-6.7-7.4-11.3-13.2-28.8-17.3-1.8-.4-12.3-.4-14.1 0-17.5 4.1-22.1 9.9-28.8 17.3-7.1 7.8-9.5 29-9.5 29 0 9.6 1.3 32.3 13.3 47.2 17.8 22.2 32.1 22.3 32.1 22.3s14.2 0 32.1-22.3c12-14.9 13.3-37.6 13.3-47.2-.1 0-2.5-21.2-9.6-29z" fill="#fbdfd0" stroke-width="none" opacity="1" stroke="none"></path><path id="SvgjsPath28033" d="M107.1 32.5c-1.8-.4-12.3-.4-14.1 0-17.5 4.1-22.1 9.9-28.8 17.3-7.1 7.8-9.5 29-9.5 29 0 9.6 1.3 32.3 13.3 47.2 17.8 22.2 32.1 22.3 32.1 22.3s14.2 0 32.1-22.3c12-14.9 13.3-37.6 13.3-47.2 0 0-2.4-21.2-9.5-29-6.9-7.4-11.5-13.2-28.9-17.3zM142 63.8c.7 2.5 1.1 5 1.6 7.5.4 2.5.7 5 1 7.5-.2 7.4-1.3 14.8-3 22-.9 3.6-1.9 7.1-3.3 10.5-.7 1.7-1.4 3.4-2.2 5s-1.7 3.2-2.7 4.7l-1.5 2.2c-.3.4-3.4 4.2-3.4 4.2l-3.7 4.1-6.1 5.7c-2.8 2.3-5.8 4.5-9 6.2l-1.2.6-1.2.6c-.8.4-1.6.7-2.5 1l-1.3.4c-.4.1-.8.2-1.3.3-.4.1-1.71.43-2.9.4 0 0-1.4-.2-1.9-.3-.4-.1-.9-.2-1.3-.3l-1.3-.4c-.8-.3-1.7-.6-2.5-1l-1.2-.5-1.2-.6c-3.2-1.6-6.3-3.7-9.1-6l-4.1-3.6-3.9-3.9-1-1-.9-1-1.8-2.1c-1.2-1.4-2.3-2.8-3.3-4.4-1-1.5-2-3.1-2.8-4.8-.8-1.6-1.6-3.3-2.3-5.1-.7-1.7-1.3-3.5-1.8-5.3s-1-3.6-1.4-5.4-.8-3.6-1-5.5c-.3-1.8-.5-3.7-.7-5.5-.4-3.7-.5-7.4-.5-11.1.3-2.3.8-4.6 1.2-6.9.5-2.3 1.1-4.6 1.7-6.8.7-2.2 1.4-4.5 2.3-6.6.4-1.1.9-2.1 1.4-3.1s2.59-4.47 6.3-8.1c1.6-1.7 3.3-3.3 5-4.7 3.5-2.8 7.7-4.9 12-6.5l1.6-.6c6.69-2.31 10.6-2.2 11.8-2.3 2.3-.1 4.71-.26 7-.1 3.16.22 6.8 1.4 6.8 1.4 2.3.6 4.5 1.3 6.7 2.3.3.1 1.6.7 1.6.7.5.3 2.6 1.3 3.1 1.7.5.3 5.3 3.7 6.9 5.4 1.7 1.7 3.3 3.4 4.9 5.2 1.7 1.9 2.9 4.2 3.9 6.6 1.1 2.4 1.9 4.8 2.5 7.3z" fill="#cd8e6c" stroke-width="none" opacity="1" stroke="none"></path></g></g><g id="svga-group-mouth-single-move" transform="matrix(1,0,0,1,0,0)"><g id="svga-group-mouth-single"><path id="SvgjsPath29084" d="M86.91 124.8c.07.65 1.73 1.37 3.46 1.87s6.92.58 9.44.65c2.52.07 13.47-2.02 14.48-2.59 1.01-.58-6.77-3.6-9.51-3.1s-5.12 2.16-6.56 1.8-3.53-1.87-4.83-1.3c-1.3.58-3.82 2.31-4.47 2.38-.64.07-2.01.29-2.01.29z" fill="#f98695" stroke-width="none" opacity="1" stroke="none"></path><path id="SvgjsPath29085" d="M86.04 124.67c1.27 1.34 2.83 1.27 4.34.24.69-.47 1.37-1.28 2.13-1.64 1.5-.72 2.18-.19 3.42.37.97.44 1.78.68 2.89.55 1.16-.14 1.96-.64 3.01-1.08 2.44-.99 4.14-.26 6.51.73 2.75 1.17 5.14 2.17 8.04.5.39-.23.17-.78-.34-.68-4.06.76-6.65-2.56-9.91-3.36-2.72-.67-4.16.44-6.33 1.51-1.05.53-1.25 1.23-2.98.41-.47-.23-.82-.71-1.27-.97-.73-.43-1.44-.61-2.31-.5-2.36.3-4.5 4.11-6.75 3.16-.42-.19-.75.45-.45.76z" fill="#ea6678" stroke-width="none" opacity="1" stroke="none"></path></g></g><g id="svga-group-eyes-left-move" transform="matrix(1,0,0,1,1,1)"><g id="svga-group-eyes-left" transform="matrix(0.9499999,0,0,0.9499999,3.9874747870674128,4.515008801117702)"><g id="svga-group-eyesback-left"><path id="SvgjsPath29997" d="M80.2 77.2c7.5 0 13.5 5.8 13.5 13s-6 13-13.5 13-13.5-5.8-13.5-13 6-13 13.5-13z" fill="#ffffff" stroke-width="none" opacity="1"></path></g><g id="svga-group-eyesiriswrapper-left" transform="matrix(1,0,0,1,0,0)"><g id="svga-group-eyesiriscontrol-left" transform="matrix(1,0,0,1,0,0)"><g id="svga-group-eyesiris-left"><path id="SvgjsPath25487" d="M80.2 84.6c3.1 0 5.6 2.5 5.6 5.6s-2.5 5.6-5.6 5.6-5.6-2.5-5.6-5.6 2.5-5.6 5.6-5.6z" fill="#5a2929" stroke-width="none" opacity="1" stroke="none"></path><path id="SvgjsPath25488" d="M80.2 87.2c1.7 0 3 1.3 3 3s-1.3 3-3 3-3-1.3-3-3 1.3-3 3-3z" fill="#000000" stroke-width="none" opacity="1"></path><path id="SvgjsPath25489" d="m79.5 87.8-.6-.6c-.2-.2-.5-.3-.8-.3s-.6.1-.8.3c-.2.2-.3.5-.3.8s.1.6.3.8l.6.6c.2.2.5.3.8.3s.6-.1.8-.3c.4-.6.4-1.2 0-1.6zm2.7 5.1c1 0 1-1.5 0-1.5-.9 0-.9 1.5 0 1.5z" fill="#ffffff" stroke-width="none" opacity="1"></path></g></g></g><g id="svga-group-eyesfront-left"><path id="SvgjsPath30005" d="M80.2 76.7c-7.8 0-14.1 6.1-14.1 13.6s6.3 13.6 14.1 13.6 14.1-6.1 14.1-13.6S88 76.7 80.2 76.7zm-.8 16.9c-5.7-.3-10.4-2.5-10.6-2.8-.2-.4 3.9-3.8 12.4-3.3s10.2 5 10.2 5c-1.4 1-6.3 1.3-12 1.1z" fill="#fbdfd0" stroke-width="none" opacity="1" stroke="none"></path><path id="SvgjsPath30006" d="M85.9 94c1.6-.2 2.6-.4 3.4-.7.2-.1.5-.1.7-.2.5-.2 1-.3 1.4-.6-.2-.6-.5-1-.8-1.4-.2-.2-.3-.4-.5-.6-.2-.2-.4-.4-.6-.5-.8-.7-1.7-1.2-2.7-1.6-1.8-.8-3.8-1.1-5.8-1.2-.5-.1-1-.1-1.5-.1-8.8-.5-14.4 1.6-14.3 3.3 0 1.5 12.4 4.6 20.7 3.6zm-12.1-1.6c-1-.2-1.9-.5-2.9-.9-.5-.2-.9-.4-1.4-.6-.1-.1-.2-.1-.3-.2H69c0-.1.1-.2.2-.2.1-.1.2-.2.3-.2.8-.6 1.7-1.1 2.6-1.5.9-.4 1.9-.6 2.9-.8 2-.4 4-.4 5.9-.3 1 .1 2 .2 2.9.3.5.1 1 .2 1.4.3.5.2 1 .3 1.4.5.9.3 1.8.8 2.7 1.4.8.6 1.6 1.4 2.1 2.3-.4.2-.9.4-1.4.5s-1 .2-1.5.2c-1 .1-2 .2-3 .2-2 .1-4 0-6-.1-1.8-.1-3.8-.4-5.7-.9z" fill="#000000" stroke-width="none" opacity="1" stroke="none"></path><path id="SvgjsPath30007" d="M77.7 97.8C88 99.1 92.3 94 92.3 94c-7.1 4.5-14.6 3.8-14.6 3.8z" fill="#ecc2ac" stroke-width="none" opacity="1" stroke="none"></path><path id="SvgjsPath30008" d="M84.6 85c3.7 1.4 5.2 2.7 5.2 2.7s-.9-1.4-5.3-3.1-12.8.4-12.8.4 8.8-1.6 12.9 0z" fill="#ecc2ac" stroke-width="none" opacity="1" stroke="none"></path></g></g></g><g id="svga-group-eyes-right-move" transform="matrix(1,0,0,1,-1,1)"><g id="svga-group-eyes-right" transform="matrix(0.9499999,0,0,0.9499999,6.010469059793465,4.515008801117702)"><g id="svga-group-eyesback-right"><path id="SvgjsPath29998" d="M119.8 77.2c7.5 0 13.5 5.8 13.5 13s-6 13-13.5 13-13.5-5.8-13.5-13 6-13 13.5-13z" fill="#ffffff" stroke-width="none" opacity="1"></path></g><g id="svga-group-eyesiriswrapper-right" transform="matrix(1,0,0,1,0,0)"><g id="svga-group-eyesiriscontrol-right" transform="matrix(1,0,0,1,0,0)"><g id="svga-group-eyesiris-right"><path id="SvgjsPath25490" d="M119.8 85.3c2.7 0 4.9 2.2 4.9 4.9s-2.2 4.9-4.9 4.9-4.9-2.2-4.9-4.9 2.2-4.9 4.9-4.9z" fill="#5a2929" stroke-width="none" opacity="1" stroke="none"></path><path id="SvgjsPath25491" d="M119.8 87.5c1.5 0 2.7 1.2 2.7 2.7s-1.2 2.7-2.7 2.7-2.7-1.2-2.7-2.7 1.2-2.7 2.7-2.7z" fill="#000000" stroke-width="none" opacity="1"></path><path id="SvgjsPath25492" d="M119.2 88.1c-.2-.2-.3-.4-.5-.5s-.4-.3-.7-.3c-.2 0-.5.1-.7.3-.2.2-.3.4-.3.7 0 .2.1.5.3.7.2.2.4.3.5.5s.4.3.7.3c.2 0 .5-.1.7-.3.3-.5.3-1.1 0-1.4zm2.4 4.5c.8 0 .8-1.3 0-1.3s-.8 1.3 0 1.3z" fill="#ffffff" stroke-width="none" opacity="1"></path></g></g></g><g id="svga-group-eyesfront-right"><path id="SvgjsPath30009" d="M119.8 76.7c-7.8 0-14.1 6.1-14.1 13.6s6.3 13.6 14.1 13.6 14.1-6.1 14.1-13.6-6.3-13.6-14.1-13.6zm-.3 15.8c-5.7.2-10.1.4-11.5-.4 0 0 1.6-3.5 10.2-3.9s12.6 2.2 12.4 2.5-5.5 1.6-11.1 1.8z" fill="#fbdfd0" stroke-width="none" opacity="1" stroke="none"></path><path id="SvgjsPath30012" d="M122.1 87.7c-13-.3-14.2 4.5-14.2 4.5h.1c.4.2.9.3 1.3.4.5.1 1 .2 1.5.2s1 .1 1.5.1c3.6.3 9.5.4 19-.6 6.6-.7 3.7-4.4-9.2-4.6zm8.3 3.1c-.2.1-.4.2-.7.2-.5.1-.9.2-1.4.3-1 .2-1.9.3-2.9.5-1.9.3-3.9.4-5.8.5l-5.8.2c-1 0-1.9.1-2.9 0-.5 0-1 0-1.4-.1-.5-.1-1-.1-1.4-.3.3-.4.7-.8 1-1.1.4-.3.8-.6 1.2-.8.9-.5 1.8-.8 2.7-1 1.9-.5 3.8-.7 5.8-.8 1.9-.1 3.9-.1 5.8.2 1 .1 1.9.3 2.8.6.9.3 1.9.7 2.7 1.2.1.2.2.3.3.4-.1-.1-.1-.1 0 0 0-.1 0 0 0 0z" fill="#000000" stroke-width="none" opacity="1" stroke="none"></path><path id="SvgjsPath30013" d="M107.8 93.4s4.3 5.1 14.6 3.8c0 0-7.5.7-14.6-3.8z" fill="#ecc2ac" stroke-width="none" opacity="1" stroke="none"></path><path id="SvgjsPath30014" d="M113.1 87.5c3.9-2.2 12.8-2.1 12.8-2.1s-8.6-.7-12.7 1.7-4.9 3.9-4.9 3.9 1.3-1.6 4.8-3.5z" fill="#ecc2ac" stroke-width="none" opacity="1" stroke="none"></path></g></g></g><g id="svga-group-facehighlight-single"></g><g id="svga-group-eyebrows-left-move" transform="matrix(1,0,0,1,0,2)"><g id="svga-group-eyebrows-left-rotate" transform="matrix(0.982566473233288,-0.18591160716291472,0.18591160716291472,0.982566473233288,-11.972875256869969,16.104995347663554)"><g id="svga-group-eyebrows-left" transform="matrix(1.0500002000000002,0,0,1.0500002000000002,-3.9364867312965544,-3.795100705854807)"><path id="SvgjsPath28953" d="M64.55 76.13s7.64-5.4 8.86-5.62 19.49 3.09 19.95 4.12c.46 1.03-.07 3.12-1.4 3.76-1.33.64-12.63-3.98-17.91-5.17-2-.45-9.5 2.91-9.5 2.91z" fill="#422c18" stroke-width="none" opacity="1" stroke="none"></path><path id="SvgjsPath28954" d="M64.52 76.15c.01.02.08.01.08 0l.03-.01.06-.02.12-.05.23-.09.47-.18.94-.35c.63-.23 1.26-.45 1.89-.67 1.26-.44 2.54-.84 3.83-1.12.32-.07.64-.12.96-.16.32-.03.63-.04.89.02.64.16 1.28.34 1.92.54 1.27.39 2.55.8 3.81 1.23 2.54.85 5.07 1.71 7.65 2.49.64.19 1.29.39 1.95.55.66.16 1.32.33 2.04.38.19 0 .37.02.62-.06l.09-.03.06-.04.12-.07c.08-.04.15-.1.23-.16.29-.23.51-.51.69-.8.34-.59.52-1.24.53-1.9 0-.33-.03-.67-.16-.99-.02-.05-.02-.07-.06-.13-.04-.07-.09-.09-.13-.13-.08-.06-.16-.1-.24-.14-.16-.08-.32-.13-.48-.19-.65-.22-1.3-.39-1.95-.55-1.31-.33-2.62-.61-3.94-.9-2.63-.58-5.25-1.18-7.9-1.68-1.33-.24-2.66-.47-4.01-.63-.34-.04-.68-.08-1.03-.09-.09 0-.18-.01-.28-.01-.05 0-.1 0-.17.01-.06.01-.1.03-.15.04-.21.06-.36.14-.52.22-.62.32-1.18.67-1.74 1.02-1.12.71-2.19 1.48-3.27 2.24-.54.38-1.07.77-1.59 1.17l-.79.59-.39.3-.19.15-.1.08c-.05.01-.1.08-.12.12zm.92-.49-.34.16.32-.2.83-.53 1.67-1.06c1.11-.71 2.23-1.41 3.36-2.09.56-.34 1.14-.67 1.71-.95l.21-.1c.07-.04.13-.04.19-.07l.09-.03h.08c.07 0 .15 0 .23.01.32.02.65.06.98.1 1.32.18 2.65.38 3.98.59 1.33.2 2.66.4 3.99.62 1.33.22 2.65.45 3.97.72 1.32.27 2.63.57 3.92.92.65.17 1.29.36 1.9.6.15.06.3.12.44.19.07.04.13.07.18.11.02.02.05.04.04.04.01 0 .02.06.03.08.09.27.11.57.09.87a3.7 3.7 0 0 1-.57 1.69c-.17.25-.37.47-.6.64-.06.04-.12.09-.18.12l-.09.05-.05.03h-.03c-.07.03-.24.02-.38.01-.62-.06-1.27-.24-1.91-.42-.64-.18-1.28-.38-1.91-.58-2.54-.82-5.05-1.74-7.61-2.57-1.28-.41-2.56-.82-3.86-1.17-.65-.18-1.31-.35-1.98-.49-.4-.09-.77-.05-1.12 0-.35.05-.69.12-1.02.2-1.33.34-2.58.82-3.83 1.32-.62.25-1.23.52-1.84.79l-.89.4z" fill="#331f0d" stroke-width="none" opacity="1" stroke="none"></path></g></g></g><g id="svga-group-eyebrows-right-move" transform="matrix(1,0,0,1,0,2)"><g id="svga-group-eyebrows-right-rotate" transform="matrix(0.9825664725843342,0.1859116105927184,-0.1859116105927184,0.9825664725843342,16.15886837017915,-21.398423035840935)"><g id="svga-group-eyebrows-right" transform="matrix(1.0500002000000002,0,0,1.0500002000000002,-6.044889787677789,-3.865552151905078)"><path id="SvgjsPath28955" d="M135.56 80.74s-6.82-5.75-7.95-6.03c-1.13-.28-18.27 2.16-18.75 3.17-.48 1.01-.1 3.12 1.11 3.82s11.94-3.37 16.91-4.31c1.88-.36 8.68 3.35 8.68 3.35z" fill="#422c18" stroke-width="none" opacity="1" stroke="none"></path><path id="SvgjsPath28956" d="m135.5 80.64-.09-.08-.17-.16-.35-.32-.7-.63c-.47-.42-.94-.84-1.42-1.24-.96-.81-1.92-1.62-2.93-2.39-.5-.38-1.01-.76-1.56-1.1-.14-.08-.28-.17-.47-.24-.05-.02-.09-.04-.14-.05-.06-.01-.12-.02-.16-.02-.09-.01-.18-.01-.26-.01-.33 0-.64.02-.96.05-1.26.1-2.51.26-3.76.44-2.49.37-4.96.85-7.43 1.3-1.24.23-2.47.45-3.7.72-.61.14-1.23.28-1.84.46-.15.05-.31.1-.46.17-.08.03-.15.07-.23.13-.04.04-.08.06-.13.12-.04.06-.04.09-.06.13-.13.32-.18.65-.2.98-.02.66.12 1.32.4 1.93.15.3.34.59.6.83.06.06.13.12.2.17l.11.08.06.04.08.04c.23.09.39.08.57.09.68-.02 1.29-.15 1.92-.28.62-.13 1.23-.3 1.84-.46 2.43-.66 4.83-1.4 7.24-2.13 1.2-.37 2.4-.72 3.6-1.05.6-.16 1.21-.32 1.81-.44.24-.06.54-.03.83.02.29.05.59.12.89.21 1.18.35 2.35.81 3.5 1.3.57.25 1.15.5 1.72.76l.85.4.43.2.21.1.11.05.05.03.03.01c-.01 0 .06.02.07 0a.339.339 0 0 0-.1-.16zm-1.56-.86c-.55-.3-1.11-.6-1.67-.88-1.13-.55-2.27-1.1-3.49-1.5-.31-.1-.62-.18-.94-.25-.32-.06-.67-.11-1.04-.05-.63.11-1.25.25-1.86.39-1.23.29-2.44.64-3.65.99-2.41.71-4.8 1.5-7.2 2.21-.6.17-1.2.34-1.81.49-.6.15-1.21.29-1.79.33-.13.01-.29 0-.36-.03l-.03-.01-.04-.03-.08-.06a.653.653 0 0 1-.16-.13c-.21-.18-.39-.41-.53-.67a3.91 3.91 0 0 1-.44-1.71c0-.3.03-.6.13-.86.01-.03.03-.08.03-.08l.04-.04c.05-.04.11-.07.18-.1.13-.07.28-.12.42-.17.58-.21 1.19-.36 1.8-.5 1.22-.29 2.45-.53 3.69-.73 1.24-.21 2.48-.37 3.73-.53 1.25-.16 2.49-.3 3.74-.43 1.25-.14 2.49-.28 3.73-.4.31-.03.62-.05.92-.06h.21c.03 0 .06.01.07.01.02.01.05.02.08.03.06.03.11.04.17.08l.19.11c.52.31 1.04.66 1.54 1.03 1.01.73 2.02 1.48 3.02 2.24l1.5 1.14.75.57.28.22-.31-.18-.82-.44z" fill="#331f0d" stroke-width="none" opacity="1" stroke="none"></path></g></g></g><g id="svga-group-nose-single-move" transform="matrix(1,0,0,1,0,0)"><g id="svga-group-nose-single"><path id="SvgjsPath29007" d="M109.52 109.12c-.37-.88-.94-1.63-1.59-2.29.5.77.95 1.58 1.22 2.42.13.42.21.86.14 1.25-.04.2-.1.36-.23.53-.12.17-.25.34-.41.47-.61.58-1.49.8-2.35.68-.43-.05-.87-.17-1.28-.35-.39-.14-.76-.35-1.13-.54.33-.49.63-1.01.89-1.55-.86.8-1.66 1.61-2.52 2.32-.43.35-.86.7-1.32.96-.45.27-.94.48-1.33.46-.1.01-.18-.02-.27-.03-.08-.05-.15-.05-.26-.14-.21-.13-.43-.31-.65-.48-.44-.34-.87-.72-1.31-1.08-.87-.74-1.75-1.48-2.69-2.17.44.7.95 1.34 1.47 1.97-.44.2-.89.36-1.34.46-.56.11-1.15.13-1.62-.09-.95-.47-1.51-1.61-1.35-2.58.04-.25.12-.44.26-.65.15-.23.32-.46.49-.69.35-.45.72-.9 1.11-1.33l.58-.65c.23-.25.4-.49.58-.74.36-.5.68-1.03.94-1.61.26-.57.42-1.23.52-1.81.1-.59.2-1.18.26-1.77.13-1.18.24-2.36.27-3.55.08-2.37.02-4.76-.45-7.08.05 2.36-.12 4.7-.35 7.03-.13 1.16-.26 2.33-.44 3.48-.09.58-.18 1.15-.28 1.72-.11.58-.23 1.07-.47 1.57-.22.5-.5.99-.82 1.45-.16.23-.33.47-.5.65-.2.23-.39.45-.58.68-.38.46-.74.94-1.09 1.43-.17.25-.35.5-.5.77-.18.29-.3.67-.32 1-.11 1.38.74 2.67 1.98 3.12.64.2 1.29.1 1.86-.1.47-.16.9-.4 1.31-.67.21.25.41.5.63.74.39.44.8.84 1.24 1.25.22.2.45.39.72.57.11.09.32.19.5.27.19.05.39.1.58.1.77 0 1.36-.33 1.88-.66.51-.36.96-.75 1.36-1.2.39-.42.74-.87 1.06-1.34.66.58 1.44 1.09 2.36 1.27.47.1.98.11 1.46 0 .48-.12.94-.36 1.31-.7.19-.17.34-.37.48-.57.15-.2.26-.48.28-.73.03-.54-.1-1.03-.29-1.47z" fill="#cd8e6c" stroke-width="none" opacity="1" stroke="none"></path></g></g><g id="svga-group-hair-front"><path id="SvgjsPath25720" d="M98.8 29.6s-6.6-4.7-8.6-4.8c0 0-2.9.5-6.9 3.5-3.8 3.1-18.6 13.7-20.4 15.8S60 48.7 60 48.7s-4.1 10.7-5.5 16.2l-3.9 17.5 1 19.6 2.4 31.7 3.1 16.5 1.5 6.8-.1-8 6.1 10.8 7 1.8-1.4-9.1 6.9 9.7-4.4-16.2-4.9-19.7-1-26.7s-.1-15.6.3-18.6.8-5.8.8-5.8l2.9-8.9s2.8-7.7 3.9-10 3.5-8.1 4.4-9.4c1-1.3 2.3-2.2 2.3-2.2s2.9.4 4.1.8 14.7 4.6 14.7 4.6l9-4.6s3.3-1.9 4.8-1.8c1.5.1 4.6 1.4 4.6 1.4s5.5 4.1 6.9 6.2 6.9 10.7 6.9 10.7 1.8 14.7 1.9 18.3c.1 3.6.9 10.1.9 10.1s1.4 11.6 1.4 13.7.3 7.9.3 7.9l-.3 8.5s-1.8 15.5-1.9 16.4c-.1.9-2.2 17.3-2.2 17.3l-.7 5.9 3.7-2.3 1-6.1 2 4.3 2.1 3.6.4-12 7.5 10.8-1.7-18.1-2.4-23.3.3-26.4.9-20.9.1-9.1-5.2-10.2s-5.1-8.4-8.2-10.8c-3.1-2.3-10-8.3-15-10.3s-9.9-3.1-9.9-3.1l-8.6 3.4z" fill="#4f3722" stroke-width="none" opacity="1" stroke="none"></path><path id="SvgjsPath25721" d="M136.9 123.2c.2-2.1.4-4.1.6-6.2.2-2.1.4-4.1.4-6.3-.6-8.3-1.4-16.5-2.1-24.7-.8-8.2-1.5-16.4-2.3-24.7v-.2l-.1-.1c-.8-1.8-1.7-3.2-2.7-4.7-1-1.5-2-2.9-3.1-4.3-2.2-2.7-4.5-5.5-7.6-7.6-1.5-1-3.4-1.8-5.3-1.8-1 0-2 .2-2.9.6-.9.4-1.6.8-2.4 1.2l-9.1 4.7c-2.7-.9-5.4-1.7-8.1-2.5-2.8-.8-5.7-1.7-8.6-2.3-.4-.1-.7-.1-1.1-.2l-.6-.1c-.2 0-.5 0-.7.1-.9.4-1.3 1-1.8 1.6-.9 1.2-1.6 2.5-2.2 3.9-1.3 2.7-2.4 5.4-3.5 8.1-2.1 5.5-4.1 11-5.9 16.6-.2.7-.3 1.5-.5 2.2l-.3 2.2c-.2 1.5-.3 2.9-.4 4.4-.2 2.9-.3 5.9-.4 8.8-.1 5.9-.2 11.8 0 17.6.1 2.9.2 5.9.3 8.8l.2 4.4c0 .7.1 1.5.2 2.2.1.8.2 1.5.3 2.3 1.2 5.8 2.8 11.5 4.3 17.2 1.3 4.7 2.7 9.4 4 14.1l-5.1-6.6-.9-1.1.3 1.4c.6 3.1 1.2 6.3 1.9 9.4h.2l-1.2-8.1c1.9 2.7 3.8 5.4 5.8 8.1l1.7 2.4-.8-2.9-4.5-17c-1.5-5.7-3-11.4-4.1-17.1-.2-.7-.2-1.4-.3-2.1l-.1-2.2-.2-4.4c-.1-2.9-.3-5.9-.3-8.8-.2-5.9-.4-11.7-.4-17.6 0-2.9 0-5.9.1-8.8.1-2.9.2-5.9 1-8.6 1.4-5.5 3.3-11 5.5-16.5 1.1-2.7 2.3-5.4 3.6-8 .7-1.3 1.4-2.6 2.2-3.7.4-.5.9-1.1 1.4-1.3h.4l.5.1c.3.1.7.2 1.1.2 5.6 1.4 11.2 3.4 16.7 5.3l.3.1.3-.1L110 46c.8-.4 1.6-.8 2.3-1.1.7-.3 1.5-.4 2.2-.4 1.5 0 3 .7 4.4 1.6 2.7 1.8 5 4.5 7.1 7.2 1.1 1.4 2.1 2.8 3 4.2.9 1.4 1.8 2.9 2.4 4.3.7 8.2 1.5 16.3 2.3 24.5l2.4 24.6c.1 1.9-.1 4-.2 6.1-.2 2.1-.3 4.1-.5 6.2l-1.2 12.3-2.6 24.6h.2c1.3-8.1 2.6-16.3 3.6-24.5.5-4.2 1-8.3 1.5-12.4zm2.9 7.4c.2-1.5.4-3 .4-4.7l-.1-1.2v-3.4c.1-12.2.5-24.5.4-36.7 0-1.5 0-3.1-.1-4.6 0-.8-.1-1.6-.1-2.3 0-.4-.1-.8-.1-1.2l-.1-.6-.1-.6c-.5-3-1-6-1.6-9-.6-3-1.2-6-2.1-9-.4-1.5-.8-3-1.4-4.5-.3-.7-.6-1.5-.9-2.2-.4-.7-.8-1.5-1.6-2.2-2.5-1.9-5-3.6-7.6-5.3-2.6-1.7-5.2-3.3-8-4.7-.7-.3-1.4-.7-2.2-.9-.4-.1-.8-.2-1.5-.2-.5.1-.9.3-1.2.4-1.5.6-2.8 1.3-4.2 2.1-2.6 1.4-5.2 2.9-7.8 4.4-5.2-2-10.4-4-15.8-5.7-1.4-.4-2.7-.9-4.1-1.2-.7-.2-1.4-.3-2.1-.5H77c-.1 0-.3 0-.4.1-.4.2-.7.5-.9.8-.9 1.2-1.5 2.5-2.1 3.8-.6 1.3-1.2 2.6-1.7 3.9-2.2 5.2-4.1 10.6-6.1 15.9-1.9 5.3-3.8 10.7-5.6 16.1-.9 2.7-1.8 5.4-2.6 8.1-.4 1.4-.8 2.7-1.2 4.1-.2.7-.4 1.4-.5 2.1 0 .2-.1.4-.1.6V94c.1 5.8.5 11.4.9 17.1.4 5.7.9 11.3 1.4 17l1.6 17v.1c1.6 4.9 3.1 9.8 4.7 14.7l.2-.1c-1.3-5-2.6-9.9-3.9-14.9L58.4 111l-.5-8.5c-.1-2.8-.3-5.7-.4-8.5v-1.5c0-.2 0-.3.1-.5.1-.7.3-1.3.5-2 .3-1.4.7-2.7 1.1-4.1.8-2.7 1.5-5.5 2.3-8.2 3.2-10.9 6.6-21.7 10.9-32.2.5-1.3 1.1-2.6 1.7-3.9.6-1.3 1.3-2.5 2.1-3.6.2-.3.4-.5.7-.6h.8c.7.1 1.4.3 2 .5 1.4.4 2.7.8 4 1.3 5.3 1.9 10.6 4 15.8 6.2l.2.1.3-.1c2.7-1.5 5.4-2.9 8.1-4.3 1.4-.7 2.7-1.4 4.1-1.9.3-.1.7-.2.9-.3.1 0 .5 0 .8.2.7.2 1.3.5 2 .9 2.7 1.4 5.2 3.1 7.7 4.8 2.5 1.7 5 3.5 7.4 5.3.4.3.7.9 1 1.5.3.6.6 1.3.8 2 .5 1.4.9 2.8 1.3 4.3.8 2.9 1.4 5.9 1.9 8.9l1.6 9 .1.6.1.5c0 .3.1.7.1 1.1 0 .8.1 1.5.1 2.3 0 1.5.1 3 .1 4.6 0 12.2-.1 24.5.1 36.7 0 .8 0 1.5.1 2.3 0 .4 0 .8.1 1.2l.1.6v.5c.1 1.4-.1 3-.2 4.5-.3 3-.6 6.1-1 9.1-.7 6.1-1.5 12.1-2.3 18.2h.2c1.1-6 2.1-12.1 3.1-18.1.7-3.2 1.1-6.2 1.5-9.3zm9.3 30.1-.2-2.4-2.1-24.3-1.1-12.1c-.4-4-.5-8-.5-12 0-8.1.2-16.2.5-24.3l.9-24.3v-.2l-.1-.2c-.8-2.3-1.7-4.3-2.7-6.4-1-2.1-2.2-4-3.4-6-2.5-3.9-5.5-7.4-8.8-10.6-3.3-3.2-7.1-5.8-11.2-8-2-1.1-4.2-1.9-6.3-2.7-2.2-.7-4.4-1.4-6.7-1.7h-.1l-.1.1-8.2 3.6c-1.3-1-2.6-1.9-3.9-2.7-.7-.4-1.5-.9-2.2-1.2-.8-.3-1.6-.7-2.5-.8-.4 0-.9-.1-1.4.1-.4.1-.8.3-1.2.5-.8.4-1.5.8-2.2 1.3-1.4.9-2.8 1.9-4.1 2.9-5.4 4-10.7 8-15.9 12.2-1.3 1.1-2.6 2.1-3.9 3.2-1.2 1.4-1.8 2.9-2.5 4.5-1.3 3.1-2.4 6.2-3.5 9.4-1 3.2-2 6.4-2.9 9.6-.9 3.2-1.7 6.5-2.4 9.8-.2.8-.3 1.7-.5 2.5-.1.4-.1.8-.2 1.3v1.3c0 1.7.1 3.4.1 5 .1 3.3.3 6.7.5 10 .4 6.7.9 13.3 1.5 20 .3 3.3.5 6.7.9 10 .2 1.7.3 3.3.5 5 .2 1.7.5 3.4.8 5 1.3 6.6 2.8 13.1 4.3 19.5l.5-.1-.5-7.8h-.2l.1 4.7-1.3-6.8c-.6-3.3-1.3-6.6-1.8-9.8-.3-1.6-.6-3.3-.7-4.9-.2-1.6-.3-3.3-.4-5l-.7-10c-.5-6.7-.9-13.3-1.2-20l-.5-10c-.1-1.7-.2-3.3-.2-5v-1.2c0-.4.1-.8.1-1.2.1-.8.3-1.6.4-2.4 1.3-6.5 2.9-13 4.8-19.3 1-3.2 2-6.3 3.2-9.4.6-1.5 1.3-3.1 2.3-4.3.5-.5 1.2-1.1 1.8-1.6l1.9-1.6c5.2-4.2 10.3-8.4 15.8-12.3 1.3-1 2.7-1.9 4.1-2.8.7-.4 1.4-.9 2.1-1.2.4-.2.7-.4 1.1-.5.3-.1.7-.1 1.1 0 1.5.2 3 1.1 4.4 1.9 1.4.9 2.7 1.9 4 2.9l.2.2.2-.1 8.2-3.4c2.1.4 4.2 1 6.3 1.8 2.1.8 4.1 1.7 6.1 2.8 3.9 2.2 7.6 4.8 10.7 7.9 3.2 3.1 6 6.6 8.4 10.4 1.2 1.9 2.3 3.8 3.3 5.8 1 1.9 1.8 4 2.5 6-.4 8-.8 16.1-1.1 24.1-.3 8.1-.5 16.2-.4 24.4 0 2 0 4.1.1 6.1s.3 4.2.5 6.1l1.3 12.1 2.4 21.9-6.4-9-.8-1.1v12.8l-1.9-3.2-.2.1 2.1 3.8.3.6v-.7l.4-10.8 6.7 10.1 1.7 2.1z" fill="#402915" stroke-width="none" opacity="1" stroke="none"></path></g><g id="svga-group-glasses-single-move" transform="matrix(1,0,0,1,0,1)"><g id="svga-group-glasses-single"></g></g></g></g></g><rect id="svga-credit-rect" width="200" height="15" x="0" y="185" fill="#ecf0f1" opacity="0.5" style="display: none;"></rect><text id="svga-credit-text" font-family="Avenir Next, Roboto, Helvetica, Arial, sans-serif" font-size="10px" text-anchor="start" font-weight="400" size="10px" anchor="start" weight="400" fill="#333333" x="33.40447998046875" y="182.60824704170227" style="display: none;"><tspan id="SvgjsTspan25396" dy="13" x="33.40447998046875">Created on AvatarMaker.com</tspan></text></g><defs id="SvgjsDefs25348"><linearGradient id="SvgjsLinearGradient27223" x1="99.7789" y1="100.5259" x2="99.7789" y2="111.7225" gradientUnits="userSpaceOnUse" class="svga-on-canvas-nose-gradient-single-0-null"><stop id="SvgjsStop27224" stop-opacity="0" stop-color="#f1d0bf" offset="0" ></stop><stop id="SvgjsStop27225" stop-opacity="1" stop-color="#e9c2ad" offset="1" ></stop></linearGradient><linearGradient id="SvgjsLinearGradient28083" x1="100.0291" y1="78.4287" x2="100.0291" y2="116.3678" gradientUnits="userSpaceOnUse" class="svga-on-canvas-nose-gradient-single-0-null"><stop id="SvgjsStop28084" stop-opacity="0" stop-color="#ffede4" offset="0" ></stop><stop id="SvgjsStop28085" stop-opacity="0.9727" stop-color="#f1d0bf" offset="0.7584" ></stop><stop id="SvgjsStop28086" stop-opacity="0.9769" stop-color="#e9c2ad" offset="0.7953" ></stop><stop id="SvgjsStop28087" stop-opacity="0.9852" stop-color="#e2b49c" offset="0.8691" ></stop><stop id="SvgjsStop28088" stop-opacity="0.9968" stop-color="#d29a7d" offset="0.972" ></stop><stop id="SvgjsStop28089" stop-opacity="1" stop-color="#c38260" offset="1" ></stop></linearGradient><linearGradient id="SvgjsLinearGradient28113" x1="99.7789" y1="100.5259" x2="99.7789" y2="111.7225" gradientUnits="userSpaceOnUse" class="svga-on-canvas-nose-gradient-single-0-null"><stop id="SvgjsStop28114" stop-opacity="0" stop-color="#f1d0bf" offset="0" ></stop><stop id="SvgjsStop28115" stop-opacity="1" stop-color="#e9c2ad" offset="1" ></stop></linearGradient></defs></svg>