<svg xmlns="http://www.w3.org/2000/svg" version="1.1" width="600px" height="600px" viewBox="0 0 200 200" style="overflow:hidden!important;"><g id="svga-group-wrapper"><g id="svga-group-backs-single"></g><g id="svga-group-humanwrap-move" transform="matrix(1,0,0,1,0,4)"><g id="svga-group-humanwrap"><g id="svga-group-hair-back-move" transform="matrix(1,0,0,1,0,0)"><g id="svga-group-hair-back"></g></g><g id="svga-group-humanbody-back"><path id="SvgjsPath70487" d="M180.8 184.9c-2.3-3.4-38.9-17.8-38.9-17.8l-13.4-5.2-5.6-68.8H76.8L71.3 162l-13.4 5.2S21.4 181.6 19 185c-2.3 3.4-3.3 14.9-3.3 14.9V219h168.5v-19.2c-.1.1-1-11.5-3.4-14.9z" fill="#d8b1a2" stroke-width="none" opacity="1"></path></g><g id="svga-group-chinshadow-single"><path id="SvgjsPath70483" d="M73 146.3c5.5 2.6 6.6 7.4 9 10.8 2.4 3.4 12.1 3.7 12.1 3.7s9.7-.2 12-3.6c2.4-3.4 3.4-8.2 9-10.8 2.87-1.36 7.58-3.19 11.72-5.63l-3.88-47.67H76.82l-4.22 53.02c.13.06.28.12.4.18z" fill="#b97d66" stroke-width="none" opacity="1"></path></g><g id="svga-group-humanbody-front"><path id="SvgjsPath70488" d="M184.5 219c-.1-6.4-.1-12.8-.1-19.2l-.3-.1s.1-.1.2 0c.1 0 .1.1.1.1v-.4l-.1-.5-.1-.9-.2-1.9c-.2-1.3-.4-2.5-.6-3.8-.2-1.3-.5-2.5-.9-3.8-.4-1.2-.8-2.5-1.5-3.6-.8-.9-1.9-1.5-2.9-2.1-1-.6-2.1-1.1-3.2-1.7-2.1-1.1-4.3-2.1-6.5-3.1-4.4-2-8.7-3.9-13.1-5.7-4.4-1.9-8.8-3.7-13.2-5.5l-13-5.2-1.2-16.9c-.4-5.7-.9-11.5-1.3-17.2l-1.3-17.2-1.5-17.3-.1-.8h-.8c-7.7 0-15.4.1-23.1.1l-23.1.2h-.5v.5L75 110.2l-1.3 17.2c-.8 11.4-1.8 22.8-2.8 34.2-5.6 2.1-11.2 4.2-16.7 6.4-5.6 2.2-11.2 4.5-16.8 6.9-2.8 1.2-5.6 2.4-8.3 3.6-2.8 1.3-5.5 2.5-8.2 4.1-.7.4-1.3.8-2 1.4-.2.1-.4.4-.5.6l-.3.6c-.2.4-.4.7-.5 1.1-.6 1.5-1 3-1.3 4.5-.6 3-1.1 6-1.4 9.1l-.1 19.1v.9h.9l42.1.1H100c14 0 28.1-.1 42.1-.2l42.1-.5h.3v-.3zm-84.5-1-42.1-.1-41.2.1-.1-18.1c.3-3 .6-5.9 1.2-8.9.3-1.4.6-2.9 1.1-4.2.1-.3.3-.7.4-.9l.2-.4.3-.3c.5-.4 1.1-.8 1.8-1.2 2.5-1.5 5.3-2.8 8-4.1 2.7-1.3 5.5-2.5 8.2-3.7 5.5-2.4 11.1-4.8 16.7-7.1s11.2-4.5 16.9-6.7l.2-.1v-.2c.9-11.5 1.7-23 2.7-34.4l1.4-17.2 1.5-16.7 22.6.2c7.4.1 14.8.1 22.3.1l1.3 16.4 1.5 17.2c.5 5.7 1 11.5 1.5 17.2l1.6 17.2v.3l.3.1 13.4 5c4.4 1.7 8.9 3.4 13.3 5.2 4.4 1.8 8.8 3.7 13.2 5.6 2.2 1 4.3 2 6.5 3 1.1.5 2.1 1.1 3.2 1.6 1 .6 2.1 1.2 2.9 2 .7 1.1 1.1 2.3 1.4 3.5.3 1.2.6 2.5.8 3.7.2 1.3.4 2.5.6 3.8l.2 1.9.1.9.1.5v.4c0 6.3 0 12.6-.1 18.9l-41.8-.5c-14 .1-28.1 0-42.1 0z" fill="#aa674d" stroke-width="none" opacity="1"></path><path id="SvgjsPath70489" d="M125.1 142.4s-1.8 23-9.1 32.9c0 0 7.9-25 9.1-32.9zm-34.5 16s5 7.9 11.5 10.1c0 0-9.5 2.2-11.5-10.1zM73.4 140c6.7 25.6 6.7 25.6 8.5 30.7 0 0 .4-12.6-8.5-30.7z" fill="#b97d66" stroke-width="none" opacity="1"></path></g><g id="svga-group-clothes-single"><path id="SvgjsPath70373" d="M56.9 166.6s-31.1 11.5-38.3 16.7c0 0-2.3 2.3-3.3 9.3-1 7-1.4 27.3-1.4 27.3h171.5s-.2-16.2-1.3-25.3c-1.2-9.1-1.9-9.3-3.1-10.5-1.2-1.2-27.3-14-38.6-17.5 0 0-1.6 22-40.1 23.6s-45.2-17.5-45.4-23.6z" fill="#386e77" stroke-width="none" opacity="1"></path><path id="SvgjsPath70374" d="M185.8 220c-.1-6.6-.3-13.2-.7-19.8-.2-3.3-.6-6.6-1.1-9.8-.3-1.6-.5-3.3-1.3-4.9-.2-.4-.5-.8-.8-1.1-.3-.3-.6-.6-1-.9-.8-.5-1.5-.9-2.2-1.2-5.8-3.1-11.8-5.9-17.8-8.7-3-1.4-6-2.7-9.1-3.9-3.1-1.3-6.1-2.5-9.3-3.5l-.5-.2-.1.6c-.3 2.1-1 4.2-2.1 6.1l-.4.7-.4.7-.9 1.4-1 1.3c-.4.4-.7.9-1.1 1.2-1.5 1.6-3.2 2.9-5 4.1-.9.6-1.8 1.2-2.8 1.7l-3 1.4c-4.1 1.6-8.3 2.9-12.7 3.6l-3.3.5-3.3.3-3.3.3c-1.1.1-2.2 0-3.3.1H96c-1.1 0-2.2-.1-3.3-.1l-3.3-.2-3.3-.4c-2.2-.2-4.3-.8-6.5-1.2-1.1-.2-2.1-.6-3.2-1l-1.6-.5-1.5-.7c-4.1-1.7-7.9-4.1-10.8-7.4l-1.1-1.2c-.3-.4-.6-.9-1-1.3-.7-.9-1.1-1.9-1.7-2.8-1-2-1.6-4.1-1.8-6.4-3.4 1.2-6.6 2.4-9.9 3.6-3.3 1.2-6.5 2.5-9.8 3.8-3.2 1.3-6.5 2.7-9.6 4.1-3.2 1.5-6.4 2.9-9.3 4.9-1.1 1.3-1.7 2.8-2.2 4.2-.5 1.5-.9 3-1.1 4.6-.5 3.1-.6 6.2-.8 9.3-.4 6.2-.6 12.4-.7 18.7v.4h.4c14.3.1 28.6-.1 42.9-.1l42.9-.1h21.4l21.4.1 42.9.2h.4v-.5zm-64.7-.2H99.7l-42.9-.1c-6.8 0-13.6 0-20.5-.1-.1-3.4-.5-6.7-1-10-.6-3.4-1.3-6.8-2.5-10-.6-1.6-1.5-3.2-2.5-4.6-1-1.4-2-2.8-3.2-4.1-2.3-2.6-4.9-4.9-7.6-6.9 2.5 2.3 4.9 4.8 7.1 7.4 2.1 2.6 4.1 5.4 5.3 8.6 1.2 3.1 2 6.5 2.7 9.8.4 1.7.7 3.4 1 5 .3 1.6.6 3.2.8 4.9-7.3 0-14.6-.1-22 0 .1-6.1.3-12.1.6-18.2.2-3.1.3-6.2.8-9.3.2-1.5.6-3 1.1-4.5.5-1.4 1.1-2.9 2-4 2.8-1.9 6-3.4 9.1-4.9 3.2-1.5 6.4-2.8 9.6-4.2 3.2-1.4 6.4-2.7 9.7-4l9.7-3.8c.1 2.1.8 4.4 1.7 6.4.5 1 1 2 1.7 2.9.3.5.6.9 1 1.4l1.1 1.3c3 3.4 6.8 5.9 10.9 7.6l1.5.7 1.6.5c1.1.3 2.1.8 3.2 1 2.2.5 4.3 1.1 6.6 1.3l3.3.5 3.3.2c1.1.1 2.2.2 3.3.2h5.3c-.2.7-.2 1.3-.1 1.9.1.7.2 1.3.5 2-1.1 0-2.1.1-3.2 0-4.8 0-9.6-.2-14.3-.9-.6-.1-1.2-.1-1.8-.2l-1.8-.4-3.5-.7c-1.2-.3-2.3-.7-3.4-1l-1.6-.5c.5-.5.9-1.2 1.2-1.8.3-.7.6-1.5.7-2.3-.6.6-1 1.3-1.4 2-.3.7-.6 1.3-.7 2.1-.6-.2-1.1-.4-1.6-.6-1.5-.6-2.9-1.2-4.3-1.9.3-.3.6-.5.8-.8.3-.3.5-.6.8-.9.5-.7.9-1.4 1.2-2.2-.7.5-1.3 1.1-1.8 1.7-.2.3-.5.7-.7 1.1-.2.3-.3.7-.4 1.1-2.2-1.1-4.2-2.5-6-4.1.8-.4 1.4-.9 2-1.5.6-.6 1.2-1.3 1.6-2.1-.8.4-1.5 1-2.1 1.6-.6.6-1.1 1.2-1.5 2-.5-.5-1.1-.9-1.6-1.4-.5-.4-.8-.9-1.2-1.3-.4-.4-.8-.9-1.2-1.4-.7-1-1.4-1.9-2-3-1.2-2.1-2.1-4.3-2.4-6.7.2 2.4 1.1 4.7 2.2 6.9.5 1.1 1.2 2.1 1.9 3.1.3.5.8.9 1.1 1.4.4.4.8 1 1.2 1.4 3.4 3.5 7.6 6.1 12.1 7.9.6.2 1.1.5 1.7.7l1.7.6c1.2.4 2.3.8 3.5 1.1l3.6.8 1.8.4c.6.1 1.2.2 1.8.2 4.8.7 9.6.9 14.5 1 9.6 0 19.4-1.3 28.4-5 4.5-1.9 8.7-4.3 12.3-7.6 1.8-1.7 3.4-3.4 4.7-5.5 1.4-2 2.5-4.1 3.1-6.5-1.6 4.6-4.7 8.4-8.2 11.6-3.6 3.2-7.8 5.5-12.3 7.3-6.6 2.6-13.6 3.9-20.7 4.4.1-.6.1-1.1 0-1.6-.1-.6-.3-1.2-.6-1.8-.2.7-.2 1.3-.1 1.9.1.5.2 1.1.5 1.6-1.3.1-2.7.1-4 .2.2-.7.2-1.4.2-2.1-.1-.6-.2-1.2-.5-1.9h1.2l3.3-.2c1.1-.1 2.2-.1 3.3-.3l3.3-.5c4.4-.6 8.8-1.9 12.9-3.5 4.1-1.7 8-4.2 11.2-7.4.4-.4.8-.8 1.1-1.3l1.1-1.3.9-1.4.5-.7.4-.8c1-1.8 1.7-3.7 2.1-5.8 2.9.9 5.8 2.1 8.6 3.3l9 3.9c6 2.7 11.9 5.5 17.7 8.6.7.4 1.5.8 2.1 1.2.3.1.6.5.9.7.3.3.4.6.6.9.6 1.4.9 3 1.2 4.6.5 3.2.9 6.5 1.2 9.8.5 6.4.7 12.9.8 19.3l-22.5.1c.3-1.7.5-3.3.8-4.9.3-1.7.6-3.4 1-5 .7-3.3 1.5-6.7 2.7-9.8 1.1-3.1 3.2-5.9 5.3-8.6 2.2-2.6 4.6-5.1 7.1-7.4-2.8 2-5.3 4.4-7.6 6.9-1.2 1.3-2.2 2.6-3.2 4.1-1 1.4-1.8 3-2.4 4.6-1.2 3.2-2 6.6-2.5 10-.5 3.4-.9 6.7-1 10.1l-19.9.1-21.7-.6zm16.2-41.2c.3.7.7 1.2 1.2 1.7s1 .9 1.7 1.2c-.3-.7-.7-1.2-1.2-1.7s-1-1-1.7-1.2z" fill="#184f58" stroke-width="none" opacity="1"></path></g><g id="svga-group-head" transform="matrix(1,0,0,1,0,0)"><g id="svga-group-ears-left-move" transform="matrix(1,0,0,1,0,0)"><g id="svga-group-ears-left" transform="matrix(0.9499998000000001,0,0,0.9499998000000001,2.9500595792743667,4.333546997204579)"><path id="SvgjsPath70383" d="M68.53 80.36s-11.15-9.8-12.94-9.96c-1.54-.14-5.36 8.01-7.05 13.16-.45 1.36-.34 2.88.25 4.2 1.62 3.57 5.21 11.04 8.43 14.78 0 0 2.72.59 3.58.33.86-.25 7.58-5.67 8.27-7.77s.83-11.3-.54-14.74z" fill="#d8b1a2" stroke-width="none" opacity="1"></path><path id="SvgjsPath70384" d="M69.49 84.19c.18 1.31.28 2.64.33 3.96.05 1.32.06 2.65-.01 3.98a26.7 26.7 0 0 1-.17 1.99c-.05.34-.1.67-.2 1.02s-.28.7-.46.96c-.72 1.11-1.6 1.95-2.47 2.8-.88.84-1.78 1.63-2.71 2.4-.47.38-.93.75-1.42 1.11-.24.18-.49.35-.74.52l-.4.24c-.16.08-.35.17-.53.19-.67.08-1.23-.01-1.82-.09-.58-.08-1.15-.19-1.73-.32l-.13-.03-.08-.1c-1.45-1.74-2.63-3.68-3.74-5.65-1.1-1.98-2.1-4.03-3.06-6.1l-1.41-3.11c-.5-1.05-.71-2.29-.54-3.46.06-.59.26-1.14.44-1.67.18-.54.37-1.07.56-1.6.4-1.05.79-2.11 1.22-3.15.86-2.07 1.76-4.13 2.94-6.02.3-.47.62-.93 1-1.36.19-.21.4-.42.67-.59.13-.08.3-.16.52-.16.19.01.32.07.47.12 1.06.47 1.87 1.14 2.75 1.76 1.72 1.29 3.37 2.66 5 4.09 1.64 1.41 3.22 2.86 4.81 4.38.49 1.27.72 2.58.91 3.89zM58.4 72.51c-.85-.59-1.75-1.26-2.59-1.61-.09-.02-.2-.08-.26-.08-.04 0-.12.02-.2.07-.17.1-.35.25-.51.44-.34.36-.65.8-.94 1.24-1.16 1.8-2.18 3.77-3.11 5.77-.46 1.01-.92 2.02-1.32 3.06-.2.52-.4 1.04-.59 1.57-.19.53-.38 1.05-.45 1.6-.15 1.11.06 2.27.55 3.26.47 1.03.98 2.05 1.49 3.05 1.02 2.02 2.12 3.99 3.26 5.91 1.15 1.91 2.36 3.79 3.76 5.42l-.21-.13c1.09.2 2.3.43 3.29.33.11-.01.18-.06.28-.11l.35-.22.7-.5c.47-.34.93-.71 1.39-1.08.92-.74 1.81-1.52 2.68-2.34.85-.82 1.73-1.66 2.39-2.61.17-.25.29-.46.38-.72.08-.27.14-.58.19-.89.09-.63.17-1.27.21-1.91.1-1.29.14-2.6.15-3.9.01-1.31-.04-2.62-.15-3.92-.11-1.3-.27-2.62-.66-3.84-3.33-2.62-6.67-5.35-10.08-7.86z" fill="#c99682" stroke-width="none" opacity="1"></path><path id="SvgjsPath70385" d="M68.79 88.66S58.04 75.08 56.02 76.21c-2.01 1.12-5.19 7.53-5.18 9.67.02 3.14 3.34 8.38 5.01 9.96s3.68 2.55 6.35 1.94c2.66-.61 6.59-9.12 6.59-9.12z" fill="#c99682" stroke-width="none" opacity="1"></path><path id="SvgjsPath70386" d="M60.61 88.64c-.45-1.26-.95-2.5-1.45-3.74a49.61 49.61 0 0 0-1.66-3.64c-.61-1.18-1.22-2.36-1.97-3.45l-.08-.12-.08.12c-.75 1.18-1.45 2.38-2.12 3.62-.33.62-.66 1.25-.96 1.89-.31.64-.57 1.31-.84 1.98l-.04.1.04.12c.46 1.41.96 2.79 1.47 4.18.25.69.54 1.37.83 2.05.3.68.59 1.35.99 2.01l.19.31.25-.23c.34-.31.6-.65.87-1.02.26-.37.49-.76.69-1.17.4-.82.63-1.78.6-2.74v-.06l-.02-.04c-.5-.99-1.03-1.96-1.55-2.94l-.05.03c.42 1.01.83 2.03 1.26 3.03-.04.86-.3 1.68-.68 2.41-.33.62-.77 1.17-1.24 1.65-.26-.49-.5-1.02-.73-1.56l-.81-2.03c-.53-1.32-1.03-2.66-1.52-3.99.45-1.3.94-2.59 1.52-3.82.57-1.23 1.22-2.41 1.96-3.51.67 1.04 1.17 2.23 1.68 3.39l1.54 3.67 1.56 3.67c.52 1.22 1.05 2.45 1.6 3.66l.06-.03c-.41-1.27-.85-2.54-1.31-3.8z" fill="#aa674d" stroke-width="none" opacity="1"></path></g></g><g id="svga-group-ears-right-move" transform="matrix(1,0,0,1,0,0)"><g id="svga-group-ears-right" transform="matrix(0.9499998000000001,0,0,0.9499998000000001,7.05088460296173,4.334900075736996)"><path id="SvgjsPath70387" d="M131.47 80.36s11.15-9.8 12.94-9.96c1.54-.14 5.36 8.01 7.05 13.16.45 1.36.34 2.88-.25 4.2-1.62 3.57-5.21 11.04-8.43 14.78 0 0-2.72.59-3.58.33-.86-.25-7.58-5.67-8.27-7.77s-.83-11.3.54-14.74z" fill="#d8b1a2" stroke-width="none" opacity="1"></path><path id="SvgjsPath70388" d="M131.44 80.33c1.58-1.52 3.17-2.97 4.81-4.38 1.62-1.42 3.28-2.8 5-4.09.88-.63 1.69-1.29 2.75-1.76.16-.04.28-.11.47-.12.21 0 .38.08.52.16.28.17.49.37.67.59.38.43.7.89 1 1.36 1.18 1.89 2.07 3.96 2.94 6.02.43 1.04.82 2.09 1.22 3.15.19.53.38 1.06.56 1.6.18.53.37 1.08.44 1.67.17 1.17-.04 2.41-.54 3.46l-1.41 3.11c-.97 2.06-1.96 4.11-3.06 6.1-1.11 1.98-2.29 3.92-3.74 5.65l-.08.1-.13.03c-.58.13-1.15.23-1.73.32-.59.07-1.16.16-1.82.09-.18-.02-.37-.11-.53-.19l-.4-.24c-.25-.17-.5-.34-.74-.52-.48-.36-.95-.73-1.42-1.11-.93-.76-1.83-1.56-2.71-2.4-.87-.86-1.75-1.69-2.47-2.8a3.42 3.42 0 0 1-.46-.96c-.1-.35-.14-.69-.2-1.02-.08-.67-.14-1.33-.17-1.99-.07-1.33-.07-2.65-.01-3.98.06-1.32.15-2.65.33-3.96.17-1.34.4-2.65.91-3.89zm.06.06c-.4 1.21-.56 2.54-.66 3.84-.1 1.3-.15 2.61-.15 3.92.01 1.31.06 2.61.15 3.9.05.65.12 1.29.21 1.91.06.31.11.62.19.89.09.26.2.47.38.72.66.94 1.54 1.79 2.39 2.61.86.81 1.76 1.59 2.68 2.34.46.37.92.73 1.39 1.08l.7.5.35.22c.1.05.17.1.28.11.99.1 2.2-.13 3.29-.33l-.21.13c1.4-1.63 2.61-3.51 3.76-5.42 1.14-1.92 2.24-3.89 3.26-5.91.51-1.01 1.02-2.02 1.49-3.05.49-.99.7-2.15.55-3.26-.07-.56-.26-1.07-.45-1.6s-.38-1.05-.59-1.57c-.4-1.04-.86-2.06-1.32-3.06-.93-2.01-1.95-3.97-3.11-5.77-.29-.44-.6-.88-.94-1.24-.17-.18-.35-.34-.51-.44a.431.431 0 0 0-.2-.07c-.06 0-.17.06-.26.08-.84.35-1.74 1.02-2.59 1.61-3.39 2.49-6.73 5.22-10.08 7.86z" fill="#c99682" stroke-width="none" opacity="1"></path><path id="SvgjsPath70389" d="M131.21 88.66s10.75-13.58 12.77-12.45c2.01 1.12 5.19 7.53 5.18 9.67-.02 3.14-3.34 8.38-5.01 9.96s-3.68 2.55-6.35 1.94c-2.66-.61-6.59-9.12-6.59-9.12z" fill="#c99682" stroke-width="none" opacity="1"></path><path id="SvgjsPath70390" d="M148.54 85.31c-.26-.67-.52-1.34-.84-1.98-.3-.64-.62-1.27-.96-1.89-.67-1.24-1.38-2.44-2.12-3.62l-.08-.12-.08.12c-.74 1.1-1.36 2.27-1.97 3.45-.6 1.18-1.14 2.4-1.66 3.64-.49 1.24-1 2.48-1.45 3.74-.46 1.26-.9 2.53-1.28 3.81l.06.03c.55-1.21 1.07-2.44 1.6-3.66l1.56-3.67 1.54-3.67c.51-1.16 1.01-2.35 1.68-3.39.74 1.1 1.39 2.29 1.96 3.51.58 1.24 1.08 2.52 1.52 3.82-.5 1.34-.99 2.67-1.52 3.99l-.81 2.03c-.23.53-.47 1.07-.73 1.56-.47-.48-.91-1.03-1.24-1.65-.39-.73-.64-1.55-.68-2.41.43-1 .84-2.02 1.26-3.03l-.05-.03c-.52.98-1.05 1.95-1.55 2.94l-.02.04v.06c-.03.96.2 1.92.6 2.74.2.41.43.81.69 1.17.26.36.53.71.87 1.02l.25.23.19-.31c.4-.67.69-1.34.99-2.01.29-.68.57-1.36.83-2.05.51-1.38 1.01-2.77 1.47-4.18l.04-.12-.07-.11z" fill="#aa674d" stroke-width="none" opacity="1"></path></g></g><g id="svga-group-faceshape-wrap"><g id="svga-group-faceshape-single"><path id="SvgjsPath70469" d="M139.24 94.99c-.76-8.02 1.89-33.13.68-40.1-2.2-10-6.11-15.74-15.01-20.54-9.3-5-25.03-4.86-25.03-4.86s-15.78-.22-25.08 4.78c-8.7 4.9-12.73 10.58-14.93 20.58-.9 4 0 13.7 0 13.7s1.78 19.58 1.18 26.68c-.5 7.1-.79 19.34 1.31 26.44s11.07 14.23 16.57 16.83 6.9 5.52 9.3 8.92 11.7 3.53 11.7 3.53 9.55-.31 11.95-3.71 3.47-6.12 9.07-8.72c5.5-2.6 14.75-9.62 16.85-16.72 2.2-7.2 1.94-19.61 1.44-26.81z" fill="#d8b1a2" stroke-width="none" opacity="1"></path><path id="SvgjsPath70470" d="M139.92 54.89c-2.2-10-6.11-15.74-15.01-20.54-9.3-5-25.03-4.86-25.03-4.86s-15.78-.22-25.08 4.78c-8.7 4.9-12.73 10.58-14.93 20.58-.9 4 0 13.7 0 13.7s1.78 19.58 1.18 26.68c-.5 7.1-.79 19.34 1.31 26.44s11.07 14.23 16.57 16.83 6.9 5.52 9.3 8.92 11.7 3.53 11.7 3.53 9.55-.31 11.95-3.71c2.4-3.4 3.47-6.12 9.07-8.72 5.5-2.6 14.75-9.62 16.85-16.72 2.2-7.2 1.94-19.61 1.44-26.81-.76-8.02 1.89-33.13.68-40.1zm-.46 18.97-.36 10.56c-.1 3.52-.25 7.05.02 10.58.41 7.01.5 14.1-.51 21.04-.26 1.73-.61 3.45-1.11 5.1-.49 1.65-1.27 3.17-2.24 4.58-.96 1.42-2.12 2.71-3.35 3.92a37.24 37.24 0 0 1-3.93 3.38 45.341 45.341 0 0 1-4.29 2.89c-.74.44-1.5.84-2.25 1.23-.73.37-1.58.72-2.4 1.16-1.63.85-3.22 1.94-4.52 3.34-1.3 1.4-2.27 2.96-3.25 4.36l-.37.52c-.11.11-.21.22-.31.34-.09.12-.26.21-.39.32s-.27.21-.44.3c-.61.39-1.39.67-2.14.94-1.56.49-3.24.8-4.93 1-.84.1-1.7.17-2.54.22-.3.03-.76-.02-1.18-.04l-1.27-.1c-1.69-.17-3.37-.45-4.93-.92-.78-.23-1.52-.52-2.16-.89-.15-.09-.32-.18-.46-.28l-.39-.31c-.14-.1-.2-.22-.31-.33-.09-.08-.22-.26-.34-.44-.98-1.4-1.95-2.95-3.21-4.38-1.25-1.44-2.78-2.65-4.39-3.6-.79-.47-1.69-.9-2.43-1.26-.75-.36-1.49-.77-2.21-1.22-2.9-1.77-5.62-3.93-8-6.35-2.36-2.43-4.45-5.21-5.4-8.29-.93-3.23-1.29-6.71-1.52-10.17-.23-3.47-.25-6.97-.17-10.47.04-1.75.11-3.5.21-5.24.11-1.81.08-3.59.03-5.36-.12-3.55-.36-7.07-.63-10.59s-.59-7.03-.94-10.54c-.36-3.49-.59-7-.5-10.49.02-.87.09-1.74.19-2.59.12-.83.35-1.69.54-2.54.43-1.69.94-3.36 1.58-4.98 1.3-3.23 3.23-6.19 5.75-8.58 2.52-2.36 5.49-4.33 8.62-5.74 3.19-1.34 6.61-2.11 10.05-2.66 6.91-1.03 13.92-1.19 20.83-.35 3.46.38 6.89.97 10.21 1.86 1.67.43 3.27 1.01 4.84 1.66 1.51.7 3.05 1.48 4.49 2.42 2.88 1.82 5.46 4.07 7.4 6.84 1.95 2.76 3.26 5.97 4.22 9.3.13.41.22.83.34 1.25.11.42.23.83.27 1.24.14.81.2 1.68.26 2.55.1 1.74.13 3.49.13 5.24-.01 3.53-.11 7.05-.21 10.57z" fill="#aa674d" stroke-width="none" opacity="1"></path></g></g><g id="svga-group-mouth-single-move" transform="matrix(1,0,0,1,0,0)"><g id="svga-group-mouth-single"><path id="SvgjsPath70563" d="M84.5 124.7s16.4 8.5 29.9.2c0 0-7.2-3.4-9.6-4.6-.2-.1-4.8 3.3-4.8 3.3l-5.3-3.6c-.1 0-6.6 3.9-10.2 4.7z" fill="#da7c87" stroke-width="none" opacity="1"></path><path id="SvgjsPath70564" d="M89.7 133s3.1 4.2 4.3 4.2c1.2 0 4.6-1.8 5.5-1.9.9-.1 6.2 1.8 7.1 1.6.9-.1 3.7-4 3.7-4s-3.1 2.5-4.2 2.5-6.4-1.6-7.3-1.3-4.1 2.1-4.7 2c-.7-.2-4.4-3.1-4.4-3.1z" fill="#b97d66" stroke-width="none" opacity="1"></path><path id="SvgjsPath70565" d="M82.82 123.91s4.78 3.98 15.77 4.89c10.98.91 17.42-5.01 17.42-5.01s-8.03 5.24-17.3 4.38c-9.29-.85-15.89-4.26-15.89-4.26z" fill="#cb5f6c" stroke-width="none" opacity="1"></path></g></g><g id="svga-group-eyes-left-move" transform="matrix(1,0,0,1,0,0)"><g id="svga-group-eyes-left"><g id="svga-group-eyesback-left"><path id="SvgjsPath70425" d="M80.2 74.2c7.5 0 13.5 5.8 13.5 13s-6 13-13.5 13-13.5-5.8-13.5-13 6-13 13.5-13z" fill="#ffffff" stroke-width="none" opacity="1"></path></g><g id="svga-group-eyesiriswrapper-left" transform="matrix(1,0,0,1,0,0)"><g id="svga-group-eyesiriscontrol-left" transform="matrix(1,0,0,1,0,0)"><g id="svga-group-eyesiris-left"><path id="SvgjsPath70504" d="M80.2 81.9c2.9 0 5.3 2.4 5.3 5.3s-2.4 5.3-5.3 5.3-5.3-2.4-5.3-5.3 2.4-5.3 5.3-5.3z" fill="#390909" stroke-width="none" opacity="1"></path><path id="SvgjsPath70505" d="M80.2 81.6c-3.1 0-5.6 2.5-5.6 5.6s2.5 5.6 5.6 5.6 5.6-2.5 5.6-5.6c0-3-2.5-5.6-5.6-5.6zm4.7 7.5c-.6-.3-1.2-.6-1.8-.8.1-.2.2-.5.2-.8.6.1 1.3.1 1.9.1 0 .6-.1 1.1-.3 1.5zm-.4.7c-.5-.4-1.1-.8-1.7-1.1 0-.1.1-.1.1-.2.6.3 1.2.6 1.8.8 0 .2-.1.3-.2.5zm.1-5c-.6.1-1.3.4-1.8.8 0-.1-.1-.1-.1-.2.2-.2.5-.3.7-.5.3-.2.6-.5.9-.7l.3.6zm.3.8c-.6.1-1.3.3-1.9.6 0-.1-.1-.2-.1-.3.3-.1.6-.3.9-.4s.6-.2.9-.4c.1.1.2.3.2.5zm-1.6 1.6c0-.3 0-.6-.1-.8.6-.1 1.3-.3 1.9-.5.1.4.2.9.2 1.3h-2zm.8-3.2c-.3.2-.6.5-.9.7-.2.2-.4.3-.7.5l-.3-.3c.4-.5.8-1.1 1.1-1.6.3.2.5.5.8.7zm-3.6 6.3c.2 0 .4-.1.7-.2.1.3.3.7.4 1s.2.6.4.8c-.4.2-.9.3-1.4.3 0-.6 0-1.3-.1-1.9zm1.4-7.8c.4.2.9.4 1.2.6-.4.5-.8 1-1.2 1.6-.1-.1-.2-.1-.3-.2.2-.7.3-1.4.3-2zm-1.5-.3c.4 0 .8.1 1.1.2-.1.5-.1 1-.2 1.5 0 .2-.1.3-.1.5-.2-.1-.4-.1-.6-.1.1-.8 0-1.5-.2-2.1zm1.5 8.8c-.2-.3-.3-.7-.5-1 .1 0 .1-.1.2-.1.1.3.3.6.5.9.1.3.3.6.5.8-.1.1-.2.1-.3.2-.1-.3-.2-.5-.4-.8zm.5-.3c-.2-.3-.3-.6-.5-.8.1-.1.2-.1.3-.2.3.6.7 1.1 1.2 1.6-.1.1-.3.2-.4.3-.2-.4-.5-.7-.6-.9zm-2.1-8.5c-.1.6-.1 1.3-.1 2h-.4c0-.2-.1-.4-.1-.6-.1-.4-.1-.9-.2-1.3.2 0 .4-.1.6-.1h.2zm-2.7.7c.3.6.6 1.2 1.1 1.7-.1.1-.2.1-.2.2-.1-.1-.2-.3-.3-.4-.3-.4-.6-.8-.9-1.1 0-.2.2-.3.3-.4zm2 1.3c-.1 0-.2 0-.2.1-.2-.6-.4-1.3-.6-1.9.2-.1.4-.1.6-.2-.1.7 0 1.4.2 2zm-.6.2s-.1 0 0 0l-1.2-1.5c.2-.1.5-.2.7-.3.2.5.3 1.2.5 1.8zm-.4 5.5c.1 0 .1.1.2.1-.1.2-.2.3-.2.4-.2.4-.4.9-.6 1.3l-.6-.3c.3-.3.5-.6.8-.9.1-.2.3-.4.4-.6zm.3.6c.1-.1.1-.3.2-.4h.1c-.3.6-.4 1.2-.6 1.9-.2-.1-.3-.1-.5-.2.4-.4.6-.9.8-1.3zm.7-.3c.1 0 .2 0 .3.1-.2.6-.2 1.3-.3 1.9-.2 0-.5-.1-.7-.1.2-.6.5-1.2.7-1.9zM77 83.4c.2.4.5.7.8 1 .1.2.3.4.4.5l-.4.4c-.5-.4-1.1-.8-1.6-1.1.2-.3.5-.6.8-.8zm-1.2 6.3 1.5-.9c.1 0 .1-.1.2-.1.1.1.2.3.3.4-.5.4-.9.9-1.4 1.4-.2-.2-.4-.5-.6-.8zm-.4-1.1c.4-.1.8-.2 1.1-.4.2-.1.5-.2.7-.3 0 .2.1.3.1.5-.1.1-.2.1-.3.2-.5.3-.9.6-1.3.9l-.3-.9zm-.2-1.4c0-.2 0-.3.1-.5.6.2 1.3.3 1.9.3v.5c-.3.1-.6.2-.9.4s-.7.2-.9.4c-.2-.4-.2-.7-.2-1.1zm.2-1.5c.4.2.9.4 1.3.6.2.1.3.2.5.2 0 .1 0 .2-.1.3-.2 0-.3-.1-.5-.1-.5-.1-1-.2-1.4-.1.1-.4.1-.7.2-.9zm.7-1.4c.5.4 1 .9 1.6 1.2-.1.2-.2.3-.3.5H77l-1.5-.6c.2-.4.3-.7.6-1.1zm.4 6.4c.5-.4 1-.8 1.5-1.3l.3.3c-.2.2-.3.4-.4.6-.2.3-.5.7-.7 1-.3-.2-.5-.4-.7-.6zm3.4 1.5c.1-.7.2-1.3.2-2h.2c-.1.6-.1 1.3 0 2h-.1c-.1.1-.2 0-.3 0zm3.7-1.2c-.4-.5-.9-1-1.3-1.5.2-.2.4-.4.5-.6.5.4 1.1.8 1.6 1.1-.2.4-.5.7-.8 1z" fill="#1a0000" stroke-width="none" opacity="1"></path><path id="SvgjsPath70506" d="M80.2 84.3c1.6 0 2.9 1.3 2.9 2.9s-1.3 2.9-2.9 2.9-2.9-1.3-2.9-2.9 1.3-2.9 2.9-2.9z" fill="#000000" stroke-width="none" opacity="1"></path><path id="SvgjsPath70507" d="M78.6 84.7c.6 0 1.1.5 1.1 1.1s-.5 1.2-1.1 1.2-1.1-.5-1.1-1.1.5-1.2 1.1-1.2zm3.5 4.1c.3 0 .6.3.6.6s-.2.6-.6.6-.6-.3-.6-.6.3-.6.6-.6z" fill="#ffffff" stroke-width="none" opacity="1"></path></g></g></g><g id="svga-group-eyesfront-left"><path id="SvgjsPath70433" d="M80.2 73.7c-7.8 0-14.1 6.1-14.1 13.6s6.3 13.6 14.1 13.6 14.1-6.1 14.1-13.6S88 73.7 80.2 73.7zM79 90.6c-6.5-.3-11.9-2.5-12.1-2.9s4.4-3.8 14.1-3.4c9.7.5 11.6 5.2 11.6 5.2-1.6 1-7.2 1.4-13.6 1.1z" fill="#d8b1a2" stroke-width="none" opacity="1"></path><path id="SvgjsPath70434" d="M86 90.8c1.1-.1 2.3-.2 3.4-.3.6-.1 1.1-.2 1.7-.3.6-.2 1.1-.3 1.6-.6-.2-.6-.6-1-.9-1.4l-.6-.6c-.2-.2-.4-.4-.7-.5-.9-.7-2-1.2-3-1.6-2.2-.8-4.5-1.1-6.7-1.2-2.3-.1-4.6.1-6.8.6-1.1.2-2.2.5-3.3.8-1.1.4-2.2.8-3.1 1.4l-.3.3c-.1.1-.2.2-.3.4v.2s0 .1.1.1l.1.1.2.1c.1.1.3.1.4.2.5.3 1.1.5 1.6.7 1.1.4 2.2.7 3.3 1 2.2.5 4.5.9 6.8 1 1.9-.2 4.2-.3 6.5-.4zm-16.8-2.3c-.5-.2-1.1-.4-1.6-.6-.1-.1-.2-.1-.4-.2l-.2-.1c0-.1.1-.2.2-.2l.3-.3c.9-.6 1.9-1.1 3-1.5 1.1-.4 2.2-.7 3.3-.8 2.2-.4 4.5-.4 6.8-.3 1.1.1 2.2.2 3.4.3.6.1 1.1.2 1.7.3.5.2 1.1.3 1.6.5 1.1.3 2.1.8 3 1.4.9.6 1.8 1.4 2.3 2.4-.5.2-1.1.4-1.6.5-.6.1-1.1.2-1.7.2-1.1.1-2.2.2-3.4.2-2.3.1-4.5 0-6.8-.1-2.2-.1-4.5-.4-6.7-.9-1-.1-2.1-.4-3.2-.8z" fill="#000000" stroke-width="none" opacity="1"></path><path id="SvgjsPath70435" d="M76.9 94.9C88.7 96.3 93.6 91 93.6 91c-8.1 4.6-16.7 3.9-16.7 3.9zm7.9-13.1c4.3 1.4 5.9 2.8 5.9 2.8s-1.1-1.4-6.1-3.2c-5-1.8-14.6.4-14.6.4s10.2-1.6 14.8 0z" fill="#b97d66" stroke-width="none" opacity="1"></path></g></g></g><g id="svga-group-eyes-right-move" transform="matrix(1,0,0,1,0,0)"><g id="svga-group-eyes-right"><g id="svga-group-eyesback-right"><path id="SvgjsPath70426" d="M119.8 74.2c7.5 0 13.5 5.8 13.5 13s-6 13-13.5 13-13.5-5.8-13.5-13 6-13 13.5-13z" fill="#ffffff" stroke-width="none" opacity="1"></path></g><g id="svga-group-eyesiriswrapper-right" transform="matrix(1,0,0,1,0,0)"><g id="svga-group-eyesiriscontrol-right" transform="matrix(1,0,0,1,0,0)"><g id="svga-group-eyesiris-right"><path id="SvgjsPath70508" d="M119.8 82.5c2.6 0 4.7 2.1 4.7 4.7s-2.1 4.7-4.7 4.7-4.7-2.1-4.7-4.7 2.1-4.7 4.7-4.7z" fill="#390909" stroke-width="none" opacity="1"></path><path id="SvgjsPath70509" d="M119.8 82.3c-2.7 0-4.9 2.2-4.9 4.9s2.2 4.9 4.9 4.9 4.9-2.2 4.9-4.9-2.2-4.9-4.9-4.9zm4.1 6.6c-.5-.3-1.1-.5-1.6-.7.1-.2.1-.4.2-.7.6.1 1.2.1 1.7.1-.1.4-.1.9-.3 1.3zm-.3.5c-.4-.3-.9-.7-1.4-.9 0-.1.1-.1.1-.2.5.3 1 .5 1.6.7-.2.2-.2.3-.3.4zm.1-4.3c-.5.1-1.1.4-1.6.7 0-.1-.1-.1-.1-.2.2-.1.4-.3.6-.4.3-.2.5-.4.8-.6 0 .2.2.3.3.5zm.2.7c-.6.1-1.1.3-1.6.5 0-.1-.1-.2-.1-.3.3-.1.5-.2.8-.3.3-.1.6-.2.8-.3 0 .1.1.2.1.4zm-1.4 1.4c0-.2 0-.5-.1-.7.6-.1 1.1-.2 1.7-.4.1.4.2.8.2 1.2-.6-.1-1.2-.1-1.8-.1zm.7-2.8c-.3.2-.5.4-.8.6-.2.1-.4.3-.6.4l-.3-.3c.4-.4.7-.9 1-1.4l.7.7zm-3.1 5.5c.2 0 .4-.1.6-.1.1.3.2.6.4.9.1.2.2.5.3.7-.4.2-.8.2-1.2.3 0-.7 0-1.2-.1-1.8zm1.2-6.8c.4.1.8.3 1.1.6-.4.4-.7.9-1 1.4-.1-.1-.2-.1-.3-.2.1-.6.2-1.3.2-1.8zm-1.3-.3c.3 0 .7.1 1 .2-.1.4-.1.9-.2 1.3 0 .1-.1.3-.1.4-.2-.1-.3-.1-.5-.1 0-.6-.1-1.2-.2-1.8zm1.3 7.8c-.1-.3-.3-.6-.4-.9.1 0 .1-.1.2-.1.1.3.3.5.4.8.1.2.2.5.4.7-.1 0-.2.1-.2.1-.1-.2-.3-.4-.4-.6zm.4-.4c-.2-.2-.3-.5-.5-.7.1-.1.2-.1.3-.2.3.5.6.9 1 1.4-.1.1-.2.2-.4.3-.1-.3-.3-.6-.4-.8zm-1.8-7.4c-.1.6-.1 1.1 0 1.7h-.4c0-.2-.1-.3-.1-.5-.1-.4-.1-.8-.2-1.2h.7c-.1 0 0 0 0 0zm-.7 1.8c-.1 0-.1 0-.2.1-.1-.6-.3-1.1-.5-1.6.2-.1.4-.1.6-.1-.1.4 0 1 .1 1.6zm-.4.1c0 .1-.1.1 0 0-.3-.5-.7-.9-1.1-1.4l.6-.3c.1.6.3 1.2.5 1.7zm-.3.2c-.1 0-.2.1-.2.1-.1-.1-.2-.2-.3-.4-.3-.3-.5-.7-.8-.9.1-.1.3-.2.4-.3.2.5.5 1.1.9 1.5zm-.1 4.6c.1 0 .1.1 0 0 0 .2 0 .4-.1.5-.2.4-.4.8-.5 1.2-.2-.1-.4-.2-.5-.3.2-.3.5-.6.7-.8.1-.2.3-.4.4-.6zm.3.6c.1-.1.1-.2.2-.3h.1c-.2.5-.4 1.1-.5 1.6-.1-.1-.3-.1-.4-.1l.6-1.2zm.5-.3h.3c-.2.5-.2 1.1-.2 1.7-.2 0-.4-.1-.6-.1.2-.5.4-1 .5-1.6zm-2.2-5.9c.2.3.4.6.7.9.1.2.2.3.4.5l-.3.3c-.4-.4-.9-.7-1.4-1 .1-.3.3-.5.6-.7zm-1 5.5c.4-.2.9-.5 1.3-.8.1 0 .1-.1.2-.1.1.1.1.2.2.3l-1.2 1.2c-.2-.1-.4-.3-.5-.6zm-.4-1c.3-.1.7-.2 1-.3l.6-.3c0 .1.1.3.1.4-.1.1-.2.1-.3.2-.4.3-.8.5-1.2.8 0-.2-.1-.5-.2-.8zm-.2-1.2v-.4c.5.2 1.1.2 1.7.3v.4c-.3.1-.5.2-.8.3-.3.1-.6.2-.8.3-.1-.3-.1-.6-.1-.9zm.2-1.4c.4.2.8.3 1.1.5.1.1.3.1.4.2 0 .1 0 .2-.1.2-.2 0-.3 0-.4-.1-.4-.1-.8-.1-1.3-.1.2-.2.2-.4.3-.7zm.6-1.1c.4.4.9.8 1.4 1.1-.1.1-.2.3-.2.4-.1 0-.2-.1-.3-.1-.4-.2-.9-.4-1.3-.5 0-.3.2-.6.4-.9zm.4 5.5c.4-.4.9-.7 1.3-1.2l.3.3c-.1.2-.3.3-.4.5l-.6.9c-.2-.1-.4-.3-.6-.5zm3 1.4c.1-.6.2-1.2.1-1.7h.2c-.1.6-.1 1.2 0 1.7H119.6zm3.1-1.1c-.4-.4-.8-.8-1.1-1.3.2-.2.3-.3.4-.5.5.3.9.7 1.4 1-.1.3-.4.5-.7.8z" fill="#1a0000" stroke-width="none" opacity="1"></path><path id="SvgjsPath70510" d="M119.8 84.7c1.4 0 2.5 1.1 2.5 2.5s-1.1 2.5-2.5 2.5-2.5-1.1-2.5-2.5 1.1-2.5 2.5-2.5z" fill="#000000" stroke-width="none" opacity="1"></path><path id="SvgjsPath70511" d="M118.4 85c.5 0 1 .4 1 1s-.4 1-1 1-1-.4-1-1 .4-1 1-1zm3.1 3.6c.3 0 .5.2.5.5s-.2.5-.5.5-.5-.2-.5-.5.2-.5.5-.5z" fill="#ffffff" stroke-width="none" opacity="1"></path></g></g></g><g id="svga-group-eyesfront-right"><path id="SvgjsPath70436" d="M119.8 73.7c-7.8 0-14.1 6.1-14.1 13.6s6.3 13.6 14.1 13.6 14.1-6.1 14.1-13.6-6.3-13.6-14.1-13.6zm.5 15.6c-6.4.2-11.3.4-13-.4 0 0 1.9-3.6 11.5-3.9 9.6-.4 14.2 2.3 14 2.6-.2.3-6.1 1.5-12.5 1.7z" fill="#d8b1a2" stroke-width="none" opacity="1"></path><path id="SvgjsPath70439" d="M132.8 87.3c-.1-.1-.2-.2-.4-.2-2-1-4.2-1.4-6.4-1.8-2.2-.3-4.4-.5-6.6-.5-2.2 0-4.4.3-6.6.8-1.1.3-2.1.7-3.1 1.2-.5.2-1 .6-1.4.9-.4.4-.8.7-1.1 1.3.5.3 1.1.4 1.6.5.6.1 1.1.2 1.7.2 1.1.1 2.2.1 3.3.1 2.2 0 4.4-.1 6.6-.1 2.2-.1 4.4-.3 6.6-.6 1.1-.2 2.2-.3 3.3-.6.5-.1 1.1-.2 1.6-.4.3-.1.5-.2.8-.3 0 0 .1 0 .1-.1l.1-.1s.1-.1.1-.2c-.1-.1-.2-.1-.2-.1zm-1 .4c-.5.1-1.1.2-1.6.3-1.1.2-2.2.3-3.2.5-2.2.3-4.4.4-6.6.5l-6.6.2c-1.1 0-2.2.1-3.3 0-.6 0-1.1 0-1.6-.1s-1.1-.1-1.6-.3c.3-.4.7-.8 1.2-1.1.4-.3.9-.6 1.4-.8 1-.5 2-.8 3.1-1.1 2.1-.5 4.3-.7 6.5-.8 2.2-.1 4.4-.1 6.6.2 1.1.1 2.2.4 3.2.7s2.1.7 3 1.2c.1.1.2.1.3.2-.3.3-.5.4-.8.4z" fill="#000000" stroke-width="none" opacity="1"></path><path id="SvgjsPath70440" d="M107.1 90.3s4.8 5.2 16.5 3.9c0-.1-8.5.6-16.5-3.9zm6-6.1c4.4-2.2 14.4-2.2 14.4-2.2s-9.7-.7-14.3 1.8c-4.7 2.5-5.5 4-5.5 4s1.4-1.6 5.4-3.6z" fill="#b97d66" stroke-width="none" opacity="1"></path></g></g></g><g id="svga-group-facehighlight-single"></g><g id="svga-group-eyebrows-left-move" transform="matrix(1,0,0,1,1,0)"><g id="svga-group-eyebrows-left-rotate" transform="matrix(1,1.7453292519943295e-9,-1.7453292519943295e-9,1,1.3049012181909347e-7,-1.3474054583184625e-7)"><g id="svga-group-eyebrows-left"><path id="SvgjsPath70353" d="M63.94 82.86s3.31-9.13 13.8-14.49c5.23-2.67 11.76-1.67 12.42.29s-2.6 4.77-4.27 4.45c-1.67-.31-8.07-1.38-9.51-.78-4.09 1.74-6.96 3.54-12.44 10.53z" fill="#2a232b" stroke-width="none" opacity="1"></path><path id="SvgjsPath70354" d="M63.92 82.9c.18-.76.49-1.33.78-1.98.3-.63.63-1.25.99-1.85.73-1.19 1.5-2.37 2.42-3.43.89-1.09 1.88-2.09 2.9-3.05 1.07-.92 2.17-1.79 3.35-2.54 1.18-.76 2.42-1.41 3.69-2.02 1.29-.56 2.64-.97 4.03-1.18 1.38-.2 2.79-.3 4.19-.14.7.08 1.4.19 2.07.41.66.23 1.37.5 1.85 1.15.47.7.3 1.57-.01 2.22-.32.67-.79 1.24-1.33 1.74-.54.49-1.16.9-1.89 1.15-.36.12-.79.19-1.2.11l-1.02-.17c-1.37-.22-2.74-.41-4.11-.55-.69-.07-1.37-.14-2.05-.17-.67-.03-1.39-.04-1.95.09-2.48.98-4.92 2.38-6.95 4.22-2.07 1.8-3.85 3.87-5.76 5.99zm.04-.07c1.53-2.24 3.32-4.46 5.33-6.4 1.02-.97 2.12-1.86 3.32-2.62 1.23-.75 2.44-1.35 3.82-1.9.79-.19 1.49-.15 2.2-.13.71.03 1.41.09 2.1.17 1.39.16 2.77.37 4.15.61l1.03.19c.27.06.55.03.86-.06.6-.18 1.17-.54 1.68-.95.51-.42.97-.92 1.27-1.49.3-.55.45-1.25.13-1.75-.33-.51-.99-.82-1.61-1.06-.64-.23-1.31-.38-1.99-.46-1.36-.16-2.76-.13-4.12.11-1.36.24-2.69.64-3.91 1.26-1.21.66-2.39 1.37-3.51 2.18-4.52 3.13-8.3 7.4-10.75 12.3z" fill="#1b141c" stroke-width="none" opacity="1"></path></g></g></g><g id="svga-group-eyebrows-right-move" transform="matrix(1,0,0,1,-1,0)"><g id="svga-group-eyebrows-right-rotate" transform="matrix(1,1.7453292519943295e-9,-1.7453292519943295e-9,1,1.302437340200413e-7,-2.1211856449099287e-7)"><g id="svga-group-eyebrows-right"><path id="SvgjsPath70355" d="M132.69 80.18s-4.22-7.77-13.45-10.59c-4.6-1.41-8.47.91-8.65 2.85s4.62 2.9 5.89 2.26c1.27-.63 3.29-1.99 4.53-1.72 3.53.76 6.12 1.84 11.68 7.2z" fill="#2a232b" stroke-width="none" opacity="1"></path><path id="SvgjsPath70356" d="M132.67 80.15c-1.26-1.74-2.74-3.46-4.37-4.92a27.997 27.997 0 0 0-5.37-3.79c-.47-.28-.97-.52-1.47-.75-.49-.25-1-.45-1.52-.64-1.02-.44-2.08-.71-3.18-.76-1.1-.07-2.2.11-3.22.5-.51.19-1 .45-1.43.78-.43.32-.82.71-1.06 1.16-.25.46-.33.97-.03 1.33.27.38.74.65 1.21.87.97.4 2.07.61 3.11.61 1.87-.02 3.71-2.63 6.33-1.8 1.09.26 2.19.6 3.22 1.1 1.03.49 1.99 1.11 2.89 1.78 1.79 1.34 3.45 2.91 4.89 4.53zm.04.06c-1.79-1.45-3.41-2.89-5.26-4.12a16.578 16.578 0 0 0-5.95-2.6c-.25-.05-.57-.14-.75-.15-.22-.01-.46.03-.7.09-.49.14-.98.36-1.47.59-.49.24-.97.5-1.47.77-.25.13-.49.27-.85.37-.31.07-.62.09-.91.09a8.145 8.145 0 0 1-3.37-.77c-.52-.26-1.05-.58-1.4-1.13-.1-.12-.13-.3-.19-.45-.03-.16-.03-.34-.03-.5.05-.31.17-.6.32-.86.31-.52.75-.91 1.23-1.22.48-.32.99-.57 1.52-.76 1.07-.38 2.2-.54 3.33-.52 1.12.04 2.26.26 3.31.63.54.16 1.07.33 1.59.56.52.21 1.05.41 1.55.68 2.02 1 3.85 2.36 5.47 3.92 1.6 1.58 3.04 3.28 4.03 5.38z" fill="#1b141c" stroke-width="none" opacity="1"></path></g></g></g><g id="svga-group-beardwrap"><g id="svga-group-beard-single-move" transform="matrix(1,0,0,1,0,-1)"><g id="svga-group-beard-single" transform="matrix(1.1000004000000003,0,0,1.1000004000000003,-10.002540544059784,-13.895179634451353)"><path id="SvgjsPath70344" d="M91.8 134.75c.35 3.01 5.21 7.92 5.21 7.92l.69-1.16 1.39 1.62 2.08-2.43v1.39l1.62-1.62-.23 2.2s3.74-2.85 5.25-7.48c-2.3-.41-5.37-.44-8.37-.52-2.55-.08-5.58-.13-7.64.08z" fill="#2a232b" stroke-width="none" opacity="1"></path><path id="SvgjsPath70345" d="M107.88 134.82c-1.34-.26-2.69-.35-4.04-.4-1.34-.06-2.68-.08-4.02-.08-1.34-.01-2.68-.02-4.02.04-1.35.05-2.66.12-4.04.35.02.87.36 1.6.69 2.35.36.73.78 1.42 1.24 2.09.45.67.95 1.3 1.46 1.93.52.62 1.04 1.23 1.6 1.82l.3.32.22-.38.46-.79c.37.42.74.84 1.13 1.26l.22.24.19-.24 1.73-2.17.02.95.01.32.22-.23c.45-.46.9-.92 1.36-1.37-.07.61-.14 1.23-.22 1.84l-.06.38.31-.24c1.24-.96 2.35-2.07 3.29-3.33.95-1.25 1.69-2.66 2.22-4.16l.14-.4-.41-.1zm-2.42 4.29c-.78 1.14-1.68 2.22-2.7 3.16.05-.6.11-1.19.16-1.79l.03-.35-.24.25c-.45.47-.93.93-1.4 1.39l.02-1.07.01-.41-.28.3-1.95 2.12c-.38-.48-.76-.95-1.16-1.42l-.29-.34-.23.38-.47.77c-1-1.03-1.95-2.12-2.83-3.26-.49-.62-.95-1.27-1.35-1.95-.41-.66-.77-1.41-.94-2.13 1.28-.02 2.66.01 3.98.06l4 .19c2.52.13 5.04.16 7.49.49-.2.56-.41 1.12-.69 1.65-.35.68-.72 1.34-1.16 1.96z" fill="#1b141c" stroke-width="none" opacity="1"></path></g></g></g><g id="svga-group-mustache-single-move" transform="matrix(1,0,0,1,0.5,-1)"><g id="svga-group-mustache-single"><path id="SvgjsPath70602" d="M130.2 125.3s-6.6-10.9-29-11.8c-18.3-.7-25.8 4.9-31.4 11.3 0 0 15.2 5.2 29.9-2 0-.1 12.5 7.8 30.5 2.5z" fill="#2a232b" stroke-width="none" opacity="1"></path><path id="SvgjsPath70603" d="M127.5 122c-.5-.5-1.1-.9-1.6-1.4-.6-.4-1.1-.8-1.7-1.2-2.3-1.6-4.9-2.8-7.6-3.7-1.3-.5-2.7-.8-4.1-1.2-1.4-.3-2.8-.6-4.1-.8-2.8-.4-5.6-.6-8.4-.7-5.6 0-11.3.5-16.6 2.2-2.7.9-5.2 2.1-7.6 3.7-2.3 1.6-4.4 3.5-6.3 5.6l-.3.3.5.2c2.5.8 5 1.3 7.6 1.6 2.6.3 5.2.4 7.7.3 1.3 0 2.6-.2 3.9-.4 1.3-.2 2.6-.4 3.8-.8 2.4-.6 4.8-1.5 7.1-2.5 2.3 1.3 4.7 2.2 7.2 2.8 2.6.7 5.2 1.1 7.8 1.3 2.6.1 5.3.1 7.9-.3 1.3-.1 2.6-.4 3.9-.7 1.3-.3 2.6-.7 3.8-1.1-.9-1.2-1.9-2.2-2.9-3.2zm-1.2 4.1c-1.3.2-2.6.4-3.9.5-2.6.3-5.2.2-7.8 0-2.6-.2-5.1-.7-7.6-1.4s-4.9-1.6-7.1-2.9l-.2-.1-.3.1c-2.3 1-4.6 2-7.1 2.6-1.2.4-2.5.5-3.7.8-1.2.2-2.5.3-3.8.4-2.5.2-5.1.1-7.6-.1-2.3-.2-4.7-.7-7-1.3 1.7-2 3.6-3.8 5.7-5.3 2.3-1.6 4.8-2.8 7.4-3.7 5.3-1.7 11-2 16.5-1.8 2.8.1 5.5.3 8.3.7 1.4.2 2.7.5 4.1.8 1.3.4 2.7.7 4 1.1 2.6.9 5.2 1.9 7.6 3.4 2.3 1.4 4.6 3.2 6.2 5.4-1.2.2-2.4.5-3.7.8zm-32.6-6.2c-.8.6-1.5 1.2-2.3 1.7-.4.3-.9.6-1.3.9.4-.8.9-1.7 1.3-2.6.6-1.2 1.2-2.5 1.8-3.8l.1-.3-.3.2c-2.1 1.3-4.4 2.4-6.6 3.6-1.8 1-3.7 2-5.5 2.9.5-.9 1-1.7 1.4-2.6l.6-1.1-1 .6c-2.5 1.4-4.9 2.8-7.3 4.4v.1c2.2-1 4.4-2.1 6.6-3.3-.5.9-1 1.7-1.5 2.6l-.6 1 1.1-.5c1.2-.5 2.3-1.1 3.4-1.7 1.1-.6 2.2-1.2 3.2-1.9 2.1-1.2 4-2.5 6.1-3.8-.2.5-.4 1-.7 1.5-.3.6-.6 1.2-1 1.8l-2.1 3.6-.7 1.1 1.1-.7c1.7-1 3.2-2.2 4.7-3.4 1.5-1.2 2.9-2.5 4.3-3.9l-.1-.1-4.7 3.7zm30.5 2.2.7 2.4c-1.1-.3-2-.8-3-1.3-1.1-.6-2.1-1.2-3.1-1.9s-2-1.3-3-2.1c-1-.7-2-1.4-2.9-2.2l-.9-.7.3 1.1c.4 1.4 1.1 2.7 1.9 3.9.7 1.1 1.4 2 2.2 3-1.4-.6-2.8-1.4-4-2.3-1.4-1-2.8-2.1-4-3.3l-.6-.6.1.8c.1 1.3.3 2.7.4 4-1.5-1.4-2.9-2.9-4.4-4.4l-.1.1c.7 1 1.4 1.9 2.2 2.8.8.9 1.6 1.8 2.4 2.6l.6.5-.1-.8c-.1-1.3-.3-2.7-.4-4.1 1.2.9 2.4 1.8 3.7 2.6 1.5.9 3 1.8 4.6 2.5l.5.2-.3-.4c-.8-1.1-1.6-2.3-2.3-3.6-.5-.9-.9-1.8-1.3-2.7 1.6 1.3 3.3 2.5 5.1 3.6 1.1.7 2.1 1.2 3.3 1.8 1.1.5 2.3 1 3.5 1.2l.3.1-.1-.3-1.3-2.5z" fill="#1b141c" stroke-width="none" opacity="1"></path></g></g><g id="svga-group-nose-single-move" transform="matrix(1,0,0,1,0,1)"><g id="svga-group-nose-single"><path id="SvgjsPath70547" d="M109.5 107.91c-1.24.49-2.69.36-3.82.07s-2.48.69-2.95 1.13c-.47.44-1.71 1.71-3.93.91-2.22-.8-2.15-1.57-3.35-1.86-1.2-.29-2.07.66-3.42.29-1.35-.36-1.97-1.38-1.86-2.8.11-1.42.82-3.92 1.48-4.96s10.31-4.3 17.37.43c0 0 1.49 2.39 1.46 4.32s-.14 2.14-.98 2.47z" fill="#d8b1a2" stroke-width="none" opacity="1"></path><path id="SvgjsPath70548" d="M91.66 100.69c-.5 1.38-.97 2.79-1.14 4.22-.08.7-.12 1.45.12 2.05l.09.22c.04.07.09.13.13.2.04.07.09.13.15.19.06.05.1.12.16.16.23.21.53.32.83.39.63.13 1.33.02 2.02-.13l.53-.12.28-.06.15-.03.18-.02c.49-.03.91.14 1.27.31.73.36 1.3.86 1.88 1.29l.21.16c.07.04.12.08.19.12.13.07.27.13.42.17.3.09.63.13.95.12.64-.01 1.28-.21 1.77-.6l.17-.16.21-.2c.14-.13.29-.26.45-.38.31-.24.64-.46 1.01-.64.36-.17.75-.31 1.17-.37a2.43 2.43 0 0 1 1 .07l.29.11c.25.1.61.15.95.17.34.02.69.01 1.04-.03.68-.08 1.4-.27 1.8-.7.19-.19.27-.52.31-.86.04-.34.03-.69-.01-1.05-.14-1.43-.62-2.84-1.24-4.17.8 1.24 1.38 2.63 1.68 4.11.07.37.1.76.09 1.15-.02.39-.08.82-.37 1.2-.28.35-.66.56-1.03.71-.37.15-.75.24-1.14.31-.38.07-.77.09-1.16.09-.4-.01-.78-.04-1.22-.19l-.22-.08c-.07-.01-.13-.03-.2-.03-.14-.02-.29 0-.44.02-.3.05-.61.17-.91.32-.29.16-.58.34-.85.56-.13.11-.26.22-.39.34l-.19.18-.24.21c-.66.54-1.5.8-2.32.82-.41.01-.83-.05-1.23-.17-.2-.06-.4-.15-.59-.25-.09-.05-.19-.12-.28-.18l-.23-.17c-.59-.45-1.15-.92-1.73-1.23-.29-.15-.59-.26-.84-.25h-.09l-.12.02-.26.05-.55.11c-.74.14-1.54.25-2.35.04-.4-.11-.8-.29-1.11-.6-.3-.31-.55-.64-.66-1.06-.25-.8-.14-1.58 0-2.32.16-.74.39-1.45.66-2.14.29-.68.6-1.35.95-2z" fill="#aa674d" stroke-width="none" opacity="1"></path><path id="SvgjsPath70549" d="M102.11 103.91c-.52-.52-1.24-.61-1.94-.46-.09.02-.17.04-.25.06-.29-.19-.59-.32-.98-.32-.43 0-.95.19-1.25.52-.67.73-.68 1.78 0 2.5 1.14 1.22 3.69 1.57 4.66-.08.4-.68.33-1.65-.24-2.22z" fill="#e0bfb3" stroke-width="none" opacity="1"></path></g></g><g id="svga-group-hair-front"><path id="SvgjsPath70614" d="M89.3 34.4c1.1-3 3.5-5.6 6.4-7.1 1.5-.7 3.1-1.2 4.7-1.3 1.6-.1 3.3.2 4.8.8-3.2-.4-6.3 0-9.1 1.4-2.7 1.4-5 3.6-6.8 6.2zm5.4.2c1.9-2.7 4.6-4.8 7.7-6.1 3.1-1.2 6.5-1.7 9.7-.9-3.3 0-6.4.6-9.3 1.8-3 1.3-5.7 3.1-8.1 5.2zm9.8-.8c1.8-1.8 4.2-3.1 6.6-3.8 2.5-.7 5.2-.9 7.7-.2-2.6.1-5 .5-7.4 1.1-2.4.7-4.7 1.7-6.9 2.9zm-18.4.4c.2-1.8 1.1-3.5 2.3-4.8 1.2-1.3 2.8-2.4 4.5-2.8-1.4 1.1-2.7 2.2-3.8 3.5-1.1 1.2-2 2.6-3 4.1zm50.3 33.4 2.7-1.8c1.5-1 2.9-2.2 4.4-3.2l.6-.5-.8.1c-2.4.3-4.7.6-7.1.8 1.1-.7 2.2-1.3 3.3-2 1.4-.9 2.8-1.8 4.1-2.8l1.3-.9-1.5.1c-1.3.1-2.5.3-3.8.4s-2.5.3-3.8.5v.1c1.3 0 2.5 0 3.8-.1.8 0 1.5-.1 2.3-.1-1 .6-1.9 1.2-2.9 1.9-1.4.9-2.7 1.9-4.1 2.9l-.9.7 1.1-.2c2.4-.4 4.9-.7 7.3-.9-1.3.8-2.6 1.7-3.9 2.5-1.5.9-3.1 1.9-4.6 2.8L132 69l2.1-.1c2.1-.1 4.3-.4 6.4-.8-.9.8-1.7 1.5-2.6 2.3-1.3 1.2-2.6 2.3-3.8 3.5l.1.1c1.4-1 2.8-2.1 4.2-3.1 1.4-1.1 2.7-2.1 4.1-3.2l1.5-1.2-1.9.3c-1.8.3-3.8.5-5.7.8zm-70.7-8.1 1-.6-1.1-.2c-1.6-.2-3.1-.3-4.7-.1-1.5.2-3.1.5-4.5 1.1v.1c1.5-.3 3-.5 4.5-.5 1.1 0 2.2 0 3.3.2-1.1.7-2.2 1.3-3.2 2-1.4.9-2.8 1.9-4.2 2.8l-.8.4.9-.2c2.4-.5 4.8-.5 7.2-.1l-8.4 3.9-2 1h8.7c.2 0 .5 0 .6.1 0 0 .1 0 0 .2s-.3.3-.5.5l-.7.5c-.9.7-1.7 1.3-2.6 2.1l.1.1c.9-.6 1.9-1.1 2.8-1.7l.7-.4c.2-.2.5-.3.7-.5.1-.1.2-.3.2-.6s-.1-.5-.3-.6c-.4-.3-.7-.3-1-.3-1.5-.1-3-.2-4.5-.2 2.5-1.2 4.9-2.5 7.4-3.8l1-.5-1-.2c-2.5-.4-5.1-.3-7.6.1 1.2-.7 2.4-1.3 3.6-2 1.5-.9 3-1.7 4.4-2.6z" fill="#2a232b" stroke-width="none" opacity="1"></path></g><g id="svga-group-glasses-single-move" transform="matrix(1,0,0,1,0,-3)"><g id="svga-group-glasses-single" transform="matrix(1.1500006000000005,0,0,1.1500006000000005,-14.949060917525529,-13.785131472397651)"><path id="SvgjsPath70577" d="m92.2 97.2-22.21.64c-.67.02-1.24-.5-1.28-1.16l-.45-8.42c-.04-.69.49-1.25 1.18-1.26l23.84-.39c.65-.01 1.17.52 1.17 1.19l.01 7.06c0 1.25-1.01 2.3-2.26 2.34z" fill="#ffffff" stroke-width="none" opacity="0.45"></path><path id="SvgjsPath70578" d="m109.2 96.73 20.34-.58c.58-.02 1.09-.53 1.14-1.15l.57-7.87c.05-.64-.4-1.15-.99-1.14l-21.85.35c-.63.01-1.15.55-1.17 1.21l-.17 6.97c-.04 1.26.92 2.25 2.13 2.21z" fill="#ffffff" stroke-width="none" opacity="0.45"></path><path id="SvgjsPath70579" d="M95.67 92.08c0 1.23-.32 2.24-.71 2.25-.39.01-.71-.98-.71-2.22 0-1.24.32-2.26.71-2.27.4 0 .72 1 .71 2.24z" fill="#939393" stroke-width="none" opacity="1"></path><path id="SvgjsPath70580" d="M105.99 91.85c-.03 1.22.26 2.2.64 2.19.38-.01.71-1 .75-2.22.03-1.22-.26-2.22-.64-2.21-.39 0-.73 1.01-.75 2.24z" fill="#939393" stroke-width="none" opacity="1"></path><path id="SvgjsPath70581" d="m132.87 85.59-2.48.04-22.04.36c-.76.01-1.4.67-1.42 1.47l-.03 1.39c-1.95-.03-4.03-.54-5.99-.51-2.08.04-4.02.64-6.09.74v-1.41c0-.81-.64-1.46-1.43-1.45l-24.07.39-2.87.05.11 1.91 1.35-.02.45 8.25c.04.8.74 1.44 1.56 1.41l22.5-.65c1.33-.04 2.41-1.16 2.41-2.51v-4.69c2.07-.1 4.01-.7 6.08-.75 1.95-.04 4.03.47 5.98.49l-.11 4.63c-.03 1.33.99 2.38 2.27 2.34l20.6-.6c.71-.02 1.33-.65 1.38-1.4l.56-7.69 1.16-.02.12-1.77zM92.4 96.84l-22.53.64a.75.75 0 0 1-.77-.7l-.45-8.63c-.02-.41.3-.76.71-.76l24.03-.41c.39-.01.71.32.71.72l.01 7.37c0 .94-.77 1.74-1.71 1.77zm37.96-1.75c-.03.37-.33.68-.69.69l-20.62.58c-.91.03-1.63-.72-1.61-1.66l.18-7.26c.01-.4.33-.72.7-.73l22.01-.37c.36-.01.63.3.6.69l-.57 8.06z" fill="#26120b" stroke-width="none" opacity="1"></path></g></g></g></g></g><rect id="svga-credit-rect" width="200" height="15" x="0" y="185" fill="#ecf0f1" opacity="0.5" style="display: none;"></rect><text id="svga-credit-text" font-family="Avenir Next, Roboto, Helvetica, Arial, sans-serif" font-size="10px" text-anchor="start" font-weight="400" size="10px" anchor="start" weight="400" fill="#333333" x="33.40447998046875" y="182.60824704170227" style="display: none;"><tspan id="SvgjsTspan70343" dy="13" x="33.40447998046875">Created on AvatarMaker.com</tspan></text></g><defs id="SvgjsDefs70290"></defs></svg>